<?xml version="1.0" encoding="UTF-8" standalone="no"?><svg xmlns="http://www.w3.org/2000/svg" xmlns:xlink="http://www.w3.org/1999/xlink" contentScriptType="application/ecmascript" contentStyleType="text/css" height="436.4583px" preserveAspectRatio="none" style="width:1243px;height:436px;background:#333333;" version="1.1" viewBox="0 0 1243 436" width="1243.75px" zoomAndPan="magnify"><defs/><g><rect fill="#48494B" height="41.2028" rx="8.3333" ry="8.3333" style="stroke:#545454;stroke-width:1.0416666666666667;" width="483.3333" x="372.9167" y="2.0833"/><text fill="#C0C0C0" font-family="Open Sans,Avenir,Nunito,Arial,Helvetica,SansSerif" font-size="20.8333" lengthAdjust="spacing" textLength="460.4167" x="384.375" y="30.5583">com.telenav.aonia.map.measurements.project</text><!--MD5=[d776228a55af1f9e7dd99d395538019c]
class KryoTypes--><rect fill="#282828" height="48.055" id="KryoTypes" rx="8.3333" ry="8.3333" style="stroke:#5E5E5E;stroke-width:1.0416666666666667;" width="106.25" x="68.2292" y="53.7028"/><rect fill="#1B1B1A" height="31.3883" rx="8.3333" ry="8.3333" style="stroke:#1B1B1A;stroke-width:1.0416666666666667;" width="106.25" x="68.2292" y="53.7028"/><rect fill="#1B1B1A" height="8.3333" style="stroke:#1B1B1A;stroke-width:1.0416666666666667;" width="106.25" x="68.2292" y="76.7578"/><rect fill="none" height="48.055" id="KryoTypes" rx="8.3333" ry="8.3333" style="stroke:#5E5E5E;stroke-width:1.0416666666666667;" width="106.25" x="68.2292" y="53.7028"/><ellipse cx="82.8125" cy="69.397" fill="#0066CF" rx="10.4167" ry="10.4167" style="stroke:#0086EF;stroke-width:1.0416666666666667;"/><path d="M84.7229,73.822 Q84.2957,74.0417 83.8257,74.1516 Q83.3557,74.2615 82.8369,74.2615 Q80.9937,74.2615 80.0232,73.0469 Q79.0527,71.8323 79.0527,69.5374 Q79.0527,67.2363 80.0232,66.0217 Q80.9937,64.8071 82.8369,64.8071 Q83.3557,64.8071 83.8318,64.917 Q84.3079,65.0269 84.7229,65.2466 L84.7229,67.2485 Q84.259,66.8213 83.8226,66.6229 Q83.3862,66.4246 82.9224,66.4246 Q81.9336,66.4246 81.4301,67.2089 Q80.9265,67.9932 80.9265,69.5374 Q80.9265,71.0754 81.4301,71.8597 Q81.9336,72.644 82.9224,72.644 Q83.3862,72.644 83.8226,72.4457 Q84.259,72.2473 84.7229,71.8201 Z " fill="#000000"/><text fill="#D8BC00" font-family="Open Sans,Avenir,Nunito,Arial,Helvetica,SansSerif" font-size="12.5" font-weight="bold" lengthAdjust="spacing" textLength="68.75" x="99.4792" y="74.1211">KryoTypes</text><line style="stroke:#5E5E5E;stroke-width:1.0416666666666667;" x1="69.2708" x2="173.4375" y1="85.0911" y2="85.0911"/><line style="stroke:#5E5E5E;stroke-width:1.0416666666666667;" x1="69.2708" x2="173.4375" y1="93.4245" y2="93.4245"/><!--MD5=[de1043c327acbfc6576d072b0f8598c5]
class MapMeasurementsKryoTypes--><rect codeLine="7" fill="#282828" height="83.3781" id="MapMeasurementsKryoTypes" rx="8.3333" ry="8.3333" style="stroke:#5E5E5E;stroke-width:1.0416666666666667;" width="228.125" x="7.2917" y="255.2653"/><rect fill="#1B1B1A" height="31.3883" rx="8.3333" ry="8.3333" style="stroke:#1B1B1A;stroke-width:1.0416666666666667;" width="228.125" x="7.2917" y="255.2653"/><rect fill="#1B1B1A" height="8.3333" style="stroke:#1B1B1A;stroke-width:1.0416666666666667;" width="228.125" x="7.2917" y="278.3203"/><rect codeLine="7" fill="none" height="83.3781" id="MapMeasurementsKryoTypes" rx="8.3333" ry="8.3333" style="stroke:#5E5E5E;stroke-width:1.0416666666666667;" width="228.125" x="7.2917" y="255.2653"/><ellipse cx="21.875" cy="270.9595" fill="#0066CF" rx="10.4167" ry="10.4167" style="stroke:#0086EF;stroke-width:1.0416666666666667;"/><path d="M23.7854,275.3845 Q23.3582,275.6042 22.8882,275.7141 Q22.4182,275.824 21.8994,275.824 Q20.0562,275.824 19.0857,274.6094 Q18.1152,273.3948 18.1152,271.0999 Q18.1152,268.7988 19.0857,267.5842 Q20.0562,266.3696 21.8994,266.3696 Q22.4182,266.3696 22.8943,266.4795 Q23.3704,266.5894 23.7854,266.8091 L23.7854,268.811 Q23.3215,268.3838 22.8851,268.1854 Q22.4487,267.9871 21.9849,267.9871 Q20.9961,267.9871 20.4926,268.7714 Q19.989,269.5557 19.989,271.0999 Q19.989,272.6379 20.4926,273.4222 Q20.9961,274.2065 21.9849,274.2065 Q22.4487,274.2065 22.8851,274.0082 Q23.3215,273.8098 23.7854,273.3826 Z " fill="#000000"/><text fill="#D8BC00" font-family="Open Sans,Avenir,Nunito,Arial,Helvetica,SansSerif" font-size="12.5" font-weight="bold" lengthAdjust="spacing" textLength="190.625" x="38.5417" y="275.6836">MapMeasurementsKryoTypes</text><line style="stroke:#5E5E5E;stroke-width:1.5625;" x1="8.3333" x2="234.375" y1="286.6536" y2="286.6536"/><ellipse cx="18.75" cy="322.0235" fill="#84BE84" rx="3.125" ry="3.125" style="stroke:#038048;stroke-width:1.0416666666666667;"/><text fill="#D8BC00" font-family="Open Sans,Avenir,Nunito,Arial,Helvetica,SansSerif" font-size="11.4583" lengthAdjust="spacing" textLength="171.875" x="30.2083" y="328.9347">MapMeasurementsKryoTypes()</text><line style="stroke:#5E5E5E;stroke-width:1.0416666666666667;" x1="8.3333" x2="77.6042" y1="304.8594" y2="304.8594"/><text fill="#D8BC00" font-family="Open Sans,Avenir,Nunito,Arial,Helvetica,SansSerif" font-size="11.4583" lengthAdjust="spacing" textLength="81.25" x="80.7292" y="308.669">(constructors)</text><line style="stroke:#5E5E5E;stroke-width:1.0416666666666667;" x1="165.1042" x2="234.375" y1="304.8594" y2="304.8594"/><!--MD5=[79d378210367c0c6ec62ef762ddfbd1b]
class Project--><rect fill="#282828" height="48.055" id="Project" rx="8.3333" ry="8.3333" style="stroke:#5E5E5E;stroke-width:1.0416666666666667;" width="81.25" x="333.8542" y="53.7028"/><rect fill="#1B1B1A" height="31.3883" rx="8.3333" ry="8.3333" style="stroke:#1B1B1A;stroke-width:1.0416666666666667;" width="81.25" x="333.8542" y="53.7028"/><rect fill="#1B1B1A" height="8.3333" style="stroke:#1B1B1A;stroke-width:1.0416666666666667;" width="81.25" x="333.8542" y="76.7578"/><rect fill="none" height="48.055" id="Project" rx="8.3333" ry="8.3333" style="stroke:#5E5E5E;stroke-width:1.0416666666666667;" width="81.25" x="333.8542" y="53.7028"/><ellipse cx="348.4375" cy="69.397" fill="#0066CF" rx="10.4167" ry="10.4167" style="stroke:#0086EF;stroke-width:1.0416666666666667;"/><path d="M350.3479,73.822 Q349.9207,74.0417 349.4507,74.1516 Q348.9807,74.2615 348.4619,74.2615 Q346.6187,74.2615 345.6482,73.0469 Q344.6777,71.8323 344.6777,69.5374 Q344.6777,67.2363 345.6482,66.0217 Q346.6187,64.8071 348.4619,64.8071 Q348.9807,64.8071 349.4568,64.917 Q349.9329,65.0269 350.3479,65.2466 L350.3479,67.2485 Q349.884,66.8213 349.4476,66.6229 Q349.0112,66.4246 348.5474,66.4246 Q347.5586,66.4246 347.0551,67.2089 Q346.5515,67.9932 346.5515,69.5374 Q346.5515,71.0754 347.0551,71.8597 Q347.5586,72.644 348.5474,72.644 Q349.0112,72.644 349.4476,72.4457 Q349.884,72.2473 350.3479,71.8201 Z " fill="#000000"/><text fill="#D8BC00" font-family="Open Sans,Avenir,Nunito,Arial,Helvetica,SansSerif" font-size="12.5" font-weight="bold" lengthAdjust="spacing" textLength="43.75" x="365.1042" y="74.1211">Project</text><line style="stroke:#5E5E5E;stroke-width:1.0416666666666667;" x1="334.8958" x2="414.0625" y1="85.0911" y2="85.0911"/><line style="stroke:#5E5E5E;stroke-width:1.0416666666666667;" x1="334.8958" x2="414.0625" y1="93.4245" y2="93.4245"/><!--MD5=[9504b914ea3b98e0615e0cabbfca733a]
class MapMeasurementsProject--><rect codeLine="14" fill="#282828" height="127.0345" id="MapMeasurementsProject" rx="8.3333" ry="8.3333" style="stroke:#5E5E5E;stroke-width:1.0416666666666667;" width="204.1667" x="272.3958" y="233.3903"/><rect fill="#1B1B1A" height="31.3883" rx="8.3333" ry="8.3333" style="stroke:#1B1B1A;stroke-width:1.0416666666666667;" width="204.1667" x="272.3958" y="233.3903"/><rect fill="#1B1B1A" height="8.3333" style="stroke:#1B1B1A;stroke-width:1.0416666666666667;" width="204.1667" x="272.3958" y="256.4453"/><rect codeLine="14" fill="none" height="127.0345" id="MapMeasurementsProject" rx="8.3333" ry="8.3333" style="stroke:#5E5E5E;stroke-width:1.0416666666666667;" width="204.1667" x="272.3958" y="233.3903"/><ellipse cx="287.4479" cy="249.0845" fill="#0066CF" rx="10.4167" ry="10.4167" style="stroke:#0086EF;stroke-width:1.0416666666666667;"/><path d="M289.3583,253.5095 Q288.9311,253.7292 288.4611,253.8391 Q287.9911,253.949 287.4723,253.949 Q285.6291,253.949 284.6586,252.7344 Q283.6882,251.5198 283.6882,249.2249 Q283.6882,246.9238 284.6586,245.7092 Q285.6291,244.4946 287.4723,244.4946 Q287.9911,244.4946 288.4672,244.6045 Q288.9433,244.7144 289.3583,244.9341 L289.3583,246.936 Q288.8944,246.5088 288.458,246.3104 Q288.0216,246.1121 287.5578,246.1121 Q286.569,246.1121 286.0655,246.8964 Q285.5619,247.6807 285.5619,249.2249 Q285.5619,250.7629 286.0655,251.5472 Q286.569,252.3315 287.5578,252.3315 Q288.0216,252.3315 288.458,252.1332 Q288.8944,251.9348 289.3583,251.5076 Z " fill="#000000"/><text fill="#D8BC00" font-family="Open Sans,Avenir,Nunito,Arial,Helvetica,SansSerif" font-size="12.5" font-weight="bold" lengthAdjust="spacing" textLength="165.625" x="304.2188" y="253.8086">MapMeasurementsProject</text><line style="stroke:#5E5E5E;stroke-width:1.5625;" x1="273.4375" x2="475.5208" y1="264.7786" y2="264.7786"/><polygon fill="#FFFF44" points="283.8542,294.9402,288.0208,299.1069,283.8542,303.2735,279.6875,299.1069" style="stroke:#B38D22;stroke-width:1.0416666666666667;"/><text fill="#D8BC00" font-family="Open Sans,Avenir,Nunito,Arial,Helvetica,SansSerif" font-size="11.4583" lengthAdjust="spacing" textLength="151.0417" x="295.3125" y="307.0597">MapMeasurementsProject()</text><line style="stroke:#5E5E5E;stroke-width:1.0416666666666667;" x1="273.4375" x2="330.7292" y1="282.9844" y2="282.9844"/><text fill="#D8BC00" font-family="Open Sans,Avenir,Nunito,Arial,Helvetica,SansSerif" font-size="11.4583" lengthAdjust="spacing" textLength="81.25" x="333.8542" y="286.794">(constructors)</text><line style="stroke:#5E5E5E;stroke-width:1.0416666666666667;" x1="418.2292" x2="475.5208" y1="282.9844" y2="282.9844"/><ellipse cx="283.8542" cy="343.8049" fill="#84BE84" rx="3.125" ry="3.125" style="stroke:#038048;stroke-width:1.0416666666666667;"/><text fill="#D8BC00" font-family="Open Sans,Avenir,Nunito,Arial,Helvetica,SansSerif" font-size="11.4583" lengthAdjust="spacing" textLength="171.875" x="295.3125" y="350.7161">MapMeasurementsProject get()</text><line style="stroke:#5E5E5E;stroke-width:1.0416666666666667;" x1="273.4375" x2="340.1042" y1="326.6408" y2="326.6408"/><text fill="#D8BC00" font-family="Open Sans,Avenir,Nunito,Arial,Helvetica,SansSerif" font-size="11.4583" lengthAdjust="spacing" textLength="62.5" x="343.2292" y="330.4504">(collection)</text><line style="stroke:#5E5E5E;stroke-width:1.0416666666666667;" x1="408.8542" x2="475.5208" y1="326.6408" y2="326.6408"/><!--MD5=[48199313adf418ae9233b27dfacc45fd]
class RandomValueFactory--><rect fill="#282828" height="48.055" id="RandomValueFactory" rx="8.3333" ry="8.3333" style="stroke:#5E5E5E;stroke-width:1.0416666666666667;" width="172.9167" x="615.1042" y="53.7028"/><rect fill="#1B1B1A" height="31.3883" rx="8.3333" ry="8.3333" style="stroke:#1B1B1A;stroke-width:1.0416666666666667;" width="172.9167" x="615.1042" y="53.7028"/><rect fill="#1B1B1A" height="8.3333" style="stroke:#1B1B1A;stroke-width:1.0416666666666667;" width="172.9167" x="615.1042" y="76.7578"/><rect fill="none" height="48.055" id="RandomValueFactory" rx="8.3333" ry="8.3333" style="stroke:#5E5E5E;stroke-width:1.0416666666666667;" width="172.9167" x="615.1042" y="53.7028"/><ellipse cx="629.6875" cy="69.397" fill="#0066CF" rx="10.4167" ry="10.4167" style="stroke:#0086EF;stroke-width:1.0416666666666667;"/><path d="M631.5979,73.822 Q631.1707,74.0417 630.7007,74.1516 Q630.2307,74.2615 629.7119,74.2615 Q627.8687,74.2615 626.8982,73.0469 Q625.9277,71.8323 625.9277,69.5374 Q625.9277,67.2363 626.8982,66.0217 Q627.8687,64.8071 629.7119,64.8071 Q630.2307,64.8071 630.7068,64.917 Q631.1829,65.0269 631.5979,65.2466 L631.5979,67.2485 Q631.134,66.8213 630.6976,66.6229 Q630.2612,66.4246 629.7974,66.4246 Q628.8086,66.4246 628.3051,67.2089 Q627.8015,67.9932 627.8015,69.5374 Q627.8015,71.0754 628.3051,71.8597 Q628.8086,72.644 629.7974,72.644 Q630.2612,72.644 630.6976,72.4457 Q631.134,72.2473 631.5979,71.8201 Z " fill="#000000"/><text fill="#D8BC00" font-family="Open Sans,Avenir,Nunito,Arial,Helvetica,SansSerif" font-size="12.5" font-weight="bold" lengthAdjust="spacing" textLength="135.4167" x="646.3542" y="74.1211">RandomValueFactory</text><line style="stroke:#5E5E5E;stroke-width:1.0416666666666667;" x1="616.1458" x2="786.9792" y1="85.0911" y2="85.0911"/><line style="stroke:#5E5E5E;stroke-width:1.0416666666666667;" x1="616.1458" x2="786.9792" y1="93.4245" y2="93.4245"/><!--MD5=[79e0819f41b14e4b578ad9e243ba811f]
class MapMeasurementsRandomValueFactory--><rect codeLine="23" fill="#282828" height="265.2486" id="MapMeasurementsRandomValueFactory" rx="8.3333" ry="8.3333" style="stroke:#5E5E5E;stroke-width:1.0416666666666667;" width="377.0833" x="513.0208" y="164.1195"/><rect fill="#1B1B1A" height="31.3883" rx="8.3333" ry="8.3333" style="stroke:#1B1B1A;stroke-width:1.0416666666666667;" width="377.0833" x="513.0208" y="164.1195"/><rect fill="#1B1B1A" height="8.3333" style="stroke:#1B1B1A;stroke-width:1.0416666666666667;" width="377.0833" x="513.0208" y="187.1745"/><rect codeLine="23" fill="none" height="265.2486" id="MapMeasurementsRandomValueFactory" rx="8.3333" ry="8.3333" style="stroke:#5E5E5E;stroke-width:1.0416666666666667;" width="377.0833" x="513.0208" y="164.1195"/><ellipse cx="565.625" cy="179.8136" fill="#0066CF" rx="10.4167" ry="10.4167" style="stroke:#0086EF;stroke-width:1.0416666666666667;"/><path d="M567.5354,184.2387 Q567.1082,184.4584 566.6382,184.5683 Q566.1682,184.6781 565.6494,184.6781 Q563.8062,184.6781 562.8357,183.4635 Q561.8652,182.2489 561.8652,179.954 Q561.8652,177.653 562.8357,176.4384 Q563.8062,175.2238 565.6494,175.2238 Q566.1682,175.2238 566.6443,175.3337 Q567.1204,175.4435 567.5354,175.6632 L567.5354,177.6652 Q567.0715,177.238 566.6351,177.0396 Q566.1987,176.8412 565.7349,176.8412 Q564.7461,176.8412 564.2426,177.6255 Q563.739,178.4098 563.739,179.954 Q563.739,181.4921 564.2426,182.2764 Q564.7461,183.0607 565.7349,183.0607 Q566.1987,183.0607 566.6351,182.8623 Q567.0715,182.664 567.5354,182.2367 Z " fill="#000000"/><text fill="#D8BC00" font-family="Open Sans,Avenir,Nunito,Arial,Helvetica,SansSerif" font-size="12.5" font-weight="bold" lengthAdjust="spacing" textLength="257.2917" x="588.5417" y="184.5378">MapMeasurementsRandomValueFactory</text><line style="stroke:#5E5E5E;stroke-width:1.5625;" x1="514.0625" x2="889.0625" y1="195.5078" y2="195.5078"/><ellipse cx="524.4792" cy="230.8777" fill="#84BE84" rx="3.125" ry="3.125" style="stroke:#038048;stroke-width:1.0416666666666667;"/><text fill="#D8BC00" font-family="Open Sans,Avenir,Nunito,Arial,Helvetica,SansSerif" font-size="11.4583" lengthAdjust="spacing" textLength="230.2083" x="535.9375" y="237.7889">MapMeasurementsRandomValueFactory()</text><ellipse cx="524.4792" cy="250.6226" fill="#84BE84" rx="3.125" ry="3.125" style="stroke:#038048;stroke-width:1.0416666666666667;"/><text fill="#D8BC00" font-family="Open Sans,Avenir,Nunito,Arial,Helvetica,SansSerif" font-size="11.4583" lengthAdjust="spacing" textLength="255.2083" x="535.9375" y="257.5338">MapMeasurementsRandomValueFactory(long)</text><line style="stroke:#5E5E5E;stroke-width:1.0416666666666667;" x1="514.0625" x2="657.8125" y1="213.7136" y2="213.7136"/><text fill="#D8BC00" font-family="Open Sans,Avenir,Nunito,Arial,Helvetica,SansSerif" font-size="11.4583" lengthAdjust="spacing" textLength="81.25" x="660.9375" y="217.5232">(constructors)</text><line style="stroke:#5E5E5E;stroke-width:1.0416666666666667;" x1="745.3125" x2="889.0625" y1="213.7136" y2="213.7136"/><ellipse cx="524.4792" cy="294.279" fill="#84BE84" rx="3.125" ry="3.125" style="stroke:#038048;stroke-width:1.0416666666666667;"/><text fill="#D8BC00" font-family="Open Sans,Avenir,Nunito,Arial,Helvetica,SansSerif" font-size="11.4583" lengthAdjust="spacing" textLength="97.9167" x="535.9375" y="301.1902">Angle newAngle()</text><ellipse cx="524.4792" cy="314.0238" fill="#84BE84" rx="3.125" ry="3.125" style="stroke:#038048;stroke-width:1.0416666666666667;"/><text fill="#D8BC00" font-family="Open Sans,Avenir,Nunito,Arial,Helvetica,SansSerif" font-size="11.4583" lengthAdjust="spacing" textLength="282.2917" x="535.9375" y="320.9351">Angle newAngle(Angle minimum, Angle maximum)</text><ellipse cx="524.4792" cy="333.7687" fill="#84BE84" rx="3.125" ry="3.125" style="stroke:#038048;stroke-width:1.0416666666666667;"/><text fill="#D8BC00" font-family="Open Sans,Avenir,Nunito,Arial,Helvetica,SansSerif" font-size="11.4583" lengthAdjust="spacing" textLength="85.4167" x="535.9375" y="340.6799">Area newArea()</text><ellipse cx="524.4792" cy="353.5136" fill="#84BE84" rx="3.125" ry="3.125" style="stroke:#038048;stroke-width:1.0416666666666667;"/><text fill="#D8BC00" font-family="Open Sans,Avenir,Nunito,Arial,Helvetica,SansSerif" font-size="11.4583" lengthAdjust="spacing" textLength="257.2917" x="535.9375" y="360.4248">Area newArea(Area minimum, Area maximum)</text><ellipse cx="524.4792" cy="373.2585" fill="#84BE84" rx="3.125" ry="3.125" style="stroke:#038048;stroke-width:1.0416666666666667;"/><text fill="#D8BC00" font-family="Open Sans,Avenir,Nunito,Arial,Helvetica,SansSerif" font-size="11.4583" lengthAdjust="spacing" textLength="129.1667" x="535.9375" y="380.1697">Distance newDistance()</text><ellipse cx="524.4792" cy="393.0033" fill="#84BE84" rx="3.125" ry="3.125" style="stroke:#038048;stroke-width:1.0416666666666667;"/><text fill="#D8BC00" font-family="Open Sans,Avenir,Nunito,Arial,Helvetica,SansSerif" font-size="11.4583" lengthAdjust="spacing" textLength="344.7917" x="535.9375" y="399.9146">Distance newDistance(Distance minimum, Distance maximum)</text><ellipse cx="524.4792" cy="412.7482" fill="#84BE84" rx="3.125" ry="3.125" style="stroke:#038048;stroke-width:1.0416666666666667;"/><text fill="#D8BC00" font-family="Open Sans,Avenir,Nunito,Arial,Helvetica,SansSerif" font-size="11.4583" lengthAdjust="spacing" textLength="100" x="535.9375" y="419.6594">Speed newSpeed()</text><line style="stroke:#5E5E5E;stroke-width:1.0416666666666667;" x1="514.0625" x2="674.4792" y1="277.1149" y2="277.1149"/><text fill="#D8BC00" font-family="Open Sans,Avenir,Nunito,Arial,Helvetica,SansSerif" font-size="11.4583" lengthAdjust="spacing" textLength="47.9167" x="677.6042" y="280.9245">(factory)</text><line style="stroke:#5E5E5E;stroke-width:1.0416666666666667;" x1="728.6458" x2="889.0625" y1="277.1149" y2="277.1149"/><!--MD5=[04aa7edd5c4e84eb6b64397942174aef]
class KryoUnitTest--><rect fill="#282828" height="48.055" id="KryoUnitTest" rx="8.3333" ry="8.3333" style="stroke:#5E5E5E;stroke-width:1.0416666666666667;" width="122.9167" x="1020.3125" y="53.7028"/><rect fill="#1B1B1A" height="31.3883" rx="8.3333" ry="8.3333" style="stroke:#1B1B1A;stroke-width:1.0416666666666667;" width="122.9167" x="1020.3125" y="53.7028"/><rect fill="#1B1B1A" height="8.3333" style="stroke:#1B1B1A;stroke-width:1.0416666666666667;" width="122.9167" x="1020.3125" y="76.7578"/><rect fill="none" height="48.055" id="KryoUnitTest" rx="8.3333" ry="8.3333" style="stroke:#5E5E5E;stroke-width:1.0416666666666667;" width="122.9167" x="1020.3125" y="53.7028"/><ellipse cx="1034.8958" cy="69.397" fill="#0066CF" rx="10.4167" ry="10.4167" style="stroke:#0086EF;stroke-width:1.0416666666666667;"/><path d="M1036.8062,73.822 Q1036.379,74.0417 1035.909,74.1516 Q1035.439,74.2615 1034.9202,74.2615 Q1033.077,74.2615 1032.1065,73.0469 Q1031.1361,71.8323 1031.1361,69.5374 Q1031.1361,67.2363 1032.1065,66.0217 Q1033.077,64.8071 1034.9202,64.8071 Q1035.439,64.8071 1035.9151,64.917 Q1036.3912,65.0269 1036.8062,65.2466 L1036.8062,67.2485 Q1036.3424,66.8213 1035.906,66.6229 Q1035.4696,66.4246 1035.0057,66.4246 Q1034.0169,66.4246 1033.5134,67.2089 Q1033.0098,67.9932 1033.0098,69.5374 Q1033.0098,71.0754 1033.5134,71.8597 Q1034.0169,72.644 1035.0057,72.644 Q1035.4696,72.644 1035.906,72.4457 Q1036.3424,72.2473 1036.8062,71.8201 Z " fill="#000000"/><text fill="#D8BC00" font-family="Open Sans,Avenir,Nunito,Arial,Helvetica,SansSerif" font-size="12.5" font-weight="bold" lengthAdjust="spacing" textLength="85.4167" x="1051.5625" y="74.1211">KryoUnitTest</text><line style="stroke:#5E5E5E;stroke-width:1.0416666666666667;" x1="1021.3542" x2="1142.1875" y1="85.0911" y2="85.0911"/><line style="stroke:#5E5E5E;stroke-width:1.0416666666666667;" x1="1021.3542" x2="1142.1875" y1="93.4245" y2="93.4245"/><!--MD5=[a647bf8a2b21214e714a0cf577652e6d]
class MapMeasurementsUnitTest--><rect codeLine="39" fill="#282828" height="83.3781" id="MapMeasurementsUnitTest" rx="8.3333" ry="8.3333" style="stroke:#5E5E5E;stroke-width:1.0416666666666667;" width="309.375" x="927.0833" y="255.2653"/><rect fill="#1B1B1A" height="31.3883" rx="8.3333" ry="8.3333" style="stroke:#1B1B1A;stroke-width:1.0416666666666667;" width="309.375" x="927.0833" y="255.2653"/><rect fill="#1B1B1A" height="8.3333" style="stroke:#1B1B1A;stroke-width:1.0416666666666667;" width="309.375" x="927.0833" y="278.3203"/><rect codeLine="39" fill="none" height="83.3781" id="MapMeasurementsUnitTest" rx="8.3333" ry="8.3333" style="stroke:#5E5E5E;stroke-width:1.0416666666666667;" width="309.375" x="927.0833" y="255.2653"/><ellipse cx="985.9375" cy="270.9595" fill="#0066CF" rx="10.4167" ry="10.4167" style="stroke:#0086EF;stroke-width:1.0416666666666667;"/><path d="M987.8479,275.3845 Q987.4207,275.6042 986.9507,275.7141 Q986.4807,275.824 985.9619,275.824 Q984.1187,275.824 983.1482,274.6094 Q982.1777,273.3948 982.1777,271.0999 Q982.1777,268.7988 983.1482,267.5842 Q984.1187,266.3696 985.9619,266.3696 Q986.4807,266.3696 986.9568,266.4795 Q987.4329,266.5894 987.8479,266.8091 L987.8479,268.811 Q987.384,268.3838 986.9476,268.1854 Q986.5112,267.9871 986.0474,267.9871 Q985.0586,267.9871 984.5551,268.7714 Q984.0515,269.5557 984.0515,271.0999 Q984.0515,272.6379 984.5551,273.4222 Q985.0586,274.2065 986.0474,274.2065 Q986.5112,274.2065 986.9476,274.0082 Q987.384,273.8098 987.8479,273.3826 Z " fill="#000000"/><text fill="#D8BC00" font-family="Open Sans,Avenir,Nunito,Arial,Helvetica,SansSerif" font-size="12.5" font-weight="bold" lengthAdjust="spacing" textLength="177.0833" x="1008.8542" y="275.6836">MapMeasurementsUnitTest</text><line style="stroke:#5E5E5E;stroke-width:1.5625;" x1="928.125" x2="1235.4167" y1="286.6536" y2="286.6536"/><polygon fill="#FFFF44" points="938.5417,316.8152,942.7083,320.9819,938.5417,325.1485,934.375,320.9819" style="stroke:#B38D22;stroke-width:1.0416666666666667;"/><text fill="#D8BC00" font-family="Open Sans,Avenir,Nunito,Arial,Helvetica,SansSerif" font-size="11.4583" lengthAdjust="spacing" textLength="277.0833" x="950" y="328.9347">MapMeasurementsRandomValueFactory random()</text><line style="stroke:#5E5E5E;stroke-width:1.0416666666666667;" x1="928.125" x2="1047.3958" y1="304.8594" y2="304.8594"/><text fill="#D8BC00" font-family="Open Sans,Avenir,Nunito,Arial,Helvetica,SansSerif" font-size="11.4583" lengthAdjust="spacing" textLength="62.5" x="1050.5208" y="308.669">(collection)</text><line style="stroke:#5E5E5E;stroke-width:1.0416666666666667;" x1="1116.1458" x2="1235.4167" y1="304.8594" y2="304.8594"/><!--MD5=[bf4311ce9390ce0601a72097d1efce21]
reverse link KryoTypes to MapMeasurementsKryoTypes--><path codeLine="6" d="M121.3542,123.0257 C121.3542,161.7445 121.3542,217.4945 121.3542,255.1195 " fill="none" id="KryoTypes-backto-MapMeasurementsKryoTypes" style="stroke:#545454;stroke-width:1.5625;"/><polygon fill="none" points="114.0625,122.7757,121.3542,101.9424,128.6458,122.7757,114.0625,122.7757" style="stroke:#545454;stroke-width:1.5625;"/><!--MD5=[1c79d2fef378b6c4af531ef3e5bc59da]
reverse link Project to MapMeasurementsProject--><path codeLine="13" d="M374.4792,123.2236 C374.4792,154.9528 374.4792,198.057 374.4792,233.2549 " fill="none" id="Project-backto-MapMeasurementsProject" style="stroke:#545454;stroke-width:1.5625;"/><polygon fill="none" points="367.1875,122.7757,374.4792,101.9424,381.7708,122.7757,367.1875,122.7757" style="stroke:#545454;stroke-width:1.5625;"/><!--MD5=[b133f099cf3a2111f2d5c5526b398779]
reverse link RandomValueFactory to MapMeasurementsRandomValueFactory--><path codeLine="22" d="M701.5625,123.0882 C701.5625,135.3174 701.5625,149.2445 701.5625,163.7653 " fill="none" id="RandomValueFactory-backto-MapMeasurementsRandomValueFactory" style="stroke:#545454;stroke-width:1.5625;"/><polygon fill="none" points="694.2708,122.7757,701.5625,101.9424,708.8542,122.7757,694.2708,122.7757" style="stroke:#545454;stroke-width:1.5625;"/><!--MD5=[024a97cf03360f9951b6bde4bff6c1dd]
reverse link KryoUnitTest to MapMeasurementsUnitTest--><path codeLine="38" d="M1081.7708,123.0257 C1081.7708,161.7445 1081.7708,217.4945 1081.7708,255.1195 " fill="none" id="KryoUnitTest-backto-MapMeasurementsUnitTest" style="stroke:#545454;stroke-width:1.5625;"/><polygon fill="none" points="1074.4792,122.7757,1081.7708,101.9424,1089.0625,122.7757,1074.4792,122.7757" style="stroke:#545454;stroke-width:1.5625;"/><!--MD5=[3524d4d69f132430ed3dad659df8d775]
@startuml

    !include ../lexakai/lexakai.theme
    
    title "com.telenav.aonia.map.measurements.project"
    
    KryoTypes <|- - MapMeasurementsKryoTypes
    class MapMeasurementsKryoTypes
    {
        - -(constructors)- -
        +MapMeasurementsKryoTypes()
    }
    
    Project <|- - MapMeasurementsProject
    class MapMeasurementsProject
    {
        - -(constructors)- -
        #MapMeasurementsProject()
        - -(collection)- -
        +MapMeasurementsProject get()
    }
    
    RandomValueFactory <|- - MapMeasurementsRandomValueFactory
    class MapMeasurementsRandomValueFactory
    {
        - -(constructors)- -
        +MapMeasurementsRandomValueFactory()
        +MapMeasurementsRandomValueFactory(long)
        - -(factory)- -
        +Angle newAngle()
        +Angle newAngle(Angle minimum, Angle maximum)
        +Area newArea()
        +Area newArea(Area minimum, Area maximum)
        +Distance newDistance()
        +Distance newDistance(Distance minimum, Distance maximum)
        +Speed newSpeed()
    }
    
    KryoUnitTest <|- - MapMeasurementsUnitTest
    class MapMeasurementsUnitTest
    {
        - -(collection)- -
        #MapMeasurementsRandomValueFactory random()
    }
    
@enduml

@startuml









skinparam backgroundColor #333333






skinparam  {
    defaultFontName   "Open Sans,Avenir,Nunito,Arial,Helvetica,SansSerif"
    defaultFontSize   12
    defaultTextAlignment left
    shadowing false
    RoundCorner 10
    TitleFontSize 18
}

skinparam defaultFontName       "Open Sans,Avenir,Nunito,Arial,Helvetica,SansSerif"
skinparam defaultFontSize       12
skinparam dpi                   100
skinparam shadowing             false
skinparam roundcorner           16
skinparam ParticipantPadding    40
skinparam BoxPadding            40
skinparam Padding               3
skinparam ArrowColor            #545454
skinparam stereotype {
    CBackgroundColor #0066cf
    CBorderColor #0086ef
    ABackgroundColor #C8Ac00
    ABorderColor #D8Bc00
    IBackgroundColor #008400
    IBorderColor #239c23
    EBackgroundColor #cf6300
    EBorderColor #ef8300
    NBackgroundColor #3380b9
    NBorderColor #004d86
}
skinparam title {
	FontColor	                 #c0c0c0
 	BorderColor                  #545454
	FontSize	    	         20
	BorderRoundCorner            16
	BorderThickness 	         1
	BackgroundColor              #48494b
}


skinparam legend {
	BackgroundColor #303030
	BorderColor #404040
	FontColor #a0a0a0
}

	skinparam swimlane {
	BorderColor #5e5e5e
	BorderThickness 2
	TitleBackgroundColor  #6d6d6d-#484848
	TitleFontColor #303030
}

skinparam activity {
		FontColor #C8Ac00
	BorderColor #333333
	BackgroundColor #333333-#333333
	BarColor #00FF00
	StartColor #0060a8
	EndColor #0060a8
	DiamondBackgroundColor #6d6d6d-#3a3a3a
  	DiamondBorderColor #3a3a3a
  	DiamondFontColor #fefefe
}


skinparam participant {
		FontColor #C8Ac00
	BorderColor #333333
	BackgroundColor #333333-#333333
	ParticipantBorderThickness 2
}


skinparam actor {
		FontColor #C8Ac00
	BorderColor #333333
	BackgroundColor #333333-#333333
}


skinparam arrow {
	Thickness 1.5
	Color #545454
	FontColor #a0a0a0
    FontStyle bold
    MessageAlignment center
}



skinparam sequence {
	BorderColor #303030
	TitleFontColor #303030
	BackgroundColor #333333
	StartColor #303030
	EndColor #303030
	BoxBackgroundColor #333333
	BoxBorderColor #484848
	BoxFontColor #484848
	LifeLineBorderColor #484848
	LifeLineBorderThickness 2
	LifeLineBackgroundColor #3a3a3a
	GroupBorderColor #484848
	GroupFontColor #484848
	GroupHeaderFontColor #0060a8
	GroupBackgroundColor #484848
	GroupHeaderBackgroundColor #333333
	DividerBackgroundColor #484848
    DividerBorderColor #484848
    DividerBorderThickness 2
    DividerFontColor #D8Bc00
	ReferenceBackgroundColor #333333
	ReferenceBorderColor #484848
	ReferenceFontColor #fefefe
	ReferenceHeaderBackgroundColor #484848
}


skinparam partition {
	BorderColor #303030
	FontColor #333333
	BackgroundColor #333333
}


skinparam collections {
		FontColor #C8Ac00
	BorderColor #333333
	BackgroundColor #333333-#333333
}


skinparam control {
		FontColor #C8Ac00
	BorderColor #333333
	BackgroundColor #333333-#333333
}


skinparam entity {
		FontColor #C8Ac00
	BorderColor #333333
	BackgroundColor #333333-#333333
}


skinparam boundary {
		FontColor #C8Ac00
	BorderColor #333333
	BackgroundColor #333333-#333333
}


skinparam agent {
	BackgroundColor #ff8000
	BorderColor #ff9933
	FontColor #484848
}


skinparam note {
	BorderThickness 1
	BackgroundColor #1b1b1a
	BorderColor #5e5e5e
	FontSize 11
	FontColor #a0a0a0
}


skinparam artifact {
	BorderThickness 10
	BorderColor #5e5e5e
	BackgroundColor #1b1b1a
	FontColor #D8Bc00
}


skinparam component {
		FontColor #C8Ac00
	BorderColor #333333
	BackgroundColor #333333-#333333
}


skinparam interface {
	BackgroundColor  #008400
	BorderColor  #007F00
	FontColor #484848
}


skinparam storage {
	BackgroundColor #ff8000
  	BorderColor #cc6600
	FontColor #222222
}


skinparam node {
	BackgroundColor #333333
	BorderColor #333333
	FontColor #C8Ac00
}


skinparam cloud {
	BackgroundColor #484848-black
	BorderColor #484848
	FontColor #D8Bc00
}


skinparam database {
		FontColor #C8Ac00
	BorderColor #333333
	BackgroundColor #333333-#333333
	BackgroundColor  #333333
}


skinparam class {
		FontColor #C8Ac00
	BorderColor #333333
	BackgroundColor #333333-#333333
	HeaderBackgroundColor #1b1b1a
    BackgroundColor #282828
    BorderColor #5e5e5e
 	StereotypeFontColor #a0a0a0
    StereotypeFontStyle bold
	BorderThickness 1
	AttributeFontColor #D8Bc00
	AttributeFontSize 11
    FontColor #D8Bc00
    FontStyle bold
}


skinparam object {
		FontColor #C8Ac00
	BorderColor #333333
	BackgroundColor #333333-#333333
	StereotypeFontColor #484848
	BorderThickness 1
	AttributeFontColor #fefefe
	AttributeFontSize 11
}


skinparam usecase {
		FontColor #C8Ac00
	BorderColor #333333
	BackgroundColor #333333-#333333
	BorderThickness 2
	StereotypeFontColor #303030
}


skinparam rectangle {
		FontColor #C8Ac00
	BorderColor #333333
	BackgroundColor #333333-#333333
	BackgroundColor #333333
	BorderThickness 2
	StereotypeFontColor #303030
}


skinparam package {
		FontColor #C8Ac00
	BorderColor #333333
	BackgroundColor #333333-#333333
	BackgroundColor #333333
	BorderThickness 2
}


skinparam folder {
	BackgroundColor #6d6d6d
  	BorderColor #ff8000
	FontColor #ff8000
	BorderThickness 2
}


skinparam frame {
	BackgroundColor #6d6d6d
  	BorderColor #0060a8
	FontColor #0060a8
	BorderThickness 2
}


skinparam state {
		FontColor #C8Ac00
	BorderColor #333333
	BackgroundColor #333333-#333333
	StartColor #0060a8
	EndColor #0060a8
	AttributeFontColor #fefefe
	AttributeFontSize 11
}


skinparam queue {
		FontColor #C8Ac00
	BorderColor #333333
	BackgroundColor #333333-#333333
}


skinparam card {
	BackgroundColor #0060a8
	BorderColor #004d86
	FontColor $INFO_TEXT
}


skinparam file {
	BackgroundColor #6d6d6d-#484848
	BorderColor #0060a8
	FontColor #fefefe
}


skinparam stack {
		FontColor #C8Ac00
	BorderColor #333333
	BackgroundColor #333333-#333333
}

    
    title "com.telenav.aonia.map.measurements.project"
    
    KryoTypes <|- - MapMeasurementsKryoTypes
    class MapMeasurementsKryoTypes
    {
        - -(constructors)- -
        +MapMeasurementsKryoTypes()
    }
    
    Project <|- - MapMeasurementsProject
    class MapMeasurementsProject
    {
        - -(constructors)- -
        #MapMeasurementsProject()
        - -(collection)- -
        +MapMeasurementsProject get()
    }
    
    RandomValueFactory <|- - MapMeasurementsRandomValueFactory
    class MapMeasurementsRandomValueFactory
    {
        - -(constructors)- -
        +MapMeasurementsRandomValueFactory()
        +MapMeasurementsRandomValueFactory(long)
        - -(factory)- -
        +Angle newAngle()
        +Angle newAngle(Angle minimum, Angle maximum)
        +Area newArea()
        +Area newArea(Area minimum, Area maximum)
        +Distance newDistance()
        +Distance newDistance(Distance minimum, Distance maximum)
        +Speed newSpeed()
    }
    
    KryoUnitTest <|- - MapMeasurementsUnitTest
    class MapMeasurementsUnitTest
    {
        - -(collection)- -
        #MapMeasurementsRandomValueFactory random()
    }
    
@enduml

PlantUML version 1.2021.01(Tue Feb 02 00:55:08 MST 2021)
(GPL source distribution)
Java Runtime: Java(TM) SE Runtime Environment
JVM: Java HotSpot(TM) 64-Bit Server VM
Default Encoding: UTF-8
Language: en
Country: US
--></g></svg>