<?xml version="1.0" encoding="UTF-8" standalone="no"?><svg xmlns="http://www.w3.org/2000/svg" xmlns:xlink="http://www.w3.org/1999/xlink" contentScriptType="application/ecmascript" contentStyleType="text/css" height="1269.7917px" preserveAspectRatio="none" style="width:1041px;height:1269px;background:#333333;" version="1.1" viewBox="0 0 1041 1269" width="1041.6667px" zoomAndPan="magnify"><defs/><g><rect fill="#48494B" height="41.2028" rx="8.3333" ry="8.3333" style="stroke:#545454;stroke-width:1.0416666666666667;" width="268.75" x="379.1667" y="2.0833"/><text fill="#C0C0C0" font-family="Open Sans,Avenir,Nunito,Arial,Helvetica,SansSerif" font-size="20.8333" lengthAdjust="spacing" textLength="245.8333" x="390.625" y="30.5583">Measurements of Motion</text><!--MD5=[7a4729d26b999f6a4650b01106c103c5]
class Comparable--><rect codeLine="6" fill="#282828" height="48.055" id="Comparable" rx="8.3333" ry="8.3333" style="stroke:#5E5E5E;stroke-width:1.0416666666666667;" width="115.625" x="918.75" y="212.557"/><rect fill="#1B1B1A" height="31.3883" rx="8.3333" ry="8.3333" style="stroke:#1B1B1A;stroke-width:1.0416666666666667;" width="115.625" x="918.75" y="212.557"/><rect fill="#1B1B1A" height="8.3333" style="stroke:#1B1B1A;stroke-width:1.0416666666666667;" width="115.625" x="918.75" y="235.612"/><rect codeLine="6" fill="none" height="48.055" id="Comparable" rx="8.3333" ry="8.3333" style="stroke:#5E5E5E;stroke-width:1.0416666666666667;" width="115.625" x="918.75" y="212.557"/><ellipse cx="933.3333" cy="228.2511" fill="#008400" rx="10.4167" ry="10.4167" style="stroke:#239C23;stroke-width:1.0416666666666667;"/><path d="M930.2165,225.413 L930.2165,223.8261 L935.6425,223.8261 L935.6425,225.413 L933.8298,225.413 L933.8298,231.3517 L935.6425,231.3517 L935.6425,232.9386 L930.2165,232.9386 L930.2165,231.3517 L932.0292,231.3517 L932.0292,225.413 Z " fill="#000000"/><text fill="#D8BC00" font-family="Open Sans,Avenir,Nunito,Arial,Helvetica,SansSerif" font-size="12.5" font-style="italic" font-weight="bold" lengthAdjust="spacing" textLength="78.125" x="950" y="232.9753">Comparable</text><line style="stroke:#5E5E5E;stroke-width:1.0416666666666667;" x1="919.7917" x2="1033.3333" y1="243.9453" y2="243.9453"/><line style="stroke:#5E5E5E;stroke-width:1.0416666666666667;" x1="919.7917" x2="1033.3333" y1="252.2786" y2="252.2786"/><!--MD5=[bc39a93972ee56a020d0ede45fbe8c90]
class Acceleration--><rect codeLine="10" fill="#282828" height="142.6127" id="Acceleration" rx="8.3333" ry="8.3333" style="stroke:#5E5E5E;stroke-width:1.0416666666666667;" width="440.625" x="7.2917" y="165.1611"/><rect fill="#1B1B1A" height="31.3883" rx="8.3333" ry="8.3333" style="stroke:#1B1B1A;stroke-width:1.0416666666666667;" width="440.625" x="7.2917" y="165.1611"/><rect fill="#1B1B1A" height="8.3333" style="stroke:#1B1B1A;stroke-width:1.0416666666666667;" width="440.625" x="7.2917" y="188.2161"/><rect codeLine="10" fill="none" height="142.6127" id="Acceleration" rx="8.3333" ry="8.3333" style="stroke:#5E5E5E;stroke-width:1.0416666666666667;" width="440.625" x="7.2917" y="165.1611"/><ellipse cx="180.7292" cy="180.8553" fill="#0066CF" rx="10.4167" ry="10.4167" style="stroke:#0086EF;stroke-width:1.0416666666666667;"/><path d="M182.6396,185.2804 Q182.2123,185.5001 181.7424,185.6099 Q181.2724,185.7198 180.7536,185.7198 Q178.9103,185.7198 177.9399,184.5052 Q176.9694,183.2906 176.9694,180.9957 Q176.9694,178.6947 177.9399,177.4801 Q178.9103,176.2655 180.7536,176.2655 Q181.2724,176.2655 181.7485,176.3753 Q182.2245,176.4852 182.6396,176.7049 L182.6396,178.7069 Q182.1757,178.2796 181.7393,178.0813 Q181.3029,177.8829 180.839,177.8829 Q179.8503,177.8829 179.3467,178.6672 Q178.8432,179.4515 178.8432,180.9957 Q178.8432,182.5338 179.3467,183.3181 Q179.8503,184.1024 180.839,184.1024 Q181.3029,184.1024 181.7393,183.904 Q182.1757,183.7056 182.6396,183.2784 Z " fill="#000000"/><text fill="#D8BC00" font-family="Open Sans,Avenir,Nunito,Arial,Helvetica,SansSerif" font-size="12.5" font-weight="bold" lengthAdjust="spacing" textLength="79.1667" x="203.6458" y="185.5794">Acceleration</text><line style="stroke:#5E5E5E;stroke-width:1.5625;" x1="8.3333" x2="446.875" y1="196.5495" y2="196.5495"/><ellipse cx="18.75" cy="231.9194" fill="#84BE84" rx="3.125" ry="3.125" style="stroke:#038048;stroke-width:1.0416666666666667;"/><text fill="#D8BC00" font-family="Open Sans,Avenir,Nunito,Arial,Helvetica,SansSerif" font-size="11.4583" lengthAdjust="spacing" textLength="204.1667" x="30.2083" y="238.8306">double asMetersPerSecondSquared()</text><ellipse cx="18.75" cy="251.6642" fill="#84BE84" rx="3.125" ry="3.125" style="stroke:#038048;stroke-width:1.0416666666666667;"/><text fill="#D8BC00" font-family="Open Sans,Avenir,Nunito,Arial,Helvetica,SansSerif" font-size="11.4583" lengthAdjust="spacing" textLength="182.2917" x="30.2083" y="258.5754">double asMilesPerHourSquared()</text><ellipse cx="18.75" cy="271.4091" fill="#84BE84" rx="3.125" ry="3.125" style="stroke:#038048;stroke-width:1.0416666666666667;"/><text fill="#D8BC00" font-family="Open Sans,Avenir,Nunito,Arial,Helvetica,SansSerif" font-size="11.4583" lengthAdjust="spacing" textLength="408.3333" x="30.2083" y="278.3203">Acceleration metersPerSecondSquared(double metersPerSecondSquared)</text><ellipse cx="18.75" cy="291.154" fill="#84BE84" rx="3.125" ry="3.125" style="stroke:#038048;stroke-width:1.0416666666666667;"/><text fill="#D8BC00" font-family="Open Sans,Avenir,Nunito,Arial,Helvetica,SansSerif" font-size="11.4583" lengthAdjust="spacing" textLength="364.5833" x="30.2083" y="298.0652">Acceleration milesPerHourSquared(double milesPerHourSquared)</text><line style="stroke:#5E5E5E;stroke-width:1.0416666666666667;" x1="8.3333" x2="208.3333" y1="214.7552" y2="214.7552"/><text fill="#D8BC00" font-family="Open Sans,Avenir,Nunito,Arial,Helvetica,SansSerif" font-size="11.4583" lengthAdjust="spacing" textLength="32.2917" x="211.4583" y="218.5649">(time)</text><line style="stroke:#5E5E5E;stroke-width:1.0416666666666667;" x1="246.875" x2="446.875" y1="214.7552" y2="214.7552"/><!--MD5=[aaa2e902e619045a6f24d394d34237d2]
class Speed--><rect codeLine="32" fill="#282828" height="736.0474" id="Speed" rx="8.3333" ry="8.3333" style="stroke:#5E5E5E;stroke-width:1.0416666666666667;" width="452.0833" x="335.9375" y="393.2861"/><rect fill="#1B1B1A" height="31.3883" rx="8.3333" ry="8.3333" style="stroke:#1B1B1A;stroke-width:1.0416666666666667;" width="452.0833" x="335.9375" y="393.2861"/><rect fill="#1B1B1A" height="8.3333" style="stroke:#1B1B1A;stroke-width:1.0416666666666667;" width="452.0833" x="335.9375" y="416.3411"/><rect codeLine="32" fill="none" height="736.0474" id="Speed" rx="8.3333" ry="8.3333" style="stroke:#5E5E5E;stroke-width:1.0416666666666667;" width="452.0833" x="335.9375" y="393.2861"/><ellipse cx="535.4167" cy="408.9803" fill="#0066CF" rx="10.4167" ry="10.4167" style="stroke:#0086EF;stroke-width:1.0416666666666667;"/><path d="M537.3271,413.4054 Q536.8998,413.6251 536.4299,413.7349 Q535.9599,413.8448 535.4411,413.8448 Q533.5978,413.8448 532.6274,412.6302 Q531.6569,411.4156 531.6569,409.1207 Q531.6569,406.8197 532.6274,405.6051 Q533.5978,404.3905 535.4411,404.3905 Q535.9599,404.3905 536.436,404.5003 Q536.912,404.6102 537.3271,404.8299 L537.3271,406.8319 Q536.8632,406.4046 536.4268,406.2063 Q535.9904,406.0079 535.5265,406.0079 Q534.5378,406.0079 534.0342,406.7922 Q533.5307,407.5765 533.5307,409.1207 Q533.5307,410.6588 534.0342,411.4431 Q534.5378,412.2274 535.5265,412.2274 Q535.9904,412.2274 536.4268,412.029 Q536.8632,411.8306 537.3271,411.4034 Z " fill="#000000"/><text fill="#D8BC00" font-family="Open Sans,Avenir,Nunito,Arial,Helvetica,SansSerif" font-size="12.5" font-weight="bold" lengthAdjust="spacing" textLength="38.5417" x="558.3333" y="413.7044">Speed</text><line style="stroke:#5E5E5E;stroke-width:1.5625;" x1="336.9792" x2="786.9792" y1="424.6745" y2="424.6745"/><line style="stroke:#5E5E5E;stroke-width:1.0416666666666667;" x1="336.9792" x2="786.9792" y1="433.0078" y2="433.0078"/><ellipse cx="347.3958" cy="444.4661" fill="#84BE84" rx="3.125" ry="3.125" style="stroke:#038048;stroke-width:1.0416666666666667;"/><text fill="#D8BC00" font-family="Open Sans,Avenir,Nunito,Arial,Helvetica,SansSerif" font-size="11.4583" lengthAdjust="spacing" textLength="159.375" x="358.8542" y="451.3774">Speed difference(Speed that)</text><ellipse cx="347.3958" cy="464.211" fill="#84BE84" rx="3.125" ry="3.125" style="stroke:#038048;stroke-width:1.0416666666666667;"/><text fill="#D8BC00" font-family="Open Sans,Avenir,Nunito,Arial,Helvetica,SansSerif" font-size="11.4583" lengthAdjust="spacing" textLength="162.5" x="358.8542" y="471.1222">Speed scale(Level coefficient)</text><ellipse cx="347.3958" cy="507.8674" fill="#84BE84" rx="3.125" ry="3.125" style="stroke:#038048;stroke-width:1.0416666666666667;"/><text fill="#D8BC00" font-family="Open Sans,Avenir,Nunito,Arial,Helvetica,SansSerif" font-size="11.4583" lengthAdjust="spacing" textLength="203.125" x="358.8542" y="514.7786">boolean isBetween(Speed a, Speed b)</text><ellipse cx="347.3958" cy="527.6123" fill="#84BE84" rx="3.125" ry="3.125" style="stroke:#038048;stroke-width:1.0416666666666667;"/><text fill="#D8BC00" font-family="Open Sans,Avenir,Nunito,Arial,Helvetica,SansSerif" font-size="11.4583" lengthAdjust="spacing" textLength="193.75" x="358.8542" y="534.5235">boolean isGreaterThan(Speed that)</text><ellipse cx="347.3958" cy="547.3572" fill="#84BE84" rx="3.125" ry="3.125" style="stroke:#038048;stroke-width:1.0416666666666667;"/><text fill="#D8BC00" font-family="Open Sans,Avenir,Nunito,Arial,Helvetica,SansSerif" font-size="11.4583" lengthAdjust="spacing" textLength="253.125" x="358.8542" y="554.2684">boolean isGreaterThanOrEqualTo(Speed that)</text><ellipse cx="347.3958" cy="567.1021" fill="#84BE84" rx="3.125" ry="3.125" style="stroke:#038048;stroke-width:1.0416666666666667;"/><text fill="#D8BC00" font-family="Open Sans,Avenir,Nunito,Arial,Helvetica,SansSerif" font-size="11.4583" lengthAdjust="spacing" textLength="102.0833" x="358.8542" y="574.0133">boolean isInvalid()</text><ellipse cx="347.3958" cy="586.8469" fill="#84BE84" rx="3.125" ry="3.125" style="stroke:#038048;stroke-width:1.0416666666666667;"/><text fill="#D8BC00" font-family="Open Sans,Avenir,Nunito,Arial,Helvetica,SansSerif" font-size="11.4583" lengthAdjust="spacing" textLength="177.0833" x="358.8542" y="593.7581">boolean isLessThan(Speed that)</text><ellipse cx="347.3958" cy="606.5918" fill="#84BE84" rx="3.125" ry="3.125" style="stroke:#038048;stroke-width:1.0416666666666667;"/><text fill="#D8BC00" font-family="Open Sans,Avenir,Nunito,Arial,Helvetica,SansSerif" font-size="11.4583" lengthAdjust="spacing" textLength="236.4583" x="358.8542" y="613.503">boolean isLessThanOrEqualTo(Speed that)</text><ellipse cx="347.3958" cy="626.3367" fill="#84BE84" rx="3.125" ry="3.125" style="stroke:#038048;stroke-width:1.0416666666666667;"/><text fill="#D8BC00" font-family="Open Sans,Avenir,Nunito,Arial,Helvetica,SansSerif" font-size="11.4583" lengthAdjust="spacing" textLength="94.7917" x="358.8542" y="633.2479">boolean isNone()</text><line style="stroke:#5E5E5E;stroke-width:1.0416666666666667;" x1="336.9792" x2="535.4167" y1="490.7033" y2="490.7033"/><text fill="#D8BC00" font-family="Open Sans,Avenir,Nunito,Arial,Helvetica,SansSerif" font-size="11.4583" lengthAdjust="spacing" textLength="46.875" x="538.5417" y="494.5129">(checks)</text><line style="stroke:#5E5E5E;stroke-width:1.0416666666666667;" x1="588.5417" x2="786.9792" y1="490.7033" y2="490.7033"/><ellipse cx="347.3958" cy="669.9931" fill="#84BE84" rx="3.125" ry="3.125" style="stroke:#038048;stroke-width:1.0416666666666667;"/><text fill="#D8BC00" font-family="Open Sans,Avenir,Nunito,Arial,Helvetica,SansSerif" font-size="11.4583" lengthAdjust="spacing" textLength="158.3333" x="358.8542" y="676.9043">Speed maximum(Speed that)</text><ellipse cx="347.3958" cy="689.738" fill="#84BE84" rx="3.125" ry="3.125" style="stroke:#038048;stroke-width:1.0416666666666667;"/><text fill="#D8BC00" font-family="Open Sans,Avenir,Nunito,Arial,Helvetica,SansSerif" font-size="11.4583" lengthAdjust="spacing" textLength="155.2083" x="358.8542" y="696.6492">Speed minimum(Speed that)</text><line style="stroke:#5E5E5E;stroke-width:1.0416666666666667;" x1="336.9792" x2="540.625" y1="652.829" y2="652.829"/><text fill="#D8BC00" font-family="Open Sans,Avenir,Nunito,Arial,Helvetica,SansSerif" font-size="11.4583" lengthAdjust="spacing" textLength="36.4583" x="543.75" y="656.6386">(math)</text><line style="stroke:#5E5E5E;stroke-width:1.0416666666666667;" x1="583.3333" x2="786.9792" y1="652.829" y2="652.829"/><ellipse cx="347.3958" cy="733.3944" fill="#84BE84" rx="3.125" ry="3.125" style="stroke:#038048;stroke-width:1.0416666666666667;"/><text fill="#D8BC00" font-family="Open Sans,Avenir,Nunito,Arial,Helvetica,SansSerif" font-size="11.4583" lengthAdjust="spacing" textLength="134.375" x="358.8542" y="740.3056">Speed parse(String text)</text><ellipse cx="347.3958" cy="753.1392" fill="#84BE84" rx="3.125" ry="3.125" style="stroke:#038048;stroke-width:1.0416666666666667;"/><text fill="#D8BC00" font-family="Open Sans,Avenir,Nunito,Arial,Helvetica,SansSerif" font-size="11.4583" lengthAdjust="spacing" textLength="419.7917" x="358.8542" y="760.0505">SwitchParser.Builder&lt;Speed&gt; switchParser(String name, String description)</text><line style="stroke:#5E5E5E;stroke-width:1.0416666666666667;" x1="336.9792" x2="533.3333" y1="716.2303" y2="716.2303"/><text fill="#D8BC00" font-family="Open Sans,Avenir,Nunito,Arial,Helvetica,SansSerif" font-size="11.4583" lengthAdjust="spacing" textLength="51.0417" x="536.4583" y="720.0399">(parsing)</text><line style="stroke:#5E5E5E;stroke-width:1.0416666666666667;" x1="590.625" x2="786.9792" y1="716.2303" y2="716.2303"/><ellipse cx="347.3958" cy="796.7957" fill="#84BE84" rx="3.125" ry="3.125" style="stroke:#038048;stroke-width:1.0416666666666667;"/><text fill="#D8BC00" font-family="Open Sans,Avenir,Nunito,Arial,Helvetica,SansSerif" font-size="11.4583" lengthAdjust="spacing" textLength="194.7917" x="358.8542" y="803.7069">int asHundredthsOfAMilePerHour()</text><ellipse cx="347.3958" cy="816.5405" fill="#84BE84" rx="3.125" ry="3.125" style="stroke:#038048;stroke-width:1.0416666666666667;"/><text fill="#D8BC00" font-family="Open Sans,Avenir,Nunito,Arial,Helvetica,SansSerif" font-size="11.4583" lengthAdjust="spacing" textLength="167.7083" x="358.8542" y="823.4517">double asKilometersPerHour()</text><ellipse cx="347.3958" cy="836.2854" fill="#84BE84" rx="3.125" ry="3.125" style="stroke:#038048;stroke-width:1.0416666666666667;"/><text fill="#D8BC00" font-family="Open Sans,Avenir,Nunito,Arial,Helvetica,SansSerif" font-size="11.4583" lengthAdjust="spacing" textLength="145.8333" x="358.8542" y="843.1966">double asMetersPerHour()</text><ellipse cx="347.3958" cy="856.0303" fill="#84BE84" rx="3.125" ry="3.125" style="stroke:#038048;stroke-width:1.0416666666666667;"/><text fill="#D8BC00" font-family="Open Sans,Avenir,Nunito,Arial,Helvetica,SansSerif" font-size="11.4583" lengthAdjust="spacing" textLength="158.3333" x="358.8542" y="862.9415">double asMetersPerSecond()</text><ellipse cx="347.3958" cy="875.7751" fill="#84BE84" rx="3.125" ry="3.125" style="stroke:#038048;stroke-width:1.0416666666666667;"/><text fill="#D8BC00" font-family="Open Sans,Avenir,Nunito,Arial,Helvetica,SansSerif" font-size="11.4583" lengthAdjust="spacing" textLength="173.9583" x="358.8542" y="882.6864">int asMicroDegreesPerSecond()</text><ellipse cx="347.3958" cy="895.52" fill="#84BE84" rx="3.125" ry="3.125" style="stroke:#038048;stroke-width:1.0416666666666667;"/><text fill="#D8BC00" font-family="Open Sans,Avenir,Nunito,Arial,Helvetica,SansSerif" font-size="11.4583" lengthAdjust="spacing" textLength="136.4583" x="358.8542" y="902.4312">double asMilesPerHour()</text><ellipse cx="347.3958" cy="915.2649" fill="#84BE84" rx="3.125" ry="3.125" style="stroke:#038048;stroke-width:1.0416666666666667;"/><text fill="#D8BC00" font-family="Open Sans,Avenir,Nunito,Arial,Helvetica,SansSerif" font-size="11.4583" lengthAdjust="spacing" textLength="168.75" x="358.8542" y="922.1761">double asMillimetersPerHour()</text><ellipse cx="347.3958" cy="935.0098" fill="#84BE84" rx="3.125" ry="3.125" style="stroke:#038048;stroke-width:1.0416666666666667;"/><text fill="#D8BC00" font-family="Open Sans,Avenir,Nunito,Arial,Helvetica,SansSerif" font-size="11.4583" lengthAdjust="spacing" textLength="261.4583" x="358.8542" y="941.921">Speed distancePerDuration(Distance, Duration)</text><ellipse cx="347.3958" cy="954.7546" fill="#84BE84" rx="3.125" ry="3.125" style="stroke:#038048;stroke-width:1.0416666666666667;"/><text fill="#D8BC00" font-family="Open Sans,Avenir,Nunito,Arial,Helvetica,SansSerif" font-size="11.4583" lengthAdjust="spacing" textLength="417.7083" x="358.8542" y="961.6659">Speed hundredthsOfAMilePerHour(int speedInHundredthsOfAMilePerHour)</text><ellipse cx="347.3958" cy="974.4995" fill="#84BE84" rx="3.125" ry="3.125" style="stroke:#038048;stroke-width:1.0416666666666667;"/><text fill="#D8BC00" font-family="Open Sans,Avenir,Nunito,Arial,Helvetica,SansSerif" font-size="11.4583" lengthAdjust="spacing" textLength="211.4583" x="358.8542" y="981.4107">Speed kilometersPerHour(double kph)</text><ellipse cx="347.3958" cy="994.2444" fill="#84BE84" rx="3.125" ry="3.125" style="stroke:#038048;stroke-width:1.0416666666666667;"/><text fill="#D8BC00" font-family="Open Sans,Avenir,Nunito,Arial,Helvetica,SansSerif" font-size="11.4583" lengthAdjust="spacing" textLength="255.2083" x="358.8542" y="1001.1556">Speed metersPerHour(double metersPerHour)</text><ellipse cx="347.3958" cy="1013.9893" fill="#84BE84" rx="3.125" ry="3.125" style="stroke:#038048;stroke-width:1.0416666666666667;"/><text fill="#D8BC00" font-family="Open Sans,Avenir,Nunito,Arial,Helvetica,SansSerif" font-size="11.4583" lengthAdjust="spacing" textLength="280.2083" x="358.8542" y="1020.9005">Speed metersPerSecond(double metersPerSecond)</text><ellipse cx="347.3958" cy="1033.7341" fill="#84BE84" rx="3.125" ry="3.125" style="stroke:#038048;stroke-width:1.0416666666666667;"/><text fill="#D8BC00" font-family="Open Sans,Avenir,Nunito,Arial,Helvetica,SansSerif" font-size="11.4583" lengthAdjust="spacing" textLength="228.125" x="358.8542" y="1040.6453">Speed microDegreesPerSecond(int value)</text><ellipse cx="347.3958" cy="1053.479" fill="#84BE84" rx="3.125" ry="3.125" style="stroke:#038048;stroke-width:1.0416666666666667;"/><text fill="#D8BC00" font-family="Open Sans,Avenir,Nunito,Arial,Helvetica,SansSerif" font-size="11.4583" lengthAdjust="spacing" textLength="186.4583" x="358.8542" y="1060.3902">Speed milesPerHour(double mph)</text><ellipse cx="347.3958" cy="1073.2239" fill="#84BE84" rx="3.125" ry="3.125" style="stroke:#038048;stroke-width:1.0416666666666667;"/><text fill="#D8BC00" font-family="Open Sans,Avenir,Nunito,Arial,Helvetica,SansSerif" font-size="11.4583" lengthAdjust="spacing" textLength="287.5" x="358.8542" y="1080.1351">Speed millimetersPerHour(long millimetersPerHour)</text><ellipse cx="347.3958" cy="1092.9688" fill="#84BE84" rx="3.125" ry="3.125" style="stroke:#038048;stroke-width:1.0416666666666667;"/><text fill="#D8BC00" font-family="Open Sans,Avenir,Nunito,Arial,Helvetica,SansSerif" font-size="11.4583" lengthAdjust="spacing" textLength="219.7917" x="358.8542" y="1099.88">Duration timeToTravel(Distance length)</text><ellipse cx="347.3958" cy="1112.7136" fill="#84BE84" rx="3.125" ry="3.125" style="stroke:#038048;stroke-width:1.0416666666666667;"/><text fill="#D8BC00" font-family="Open Sans,Avenir,Nunito,Arial,Helvetica,SansSerif" font-size="11.4583" lengthAdjust="spacing" textLength="275" x="358.8542" y="1119.6248">long timeToTravelInMilliseconds(Distance length)</text><line style="stroke:#5E5E5E;stroke-width:1.0416666666666667;" x1="336.9792" x2="542.7083" y1="779.6316" y2="779.6316"/><text fill="#D8BC00" font-family="Open Sans,Avenir,Nunito,Arial,Helvetica,SansSerif" font-size="11.4583" lengthAdjust="spacing" textLength="32.2917" x="545.8333" y="783.4412">(time)</text><line style="stroke:#5E5E5E;stroke-width:1.0416666666666667;" x1="581.25" x2="786.9792" y1="779.6316" y2="779.6316"/><!--MD5=[e7713a66b67445a0eb297b7e73c442e5]
class Duration--><rect fill="#282828" height="48.055" id="Duration" rx="8.3333" ry="8.3333" style="stroke:#5E5E5E;stroke-width:1.0416666666666667;" width="94.7917" x="303.125" y="1215.1611"/><rect fill="#1B1B1A" height="31.3883" rx="8.3333" ry="8.3333" style="stroke:#1B1B1A;stroke-width:1.0416666666666667;" width="94.7917" x="303.125" y="1215.1611"/><rect fill="#1B1B1A" height="8.3333" style="stroke:#1B1B1A;stroke-width:1.0416666666666667;" width="94.7917" x="303.125" y="1238.2161"/><rect fill="none" height="48.055" id="Duration" rx="8.3333" ry="8.3333" style="stroke:#5E5E5E;stroke-width:1.0416666666666667;" width="94.7917" x="303.125" y="1215.1611"/><ellipse cx="317.7083" cy="1230.8553" fill="#0066CF" rx="10.4167" ry="10.4167" style="stroke:#0086EF;stroke-width:1.0416666666666667;"/><path d="M319.6187,1235.2804 Q319.1915,1235.5001 318.7215,1235.6099 Q318.2515,1235.7198 317.7327,1235.7198 Q315.8895,1235.7198 314.919,1234.5052 Q313.9486,1233.2906 313.9486,1230.9957 Q313.9486,1228.6947 314.919,1227.4801 Q315.8895,1226.2655 317.7327,1226.2655 Q318.2515,1226.2655 318.7276,1226.3753 Q319.2037,1226.4852 319.6187,1226.7049 L319.6187,1228.7069 Q319.1549,1228.2796 318.7185,1228.0813 Q318.2821,1227.8829 317.8182,1227.8829 Q316.8294,1227.8829 316.3259,1228.6672 Q315.8223,1229.4515 315.8223,1230.9957 Q315.8223,1232.5338 316.3259,1233.3181 Q316.8294,1234.1024 317.8182,1234.1024 Q318.2821,1234.1024 318.7185,1233.904 Q319.1549,1233.7056 319.6187,1233.2784 Z " fill="#000000"/><text fill="#D8BC00" font-family="Open Sans,Avenir,Nunito,Arial,Helvetica,SansSerif" font-size="12.5" font-weight="bold" lengthAdjust="spacing" textLength="57.2917" x="334.375" y="1235.5794">Duration</text><line style="stroke:#5E5E5E;stroke-width:1.0416666666666667;" x1="304.1667" x2="396.875" y1="1246.5495" y2="1246.5495"/><line style="stroke:#5E5E5E;stroke-width:1.0416666666666667;" x1="304.1667" x2="396.875" y1="1254.8828" y2="1254.8828"/><!--MD5=[cc8bdd4a75b8c12356a13db8d1cdad21]
class Average--><rect fill="#282828" height="48.055" id="Average" rx="8.3333" ry="8.3333" style="stroke:#5E5E5E;stroke-width:1.0416666666666667;" width="89.5833" x="517.1875" y="53.7028"/><rect fill="#1B1B1A" height="31.3883" rx="8.3333" ry="8.3333" style="stroke:#1B1B1A;stroke-width:1.0416666666666667;" width="89.5833" x="517.1875" y="53.7028"/><rect fill="#1B1B1A" height="8.3333" style="stroke:#1B1B1A;stroke-width:1.0416666666666667;" width="89.5833" x="517.1875" y="76.7578"/><rect fill="none" height="48.055" id="Average" rx="8.3333" ry="8.3333" style="stroke:#5E5E5E;stroke-width:1.0416666666666667;" width="89.5833" x="517.1875" y="53.7028"/><ellipse cx="531.7708" cy="69.397" fill="#0066CF" rx="10.4167" ry="10.4167" style="stroke:#0086EF;stroke-width:1.0416666666666667;"/><path d="M533.6812,73.822 Q533.254,74.0417 532.784,74.1516 Q532.314,74.2615 531.7952,74.2615 Q529.952,74.2615 528.9815,73.0469 Q528.0111,71.8323 528.0111,69.5374 Q528.0111,67.2363 528.9815,66.0217 Q529.952,64.8071 531.7952,64.8071 Q532.314,64.8071 532.7901,64.917 Q533.2662,65.0269 533.6812,65.2466 L533.6812,67.2485 Q533.2174,66.8213 532.781,66.6229 Q532.3446,66.4246 531.8807,66.4246 Q530.8919,66.4246 530.3884,67.2089 Q529.8848,67.9932 529.8848,69.5374 Q529.8848,71.0754 530.3884,71.8597 Q530.8919,72.644 531.8807,72.644 Q532.3446,72.644 532.781,72.4457 Q533.2174,72.2473 533.6812,71.8201 Z " fill="#000000"/><text fill="#D8BC00" font-family="Open Sans,Avenir,Nunito,Arial,Helvetica,SansSerif" font-size="12.5" font-weight="bold" lengthAdjust="spacing" textLength="52.0833" x="548.4375" y="74.1211">Average</text><line style="stroke:#5E5E5E;stroke-width:1.0416666666666667;" x1="518.2292" x2="605.7292" y1="85.0911" y2="85.0911"/><line style="stroke:#5E5E5E;stroke-width:1.0416666666666667;" x1="518.2292" x2="605.7292" y1="93.4245" y2="93.4245"/><!--MD5=[1aac0109e0afd688be33496e21b961e4]
class AverageSpeed--><rect codeLine="21" fill="#282828" height="111.4563" id="AverageSpeed" rx="8.3333" ry="8.3333" style="stroke:#5E5E5E;stroke-width:1.0416666666666667;" width="154.1667" x="484.8958" y="180.7861"/><rect fill="#1B1B1A" height="31.3883" rx="8.3333" ry="8.3333" style="stroke:#1B1B1A;stroke-width:1.0416666666666667;" width="154.1667" x="484.8958" y="180.7861"/><rect fill="#1B1B1A" height="8.3333" style="stroke:#1B1B1A;stroke-width:1.0416666666666667;" width="154.1667" x="484.8958" y="203.8411"/><rect codeLine="21" fill="none" height="111.4563" id="AverageSpeed" rx="8.3333" ry="8.3333" style="stroke:#5E5E5E;stroke-width:1.0416666666666667;" width="154.1667" x="484.8958" y="180.7861"/><ellipse cx="511.1979" cy="196.4803" fill="#0066CF" rx="10.4167" ry="10.4167" style="stroke:#0086EF;stroke-width:1.0416666666666667;"/><path d="M513.1083,200.9054 Q512.6811,201.1251 512.2111,201.2349 Q511.7411,201.3448 511.2223,201.3448 Q509.3791,201.3448 508.4086,200.1302 Q507.4382,198.9156 507.4382,196.6207 Q507.4382,194.3197 508.4086,193.1051 Q509.3791,191.8905 511.2223,191.8905 Q511.7411,191.8905 512.2172,192.0003 Q512.6933,192.1102 513.1083,192.3299 L513.1083,194.3319 Q512.6444,193.9046 512.208,193.7063 Q511.7716,193.5079 511.3078,193.5079 Q510.319,193.5079 509.8155,194.2922 Q509.3119,195.0765 509.3119,196.6207 Q509.3119,198.1588 509.8155,198.9431 Q510.319,199.7274 511.3078,199.7274 Q511.7716,199.7274 512.208,199.529 Q512.6444,199.3306 513.1083,198.9034 Z " fill="#000000"/><text fill="#D8BC00" font-family="Open Sans,Avenir,Nunito,Arial,Helvetica,SansSerif" font-size="12.5" font-weight="bold" lengthAdjust="spacing" textLength="90.625" x="530.4688" y="201.2044">AverageSpeed</text><line style="stroke:#5E5E5E;stroke-width:1.5625;" x1="485.9375" x2="638.0208" y1="212.1745" y2="212.1745"/><line style="stroke:#5E5E5E;stroke-width:1.0416666666666667;" x1="485.9375" x2="638.0208" y1="220.5078" y2="220.5078"/><ellipse cx="496.3542" cy="231.9661" fill="#84BE84" rx="3.125" ry="3.125" style="stroke:#038048;stroke-width:1.0416666666666667;"/><text fill="#D8BC00" font-family="Open Sans,Avenir,Nunito,Arial,Helvetica,SansSerif" font-size="11.4583" lengthAdjust="spacing" textLength="121.875" x="507.8125" y="238.8774">Speed averageSpeed()</text><ellipse cx="496.3542" cy="275.6226" fill="#84BE84" rx="3.125" ry="3.125" style="stroke:#038048;stroke-width:1.0416666666666667;"/><text fill="#D8BC00" font-family="Open Sans,Avenir,Nunito,Arial,Helvetica,SansSerif" font-size="11.4583" lengthAdjust="spacing" textLength="89.5833" x="507.8125" y="282.5338">void add(Speed)</text><line style="stroke:#5E5E5E;stroke-width:1.0416666666666667;" x1="485.9375" x2="527.6042" y1="258.4585" y2="258.4585"/><text fill="#D8BC00" font-family="Open Sans,Avenir,Nunito,Arial,Helvetica,SansSerif" font-size="11.4583" lengthAdjust="spacing" textLength="62.5" x="530.7292" y="262.2681">(collection)</text><line style="stroke:#5E5E5E;stroke-width:1.0416666666666667;" x1="596.3542" x2="638.0208" y1="258.4585" y2="258.4585"/><!--MD5=[cc15daeb8b4e6bacf34831777829d2c1]
class Distance--><rect fill="#282828" height="48.055" id="Distance" rx="8.3333" ry="8.3333" style="stroke:#5E5E5E;stroke-width:1.0416666666666667;" width="93.75" x="515.1042" y="1215.1611"/><rect fill="#1B1B1A" height="31.3883" rx="8.3333" ry="8.3333" style="stroke:#1B1B1A;stroke-width:1.0416666666666667;" width="93.75" x="515.1042" y="1215.1611"/><rect fill="#1B1B1A" height="8.3333" style="stroke:#1B1B1A;stroke-width:1.0416666666666667;" width="93.75" x="515.1042" y="1238.2161"/><rect fill="none" height="48.055" id="Distance" rx="8.3333" ry="8.3333" style="stroke:#5E5E5E;stroke-width:1.0416666666666667;" width="93.75" x="515.1042" y="1215.1611"/><ellipse cx="529.6875" cy="1230.8553" fill="#0066CF" rx="10.4167" ry="10.4167" style="stroke:#0086EF;stroke-width:1.0416666666666667;"/><path d="M531.5979,1235.2804 Q531.1707,1235.5001 530.7007,1235.6099 Q530.2307,1235.7198 529.7119,1235.7198 Q527.8687,1235.7198 526.8982,1234.5052 Q525.9277,1233.2906 525.9277,1230.9957 Q525.9277,1228.6947 526.8982,1227.4801 Q527.8687,1226.2655 529.7119,1226.2655 Q530.2307,1226.2655 530.7068,1226.3753 Q531.1829,1226.4852 531.5979,1226.7049 L531.5979,1228.7069 Q531.134,1228.2796 530.6976,1228.0813 Q530.2612,1227.8829 529.7974,1227.8829 Q528.8086,1227.8829 528.3051,1228.6672 Q527.8015,1229.4515 527.8015,1230.9957 Q527.8015,1232.5338 528.3051,1233.3181 Q528.8086,1234.1024 529.7974,1234.1024 Q530.2612,1234.1024 530.6976,1233.904 Q531.134,1233.7056 531.5979,1233.2784 Z " fill="#000000"/><text fill="#D8BC00" font-family="Open Sans,Avenir,Nunito,Arial,Helvetica,SansSerif" font-size="12.5" font-weight="bold" lengthAdjust="spacing" textLength="56.25" x="546.3542" y="1235.5794">Distance</text><line style="stroke:#5E5E5E;stroke-width:1.0416666666666667;" x1="516.1458" x2="607.8125" y1="1246.5495" y2="1246.5495"/><line style="stroke:#5E5E5E;stroke-width:1.0416666666666667;" x1="516.1458" x2="607.8125" y1="1254.8828" y2="1254.8828"/><!--MD5=[94b127aae3f95e7c313ce4454ddf5cc4]
class WeightedAverageSpeed--><rect codeLine="72" fill="#282828" height="111.4563" id="WeightedAverageSpeed" rx="8.3333" ry="8.3333" style="stroke:#5E5E5E;stroke-width:1.0416666666666667;" width="206.25" x="675.5208" y="180.7861"/><rect fill="#1B1B1A" height="31.3883" rx="8.3333" ry="8.3333" style="stroke:#1B1B1A;stroke-width:1.0416666666666667;" width="206.25" x="675.5208" y="180.7861"/><rect fill="#1B1B1A" height="8.3333" style="stroke:#1B1B1A;stroke-width:1.0416666666666667;" width="206.25" x="675.5208" y="203.8411"/><rect codeLine="72" fill="none" height="111.4563" id="WeightedAverageSpeed" rx="8.3333" ry="8.3333" style="stroke:#5E5E5E;stroke-width:1.0416666666666667;" width="206.25" x="675.5208" y="180.7861"/><ellipse cx="698.0729" cy="196.4803" fill="#0066CF" rx="10.4167" ry="10.4167" style="stroke:#0086EF;stroke-width:1.0416666666666667;"/><path d="M699.9833,200.9054 Q699.5561,201.1251 699.0861,201.2349 Q698.6161,201.3448 698.0973,201.3448 Q696.2541,201.3448 695.2836,200.1302 Q694.3132,198.9156 694.3132,196.6207 Q694.3132,194.3197 695.2836,193.1051 Q696.2541,191.8905 698.0973,191.8905 Q698.6161,191.8905 699.0922,192.0003 Q699.5683,192.1102 699.9833,192.3299 L699.9833,194.3319 Q699.5194,193.9046 699.083,193.7063 Q698.6466,193.5079 698.1828,193.5079 Q697.194,193.5079 696.6905,194.2922 Q696.1869,195.0765 696.1869,196.6207 Q696.1869,198.1588 696.6905,198.9431 Q697.194,199.7274 698.1828,199.7274 Q698.6466,199.7274 699.083,199.529 Q699.5194,199.3306 699.9833,198.9034 Z " fill="#000000"/><text fill="#D8BC00" font-family="Open Sans,Avenir,Nunito,Arial,Helvetica,SansSerif" font-size="12.5" font-weight="bold" lengthAdjust="spacing" textLength="151.0417" x="716.5104" y="201.2044">WeightedAverageSpeed</text><line style="stroke:#5E5E5E;stroke-width:1.5625;" x1="676.5625" x2="880.7292" y1="212.1745" y2="212.1745"/><line style="stroke:#5E5E5E;stroke-width:1.0416666666666667;" x1="676.5625" x2="880.7292" y1="220.5078" y2="220.5078"/><ellipse cx="686.9792" cy="231.9661" fill="#84BE84" rx="3.125" ry="3.125" style="stroke:#038048;stroke-width:1.0416666666666667;"/><text fill="#D8BC00" font-family="Open Sans,Avenir,Nunito,Arial,Helvetica,SansSerif" font-size="11.4583" lengthAdjust="spacing" textLength="88.5417" x="698.4375" y="238.8774">Speed average()</text><ellipse cx="686.9792" cy="275.6226" fill="#84BE84" rx="3.125" ry="3.125" style="stroke:#038048;stroke-width:1.0416666666666667;"/><text fill="#D8BC00" font-family="Open Sans,Avenir,Nunito,Arial,Helvetica,SansSerif" font-size="11.4583" lengthAdjust="spacing" textLength="173.9583" x="698.4375" y="282.5338">void add(Speed, double weight)</text><line style="stroke:#5E5E5E;stroke-width:1.0416666666666667;" x1="676.5625" x2="744.2708" y1="258.4585" y2="258.4585"/><text fill="#D8BC00" font-family="Open Sans,Avenir,Nunito,Arial,Helvetica,SansSerif" font-size="11.4583" lengthAdjust="spacing" textLength="62.5" x="747.3958" y="262.2681">(collection)</text><line style="stroke:#5E5E5E;stroke-width:1.0416666666666667;" x1="813.0208" x2="880.7292" y1="258.4585" y2="258.4585"/><!--MD5=[b9b2d2d66296eada3585c4132f0ec078]
reverse link Acceleration to Speed--><path codeLine="8" d="M280.1979,319.7965 C296.4271,345.182 315.4271,374.9007 335.7708,406.7132 " fill="none" id="Acceleration-backto-Speed" style="stroke:#545454;stroke-width:1.5625;"/><polygon fill="#333333" points="272.6979,308.0778,272.5584,315.5881,279.4373,318.6054,279.5768,311.0952,272.6979,308.0778" style="stroke:#545454;stroke-width:1.5625;"/><text fill="#A0A0A0" font-family="Open Sans,Avenir,Nunito,Arial,Helvetica,SansSerif" font-size="12.5" font-weight="bold" lengthAdjust="spacing" textLength="62.5" x="304.6875" y="355.3711">change in</text><!--MD5=[2af5377e527fc3ddb7a98eaa3df9aafa]
reverse link Acceleration to Duration--><path codeLine="9" d="M220.8958,321.5882 C210.7188,482.4736 200.8854,843.4632 288.0208,1129.7445 C297.6979,1161.5257 318.125,1194.0153 333.0104,1215.0153 " fill="none" id="Acceleration-backto-Duration" style="stroke:#545454;stroke-width:1.5625;"/><polygon fill="#333333" points="221.7813,308.0361,217.2181,314.0028,220.9707,320.5098,225.5339,314.5432,221.7813,308.0361" style="stroke:#545454;stroke-width:1.5625;"/><text fill="#A0A0A0" font-family="Open Sans,Avenir,Nunito,Arial,Helvetica,SansSerif" font-size="12.5" font-weight="bold" lengthAdjust="spacing" textLength="20.8333" x="292.1875" y="766.3086">per</text><!--MD5=[0fe3e5a1f5ed395d20d56f2ba3c4274e]
reverse link Average to AverageSpeed--><path codeLine="19" d="M561.9792,122.9528 C561.9792,140.9007 561.9792,161.8174 561.9792,180.7132 " fill="none" id="Average-backto-AverageSpeed" style="stroke:#545454;stroke-width:1.5625;"/><polygon fill="none" points="554.6875,122.6715,561.9792,101.8382,569.2708,122.6715,554.6875,122.6715" style="stroke:#545454;stroke-width:1.5625;"/><!--MD5=[ca11b72ed3b5914dff352d41c78b5b81]
link AverageSpeed to Speed--><path codeLine="20" d="M561.9792,292.5257 C561.9792,318.2132 561.9792,351.182 561.9792,387.734 " fill="none" id="AverageSpeed-to-Speed" style="stroke:#545454;stroke-width:1.5625;"/><polygon fill="#545454" points="561.9792,393.1507,566.1458,383.7757,561.9792,387.9424,557.8125,383.7757,561.9792,393.1507" style="stroke:#545454;stroke-width:1.5625;"/><text fill="#A0A0A0" font-family="Open Sans,Avenir,Nunito,Arial,Helvetica,SansSerif" font-size="12.5" font-weight="bold" lengthAdjust="spacing" textLength="63.5417" x="566.1458" y="355.3711">computes</text><!--MD5=[2bc178f73d24bc8660c1c811a4e7eef3]
reverse link Comparable to Speed--><path codeLine="29" d="M945.2292,277.0778 C910.2396,321.2028 850.3125,396.7965 788.0938,475.2757 " fill="none" id="Comparable-backto-Speed" style="stroke:#545454;stroke-width:1.5625;"/><polygon fill="none" points="939.5521,272.4945,958.2083,260.7028,950.9792,281.557,939.5521,272.4945" style="stroke:#545454;stroke-width:1.5625;"/><!--MD5=[e98a5e2c32debfb1ddb17aff36820232]
reverse link Speed to Distance--><path codeLine="30" d="M561.9792,1143.432 C561.9792,1173.2757 561.9792,1198.3278 561.9792,1215.1403 " fill="none" id="Speed-backto-Distance" style="stroke:#545454;stroke-width:1.5625;"/><polygon fill="#333333" points="561.9792,1129.8799,557.8125,1136.1299,561.9792,1142.3799,566.1458,1136.1299,561.9792,1129.8799" style="stroke:#545454;stroke-width:1.5625;"/><text fill="#A0A0A0" font-family="Open Sans,Avenir,Nunito,Arial,Helvetica,SansSerif" font-size="12.5" font-weight="bold" lengthAdjust="spacing" textLength="62.5" x="566.1458" y="1177.2461">change in</text><!--MD5=[028f17ae4d0ddadb1d7167073739eea9]
reverse link Speed to Duration--><path codeLine="31" d="M392.9688,1142.6299 C379.5417,1172.8174 368.2604,1198.1715 360.7188,1215.1403 " fill="none" id="Speed-backto-Duration" style="stroke:#545454;stroke-width:1.5625;"/><polygon fill="#333333" points="398.6354,1129.8799,392.2926,1133.9039,393.5676,1141.3065,399.9104,1137.2825,398.6354,1129.8799" style="stroke:#545454;stroke-width:1.5625;"/><text fill="#A0A0A0" font-family="Open Sans,Avenir,Nunito,Arial,Helvetica,SansSerif" font-size="12.5" font-weight="bold" lengthAdjust="spacing" textLength="20.8333" x="385.9375" y="1177.2461">per</text><!--MD5=[ed4b317a2410fce9cfc0f494d849f2d4]
link WeightedAverageSpeed to Speed--><path codeLine="71" d="M755.8646,292.5257 C745.1875,318.3174 731.4479,351.4528 716.2396,388.182 " fill="none" id="WeightedAverageSpeed-to-Speed" style="stroke:#545454;stroke-width:1.5625;"/><polygon fill="#545454" points="714.1771,393.1507,721.6181,386.088,716.1729,388.3399,713.9209,382.8947,714.1771,393.1507" style="stroke:#545454;stroke-width:1.5625;"/><text fill="#A0A0A0" font-family="Open Sans,Avenir,Nunito,Arial,Helvetica,SansSerif" font-size="12.5" font-weight="bold" lengthAdjust="spacing" textLength="63.5417" x="736.9792" y="355.3711">computes</text><!--MD5=[2d00f8d9890977bea4bbff91edee5651]
@startuml

    !include ../lexakai/lexakai.theme
    
    title "Measurements of Motion"
    
    interface Comparable
    
    Acceleration o- - Speed : "change in"
    Acceleration o- - Duration : "per"
    class Acceleration
    {
        - -(time)- -
        +double asMetersPerSecondSquared()
        +double asMilesPerHourSquared()
        +Acceleration metersPerSecondSquared(double metersPerSecondSquared)
        +Acceleration milesPerHourSquared(double milesPerHourSquared)
    }
    
    Average <|- - AverageSpeed
    AverageSpeed - -> Speed : "computes"
    class AverageSpeed
    {
        - -
        +Speed averageSpeed()
        - -(collection)- -
        +void add(Speed)
    }
    
    Comparable <|- - Speed
    Speed o- - Distance : "change in"
    Speed o- - Duration : "per"
    class Speed
    {
        - -
        +Speed difference(Speed that)
        +Speed scale(Level coefficient)
        - -(checks)- -
        +boolean isBetween(Speed a, Speed b)
        +boolean isGreaterThan(Speed that)
        +boolean isGreaterThanOrEqualTo(Speed that)
        +boolean isInvalid()
        +boolean isLessThan(Speed that)
        +boolean isLessThanOrEqualTo(Speed that)
        +boolean isNone()
        - -(math)- -
        +Speed maximum(Speed that)
        +Speed minimum(Speed that)
        - -(parsing)- -
        +Speed parse(String text)
        +SwitchParser.Builder<Speed> switchParser(String name, String description)
        - -(time)- -
        +int asHundredthsOfAMilePerHour()
        +double asKilometersPerHour()
        +double asMetersPerHour()
        +double asMetersPerSecond()
        +int asMicroDegreesPerSecond()
        +double asMilesPerHour()
        +double asMillimetersPerHour()
        +Speed distancePerDuration(Distance, Duration)
        +Speed hundredthsOfAMilePerHour(int speedInHundredthsOfAMilePerHour)
        +Speed kilometersPerHour(double kph)
        +Speed metersPerHour(double metersPerHour)
        +Speed metersPerSecond(double metersPerSecond)
        +Speed microDegreesPerSecond(int value)
        +Speed milesPerHour(double mph)
        +Speed millimetersPerHour(long millimetersPerHour)
        +Duration timeToTravel(Distance length)
        +long timeToTravelInMilliseconds(Distance length)
    }
    
    WeightedAverageSpeed - -> Speed : "computes"
    class WeightedAverageSpeed
    {
        - -
        +Speed average()
        - -(collection)- -
        +void add(Speed, double weight)
    }
    
@enduml

@startuml









skinparam backgroundColor #333333






skinparam  {
    defaultFontName   "Open Sans,Avenir,Nunito,Arial,Helvetica,SansSerif"
    defaultFontSize   12
    defaultTextAlignment left
    shadowing false
    RoundCorner 10
    TitleFontSize 18
}

skinparam defaultFontName       "Open Sans,Avenir,Nunito,Arial,Helvetica,SansSerif"
skinparam defaultFontSize       12
skinparam dpi                   100
skinparam shadowing             false
skinparam roundcorner           16
skinparam ParticipantPadding    40
skinparam BoxPadding            40
skinparam Padding               3
skinparam ArrowColor            #545454
skinparam stereotype {
    CBackgroundColor #0066cf
    CBorderColor #0086ef
    ABackgroundColor #C8Ac00
    ABorderColor #D8Bc00
    IBackgroundColor #008400
    IBorderColor #239c23
    EBackgroundColor #cf6300
    EBorderColor #ef8300
    NBackgroundColor #3380b9
    NBorderColor #004d86
}
skinparam title {
	FontColor	                 #c0c0c0
 	BorderColor                  #545454
	FontSize	    	         20
	BorderRoundCorner            16
	BorderThickness 	         1
	BackgroundColor              #48494b
}


skinparam legend {
	BackgroundColor #303030
	BorderColor #404040
	FontColor #a0a0a0
}

	skinparam swimlane {
	BorderColor #5e5e5e
	BorderThickness 2
	TitleBackgroundColor  #6d6d6d-#484848
	TitleFontColor #303030
}

skinparam activity {
		FontColor #C8Ac00
	BorderColor #333333
	BackgroundColor #333333-#333333
	BarColor #00FF00
	StartColor #0060a8
	EndColor #0060a8
	DiamondBackgroundColor #6d6d6d-#3a3a3a
  	DiamondBorderColor #3a3a3a
  	DiamondFontColor #fefefe
}


skinparam participant {
		FontColor #C8Ac00
	BorderColor #333333
	BackgroundColor #333333-#333333
	ParticipantBorderThickness 2
}


skinparam actor {
		FontColor #C8Ac00
	BorderColor #333333
	BackgroundColor #333333-#333333
}


skinparam arrow {
	Thickness 1.5
	Color #545454
	FontColor #a0a0a0
    FontStyle bold
    MessageAlignment center
}



skinparam sequence {
	BorderColor #303030
	TitleFontColor #303030
	BackgroundColor #333333
	StartColor #303030
	EndColor #303030
	BoxBackgroundColor #333333
	BoxBorderColor #484848
	BoxFontColor #484848
	LifeLineBorderColor #484848
	LifeLineBorderThickness 2
	LifeLineBackgroundColor #3a3a3a
	GroupBorderColor #484848
	GroupFontColor #484848
	GroupHeaderFontColor #0060a8
	GroupBackgroundColor #484848
	GroupHeaderBackgroundColor #333333
	DividerBackgroundColor #484848
    DividerBorderColor #484848
    DividerBorderThickness 2
    DividerFontColor #D8Bc00
	ReferenceBackgroundColor #333333
	ReferenceBorderColor #484848
	ReferenceFontColor #fefefe
	ReferenceHeaderBackgroundColor #484848
}


skinparam partition {
	BorderColor #303030
	FontColor #333333
	BackgroundColor #333333
}


skinparam collections {
		FontColor #C8Ac00
	BorderColor #333333
	BackgroundColor #333333-#333333
}


skinparam control {
		FontColor #C8Ac00
	BorderColor #333333
	BackgroundColor #333333-#333333
}


skinparam entity {
		FontColor #C8Ac00
	BorderColor #333333
	BackgroundColor #333333-#333333
}


skinparam boundary {
		FontColor #C8Ac00
	BorderColor #333333
	BackgroundColor #333333-#333333
}


skinparam agent {
	BackgroundColor #ff8000
	BorderColor #ff9933
	FontColor #484848
}


skinparam note {
	BorderThickness 1
	BackgroundColor #1b1b1a
	BorderColor #5e5e5e
	FontSize 11
	FontColor #a0a0a0
}


skinparam artifact {
	BorderThickness 10
	BorderColor #5e5e5e
	BackgroundColor #1b1b1a
	FontColor #D8Bc00
}


skinparam component {
		FontColor #C8Ac00
	BorderColor #333333
	BackgroundColor #333333-#333333
}


skinparam interface {
	BackgroundColor  #008400
	BorderColor  #007F00
	FontColor #484848
}


skinparam storage {
	BackgroundColor #ff8000
  	BorderColor #cc6600
	FontColor #222222
}


skinparam node {
	BackgroundColor #333333
	BorderColor #333333
	FontColor #C8Ac00
}


skinparam cloud {
	BackgroundColor #484848-black
	BorderColor #484848
	FontColor #D8Bc00
}


skinparam database {
		FontColor #C8Ac00
	BorderColor #333333
	BackgroundColor #333333-#333333
	BackgroundColor  #333333
}


skinparam class {
		FontColor #C8Ac00
	BorderColor #333333
	BackgroundColor #333333-#333333
	HeaderBackgroundColor #1b1b1a
    BackgroundColor #282828
    BorderColor #5e5e5e
 	StereotypeFontColor #a0a0a0
    StereotypeFontStyle bold
	BorderThickness 1
	AttributeFontColor #D8Bc00
	AttributeFontSize 11
    FontColor #D8Bc00
    FontStyle bold
}


skinparam object {
		FontColor #C8Ac00
	BorderColor #333333
	BackgroundColor #333333-#333333
	StereotypeFontColor #484848
	BorderThickness 1
	AttributeFontColor #fefefe
	AttributeFontSize 11
}


skinparam usecase {
		FontColor #C8Ac00
	BorderColor #333333
	BackgroundColor #333333-#333333
	BorderThickness 2
	StereotypeFontColor #303030
}


skinparam rectangle {
		FontColor #C8Ac00
	BorderColor #333333
	BackgroundColor #333333-#333333
	BackgroundColor #333333
	BorderThickness 2
	StereotypeFontColor #303030
}


skinparam package {
		FontColor #C8Ac00
	BorderColor #333333
	BackgroundColor #333333-#333333
	BackgroundColor #333333
	BorderThickness 2
}


skinparam folder {
	BackgroundColor #6d6d6d
  	BorderColor #ff8000
	FontColor #ff8000
	BorderThickness 2
}


skinparam frame {
	BackgroundColor #6d6d6d
  	BorderColor #0060a8
	FontColor #0060a8
	BorderThickness 2
}


skinparam state {
		FontColor #C8Ac00
	BorderColor #333333
	BackgroundColor #333333-#333333
	StartColor #0060a8
	EndColor #0060a8
	AttributeFontColor #fefefe
	AttributeFontSize 11
}


skinparam queue {
		FontColor #C8Ac00
	BorderColor #333333
	BackgroundColor #333333-#333333
}


skinparam card {
	BackgroundColor #0060a8
	BorderColor #004d86
	FontColor $INFO_TEXT
}


skinparam file {
	BackgroundColor #6d6d6d-#484848
	BorderColor #0060a8
	FontColor #fefefe
}


skinparam stack {
		FontColor #C8Ac00
	BorderColor #333333
	BackgroundColor #333333-#333333
}

    
    title "Measurements of Motion"
    
    interface Comparable
    
    Acceleration o- - Speed : "change in"
    Acceleration o- - Duration : "per"
    class Acceleration
    {
        - -(time)- -
        +double asMetersPerSecondSquared()
        +double asMilesPerHourSquared()
        +Acceleration metersPerSecondSquared(double metersPerSecondSquared)
        +Acceleration milesPerHourSquared(double milesPerHourSquared)
    }
    
    Average <|- - AverageSpeed
    AverageSpeed - -> Speed : "computes"
    class AverageSpeed
    {
        - -
        +Speed averageSpeed()
        - -(collection)- -
        +void add(Speed)
    }
    
    Comparable <|- - Speed
    Speed o- - Distance : "change in"
    Speed o- - Duration : "per"
    class Speed
    {
        - -
        +Speed difference(Speed that)
        +Speed scale(Level coefficient)
        - -(checks)- -
        +boolean isBetween(Speed a, Speed b)
        +boolean isGreaterThan(Speed that)
        +boolean isGreaterThanOrEqualTo(Speed that)
        +boolean isInvalid()
        +boolean isLessThan(Speed that)
        +boolean isLessThanOrEqualTo(Speed that)
        +boolean isNone()
        - -(math)- -
        +Speed maximum(Speed that)
        +Speed minimum(Speed that)
        - -(parsing)- -
        +Speed parse(String text)
        +SwitchParser.Builder<Speed> switchParser(String name, String description)
        - -(time)- -
        +int asHundredthsOfAMilePerHour()
        +double asKilometersPerHour()
        +double asMetersPerHour()
        +double asMetersPerSecond()
        +int asMicroDegreesPerSecond()
        +double asMilesPerHour()
        +double asMillimetersPerHour()
        +Speed distancePerDuration(Distance, Duration)
        +Speed hundredthsOfAMilePerHour(int speedInHundredthsOfAMilePerHour)
        +Speed kilometersPerHour(double kph)
        +Speed metersPerHour(double metersPerHour)
        +Speed metersPerSecond(double metersPerSecond)
        +Speed microDegreesPerSecond(int value)
        +Speed milesPerHour(double mph)
        +Speed millimetersPerHour(long millimetersPerHour)
        +Duration timeToTravel(Distance length)
        +long timeToTravelInMilliseconds(Distance length)
    }
    
    WeightedAverageSpeed - -> Speed : "computes"
    class WeightedAverageSpeed
    {
        - -
        +Speed average()
        - -(collection)- -
        +void add(Speed, double weight)
    }
    
@enduml

PlantUML version 1.2021.01(Tue Feb 02 00:55:08 MST 2021)
(GPL source distribution)
Java Runtime: Java(TM) SE Runtime Environment
JVM: Java HotSpot(TM) 64-Bit Server VM
Default Encoding: UTF-8
Language: en
Country: US
--></g></svg>