<?xml version="1.0" encoding="UTF-8" standalone="no"?><svg xmlns="http://www.w3.org/2000/svg" xmlns:xlink="http://www.w3.org/1999/xlink" contentScriptType="application/ecmascript" contentStyleType="text/css" height="664.5833px" preserveAspectRatio="none" style="width:618px;height:664px;background:#333333;" version="1.1" viewBox="0 0 618 664" width="618.75px" zoomAndPan="magnify"><defs/><g><rect fill="#48494B" height="41.2028" rx="8.3333" ry="8.3333" style="stroke:#545454;stroke-width:1.0416666666666667;" width="348.9583" x="127.8646" y="2.0833"/><text fill="#C0C0C0" font-family="Open Sans,Avenir,Nunito,Arial,Helvetica,SansSerif" font-size="20.8333" lengthAdjust="spacing" textLength="326.0417" x="139.3229" y="30.5583">com.telenav.aonia.map.overpass</text><!--MD5=[762aa3d0df6a9d47bd8e105afbd066b5]
class BaseRepeater--><rect codeLine="6" fill="#282828" height="48.055" id="BaseRepeater" rx="8.3333" ry="8.3333" style="stroke:#5E5E5E;stroke-width:1.0416666666666667;" width="123.9583" x="330.7292" y="53.7028"/><rect fill="#1B1B1A" height="31.3883" rx="8.3333" ry="8.3333" style="stroke:#1B1B1A;stroke-width:1.0416666666666667;" width="123.9583" x="330.7292" y="53.7028"/><rect fill="#1B1B1A" height="8.3333" style="stroke:#1B1B1A;stroke-width:1.0416666666666667;" width="123.9583" x="330.7292" y="76.7578"/><rect codeLine="6" fill="none" height="48.055" id="BaseRepeater" rx="8.3333" ry="8.3333" style="stroke:#5E5E5E;stroke-width:1.0416666666666667;" width="123.9583" x="330.7292" y="53.7028"/><ellipse cx="345.3125" cy="69.397" fill="#C8AC00" rx="10.4167" ry="10.4167" style="stroke:#D8BC00;stroke-width:1.0416666666666667;"/><path d="M345.4264,66.099 L344.578,69.8283 L346.2809,69.8283 Z M344.3278,64.4511 L346.5312,64.4511 L348.9909,73.5636 L347.1903,73.5636 L346.6288,71.3114 L344.2179,71.3114 L343.6686,73.5636 L341.8681,73.5636 Z " fill="#000000"/><text fill="#D8BC00" font-family="Open Sans,Avenir,Nunito,Arial,Helvetica,SansSerif" font-size="12.5" font-style="italic" font-weight="bold" lengthAdjust="spacing" textLength="86.4583" x="361.9792" y="74.1211">BaseRepeater</text><line style="stroke:#5E5E5E;stroke-width:1.0416666666666667;" x1="331.7708" x2="453.6458" y1="85.0911" y2="85.0911"/><line style="stroke:#5E5E5E;stroke-width:1.0416666666666667;" x1="331.7708" x2="453.6458" y1="93.4245" y2="93.4245"/><!--MD5=[96fa6dd777b565a8f2e28c57d8998f3c]
class OverpassDataDownloader--><rect codeLine="12" fill="#282828" height="146.7794" id="OverpassDataDownloader" rx="8.3333" ry="8.3333" style="stroke:#5E5E5E;stroke-width:1.0416666666666667;" width="287.5" x="135.4167" y="165.1611"/><rect fill="#1B1B1A" height="31.3883" rx="8.3333" ry="8.3333" style="stroke:#1B1B1A;stroke-width:1.0416666666666667;" width="287.5" x="135.4167" y="165.1611"/><rect fill="#1B1B1A" height="8.3333" style="stroke:#1B1B1A;stroke-width:1.0416666666666667;" width="287.5" x="135.4167" y="188.2161"/><rect codeLine="12" fill="none" height="146.7794" id="OverpassDataDownloader" rx="8.3333" ry="8.3333" style="stroke:#5E5E5E;stroke-width:1.0416666666666667;" width="287.5" x="135.4167" y="165.1611"/><ellipse cx="187.5" cy="180.8553" fill="#0066CF" rx="10.4167" ry="10.4167" style="stroke:#0086EF;stroke-width:1.0416666666666667;"/><path d="M189.4104,185.2804 Q188.9832,185.5001 188.5132,185.6099 Q188.0432,185.7198 187.5244,185.7198 Q185.6812,185.7198 184.7107,184.5052 Q183.7402,183.2906 183.7402,180.9957 Q183.7402,178.6947 184.7107,177.4801 Q185.6812,176.2655 187.5244,176.2655 Q188.0432,176.2655 188.5193,176.3753 Q188.9954,176.4852 189.4104,176.7049 L189.4104,178.7069 Q188.9465,178.2796 188.5101,178.0813 Q188.0737,177.8829 187.6099,177.8829 Q186.6211,177.8829 186.1176,178.6672 Q185.614,179.4515 185.614,180.9957 Q185.614,182.5338 186.1176,183.3181 Q186.6211,184.1024 187.6099,184.1024 Q188.0737,184.1024 188.5101,183.904 Q188.9465,183.7056 189.4104,183.2784 Z " fill="#000000"/><text fill="#D8BC00" font-family="Open Sans,Avenir,Nunito,Arial,Helvetica,SansSerif" font-size="12.5" font-weight="bold" lengthAdjust="spacing" textLength="168.75" x="210.4167" y="185.5794">OverpassDataDownloader</text><line style="stroke:#5E5E5E;stroke-width:1.5625;" x1="136.4583" x2="421.875" y1="196.5495" y2="196.5495"/><ellipse cx="146.875" cy="231.9194" fill="#84BE84" rx="3.125" ry="3.125" style="stroke:#038048;stroke-width:1.0416666666666667;"/><text fill="#D8BC00" font-family="Open Sans,Avenir,Nunito,Arial,Helvetica,SansSerif" font-size="11.4583" lengthAdjust="spacing" textLength="188.5417" x="158.3333" y="238.8306">OverpassDataDownloader(Folder)</text><line style="stroke:#5E5E5E;stroke-width:1.0416666666666667;" x1="136.4583" x2="235.4167" y1="214.7552" y2="214.7552"/><text fill="#D8BC00" font-family="Open Sans,Avenir,Nunito,Arial,Helvetica,SansSerif" font-size="11.4583" lengthAdjust="spacing" textLength="81.25" x="238.5417" y="218.5649">(constructors)</text><line style="stroke:#5E5E5E;stroke-width:1.0416666666666667;" x1="322.9167" x2="421.875" y1="214.7552" y2="214.7552"/><ellipse cx="146.875" cy="275.5758" fill="#84BE84" rx="3.125" ry="3.125" style="stroke:#038048;stroke-width:1.0416666666666667;"/><text fill="#D8BC00" font-family="Open Sans,Avenir,Nunito,Arial,Helvetica,SansSerif" font-size="11.4583" lengthAdjust="spacing" textLength="255.2083" x="158.3333" y="282.487">File osm(String descriptor, Rectangle bounds)</text><ellipse cx="146.875" cy="295.3206" fill="#84BE84" rx="3.125" ry="3.125" style="stroke:#038048;stroke-width:1.0416666666666667;"/><text fill="#D8BC00" font-family="Open Sans,Avenir,Nunito,Arial,Helvetica,SansSerif" font-size="11.4583" lengthAdjust="spacing" textLength="248.9583" x="158.3333" y="302.2319">File pbf(String baseName, Rectangle bounds)</text><line style="stroke:#5E5E5E;stroke-width:1.0416666666666667;" x1="136.4583" x2="243.75" y1="258.4117" y2="258.4117"/><text fill="#D8BC00" font-family="Open Sans,Avenir,Nunito,Arial,Helvetica,SansSerif" font-size="11.4583" lengthAdjust="spacing" textLength="64.5833" x="246.875" y="262.2213">(filesystem)</text><line style="stroke:#5E5E5E;stroke-width:1.0416666666666667;" x1="314.5833" x2="421.875" y1="258.4117" y2="258.4117"/><!--MD5=[a6e03791e001d3ab04cfa45eed53df94]
class OsmToPbfConverter--><rect fill="#282828" height="48.055" id="OsmToPbfConverter" rx="8.3333" ry="8.3333" style="stroke:#5E5E5E;stroke-width:1.0416666666666667;" width="168.75" x="7.2917" y="437.0361"/><rect fill="#1B1B1A" height="31.3883" rx="8.3333" ry="8.3333" style="stroke:#1B1B1A;stroke-width:1.0416666666666667;" width="168.75" x="7.2917" y="437.0361"/><rect fill="#1B1B1A" height="8.3333" style="stroke:#1B1B1A;stroke-width:1.0416666666666667;" width="168.75" x="7.2917" y="460.0911"/><rect fill="none" height="48.055" id="OsmToPbfConverter" rx="8.3333" ry="8.3333" style="stroke:#5E5E5E;stroke-width:1.0416666666666667;" width="168.75" x="7.2917" y="437.0361"/><ellipse cx="21.875" cy="452.7303" fill="#0066CF" rx="10.4167" ry="10.4167" style="stroke:#0086EF;stroke-width:1.0416666666666667;"/><path d="M23.7854,457.1554 Q23.3582,457.3751 22.8882,457.4849 Q22.4182,457.5948 21.8994,457.5948 Q20.0562,457.5948 19.0857,456.3802 Q18.1152,455.1656 18.1152,452.8707 Q18.1152,450.5697 19.0857,449.3551 Q20.0562,448.1405 21.8994,448.1405 Q22.4182,448.1405 22.8943,448.2503 Q23.3704,448.3602 23.7854,448.5799 L23.7854,450.5819 Q23.3215,450.1546 22.8851,449.9563 Q22.4487,449.7579 21.9849,449.7579 Q20.9961,449.7579 20.4926,450.5422 Q19.989,451.3265 19.989,452.8707 Q19.989,454.4088 20.4926,455.1931 Q20.9961,455.9774 21.9849,455.9774 Q22.4487,455.9774 22.8851,455.779 Q23.3215,455.5806 23.7854,455.1534 Z " fill="#000000"/><text fill="#D8BC00" font-family="Open Sans,Avenir,Nunito,Arial,Helvetica,SansSerif" font-size="12.5" font-weight="bold" lengthAdjust="spacing" textLength="131.25" x="38.5417" y="457.4544">OsmToPbfConverter</text><line style="stroke:#5E5E5E;stroke-width:1.0416666666666667;" x1="8.3333" x2="175" y1="468.4245" y2="468.4245"/><line style="stroke:#5E5E5E;stroke-width:1.0416666666666667;" x1="8.3333" x2="175" y1="476.7578" y2="476.7578"/><!--MD5=[bd8dd72c740f0b6f80045c4c0d2213b7]
class OverpassOsmResource--><rect codeLine="23" fill="#282828" height="127.0345" id="OverpassOsmResource" rx="8.3333" ry="8.3333" style="stroke:#5E5E5E;stroke-width:1.0416666666666667;" width="226.0417" x="385.9375" y="397.4528"/><rect fill="#1B1B1A" height="31.3883" rx="8.3333" ry="8.3333" style="stroke:#1B1B1A;stroke-width:1.0416666666666667;" width="226.0417" x="385.9375" y="397.4528"/><rect fill="#1B1B1A" height="8.3333" style="stroke:#1B1B1A;stroke-width:1.0416666666666667;" width="226.0417" x="385.9375" y="420.5078"/><rect codeLine="23" fill="none" height="127.0345" id="OverpassOsmResource" rx="8.3333" ry="8.3333" style="stroke:#5E5E5E;stroke-width:1.0416666666666667;" width="226.0417" x="385.9375" y="397.4528"/><ellipse cx="418.3333" cy="413.147" fill="#0066CF" rx="10.4167" ry="10.4167" style="stroke:#0086EF;stroke-width:1.0416666666666667;"/><path d="M420.2437,417.572 Q419.8165,417.7917 419.3465,417.9016 Q418.8765,418.0115 418.3577,418.0115 Q416.5145,418.0115 415.544,416.7969 Q414.5736,415.5823 414.5736,413.2874 Q414.5736,410.9863 415.544,409.7717 Q416.5145,408.5571 418.3577,408.5571 Q418.8765,408.5571 419.3526,408.667 Q419.8287,408.7769 420.2437,408.9966 L420.2437,410.9985 Q419.7799,410.5713 419.3435,410.3729 Q418.9071,410.1746 418.4432,410.1746 Q417.4544,410.1746 416.9509,410.9589 Q416.4473,411.7432 416.4473,413.2874 Q416.4473,414.8254 416.9509,415.6097 Q417.4544,416.394 418.4432,416.394 Q418.9071,416.394 419.3435,416.1957 Q419.7799,415.9973 420.2437,415.5701 Z " fill="#000000"/><text fill="#D8BC00" font-family="Open Sans,Avenir,Nunito,Arial,Helvetica,SansSerif" font-size="12.5" font-weight="bold" lengthAdjust="spacing" textLength="148.9583" x="438.9583" y="417.8711">OverpassOsmResource</text><line style="stroke:#5E5E5E;stroke-width:1.5625;" x1="386.9792" x2="610.9375" y1="428.8411" y2="428.8411"/><ellipse cx="397.3958" cy="464.211" fill="#84BE84" rx="3.125" ry="3.125" style="stroke:#038048;stroke-width:1.0416666666666667;"/><text fill="#D8BC00" font-family="Open Sans,Avenir,Nunito,Arial,Helvetica,SansSerif" font-size="11.4583" lengthAdjust="spacing" textLength="193.75" x="408.8542" y="471.1222">OverpassOsmResource(Rectangle)</text><line style="stroke:#5E5E5E;stroke-width:1.0416666666666667;" x1="386.9792" x2="455.2083" y1="447.0469" y2="447.0469"/><text fill="#D8BC00" font-family="Open Sans,Avenir,Nunito,Arial,Helvetica,SansSerif" font-size="11.4583" lengthAdjust="spacing" textLength="81.25" x="458.3333" y="450.8565">(constructors)</text><line style="stroke:#5E5E5E;stroke-width:1.0416666666666667;" x1="542.7083" x2="610.9375" y1="447.0469" y2="447.0469"/><ellipse cx="397.3958" cy="507.8674" fill="#84BE84" rx="3.125" ry="3.125" style="stroke:#038048;stroke-width:1.0416666666666667;"/><text fill="#D8BC00" font-family="Open Sans,Avenir,Nunito,Arial,Helvetica,SansSerif" font-size="11.4583" lengthAdjust="spacing" textLength="186.4583" x="408.8542" y="514.7786">void safeCopyTo(File destination)</text><line style="stroke:#5E5E5E;stroke-width:1.0416666666666667;" x1="386.9792" x2="463.5417" y1="490.7033" y2="490.7033"/><text fill="#D8BC00" font-family="Open Sans,Avenir,Nunito,Arial,Helvetica,SansSerif" font-size="11.4583" lengthAdjust="spacing" textLength="64.5833" x="466.6667" y="494.5129">(filesystem)</text><line style="stroke:#5E5E5E;stroke-width:1.0416666666666667;" x1="534.375" x2="610.9375" y1="490.7033" y2="490.7033"/><!--MD5=[d1dcc9c41ef051a777528f9336a950e3]
class Folder--><rect fill="#282828" height="48.055" id="Folder" rx="8.3333" ry="8.3333" style="stroke:#5E5E5E;stroke-width:1.0416666666666667;" width="78.125" x="240.1042" y="609.9528"/><rect fill="#1B1B1A" height="31.3883" rx="8.3333" ry="8.3333" style="stroke:#1B1B1A;stroke-width:1.0416666666666667;" width="78.125" x="240.1042" y="609.9528"/><rect fill="#1B1B1A" height="8.3333" style="stroke:#1B1B1A;stroke-width:1.0416666666666667;" width="78.125" x="240.1042" y="633.0078"/><rect fill="none" height="48.055" id="Folder" rx="8.3333" ry="8.3333" style="stroke:#5E5E5E;stroke-width:1.0416666666666667;" width="78.125" x="240.1042" y="609.9528"/><ellipse cx="254.6875" cy="625.647" fill="#0066CF" rx="10.4167" ry="10.4167" style="stroke:#0086EF;stroke-width:1.0416666666666667;"/><path d="M256.5979,630.072 Q256.1707,630.2917 255.7007,630.4016 Q255.2307,630.5115 254.7119,630.5115 Q252.8687,630.5115 251.8982,629.2969 Q250.9277,628.0823 250.9277,625.7874 Q250.9277,623.4863 251.8982,622.2717 Q252.8687,621.0571 254.7119,621.0571 Q255.2307,621.0571 255.7068,621.167 Q256.1829,621.2769 256.5979,621.4966 L256.5979,623.4985 Q256.134,623.0713 255.6976,622.8729 Q255.2612,622.6746 254.7974,622.6746 Q253.8086,622.6746 253.3051,623.4589 Q252.8015,624.2432 252.8015,625.7874 Q252.8015,627.3254 253.3051,628.1097 Q253.8086,628.894 254.7974,628.894 Q255.2612,628.894 255.6976,628.6957 Q256.134,628.4973 256.5979,628.0701 Z " fill="#000000"/><text fill="#D8BC00" font-family="Open Sans,Avenir,Nunito,Arial,Helvetica,SansSerif" font-size="12.5" font-weight="bold" lengthAdjust="spacing" textLength="40.625" x="271.3542" y="630.3711">Folder</text><line style="stroke:#5E5E5E;stroke-width:1.0416666666666667;" x1="241.1458" x2="317.1875" y1="641.3411" y2="641.3411"/><line style="stroke:#5E5E5E;stroke-width:1.0416666666666667;" x1="241.1458" x2="317.1875" y1="649.6745" y2="649.6745"/><!--MD5=[4605f201512db6eb7a7e8cdcaebd2f1f]
reverse link BaseRepeater to OverpassDataDownloader--><path codeLine="8" d="M364.0833,118.7549 C354.0625,132.7653 342.4792,148.9736 331.1563,164.8174 " fill="none" id="BaseRepeater-backto-OverpassDataDownloader" style="stroke:#545454;stroke-width:1.5625;"/><polygon fill="none" points="358.1563,114.5153,376.1979,101.7965,370.0208,122.9945,358.1563,114.5153" style="stroke:#545454;stroke-width:1.5625;"/><!--MD5=[746960e65895855b8676357ca0fdd7cb]
link OverpassDataDownloader to OsmToPbfConverter--><path codeLine="9" d="M135.0208,298.807 C118.6667,311.1715 104.1667,325.8799 93.75,343.2861 C77.8125,369.9007 80.1979,406.4111 84.6875,431.4632 " fill="none" id="OverpassDataDownloader-to-OsmToPbfConverter" style="stroke:#545454;stroke-width:1.5625;"/><polygon fill="#545454" points="85.6667,436.6195,88.0149,426.6326,84.6969,431.5022,79.8273,428.1842,85.6667,436.6195" style="stroke:#545454;stroke-width:1.5625;"/><text fill="#A0A0A0" font-family="Open Sans,Avenir,Nunito,Arial,Helvetica,SansSerif" font-size="12.5" font-weight="bold" lengthAdjust="spacing" textLength="119.7917" x="97.9167" y="359.5378">converts data with</text><!--MD5=[d0497d39f440bd4d744037c74b8a6491]
link OverpassDataDownloader to OverpassOsmResource--><path codeLine="10" d="M293.3438,312.1924 C299.6875,331.2965 308.8021,350.8278 321.875,366.2028 C331.5625,377.5986 354.7396,391.9215 381.2396,405.9215 " fill="none" id="OverpassDataDownloader-to-OverpassOsmResource" style="stroke:#545454;stroke-width:1.5625;"/><polygon fill="#545454" points="385.875,408.3486,379.4959,400.3138,381.259,405.9364,375.6363,407.6994,385.875,408.3486" style="stroke:#545454;stroke-width:1.5625;"/><text fill="#A0A0A0" font-family="Open Sans,Avenir,Nunito,Arial,Helvetica,SansSerif" font-size="12.5" font-weight="bold" lengthAdjust="spacing" textLength="135.4167" x="326.0417" y="359.5378">downloads data with</text><!--MD5=[3c26438dbc605289fb425a16747b2b0f]
reverse link OverpassDataDownloader to Folder--><path codeLine="11" d="M271.5417,325.8382 C267.5625,382.359 264.1875,457.859 267.7083,524.5361 C269.2604,553.9945 273.1771,587.7861 276,609.682 " fill="none" id="OverpassDataDownloader-backto-Folder" style="stroke:#545454;stroke-width:1.5625;"/><polygon fill="#333333" points="272.5313,312.2653,267.916,318.1917,271.6114,324.7314,276.2267,318.805,272.5313,312.2653" style="stroke:#545454;stroke-width:1.5625;"/><text fill="#A0A0A0" font-family="Open Sans,Avenir,Nunito,Arial,Helvetica,SansSerif" font-size="12.5" font-weight="bold" lengthAdjust="spacing" textLength="91.6667" x="271.875" y="465.7878">caches data in</text><!--MD5=[8b5670f62d6bf08b3d27df75fe066633]
reverse link BaseRepeater to OverpassOsmResource--><path codeLine="21" d="M419.0417,120.0465 C426.9583,133.9424 435.0104,149.8278 440.625,165.1611 C468.8958,242.4528 484.4792,336.4215 492.2708,397.1715 " fill="none" id="BaseRepeater-backto-OverpassOsmResource" style="stroke:#545454;stroke-width:1.5625;"/><polygon fill="none" points="412.6667,123.5882,408.2188,101.9736,425.1771,116.0986,412.6667,123.5882" style="stroke:#545454;stroke-width:1.5625;"/><!--MD5=[4c56013a89f23f8a7862ec7ab51f3832]
link OverpassOsmResource to Folder--><path codeLine="22" d="M418.3646,524.682 C382.0833,552.8799 341.1979,584.6507 313.1771,606.432 " fill="none" id="OverpassOsmResource-to-Folder" style="stroke:#545454;stroke-width:1.5625;"/><polygon fill="#545454" points="308.7917,609.8382,318.7579,607.4039,312.9133,606.654,313.6632,600.8094,308.7917,609.8382" style="stroke:#545454;stroke-width:1.5625;"/><text fill="#A0A0A0" font-family="Open Sans,Avenir,Nunito,Arial,Helvetica,SansSerif" font-size="12.5" font-weight="bold" lengthAdjust="spacing" textLength="91.6667" x="380.2083" y="572.0378">copies data to</text><!--MD5=[60cb96c5195e275824286a3c21ed7a76]
@startuml

    !include ../lexakai/lexakai.theme
    
    title "com.telenav.aonia.map.overpass"
    
    abstract BaseRepeater
    
    BaseRepeater <|- - OverpassDataDownloader
    OverpassDataDownloader - -> OsmToPbfConverter : "converts data with"
    OverpassDataDownloader - -> OverpassOsmResource : "downloads data with"
    OverpassDataDownloader o- - Folder : "caches data in"
    class OverpassDataDownloader
    {
        - -(constructors)- -
        +OverpassDataDownloader(Folder)
        - -(filesystem)- -
        +File osm(String descriptor, Rectangle bounds)
        +File pbf(String baseName, Rectangle bounds)
    }
    
    BaseRepeater <|- - OverpassOsmResource
    OverpassOsmResource - -> Folder : "copies data to"
    class OverpassOsmResource
    {
        - -(constructors)- -
        +OverpassOsmResource(Rectangle)
        - -(filesystem)- -
        +void safeCopyTo(File destination)
    }
    
@enduml

@startuml









skinparam backgroundColor #333333






skinparam  {
    defaultFontName   "Open Sans,Avenir,Nunito,Arial,Helvetica,SansSerif"
    defaultFontSize   12
    defaultTextAlignment left
    shadowing false
    RoundCorner 10
    TitleFontSize 18
}

skinparam defaultFontName       "Open Sans,Avenir,Nunito,Arial,Helvetica,SansSerif"
skinparam defaultFontSize       12
skinparam dpi                   100
skinparam shadowing             false
skinparam roundcorner           16
skinparam ParticipantPadding    40
skinparam BoxPadding            40
skinparam Padding               3
skinparam ArrowColor            #545454
skinparam stereotype {
    CBackgroundColor #0066cf
    CBorderColor #0086ef
    ABackgroundColor #C8Ac00
    ABorderColor #D8Bc00
    IBackgroundColor #008400
    IBorderColor #239c23
    EBackgroundColor #cf6300
    EBorderColor #ef8300
    NBackgroundColor #3380b9
    NBorderColor #004d86
}
skinparam title {
	FontColor	                 #c0c0c0
 	BorderColor                  #545454
	FontSize	    	         20
	BorderRoundCorner            16
	BorderThickness 	         1
	BackgroundColor              #48494b
}


skinparam legend {
	BackgroundColor #303030
	BorderColor #404040
	FontColor #a0a0a0
}

	skinparam swimlane {
	BorderColor #5e5e5e
	BorderThickness 2
	TitleBackgroundColor  #6d6d6d-#484848
	TitleFontColor #303030
}

skinparam activity {
		FontColor #C8Ac00
	BorderColor #333333
	BackgroundColor #333333-#333333
	BarColor #00FF00
	StartColor #0060a8
	EndColor #0060a8
	DiamondBackgroundColor #6d6d6d-#3a3a3a
  	DiamondBorderColor #3a3a3a
  	DiamondFontColor #fefefe
}


skinparam participant {
		FontColor #C8Ac00
	BorderColor #333333
	BackgroundColor #333333-#333333
	ParticipantBorderThickness 2
}


skinparam actor {
		FontColor #C8Ac00
	BorderColor #333333
	BackgroundColor #333333-#333333
}


skinparam arrow {
	Thickness 1.5
	Color #545454
	FontColor #a0a0a0
    FontStyle bold
    MessageAlignment center
}



skinparam sequence {
	BorderColor #303030
	TitleFontColor #303030
	BackgroundColor #333333
	StartColor #303030
	EndColor #303030
	BoxBackgroundColor #333333
	BoxBorderColor #484848
	BoxFontColor #484848
	LifeLineBorderColor #484848
	LifeLineBorderThickness 2
	LifeLineBackgroundColor #3a3a3a
	GroupBorderColor #484848
	GroupFontColor #484848
	GroupHeaderFontColor #0060a8
	GroupBackgroundColor #484848
	GroupHeaderBackgroundColor #333333
	DividerBackgroundColor #484848
    DividerBorderColor #484848
    DividerBorderThickness 2
    DividerFontColor #D8Bc00
	ReferenceBackgroundColor #333333
	ReferenceBorderColor #484848
	ReferenceFontColor #fefefe
	ReferenceHeaderBackgroundColor #484848
}


skinparam partition {
	BorderColor #303030
	FontColor #333333
	BackgroundColor #333333
}


skinparam collections {
		FontColor #C8Ac00
	BorderColor #333333
	BackgroundColor #333333-#333333
}


skinparam control {
		FontColor #C8Ac00
	BorderColor #333333
	BackgroundColor #333333-#333333
}


skinparam entity {
		FontColor #C8Ac00
	BorderColor #333333
	BackgroundColor #333333-#333333
}


skinparam boundary {
		FontColor #C8Ac00
	BorderColor #333333
	BackgroundColor #333333-#333333
}


skinparam agent {
	BackgroundColor #ff8000
	BorderColor #ff9933
	FontColor #484848
}


skinparam note {
	BorderThickness 1
	BackgroundColor #1b1b1a
	BorderColor #5e5e5e
	FontSize 11
	FontColor #a0a0a0
}


skinparam artifact {
	BorderThickness 10
	BorderColor #5e5e5e
	BackgroundColor #1b1b1a
	FontColor #D8Bc00
}


skinparam component {
		FontColor #C8Ac00
	BorderColor #333333
	BackgroundColor #333333-#333333
}


skinparam interface {
	BackgroundColor  #008400
	BorderColor  #007F00
	FontColor #484848
}


skinparam storage {
	BackgroundColor #ff8000
  	BorderColor #cc6600
	FontColor #222222
}


skinparam node {
	BackgroundColor #333333
	BorderColor #333333
	FontColor #C8Ac00
}


skinparam cloud {
	BackgroundColor #484848-black
	BorderColor #484848
	FontColor #D8Bc00
}


skinparam database {
		FontColor #C8Ac00
	BorderColor #333333
	BackgroundColor #333333-#333333
	BackgroundColor  #333333
}


skinparam class {
		FontColor #C8Ac00
	BorderColor #333333
	BackgroundColor #333333-#333333
	HeaderBackgroundColor #1b1b1a
    BackgroundColor #282828
    BorderColor #5e5e5e
 	StereotypeFontColor #a0a0a0
    StereotypeFontStyle bold
	BorderThickness 1
	AttributeFontColor #D8Bc00
	AttributeFontSize 11
    FontColor #D8Bc00
    FontStyle bold
}


skinparam object {
		FontColor #C8Ac00
	BorderColor #333333
	BackgroundColor #333333-#333333
	StereotypeFontColor #484848
	BorderThickness 1
	AttributeFontColor #fefefe
	AttributeFontSize 11
}


skinparam usecase {
		FontColor #C8Ac00
	BorderColor #333333
	BackgroundColor #333333-#333333
	BorderThickness 2
	StereotypeFontColor #303030
}


skinparam rectangle {
		FontColor #C8Ac00
	BorderColor #333333
	BackgroundColor #333333-#333333
	BackgroundColor #333333
	BorderThickness 2
	StereotypeFontColor #303030
}


skinparam package {
		FontColor #C8Ac00
	BorderColor #333333
	BackgroundColor #333333-#333333
	BackgroundColor #333333
	BorderThickness 2
}


skinparam folder {
	BackgroundColor #6d6d6d
  	BorderColor #ff8000
	FontColor #ff8000
	BorderThickness 2
}


skinparam frame {
	BackgroundColor #6d6d6d
  	BorderColor #0060a8
	FontColor #0060a8
	BorderThickness 2
}


skinparam state {
		FontColor #C8Ac00
	BorderColor #333333
	BackgroundColor #333333-#333333
	StartColor #0060a8
	EndColor #0060a8
	AttributeFontColor #fefefe
	AttributeFontSize 11
}


skinparam queue {
		FontColor #C8Ac00
	BorderColor #333333
	BackgroundColor #333333-#333333
}


skinparam card {
	BackgroundColor #0060a8
	BorderColor #004d86
	FontColor $INFO_TEXT
}


skinparam file {
	BackgroundColor #6d6d6d-#484848
	BorderColor #0060a8
	FontColor #fefefe
}


skinparam stack {
		FontColor #C8Ac00
	BorderColor #333333
	BackgroundColor #333333-#333333
}

    
    title "com.telenav.aonia.map.overpass"
    
    abstract BaseRepeater
    
    BaseRepeater <|- - OverpassDataDownloader
    OverpassDataDownloader - -> OsmToPbfConverter : "converts data with"
    OverpassDataDownloader - -> OverpassOsmResource : "downloads data with"
    OverpassDataDownloader o- - Folder : "caches data in"
    class OverpassDataDownloader
    {
        - -(constructors)- -
        +OverpassDataDownloader(Folder)
        - -(filesystem)- -
        +File osm(String descriptor, Rectangle bounds)
        +File pbf(String baseName, Rectangle bounds)
    }
    
    BaseRepeater <|- - OverpassOsmResource
    OverpassOsmResource - -> Folder : "copies data to"
    class OverpassOsmResource
    {
        - -(constructors)- -
        +OverpassOsmResource(Rectangle)
        - -(filesystem)- -
        +void safeCopyTo(File destination)
    }
    
@enduml

PlantUML version 1.2021.01(Tue Feb 02 00:55:08 MST 2021)
(GPL source distribution)
Java Runtime: Java(TM) SE Runtime Environment
JVM: Java HotSpot(TM) 64-Bit Server VM
Default Encoding: UTF-8
Language: en
Country: US
--></g></svg>