<?xml version="1.0" encoding="UTF-8" standalone="no"?><svg xmlns="http://www.w3.org/2000/svg" xmlns:xlink="http://www.w3.org/1999/xlink" contentScriptType="application/ecmascript" contentStyleType="text/css" height="664.5833px" preserveAspectRatio="none" style="width:669px;height:664px;background:#333333;" version="1.1" viewBox="0 0 669 664" width="669.7917px" zoomAndPan="magnify"><defs/><g><rect fill="#48494B" height="41.2028" rx="8.3333" ry="8.3333" style="stroke:#545454;stroke-width:1.0416666666666667;" width="115.625" x="270.0521" y="2.0833"/><text fill="#C0C0C0" font-family="Open Sans,Avenir,Nunito,Arial,Helvetica,SansSerif" font-size="20.8333" lengthAdjust="spacing" textLength="92.7083" x="281.5104" y="30.5583">Overpass</text><!--MD5=[762aa3d0df6a9d47bd8e105afbd066b5]
class BaseRepeater--><rect codeLine="6" fill="#282828" height="48.055" id="BaseRepeater" rx="8.3333" ry="8.3333" style="stroke:#5E5E5E;stroke-width:1.0416666666666667;" width="123.9583" x="238.0208" y="53.7028"/><rect fill="#1B1B1A" height="31.3883" rx="8.3333" ry="8.3333" style="stroke:#1B1B1A;stroke-width:1.0416666666666667;" width="123.9583" x="238.0208" y="53.7028"/><rect fill="#1B1B1A" height="8.3333" style="stroke:#1B1B1A;stroke-width:1.0416666666666667;" width="123.9583" x="238.0208" y="76.7578"/><rect codeLine="6" fill="none" height="48.055" id="BaseRepeater" rx="8.3333" ry="8.3333" style="stroke:#5E5E5E;stroke-width:1.0416666666666667;" width="123.9583" x="238.0208" y="53.7028"/><ellipse cx="252.6042" cy="69.397" fill="#C8AC00" rx="10.4167" ry="10.4167" style="stroke:#D8BC00;stroke-width:1.0416666666666667;"/><path d="M252.7181,66.099 L251.8697,69.8283 L253.5726,69.8283 Z M251.6195,64.4511 L253.8228,64.4511 L256.2826,73.5636 L254.482,73.5636 L253.9205,71.3114 L251.5096,71.3114 L250.9603,73.5636 L249.1597,73.5636 Z " fill="#000000"/><text fill="#D8BC00" font-family="Open Sans,Avenir,Nunito,Arial,Helvetica,SansSerif" font-size="12.5" font-style="italic" font-weight="bold" lengthAdjust="spacing" textLength="86.4583" x="269.2708" y="74.1211">BaseRepeater</text><line style="stroke:#5E5E5E;stroke-width:1.0416666666666667;" x1="239.0625" x2="360.9375" y1="85.0911" y2="85.0911"/><line style="stroke:#5E5E5E;stroke-width:1.0416666666666667;" x1="239.0625" x2="360.9375" y1="93.4245" y2="93.4245"/><!--MD5=[a6e03791e001d3ab04cfa45eed53df94]
class OsmToPbfConverter--><rect codeLine="9" fill="#282828" height="111.4563" id="OsmToPbfConverter" rx="8.3333" ry="8.3333" style="stroke:#5E5E5E;stroke-width:1.0416666666666667;" width="200" x="7.2917" y="405.2653"/><rect fill="#1B1B1A" height="31.3883" rx="8.3333" ry="8.3333" style="stroke:#1B1B1A;stroke-width:1.0416666666666667;" width="200" x="7.2917" y="405.2653"/><rect fill="#1B1B1A" height="8.3333" style="stroke:#1B1B1A;stroke-width:1.0416666666666667;" width="200" x="7.2917" y="428.3203"/><rect codeLine="9" fill="none" height="111.4563" id="OsmToPbfConverter" rx="8.3333" ry="8.3333" style="stroke:#5E5E5E;stroke-width:1.0416666666666667;" width="200" x="7.2917" y="405.2653"/><ellipse cx="35.9375" cy="420.9595" fill="#0066CF" rx="10.4167" ry="10.4167" style="stroke:#0086EF;stroke-width:1.0416666666666667;"/><path d="M37.8479,425.3845 Q37.4207,425.6042 36.9507,425.7141 Q36.4807,425.824 35.9619,425.824 Q34.1187,425.824 33.1482,424.6094 Q32.1777,423.3948 32.1777,421.0999 Q32.1777,418.7988 33.1482,417.5842 Q34.1187,416.3696 35.9619,416.3696 Q36.4807,416.3696 36.9568,416.4795 Q37.4329,416.5894 37.8479,416.8091 L37.8479,418.811 Q37.384,418.3838 36.9476,418.1854 Q36.5112,417.9871 36.0474,417.9871 Q35.0586,417.9871 34.5551,418.7714 Q34.0515,419.5557 34.0515,421.0999 Q34.0515,422.6379 34.5551,423.4222 Q35.0586,424.2065 36.0474,424.2065 Q36.5112,424.2065 36.9476,424.0082 Q37.384,423.8098 37.8479,423.3826 Z " fill="#000000"/><text fill="#D8BC00" font-family="Open Sans,Avenir,Nunito,Arial,Helvetica,SansSerif" font-size="12.5" font-weight="bold" lengthAdjust="spacing" textLength="131.25" x="55.7292" y="425.6836">OsmToPbfConverter</text><line style="stroke:#5E5E5E;stroke-width:1.5625;" x1="8.3333" x2="206.25" y1="436.6536" y2="436.6536"/><ellipse cx="18.75" cy="472.0235" fill="#84BE84" rx="3.125" ry="3.125" style="stroke:#038048;stroke-width:1.0416666666666667;"/><text fill="#D8BC00" font-family="Open Sans,Avenir,Nunito,Arial,Helvetica,SansSerif" font-size="11.4583" lengthAdjust="spacing" textLength="167.7083" x="30.2083" y="478.9347">OsmToPbfConverter(Listener)</text><line style="stroke:#5E5E5E;stroke-width:1.0416666666666667;" x1="8.3333" x2="63.5417" y1="454.8594" y2="454.8594"/><text fill="#D8BC00" font-family="Open Sans,Avenir,Nunito,Arial,Helvetica,SansSerif" font-size="11.4583" lengthAdjust="spacing" textLength="81.25" x="66.6667" y="458.669">(constructors)</text><line style="stroke:#5E5E5E;stroke-width:1.0416666666666667;" x1="151.0417" x2="206.25" y1="454.8594" y2="454.8594"/><line style="stroke:#5E5E5E;stroke-width:1.0416666666666667;" x1="8.3333" x2="206.25" y1="488.6434" y2="488.6434"/><ellipse cx="18.75" cy="500.1017" fill="#84BE84" rx="3.125" ry="3.125" style="stroke:#038048;stroke-width:1.0416666666666667;"/><text fill="#D8BC00" font-family="Open Sans,Avenir,Nunito,Arial,Helvetica,SansSerif" font-size="11.4583" lengthAdjust="spacing" textLength="157.2917" x="30.2083" y="507.0129">void convert(File in, File out)</text><!--MD5=[96fa6dd777b565a8f2e28c57d8998f3c]
class OverpassDataDownloader--><rect codeLine="21" fill="#282828" height="146.7794" id="OverpassDataDownloader" rx="8.3333" ry="8.3333" style="stroke:#5E5E5E;stroke-width:1.0416666666666667;" width="287.5" x="156.25" y="165.1611"/><rect fill="#1B1B1A" height="31.3883" rx="8.3333" ry="8.3333" style="stroke:#1B1B1A;stroke-width:1.0416666666666667;" width="287.5" x="156.25" y="165.1611"/><rect fill="#1B1B1A" height="8.3333" style="stroke:#1B1B1A;stroke-width:1.0416666666666667;" width="287.5" x="156.25" y="188.2161"/><rect codeLine="21" fill="none" height="146.7794" id="OverpassDataDownloader" rx="8.3333" ry="8.3333" style="stroke:#5E5E5E;stroke-width:1.0416666666666667;" width="287.5" x="156.25" y="165.1611"/><ellipse cx="208.3333" cy="180.8553" fill="#0066CF" rx="10.4167" ry="10.4167" style="stroke:#0086EF;stroke-width:1.0416666666666667;"/><path d="M210.2437,185.2804 Q209.8165,185.5001 209.3465,185.6099 Q208.8765,185.7198 208.3577,185.7198 Q206.5145,185.7198 205.544,184.5052 Q204.5736,183.2906 204.5736,180.9957 Q204.5736,178.6947 205.544,177.4801 Q206.5145,176.2655 208.3577,176.2655 Q208.8765,176.2655 209.3526,176.3753 Q209.8287,176.4852 210.2437,176.7049 L210.2437,178.7069 Q209.7799,178.2796 209.3435,178.0813 Q208.9071,177.8829 208.4432,177.8829 Q207.4544,177.8829 206.9509,178.6672 Q206.4473,179.4515 206.4473,180.9957 Q206.4473,182.5338 206.9509,183.3181 Q207.4544,184.1024 208.4432,184.1024 Q208.9071,184.1024 209.3435,183.904 Q209.7799,183.7056 210.2437,183.2784 Z " fill="#000000"/><text fill="#D8BC00" font-family="Open Sans,Avenir,Nunito,Arial,Helvetica,SansSerif" font-size="12.5" font-weight="bold" lengthAdjust="spacing" textLength="168.75" x="231.25" y="185.5794">OverpassDataDownloader</text><line style="stroke:#5E5E5E;stroke-width:1.5625;" x1="157.2917" x2="442.7083" y1="196.5495" y2="196.5495"/><ellipse cx="167.7083" cy="231.9194" fill="#84BE84" rx="3.125" ry="3.125" style="stroke:#038048;stroke-width:1.0416666666666667;"/><text fill="#D8BC00" font-family="Open Sans,Avenir,Nunito,Arial,Helvetica,SansSerif" font-size="11.4583" lengthAdjust="spacing" textLength="188.5417" x="179.1667" y="238.8306">OverpassDataDownloader(Folder)</text><line style="stroke:#5E5E5E;stroke-width:1.0416666666666667;" x1="157.2917" x2="256.25" y1="214.7552" y2="214.7552"/><text fill="#D8BC00" font-family="Open Sans,Avenir,Nunito,Arial,Helvetica,SansSerif" font-size="11.4583" lengthAdjust="spacing" textLength="81.25" x="259.375" y="218.5649">(constructors)</text><line style="stroke:#5E5E5E;stroke-width:1.0416666666666667;" x1="343.75" x2="442.7083" y1="214.7552" y2="214.7552"/><ellipse cx="167.7083" cy="275.5758" fill="#84BE84" rx="3.125" ry="3.125" style="stroke:#038048;stroke-width:1.0416666666666667;"/><text fill="#D8BC00" font-family="Open Sans,Avenir,Nunito,Arial,Helvetica,SansSerif" font-size="11.4583" lengthAdjust="spacing" textLength="255.2083" x="179.1667" y="282.487">File osm(String descriptor, Rectangle bounds)</text><ellipse cx="167.7083" cy="295.3206" fill="#84BE84" rx="3.125" ry="3.125" style="stroke:#038048;stroke-width:1.0416666666666667;"/><text fill="#D8BC00" font-family="Open Sans,Avenir,Nunito,Arial,Helvetica,SansSerif" font-size="11.4583" lengthAdjust="spacing" textLength="248.9583" x="179.1667" y="302.2319">File pbf(String baseName, Rectangle bounds)</text><line style="stroke:#5E5E5E;stroke-width:1.0416666666666667;" x1="157.2917" x2="264.5833" y1="258.4117" y2="258.4117"/><text fill="#D8BC00" font-family="Open Sans,Avenir,Nunito,Arial,Helvetica,SansSerif" font-size="11.4583" lengthAdjust="spacing" textLength="64.5833" x="267.7083" y="262.2213">(filesystem)</text><line style="stroke:#5E5E5E;stroke-width:1.0416666666666667;" x1="335.4167" x2="442.7083" y1="258.4117" y2="258.4117"/><!--MD5=[bd8dd72c740f0b6f80045c4c0d2213b7]
class OverpassOsmResource--><rect codeLine="32" fill="#282828" height="127.0345" id="OverpassOsmResource" rx="8.3333" ry="8.3333" style="stroke:#5E5E5E;stroke-width:1.0416666666666667;" width="226.0417" x="436.9792" y="397.4528"/><rect fill="#1B1B1A" height="31.3883" rx="8.3333" ry="8.3333" style="stroke:#1B1B1A;stroke-width:1.0416666666666667;" width="226.0417" x="436.9792" y="397.4528"/><rect fill="#1B1B1A" height="8.3333" style="stroke:#1B1B1A;stroke-width:1.0416666666666667;" width="226.0417" x="436.9792" y="420.5078"/><rect codeLine="32" fill="none" height="127.0345" id="OverpassOsmResource" rx="8.3333" ry="8.3333" style="stroke:#5E5E5E;stroke-width:1.0416666666666667;" width="226.0417" x="436.9792" y="397.4528"/><ellipse cx="469.375" cy="413.147" fill="#0066CF" rx="10.4167" ry="10.4167" style="stroke:#0086EF;stroke-width:1.0416666666666667;"/><path d="M471.2854,417.572 Q470.8582,417.7917 470.3882,417.9016 Q469.9182,418.0115 469.3994,418.0115 Q467.5562,418.0115 466.5857,416.7969 Q465.6152,415.5823 465.6152,413.2874 Q465.6152,410.9863 466.5857,409.7717 Q467.5562,408.5571 469.3994,408.5571 Q469.9182,408.5571 470.3943,408.667 Q470.8704,408.7769 471.2854,408.9966 L471.2854,410.9985 Q470.8215,410.5713 470.3851,410.3729 Q469.9487,410.1746 469.4849,410.1746 Q468.4961,410.1746 467.9926,410.9589 Q467.489,411.7432 467.489,413.2874 Q467.489,414.8254 467.9926,415.6097 Q468.4961,416.394 469.4849,416.394 Q469.9487,416.394 470.3851,416.1957 Q470.8215,415.9973 471.2854,415.5701 Z " fill="#000000"/><text fill="#D8BC00" font-family="Open Sans,Avenir,Nunito,Arial,Helvetica,SansSerif" font-size="12.5" font-weight="bold" lengthAdjust="spacing" textLength="148.9583" x="490" y="417.8711">OverpassOsmResource</text><line style="stroke:#5E5E5E;stroke-width:1.5625;" x1="438.0208" x2="661.9792" y1="428.8411" y2="428.8411"/><ellipse cx="448.4375" cy="464.211" fill="#84BE84" rx="3.125" ry="3.125" style="stroke:#038048;stroke-width:1.0416666666666667;"/><text fill="#D8BC00" font-family="Open Sans,Avenir,Nunito,Arial,Helvetica,SansSerif" font-size="11.4583" lengthAdjust="spacing" textLength="193.75" x="459.8958" y="471.1222">OverpassOsmResource(Rectangle)</text><line style="stroke:#5E5E5E;stroke-width:1.0416666666666667;" x1="438.0208" x2="506.25" y1="447.0469" y2="447.0469"/><text fill="#D8BC00" font-family="Open Sans,Avenir,Nunito,Arial,Helvetica,SansSerif" font-size="11.4583" lengthAdjust="spacing" textLength="81.25" x="509.375" y="450.8565">(constructors)</text><line style="stroke:#5E5E5E;stroke-width:1.0416666666666667;" x1="593.75" x2="661.9792" y1="447.0469" y2="447.0469"/><ellipse cx="448.4375" cy="507.8674" fill="#84BE84" rx="3.125" ry="3.125" style="stroke:#038048;stroke-width:1.0416666666666667;"/><text fill="#D8BC00" font-family="Open Sans,Avenir,Nunito,Arial,Helvetica,SansSerif" font-size="11.4583" lengthAdjust="spacing" textLength="186.4583" x="459.8958" y="514.7786">void safeCopyTo(File destination)</text><line style="stroke:#5E5E5E;stroke-width:1.0416666666666667;" x1="438.0208" x2="514.5833" y1="490.7033" y2="490.7033"/><text fill="#D8BC00" font-family="Open Sans,Avenir,Nunito,Arial,Helvetica,SansSerif" font-size="11.4583" lengthAdjust="spacing" textLength="64.5833" x="517.7083" y="494.5129">(filesystem)</text><line style="stroke:#5E5E5E;stroke-width:1.0416666666666667;" x1="585.4167" x2="661.9792" y1="490.7033" y2="490.7033"/><!--MD5=[d1dcc9c41ef051a777528f9336a950e3]
class Folder--><rect fill="#282828" height="48.055" id="Folder" rx="8.3333" ry="8.3333" style="stroke:#5E5E5E;stroke-width:1.0416666666666667;" width="78.125" x="291.1458" y="609.9528"/><rect fill="#1B1B1A" height="31.3883" rx="8.3333" ry="8.3333" style="stroke:#1B1B1A;stroke-width:1.0416666666666667;" width="78.125" x="291.1458" y="609.9528"/><rect fill="#1B1B1A" height="8.3333" style="stroke:#1B1B1A;stroke-width:1.0416666666666667;" width="78.125" x="291.1458" y="633.0078"/><rect fill="none" height="48.055" id="Folder" rx="8.3333" ry="8.3333" style="stroke:#5E5E5E;stroke-width:1.0416666666666667;" width="78.125" x="291.1458" y="609.9528"/><ellipse cx="305.7292" cy="625.647" fill="#0066CF" rx="10.4167" ry="10.4167" style="stroke:#0086EF;stroke-width:1.0416666666666667;"/><path d="M307.6396,630.072 Q307.2123,630.2917 306.7424,630.4016 Q306.2724,630.5115 305.7536,630.5115 Q303.9103,630.5115 302.9399,629.2969 Q301.9694,628.0823 301.9694,625.7874 Q301.9694,623.4863 302.9399,622.2717 Q303.9103,621.0571 305.7536,621.0571 Q306.2724,621.0571 306.7485,621.167 Q307.2245,621.2769 307.6396,621.4966 L307.6396,623.4985 Q307.1757,623.0713 306.7393,622.8729 Q306.3029,622.6746 305.839,622.6746 Q304.8503,622.6746 304.3467,623.4589 Q303.8432,624.2432 303.8432,625.7874 Q303.8432,627.3254 304.3467,628.1097 Q304.8503,628.894 305.839,628.894 Q306.3029,628.894 306.7393,628.6957 Q307.1757,628.4973 307.6396,628.0701 Z " fill="#000000"/><text fill="#D8BC00" font-family="Open Sans,Avenir,Nunito,Arial,Helvetica,SansSerif" font-size="12.5" font-weight="bold" lengthAdjust="spacing" textLength="40.625" x="322.3958" y="630.3711">Folder</text><line style="stroke:#5E5E5E;stroke-width:1.0416666666666667;" x1="292.1875" x2="368.2292" y1="641.3411" y2="641.3411"/><line style="stroke:#5E5E5E;stroke-width:1.0416666666666667;" x1="292.1875" x2="368.2292" y1="649.6745" y2="649.6745"/><!--MD5=[977662dd38dde32f1c532325106d0b51]
reverse link BaseRepeater to OsmToPbfConverter--><path codeLine="8" d="M218.3646,103.6195 C188.125,117.0049 156.5938,136.7757 137.5,165.1611 C89.1979,236.9945 91.3438,341.734 98.4792,405.109 " fill="none" id="BaseRepeater-backto-OsmToPbfConverter" style="stroke:#545454;stroke-width:1.5625;"/><polygon fill="none" points="215.8646,96.7653,237.9063,95.7132,221.3333,110.2861,215.8646,96.7653" style="stroke:#545454;stroke-width:1.5625;"/><!--MD5=[4605f201512db6eb7a7e8cdcaebd2f1f]
reverse link BaseRepeater to OverpassDataDownloader--><path codeLine="17" d="M300,123.0674 C300,136.0361 300,150.5778 300,164.8174 " fill="none" id="BaseRepeater-backto-OverpassDataDownloader" style="stroke:#545454;stroke-width:1.5625;"/><polygon fill="none" points="292.7083,122.6299,300,101.7965,307.2917,122.6299,292.7083,122.6299" style="stroke:#545454;stroke-width:1.5625;"/><!--MD5=[746960e65895855b8676357ca0fdd7cb]
link OverpassDataDownloader to OsmToPbfConverter--><path codeLine="18" d="M174.2604,312.0674 C163.3646,321.6195 153.2813,332.0361 144.7917,343.2861 C132.4375,359.6611 124.0625,380.2549 118.4271,399.5674 " fill="none" id="OverpassDataDownloader-to-OsmToPbfConverter" style="stroke:#545454;stroke-width:1.5625;"/><polygon fill="#545454" points="116.9167,404.9736,123.4707,397.0808,118.3298,399.9607,115.45,394.8198,116.9167,404.9736" style="stroke:#545454;stroke-width:1.5625;"/><text fill="#A0A0A0" font-family="Open Sans,Avenir,Nunito,Arial,Helvetica,SansSerif" font-size="12.5" font-weight="bold" lengthAdjust="spacing" textLength="119.7917" x="148.9583" y="359.5378">converts data with</text><!--MD5=[d0497d39f440bd4d744037c74b8a6491]
link OverpassDataDownloader to OverpassOsmResource--><path codeLine="19" d="M333.2708,312.2236 C344.3438,331.3278 358,350.859 373.9583,366.2028 C390.8958,382.484 411.2292,396.7236 431.9688,408.859 " fill="none" id="OverpassDataDownloader-to-OverpassOsmResource" style="stroke:#545454;stroke-width:1.5625;"/><polygon fill="#545454" points="436.6771,411.5778,430.6427,403.2809,432.1669,408.9729,426.4749,410.4972,436.6771,411.5778" style="stroke:#545454;stroke-width:1.5625;"/><text fill="#A0A0A0" font-family="Open Sans,Avenir,Nunito,Arial,Helvetica,SansSerif" font-size="12.5" font-weight="bold" lengthAdjust="spacing" textLength="135.4167" x="378.125" y="359.5378">downloads data with</text><!--MD5=[3c26438dbc605289fb425a16747b2b0f]
reverse link OverpassDataDownloader to Folder--><path codeLine="20" d="M304.7813,325.8799 C308.1354,382.4215 313.0417,457.9215 318.75,524.5361 C321.2708,553.932 324.9792,587.734 327.4792,609.6507 " fill="none" id="OverpassDataDownloader-backto-Folder" style="stroke:#545454;stroke-width:1.5625;"/><polygon fill="#333333" points="303.9896,312.2965,300.2013,318.7829,304.7317,324.7745,308.5199,318.2882,303.9896,312.2965" style="stroke:#545454;stroke-width:1.5625;"/><text fill="#A0A0A0" font-family="Open Sans,Avenir,Nunito,Arial,Helvetica,SansSerif" font-size="12.5" font-weight="bold" lengthAdjust="spacing" textLength="91.6667" x="322.9167" y="465.7878">caches data in</text><!--MD5=[8b5670f62d6bf08b3d27df75fe066633]
reverse link BaseRepeater to OverpassOsmResource--><path codeLine="30" d="M381.4063,107.234 C410.3854,120.8695 441.1042,139.859 462.5,165.1611 C518.5104,231.4111 538.6667,332.3382 545.9271,397.2236 " fill="none" id="BaseRepeater-backto-OverpassOsmResource" style="stroke:#545454;stroke-width:1.5625;"/><polygon fill="none" points="378.3958,113.8695,362.2396,98.8278,384.25,100.5153,378.3958,113.8695" style="stroke:#545454;stroke-width:1.5625;"/><!--MD5=[4c56013a89f23f8a7862ec7ab51f3832]
link OverpassOsmResource to Folder--><path codeLine="31" d="M469.4063,524.682 C433.125,552.8799 392.2396,584.6507 364.2188,606.432 " fill="none" id="OverpassOsmResource-to-Folder" style="stroke:#545454;stroke-width:1.5625;"/><polygon fill="#545454" points="359.8333,609.8382,369.7996,607.4039,363.9549,606.654,364.7049,600.8094,359.8333,609.8382" style="stroke:#545454;stroke-width:1.5625;"/><text fill="#A0A0A0" font-family="Open Sans,Avenir,Nunito,Arial,Helvetica,SansSerif" font-size="12.5" font-weight="bold" lengthAdjust="spacing" textLength="91.6667" x="430.2083" y="572.0378">copies data to</text><!--MD5=[3b300c4d317e52759ed8d1ecea024987]
@startuml

    !include ../lexakai/lexakai.theme
    
    title "Overpass"
    
    abstract BaseRepeater
    
    BaseRepeater <|- - OsmToPbfConverter
    class OsmToPbfConverter
    {
        - -(constructors)- -
        +OsmToPbfConverter(Listener)
        - -
        +void convert(File in, File out)
    }
    
    BaseRepeater <|- - OverpassDataDownloader
    OverpassDataDownloader - -> OsmToPbfConverter : "converts data with"
    OverpassDataDownloader - -> OverpassOsmResource : "downloads data with"
    OverpassDataDownloader o- - Folder : "caches data in"
    class OverpassDataDownloader
    {
        - -(constructors)- -
        +OverpassDataDownloader(Folder)
        - -(filesystem)- -
        +File osm(String descriptor, Rectangle bounds)
        +File pbf(String baseName, Rectangle bounds)
    }
    
    BaseRepeater <|- - OverpassOsmResource
    OverpassOsmResource - -> Folder : "copies data to"
    class OverpassOsmResource
    {
        - -(constructors)- -
        +OverpassOsmResource(Rectangle)
        - -(filesystem)- -
        +void safeCopyTo(File destination)
    }
    
@enduml

@startuml









skinparam backgroundColor #333333






skinparam  {
    defaultFontName   "Open Sans,Avenir,Nunito,Arial,Helvetica,SansSerif"
    defaultFontSize   12
    defaultTextAlignment left
    shadowing false
    RoundCorner 10
    TitleFontSize 18
}

skinparam defaultFontName       "Open Sans,Avenir,Nunito,Arial,Helvetica,SansSerif"
skinparam defaultFontSize       12
skinparam dpi                   100
skinparam shadowing             false
skinparam roundcorner           16
skinparam ParticipantPadding    40
skinparam BoxPadding            40
skinparam Padding               3
skinparam ArrowColor            #545454
skinparam stereotype {
    CBackgroundColor #0066cf
    CBorderColor #0086ef
    ABackgroundColor #C8Ac00
    ABorderColor #D8Bc00
    IBackgroundColor #008400
    IBorderColor #239c23
    EBackgroundColor #cf6300
    EBorderColor #ef8300
    NBackgroundColor #3380b9
    NBorderColor #004d86
}
skinparam title {
	FontColor	                 #c0c0c0
 	BorderColor                  #545454
	FontSize	    	         20
	BorderRoundCorner            16
	BorderThickness 	         1
	BackgroundColor              #48494b
}


skinparam legend {
	BackgroundColor #303030
	BorderColor #404040
	FontColor #a0a0a0
}

	skinparam swimlane {
	BorderColor #5e5e5e
	BorderThickness 2
	TitleBackgroundColor  #6d6d6d-#484848
	TitleFontColor #303030
}

skinparam activity {
		FontColor #C8Ac00
	BorderColor #333333
	BackgroundColor #333333-#333333
	BarColor #00FF00
	StartColor #0060a8
	EndColor #0060a8
	DiamondBackgroundColor #6d6d6d-#3a3a3a
  	DiamondBorderColor #3a3a3a
  	DiamondFontColor #fefefe
}


skinparam participant {
		FontColor #C8Ac00
	BorderColor #333333
	BackgroundColor #333333-#333333
	ParticipantBorderThickness 2
}


skinparam actor {
		FontColor #C8Ac00
	BorderColor #333333
	BackgroundColor #333333-#333333
}


skinparam arrow {
	Thickness 1.5
	Color #545454
	FontColor #a0a0a0
    FontStyle bold
    MessageAlignment center
}



skinparam sequence {
	BorderColor #303030
	TitleFontColor #303030
	BackgroundColor #333333
	StartColor #303030
	EndColor #303030
	BoxBackgroundColor #333333
	BoxBorderColor #484848
	BoxFontColor #484848
	LifeLineBorderColor #484848
	LifeLineBorderThickness 2
	LifeLineBackgroundColor #3a3a3a
	GroupBorderColor #484848
	GroupFontColor #484848
	GroupHeaderFontColor #0060a8
	GroupBackgroundColor #484848
	GroupHeaderBackgroundColor #333333
	DividerBackgroundColor #484848
    DividerBorderColor #484848
    DividerBorderThickness 2
    DividerFontColor #D8Bc00
	ReferenceBackgroundColor #333333
	ReferenceBorderColor #484848
	ReferenceFontColor #fefefe
	ReferenceHeaderBackgroundColor #484848
}


skinparam partition {
	BorderColor #303030
	FontColor #333333
	BackgroundColor #333333
}


skinparam collections {
		FontColor #C8Ac00
	BorderColor #333333
	BackgroundColor #333333-#333333
}


skinparam control {
		FontColor #C8Ac00
	BorderColor #333333
	BackgroundColor #333333-#333333
}


skinparam entity {
		FontColor #C8Ac00
	BorderColor #333333
	BackgroundColor #333333-#333333
}


skinparam boundary {
		FontColor #C8Ac00
	BorderColor #333333
	BackgroundColor #333333-#333333
}


skinparam agent {
	BackgroundColor #ff8000
	BorderColor #ff9933
	FontColor #484848
}


skinparam note {
	BorderThickness 1
	BackgroundColor #1b1b1a
	BorderColor #5e5e5e
	FontSize 11
	FontColor #a0a0a0
}


skinparam artifact {
	BorderThickness 10
	BorderColor #5e5e5e
	BackgroundColor #1b1b1a
	FontColor #D8Bc00
}


skinparam component {
		FontColor #C8Ac00
	BorderColor #333333
	BackgroundColor #333333-#333333
}


skinparam interface {
	BackgroundColor  #008400
	BorderColor  #007F00
	FontColor #484848
}


skinparam storage {
	BackgroundColor #ff8000
  	BorderColor #cc6600
	FontColor #222222
}


skinparam node {
	BackgroundColor #333333
	BorderColor #333333
	FontColor #C8Ac00
}


skinparam cloud {
	BackgroundColor #484848-black
	BorderColor #484848
	FontColor #D8Bc00
}


skinparam database {
		FontColor #C8Ac00
	BorderColor #333333
	BackgroundColor #333333-#333333
	BackgroundColor  #333333
}


skinparam class {
		FontColor #C8Ac00
	BorderColor #333333
	BackgroundColor #333333-#333333
	HeaderBackgroundColor #1b1b1a
    BackgroundColor #282828
    BorderColor #5e5e5e
 	StereotypeFontColor #a0a0a0
    StereotypeFontStyle bold
	BorderThickness 1
	AttributeFontColor #D8Bc00
	AttributeFontSize 11
    FontColor #D8Bc00
    FontStyle bold
}


skinparam object {
		FontColor #C8Ac00
	BorderColor #333333
	BackgroundColor #333333-#333333
	StereotypeFontColor #484848
	BorderThickness 1
	AttributeFontColor #fefefe
	AttributeFontSize 11
}


skinparam usecase {
		FontColor #C8Ac00
	BorderColor #333333
	BackgroundColor #333333-#333333
	BorderThickness 2
	StereotypeFontColor #303030
}


skinparam rectangle {
		FontColor #C8Ac00
	BorderColor #333333
	BackgroundColor #333333-#333333
	BackgroundColor #333333
	BorderThickness 2
	StereotypeFontColor #303030
}


skinparam package {
		FontColor #C8Ac00
	BorderColor #333333
	BackgroundColor #333333-#333333
	BackgroundColor #333333
	BorderThickness 2
}


skinparam folder {
	BackgroundColor #6d6d6d
  	BorderColor #ff8000
	FontColor #ff8000
	BorderThickness 2
}


skinparam frame {
	BackgroundColor #6d6d6d
  	BorderColor #0060a8
	FontColor #0060a8
	BorderThickness 2
}


skinparam state {
		FontColor #C8Ac00
	BorderColor #333333
	BackgroundColor #333333-#333333
	StartColor #0060a8
	EndColor #0060a8
	AttributeFontColor #fefefe
	AttributeFontSize 11
}


skinparam queue {
		FontColor #C8Ac00
	BorderColor #333333
	BackgroundColor #333333-#333333
}


skinparam card {
	BackgroundColor #0060a8
	BorderColor #004d86
	FontColor $INFO_TEXT
}


skinparam file {
	BackgroundColor #6d6d6d-#484848
	BorderColor #0060a8
	FontColor #fefefe
}


skinparam stack {
		FontColor #C8Ac00
	BorderColor #333333
	BackgroundColor #333333-#333333
}

    
    title "Overpass"
    
    abstract BaseRepeater
    
    BaseRepeater <|- - OsmToPbfConverter
    class OsmToPbfConverter
    {
        - -(constructors)- -
        +OsmToPbfConverter(Listener)
        - -
        +void convert(File in, File out)
    }
    
    BaseRepeater <|- - OverpassDataDownloader
    OverpassDataDownloader - -> OsmToPbfConverter : "converts data with"
    OverpassDataDownloader - -> OverpassOsmResource : "downloads data with"
    OverpassDataDownloader o- - Folder : "caches data in"
    class OverpassDataDownloader
    {
        - -(constructors)- -
        +OverpassDataDownloader(Folder)
        - -(filesystem)- -
        +File osm(String descriptor, Rectangle bounds)
        +File pbf(String baseName, Rectangle bounds)
    }
    
    BaseRepeater <|- - OverpassOsmResource
    OverpassOsmResource - -> Folder : "copies data to"
    class OverpassOsmResource
    {
        - -(constructors)- -
        +OverpassOsmResource(Rectangle)
        - -(filesystem)- -
        +void safeCopyTo(File destination)
    }
    
@enduml

PlantUML version 1.2021.01(Tue Feb 02 00:55:08 MST 2021)
(GPL source distribution)
Java Runtime: Java(TM) SE Runtime Environment
JVM: Java HotSpot(TM) 64-Bit Server VM
Default Encoding: UTF-8
Language: en
Country: US
--></g></svg>