<?xml version="1.0" encoding="UTF-8" standalone="no"?><svg xmlns="http://www.w3.org/2000/svg" xmlns:xlink="http://www.w3.org/1999/xlink" contentScriptType="application/ecmascript" contentStyleType="text/css" height="297.9167px" preserveAspectRatio="none" style="width:469px;height:297px;background:#333333;" version="1.1" viewBox="0 0 469 297" width="469.7917px" zoomAndPan="magnify"><defs/><g><rect fill="#48494B" height="41.2028" rx="8.3333" ry="8.3333" style="stroke:#545454;stroke-width:1.0416666666666667;" width="457.2917" x="2.0833" y="2.0833"/><text fill="#C0C0C0" font-family="Open Sans,Avenir,Nunito,Arial,Helvetica,SansSerif" font-size="20.8333" lengthAdjust="spacing" textLength="434.375" x="13.5417" y="30.5583">com.telenav.aonia.map.utilities.grid.project</text><!--MD5=[d776228a55af1f9e7dd99d395538019c]
class KryoTypes--><rect fill="#282828" height="48.055" id="KryoTypes" rx="8.3333" ry="8.3333" style="stroke:#5E5E5E;stroke-width:1.0416666666666667;" width="106.25" x="72.3958" y="53.7028"/><rect fill="#1B1B1A" height="31.3883" rx="8.3333" ry="8.3333" style="stroke:#1B1B1A;stroke-width:1.0416666666666667;" width="106.25" x="72.3958" y="53.7028"/><rect fill="#1B1B1A" height="8.3333" style="stroke:#1B1B1A;stroke-width:1.0416666666666667;" width="106.25" x="72.3958" y="76.7578"/><rect fill="none" height="48.055" id="KryoTypes" rx="8.3333" ry="8.3333" style="stroke:#5E5E5E;stroke-width:1.0416666666666667;" width="106.25" x="72.3958" y="53.7028"/><ellipse cx="86.9792" cy="69.397" fill="#0066CF" rx="10.4167" ry="10.4167" style="stroke:#0086EF;stroke-width:1.0416666666666667;"/><path d="M88.8896,73.822 Q88.4623,74.0417 87.9924,74.1516 Q87.5224,74.2615 87.0036,74.2615 Q85.1603,74.2615 84.1899,73.0469 Q83.2194,71.8323 83.2194,69.5374 Q83.2194,67.2363 84.1899,66.0217 Q85.1603,64.8071 87.0036,64.8071 Q87.5224,64.8071 87.9985,64.917 Q88.4745,65.0269 88.8896,65.2466 L88.8896,67.2485 Q88.4257,66.8213 87.9893,66.6229 Q87.5529,66.4246 87.089,66.4246 Q86.1003,66.4246 85.5967,67.2089 Q85.0932,67.9932 85.0932,69.5374 Q85.0932,71.0754 85.5967,71.8597 Q86.1003,72.644 87.089,72.644 Q87.5529,72.644 87.9893,72.4457 Q88.4257,72.2473 88.8896,71.8201 Z " fill="#000000"/><text fill="#D8BC00" font-family="Open Sans,Avenir,Nunito,Arial,Helvetica,SansSerif" font-size="12.5" font-weight="bold" lengthAdjust="spacing" textLength="68.75" x="103.6458" y="74.1211">KryoTypes</text><line style="stroke:#5E5E5E;stroke-width:1.0416666666666667;" x1="73.4375" x2="177.6042" y1="85.0911" y2="85.0911"/><line style="stroke:#5E5E5E;stroke-width:1.0416666666666667;" x1="73.4375" x2="177.6042" y1="93.4245" y2="93.4245"/><!--MD5=[3ba951ce43a8a752185061e1b12cf4aa]
class MapUtilitiesGridKryoTypes--><rect codeLine="7" fill="#282828" height="83.3781" id="MapUtilitiesGridKryoTypes" rx="8.3333" ry="8.3333" style="stroke:#5E5E5E;stroke-width:1.0416666666666667;" width="211.4583" x="19.7917" y="185.9945"/><rect fill="#1B1B1A" height="31.3883" rx="8.3333" ry="8.3333" style="stroke:#1B1B1A;stroke-width:1.0416666666666667;" width="211.4583" x="19.7917" y="185.9945"/><rect fill="#1B1B1A" height="8.3333" style="stroke:#1B1B1A;stroke-width:1.0416666666666667;" width="211.4583" x="19.7917" y="209.0495"/><rect codeLine="7" fill="none" height="83.3781" id="MapUtilitiesGridKryoTypes" rx="8.3333" ry="8.3333" style="stroke:#5E5E5E;stroke-width:1.0416666666666667;" width="211.4583" x="19.7917" y="185.9945"/><ellipse cx="34.375" cy="201.6886" fill="#0066CF" rx="10.4167" ry="10.4167" style="stroke:#0086EF;stroke-width:1.0416666666666667;"/><path d="M36.2854,206.1137 Q35.8582,206.3334 35.3882,206.4433 Q34.9182,206.5531 34.3994,206.5531 Q32.5562,206.5531 31.5857,205.3385 Q30.6152,204.1239 30.6152,201.829 Q30.6152,199.528 31.5857,198.3134 Q32.5562,197.0988 34.3994,197.0988 Q34.9182,197.0988 35.3943,197.2087 Q35.8704,197.3185 36.2854,197.5382 L36.2854,199.5402 Q35.8215,199.113 35.3851,198.9146 Q34.9487,198.7162 34.4849,198.7162 Q33.4961,198.7162 32.9926,199.5005 Q32.489,200.2848 32.489,201.829 Q32.489,203.3671 32.9926,204.1514 Q33.4961,204.9357 34.4849,204.9357 Q34.9487,204.9357 35.3851,204.7373 Q35.8215,204.539 36.2854,204.1117 Z " fill="#000000"/><text fill="#D8BC00" font-family="Open Sans,Avenir,Nunito,Arial,Helvetica,SansSerif" font-size="12.5" font-weight="bold" lengthAdjust="spacing" textLength="173.9583" x="51.0417" y="206.4128">MapUtilitiesGridKryoTypes</text><line style="stroke:#5E5E5E;stroke-width:1.5625;" x1="20.8333" x2="230.2083" y1="217.3828" y2="217.3828"/><ellipse cx="31.25" cy="252.7527" fill="#84BE84" rx="3.125" ry="3.125" style="stroke:#038048;stroke-width:1.0416666666666667;"/><text fill="#D8BC00" font-family="Open Sans,Avenir,Nunito,Arial,Helvetica,SansSerif" font-size="11.4583" lengthAdjust="spacing" textLength="156.25" x="42.7083" y="259.6639">MapUtilitiesGridKryoTypes()</text><line style="stroke:#5E5E5E;stroke-width:1.0416666666666667;" x1="20.8333" x2="81.7708" y1="235.5886" y2="235.5886"/><text fill="#D8BC00" font-family="Open Sans,Avenir,Nunito,Arial,Helvetica,SansSerif" font-size="11.4583" lengthAdjust="spacing" textLength="81.25" x="84.8958" y="239.3982">(constructors)</text><line style="stroke:#5E5E5E;stroke-width:1.0416666666666667;" x1="169.2708" x2="230.2083" y1="235.5886" y2="235.5886"/><!--MD5=[79d378210367c0c6ec62ef762ddfbd1b]
class Project--><rect fill="#282828" height="48.055" id="Project" rx="8.3333" ry="8.3333" style="stroke:#5E5E5E;stroke-width:1.0416666666666667;" width="81.25" x="321.3542" y="53.7028"/><rect fill="#1B1B1A" height="31.3883" rx="8.3333" ry="8.3333" style="stroke:#1B1B1A;stroke-width:1.0416666666666667;" width="81.25" x="321.3542" y="53.7028"/><rect fill="#1B1B1A" height="8.3333" style="stroke:#1B1B1A;stroke-width:1.0416666666666667;" width="81.25" x="321.3542" y="76.7578"/><rect fill="none" height="48.055" id="Project" rx="8.3333" ry="8.3333" style="stroke:#5E5E5E;stroke-width:1.0416666666666667;" width="81.25" x="321.3542" y="53.7028"/><ellipse cx="335.9375" cy="69.397" fill="#0066CF" rx="10.4167" ry="10.4167" style="stroke:#0086EF;stroke-width:1.0416666666666667;"/><path d="M337.8479,73.822 Q337.4207,74.0417 336.9507,74.1516 Q336.4807,74.2615 335.9619,74.2615 Q334.1187,74.2615 333.1482,73.0469 Q332.1777,71.8323 332.1777,69.5374 Q332.1777,67.2363 333.1482,66.0217 Q334.1187,64.8071 335.9619,64.8071 Q336.4807,64.8071 336.9568,64.917 Q337.4329,65.0269 337.8479,65.2466 L337.8479,67.2485 Q337.384,66.8213 336.9476,66.6229 Q336.5112,66.4246 336.0474,66.4246 Q335.0586,66.4246 334.5551,67.2089 Q334.0515,67.9932 334.0515,69.5374 Q334.0515,71.0754 334.5551,71.8597 Q335.0586,72.644 336.0474,72.644 Q336.5112,72.644 336.9476,72.4457 Q337.384,72.2473 337.8479,71.8201 Z " fill="#000000"/><text fill="#D8BC00" font-family="Open Sans,Avenir,Nunito,Arial,Helvetica,SansSerif" font-size="12.5" font-weight="bold" lengthAdjust="spacing" textLength="43.75" x="352.6042" y="74.1211">Project</text><line style="stroke:#5E5E5E;stroke-width:1.0416666666666667;" x1="322.3958" x2="401.5625" y1="85.0911" y2="85.0911"/><line style="stroke:#5E5E5E;stroke-width:1.0416666666666667;" x1="322.3958" x2="401.5625" y1="93.4245" y2="93.4245"/><!--MD5=[3d1bf1f185028ae332786f47772e4726]
class MapUtilitiesGridProject--><rect codeLine="14" fill="#282828" height="127.0345" id="MapUtilitiesGridProject" rx="8.3333" ry="8.3333" style="stroke:#5E5E5E;stroke-width:1.0416666666666667;" width="188.5417" x="267.7083" y="164.1195"/><rect fill="#1B1B1A" height="31.3883" rx="8.3333" ry="8.3333" style="stroke:#1B1B1A;stroke-width:1.0416666666666667;" width="188.5417" x="267.7083" y="164.1195"/><rect fill="#1B1B1A" height="8.3333" style="stroke:#1B1B1A;stroke-width:1.0416666666666667;" width="188.5417" x="267.7083" y="187.1745"/><rect codeLine="14" fill="none" height="127.0345" id="MapUtilitiesGridProject" rx="8.3333" ry="8.3333" style="stroke:#5E5E5E;stroke-width:1.0416666666666667;" width="188.5417" x="267.7083" y="164.1195"/><ellipse cx="283.2292" cy="179.8136" fill="#0066CF" rx="10.4167" ry="10.4167" style="stroke:#0086EF;stroke-width:1.0416666666666667;"/><path d="M285.1396,184.2387 Q284.7123,184.4584 284.2424,184.5683 Q283.7724,184.6781 283.2536,184.6781 Q281.4103,184.6781 280.4399,183.4635 Q279.4694,182.2489 279.4694,179.954 Q279.4694,177.653 280.4399,176.4384 Q281.4103,175.2238 283.2536,175.2238 Q283.7724,175.2238 284.2485,175.3337 Q284.7245,175.4435 285.1396,175.6632 L285.1396,177.6652 Q284.6757,177.238 284.2393,177.0396 Q283.8029,176.8412 283.339,176.8412 Q282.3503,176.8412 281.8467,177.6255 Q281.3432,178.4098 281.3432,179.954 Q281.3432,181.4921 281.8467,182.2764 Q282.3503,183.0607 283.339,183.0607 Q283.8029,183.0607 284.2393,182.8623 Q284.6757,182.664 285.1396,182.2367 Z " fill="#000000"/><text fill="#D8BC00" font-family="Open Sans,Avenir,Nunito,Arial,Helvetica,SansSerif" font-size="12.5" font-weight="bold" lengthAdjust="spacing" textLength="148.9583" x="300.1042" y="184.5378">MapUtilitiesGridProject</text><line style="stroke:#5E5E5E;stroke-width:1.5625;" x1="268.75" x2="455.2083" y1="195.5078" y2="195.5078"/><polygon fill="#FFFF44" points="279.1667,225.6694,283.3333,229.836,279.1667,234.0027,275,229.836" style="stroke:#B38D22;stroke-width:1.0416666666666667;"/><text fill="#D8BC00" font-family="Open Sans,Avenir,Nunito,Arial,Helvetica,SansSerif" font-size="11.4583" lengthAdjust="spacing" textLength="135.4167" x="290.625" y="237.7889">MapUtilitiesGridProject()</text><line style="stroke:#5E5E5E;stroke-width:1.0416666666666667;" x1="268.75" x2="318.2292" y1="213.7136" y2="213.7136"/><text fill="#D8BC00" font-family="Open Sans,Avenir,Nunito,Arial,Helvetica,SansSerif" font-size="11.4583" lengthAdjust="spacing" textLength="81.25" x="321.3542" y="217.5232">(constructors)</text><line style="stroke:#5E5E5E;stroke-width:1.0416666666666667;" x1="405.7292" x2="455.2083" y1="213.7136" y2="213.7136"/><ellipse cx="279.1667" cy="274.5341" fill="#84BE84" rx="3.125" ry="3.125" style="stroke:#038048;stroke-width:1.0416666666666667;"/><text fill="#D8BC00" font-family="Open Sans,Avenir,Nunito,Arial,Helvetica,SansSerif" font-size="11.4583" lengthAdjust="spacing" textLength="156.25" x="290.625" y="281.4453">MapUtilitiesGridProject get()</text><line style="stroke:#5E5E5E;stroke-width:1.0416666666666667;" x1="268.75" x2="327.6042" y1="257.37" y2="257.37"/><text fill="#D8BC00" font-family="Open Sans,Avenir,Nunito,Arial,Helvetica,SansSerif" font-size="11.4583" lengthAdjust="spacing" textLength="62.5" x="330.7292" y="261.1796">(collection)</text><line style="stroke:#5E5E5E;stroke-width:1.0416666666666667;" x1="396.3542" x2="455.2083" y1="257.37" y2="257.37"/><!--MD5=[8380aaf2486ba465ee4bccfadcd43b58]
reverse link KryoTypes to MapUtilitiesGridKryoTypes--><path codeLine="6" d="M125.5208,122.8486 C125.5208,142.807 125.5208,166.2549 125.5208,185.807 " fill="none" id="KryoTypes-backto-MapUtilitiesGridKryoTypes" style="stroke:#545454;stroke-width:1.5625;"/><polygon fill="none" points="118.2292,122.6507,125.5208,101.8174,132.8125,122.6507,118.2292,122.6507" style="stroke:#545454;stroke-width:1.5625;"/><!--MD5=[d7373b23ee37356a3a7ce0309263c7f2]
reverse link Project to MapUtilitiesGridProject--><path codeLine="13" d="M361.9792,123.057 C361.9792,135.9632 361.9792,150.307 361.9792,164.109 " fill="none" id="Project-backto-MapUtilitiesGridProject" style="stroke:#545454;stroke-width:1.5625;"/><polygon fill="none" points="354.6875,122.6507,361.9792,101.8174,369.2708,122.6507,354.6875,122.6507" style="stroke:#545454;stroke-width:1.5625;"/><!--MD5=[c88d9c3fdaae12b8f1aa7a5d9e383b7d]
@startuml

    !include ../lexakai/lexakai.theme
    
    title "com.telenav.aonia.map.utilities.grid.project"
    
    KryoTypes <|- - MapUtilitiesGridKryoTypes
    class MapUtilitiesGridKryoTypes
    {
        - -(constructors)- -
        +MapUtilitiesGridKryoTypes()
    }
    
    Project <|- - MapUtilitiesGridProject
    class MapUtilitiesGridProject
    {
        - -(constructors)- -
        #MapUtilitiesGridProject()
        - -(collection)- -
        +MapUtilitiesGridProject get()
    }
    
@enduml

@startuml









skinparam backgroundColor #333333






skinparam  {
    defaultFontName   "Open Sans,Avenir,Nunito,Arial,Helvetica,SansSerif"
    defaultFontSize   12
    defaultTextAlignment left
    shadowing false
    RoundCorner 10
    TitleFontSize 18
}

skinparam defaultFontName       "Open Sans,Avenir,Nunito,Arial,Helvetica,SansSerif"
skinparam defaultFontSize       12
skinparam dpi                   100
skinparam shadowing             false
skinparam roundcorner           16
skinparam ParticipantPadding    40
skinparam BoxPadding            40
skinparam Padding               3
skinparam ArrowColor            #545454
skinparam stereotype {
    CBackgroundColor #0066cf
    CBorderColor #0086ef
    ABackgroundColor #C8Ac00
    ABorderColor #D8Bc00
    IBackgroundColor #008400
    IBorderColor #239c23
    EBackgroundColor #cf6300
    EBorderColor #ef8300
    NBackgroundColor #3380b9
    NBorderColor #004d86
}
skinparam title {
	FontColor	                 #c0c0c0
 	BorderColor                  #545454
	FontSize	    	         20
	BorderRoundCorner            16
	BorderThickness 	         1
	BackgroundColor              #48494b
}


skinparam legend {
	BackgroundColor #303030
	BorderColor #404040
	FontColor #a0a0a0
}

	skinparam swimlane {
	BorderColor #5e5e5e
	BorderThickness 2
	TitleBackgroundColor  #6d6d6d-#484848
	TitleFontColor #303030
}

skinparam activity {
		FontColor #C8Ac00
	BorderColor #333333
	BackgroundColor #333333-#333333
	BarColor #00FF00
	StartColor #0060a8
	EndColor #0060a8
	DiamondBackgroundColor #6d6d6d-#3a3a3a
  	DiamondBorderColor #3a3a3a
  	DiamondFontColor #fefefe
}


skinparam participant {
		FontColor #C8Ac00
	BorderColor #333333
	BackgroundColor #333333-#333333
	ParticipantBorderThickness 2
}


skinparam actor {
		FontColor #C8Ac00
	BorderColor #333333
	BackgroundColor #333333-#333333
}


skinparam arrow {
	Thickness 1.5
	Color #545454
	FontColor #a0a0a0
    FontStyle bold
    MessageAlignment center
}



skinparam sequence {
	BorderColor #303030
	TitleFontColor #303030
	BackgroundColor #333333
	StartColor #303030
	EndColor #303030
	BoxBackgroundColor #333333
	BoxBorderColor #484848
	BoxFontColor #484848
	LifeLineBorderColor #484848
	LifeLineBorderThickness 2
	LifeLineBackgroundColor #3a3a3a
	GroupBorderColor #484848
	GroupFontColor #484848
	GroupHeaderFontColor #0060a8
	GroupBackgroundColor #484848
	GroupHeaderBackgroundColor #333333
	DividerBackgroundColor #484848
    DividerBorderColor #484848
    DividerBorderThickness 2
    DividerFontColor #D8Bc00
	ReferenceBackgroundColor #333333
	ReferenceBorderColor #484848
	ReferenceFontColor #fefefe
	ReferenceHeaderBackgroundColor #484848
}


skinparam partition {
	BorderColor #303030
	FontColor #333333
	BackgroundColor #333333
}


skinparam collections {
		FontColor #C8Ac00
	BorderColor #333333
	BackgroundColor #333333-#333333
}


skinparam control {
		FontColor #C8Ac00
	BorderColor #333333
	BackgroundColor #333333-#333333
}


skinparam entity {
		FontColor #C8Ac00
	BorderColor #333333
	BackgroundColor #333333-#333333
}


skinparam boundary {
		FontColor #C8Ac00
	BorderColor #333333
	BackgroundColor #333333-#333333
}


skinparam agent {
	BackgroundColor #ff8000
	BorderColor #ff9933
	FontColor #484848
}


skinparam note {
	BorderThickness 1
	BackgroundColor #1b1b1a
	BorderColor #5e5e5e
	FontSize 11
	FontColor #a0a0a0
}


skinparam artifact {
	BorderThickness 10
	BorderColor #5e5e5e
	BackgroundColor #1b1b1a
	FontColor #D8Bc00
}


skinparam component {
		FontColor #C8Ac00
	BorderColor #333333
	BackgroundColor #333333-#333333
}


skinparam interface {
	BackgroundColor  #008400
	BorderColor  #007F00
	FontColor #484848
}


skinparam storage {
	BackgroundColor #ff8000
  	BorderColor #cc6600
	FontColor #222222
}


skinparam node {
	BackgroundColor #333333
	BorderColor #333333
	FontColor #C8Ac00
}


skinparam cloud {
	BackgroundColor #484848-black
	BorderColor #484848
	FontColor #D8Bc00
}


skinparam database {
		FontColor #C8Ac00
	BorderColor #333333
	BackgroundColor #333333-#333333
	BackgroundColor  #333333
}


skinparam class {
		FontColor #C8Ac00
	BorderColor #333333
	BackgroundColor #333333-#333333
	HeaderBackgroundColor #1b1b1a
    BackgroundColor #282828
    BorderColor #5e5e5e
 	StereotypeFontColor #a0a0a0
    StereotypeFontStyle bold
	BorderThickness 1
	AttributeFontColor #D8Bc00
	AttributeFontSize 11
    FontColor #D8Bc00
    FontStyle bold
}


skinparam object {
		FontColor #C8Ac00
	BorderColor #333333
	BackgroundColor #333333-#333333
	StereotypeFontColor #484848
	BorderThickness 1
	AttributeFontColor #fefefe
	AttributeFontSize 11
}


skinparam usecase {
		FontColor #C8Ac00
	BorderColor #333333
	BackgroundColor #333333-#333333
	BorderThickness 2
	StereotypeFontColor #303030
}


skinparam rectangle {
		FontColor #C8Ac00
	BorderColor #333333
	BackgroundColor #333333-#333333
	BackgroundColor #333333
	BorderThickness 2
	StereotypeFontColor #303030
}


skinparam package {
		FontColor #C8Ac00
	BorderColor #333333
	BackgroundColor #333333-#333333
	BackgroundColor #333333
	BorderThickness 2
}


skinparam folder {
	BackgroundColor #6d6d6d
  	BorderColor #ff8000
	FontColor #ff8000
	BorderThickness 2
}


skinparam frame {
	BackgroundColor #6d6d6d
  	BorderColor #0060a8
	FontColor #0060a8
	BorderThickness 2
}


skinparam state {
		FontColor #C8Ac00
	BorderColor #333333
	BackgroundColor #333333-#333333
	StartColor #0060a8
	EndColor #0060a8
	AttributeFontColor #fefefe
	AttributeFontSize 11
}


skinparam queue {
		FontColor #C8Ac00
	BorderColor #333333
	BackgroundColor #333333-#333333
}


skinparam card {
	BackgroundColor #0060a8
	BorderColor #004d86
	FontColor $INFO_TEXT
}


skinparam file {
	BackgroundColor #6d6d6d-#484848
	BorderColor #0060a8
	FontColor #fefefe
}


skinparam stack {
		FontColor #C8Ac00
	BorderColor #333333
	BackgroundColor #333333-#333333
}

    
    title "com.telenav.aonia.map.utilities.grid.project"
    
    KryoTypes <|- - MapUtilitiesGridKryoTypes
    class MapUtilitiesGridKryoTypes
    {
        - -(constructors)- -
        +MapUtilitiesGridKryoTypes()
    }
    
    Project <|- - MapUtilitiesGridProject
    class MapUtilitiesGridProject
    {
        - -(constructors)- -
        #MapUtilitiesGridProject()
        - -(collection)- -
        +MapUtilitiesGridProject get()
    }
    
@enduml

PlantUML version 1.2021.01(Tue Feb 02 00:55:08 MST 2021)
(GPL source distribution)
Java Runtime: Java(TM) SE Runtime Environment
JVM: Java HotSpot(TM) 64-Bit Server VM
Default Encoding: UTF-8
Language: en
Country: US
--></g></svg>