<?xml version="1.0" encoding="UTF-8" standalone="no"?><svg xmlns="http://www.w3.org/2000/svg" xmlns:xlink="http://www.w3.org/1999/xlink" contentScriptType="application/ecmascript" contentStyleType="text/css" height="747.9167px" preserveAspectRatio="none" style="width:1945px;height:747px;background:#333333;" version="1.1" viewBox="0 0 1945 747" width="1945.8333px" zoomAndPan="magnify"><defs/><g><rect fill="#48494B" height="41.2028" rx="8.3333" ry="8.3333" style="stroke:#545454;stroke-width:1.0416666666666667;" width="311.4583" x="809.8958" y="2.0833"/><text fill="#C0C0C0" font-family="Open Sans,Avenir,Nunito,Arial,Helvetica,SansSerif" font-size="20.8333" lengthAdjust="spacing" textLength="288.5417" x="821.3542" y="30.5583">aonia-map-utilities-geojson</text><!--MD5=[4f079977920bf52107586fb847a1e92c]
entity kryo--><rect fill="#1B1B1A" height="44.93" rx="8.3333" ry="8.3333" style="stroke:#5E5E5E;stroke-width:1.5625;" width="63.5417" x="230.7292" y="482.8695"/><polygon fill="#1B1B1A" points="276.5625,488.0778,276.5625,502.6611,289.0625,502.6611,289.0625,494.3278,282.8125,488.0778,276.5625,488.0778" style="stroke:#5E5E5E;stroke-width:1.5625;"/><line style="stroke:#5E5E5E;stroke-width:1.5625;" x1="282.8125" x2="282.8125" y1="488.0778" y2="494.3278"/><line style="stroke:#5E5E5E;stroke-width:1.5625;" x1="289.0625" x2="282.8125" y1="494.3278" y2="494.3278"/><text fill="#D8BC00" font-family="Open Sans,Avenir,Nunito,Arial,Helvetica,SansSerif" font-size="12.5" lengthAdjust="spacing" textLength="26.0417" x="244.2708" y="511.6211">kryo</text><!--MD5=[745ab22dbfa32e29a2660b9e5bc2262a]
entity minlog--><rect fill="#1B1B1A" height="44.93" rx="8.3333" ry="8.3333" style="stroke:#5E5E5E;stroke-width:1.5625;" width="77.0833" x="98.9583" y="590.1611"/><polygon fill="#1B1B1A" points="158.3333,595.3695,158.3333,609.9528,170.8333,609.9528,170.8333,601.6195,164.5833,595.3695,158.3333,595.3695" style="stroke:#5E5E5E;stroke-width:1.5625;"/><line style="stroke:#5E5E5E;stroke-width:1.5625;" x1="164.5833" x2="164.5833" y1="595.3695" y2="601.6195"/><line style="stroke:#5E5E5E;stroke-width:1.5625;" x1="170.8333" x2="164.5833" y1="601.6195" y2="601.6195"/><text fill="#D8BC00" font-family="Open Sans,Avenir,Nunito,Arial,Helvetica,SansSerif" font-size="12.5" lengthAdjust="spacing" textLength="39.5833" x="112.5" y="618.9128">minlog</text><!--MD5=[5d0bc62e6e2e5a8467f655d5e580826c]
entity reflectasm--><rect fill="#1B1B1A" height="44.93" rx="8.3333" ry="8.3333" style="stroke:#5E5E5E;stroke-width:1.5625;" width="100" x="212.5" y="590.1611"/><polygon fill="#1B1B1A" points="294.7917,595.3695,294.7917,609.9528,307.2917,609.9528,307.2917,601.6195,301.0417,595.3695,294.7917,595.3695" style="stroke:#5E5E5E;stroke-width:1.5625;"/><line style="stroke:#5E5E5E;stroke-width:1.5625;" x1="301.0417" x2="301.0417" y1="595.3695" y2="601.6195"/><line style="stroke:#5E5E5E;stroke-width:1.5625;" x1="307.2917" x2="301.0417" y1="601.6195" y2="601.6195"/><text fill="#D8BC00" font-family="Open Sans,Avenir,Nunito,Arial,Helvetica,SansSerif" font-size="12.5" lengthAdjust="spacing" textLength="62.5" x="226.0417" y="618.9128">reflectasm</text><!--MD5=[07375bd6ced801b2ef86c9d3f68eec61]
entity jackson_annotations--><rect fill="#1B1B1A" height="44.93" rx="8.3333" ry="8.3333" style="stroke:#5E5E5E;stroke-width:1.5625;" width="158.3333" x="927.0833" y="375.5778"/><polygon fill="#1B1B1A" points="1067.7083,380.7861,1067.7083,395.3695,1080.2083,395.3695,1080.2083,387.0361,1073.9583,380.7861,1067.7083,380.7861" style="stroke:#5E5E5E;stroke-width:1.5625;"/><line style="stroke:#5E5E5E;stroke-width:1.5625;" x1="1073.9583" x2="1073.9583" y1="380.7861" y2="387.0361"/><line style="stroke:#5E5E5E;stroke-width:1.5625;" x1="1080.2083" x2="1073.9583" y1="387.0361" y2="387.0361"/><text fill="#D8BC00" font-family="Open Sans,Avenir,Nunito,Arial,Helvetica,SansSerif" font-size="12.5" lengthAdjust="spacing" textLength="120.8333" x="940.625" y="404.3294">jackson_annotations</text><!--MD5=[53e810a96c27d4bd25e6a3839aaba16b]
entity gson--><rect fill="#1B1B1A" height="44.93" rx="8.3333" ry="8.3333" style="stroke:#5E5E5E;stroke-width:1.5625;" width="65.625" x="1320.3125" y="268.2861"/><polygon fill="#1B1B1A" points="1368.2292,273.4945,1368.2292,288.0778,1380.7292,288.0778,1380.7292,279.7445,1374.4792,273.4945,1368.2292,273.4945" style="stroke:#5E5E5E;stroke-width:1.5625;"/><line style="stroke:#5E5E5E;stroke-width:1.5625;" x1="1374.4792" x2="1374.4792" y1="273.4945" y2="279.7445"/><line style="stroke:#5E5E5E;stroke-width:1.5625;" x1="1380.7292" x2="1374.4792" y1="279.7445" y2="279.7445"/><text fill="#D8BC00" font-family="Open Sans,Avenir,Nunito,Arial,Helvetica,SansSerif" font-size="12.5" lengthAdjust="spacing" textLength="28.125" x="1333.8542" y="297.0378">gson</text><!--MD5=[1c571ab562e5f3af129ea89ad857f3a1]
entity aonia_map_geography--><rect fill="#1B1B1A" height="44.93" rx="8.3333" ry="8.3333" style="stroke:#5E5E5E;stroke-width:1.5625;" width="172.9167" x="464.5833" y="160.9945"/><polygon fill="#1B1B1A" points="619.7917,166.2028,619.7917,180.7861,632.2917,180.7861,632.2917,172.4528,626.0417,166.2028,619.7917,166.2028" style="stroke:#5E5E5E;stroke-width:1.5625;"/><line style="stroke:#5E5E5E;stroke-width:1.5625;" x1="626.0417" x2="626.0417" y1="166.2028" y2="172.4528"/><line style="stroke:#5E5E5E;stroke-width:1.5625;" x1="632.2917" x2="626.0417" y1="172.4528" y2="172.4528"/><text fill="#D8BC00" font-family="Open Sans,Avenir,Nunito,Arial,Helvetica,SansSerif" font-size="12.5" lengthAdjust="spacing" textLength="135.4167" x="478.125" y="189.7461">aonia_map_geography</text><!--MD5=[8414f6c96bb950b5a72985c004257157]
entity aonia_map_measurements--><rect fill="#1B1B1A" height="44.93" rx="8.3333" ry="8.3333" style="stroke:#5E5E5E;stroke-width:1.5625;" width="197.9167" x="7.2917" y="268.2861"/><polygon fill="#1B1B1A" points="187.5,273.4945,187.5,288.0778,200,288.0778,200,279.7445,193.75,273.4945,187.5,273.4945" style="stroke:#5E5E5E;stroke-width:1.5625;"/><line style="stroke:#5E5E5E;stroke-width:1.5625;" x1="193.75" x2="193.75" y1="273.4945" y2="279.7445"/><line style="stroke:#5E5E5E;stroke-width:1.5625;" x1="200" x2="193.75" y1="279.7445" y2="279.7445"/><text fill="#D8BC00" font-family="Open Sans,Avenir,Nunito,Arial,Helvetica,SansSerif" font-size="12.5" lengthAdjust="spacing" textLength="160.4167" x="20.8333" y="297.0378">aonia_map_measurements</text><!--MD5=[1a1edbd63b504b4c962424a2d7544c43]
entity aonia_map_utilities_geojson--><rect fill="#1B1B1A" height="44.93" rx="8.3333" ry="8.3333" style="stroke:#5E5E5E;stroke-width:1.5625;" width="204.1667" x="925" y="53.7028"/><polygon fill="#1B1B1A" points="1111.4583,58.9111,1111.4583,73.4945,1123.9583,73.4945,1123.9583,65.1611,1117.7083,58.9111,1111.4583,58.9111" style="stroke:#5E5E5E;stroke-width:1.5625;"/><line style="stroke:#5E5E5E;stroke-width:1.5625;" x1="1117.7083" x2="1117.7083" y1="58.9111" y2="65.1611"/><line style="stroke:#5E5E5E;stroke-width:1.5625;" x1="1123.9583" x2="1117.7083" y1="65.1611" y2="65.1611"/><text fill="#D8BC00" font-family="Open Sans,Avenir,Nunito,Arial,Helvetica,SansSerif" font-size="12.5" lengthAdjust="spacing" textLength="166.6667" x="938.5417" y="82.4544">aonia_map_utilities_geojson</text><!--MD5=[d9521c76c2842dca8b8a8d137addb4db]
entity kivakit_build_metadata--><rect fill="#1B1B1A" height="44.93" rx="8.3333" ry="8.3333" style="stroke:#5E5E5E;stroke-width:1.5625;" width="176.0417" x="1122.3958" y="375.5778"/><polygon fill="#1B1B1A" points="1280.7292,380.7861,1280.7292,395.3695,1293.2292,395.3695,1293.2292,387.0361,1286.9792,380.7861,1280.7292,380.7861" style="stroke:#5E5E5E;stroke-width:1.5625;"/><line style="stroke:#5E5E5E;stroke-width:1.5625;" x1="1286.9792" x2="1286.9792" y1="380.7861" y2="387.0361"/><line style="stroke:#5E5E5E;stroke-width:1.5625;" x1="1293.2292" x2="1286.9792" y1="387.0361" y2="387.0361"/><text fill="#D8BC00" font-family="Open Sans,Avenir,Nunito,Arial,Helvetica,SansSerif" font-size="12.5" lengthAdjust="spacing" textLength="138.5417" x="1135.9375" y="404.3294">kivakit_build_metadata</text><!--MD5=[c749d8fbd0ccf88f309a9fa69b45c399]
entity kivakit_core_collections--><rect fill="#1B1B1A" height="44.93" rx="8.3333" ry="8.3333" style="stroke:#5E5E5E;stroke-width:1.5625;" width="176.0417" x="242.1875" y="268.2861"/><polygon fill="#1B1B1A" points="400.5208,273.4945,400.5208,288.0778,413.0208,288.0778,413.0208,279.7445,406.7708,273.4945,400.5208,273.4945" style="stroke:#5E5E5E;stroke-width:1.5625;"/><line style="stroke:#5E5E5E;stroke-width:1.5625;" x1="406.7708" x2="406.7708" y1="273.4945" y2="279.7445"/><line style="stroke:#5E5E5E;stroke-width:1.5625;" x1="413.0208" x2="406.7708" y1="279.7445" y2="279.7445"/><text fill="#D8BC00" font-family="Open Sans,Avenir,Nunito,Arial,Helvetica,SansSerif" font-size="12.5" lengthAdjust="spacing" textLength="138.5417" x="255.7292" y="297.0378">kivakit_core_collections</text><!--MD5=[90cbd57b7ed4cf40beb41e0bb8ca8fc2]
entity kivakit_core_commandline--><rect fill="#1B1B1A" height="44.93" rx="8.3333" ry="8.3333" style="stroke:#5E5E5E;stroke-width:1.5625;" width="194.7917" x="832.8125" y="268.2861"/><polygon fill="#1B1B1A" points="1009.8958,273.4945,1009.8958,288.0778,1022.3958,288.0778,1022.3958,279.7445,1016.1458,273.4945,1009.8958,273.4945" style="stroke:#5E5E5E;stroke-width:1.5625;"/><line style="stroke:#5E5E5E;stroke-width:1.5625;" x1="1016.1458" x2="1016.1458" y1="273.4945" y2="279.7445"/><line style="stroke:#5E5E5E;stroke-width:1.5625;" x1="1022.3958" x2="1016.1458" y1="279.7445" y2="279.7445"/><text fill="#D8BC00" font-family="Open Sans,Avenir,Nunito,Arial,Helvetica,SansSerif" font-size="12.5" lengthAdjust="spacing" textLength="157.2917" x="846.3542" y="297.0378">kivakit_core_commandline</text><!--MD5=[688f54af1e374da9fda80b106920514e]
entity kivakit_core_kernel--><rect fill="#1B1B1A" height="44.93" rx="8.3333" ry="8.3333" style="stroke:#5E5E5E;stroke-width:1.5625;" width="152.0833" x="1422.9167" y="268.2861"/><polygon fill="#1B1B1A" points="1557.2917,273.4945,1557.2917,288.0778,1569.7917,288.0778,1569.7917,279.7445,1563.5417,273.4945,1557.2917,273.4945" style="stroke:#5E5E5E;stroke-width:1.5625;"/><line style="stroke:#5E5E5E;stroke-width:1.5625;" x1="1563.5417" x2="1563.5417" y1="273.4945" y2="279.7445"/><line style="stroke:#5E5E5E;stroke-width:1.5625;" x1="1569.7917" x2="1563.5417" y1="279.7445" y2="279.7445"/><text fill="#D8BC00" font-family="Open Sans,Avenir,Nunito,Arial,Helvetica,SansSerif" font-size="12.5" lengthAdjust="spacing" textLength="114.5833" x="1436.4583" y="297.0378">kivakit_core_kernel</text><!--MD5=[96baabbb2bc8385dcde9005719ffbed4]
entity kivakit_core_resource--><rect fill="#1B1B1A" height="44.93" rx="8.3333" ry="8.3333" style="stroke:#5E5E5E;stroke-width:1.5625;" width="166.6667" x="943.75" y="160.9945"/><polygon fill="#1B1B1A" points="1092.7083,166.2028,1092.7083,180.7861,1105.2083,180.7861,1105.2083,172.4528,1098.9583,166.2028,1092.7083,166.2028" style="stroke:#5E5E5E;stroke-width:1.5625;"/><line style="stroke:#5E5E5E;stroke-width:1.5625;" x1="1098.9583" x2="1098.9583" y1="166.2028" y2="172.4528"/><line style="stroke:#5E5E5E;stroke-width:1.5625;" x1="1105.2083" x2="1098.9583" y1="172.4528" y2="172.4528"/><text fill="#D8BC00" font-family="Open Sans,Avenir,Nunito,Arial,Helvetica,SansSerif" font-size="12.5" lengthAdjust="spacing" textLength="129.1667" x="957.2917" y="189.7461">kivakit_core_resource</text><!--MD5=[98b25bf0c66f95b164f347e9d0e8dc28]
entity kivakit_core_serialization_core--><rect fill="#1B1B1A" height="44.93" rx="8.3333" ry="8.3333" style="stroke:#5E5E5E;stroke-width:1.5625;" width="218.75" x="1064.5833" y="268.2861"/><polygon fill="#1B1B1A" points="1265.625,273.4945,1265.625,288.0778,1278.125,288.0778,1278.125,279.7445,1271.875,273.4945,1265.625,273.4945" style="stroke:#5E5E5E;stroke-width:1.5625;"/><line style="stroke:#5E5E5E;stroke-width:1.5625;" x1="1271.875" x2="1271.875" y1="273.4945" y2="279.7445"/><line style="stroke:#5E5E5E;stroke-width:1.5625;" x1="1278.125" x2="1271.875" y1="279.7445" y2="279.7445"/><text fill="#D8BC00" font-family="Open Sans,Avenir,Nunito,Arial,Helvetica,SansSerif" font-size="12.5" lengthAdjust="spacing" textLength="181.25" x="1078.125" y="297.0378">kivakit_core_serialization_core</text><!--MD5=[7f910267563f6a0ef872d615afaf97c4]
entity kivakit_core_serialization_json--><rect fill="#1B1B1A" height="44.93" rx="8.3333" ry="8.3333" style="stroke:#5E5E5E;stroke-width:1.5625;" width="217.7083" x="1244.2708" y="160.9945"/><polygon fill="#1B1B1A" points="1444.2708,166.2028,1444.2708,180.7861,1456.7708,180.7861,1456.7708,172.4528,1450.5208,166.2028,1444.2708,166.2028" style="stroke:#5E5E5E;stroke-width:1.5625;"/><line style="stroke:#5E5E5E;stroke-width:1.5625;" x1="1450.5208" x2="1450.5208" y1="166.2028" y2="172.4528"/><line style="stroke:#5E5E5E;stroke-width:1.5625;" x1="1456.7708" x2="1450.5208" y1="172.4528" y2="172.4528"/><text fill="#D8BC00" font-family="Open Sans,Avenir,Nunito,Arial,Helvetica,SansSerif" font-size="12.5" lengthAdjust="spacing" textLength="180.2083" x="1257.8125" y="189.7461">kivakit_core_serialization_json</text><!--MD5=[0a9583a81da34a7dccf2b6c4ad7f5d24]
entity kivakit_core_serialization_kryo--><rect fill="#1B1B1A" height="44.93" rx="8.3333" ry="8.3333" style="stroke:#5E5E5E;stroke-width:1.5625;" width="218.75" x="220.8333" y="375.5778"/><polygon fill="#1B1B1A" points="421.875,380.7861,421.875,395.3695,434.375,395.3695,434.375,387.0361,428.125,380.7861,421.875,380.7861" style="stroke:#5E5E5E;stroke-width:1.5625;"/><line style="stroke:#5E5E5E;stroke-width:1.5625;" x1="428.125" x2="428.125" y1="380.7861" y2="387.0361"/><line style="stroke:#5E5E5E;stroke-width:1.5625;" x1="434.375" x2="428.125" y1="387.0361" y2="387.0361"/><text fill="#D8BC00" font-family="Open Sans,Avenir,Nunito,Arial,Helvetica,SansSerif" font-size="12.5" lengthAdjust="spacing" textLength="181.25" x="234.375" y="404.3294">kivakit_core_serialization_kryo</text><!--MD5=[818dec80b2352fb7b5669cdb2944a52b]
entity kivakit_core_test--><rect fill="#1B1B1A" height="44.93" rx="8.3333" ry="8.3333" style="stroke:#5E5E5E;stroke-width:1.5625;" width="136.4583" x="38.0208" y="375.5778"/><polygon fill="#1B1B1A" points="156.7708,380.7861,156.7708,395.3695,169.2708,395.3695,169.2708,387.0361,163.0208,380.7861,156.7708,380.7861" style="stroke:#5E5E5E;stroke-width:1.5625;"/><line style="stroke:#5E5E5E;stroke-width:1.5625;" x1="163.0208" x2="163.0208" y1="380.7861" y2="387.0361"/><line style="stroke:#5E5E5E;stroke-width:1.5625;" x1="169.2708" x2="163.0208" y1="387.0361" y2="387.0361"/><text fill="#D8BC00" font-family="Open Sans,Avenir,Nunito,Arial,Helvetica,SansSerif" font-size="12.5" lengthAdjust="spacing" textLength="98.9583" x="51.5625" y="404.3294">kivakit_core_test</text><!--MD5=[d079e480d5d45338d66b0a803aea0fe8]
entity kivakit_data_compression--><rect fill="#1B1B1A" height="44.93" rx="8.3333" ry="8.3333" style="stroke:#5E5E5E;stroke-width:1.5625;" width="191.6667" x="455.2083" y="268.2861"/><polygon fill="#1B1B1A" points="629.1667,273.4945,629.1667,288.0778,641.6667,288.0778,641.6667,279.7445,635.4167,273.4945,629.1667,273.4945" style="stroke:#5E5E5E;stroke-width:1.5625;"/><line style="stroke:#5E5E5E;stroke-width:1.5625;" x1="635.4167" x2="635.4167" y1="273.4945" y2="279.7445"/><line style="stroke:#5E5E5E;stroke-width:1.5625;" x1="641.6667" x2="635.4167" y1="279.7445" y2="279.7445"/><text fill="#D8BC00" font-family="Open Sans,Avenir,Nunito,Arial,Helvetica,SansSerif" font-size="12.5" lengthAdjust="spacing" textLength="154.1667" x="468.75" y="297.0378">kivakit_data_compression</text><!--MD5=[777f537393e16daa648c56fbfeea7987]
entity kivakit_math--><rect fill="#1B1B1A" height="44.93" rx="8.3333" ry="8.3333" style="stroke:#5E5E5E;stroke-width:1.5625;" width="112.5" x="683.3333" y="268.2861"/><polygon fill="#1B1B1A" points="778.125,273.4945,778.125,288.0778,790.625,288.0778,790.625,279.7445,784.375,273.4945,778.125,273.4945" style="stroke:#5E5E5E;stroke-width:1.5625;"/><line style="stroke:#5E5E5E;stroke-width:1.5625;" x1="784.375" x2="784.375" y1="273.4945" y2="279.7445"/><line style="stroke:#5E5E5E;stroke-width:1.5625;" x1="790.625" x2="784.375" y1="279.7445" y2="279.7445"/><text fill="#D8BC00" font-family="Open Sans,Avenir,Nunito,Arial,Helvetica,SansSerif" font-size="12.5" lengthAdjust="spacing" textLength="75" x="696.875" y="297.0378">kivakit_math</text><!--MD5=[7b0fec798d1f32628676dfdf75f1f662]
entity lexakai_annotations--><rect fill="#1B1B1A" height="44.93" rx="8.3333" ry="8.3333" style="stroke:#5E5E5E;stroke-width:1.5625;" width="155.2083" x="1334.8958" y="375.5778"/><polygon fill="#1B1B1A" points="1472.3958,380.7861,1472.3958,395.3695,1484.8958,395.3695,1484.8958,387.0361,1478.6458,380.7861,1472.3958,380.7861" style="stroke:#5E5E5E;stroke-width:1.5625;"/><line style="stroke:#5E5E5E;stroke-width:1.5625;" x1="1478.6458" x2="1478.6458" y1="380.7861" y2="387.0361"/><line style="stroke:#5E5E5E;stroke-width:1.5625;" x1="1484.8958" x2="1478.6458" y1="387.0361" y2="387.0361"/><text fill="#D8BC00" font-family="Open Sans,Avenir,Nunito,Arial,Helvetica,SansSerif" font-size="12.5" lengthAdjust="spacing" textLength="117.7083" x="1348.4375" y="404.3294">lexakai_annotations</text><!--MD5=[b9ccc173c089e3d2abf77c8581e74aca]
entity kryo_serializers--><rect fill="#1B1B1A" height="44.93" rx="8.3333" ry="8.3333" style="stroke:#5E5E5E;stroke-width:1.5625;" width="131.25" x="331.25" y="482.8695"/><polygon fill="#1B1B1A" points="444.7917,488.0778,444.7917,502.6611,457.2917,502.6611,457.2917,494.3278,451.0417,488.0778,444.7917,488.0778" style="stroke:#5E5E5E;stroke-width:1.5625;"/><line style="stroke:#5E5E5E;stroke-width:1.5625;" x1="451.0417" x2="451.0417" y1="488.0778" y2="494.3278"/><line style="stroke:#5E5E5E;stroke-width:1.5625;" x1="457.2917" x2="451.0417" y1="494.3278" y2="494.3278"/><text fill="#D8BC00" font-family="Open Sans,Avenir,Nunito,Arial,Helvetica,SansSerif" font-size="12.5" lengthAdjust="spacing" textLength="93.75" x="344.7917" y="511.6211">kryo_serializers</text><!--MD5=[23cc7f88cfa1ae4b54fca2963c42906f]
entity swagger_annotations--><rect fill="#1B1B1A" height="44.93" rx="8.3333" ry="8.3333" style="stroke:#5E5E5E;stroke-width:1.5625;" width="162.5" x="1527.0833" y="375.5778"/><polygon fill="#1B1B1A" points="1671.875,380.7861,1671.875,395.3695,1684.375,395.3695,1684.375,387.0361,1678.125,380.7861,1671.875,380.7861" style="stroke:#5E5E5E;stroke-width:1.5625;"/><line style="stroke:#5E5E5E;stroke-width:1.5625;" x1="1678.125" x2="1678.125" y1="380.7861" y2="387.0361"/><line style="stroke:#5E5E5E;stroke-width:1.5625;" x1="1684.375" x2="1678.125" y1="387.0361" y2="387.0361"/><text fill="#D8BC00" font-family="Open Sans,Avenir,Nunito,Arial,Helvetica,SansSerif" font-size="12.5" lengthAdjust="spacing" textLength="125" x="1540.625" y="404.3294">swagger_annotations</text><!--MD5=[ce55b294004802c137560c2930be5b75]
entity junit--><rect fill="#1B1B1A" height="44.93" rx="8.3333" ry="8.3333" style="stroke:#5E5E5E;stroke-width:1.5625;" width="63.5417" x="1726.5625" y="375.5778"/><polygon fill="#1B1B1A" points="1772.3958,380.7861,1772.3958,395.3695,1784.8958,395.3695,1784.8958,387.0361,1778.6458,380.7861,1772.3958,380.7861" style="stroke:#5E5E5E;stroke-width:1.5625;"/><line style="stroke:#5E5E5E;stroke-width:1.5625;" x1="1778.6458" x2="1778.6458" y1="380.7861" y2="387.0361"/><line style="stroke:#5E5E5E;stroke-width:1.5625;" x1="1784.8958" x2="1778.6458" y1="387.0361" y2="387.0361"/><text fill="#D8BC00" font-family="Open Sans,Avenir,Nunito,Arial,Helvetica,SansSerif" font-size="12.5" lengthAdjust="spacing" textLength="26.0417" x="1740.1042" y="404.3294">junit</text><!--MD5=[374397457fd87171900b6bd6464bbf1c]
entity commons_math--><rect fill="#1B1B1A" height="44.93" rx="8.3333" ry="8.3333" style="stroke:#5E5E5E;stroke-width:1.5625;" width="131.25" x="673.9583" y="375.5778"/><polygon fill="#1B1B1A" points="787.5,380.7861,787.5,395.3695,800,395.3695,800,387.0361,793.75,380.7861,787.5,380.7861" style="stroke:#5E5E5E;stroke-width:1.5625;"/><line style="stroke:#5E5E5E;stroke-width:1.5625;" x1="793.75" x2="793.75" y1="380.7861" y2="387.0361"/><line style="stroke:#5E5E5E;stroke-width:1.5625;" x1="800" x2="793.75" y1="387.0361" y2="387.0361"/><text fill="#D8BC00" font-family="Open Sans,Avenir,Nunito,Arial,Helvetica,SansSerif" font-size="12.5" lengthAdjust="spacing" textLength="93.75" x="687.5" y="404.3294">commons_math</text><!--MD5=[7f157d37bc1fd6ac970bb67ffdbc66a3]
entity hamcrest_core--><rect fill="#1B1B1A" height="44.93" rx="8.3333" ry="8.3333" style="stroke:#5E5E5E;stroke-width:1.5625;" width="125" x="1695.8333" y="482.8695"/><polygon fill="#1B1B1A" points="1803.125,488.0778,1803.125,502.6611,1815.625,502.6611,1815.625,494.3278,1809.375,488.0778,1803.125,488.0778" style="stroke:#5E5E5E;stroke-width:1.5625;"/><line style="stroke:#5E5E5E;stroke-width:1.5625;" x1="1809.375" x2="1809.375" y1="488.0778" y2="494.3278"/><line style="stroke:#5E5E5E;stroke-width:1.5625;" x1="1815.625" x2="1809.375" y1="494.3278" y2="494.3278"/><text fill="#D8BC00" font-family="Open Sans,Avenir,Nunito,Arial,Helvetica,SansSerif" font-size="12.5" lengthAdjust="spacing" textLength="87.5" x="1709.375" y="511.6211">hamcrest_core</text><!--MD5=[b728e17b4e4da6aa8cb97e9b2766c5e6]
entity annotations--><rect fill="#1B1B1A" height="44.93" rx="8.3333" ry="8.3333" style="stroke:#5E5E5E;stroke-width:1.5625;" width="106.25" x="1827.0833" y="375.5778"/><polygon fill="#1B1B1A" points="1915.625,380.7861,1915.625,395.3695,1928.125,395.3695,1928.125,387.0361,1921.875,380.7861,1915.625,380.7861" style="stroke:#5E5E5E;stroke-width:1.5625;"/><line style="stroke:#5E5E5E;stroke-width:1.5625;" x1="1921.875" x2="1921.875" y1="380.7861" y2="387.0361"/><line style="stroke:#5E5E5E;stroke-width:1.5625;" x1="1928.125" x2="1921.875" y1="387.0361" y2="387.0361"/><text fill="#D8BC00" font-family="Open Sans,Avenir,Nunito,Arial,Helvetica,SansSerif" font-size="12.5" lengthAdjust="spacing" textLength="68.75" x="1840.625" y="404.3294">annotations</text><!--MD5=[b3c862d1486667ad9c7edef6529b2202]
entity objenesis--><rect fill="#1B1B1A" height="44.93" rx="8.3333" ry="8.3333" style="stroke:#5E5E5E;stroke-width:1.5625;" width="94.7917" x="349.4792" y="590.1611"/><polygon fill="#1B1B1A" points="426.5625,595.3695,426.5625,609.9528,439.0625,609.9528,439.0625,601.6195,432.8125,595.3695,426.5625,595.3695" style="stroke:#5E5E5E;stroke-width:1.5625;"/><line style="stroke:#5E5E5E;stroke-width:1.5625;" x1="432.8125" x2="432.8125" y1="595.3695" y2="601.6195"/><line style="stroke:#5E5E5E;stroke-width:1.5625;" x1="439.0625" x2="432.8125" y1="601.6195" y2="601.6195"/><text fill="#D8BC00" font-family="Open Sans,Avenir,Nunito,Arial,Helvetica,SansSerif" font-size="12.5" lengthAdjust="spacing" textLength="57.2917" x="363.0208" y="618.9128">objenesis</text><!--MD5=[92e2ad58d19962135e7ff93f22958550]
entity asm--><rect fill="#1B1B1A" height="44.93" rx="8.3333" ry="8.3333" style="stroke:#5E5E5E;stroke-width:1.5625;" width="62.5" x="231.25" y="697.4528"/><polygon fill="#1B1B1A" points="276.0417,702.6611,276.0417,717.2445,288.5417,717.2445,288.5417,708.9111,282.2917,702.6611,276.0417,702.6611" style="stroke:#5E5E5E;stroke-width:1.5625;"/><line style="stroke:#5E5E5E;stroke-width:1.5625;" x1="282.2917" x2="282.2917" y1="702.6611" y2="708.9111"/><line style="stroke:#5E5E5E;stroke-width:1.5625;" x1="288.5417" x2="282.2917" y1="708.9111" y2="708.9111"/><text fill="#D8BC00" font-family="Open Sans,Avenir,Nunito,Arial,Helvetica,SansSerif" font-size="12.5" lengthAdjust="spacing" textLength="25" x="244.7917" y="726.2044">asm</text><!--MD5=[dbcfd7b247fe81ac4a871bd0c00bf364]
link aonia_map_geography to aonia_map_measurements--><path d="M464.4896,204.9007 C389.0625,222.7445 279.8438,248.5778 201.8646,267.0257 " fill="none" id="aonia_map_geography-to-aonia_map_measurements" style="stroke:#545454;stroke-width:1.5625;"/><polygon fill="#545454" points="196.7708,268.2236,206.855,270.1109,201.8382,267.02,204.9291,262.0031,196.7708,268.2236" style="stroke:#545454;stroke-width:1.5625;"/><!--MD5=[292b9f46a1da4548cc53e58aa63c16d7]
link aonia_map_geography to kivakit_core_collections--><path d="M506.0833,205.8486 C469.5208,223.2757 417.9583,247.8382 380.1146,265.8695 " fill="none" id="aonia_map_geography-to-kivakit_core_collections" style="stroke:#545454;stroke-width:1.5625;"/><polygon fill="#545454" points="375.1042,268.2549,385.3602,267.9988,379.8093,266.0214,381.7867,260.4705,375.1042,268.2549" style="stroke:#545454;stroke-width:1.5625;"/><!--MD5=[1afa703c42dbd96e48186562a4eab565]
link aonia_map_geography to kivakit_data_compression--><path d="M551.0417,206.234 C551.0417,222.7028 551.0417,245.4007 551.0417,262.9528 " fill="none" id="aonia_map_geography-to-kivakit_data_compression" style="stroke:#545454;stroke-width:1.5625;"/><polygon fill="#545454" points="551.0417,268.234,555.2083,258.859,551.0417,263.0257,546.875,258.859,551.0417,268.234" style="stroke:#545454;stroke-width:1.5625;"/><!--MD5=[3c9e267440b7a2ddde7ce49314e4789c]
link aonia_map_geography to kivakit_math--><path d="M589.6458,205.9736 C620.6667,223.2757 664.1875,247.5674 696.3646,265.5257 " fill="none" id="aonia_map_geography-to-kivakit_math" style="stroke:#545454;stroke-width:1.5625;"/><polygon fill="#545454" points="701.0208,268.1299,694.8491,259.9347,696.4679,265.6005,690.8021,267.2193,701.0208,268.1299" style="stroke:#545454;stroke-width:1.5625;"/><!--MD5=[011adfa1f5389178a48a4ebfdae9edb9]
link aonia_map_measurements to kivakit_core_test--><path d="M106.25,313.5257 C106.25,329.9945 106.25,352.6924 106.25,370.2445 " fill="none" id="aonia_map_measurements-to-kivakit_core_test" style="stroke:#545454;stroke-width:1.5625;"/><polygon fill="#545454" points="106.25,375.5257,110.4167,366.1507,106.25,370.3174,102.0833,366.1507,106.25,375.5257" style="stroke:#545454;stroke-width:1.5625;"/><!--MD5=[54df5540b0dfd268216d0646e672ba71]
link aonia_map_utilities_geojson to aonia_map_geography--><path d="M930.1771,98.557 C846.25,117.109 725.6875,143.7549 643.1875,161.984 " fill="none" id="aonia_map_utilities_geojson-to-aonia_map_geography" style="stroke:#545454;stroke-width:1.5625;"/><polygon fill="#545454" points="637.8125,163.1715,647.8681,165.2053,642.8968,162.0417,646.0604,157.0704,637.8125,163.1715" style="stroke:#545454;stroke-width:1.5625;"/><!--MD5=[f7a22b026861fe7bad9bfc4cabe21b12]
link aonia_map_utilities_geojson to kivakit_core_resource--><path d="M1027.0833,98.9424 C1027.0833,115.4111 1027.0833,138.109 1027.0833,155.6611 " fill="none" id="aonia_map_utilities_geojson-to-kivakit_core_resource" style="stroke:#545454;stroke-width:1.5625;"/><polygon fill="#545454" points="1027.0833,160.9424,1031.25,151.5674,1027.0833,155.734,1022.9167,151.5674,1027.0833,160.9424" style="stroke:#545454;stroke-width:1.5625;"/><!--MD5=[4b04ed4720f2a61a0fa805c25a6c57aa]
link aonia_map_utilities_geojson to kivakit_core_serialization_json--><path d="M1093.4583,98.557 C1148.2188,116.2236 1225.7604,141.2445 1281.8333,159.3382 " fill="none" id="aonia_map_utilities_geojson-to-kivakit_core_serialization_json" style="stroke:#545454;stroke-width:1.5625;"/><polygon fill="#545454" points="1286.8438,160.9632,1279.1929,154.1283,1281.8851,159.3699,1276.6436,162.0622,1286.8438,160.9632" style="stroke:#545454;stroke-width:1.5625;"/><!--MD5=[d68e7c4b3ca5f037bcb6997a0b4ed16b]
link junit to hamcrest_core--><path d="M1758.3333,420.8174 C1758.3333,437.2861 1758.3333,459.984 1758.3333,477.5361 " fill="none" id="junit-to-hamcrest_core" style="stroke:#545454;stroke-width:1.5625;"/><polygon fill="#545454" points="1758.3333,482.8174,1762.5,473.4424,1758.3333,477.609,1754.1667,473.4424,1758.3333,482.8174" style="stroke:#545454;stroke-width:1.5625;"/><!--MD5=[89a440cab1a8a2054a43eb185086c0c4]
link kivakit_core_collections to kivakit_core_serialization_kryo--><path d="M330.2083,313.5257 C330.2083,329.9945 330.2083,352.6924 330.2083,370.2445 " fill="none" id="kivakit_core_collections-to-kivakit_core_serialization_kryo" style="stroke:#545454;stroke-width:1.5625;"/><polygon fill="#545454" points="330.2083,375.5257,334.375,366.1507,330.2083,370.3174,326.0417,366.1507,330.2083,375.5257" style="stroke:#545454;stroke-width:1.5625;"/><!--MD5=[952d2988887d0a1a5ab8e547a07453b0]
link kivakit_core_kernel to annotations--><path d="M1575.0625,311.807 C1637.7813,328.484 1728.9688,353.0361 1808.3333,375.5778 C1812.6563,376.807 1817.1146,378.0882 1821.6042,379.3903 " fill="none" id="kivakit_core_kernel-to-annotations" style="stroke:#545454;stroke-width:1.5625;"/><polygon fill="#545454" points="1826.875,380.932,1819.0417,374.307,1821.875,379.4736,1816.7083,382.307,1826.875,380.932" style="stroke:#545454;stroke-width:1.5625;"/><!--MD5=[b7680a521db9e3e37ee2504e235738ce]
link kivakit_core_kernel to jackson_annotations--><path d="M1422.4167,309.0778 C1416.2396,310.4424 1410.1042,311.7861 1404.1667,313.0778 C1271.0625,341.932 1237.3646,347.182 1104.1667,375.5778 C1099.8229,376.5049 1095.375,377.4528 1090.8854,378.4215 " fill="none" id="kivakit_core_kernel-to-jackson_annotations" style="stroke:#545454;stroke-width:1.5625;"/><polygon fill="#545454" points="1085.5938,379.5674,1095.6379,381.6572,1090.6843,378.4659,1093.8755,373.5123,1085.5938,379.5674" style="stroke:#545454;stroke-width:1.5625;"/><!--MD5=[b26fa4ddfc815a8311f8076e771ef7d4]
link kivakit_core_kernel to junit--><path d="M1553,313.2445 C1595.1042,330.057 1654.9896,354.109 1707.2917,375.5778 C1711.9583,377.4945 1716.8542,379.5153 1721.6979,381.5361 " fill="none" id="kivakit_core_kernel-to-junit" style="stroke:#545454;stroke-width:1.5625;"/><polygon fill="#545454" points="1726.5,383.5361,1719.4373,376.0951,1721.6892,381.5403,1716.244,383.7923,1726.5,383.5361" style="stroke:#545454;stroke-width:1.5625;"/><!--MD5=[147bacadb2b5082a02772764a83ed950]
link kivakit_core_kernel to kivakit_build_metadata--><path d="M1440.2188,313.1403 C1391.9479,330.7445 1323.6875,355.6299 1274.1146,373.7028 " fill="none" id="kivakit_core_kernel-to-kivakit_build_metadata" style="stroke:#545454;stroke-width:1.5625;"/><polygon fill="#545454" points="1269.0729,375.5465,1279.3081,376.2485,1273.9659,373.7619,1276.4526,368.4197,1269.0729,375.5465" style="stroke:#545454;stroke-width:1.5625;"/><!--MD5=[faeafeee9ad3ae3a363b253ef7d19a64]
link kivakit_core_kernel to lexakai_annotations--><path d="M1481.0417,313.5257 C1467.2708,330.2757 1448.2083,353.4736 1433.6875,371.1507 " fill="none" id="kivakit_core_kernel-to-lexakai_annotations" style="stroke:#545454;stroke-width:1.5625;"/><polygon fill="#545454" points="1430.0938,375.5257,1439.258,370.9139,1433.3943,371.4967,1432.8115,365.633,1430.0938,375.5257" style="stroke:#545454;stroke-width:1.5625;"/><!--MD5=[99fa47cbfc1fc0fa6998fda90ce70c02]
link kivakit_core_kernel to swagger_annotations--><path d="M1521.3542,313.2653 C1538.9063,330.1507 1563.3646,353.6715 1581.875,371.484 " fill="none" id="kivakit_core_kernel-to-swagger_annotations" style="stroke:#545454;stroke-width:1.5625;"/><polygon fill="#545454" points="1585.9688,375.4215,1582.1124,365.9147,1582.2196,371.8063,1576.328,371.9134,1585.9688,375.4215" style="stroke:#545454;stroke-width:1.5625;"/><!--MD5=[51749c9a254ebf09ae66210b13d2ec72]
link kivakit_core_resource to kivakit_core_commandline--><path d="M1007.0104,206.234 C991.4479,223.1299 969.8646,246.5778 953.5313,264.307 " fill="none" id="kivakit_core_resource-to-kivakit_core_commandline" style="stroke:#545454;stroke-width:1.5625;"/><polygon fill="#545454" points="949.9271,268.234,959.3457,264.1669,953.4579,264.4052,953.2196,258.5175,949.9271,268.234" style="stroke:#545454;stroke-width:1.5625;"/><!--MD5=[a1f0f27ef0eb17168c6cd06fee466f5d]
link kivakit_core_resource to kivakit_core_serialization_core--><path d="M1057.1563,205.9736 C1081.1146,223.1403 1114.6771,247.1715 1139.6771,265.0778 " fill="none" id="kivakit_core_resource-to-kivakit_core_serialization_core" style="stroke:#545454;stroke-width:1.5625;"/><polygon fill="#545454" points="1143.9167,268.1299,1138.7185,259.285,1139.6815,265.0984,1133.8681,266.0613,1143.9167,268.1299" style="stroke:#545454;stroke-width:1.5625;"/><!--MD5=[bb0d185abc6ce255ac1e20c84a3cc192]
link kivakit_core_serialization_json to gson--><path d="M1353.125,206.234 C1353.125,222.7028 1353.125,245.4007 1353.125,262.9528 " fill="none" id="kivakit_core_serialization_json-to-gson" style="stroke:#545454;stroke-width:1.5625;"/><polygon fill="#545454" points="1353.125,268.234,1357.2917,258.859,1353.125,263.0257,1348.9583,258.859,1353.125,268.234" style="stroke:#545454;stroke-width:1.5625;"/><!--MD5=[90527b96eaf1cd6a0c108f4ce86c9133]
link kivakit_core_serialization_json to kivakit_core_kernel--><path d="M1382.9896,205.9736 C1406.6771,223.0674 1439.8229,246.9736 1464.6042,264.859 " fill="none" id="kivakit_core_serialization_json-to-kivakit_core_kernel" style="stroke:#545454;stroke-width:1.5625;"/><polygon fill="#545454" points="1469.1354,268.1299,1463.9726,259.2644,1464.9123,265.0815,1459.0952,266.0213,1469.1354,268.1299" style="stroke:#545454;stroke-width:1.5625;"/><!--MD5=[a78602a5e159932f58b4090c620edf6f]
link kivakit_core_serialization_kryo to kryo--><path d="M316.1771,420.8174 C305.4896,437.432 290.7188,460.3695 279.3854,477.9945 " fill="none" id="kivakit_core_serialization_kryo-to-kryo" style="stroke:#545454;stroke-width:1.5625;"/><polygon fill="#545454" points="276.2813,482.8174,284.8606,477.1918,279.1014,478.4387,277.8546,472.6795,276.2813,482.8174" style="stroke:#545454;stroke-width:1.5625;"/><!--MD5=[929cb75ecd116a31d1013b63d48976ad]
link kivakit_core_serialization_kryo to kryo_serializers--><path d="M344.0208,420.8174 C354.5521,437.432 369.0938,460.3695 380.25,477.9945 " fill="none" id="kivakit_core_serialization_kryo-to-kryo_serializers" style="stroke:#545454;stroke-width:1.5625;"/><polygon fill="#545454" points="383.3125,482.8174,381.8034,472.6698,380.5201,478.4209,374.769,477.1376,383.3125,482.8174" style="stroke:#545454;stroke-width:1.5625;"/><!--MD5=[3a8da46707b3267a7def2c5b13e3afea]
link kivakit_math to commons_math--><path d="M739.5833,313.5257 C739.5833,329.9945 739.5833,352.6924 739.5833,370.2445 " fill="none" id="kivakit_math-to-commons_math" style="stroke:#545454;stroke-width:1.5625;"/><polygon fill="#545454" points="739.5833,375.5257,743.75,366.1507,739.5833,370.3174,735.4167,366.1507,739.5833,375.5257" style="stroke:#545454;stroke-width:1.5625;"/><!--MD5=[8c32f0e7b0abeba01afd276f5a66ee84]
link kryo to minlog--><path d="M236.9063,527.8486 C216.6771,544.8695 188.4271,568.6507 167.2083,586.5153 " fill="none" id="kryo-to-minlog" style="stroke:#545454;stroke-width:1.5625;"/><polygon fill="#545454" points="163.0625,590.0049,172.9165,587.1498,167.0453,586.6486,167.5465,580.7774,163.0625,590.0049" style="stroke:#545454;stroke-width:1.5625;"/><!--MD5=[e75c16e47fcf6c43b15d3c25536a9ed0]
link kryo to objenesis--><path d="M290.0208,527.8486 C311.8438,544.9424 342.3854,568.8486 365.2188,586.734 " fill="none" id="kryo-to-objenesis" style="stroke:#545454;stroke-width:1.5625;"/><polygon fill="#545454" points="369.3958,590.0049,364.5809,580.9457,365.2942,586.7949,359.445,587.5083,369.3958,590.0049" style="stroke:#545454;stroke-width:1.5625;"/><!--MD5=[e061beb27669383d030ce0c5c656b006]
link kryo to reflectasm--><path d="M262.5,528.109 C262.5,544.5778 262.5,567.2757 262.5,584.8278 " fill="none" id="kryo-to-reflectasm" style="stroke:#545454;stroke-width:1.5625;"/><polygon fill="#545454" points="262.5,590.109,266.6667,580.734,262.5,584.9007,258.3333,580.734,262.5,590.109" style="stroke:#545454;stroke-width:1.5625;"/><!--MD5=[338783537f3f9263e4097f5ff0c514d3]
link reflectasm to asm--><path d="M262.5,635.4007 C262.5,651.8695 262.5,674.5674 262.5,692.1195 " fill="none" id="reflectasm-to-asm" style="stroke:#545454;stroke-width:1.5625;"/><polygon fill="#545454" points="262.5,697.4007,266.6667,688.0257,262.5,692.1924,258.3333,688.0257,262.5,697.4007" style="stroke:#545454;stroke-width:1.5625;"/><!--MD5=[51488fc87ed05253a8324eecfea68e86]
@startuml

    !include ../lexakai/lexakai.theme
    
    title "aonia-map-utilities-geojson"
    
    artifact kryo
    artifact minlog
    artifact reflectasm
    artifact jackson_annotations
    artifact gson
    artifact aonia_map_geography
    artifact aonia_map_measurements
    artifact aonia_map_utilities_geojson
    artifact kivakit_build_metadata
    artifact kivakit_core_collections
    artifact kivakit_core_commandline
    artifact kivakit_core_kernel
    artifact kivakit_core_resource
    artifact kivakit_core_serialization_core
    artifact kivakit_core_serialization_json
    artifact kivakit_core_serialization_kryo
    artifact kivakit_core_test
    artifact kivakit_data_compression
    artifact kivakit_math
    artifact lexakai_annotations
    artifact kryo_serializers
    artifact swagger_annotations
    artifact junit
    artifact commons_math
    artifact hamcrest_core
    artifact annotations
    artifact objenesis
    artifact asm
    aonia_map_geography - -> aonia_map_measurements
    aonia_map_geography - -> kivakit_core_collections
    aonia_map_geography - -> kivakit_data_compression
    aonia_map_geography - -> kivakit_math
    aonia_map_measurements - -> kivakit_core_test
    aonia_map_utilities_geojson - -> aonia_map_geography
    aonia_map_utilities_geojson - -> kivakit_core_resource
    aonia_map_utilities_geojson - -> kivakit_core_serialization_json
    junit - -> hamcrest_core
    kivakit_core_collections - -> kivakit_core_serialization_kryo
    kivakit_core_kernel - -> annotations
    kivakit_core_kernel - -> jackson_annotations
    kivakit_core_kernel - -> junit
    kivakit_core_kernel - -> kivakit_build_metadata
    kivakit_core_kernel - -> lexakai_annotations
    kivakit_core_kernel - -> swagger_annotations
    kivakit_core_resource - -> kivakit_core_commandline
    kivakit_core_resource - -> kivakit_core_serialization_core
    kivakit_core_serialization_json - -> gson
    kivakit_core_serialization_json - -> kivakit_core_kernel
    kivakit_core_serialization_kryo - -> kryo
    kivakit_core_serialization_kryo - -> kryo_serializers
    kivakit_math - -> commons_math
    kryo - -> minlog
    kryo - -> objenesis
    kryo - -> reflectasm
    reflectasm - -> asm
    
@enduml

@startuml









skinparam backgroundColor #333333






skinparam  {
    defaultFontName   "Open Sans,Avenir,Nunito,Arial,Helvetica,SansSerif"
    defaultFontSize   12
    defaultTextAlignment left
    shadowing false
    RoundCorner 10
    TitleFontSize 18
}

skinparam defaultFontName       "Open Sans,Avenir,Nunito,Arial,Helvetica,SansSerif"
skinparam defaultFontSize       12
skinparam dpi                   100
skinparam shadowing             false
skinparam roundcorner           16
skinparam ParticipantPadding    40
skinparam BoxPadding            40
skinparam Padding               3
skinparam ArrowColor            #545454
skinparam stereotype {
    CBackgroundColor #0066cf
    CBorderColor #0086ef
    ABackgroundColor #C8Ac00
    ABorderColor #D8Bc00
    IBackgroundColor #008400
    IBorderColor #239c23
    EBackgroundColor #cf6300
    EBorderColor #ef8300
    NBackgroundColor #3380b9
    NBorderColor #004d86
}
skinparam title {
	FontColor	                 #c0c0c0
 	BorderColor                  #545454
	FontSize	    	         20
	BorderRoundCorner            16
	BorderThickness 	         1
	BackgroundColor              #48494b
}


skinparam legend {
	BackgroundColor #303030
	BorderColor #404040
	FontColor #a0a0a0
}

	skinparam swimlane {
	BorderColor #5e5e5e
	BorderThickness 2
	TitleBackgroundColor  #6d6d6d-#484848
	TitleFontColor #303030
}

skinparam activity {
		FontColor #C8Ac00
	BorderColor #333333
	BackgroundColor #333333-#333333
	BarColor #00FF00
	StartColor #0060a8
	EndColor #0060a8
	DiamondBackgroundColor #6d6d6d-#3a3a3a
  	DiamondBorderColor #3a3a3a
  	DiamondFontColor #fefefe
}


skinparam participant {
		FontColor #C8Ac00
	BorderColor #333333
	BackgroundColor #333333-#333333
	ParticipantBorderThickness 2
}


skinparam actor {
		FontColor #C8Ac00
	BorderColor #333333
	BackgroundColor #333333-#333333
}


skinparam arrow {
	Thickness 1.5
	Color #545454
	FontColor #a0a0a0
    FontStyle bold
    MessageAlignment center
}



skinparam sequence {
	BorderColor #303030
	TitleFontColor #303030
	BackgroundColor #333333
	StartColor #303030
	EndColor #303030
	BoxBackgroundColor #333333
	BoxBorderColor #484848
	BoxFontColor #484848
	LifeLineBorderColor #484848
	LifeLineBorderThickness 2
	LifeLineBackgroundColor #3a3a3a
	GroupBorderColor #484848
	GroupFontColor #484848
	GroupHeaderFontColor #0060a8
	GroupBackgroundColor #484848
	GroupHeaderBackgroundColor #333333
	DividerBackgroundColor #484848
    DividerBorderColor #484848
    DividerBorderThickness 2
    DividerFontColor #D8Bc00
	ReferenceBackgroundColor #333333
	ReferenceBorderColor #484848
	ReferenceFontColor #fefefe
	ReferenceHeaderBackgroundColor #484848
}


skinparam partition {
	BorderColor #303030
	FontColor #333333
	BackgroundColor #333333
}


skinparam collections {
		FontColor #C8Ac00
	BorderColor #333333
	BackgroundColor #333333-#333333
}


skinparam control {
		FontColor #C8Ac00
	BorderColor #333333
	BackgroundColor #333333-#333333
}


skinparam entity {
		FontColor #C8Ac00
	BorderColor #333333
	BackgroundColor #333333-#333333
}


skinparam boundary {
		FontColor #C8Ac00
	BorderColor #333333
	BackgroundColor #333333-#333333
}


skinparam agent {
	BackgroundColor #ff8000
	BorderColor #ff9933
	FontColor #484848
}


skinparam note {
	BorderThickness 1
	BackgroundColor #1b1b1a
	BorderColor #5e5e5e
	FontSize 11
	FontColor #a0a0a0
}


skinparam artifact {
	BorderThickness 10
	BorderColor #5e5e5e
	BackgroundColor #1b1b1a
	FontColor #D8Bc00
}


skinparam component {
		FontColor #C8Ac00
	BorderColor #333333
	BackgroundColor #333333-#333333
}


skinparam interface {
	BackgroundColor  #008400
	BorderColor  #007F00
	FontColor #484848
}


skinparam storage {
	BackgroundColor #ff8000
  	BorderColor #cc6600
	FontColor #222222
}


skinparam node {
	BackgroundColor #333333
	BorderColor #333333
	FontColor #C8Ac00
}


skinparam cloud {
	BackgroundColor #484848-black
	BorderColor #484848
	FontColor #D8Bc00
}


skinparam database {
		FontColor #C8Ac00
	BorderColor #333333
	BackgroundColor #333333-#333333
	BackgroundColor  #333333
}


skinparam class {
		FontColor #C8Ac00
	BorderColor #333333
	BackgroundColor #333333-#333333
	HeaderBackgroundColor #1b1b1a
    BackgroundColor #282828
    BorderColor #5e5e5e
 	StereotypeFontColor #a0a0a0
    StereotypeFontStyle bold
	BorderThickness 1
	AttributeFontColor #D8Bc00
	AttributeFontSize 11
    FontColor #D8Bc00
    FontStyle bold
}


skinparam object {
		FontColor #C8Ac00
	BorderColor #333333
	BackgroundColor #333333-#333333
	StereotypeFontColor #484848
	BorderThickness 1
	AttributeFontColor #fefefe
	AttributeFontSize 11
}


skinparam usecase {
		FontColor #C8Ac00
	BorderColor #333333
	BackgroundColor #333333-#333333
	BorderThickness 2
	StereotypeFontColor #303030
}


skinparam rectangle {
		FontColor #C8Ac00
	BorderColor #333333
	BackgroundColor #333333-#333333
	BackgroundColor #333333
	BorderThickness 2
	StereotypeFontColor #303030
}


skinparam package {
		FontColor #C8Ac00
	BorderColor #333333
	BackgroundColor #333333-#333333
	BackgroundColor #333333
	BorderThickness 2
}


skinparam folder {
	BackgroundColor #6d6d6d
  	BorderColor #ff8000
	FontColor #ff8000
	BorderThickness 2
}


skinparam frame {
	BackgroundColor #6d6d6d
  	BorderColor #0060a8
	FontColor #0060a8
	BorderThickness 2
}


skinparam state {
		FontColor #C8Ac00
	BorderColor #333333
	BackgroundColor #333333-#333333
	StartColor #0060a8
	EndColor #0060a8
	AttributeFontColor #fefefe
	AttributeFontSize 11
}


skinparam queue {
		FontColor #C8Ac00
	BorderColor #333333
	BackgroundColor #333333-#333333
}


skinparam card {
	BackgroundColor #0060a8
	BorderColor #004d86
	FontColor $INFO_TEXT
}


skinparam file {
	BackgroundColor #6d6d6d-#484848
	BorderColor #0060a8
	FontColor #fefefe
}


skinparam stack {
		FontColor #C8Ac00
	BorderColor #333333
	BackgroundColor #333333-#333333
}

    
    title "aonia-map-utilities-geojson"
    
    artifact kryo
    artifact minlog
    artifact reflectasm
    artifact jackson_annotations
    artifact gson
    artifact aonia_map_geography
    artifact aonia_map_measurements
    artifact aonia_map_utilities_geojson
    artifact kivakit_build_metadata
    artifact kivakit_core_collections
    artifact kivakit_core_commandline
    artifact kivakit_core_kernel
    artifact kivakit_core_resource
    artifact kivakit_core_serialization_core
    artifact kivakit_core_serialization_json
    artifact kivakit_core_serialization_kryo
    artifact kivakit_core_test
    artifact kivakit_data_compression
    artifact kivakit_math
    artifact lexakai_annotations
    artifact kryo_serializers
    artifact swagger_annotations
    artifact junit
    artifact commons_math
    artifact hamcrest_core
    artifact annotations
    artifact objenesis
    artifact asm
    aonia_map_geography - -> aonia_map_measurements
    aonia_map_geography - -> kivakit_core_collections
    aonia_map_geography - -> kivakit_data_compression
    aonia_map_geography - -> kivakit_math
    aonia_map_measurements - -> kivakit_core_test
    aonia_map_utilities_geojson - -> aonia_map_geography
    aonia_map_utilities_geojson - -> kivakit_core_resource
    aonia_map_utilities_geojson - -> kivakit_core_serialization_json
    junit - -> hamcrest_core
    kivakit_core_collections - -> kivakit_core_serialization_kryo
    kivakit_core_kernel - -> annotations
    kivakit_core_kernel - -> jackson_annotations
    kivakit_core_kernel - -> junit
    kivakit_core_kernel - -> kivakit_build_metadata
    kivakit_core_kernel - -> lexakai_annotations
    kivakit_core_kernel - -> swagger_annotations
    kivakit_core_resource - -> kivakit_core_commandline
    kivakit_core_resource - -> kivakit_core_serialization_core
    kivakit_core_serialization_json - -> gson
    kivakit_core_serialization_json - -> kivakit_core_kernel
    kivakit_core_serialization_kryo - -> kryo
    kivakit_core_serialization_kryo - -> kryo_serializers
    kivakit_math - -> commons_math
    kryo - -> minlog
    kryo - -> objenesis
    kryo - -> reflectasm
    reflectasm - -> asm
    
@enduml

PlantUML version 1.2021.01(Tue Feb 02 00:55:08 MST 2021)
(GPL source distribution)
Java Runtime: Java(TM) SE Runtime Environment
JVM: Java HotSpot(TM) 64-Bit Server VM
Default Encoding: UTF-8
Language: en
Country: US
--></g></svg>