<?xml version="1.0" encoding="UTF-8" standalone="no"?><svg xmlns="http://www.w3.org/2000/svg" xmlns:xlink="http://www.w3.org/1999/xlink" contentScriptType="application/ecmascript" contentStyleType="text/css" height="448.9583px" preserveAspectRatio="none" style="width:846px;height:448px;background:#333333;" version="1.1" viewBox="0 0 846 448" width="846.875px" zoomAndPan="magnify"><defs/><g><rect fill="#48494B" height="41.2028" rx="8.3333" ry="8.3333" style="stroke:#545454;stroke-width:1.0416666666666667;" width="740.625" x="46.0938" y="2.0833"/><text fill="#C0C0C0" font-family="Open Sans,Avenir,Nunito,Arial,Helvetica,SansSerif" font-size="20.8333" lengthAdjust="spacing" textLength="717.7083" x="57.5521" y="30.5583">com.telenav.aonia.map.geography.shape.polyline.compression.huffman</text><!--MD5=[093b953be813e764de2c1810942591fd]
class CompressibleCollection--><rect codeLine="6" fill="#282828" height="48.055" id="CompressibleCollection" rx="8.3333" ry="8.3333" style="stroke:#5E5E5E;stroke-width:1.0416666666666667;" width="192.7083" x="7.2917" y="95.3695"/><rect fill="#1B1B1A" height="31.3883" rx="8.3333" ry="8.3333" style="stroke:#1B1B1A;stroke-width:1.0416666666666667;" width="192.7083" x="7.2917" y="95.3695"/><rect fill="#1B1B1A" height="8.3333" style="stroke:#1B1B1A;stroke-width:1.0416666666666667;" width="192.7083" x="7.2917" y="118.4245"/><rect codeLine="6" fill="none" height="48.055" id="CompressibleCollection" rx="8.3333" ry="8.3333" style="stroke:#5E5E5E;stroke-width:1.0416666666666667;" width="192.7083" x="7.2917" y="95.3695"/><ellipse cx="21.875" cy="111.0636" fill="#008400" rx="10.4167" ry="10.4167" style="stroke:#239C23;stroke-width:1.0416666666666667;"/><path d="M18.7581,108.2255 L18.7581,106.6386 L24.1842,106.6386 L24.1842,108.2255 L22.3714,108.2255 L22.3714,114.1642 L24.1842,114.1642 L24.1842,115.7511 L18.7581,115.7511 L18.7581,114.1642 L20.5709,114.1642 L20.5709,108.2255 Z " fill="#000000"/><text fill="#D8BC00" font-family="Open Sans,Avenir,Nunito,Arial,Helvetica,SansSerif" font-size="12.5" font-style="italic" font-weight="bold" lengthAdjust="spacing" textLength="155.2083" x="38.5417" y="115.7878">CompressibleCollection</text><line style="stroke:#5E5E5E;stroke-width:1.0416666666666667;" x1="8.3333" x2="198.9583" y1="126.7578" y2="126.7578"/><line style="stroke:#5E5E5E;stroke-width:1.0416666666666667;" x1="8.3333" x2="198.9583" y1="135.0911" y2="135.0911"/><!--MD5=[eedda9a4bab0df7696b8829056aea585]
class Polyline--><rect fill="#282828" height="48.055" id="Polyline" rx="8.3333" ry="8.3333" style="stroke:#5E5E5E;stroke-width:1.0416666666666667;" width="88.5417" x="236.4583" y="95.3695"/><rect fill="#1B1B1A" height="31.3883" rx="8.3333" ry="8.3333" style="stroke:#1B1B1A;stroke-width:1.0416666666666667;" width="88.5417" x="236.4583" y="95.3695"/><rect fill="#1B1B1A" height="8.3333" style="stroke:#1B1B1A;stroke-width:1.0416666666666667;" width="88.5417" x="236.4583" y="118.4245"/><rect fill="none" height="48.055" id="Polyline" rx="8.3333" ry="8.3333" style="stroke:#5E5E5E;stroke-width:1.0416666666666667;" width="88.5417" x="236.4583" y="95.3695"/><ellipse cx="251.0417" cy="111.0636" fill="#0066CF" rx="10.4167" ry="10.4167" style="stroke:#0086EF;stroke-width:1.0416666666666667;"/><path d="M252.9521,115.4887 Q252.5248,115.7084 252.0549,115.8183 Q251.5849,115.9281 251.0661,115.9281 Q249.2228,115.9281 248.2524,114.7135 Q247.2819,113.4989 247.2819,111.204 Q247.2819,108.903 248.2524,107.6884 Q249.2228,106.4738 251.0661,106.4738 Q251.5849,106.4738 252.061,106.5837 Q252.537,106.6935 252.9521,106.9132 L252.9521,108.9152 Q252.4882,108.488 252.0518,108.2896 Q251.6154,108.0912 251.1515,108.0912 Q250.1628,108.0912 249.6592,108.8755 Q249.1557,109.6598 249.1557,111.204 Q249.1557,112.7421 249.6592,113.5264 Q250.1628,114.3107 251.1515,114.3107 Q251.6154,114.3107 252.0518,114.1123 Q252.4882,113.914 252.9521,113.4867 Z " fill="#000000"/><text fill="#D8BC00" font-family="Open Sans,Avenir,Nunito,Arial,Helvetica,SansSerif" font-size="12.5" font-weight="bold" lengthAdjust="spacing" textLength="51.0417" x="267.7083" y="115.7878">Polyline</text><line style="stroke:#5E5E5E;stroke-width:1.0416666666666667;" x1="237.5" x2="323.9583" y1="126.7578" y2="126.7578"/><line style="stroke:#5E5E5E;stroke-width:1.0416666666666667;" x1="237.5" x2="323.9583" y1="135.0911" y2="135.0911"/><!--MD5=[1bcc14a42e6903962cb31adc91162a84]
class HuffmanPolyline--><rect codeLine="10" fill="#282828" height="194.6025" id="HuffmanPolyline" rx="8.3333" ry="8.3333" style="stroke:#5E5E5E;stroke-width:1.0416666666666667;" width="173.9583" x="105.2083" y="247.4528"/><rect fill="#1B1B1A" height="31.3883" rx="8.3333" ry="8.3333" style="stroke:#1B1B1A;stroke-width:1.0416666666666667;" width="173.9583" x="105.2083" y="247.4528"/><rect fill="#1B1B1A" height="8.3333" style="stroke:#1B1B1A;stroke-width:1.0416666666666667;" width="173.9583" x="105.2083" y="270.5078"/><rect codeLine="10" fill="none" height="194.6025" id="HuffmanPolyline" rx="8.3333" ry="8.3333" style="stroke:#5E5E5E;stroke-width:1.0416666666666667;" width="173.9583" x="105.2083" y="247.4528"/><ellipse cx="132.9167" cy="263.147" fill="#0066CF" rx="10.4167" ry="10.4167" style="stroke:#0086EF;stroke-width:1.0416666666666667;"/><path d="M134.8271,267.572 Q134.3998,267.7917 133.9299,267.9016 Q133.4599,268.0115 132.9411,268.0115 Q131.0978,268.0115 130.1274,266.7969 Q129.1569,265.5823 129.1569,263.2874 Q129.1569,260.9863 130.1274,259.7717 Q131.0978,258.5571 132.9411,258.5571 Q133.4599,258.5571 133.936,258.667 Q134.412,258.7769 134.8271,258.9966 L134.8271,260.9985 Q134.3632,260.5713 133.9268,260.3729 Q133.4904,260.1746 133.0265,260.1746 Q132.0378,260.1746 131.5342,260.9589 Q131.0307,261.7432 131.0307,263.2874 Q131.0307,264.8254 131.5342,265.6097 Q132.0378,266.394 133.0265,266.394 Q133.4904,266.394 133.9268,266.1957 Q134.3632,265.9973 134.8271,265.5701 Z " fill="#000000"/><text fill="#D8BC00" font-family="Open Sans,Avenir,Nunito,Arial,Helvetica,SansSerif" font-size="12.5" font-weight="bold" lengthAdjust="spacing" textLength="107.2917" x="152.5" y="267.8711">HuffmanPolyline</text><line style="stroke:#5E5E5E;stroke-width:1.5625;" x1="106.25" x2="278.125" y1="278.8411" y2="278.8411"/><polygon fill="#FFFF44" points="116.6667,309.0027,120.8333,313.1694,116.6667,317.336,112.5,313.1694" style="stroke:#B38D22;stroke-width:1.0416666666666667;"/><text fill="#D8BC00" font-family="Open Sans,Avenir,Nunito,Arial,Helvetica,SansSerif" font-size="11.4583" lengthAdjust="spacing" textLength="98.9583" x="128.125" y="321.1222">HuffmanPolyline()</text><ellipse cx="116.6667" cy="333.9559" fill="#84BE84" rx="3.125" ry="3.125" style="stroke:#038048;stroke-width:1.0416666666666667;"/><text fill="#D8BC00" font-family="Open Sans,Avenir,Nunito,Arial,Helvetica,SansSerif" font-size="11.4583" lengthAdjust="spacing" textLength="141.6667" x="128.125" y="340.8671">HuffmanPolyline(ByteList)</text><ellipse cx="116.6667" cy="353.7008" fill="#84BE84" rx="3.125" ry="3.125" style="stroke:#038048;stroke-width:1.0416666666666667;"/><text fill="#D8BC00" font-family="Open Sans,Avenir,Nunito,Arial,Helvetica,SansSerif" font-size="11.4583" lengthAdjust="spacing" textLength="141.6667" x="128.125" y="360.612">HuffmanPolyline(Polyline)</text><line style="stroke:#5E5E5E;stroke-width:1.0416666666666667;" x1="106.25" x2="148.4375" y1="297.0469" y2="297.0469"/><text fill="#D8BC00" font-family="Open Sans,Avenir,Nunito,Arial,Helvetica,SansSerif" font-size="11.4583" lengthAdjust="spacing" textLength="81.25" x="151.5625" y="300.8565">(constructors)</text><line style="stroke:#5E5E5E;stroke-width:1.0416666666666667;" x1="235.9375" x2="278.125" y1="297.0469" y2="297.0469"/><line style="stroke:#5E5E5E;stroke-width:1.0416666666666667;" x1="106.25" x2="278.125" y1="370.3206" y2="370.3206"/><ellipse cx="116.6667" cy="381.779" fill="#84BE84" rx="3.125" ry="3.125" style="stroke:#038048;stroke-width:1.0416666666666667;"/><text fill="#D8BC00" font-family="Open Sans,Avenir,Nunito,Arial,Helvetica,SansSerif" font-size="11.4583" lengthAdjust="spacing" textLength="122.9167" x="128.125" y="388.6902">Polyline decompress()</text><ellipse cx="116.6667" cy="425.4354" fill="#84BE84" rx="3.125" ry="3.125" style="stroke:#038048;stroke-width:1.0416666666666667;"/><text fill="#D8BC00" font-family="Open Sans,Avenir,Nunito,Arial,Helvetica,SansSerif" font-size="11.4583" lengthAdjust="spacing" textLength="95.8333" x="128.125" y="432.3466">ByteList asBytes()</text><line style="stroke:#5E5E5E;stroke-width:1.0416666666666667;" x1="106.25" x2="160.4167" y1="408.2713" y2="408.2713"/><text fill="#D8BC00" font-family="Open Sans,Avenir,Nunito,Arial,Helvetica,SansSerif" font-size="11.4583" lengthAdjust="spacing" textLength="57.2917" x="163.5417" y="412.0809">(primitive)</text><line style="stroke:#5E5E5E;stroke-width:1.0416666666666667;" x1="223.9583" x2="278.125" y1="408.2713" y2="408.2713"/><!--MD5=[7ebb04c0e1e664292e48a4e4609e8bd7]
class HuffmanPolylineCodec--><rect codeLine="22" fill="#282828" height="131.2012" id="HuffmanPolylineCodec" rx="8.3333" ry="8.3333" style="stroke:#5E5E5E;stroke-width:1.0416666666666667;" width="252.0833" x="361.9792" y="53.7028"/><rect fill="#1B1B1A" height="31.3883" rx="8.3333" ry="8.3333" style="stroke:#1B1B1A;stroke-width:1.0416666666666667;" width="252.0833" x="361.9792" y="53.7028"/><rect fill="#1B1B1A" height="8.3333" style="stroke:#1B1B1A;stroke-width:1.0416666666666667;" width="252.0833" x="361.9792" y="76.7578"/><rect codeLine="22" fill="none" height="131.2012" id="HuffmanPolylineCodec" rx="8.3333" ry="8.3333" style="stroke:#5E5E5E;stroke-width:1.0416666666666667;" width="252.0833" x="361.9792" y="53.7028"/><ellipse cx="407.2917" cy="69.397" fill="#0066CF" rx="10.4167" ry="10.4167" style="stroke:#0086EF;stroke-width:1.0416666666666667;"/><path d="M409.2021,73.822 Q408.7748,74.0417 408.3049,74.1516 Q407.8349,74.2615 407.3161,74.2615 Q405.4728,74.2615 404.5024,73.0469 Q403.5319,71.8323 403.5319,69.5374 Q403.5319,67.2363 404.5024,66.0217 Q405.4728,64.8071 407.3161,64.8071 Q407.8349,64.8071 408.311,64.917 Q408.787,65.0269 409.2021,65.2466 L409.2021,67.2485 Q408.7382,66.8213 408.3018,66.6229 Q407.8654,66.4246 407.4015,66.4246 Q406.4128,66.4246 405.9092,67.2089 Q405.4057,67.9932 405.4057,69.5374 Q405.4057,71.0754 405.9092,71.8597 Q406.4128,72.644 407.4015,72.644 Q407.8654,72.644 408.3018,72.4457 Q408.7382,72.2473 409.2021,71.8201 Z " fill="#000000"/><text fill="#D8BC00" font-family="Open Sans,Avenir,Nunito,Arial,Helvetica,SansSerif" font-size="12.5" font-weight="bold" lengthAdjust="spacing" textLength="146.875" x="430.2083" y="74.1211">HuffmanPolylineCodec</text><line style="stroke:#5E5E5E;stroke-width:1.5625;" x1="363.0208" x2="613.0208" y1="85.0911" y2="85.0911"/><ellipse cx="373.4375" cy="120.461" fill="#84BE84" rx="3.125" ry="3.125" style="stroke:#038048;stroke-width:1.0416666666666667;"/><text fill="#D8BC00" font-family="Open Sans,Avenir,Nunito,Arial,Helvetica,SansSerif" font-size="11.4583" lengthAdjust="spacing" textLength="134.375" x="384.8958" y="127.3722">HuffmanPolylineCodec()</text><line style="stroke:#5E5E5E;stroke-width:1.0416666666666667;" x1="363.0208" x2="444.2708" y1="103.2969" y2="103.2969"/><text fill="#D8BC00" font-family="Open Sans,Avenir,Nunito,Arial,Helvetica,SansSerif" font-size="11.4583" lengthAdjust="spacing" textLength="81.25" x="447.3958" y="107.1065">(constructors)</text><line style="stroke:#5E5E5E;stroke-width:1.0416666666666667;" x1="531.7708" x2="613.0208" y1="103.2969" y2="103.2969"/><line style="stroke:#5E5E5E;stroke-width:1.0416666666666667;" x1="363.0208" x2="613.0208" y1="137.0809" y2="137.0809"/><ellipse cx="373.4375" cy="148.5392" fill="#84BE84" rx="3.125" ry="3.125" style="stroke:#038048;stroke-width:1.0416666666666667;"/><text fill="#D8BC00" font-family="Open Sans,Avenir,Nunito,Arial,Helvetica,SansSerif" font-size="11.4583" lengthAdjust="spacing" textLength="160.4167" x="384.8958" y="155.4504">long[] decode(ByteList input)</text><ellipse cx="373.4375" cy="168.2841" fill="#84BE84" rx="3.125" ry="3.125" style="stroke:#038048;stroke-width:1.0416666666666667;"/><text fill="#D8BC00" font-family="Open Sans,Avenir,Nunito,Arial,Helvetica,SansSerif" font-size="11.4583" lengthAdjust="spacing" textLength="219.7917" x="384.8958" y="175.1953">void encode(ByteArray output, Polyline)</text><!--MD5=[bf44db367380f179c40c3108b4f7e1df]
class MapGeographyUnitTest--><rect fill="#282828" height="48.055" id="MapGeographyUnitTest" rx="8.3333" ry="8.3333" style="stroke:#5E5E5E;stroke-width:1.0416666666666667;" width="189.5833" x="650.5208" y="95.3695"/><rect fill="#1B1B1A" height="31.3883" rx="8.3333" ry="8.3333" style="stroke:#1B1B1A;stroke-width:1.0416666666666667;" width="189.5833" x="650.5208" y="95.3695"/><rect fill="#1B1B1A" height="8.3333" style="stroke:#1B1B1A;stroke-width:1.0416666666666667;" width="189.5833" x="650.5208" y="118.4245"/><rect fill="none" height="48.055" id="MapGeographyUnitTest" rx="8.3333" ry="8.3333" style="stroke:#5E5E5E;stroke-width:1.0416666666666667;" width="189.5833" x="650.5208" y="95.3695"/><ellipse cx="665.1042" cy="111.0636" fill="#0066CF" rx="10.4167" ry="10.4167" style="stroke:#0086EF;stroke-width:1.0416666666666667;"/><path d="M667.0146,115.4887 Q666.5873,115.7084 666.1174,115.8183 Q665.6474,115.9281 665.1286,115.9281 Q663.2853,115.9281 662.3149,114.7135 Q661.3444,113.4989 661.3444,111.204 Q661.3444,108.903 662.3149,107.6884 Q663.2853,106.4738 665.1286,106.4738 Q665.6474,106.4738 666.1235,106.5837 Q666.5995,106.6935 667.0146,106.9132 L667.0146,108.9152 Q666.5507,108.488 666.1143,108.2896 Q665.6779,108.0912 665.214,108.0912 Q664.2253,108.0912 663.7217,108.8755 Q663.2182,109.6598 663.2182,111.204 Q663.2182,112.7421 663.7217,113.5264 Q664.2253,114.3107 665.214,114.3107 Q665.6779,114.3107 666.1143,114.1123 Q666.5507,113.914 667.0146,113.4867 Z " fill="#000000"/><text fill="#D8BC00" font-family="Open Sans,Avenir,Nunito,Arial,Helvetica,SansSerif" font-size="12.5" font-weight="bold" lengthAdjust="spacing" textLength="152.0833" x="681.7708" y="115.7878">MapGeographyUnitTest</text><line style="stroke:#5E5E5E;stroke-width:1.0416666666666667;" x1="651.5625" x2="839.0625" y1="126.7578" y2="126.7578"/><line style="stroke:#5E5E5E;stroke-width:1.0416666666666667;" x1="651.5625" x2="839.0625" y1="135.0911" y2="135.0911"/><!--MD5=[5645a8992c378eaf89115a789243e311]
class HuffmanPolylineTest--><rect codeLine="32" fill="#282828" height="107.2896" id="HuffmanPolylineTest" rx="8.3333" ry="8.3333" style="stroke:#5E5E5E;stroke-width:1.0416666666666667;" width="172.9167" x="658.8542" y="291.2028"/><rect fill="#1B1B1A" height="31.3883" rx="8.3333" ry="8.3333" style="stroke:#1B1B1A;stroke-width:1.0416666666666667;" width="172.9167" x="658.8542" y="291.2028"/><rect fill="#1B1B1A" height="8.3333" style="stroke:#1B1B1A;stroke-width:1.0416666666666667;" width="172.9167" x="658.8542" y="314.2578"/><rect codeLine="32" fill="none" height="107.2896" id="HuffmanPolylineTest" rx="8.3333" ry="8.3333" style="stroke:#5E5E5E;stroke-width:1.0416666666666667;" width="172.9167" x="658.8542" y="291.2028"/><ellipse cx="673.4375" cy="306.897" fill="#0066CF" rx="10.4167" ry="10.4167" style="stroke:#0086EF;stroke-width:1.0416666666666667;"/><path d="M675.3479,311.322 Q674.9207,311.5417 674.4507,311.6516 Q673.9807,311.7615 673.4619,311.7615 Q671.6187,311.7615 670.6482,310.5469 Q669.6777,309.3323 669.6777,307.0374 Q669.6777,304.7363 670.6482,303.5217 Q671.6187,302.3071 673.4619,302.3071 Q673.9807,302.3071 674.4568,302.417 Q674.9329,302.5269 675.3479,302.7466 L675.3479,304.7485 Q674.884,304.3213 674.4476,304.1229 Q674.0112,303.9246 673.5474,303.9246 Q672.5586,303.9246 672.0551,304.7089 Q671.5515,305.4932 671.5515,307.0374 Q671.5515,308.5754 672.0551,309.3597 Q672.5586,310.144 673.5474,310.144 Q674.0112,310.144 674.4476,309.9457 Q674.884,309.7473 675.3479,309.3201 Z " fill="#000000"/><text fill="#D8BC00" font-family="Open Sans,Avenir,Nunito,Arial,Helvetica,SansSerif" font-size="12.5" font-weight="bold" lengthAdjust="spacing" textLength="135.4167" x="690.1042" y="311.6211">HuffmanPolylineTest</text><line style="stroke:#5E5E5E;stroke-width:1.5625;" x1="659.8958" x2="830.7292" y1="322.5911" y2="322.5911"/><line style="stroke:#5E5E5E;stroke-width:1.0416666666666667;" x1="659.8958" x2="830.7292" y1="330.9245" y2="330.9245"/><ellipse cx="670.3125" cy="342.3828" fill="#84BE84" rx="3.125" ry="3.125" style="stroke:#038048;stroke-width:1.0416666666666667;"/><text fill="#D8BC00" font-family="Open Sans,Avenir,Nunito,Arial,Helvetica,SansSerif" font-size="11.4583" lengthAdjust="spacing" textLength="131.25" x="681.7708" y="349.294">void testCompression()</text><ellipse cx="670.3125" cy="362.1277" fill="#84BE84" rx="3.125" ry="3.125" style="stroke:#038048;stroke-width:1.0416666666666667;"/><text fill="#D8BC00" font-family="Open Sans,Avenir,Nunito,Arial,Helvetica,SansSerif" font-size="11.4583" lengthAdjust="spacing" textLength="126.0417" x="681.7708" y="369.0389">void testDecompress()</text><ellipse cx="670.3125" cy="381.8726" fill="#84BE84" rx="3.125" ry="3.125" style="stroke:#038048;stroke-width:1.0416666666666667;"/><text fill="#D8BC00" font-family="Open Sans,Avenir,Nunito,Arial,Helvetica,SansSerif" font-size="11.4583" lengthAdjust="spacing" textLength="104.1667" x="681.7708" y="388.7838">void testSegment()</text><!--MD5=[26ae97c6c31d3d3ed5393d039f859fed]
reverse link Polyline to HuffmanPolyline--><path codeLine="8" d="M263.9063,162.807 C254.4375,186.7132 242.1979,217.609 230.5104,247.0882 " fill="none" id="Polyline-backto-HuffmanPolyline" style="stroke:#545454;stroke-width:1.5625;"/><polygon fill="none" points="257.1354,160.1195,271.5833,143.4424,270.6875,165.4945,257.1354,160.1195" style="stroke:#545454;stroke-width:1.5625;"/><!--MD5=[e5c6dbff31181e883d3c9887597251fe]
reverse link CompressibleCollection to HuffmanPolyline--><path codeLine="9" d="M120.4688,162.807 C129.9375,186.7132 142.1771,217.609 153.8646,247.0882 " fill="none" id="CompressibleCollection-backto-HuffmanPolyline" style="stroke:#545454;stroke-width:1.5625;"/><polygon fill="none" points="113.6875,165.4945,112.7917,143.4424,127.2396,160.1195,113.6875,165.4945" style="stroke:#545454;stroke-width:1.5625;"/><!--MD5=[6267e87fc368947c85c91955d31be236]
reverse link MapGeographyUnitTest to HuffmanPolylineTest--><path codeLine="31" d="M745.3125,164.3174 C745.3125,200.6715 745.3125,252.4007 745.3125,290.9945 " fill="none" id="MapGeographyUnitTest-backto-HuffmanPolylineTest" style="stroke:#545454;stroke-width:1.5625;"/><polygon fill="none" points="738.0208,164.2757,745.3125,143.4424,752.6042,164.2757,738.0208,164.2757" style="stroke:#545454;stroke-width:1.5625;"/><!--MD5=[3dafb710fd7017925a5faad2d4bae0bc]
@startuml

    !include ../lexakai/lexakai.theme
    
    title "com.telenav.aonia.map.geography.shape.polyline.compression.huffman"
    
    interface CompressibleCollection
    
    Polyline <|- - HuffmanPolyline
    CompressibleCollection <|- - HuffmanPolyline
    class HuffmanPolyline
    {
        - -(constructors)- -
        #HuffmanPolyline()
        +HuffmanPolyline(ByteList)
        +HuffmanPolyline(Polyline)
        - -
        +Polyline decompress()
        - -(primitive)- -
        +ByteList asBytes()
    }
    
    class HuffmanPolylineCodec
    {
        - -(constructors)- -
        +HuffmanPolylineCodec()
        - -
        +long[] decode(ByteList input)
        +void encode(ByteArray output, Polyline)
    }
    
    MapGeographyUnitTest <|- - HuffmanPolylineTest
    class HuffmanPolylineTest
    {
        - -
        +void testCompression()
        +void testDecompress()
        +void testSegment()
    }
    
@enduml

@startuml









skinparam backgroundColor #333333






skinparam  {
    defaultFontName   "Open Sans,Avenir,Nunito,Arial,Helvetica,SansSerif"
    defaultFontSize   12
    defaultTextAlignment left
    shadowing false
    RoundCorner 10
    TitleFontSize 18
}

skinparam defaultFontName       "Open Sans,Avenir,Nunito,Arial,Helvetica,SansSerif"
skinparam defaultFontSize       12
skinparam dpi                   100
skinparam shadowing             false
skinparam roundcorner           16
skinparam ParticipantPadding    40
skinparam BoxPadding            40
skinparam Padding               3
skinparam ArrowColor            #545454
skinparam stereotype {
    CBackgroundColor #0066cf
    CBorderColor #0086ef
    ABackgroundColor #C8Ac00
    ABorderColor #D8Bc00
    IBackgroundColor #008400
    IBorderColor #239c23
    EBackgroundColor #cf6300
    EBorderColor #ef8300
    NBackgroundColor #3380b9
    NBorderColor #004d86
}
skinparam title {
	FontColor	                 #c0c0c0
 	BorderColor                  #545454
	FontSize	    	         20
	BorderRoundCorner            16
	BorderThickness 	         1
	BackgroundColor              #48494b
}


skinparam legend {
	BackgroundColor #303030
	BorderColor #404040
	FontColor #a0a0a0
}

	skinparam swimlane {
	BorderColor #5e5e5e
	BorderThickness 2
	TitleBackgroundColor  #6d6d6d-#484848
	TitleFontColor #303030
}

skinparam activity {
		FontColor #C8Ac00
	BorderColor #333333
	BackgroundColor #333333-#333333
	BarColor #00FF00
	StartColor #0060a8
	EndColor #0060a8
	DiamondBackgroundColor #6d6d6d-#3a3a3a
  	DiamondBorderColor #3a3a3a
  	DiamondFontColor #fefefe
}


skinparam participant {
		FontColor #C8Ac00
	BorderColor #333333
	BackgroundColor #333333-#333333
	ParticipantBorderThickness 2
}


skinparam actor {
		FontColor #C8Ac00
	BorderColor #333333
	BackgroundColor #333333-#333333
}


skinparam arrow {
	Thickness 1.5
	Color #545454
	FontColor #a0a0a0
    FontStyle bold
    MessageAlignment center
}



skinparam sequence {
	BorderColor #303030
	TitleFontColor #303030
	BackgroundColor #333333
	StartColor #303030
	EndColor #303030
	BoxBackgroundColor #333333
	BoxBorderColor #484848
	BoxFontColor #484848
	LifeLineBorderColor #484848
	LifeLineBorderThickness 2
	LifeLineBackgroundColor #3a3a3a
	GroupBorderColor #484848
	GroupFontColor #484848
	GroupHeaderFontColor #0060a8
	GroupBackgroundColor #484848
	GroupHeaderBackgroundColor #333333
	DividerBackgroundColor #484848
    DividerBorderColor #484848
    DividerBorderThickness 2
    DividerFontColor #D8Bc00
	ReferenceBackgroundColor #333333
	ReferenceBorderColor #484848
	ReferenceFontColor #fefefe
	ReferenceHeaderBackgroundColor #484848
}


skinparam partition {
	BorderColor #303030
	FontColor #333333
	BackgroundColor #333333
}


skinparam collections {
		FontColor #C8Ac00
	BorderColor #333333
	BackgroundColor #333333-#333333
}


skinparam control {
		FontColor #C8Ac00
	BorderColor #333333
	BackgroundColor #333333-#333333
}


skinparam entity {
		FontColor #C8Ac00
	BorderColor #333333
	BackgroundColor #333333-#333333
}


skinparam boundary {
		FontColor #C8Ac00
	BorderColor #333333
	BackgroundColor #333333-#333333
}


skinparam agent {
	BackgroundColor #ff8000
	BorderColor #ff9933
	FontColor #484848
}


skinparam note {
	BorderThickness 1
	BackgroundColor #1b1b1a
	BorderColor #5e5e5e
	FontSize 11
	FontColor #a0a0a0
}


skinparam artifact {
	BorderThickness 10
	BorderColor #5e5e5e
	BackgroundColor #1b1b1a
	FontColor #D8Bc00
}


skinparam component {
		FontColor #C8Ac00
	BorderColor #333333
	BackgroundColor #333333-#333333
}


skinparam interface {
	BackgroundColor  #008400
	BorderColor  #007F00
	FontColor #484848
}


skinparam storage {
	BackgroundColor #ff8000
  	BorderColor #cc6600
	FontColor #222222
}


skinparam node {
	BackgroundColor #333333
	BorderColor #333333
	FontColor #C8Ac00
}


skinparam cloud {
	BackgroundColor #484848-black
	BorderColor #484848
	FontColor #D8Bc00
}


skinparam database {
		FontColor #C8Ac00
	BorderColor #333333
	BackgroundColor #333333-#333333
	BackgroundColor  #333333
}


skinparam class {
		FontColor #C8Ac00
	BorderColor #333333
	BackgroundColor #333333-#333333
	HeaderBackgroundColor #1b1b1a
    BackgroundColor #282828
    BorderColor #5e5e5e
 	StereotypeFontColor #a0a0a0
    StereotypeFontStyle bold
	BorderThickness 1
	AttributeFontColor #D8Bc00
	AttributeFontSize 11
    FontColor #D8Bc00
    FontStyle bold
}


skinparam object {
		FontColor #C8Ac00
	BorderColor #333333
	BackgroundColor #333333-#333333
	StereotypeFontColor #484848
	BorderThickness 1
	AttributeFontColor #fefefe
	AttributeFontSize 11
}


skinparam usecase {
		FontColor #C8Ac00
	BorderColor #333333
	BackgroundColor #333333-#333333
	BorderThickness 2
	StereotypeFontColor #303030
}


skinparam rectangle {
		FontColor #C8Ac00
	BorderColor #333333
	BackgroundColor #333333-#333333
	BackgroundColor #333333
	BorderThickness 2
	StereotypeFontColor #303030
}


skinparam package {
		FontColor #C8Ac00
	BorderColor #333333
	BackgroundColor #333333-#333333
	BackgroundColor #333333
	BorderThickness 2
}


skinparam folder {
	BackgroundColor #6d6d6d
  	BorderColor #ff8000
	FontColor #ff8000
	BorderThickness 2
}


skinparam frame {
	BackgroundColor #6d6d6d
  	BorderColor #0060a8
	FontColor #0060a8
	BorderThickness 2
}


skinparam state {
		FontColor #C8Ac00
	BorderColor #333333
	BackgroundColor #333333-#333333
	StartColor #0060a8
	EndColor #0060a8
	AttributeFontColor #fefefe
	AttributeFontSize 11
}


skinparam queue {
		FontColor #C8Ac00
	BorderColor #333333
	BackgroundColor #333333-#333333
}


skinparam card {
	BackgroundColor #0060a8
	BorderColor #004d86
	FontColor $INFO_TEXT
}


skinparam file {
	BackgroundColor #6d6d6d-#484848
	BorderColor #0060a8
	FontColor #fefefe
}


skinparam stack {
		FontColor #C8Ac00
	BorderColor #333333
	BackgroundColor #333333-#333333
}

    
    title "com.telenav.aonia.map.geography.shape.polyline.compression.huffman"
    
    interface CompressibleCollection
    
    Polyline <|- - HuffmanPolyline
    CompressibleCollection <|- - HuffmanPolyline
    class HuffmanPolyline
    {
        - -(constructors)- -
        #HuffmanPolyline()
        +HuffmanPolyline(ByteList)
        +HuffmanPolyline(Polyline)
        - -
        +Polyline decompress()
        - -(primitive)- -
        +ByteList asBytes()
    }
    
    class HuffmanPolylineCodec
    {
        - -(constructors)- -
        +HuffmanPolylineCodec()
        - -
        +long[] decode(ByteList input)
        +void encode(ByteArray output, Polyline)
    }
    
    MapGeographyUnitTest <|- - HuffmanPolylineTest
    class HuffmanPolylineTest
    {
        - -
        +void testCompression()
        +void testDecompress()
        +void testSegment()
    }
    
@enduml

PlantUML version 1.2021.01(Tue Feb 02 00:55:08 MST 2021)
(GPL source distribution)
Java Runtime: Java(TM) SE Runtime Environment
JVM: Java HotSpot(TM) 64-Bit Server VM
Default Encoding: UTF-8
Language: en
Country: US
--></g></svg>