<?xml version="1.0" encoding="UTF-8" standalone="no"?><svg xmlns="http://www.w3.org/2000/svg" xmlns:xlink="http://www.w3.org/1999/xlink" contentScriptType="application/ecmascript" contentStyleType="text/css" height="261.4583px" preserveAspectRatio="none" style="width:880px;height:261px;background:#333333;" version="1.1" viewBox="0 0 880 261" width="880.2083px" zoomAndPan="magnify"><defs/><g><rect fill="#48494B" height="41.2028" rx="8.3333" ry="8.3333" style="stroke:#545454;stroke-width:1.0416666666666667;" width="551.0417" x="157.2917" y="2.0833"/><text fill="#C0C0C0" font-family="Open Sans,Avenir,Nunito,Arial,Helvetica,SansSerif" font-size="20.8333" lengthAdjust="spacing" textLength="528.125" x="168.75" y="30.5583">com.telenav.aonia.map.geography.indexing.segment</text><!--MD5=[616a3276378d843f2857f91063642d2a]
cluster SegmentRTreeSpatialIndex--><polygon fill="#333333" points="234.8958,132.8695,419.2708,132.8695,426.5625,160.0911,450.5208,160.0911,450.5208,254.7445,234.8958,254.7445,234.8958,132.8695" style="stroke:#333333;stroke-width:2.0833333333333335;"/><line style="stroke:#333333;stroke-width:2.0833333333333335;" x1="234.8958" x2="426.5625" y1="160.0911" y2="160.0911"/><text fill="#C8AC00" font-family="Open Sans,Avenir,Nunito,Arial,Helvetica,SansSerif" font-size="12.5" font-weight="bold" lengthAdjust="spacing" textLength="171.875" x="242.1875" y="150.1628">SegmentRTreeSpatialIndex</text><!--MD5=[41101e28e3dc5bcd6161101c325fc548]
class SegmentRTreeSpatialIndex.CompressedLeaf--><rect codeLine="9" fill="#282828" height="48.055" id="SegmentRTreeSpatialIndex.CompressedLeaf" rx="8.3333" ry="8.3333" style="stroke:#5E5E5E;stroke-width:1.0416666666666667;" width="145.8333" x="279.6875" y="181.8278"/><rect fill="#1B1B1A" height="31.3883" rx="8.3333" ry="8.3333" style="stroke:#1B1B1A;stroke-width:1.0416666666666667;" width="145.8333" x="279.6875" y="181.8278"/><rect fill="#1B1B1A" height="8.3333" style="stroke:#1B1B1A;stroke-width:1.0416666666666667;" width="145.8333" x="279.6875" y="204.8828"/><rect codeLine="9" fill="none" height="48.055" id="SegmentRTreeSpatialIndex.CompressedLeaf" rx="8.3333" ry="8.3333" style="stroke:#5E5E5E;stroke-width:1.0416666666666667;" width="145.8333" x="279.6875" y="181.8278"/><ellipse cx="294.2708" cy="197.522" fill="#0066CF" rx="10.4167" ry="10.4167" style="stroke:#0086EF;stroke-width:1.0416666666666667;"/><path d="M296.1812,201.947 Q295.754,202.1667 295.284,202.2766 Q294.814,202.3865 294.2952,202.3865 Q292.452,202.3865 291.4815,201.1719 Q290.5111,199.9573 290.5111,197.6624 Q290.5111,195.3613 291.4815,194.1467 Q292.452,192.9321 294.2952,192.9321 Q294.814,192.9321 295.2901,193.042 Q295.7662,193.1519 296.1812,193.3716 L296.1812,195.3735 Q295.7174,194.9463 295.281,194.7479 Q294.8446,194.5496 294.3807,194.5496 Q293.3919,194.5496 292.8884,195.3339 Q292.3848,196.1182 292.3848,197.6624 Q292.3848,199.2004 292.8884,199.9847 Q293.3919,200.769 294.3807,200.769 Q294.8446,200.769 295.281,200.5707 Q295.7174,200.3723 296.1812,199.9451 Z " fill="#000000"/><text fill="#D8BC00" font-family="Open Sans,Avenir,Nunito,Arial,Helvetica,SansSerif" font-size="12.5" font-weight="bold" lengthAdjust="spacing" textLength="108.3333" x="310.9375" y="202.2461">CompressedLeaf</text><line style="stroke:#5E5E5E;stroke-width:1.0416666666666667;" x1="280.7292" x2="424.4792" y1="213.2161" y2="213.2161"/><line style="stroke:#5E5E5E;stroke-width:1.0416666666666667;" x1="280.7292" x2="424.4792" y1="221.5495" y2="221.5495"/><!--MD5=[b4fa10df80476353258f72a232547d63]
class AbstractList--><rect codeLine="6" fill="#282828" height="48.055" id="AbstractList" rx="8.3333" ry="8.3333" style="stroke:#5E5E5E;stroke-width:1.0416666666666667;" width="115.625" x="48.9583" y="53.7028"/><rect fill="#1B1B1A" height="31.3883" rx="8.3333" ry="8.3333" style="stroke:#1B1B1A;stroke-width:1.0416666666666667;" width="115.625" x="48.9583" y="53.7028"/><rect fill="#1B1B1A" height="8.3333" style="stroke:#1B1B1A;stroke-width:1.0416666666666667;" width="115.625" x="48.9583" y="76.7578"/><rect codeLine="6" fill="none" height="48.055" id="AbstractList" rx="8.3333" ry="8.3333" style="stroke:#5E5E5E;stroke-width:1.0416666666666667;" width="115.625" x="48.9583" y="53.7028"/><ellipse cx="63.5417" cy="69.397" fill="#C8AC00" rx="10.4167" ry="10.4167" style="stroke:#D8BC00;stroke-width:1.0416666666666667;"/><path d="M63.6556,66.099 L62.8072,69.8283 L64.5101,69.8283 Z M62.557,64.4511 L64.7603,64.4511 L67.2201,73.5636 L65.4195,73.5636 L64.858,71.3114 L62.4471,71.3114 L61.8978,73.5636 L60.0972,73.5636 Z " fill="#000000"/><text fill="#D8BC00" font-family="Open Sans,Avenir,Nunito,Arial,Helvetica,SansSerif" font-size="12.5" font-style="italic" font-weight="bold" lengthAdjust="spacing" textLength="78.125" x="80.2083" y="74.1211">AbstractList</text><line style="stroke:#5E5E5E;stroke-width:1.0416666666666667;" x1="50" x2="163.5417" y1="85.0911" y2="85.0911"/><line style="stroke:#5E5E5E;stroke-width:1.0416666666666667;" x1="50" x2="163.5417" y1="93.4245" y2="93.4245"/><!--MD5=[3670a9b67b8a752f6e42da25dea7e2da]
class Leaf--><rect fill="#282828" height="48.055" id="Leaf" rx="8.3333" ry="8.3333" style="stroke:#5E5E5E;stroke-width:1.0416666666666667;" width="64.5833" x="320.3125" y="53.7028"/><rect fill="#1B1B1A" height="31.3883" rx="8.3333" ry="8.3333" style="stroke:#1B1B1A;stroke-width:1.0416666666666667;" width="64.5833" x="320.3125" y="53.7028"/><rect fill="#1B1B1A" height="8.3333" style="stroke:#1B1B1A;stroke-width:1.0416666666666667;" width="64.5833" x="320.3125" y="76.7578"/><rect fill="none" height="48.055" id="Leaf" rx="8.3333" ry="8.3333" style="stroke:#5E5E5E;stroke-width:1.0416666666666667;" width="64.5833" x="320.3125" y="53.7028"/><ellipse cx="334.8958" cy="69.397" fill="#0066CF" rx="10.4167" ry="10.4167" style="stroke:#0086EF;stroke-width:1.0416666666666667;"/><path d="M336.8062,73.822 Q336.379,74.0417 335.909,74.1516 Q335.439,74.2615 334.9202,74.2615 Q333.077,74.2615 332.1065,73.0469 Q331.1361,71.8323 331.1361,69.5374 Q331.1361,67.2363 332.1065,66.0217 Q333.077,64.8071 334.9202,64.8071 Q335.439,64.8071 335.9151,64.917 Q336.3912,65.0269 336.8062,65.2466 L336.8062,67.2485 Q336.3424,66.8213 335.906,66.6229 Q335.4696,66.4246 335.0057,66.4246 Q334.0169,66.4246 333.5134,67.2089 Q333.0098,67.9932 333.0098,69.5374 Q333.0098,71.0754 333.5134,71.8597 Q334.0169,72.644 335.0057,72.644 Q335.4696,72.644 335.906,72.4457 Q336.3424,72.2473 336.8062,71.8201 Z " fill="#000000"/><text fill="#D8BC00" font-family="Open Sans,Avenir,Nunito,Arial,Helvetica,SansSerif" font-size="12.5" font-weight="bold" lengthAdjust="spacing" textLength="27.0833" x="351.5625" y="74.1211">Leaf</text><line style="stroke:#5E5E5E;stroke-width:1.0416666666666667;" x1="321.3542" x2="383.8542" y1="85.0911" y2="85.0911"/><line style="stroke:#5E5E5E;stroke-width:1.0416666666666667;" x1="321.3542" x2="383.8542" y1="93.4245" y2="93.4245"/><!--MD5=[208f1671efc00d332056053d17ea9133]
class CompressedSegmentList--><rect codeLine="14" fill="#282828" height="48.055" id="CompressedSegmentList" rx="8.3333" ry="8.3333" style="stroke:#5E5E5E;stroke-width:1.0416666666666667;" width="198.9583" x="7.2917" y="181.8278"/><rect fill="#1B1B1A" height="31.3883" rx="8.3333" ry="8.3333" style="stroke:#1B1B1A;stroke-width:1.0416666666666667;" width="198.9583" x="7.2917" y="181.8278"/><rect fill="#1B1B1A" height="8.3333" style="stroke:#1B1B1A;stroke-width:1.0416666666666667;" width="198.9583" x="7.2917" y="204.8828"/><rect codeLine="14" fill="none" height="48.055" id="CompressedSegmentList" rx="8.3333" ry="8.3333" style="stroke:#5E5E5E;stroke-width:1.0416666666666667;" width="198.9583" x="7.2917" y="181.8278"/><ellipse cx="21.875" cy="197.522" fill="#0066CF" rx="10.4167" ry="10.4167" style="stroke:#0086EF;stroke-width:1.0416666666666667;"/><path d="M23.7854,201.947 Q23.3582,202.1667 22.8882,202.2766 Q22.4182,202.3865 21.8994,202.3865 Q20.0562,202.3865 19.0857,201.1719 Q18.1152,199.9573 18.1152,197.6624 Q18.1152,195.3613 19.0857,194.1467 Q20.0562,192.9321 21.8994,192.9321 Q22.4182,192.9321 22.8943,193.042 Q23.3704,193.1519 23.7854,193.3716 L23.7854,195.3735 Q23.3215,194.9463 22.8851,194.7479 Q22.4487,194.5496 21.9849,194.5496 Q20.9961,194.5496 20.4926,195.3339 Q19.989,196.1182 19.989,197.6624 Q19.989,199.2004 20.4926,199.9847 Q20.9961,200.769 21.9849,200.769 Q22.4487,200.769 22.8851,200.5707 Q23.3215,200.3723 23.7854,199.9451 Z " fill="#000000"/><text fill="#D8BC00" font-family="Open Sans,Avenir,Nunito,Arial,Helvetica,SansSerif" font-size="12.5" font-weight="bold" lengthAdjust="spacing" textLength="161.4583" x="38.5417" y="202.2461">CompressedSegmentList</text><line style="stroke:#5E5E5E;stroke-width:1.0416666666666667;" x1="8.3333" x2="205.2083" y1="213.2161" y2="213.2161"/><line style="stroke:#5E5E5E;stroke-width:1.0416666666666667;" x1="8.3333" x2="205.2083" y1="221.5495" y2="221.5495"/><!--MD5=[15f6998b248c0726664b9d827148f7fc]
class RTreeSpatialIndex--><rect fill="#282828" height="48.055" id="RTreeSpatialIndex" rx="8.3333" ry="8.3333" style="stroke:#5E5E5E;stroke-width:1.0416666666666667;" width="153.125" x="597.9167" y="53.7028"/><rect fill="#1B1B1A" height="31.3883" rx="8.3333" ry="8.3333" style="stroke:#1B1B1A;stroke-width:1.0416666666666667;" width="153.125" x="597.9167" y="53.7028"/><rect fill="#1B1B1A" height="8.3333" style="stroke:#1B1B1A;stroke-width:1.0416666666666667;" width="153.125" x="597.9167" y="76.7578"/><rect fill="none" height="48.055" id="RTreeSpatialIndex" rx="8.3333" ry="8.3333" style="stroke:#5E5E5E;stroke-width:1.0416666666666667;" width="153.125" x="597.9167" y="53.7028"/><ellipse cx="612.5" cy="69.397" fill="#0066CF" rx="10.4167" ry="10.4167" style="stroke:#0086EF;stroke-width:1.0416666666666667;"/><path d="M614.4104,73.822 Q613.9832,74.0417 613.5132,74.1516 Q613.0432,74.2615 612.5244,74.2615 Q610.6812,74.2615 609.7107,73.0469 Q608.7402,71.8323 608.7402,69.5374 Q608.7402,67.2363 609.7107,66.0217 Q610.6812,64.8071 612.5244,64.8071 Q613.0432,64.8071 613.5193,64.917 Q613.9954,65.0269 614.4104,65.2466 L614.4104,67.2485 Q613.9465,66.8213 613.5101,66.6229 Q613.0737,66.4246 612.6099,66.4246 Q611.6211,66.4246 611.1176,67.2089 Q610.614,67.9932 610.614,69.5374 Q610.614,71.0754 611.1176,71.8597 Q611.6211,72.644 612.6099,72.644 Q613.0737,72.644 613.5101,72.4457 Q613.9465,72.2473 614.4104,71.8201 Z " fill="#000000"/><text fill="#D8BC00" font-family="Open Sans,Avenir,Nunito,Arial,Helvetica,SansSerif" font-size="12.5" font-weight="bold" lengthAdjust="spacing" textLength="115.625" x="629.1667" y="74.1211">RTreeSpatialIndex</text><line style="stroke:#5E5E5E;stroke-width:1.0416666666666667;" x1="598.9583" x2="750" y1="85.0911" y2="85.0911"/><line style="stroke:#5E5E5E;stroke-width:1.0416666666666667;" x1="598.9583" x2="750" y1="93.4245" y2="93.4245"/><!--MD5=[62038d440ac4dbb301a9263ec30274f9]
class SegmentRTreeSpatialIndex--><rect codeLine="19" fill="#282828" height="83.3781" id="SegmentRTreeSpatialIndex" rx="8.3333" ry="8.3333" style="stroke:#5E5E5E;stroke-width:1.0416666666666667;" width="396.875" x="476.0417" y="164.1195"/><rect fill="#1B1B1A" height="31.3883" rx="8.3333" ry="8.3333" style="stroke:#1B1B1A;stroke-width:1.0416666666666667;" width="396.875" x="476.0417" y="164.1195"/><rect fill="#1B1B1A" height="8.3333" style="stroke:#1B1B1A;stroke-width:1.0416666666666667;" width="396.875" x="476.0417" y="187.1745"/><rect codeLine="19" fill="none" height="83.3781" id="SegmentRTreeSpatialIndex" rx="8.3333" ry="8.3333" style="stroke:#5E5E5E;stroke-width:1.0416666666666667;" width="396.875" x="476.0417" y="164.1195"/><ellipse cx="581.25" cy="179.8136" fill="#0066CF" rx="10.4167" ry="10.4167" style="stroke:#0086EF;stroke-width:1.0416666666666667;"/><path d="M583.1604,184.2387 Q582.7332,184.4584 582.2632,184.5683 Q581.7932,184.6781 581.2744,184.6781 Q579.4312,184.6781 578.4607,183.4635 Q577.4902,182.2489 577.4902,179.954 Q577.4902,177.653 578.4607,176.4384 Q579.4312,175.2238 581.2744,175.2238 Q581.7932,175.2238 582.2693,175.3337 Q582.7454,175.4435 583.1604,175.6632 L583.1604,177.6652 Q582.6965,177.238 582.2601,177.0396 Q581.8237,176.8412 581.3599,176.8412 Q580.3711,176.8412 579.8676,177.6255 Q579.364,178.4098 579.364,179.954 Q579.364,181.4921 579.8676,182.2764 Q580.3711,183.0607 581.3599,183.0607 Q581.8237,183.0607 582.2601,182.8623 Q582.6965,182.664 583.1604,182.2367 Z " fill="#000000"/><text fill="#D8BC00" font-family="Open Sans,Avenir,Nunito,Arial,Helvetica,SansSerif" font-size="12.5" font-weight="bold" lengthAdjust="spacing" textLength="171.875" x="604.1667" y="184.5378">SegmentRTreeSpatialIndex</text><line style="stroke:#5E5E5E;stroke-width:1.5625;" x1="477.0833" x2="871.875" y1="195.5078" y2="195.5078"/><ellipse cx="487.5" cy="230.8777" fill="#84BE84" rx="3.125" ry="3.125" style="stroke:#038048;stroke-width:1.0416666666666667;"/><text fill="#D8BC00" font-family="Open Sans,Avenir,Nunito,Arial,Helvetica,SansSerif" font-size="11.4583" lengthAdjust="spacing" textLength="364.5833" x="498.9583" y="237.7889">SegmentRTreeSpatialIndex(String, Maximum, Iterable&lt;Segment&gt;)</text><line style="stroke:#5E5E5E;stroke-width:1.0416666666666667;" x1="477.0833" x2="630.7292" y1="213.7136" y2="213.7136"/><text fill="#D8BC00" font-family="Open Sans,Avenir,Nunito,Arial,Helvetica,SansSerif" font-size="11.4583" lengthAdjust="spacing" textLength="81.25" x="633.8542" y="217.5232">(constructors)</text><line style="stroke:#5E5E5E;stroke-width:1.0416666666666667;" x1="718.2292" x2="871.875" y1="213.7136" y2="213.7136"/><!--MD5=[e29a8c744cf108008488d7a27bfbdb8e]
reverse link Leaf to SegmentRTreeSpatialIndex.CompressedLeaf--><path codeLine="8" d="M352.6042,122.9528 C352.6042,142.7965 352.6042,165.3799 352.6042,181.7757 " fill="none" id="Leaf-backto-SegmentRTreeSpatialIndex.CompressedLeaf" style="stroke:#545454;stroke-width:1.5625;"/><polygon fill="none" points="345.3125,122.6507,352.6042,101.8174,359.8958,122.6507,345.3125,122.6507" style="stroke:#545454;stroke-width:1.5625;"/><!--MD5=[25ea26451774b804811ee84588664b97]
reverse link AbstractList to CompressedSegmentList--><path codeLine="13" d="M106.7708,122.9528 C106.7708,142.7965 106.7708,165.3799 106.7708,181.7757 " fill="none" id="AbstractList-backto-CompressedSegmentList" style="stroke:#545454;stroke-width:1.5625;"/><polygon fill="none" points="99.4792,122.6507,106.7708,101.8174,114.0625,122.6507,99.4792,122.6507" style="stroke:#545454;stroke-width:1.5625;"/><!--MD5=[fbe406288279b08430850bf75178fff4]
reverse link RTreeSpatialIndex to SegmentRTreeSpatialIndex--><path codeLine="18" d="M674.4792,122.682 C674.4792,136.0778 674.4792,150.7445 674.4792,163.9215 " fill="none" id="RTreeSpatialIndex-backto-SegmentRTreeSpatialIndex" style="stroke:#545454;stroke-width:1.5625;"/><polygon fill="none" points="667.1875,122.6507,674.4792,101.8174,681.7708,122.6507,667.1875,122.6507" style="stroke:#545454;stroke-width:1.5625;"/><!--MD5=[b8452e1b7a33d0a3c780a68fba40fab7]
@startuml

    !include ../lexakai/lexakai.theme
    
    title "com.telenav.aonia.map.geography.indexing.segment"
    
    abstract AbstractList
    
    Leaf <|- - SegmentRTreeSpatialIndex.CompressedLeaf
    class SegmentRTreeSpatialIndex.CompressedLeaf
    {
    }
    
    AbstractList <|- - CompressedSegmentList
    class CompressedSegmentList
    {
    }
    
    RTreeSpatialIndex <|- - SegmentRTreeSpatialIndex
    class SegmentRTreeSpatialIndex
    {
        - -(constructors)- -
        +SegmentRTreeSpatialIndex(String, Maximum, Iterable<Segment>)
    }
    
@enduml

@startuml









skinparam backgroundColor #333333






skinparam  {
    defaultFontName   "Open Sans,Avenir,Nunito,Arial,Helvetica,SansSerif"
    defaultFontSize   12
    defaultTextAlignment left
    shadowing false
    RoundCorner 10
    TitleFontSize 18
}

skinparam defaultFontName       "Open Sans,Avenir,Nunito,Arial,Helvetica,SansSerif"
skinparam defaultFontSize       12
skinparam dpi                   100
skinparam shadowing             false
skinparam roundcorner           16
skinparam ParticipantPadding    40
skinparam BoxPadding            40
skinparam Padding               3
skinparam ArrowColor            #545454
skinparam stereotype {
    CBackgroundColor #0066cf
    CBorderColor #0086ef
    ABackgroundColor #C8Ac00
    ABorderColor #D8Bc00
    IBackgroundColor #008400
    IBorderColor #239c23
    EBackgroundColor #cf6300
    EBorderColor #ef8300
    NBackgroundColor #3380b9
    NBorderColor #004d86
}
skinparam title {
	FontColor	                 #c0c0c0
 	BorderColor                  #545454
	FontSize	    	         20
	BorderRoundCorner            16
	BorderThickness 	         1
	BackgroundColor              #48494b
}


skinparam legend {
	BackgroundColor #303030
	BorderColor #404040
	FontColor #a0a0a0
}

	skinparam swimlane {
	BorderColor #5e5e5e
	BorderThickness 2
	TitleBackgroundColor  #6d6d6d-#484848
	TitleFontColor #303030
}

skinparam activity {
		FontColor #C8Ac00
	BorderColor #333333
	BackgroundColor #333333-#333333
	BarColor #00FF00
	StartColor #0060a8
	EndColor #0060a8
	DiamondBackgroundColor #6d6d6d-#3a3a3a
  	DiamondBorderColor #3a3a3a
  	DiamondFontColor #fefefe
}


skinparam participant {
		FontColor #C8Ac00
	BorderColor #333333
	BackgroundColor #333333-#333333
	ParticipantBorderThickness 2
}


skinparam actor {
		FontColor #C8Ac00
	BorderColor #333333
	BackgroundColor #333333-#333333
}


skinparam arrow {
	Thickness 1.5
	Color #545454
	FontColor #a0a0a0
    FontStyle bold
    MessageAlignment center
}



skinparam sequence {
	BorderColor #303030
	TitleFontColor #303030
	BackgroundColor #333333
	StartColor #303030
	EndColor #303030
	BoxBackgroundColor #333333
	BoxBorderColor #484848
	BoxFontColor #484848
	LifeLineBorderColor #484848
	LifeLineBorderThickness 2
	LifeLineBackgroundColor #3a3a3a
	GroupBorderColor #484848
	GroupFontColor #484848
	GroupHeaderFontColor #0060a8
	GroupBackgroundColor #484848
	GroupHeaderBackgroundColor #333333
	DividerBackgroundColor #484848
    DividerBorderColor #484848
    DividerBorderThickness 2
    DividerFontColor #D8Bc00
	ReferenceBackgroundColor #333333
	ReferenceBorderColor #484848
	ReferenceFontColor #fefefe
	ReferenceHeaderBackgroundColor #484848
}


skinparam partition {
	BorderColor #303030
	FontColor #333333
	BackgroundColor #333333
}


skinparam collections {
		FontColor #C8Ac00
	BorderColor #333333
	BackgroundColor #333333-#333333
}


skinparam control {
		FontColor #C8Ac00
	BorderColor #333333
	BackgroundColor #333333-#333333
}


skinparam entity {
		FontColor #C8Ac00
	BorderColor #333333
	BackgroundColor #333333-#333333
}


skinparam boundary {
		FontColor #C8Ac00
	BorderColor #333333
	BackgroundColor #333333-#333333
}


skinparam agent {
	BackgroundColor #ff8000
	BorderColor #ff9933
	FontColor #484848
}


skinparam note {
	BorderThickness 1
	BackgroundColor #1b1b1a
	BorderColor #5e5e5e
	FontSize 11
	FontColor #a0a0a0
}


skinparam artifact {
	BorderThickness 10
	BorderColor #5e5e5e
	BackgroundColor #1b1b1a
	FontColor #D8Bc00
}


skinparam component {
		FontColor #C8Ac00
	BorderColor #333333
	BackgroundColor #333333-#333333
}


skinparam interface {
	BackgroundColor  #008400
	BorderColor  #007F00
	FontColor #484848
}


skinparam storage {
	BackgroundColor #ff8000
  	BorderColor #cc6600
	FontColor #222222
}


skinparam node {
	BackgroundColor #333333
	BorderColor #333333
	FontColor #C8Ac00
}


skinparam cloud {
	BackgroundColor #484848-black
	BorderColor #484848
	FontColor #D8Bc00
}


skinparam database {
		FontColor #C8Ac00
	BorderColor #333333
	BackgroundColor #333333-#333333
	BackgroundColor  #333333
}


skinparam class {
		FontColor #C8Ac00
	BorderColor #333333
	BackgroundColor #333333-#333333
	HeaderBackgroundColor #1b1b1a
    BackgroundColor #282828
    BorderColor #5e5e5e
 	StereotypeFontColor #a0a0a0
    StereotypeFontStyle bold
	BorderThickness 1
	AttributeFontColor #D8Bc00
	AttributeFontSize 11
    FontColor #D8Bc00
    FontStyle bold
}


skinparam object {
		FontColor #C8Ac00
	BorderColor #333333
	BackgroundColor #333333-#333333
	StereotypeFontColor #484848
	BorderThickness 1
	AttributeFontColor #fefefe
	AttributeFontSize 11
}


skinparam usecase {
		FontColor #C8Ac00
	BorderColor #333333
	BackgroundColor #333333-#333333
	BorderThickness 2
	StereotypeFontColor #303030
}


skinparam rectangle {
		FontColor #C8Ac00
	BorderColor #333333
	BackgroundColor #333333-#333333
	BackgroundColor #333333
	BorderThickness 2
	StereotypeFontColor #303030
}


skinparam package {
		FontColor #C8Ac00
	BorderColor #333333
	BackgroundColor #333333-#333333
	BackgroundColor #333333
	BorderThickness 2
}


skinparam folder {
	BackgroundColor #6d6d6d
  	BorderColor #ff8000
	FontColor #ff8000
	BorderThickness 2
}


skinparam frame {
	BackgroundColor #6d6d6d
  	BorderColor #0060a8
	FontColor #0060a8
	BorderThickness 2
}


skinparam state {
		FontColor #C8Ac00
	BorderColor #333333
	BackgroundColor #333333-#333333
	StartColor #0060a8
	EndColor #0060a8
	AttributeFontColor #fefefe
	AttributeFontSize 11
}


skinparam queue {
		FontColor #C8Ac00
	BorderColor #333333
	BackgroundColor #333333-#333333
}


skinparam card {
	BackgroundColor #0060a8
	BorderColor #004d86
	FontColor $INFO_TEXT
}


skinparam file {
	BackgroundColor #6d6d6d-#484848
	BorderColor #0060a8
	FontColor #fefefe
}


skinparam stack {
		FontColor #C8Ac00
	BorderColor #333333
	BackgroundColor #333333-#333333
}

    
    title "com.telenav.aonia.map.geography.indexing.segment"
    
    abstract AbstractList
    
    Leaf <|- - SegmentRTreeSpatialIndex.CompressedLeaf
    class SegmentRTreeSpatialIndex.CompressedLeaf
    {
    }
    
    AbstractList <|- - CompressedSegmentList
    class CompressedSegmentList
    {
    }
    
    RTreeSpatialIndex <|- - SegmentRTreeSpatialIndex
    class SegmentRTreeSpatialIndex
    {
        - -(constructors)- -
        +SegmentRTreeSpatialIndex(String, Maximum, Iterable<Segment>)
    }
    
@enduml

PlantUML version 1.2021.01(Tue Feb 02 00:55:08 MST 2021)
(GPL source distribution)
Java Runtime: Java(TM) SE Runtime Environment
JVM: Java HotSpot(TM) 64-Bit Server VM
Default Encoding: UTF-8
Language: en
Country: US
--></g></svg>