<?xml version="1.0" encoding="UTF-8" standalone="no"?><svg xmlns="http://www.w3.org/2000/svg" xmlns:xlink="http://www.w3.org/1999/xlink" contentScriptType="application/ecmascript" contentStyleType="text/css" height="480.2083px" preserveAspectRatio="none" style="width:1690px;height:480px;background:#333333;" version="1.1" viewBox="0 0 1690 480" width="1690.625px" zoomAndPan="magnify"><defs/><g><rect fill="#48494B" height="41.2028" rx="8.3333" ry="8.3333" style="stroke:#545454;stroke-width:1.0416666666666667;" width="545.8333" x="565.3646" y="2.0833"/><text fill="#C0C0C0" font-family="Open Sans,Avenir,Nunito,Arial,Helvetica,SansSerif" font-size="20.8333" lengthAdjust="spacing" textLength="522.9167" x="576.8229" y="30.5583">com.telenav.aonia.map.geography.indexing.polygon</text><!--MD5=[eb60a0db34e0f87ce571ea8e468e0925]
class Bounded--><rect codeLine="6" fill="#282828" height="48.055" id="Bounded" rx="8.3333" ry="8.3333" style="stroke:#5E5E5E;stroke-width:1.0416666666666667;" width="94.7917" x="709.8958" y="105.2653"/><rect fill="#1B1B1A" height="31.3883" rx="8.3333" ry="8.3333" style="stroke:#1B1B1A;stroke-width:1.0416666666666667;" width="94.7917" x="709.8958" y="105.2653"/><rect fill="#1B1B1A" height="8.3333" style="stroke:#1B1B1A;stroke-width:1.0416666666666667;" width="94.7917" x="709.8958" y="128.3203"/><rect codeLine="6" fill="none" height="48.055" id="Bounded" rx="8.3333" ry="8.3333" style="stroke:#5E5E5E;stroke-width:1.0416666666666667;" width="94.7917" x="709.8958" y="105.2653"/><ellipse cx="724.4792" cy="120.9595" fill="#008400" rx="10.4167" ry="10.4167" style="stroke:#239C23;stroke-width:1.0416666666666667;"/><path d="M721.3623,118.1213 L721.3623,116.5344 L726.7883,116.5344 L726.7883,118.1213 L724.9756,118.1213 L724.9756,124.0601 L726.7883,124.0601 L726.7883,125.647 L721.3623,125.647 L721.3623,124.0601 L723.175,124.0601 L723.175,118.1213 Z " fill="#000000"/><text fill="#D8BC00" font-family="Open Sans,Avenir,Nunito,Arial,Helvetica,SansSerif" font-size="12.5" font-style="italic" font-weight="bold" lengthAdjust="spacing" textLength="57.2917" x="741.1458" y="125.6836">Bounded</text><line style="stroke:#5E5E5E;stroke-width:1.0416666666666667;" x1="710.9375" x2="803.6458" y1="136.6536" y2="136.6536"/><line style="stroke:#5E5E5E;stroke-width:1.0416666666666667;" x1="710.9375" x2="803.6458" y1="144.987" y2="144.987"/><!--MD5=[3c2d1629e1ef91a24b6f1bf0217565aa]
class Outline--><rect codeLine="7" fill="#282828" height="48.055" id="Outline" rx="8.3333" ry="8.3333" style="stroke:#5E5E5E;stroke-width:1.0416666666666667;" width="85.4167" x="841.6667" y="105.2653"/><rect fill="#1B1B1A" height="31.3883" rx="8.3333" ry="8.3333" style="stroke:#1B1B1A;stroke-width:1.0416666666666667;" width="85.4167" x="841.6667" y="105.2653"/><rect fill="#1B1B1A" height="8.3333" style="stroke:#1B1B1A;stroke-width:1.0416666666666667;" width="85.4167" x="841.6667" y="128.3203"/><rect codeLine="7" fill="none" height="48.055" id="Outline" rx="8.3333" ry="8.3333" style="stroke:#5E5E5E;stroke-width:1.0416666666666667;" width="85.4167" x="841.6667" y="105.2653"/><ellipse cx="856.25" cy="120.9595" fill="#008400" rx="10.4167" ry="10.4167" style="stroke:#239C23;stroke-width:1.0416666666666667;"/><path d="M853.1331,118.1213 L853.1331,116.5344 L858.5592,116.5344 L858.5592,118.1213 L856.7464,118.1213 L856.7464,124.0601 L858.5592,124.0601 L858.5592,125.647 L853.1331,125.647 L853.1331,124.0601 L854.9459,124.0601 L854.9459,118.1213 Z " fill="#000000"/><text fill="#D8BC00" font-family="Open Sans,Avenir,Nunito,Arial,Helvetica,SansSerif" font-size="12.5" font-style="italic" font-weight="bold" lengthAdjust="spacing" textLength="47.9167" x="872.9167" y="125.6836">Outline</text><line style="stroke:#5E5E5E;stroke-width:1.0416666666666667;" x1="842.7083" x2="926.0417" y1="136.6536" y2="136.6536"/><line style="stroke:#5E5E5E;stroke-width:1.0416666666666667;" x1="842.7083" x2="926.0417" y1="144.987" y2="144.987"/><!--MD5=[302594849024c7219bb74589a8b38298]
class Intersectable--><rect codeLine="8" fill="#282828" height="48.055" id="Intersectable" rx="8.3333" ry="8.3333" style="stroke:#5E5E5E;stroke-width:1.0416666666666667;" width="120.8333" x="963.5417" y="105.2653"/><rect fill="#1B1B1A" height="31.3883" rx="8.3333" ry="8.3333" style="stroke:#1B1B1A;stroke-width:1.0416666666666667;" width="120.8333" x="963.5417" y="105.2653"/><rect fill="#1B1B1A" height="8.3333" style="stroke:#1B1B1A;stroke-width:1.0416666666666667;" width="120.8333" x="963.5417" y="128.3203"/><rect codeLine="8" fill="none" height="48.055" id="Intersectable" rx="8.3333" ry="8.3333" style="stroke:#5E5E5E;stroke-width:1.0416666666666667;" width="120.8333" x="963.5417" y="105.2653"/><ellipse cx="978.125" cy="120.9595" fill="#008400" rx="10.4167" ry="10.4167" style="stroke:#239C23;stroke-width:1.0416666666666667;"/><path d="M975.0081,118.1213 L975.0081,116.5344 L980.4342,116.5344 L980.4342,118.1213 L978.6214,118.1213 L978.6214,124.0601 L980.4342,124.0601 L980.4342,125.647 L975.0081,125.647 L975.0081,124.0601 L976.8209,124.0601 L976.8209,118.1213 Z " fill="#000000"/><text fill="#D8BC00" font-family="Open Sans,Avenir,Nunito,Arial,Helvetica,SansSerif" font-size="12.5" font-style="italic" font-weight="bold" lengthAdjust="spacing" textLength="83.3333" x="994.7917" y="125.6836">Intersectable</text><line style="stroke:#5E5E5E;stroke-width:1.0416666666666667;" x1="964.5833" x2="1083.3333" y1="136.6536" y2="136.6536"/><line style="stroke:#5E5E5E;stroke-width:1.0416666666666667;" x1="964.5833" x2="1083.3333" y1="144.987" y2="144.987"/><!--MD5=[cc8839f14342bb22cd1528826640bda0]
class Quadrant--><rect codeLine="64" fill="#282828" height="131.2012" id="Quadrant" rx="8.3333" ry="8.3333" style="stroke:#5E5E5E;stroke-width:1.0416666666666667;" width="377.0833" x="1188.5417" y="63.5986"/><rect fill="#1B1B1A" height="31.3883" rx="8.3333" ry="8.3333" style="stroke:#1B1B1A;stroke-width:1.0416666666666667;" width="377.0833" x="1188.5417" y="63.5986"/><rect fill="#1B1B1A" height="8.3333" style="stroke:#1B1B1A;stroke-width:1.0416666666666667;" width="377.0833" x="1188.5417" y="86.6536"/><rect codeLine="64" fill="none" height="131.2012" id="Quadrant" rx="8.3333" ry="8.3333" style="stroke:#5E5E5E;stroke-width:1.0416666666666667;" width="377.0833" x="1188.5417" y="63.5986"/><ellipse cx="1339.5833" cy="79.2928" fill="#C8AC00" rx="10.4167" ry="10.4167" style="stroke:#D8BC00;stroke-width:1.0416666666666667;"/><path d="M1339.6973,75.9949 L1338.8489,79.7241 L1340.5518,79.7241 Z M1338.5986,74.3469 L1340.802,74.3469 L1343.2617,83.4595 L1341.4612,83.4595 L1340.8997,81.2073 L1338.4888,81.2073 L1337.9395,83.4595 L1336.1389,83.4595 Z " fill="#000000"/><text fill="#D8BC00" font-family="Open Sans,Avenir,Nunito,Arial,Helvetica,SansSerif" font-size="12.5" font-style="italic" font-weight="bold" lengthAdjust="spacing" textLength="60.4167" x="1362.5" y="84.0169">Quadrant</text><line style="stroke:#5E5E5E;stroke-width:1.5625;" x1="1189.5833" x2="1564.5833" y1="94.987" y2="94.987"/><line style="stroke:#5E5E5E;stroke-width:1.0416666666666667;" x1="1189.5833" x2="1564.5833" y1="103.3203" y2="103.3203"/><ellipse cx="1200" cy="114.7786" fill="#84BE84" rx="3.125" ry="3.125" style="stroke:#038048;stroke-width:1.0416666666666667;"/><text fill="#D8BC00" font-family="Open Sans,Avenir,Nunito,Arial,Helvetica,SansSerif" font-size="11.4583" lengthAdjust="spacing" textLength="344.7917" x="1211.4583" y="121.6899">void debug(PolygonSpatialIndexDebugger, Rectangle bounds)</text><polygon fill="#FFFF44" points="1200,129.3152,1204.1667,133.4819,1200,137.6485,1195.8333,133.4819" style="stroke:#B38D22;stroke-width:1.0416666666666667;"/><text fill="#D8BC00" font-family="Open Sans,Avenir,Nunito,Arial,Helvetica,SansSerif" font-size="11.4583" lengthAdjust="spacing" textLength="201.0417" x="1211.4583" y="141.4347">void visit(Visitor, Rectangle bounds)</text><ellipse cx="1200" cy="178.1799" fill="#84BE84" rx="3.125" ry="3.125" style="stroke:#038048;stroke-width:1.0416666666666667;"/><text fill="#D8BC00" font-family="Open Sans,Avenir,Nunito,Arial,Helvetica,SansSerif" font-size="11.4583" lengthAdjust="spacing" textLength="285.4167" x="1211.4583" y="185.0911">Containment contains(Location, Rectangle bounds)</text><line style="stroke:#5E5E5E;stroke-width:1.0416666666666667;" x1="1189.5833" x2="1342.7083" y1="161.0158" y2="161.0158"/><text fill="#D8BC00" font-family="Open Sans,Avenir,Nunito,Arial,Helvetica,SansSerif" font-size="11.4583" lengthAdjust="spacing" textLength="62.5" x="1345.8333" y="164.8254">(collection)</text><line style="stroke:#5E5E5E;stroke-width:1.0416666666666667;" x1="1411.4583" x2="1564.5833" y1="161.0158" y2="161.0158"/><!--MD5=[3670a9b67b8a752f6e42da25dea7e2da]
class Leaf--><rect codeLine="11" fill="#282828" height="150.946" id="Leaf" rx="8.3333" ry="8.3333" style="stroke:#5E5E5E;stroke-width:1.0416666666666667;" width="219.7917" x="1161.9792" y="294.8486"/><rect fill="#1B1B1A" height="31.3883" rx="8.3333" ry="8.3333" style="stroke:#1B1B1A;stroke-width:1.0416666666666667;" width="219.7917" x="1161.9792" y="294.8486"/><rect fill="#1B1B1A" height="8.3333" style="stroke:#1B1B1A;stroke-width:1.0416666666666667;" width="219.7917" x="1161.9792" y="317.9036"/><rect codeLine="11" fill="none" height="150.946" id="Leaf" rx="8.3333" ry="8.3333" style="stroke:#5E5E5E;stroke-width:1.0416666666666667;" width="219.7917" x="1161.9792" y="294.8486"/><ellipse cx="1251.0417" cy="310.5428" fill="#0066CF" rx="10.4167" ry="10.4167" style="stroke:#0086EF;stroke-width:1.0416666666666667;"/><path d="M1252.9521,314.9679 Q1252.5248,315.1876 1252.0549,315.2974 Q1251.5849,315.4073 1251.0661,315.4073 Q1249.2228,315.4073 1248.2524,314.1927 Q1247.2819,312.9781 1247.2819,310.6832 Q1247.2819,308.3822 1248.2524,307.1676 Q1249.2228,305.953 1251.0661,305.953 Q1251.5849,305.953 1252.061,306.0628 Q1252.537,306.1727 1252.9521,306.3924 L1252.9521,308.3944 Q1252.4882,307.9671 1252.0518,307.7688 Q1251.6154,307.5704 1251.1515,307.5704 Q1250.1628,307.5704 1249.6592,308.3547 Q1249.1557,309.139 1249.1557,310.6832 Q1249.1557,312.2213 1249.6592,313.0056 Q1250.1628,313.7899 1251.1515,313.7899 Q1251.6154,313.7899 1252.0518,313.5915 Q1252.4882,313.3931 1252.9521,312.9659 Z " fill="#000000"/><text fill="#D8BC00" font-family="Open Sans,Avenir,Nunito,Arial,Helvetica,SansSerif" font-size="12.5" font-weight="bold" lengthAdjust="spacing" textLength="27.0833" x="1273.9583" y="315.2669">Leaf</text><line style="stroke:#5E5E5E;stroke-width:1.5625;" x1="1163.0208" x2="1380.7292" y1="326.237" y2="326.237"/><ellipse cx="1173.4375" cy="361.6069" fill="#84BE84" rx="3.125" ry="3.125" style="stroke:#038048;stroke-width:1.0416666666666667;"/><text fill="#D8BC00" font-family="Open Sans,Avenir,Nunito,Arial,Helvetica,SansSerif" font-size="11.4583" lengthAdjust="spacing" textLength="187.5" x="1184.8958" y="368.5181">Leaf(Segment, Segment, Location)</text><line style="stroke:#5E5E5E;stroke-width:1.0416666666666667;" x1="1163.0208" x2="1228.125" y1="344.4427" y2="344.4427"/><text fill="#D8BC00" font-family="Open Sans,Avenir,Nunito,Arial,Helvetica,SansSerif" font-size="11.4583" lengthAdjust="spacing" textLength="81.25" x="1231.25" y="348.2524">(constructors)</text><line style="stroke:#5E5E5E;stroke-width:1.0416666666666667;" x1="1315.625" x2="1380.7292" y1="344.4427" y2="344.4427"/><line style="stroke:#5E5E5E;stroke-width:1.0416666666666667;" x1="1163.0208" x2="1380.7292" y1="378.2267" y2="378.2267"/><ellipse cx="1173.4375" cy="389.6851" fill="#84BE84" rx="3.125" ry="3.125" style="stroke:#038048;stroke-width:1.0416666666666667;"/><text fill="#D8BC00" font-family="Open Sans,Avenir,Nunito,Arial,Helvetica,SansSerif" font-size="11.4583" lengthAdjust="spacing" textLength="65.625" x="1184.8958" y="396.5963">Segment a()</text><ellipse cx="1173.4375" cy="409.4299" fill="#84BE84" rx="3.125" ry="3.125" style="stroke:#038048;stroke-width:1.0416666666666667;"/><text fill="#D8BC00" font-family="Open Sans,Avenir,Nunito,Arial,Helvetica,SansSerif" font-size="11.4583" lengthAdjust="spacing" textLength="66.6667" x="1184.8958" y="416.3411">Segment b()</text><ellipse cx="1173.4375" cy="429.1748" fill="#84BE84" rx="3.125" ry="3.125" style="stroke:#038048;stroke-width:1.0416666666666667;"/><text fill="#D8BC00" font-family="Open Sans,Avenir,Nunito,Arial,Helvetica,SansSerif" font-size="11.4583" lengthAdjust="spacing" textLength="92.7083" x="1184.8958" y="436.086">Location inside()</text><!--MD5=[6089873340a85b777ffc166a35fc4871]
class LocationArray--><rect codeLine="21" fill="#282828" height="150.946" id="LocationArray" rx="8.3333" ry="8.3333" style="stroke:#5E5E5E;stroke-width:1.0416666666666667;" width="206.25" x="23.9583" y="53.7028"/><rect fill="#1B1B1A" height="31.3883" rx="8.3333" ry="8.3333" style="stroke:#1B1B1A;stroke-width:1.0416666666666667;" width="206.25" x="23.9583" y="53.7028"/><rect fill="#1B1B1A" height="8.3333" style="stroke:#1B1B1A;stroke-width:1.0416666666666667;" width="206.25" x="23.9583" y="76.7578"/><rect codeLine="21" fill="none" height="150.946" id="LocationArray" rx="8.3333" ry="8.3333" style="stroke:#5E5E5E;stroke-width:1.0416666666666667;" width="206.25" x="23.9583" y="53.7028"/><ellipse cx="75" cy="69.397" fill="#0066CF" rx="10.4167" ry="10.4167" style="stroke:#0086EF;stroke-width:1.0416666666666667;"/><path d="M76.9104,73.822 Q76.4832,74.0417 76.0132,74.1516 Q75.5432,74.2615 75.0244,74.2615 Q73.1812,74.2615 72.2107,73.0469 Q71.2402,71.8323 71.2402,69.5374 Q71.2402,67.2363 72.2107,66.0217 Q73.1812,64.8071 75.0244,64.8071 Q75.5432,64.8071 76.0193,64.917 Q76.4954,65.0269 76.9104,65.2466 L76.9104,67.2485 Q76.4465,66.8213 76.0101,66.6229 Q75.5737,66.4246 75.1099,66.4246 Q74.1211,66.4246 73.6176,67.2089 Q73.114,67.9932 73.114,69.5374 Q73.114,71.0754 73.6176,71.8597 Q74.1211,72.644 75.1099,72.644 Q75.5737,72.644 76.0101,72.4457 Q76.4465,72.2473 76.9104,71.8201 Z " fill="#000000"/><text fill="#D8BC00" font-family="Open Sans,Avenir,Nunito,Arial,Helvetica,SansSerif" font-size="12.5" font-weight="bold" lengthAdjust="spacing" textLength="89.5833" x="97.9167" y="74.1211">LocationArray</text><line style="stroke:#5E5E5E;stroke-width:1.5625;" x1="25" x2="229.1667" y1="85.0911" y2="85.0911"/><polygon fill="#FFFF44" points="35.4167,115.2527,39.5833,119.4194,35.4167,123.586,31.25,119.4194" style="stroke:#B38D22;stroke-width:1.0416666666666667;"/><text fill="#D8BC00" font-family="Open Sans,Avenir,Nunito,Arial,Helvetica,SansSerif" font-size="11.4583" lengthAdjust="spacing" textLength="87.5" x="46.875" y="127.3722">LocationArray()</text><ellipse cx="35.4167" cy="140.2059" fill="#84BE84" rx="3.125" ry="3.125" style="stroke:#038048;stroke-width:1.0416666666666667;"/><text fill="#D8BC00" font-family="Open Sans,Avenir,Nunito,Arial,Helvetica,SansSerif" font-size="11.4583" lengthAdjust="spacing" textLength="173.9583" x="46.875" y="147.1171">LocationArray(String, Estimate)</text><line style="stroke:#5E5E5E;stroke-width:1.0416666666666667;" x1="25" x2="83.3333" y1="103.2969" y2="103.2969"/><text fill="#D8BC00" font-family="Open Sans,Avenir,Nunito,Arial,Helvetica,SansSerif" font-size="11.4583" lengthAdjust="spacing" textLength="81.25" x="86.4583" y="107.1065">(constructors)</text><line style="stroke:#5E5E5E;stroke-width:1.0416666666666667;" x1="170.8333" x2="229.1667" y1="103.2969" y2="103.2969"/><line style="stroke:#5E5E5E;stroke-width:1.0416666666666667;" x1="25" x2="229.1667" y1="156.8258" y2="156.8258"/><ellipse cx="35.4167" cy="168.2841" fill="#84BE84" rx="3.125" ry="3.125" style="stroke:#038048;stroke-width:1.0416666666666667;"/><text fill="#D8BC00" font-family="Open Sans,Avenir,Nunito,Arial,Helvetica,SansSerif" font-size="11.4583" lengthAdjust="spacing" textLength="126.0417" x="46.875" y="175.1953">Location get(int index)</text><ellipse cx="35.4167" cy="188.029" fill="#84BE84" rx="3.125" ry="3.125" style="stroke:#038048;stroke-width:1.0416666666666667;"/><text fill="#D8BC00" font-family="Open Sans,Avenir,Nunito,Arial,Helvetica,SansSerif" font-size="11.4583" lengthAdjust="spacing" textLength="155.2083" x="46.875" y="194.9402">void set(int index, Location)</text><!--MD5=[3fee75583bb7a64f68d843a3c9534ab3]
class Node--><rect codeLine="32" fill="#282828" height="206.014" id="Node" rx="8.3333" ry="8.3333" style="stroke:#5E5E5E;stroke-width:1.0416666666666667;" width="265.625" x="1418.2292" y="267.2445"/><rect fill="#1B1B1A" height="31.3883" rx="8.3333" ry="8.3333" style="stroke:#1B1B1A;stroke-width:1.0416666666666667;" width="265.625" x="1418.2292" y="267.2445"/><rect fill="#1B1B1A" height="8.3333" style="stroke:#1B1B1A;stroke-width:1.0416666666666667;" width="265.625" x="1418.2292" y="290.2995"/><rect codeLine="32" fill="none" height="206.014" id="Node" rx="8.3333" ry="8.3333" style="stroke:#5E5E5E;stroke-width:1.0416666666666667;" width="265.625" x="1418.2292" y="267.2445"/><ellipse cx="1527.0833" cy="282.9386" fill="#0066CF" rx="10.4167" ry="10.4167" style="stroke:#0086EF;stroke-width:1.0416666666666667;"/><path d="M1528.9937,287.3637 Q1528.5665,287.5834 1528.0965,287.6933 Q1527.6265,287.8031 1527.1077,287.8031 Q1525.2645,287.8031 1524.294,286.5885 Q1523.3236,285.3739 1523.3236,283.079 Q1523.3236,280.778 1524.294,279.5634 Q1525.2645,278.3488 1527.1077,278.3488 Q1527.6265,278.3488 1528.1026,278.4587 Q1528.5787,278.5685 1528.9937,278.7882 L1528.9937,280.7902 Q1528.5299,280.363 1528.0935,280.1646 Q1527.6571,279.9662 1527.1932,279.9662 Q1526.2044,279.9662 1525.7009,280.7505 Q1525.1973,281.5348 1525.1973,283.079 Q1525.1973,284.6171 1525.7009,285.4014 Q1526.2044,286.1857 1527.1932,286.1857 Q1527.6571,286.1857 1528.0935,285.9873 Q1528.5299,285.789 1528.9937,285.3617 Z " fill="#000000"/><text fill="#D8BC00" font-family="Open Sans,Avenir,Nunito,Arial,Helvetica,SansSerif" font-size="12.5" font-weight="bold" lengthAdjust="spacing" textLength="33.3333" x="1550" y="287.6628">Node</text><line style="stroke:#5E5E5E;stroke-width:1.5625;" x1="1419.2708" x2="1682.8125" y1="298.6328" y2="298.6328"/><ellipse cx="1429.6875" cy="334.0027" fill="#84BE84" rx="3.125" ry="3.125" style="stroke:#038048;stroke-width:1.0416666666666667;"/><text fill="#D8BC00" font-family="Open Sans,Avenir,Nunito,Arial,Helvetica,SansSerif" font-size="11.4583" lengthAdjust="spacing" textLength="233.3333" x="1441.1458" y="340.9139">Node(PolygonSpatialIndex, int, int, int, int)</text><ellipse cx="1429.6875" cy="353.7476" fill="#84BE84" rx="3.125" ry="3.125" style="stroke:#038048;stroke-width:1.0416666666666667;"/><text fill="#D8BC00" font-family="Open Sans,Avenir,Nunito,Arial,Helvetica,SansSerif" font-size="11.4583" lengthAdjust="spacing" textLength="210.4167" x="1441.1458" y="360.6588">Node(PolygonSpatialIndex, Rectangle)</text><line style="stroke:#5E5E5E;stroke-width:1.0416666666666667;" x1="1419.2708" x2="1507.2917" y1="316.8386" y2="316.8386"/><text fill="#D8BC00" font-family="Open Sans,Avenir,Nunito,Arial,Helvetica,SansSerif" font-size="11.4583" lengthAdjust="spacing" textLength="81.25" x="1510.4167" y="320.6482">(constructors)</text><line style="stroke:#5E5E5E;stroke-width:1.0416666666666667;" x1="1594.7917" x2="1682.8125" y1="316.8386" y2="316.8386"/><ellipse cx="1429.6875" cy="397.404" fill="#84BE84" rx="3.125" ry="3.125" style="stroke:#038048;stroke-width:1.0416666666666667;"/><text fill="#D8BC00" font-family="Open Sans,Avenir,Nunito,Arial,Helvetica,SansSerif" font-size="11.4583" lengthAdjust="spacing" textLength="111.4583" x="1441.1458" y="404.3152">int northEastIndex()</text><ellipse cx="1429.6875" cy="417.1488" fill="#84BE84" rx="3.125" ry="3.125" style="stroke:#038048;stroke-width:1.0416666666666667;"/><text fill="#D8BC00" font-family="Open Sans,Avenir,Nunito,Arial,Helvetica,SansSerif" font-size="11.4583" lengthAdjust="spacing" textLength="114.5833" x="1441.1458" y="424.0601">int northWestIndex()</text><ellipse cx="1429.6875" cy="436.8937" fill="#84BE84" rx="3.125" ry="3.125" style="stroke:#038048;stroke-width:1.0416666666666667;"/><text fill="#D8BC00" font-family="Open Sans,Avenir,Nunito,Arial,Helvetica,SansSerif" font-size="11.4583" lengthAdjust="spacing" textLength="112.5" x="1441.1458" y="443.8049">int southEastIndex()</text><ellipse cx="1429.6875" cy="456.6386" fill="#84BE84" rx="3.125" ry="3.125" style="stroke:#038048;stroke-width:1.0416666666666667;"/><text fill="#D8BC00" font-family="Open Sans,Avenir,Nunito,Arial,Helvetica,SansSerif" font-size="11.4583" lengthAdjust="spacing" textLength="115.625" x="1441.1458" y="463.5498">int southWestIndex()</text><line style="stroke:#5E5E5E;stroke-width:1.0416666666666667;" x1="1419.2708" x2="1516.6667" y1="380.2399" y2="380.2399"/><text fill="#D8BC00" font-family="Open Sans,Avenir,Nunito,Arial,Helvetica,SansSerif" font-size="11.4583" lengthAdjust="spacing" textLength="62.5" x="1519.7917" y="384.0495">(collection)</text><line style="stroke:#5E5E5E;stroke-width:1.0416666666666667;" x1="1585.4167" x2="1682.8125" y1="380.2399" y2="380.2399"/><!--MD5=[b4ee34cc16a21240b50e0ffbf967e50b]
class PolygonSpatialIndex--><rect codeLine="47" fill="#282828" height="150.946" id="PolygonSpatialIndex" rx="8.3333" ry="8.3333" style="stroke:#5E5E5E;stroke-width:1.0416666666666667;" width="270.8333" x="748.9583" y="294.8486"/><rect fill="#1B1B1A" height="31.3883" rx="8.3333" ry="8.3333" style="stroke:#1B1B1A;stroke-width:1.0416666666666667;" width="270.8333" x="748.9583" y="294.8486"/><rect fill="#1B1B1A" height="8.3333" style="stroke:#1B1B1A;stroke-width:1.0416666666666667;" width="270.8333" x="748.9583" y="317.9036"/><rect codeLine="47" fill="none" height="150.946" id="PolygonSpatialIndex" rx="8.3333" ry="8.3333" style="stroke:#5E5E5E;stroke-width:1.0416666666666667;" width="270.8333" x="748.9583" y="294.8486"/><ellipse cx="811.4583" cy="310.5428" fill="#0066CF" rx="10.4167" ry="10.4167" style="stroke:#0086EF;stroke-width:1.0416666666666667;"/><path d="M813.3687,314.9679 Q812.9415,315.1876 812.4715,315.2974 Q812.0015,315.4073 811.4827,315.4073 Q809.6395,315.4073 808.669,314.1927 Q807.6986,312.9781 807.6986,310.6832 Q807.6986,308.3822 808.669,307.1676 Q809.6395,305.953 811.4827,305.953 Q812.0015,305.953 812.4776,306.0628 Q812.9537,306.1727 813.3687,306.3924 L813.3687,308.3944 Q812.9049,307.9671 812.4685,307.7688 Q812.0321,307.5704 811.5682,307.5704 Q810.5794,307.5704 810.0759,308.3547 Q809.5723,309.139 809.5723,310.6832 Q809.5723,312.2213 810.0759,313.0056 Q810.5794,313.7899 811.5682,313.7899 Q812.0321,313.7899 812.4685,313.5915 Q812.9049,313.3931 813.3687,312.9659 Z " fill="#000000"/><text fill="#D8BC00" font-family="Open Sans,Avenir,Nunito,Arial,Helvetica,SansSerif" font-size="12.5" font-weight="bold" lengthAdjust="spacing" textLength="131.25" x="834.375" y="315.2669">PolygonSpatialIndex</text><line style="stroke:#5E5E5E;stroke-width:1.5625;" x1="750" x2="1018.75" y1="326.237" y2="326.237"/><polygon fill="#FFFF44" points="760.4167,356.3985,764.5833,360.5652,760.4167,364.7319,756.25,360.5652" style="stroke:#B38D22;stroke-width:1.0416666666666667;"/><text fill="#D8BC00" font-family="Open Sans,Avenir,Nunito,Arial,Helvetica,SansSerif" font-size="11.4583" lengthAdjust="spacing" textLength="120.8333" x="771.875" y="368.5181">PolygonSpatialIndex()</text><ellipse cx="760.4167" cy="381.3517" fill="#84BE84" rx="3.125" ry="3.125" style="stroke:#038048;stroke-width:1.0416666666666667;"/><text fill="#D8BC00" font-family="Open Sans,Avenir,Nunito,Arial,Helvetica,SansSerif" font-size="11.4583" lengthAdjust="spacing" textLength="165.625" x="771.875" y="388.2629">PolygonSpatialIndex(Polygon)</text><line style="stroke:#5E5E5E;stroke-width:1.0416666666666667;" x1="750" x2="840.625" y1="344.4427" y2="344.4427"/><text fill="#D8BC00" font-family="Open Sans,Avenir,Nunito,Arial,Helvetica,SansSerif" font-size="11.4583" lengthAdjust="spacing" textLength="81.25" x="843.75" y="348.2524">(constructors)</text><line style="stroke:#5E5E5E;stroke-width:1.0416666666666667;" x1="928.125" x2="1018.75" y1="344.4427" y2="344.4427"/><line style="stroke:#5E5E5E;stroke-width:1.0416666666666667;" x1="750" x2="1018.75" y1="397.9716" y2="397.9716"/><ellipse cx="760.4167" cy="409.4299" fill="#84BE84" rx="3.125" ry="3.125" style="stroke:#038048;stroke-width:1.0416666666666667;"/><text fill="#D8BC00" font-family="Open Sans,Avenir,Nunito,Arial,Helvetica,SansSerif" font-size="11.4583" lengthAdjust="spacing" textLength="238.5417" x="771.875" y="416.3411">void debug(PolygonSpatialIndexDebugger)</text><ellipse cx="760.4167" cy="429.1748" fill="#84BE84" rx="3.125" ry="3.125" style="stroke:#038048;stroke-width:1.0416666666666667;"/><text fill="#D8BC00" font-family="Open Sans,Avenir,Nunito,Arial,Helvetica,SansSerif" font-size="11.4583" lengthAdjust="spacing" textLength="94.7917" x="771.875" y="436.086">void visit(Visitor)</text><!--MD5=[754c2ad0a814bf73ff9ce1ef861ab9b3]
class PolygonSpatialIndexDebugger--><rect codeLine="57" fill="#282828" height="87.5448" id="PolygonSpatialIndexDebugger" rx="8.3333" ry="8.3333" style="stroke:#5E5E5E;stroke-width:1.0416666666666667;" width="406.25" x="266.6667" y="85.4736"/><rect fill="#1B1B1A" height="31.3883" rx="8.3333" ry="8.3333" style="stroke:#1B1B1A;stroke-width:1.0416666666666667;" width="406.25" x="266.6667" y="85.4736"/><rect fill="#1B1B1A" height="8.3333" style="stroke:#1B1B1A;stroke-width:1.0416666666666667;" width="406.25" x="266.6667" y="108.5286"/><rect codeLine="57" fill="none" height="87.5448" id="PolygonSpatialIndexDebugger" rx="8.3333" ry="8.3333" style="stroke:#5E5E5E;stroke-width:1.0416666666666667;" width="406.25" x="266.6667" y="85.4736"/><ellipse cx="365.1042" cy="101.1678" fill="#008400" rx="10.4167" ry="10.4167" style="stroke:#239C23;stroke-width:1.0416666666666667;"/><path d="M361.9873,98.3297 L361.9873,96.7428 L367.4133,96.7428 L367.4133,98.3297 L365.6006,98.3297 L365.6006,104.2684 L367.4133,104.2684 L367.4133,105.8553 L361.9873,105.8553 L361.9873,104.2684 L363.8,104.2684 L363.8,98.3297 Z " fill="#000000"/><text fill="#D8BC00" font-family="Open Sans,Avenir,Nunito,Arial,Helvetica,SansSerif" font-size="12.5" font-style="italic" font-weight="bold" lengthAdjust="spacing" textLength="194.7917" x="388.0208" y="105.8919">PolygonSpatialIndexDebugger</text><line style="stroke:#5E5E5E;stroke-width:1.5625;" x1="267.7083" x2="671.875" y1="116.862" y2="116.862"/><line style="stroke:#5E5E5E;stroke-width:1.0416666666666667;" x1="267.7083" x2="671.875" y1="125.1953" y2="125.1953"/><ellipse cx="278.125" cy="136.6536" fill="#84BE84" rx="3.125" ry="3.125" style="stroke:#038048;stroke-width:1.0416666666666667;"/><text fill="#D8BC00" font-family="Open Sans,Avenir,Nunito,Arial,Helvetica,SansSerif" font-size="11.4583" lengthAdjust="spacing" textLength="373.9583" x="289.5833" y="143.5649">void leaf(Rectangle bounds, Segment a, Segment b, Location inside)</text><ellipse cx="278.125" cy="156.3985" fill="#84BE84" rx="3.125" ry="3.125" style="stroke:#038048;stroke-width:1.0416666666666667;"/><text fill="#D8BC00" font-family="Open Sans,Avenir,Nunito,Arial,Helvetica,SansSerif" font-size="11.4583" lengthAdjust="spacing" textLength="140.625" x="289.5833" y="163.3097">void quadrant(Rectangle)</text><!--MD5=[10c27da75134b0d74b58232413858e3a]
class QuadrantStore--><rect codeLine="73" fill="#282828" height="146.7794" id="QuadrantStore" rx="8.3333" ry="8.3333" style="stroke:#5E5E5E;stroke-width:1.0416666666666667;" width="235.4167" x="9.375" y="296.932"/><rect fill="#1B1B1A" height="31.3883" rx="8.3333" ry="8.3333" style="stroke:#1B1B1A;stroke-width:1.0416666666666667;" width="235.4167" x="9.375" y="296.932"/><rect fill="#1B1B1A" height="8.3333" style="stroke:#1B1B1A;stroke-width:1.0416666666666667;" width="235.4167" x="9.375" y="319.987"/><rect codeLine="73" fill="none" height="146.7794" id="QuadrantStore" rx="8.3333" ry="8.3333" style="stroke:#5E5E5E;stroke-width:1.0416666666666667;" width="235.4167" x="9.375" y="296.932"/><ellipse cx="72.9167" cy="312.6261" fill="#0066CF" rx="10.4167" ry="10.4167" style="stroke:#0086EF;stroke-width:1.0416666666666667;"/><path d="M74.8271,317.0512 Q74.3998,317.2709 73.9299,317.3808 Q73.4599,317.4906 72.9411,317.4906 Q71.0978,317.4906 70.1274,316.276 Q69.1569,315.0614 69.1569,312.7665 Q69.1569,310.4655 70.1274,309.2509 Q71.0978,308.0363 72.9411,308.0363 Q73.4599,308.0363 73.936,308.1462 Q74.412,308.256 74.8271,308.4757 L74.8271,310.4777 Q74.3632,310.0505 73.9268,309.8521 Q73.4904,309.6537 73.0265,309.6537 Q72.0378,309.6537 71.5342,310.438 Q71.0307,311.2223 71.0307,312.7665 Q71.0307,314.3046 71.5342,315.0889 Q72.0378,315.8732 73.0265,315.8732 Q73.4904,315.8732 73.9268,315.6748 Q74.3632,315.4765 74.8271,315.0492 Z " fill="#000000"/><text fill="#D8BC00" font-family="Open Sans,Avenir,Nunito,Arial,Helvetica,SansSerif" font-size="12.5" font-weight="bold" lengthAdjust="spacing" textLength="93.75" x="95.8333" y="317.3503">QuadrantStore</text><line style="stroke:#5E5E5E;stroke-width:1.5625;" x1="10.4167" x2="243.75" y1="328.3203" y2="328.3203"/><polygon fill="#FFFF44" points="20.8333,358.4819,25,362.6485,20.8333,366.8152,16.6667,362.6485" style="stroke:#B38D22;stroke-width:1.0416666666666667;"/><text fill="#D8BC00" font-family="Open Sans,Avenir,Nunito,Arial,Helvetica,SansSerif" font-size="11.4583" lengthAdjust="spacing" textLength="90.625" x="32.2917" y="370.6014">QuadrantStore()</text><ellipse cx="20.8333" cy="383.4351" fill="#84BE84" rx="3.125" ry="3.125" style="stroke:#038048;stroke-width:1.0416666666666667;"/><text fill="#D8BC00" font-family="Open Sans,Avenir,Nunito,Arial,Helvetica,SansSerif" font-size="11.4583" lengthAdjust="spacing" textLength="203.125" x="32.2917" y="390.3463">QuadrantStore(PolygonSpatialIndex)</text><line style="stroke:#5E5E5E;stroke-width:1.0416666666666667;" x1="10.4167" x2="83.3333" y1="346.5261" y2="346.5261"/><text fill="#D8BC00" font-family="Open Sans,Avenir,Nunito,Arial,Helvetica,SansSerif" font-size="11.4583" lengthAdjust="spacing" textLength="81.25" x="86.4583" y="350.3357">(constructors)</text><line style="stroke:#5E5E5E;stroke-width:1.0416666666666667;" x1="170.8333" x2="243.75" y1="346.5261" y2="346.5261"/><ellipse cx="20.8333" cy="427.0915" fill="#84BE84" rx="3.125" ry="3.125" style="stroke:#038048;stroke-width:1.0416666666666667;"/><text fill="#D8BC00" font-family="Open Sans,Avenir,Nunito,Arial,Helvetica,SansSerif" font-size="11.4583" lengthAdjust="spacing" textLength="76.0417" x="32.2917" y="434.0027">int add(Node)</text><line style="stroke:#5E5E5E;stroke-width:1.0416666666666667;" x1="10.4167" x2="92.7083" y1="409.9274" y2="409.9274"/><text fill="#D8BC00" font-family="Open Sans,Avenir,Nunito,Arial,Helvetica,SansSerif" font-size="11.4583" lengthAdjust="spacing" textLength="62.5" x="95.8333" y="413.737">(collection)</text><line style="stroke:#5E5E5E;stroke-width:1.0416666666666667;" x1="161.4583" x2="243.75" y1="409.9274" y2="409.9274"/><!--MD5=[9a8e4e3763c7e9195d86a330995e1434]
class PolygonSpatialIndex.Visitor--><rect codeLine="82" fill="#282828" height="67.7999" id="PolygonSpatialIndex.Visitor" rx="8.3333" ry="8.3333" style="stroke:#5E5E5E;stroke-width:1.0416666666666667;" width="423.9583" x="281.7708" y="336.5153"/><rect fill="#1B1B1A" height="31.3883" rx="8.3333" ry="8.3333" style="stroke:#1B1B1A;stroke-width:1.0416666666666667;" width="423.9583" x="281.7708" y="336.5153"/><rect fill="#1B1B1A" height="8.3333" style="stroke:#1B1B1A;stroke-width:1.0416666666666667;" width="423.9583" x="281.7708" y="359.5703"/><rect codeLine="82" fill="none" height="67.7999" id="PolygonSpatialIndex.Visitor" rx="8.3333" ry="8.3333" style="stroke:#5E5E5E;stroke-width:1.0416666666666667;" width="423.9583" x="281.7708" y="336.5153"/><ellipse cx="397.9167" cy="352.2095" fill="#008400" rx="10.4167" ry="10.4167" style="stroke:#239C23;stroke-width:1.0416666666666667;"/><path d="M394.7998,349.3713 L394.7998,347.7844 L400.2258,347.7844 L400.2258,349.3713 L398.4131,349.3713 L398.4131,355.3101 L400.2258,355.3101 L400.2258,356.897 L394.7998,356.897 L394.7998,355.3101 L396.6125,355.3101 L396.6125,349.3713 Z " fill="#000000"/><text fill="#D8BC00" font-family="Open Sans,Avenir,Nunito,Arial,Helvetica,SansSerif" font-size="12.5" font-style="italic" font-weight="bold" lengthAdjust="spacing" textLength="177.0833" x="420.8333" y="356.9336">PolygonSpatialIndex.Visitor</text><line style="stroke:#5E5E5E;stroke-width:1.5625;" x1="282.8125" x2="704.6875" y1="367.9036" y2="367.9036"/><line style="stroke:#5E5E5E;stroke-width:1.0416666666666667;" x1="282.8125" x2="704.6875" y1="376.237" y2="376.237"/><ellipse cx="293.2292" cy="387.6953" fill="#84BE84" rx="3.125" ry="3.125" style="stroke:#038048;stroke-width:1.0416666666666667;"/><text fill="#D8BC00" font-family="Open Sans,Avenir,Nunito,Arial,Helvetica,SansSerif" font-size="11.4583" lengthAdjust="spacing" textLength="391.6667" x="304.6875" y="394.6065">void onLeaf(Rectangle bounds, Segment a, Segment b, Location inside)</text><!--MD5=[c5c6c48d08c01c5892baf12bce85921a]
reverse link Quadrant to Leaf--><path codeLine="10" d="M1340.0833,214.3382 C1328.6042,240.432 1316.0313,268.9945 1304.8438,294.4215 " fill="none" id="Quadrant-backto-Leaf" style="stroke:#545454;stroke-width:1.5625;"/><polygon fill="none" points="1333.5417,211.0882,1348.6146,194.9632,1346.8958,216.9632,1333.5417,211.0882" style="stroke:#545454;stroke-width:1.5625;"/><!--MD5=[ed33b92b954a8c461e601df472c61af8]
reverse link Quadrant to Node--><path codeLine="31" d="M1436.5,211.9215 C1449.4479,229.7132 1463.3021,248.7549 1476.75,267.234 " fill="none" id="Quadrant-backto-Node" style="stroke:#545454;stroke-width:1.5625;"/><polygon fill="none" points="1430.5208,216.0986,1424.1563,194.9632,1442.3125,207.5153,1430.5208,216.0986" style="stroke:#545454;stroke-width:1.5625;"/><!--MD5=[3c161b634f1bb6d08b75ca070865b230]
reverse link Intersectable to PolygonSpatialIndex--><path codeLine="44" d="M1000.0625,171.1924 C980.3125,205.0257 951.7396,253.9528 927.9375,294.7236 " fill="none" id="Intersectable-backto-PolygonSpatialIndex" style="stroke:#545454;stroke-width:1.5625;"/><polygon fill="none" points="993.7708,167.5049,1010.5729,153.1924,1006.3646,174.859,993.7708,167.5049" style="stroke:#545454;stroke-width:1.5625;"/><!--MD5=[fbc715d90c8f783a04d644ce41d3887c]
reverse link Bounded to PolygonSpatialIndex--><path codeLine="45" d="M779.3021,171.6611 C797.2708,205.4736 823.1458,254.1403 844.7188,294.7236 " fill="none" id="Bounded-backto-PolygonSpatialIndex" style="stroke:#545454;stroke-width:1.5625;"/><polygon fill="none" points="772.8125,175.0049,769.4792,153.1924,785.6979,168.1611,772.8125,175.0049" style="stroke:#545454;stroke-width:1.5625;"/><!--MD5=[24e318cfbe144f11b094604c4864dcd4]
reverse link Outline to PolygonSpatialIndex--><path codeLine="46" d="M884.375,174.0674 C884.375,207.7549 884.375,255.0986 884.375,294.7236 " fill="none" id="Outline-backto-PolygonSpatialIndex" style="stroke:#545454;stroke-width:1.5625;"/><polygon fill="none" points="877.0833,174.0257,884.375,153.1924,891.6667,174.0257,877.0833,174.0257" style="stroke:#545454;stroke-width:1.5625;"/><!--MD5=[ad053e5ebcb3dcfdb4e49c496e58213d]
link LocationArray to PolygonSpatialIndexDebugger--><!--MD5=[a13785a6aee75e71e97099aed686eb90]
link LocationArray to QuadrantStore--><!--MD5=[d8a8294a5cdea971c00cd62ce37bf4f4]
link QuadrantStore to PolygonSpatialIndex.Visitor--><!--MD5=[30d8d966d2640cb4a5baf10faf8b70aa]
@startuml

    !include ../lexakai/lexakai.theme
    
    title "com.telenav.aonia.map.geography.indexing.polygon"
    
    interface Bounded
    interface Outline
    interface Intersectable
    
    Quadrant <|- - Leaf
    class Leaf
    {
        - -(constructors)- -
        +Leaf(Segment, Segment, Location)
        - -
        +Segment a()
        +Segment b()
        +Location inside()
    }
    
    class LocationArray
    {
        - -(constructors)- -
        #LocationArray()
        +LocationArray(String, Estimate)
        - -
        +Location get(int index)
        +void set(int index, Location)
    }
    
    Quadrant <|- - Node
    class Node
    {
        - -(constructors)- -
        +Node(PolygonSpatialIndex, int, int, int, int)
        +Node(PolygonSpatialIndex, Rectangle)
        - -(collection)- -
        +int northEastIndex()
        +int northWestIndex()
        +int southEastIndex()
        +int southWestIndex()
    }
    
    Intersectable <|- - PolygonSpatialIndex
    Bounded <|- - PolygonSpatialIndex
    Outline <|- - PolygonSpatialIndex
    class PolygonSpatialIndex
    {
        - -(constructors)- -
        #PolygonSpatialIndex()
        +PolygonSpatialIndex(Polygon)
        - -
        +void debug(PolygonSpatialIndexDebugger)
        +void visit(Visitor)
    }
    
    interface PolygonSpatialIndexDebugger
    {
        - -
        +void leaf(Rectangle bounds, Segment a, Segment b, Location inside)
        +void quadrant(Rectangle)
    }
    
    abstract class Quadrant
    {
        - -
        +void debug(PolygonSpatialIndexDebugger, Rectangle bounds)
        #void visit(Visitor, Rectangle bounds)
        - -(collection)- -
        +Containment contains(Location, Rectangle bounds)
    }
    
    class QuadrantStore
    {
        - -(constructors)- -
        #QuadrantStore()
        +QuadrantStore(PolygonSpatialIndex)
        - -(collection)- -
        +int add(Node)
    }
    
    interface PolygonSpatialIndex.Visitor
    {
        - -
        +void onLeaf(Rectangle bounds, Segment a, Segment b, Location inside)
    }
    
@enduml

@startuml









skinparam backgroundColor #333333






skinparam  {
    defaultFontName   "Open Sans,Avenir,Nunito,Arial,Helvetica,SansSerif"
    defaultFontSize   12
    defaultTextAlignment left
    shadowing false
    RoundCorner 10
    TitleFontSize 18
}

skinparam defaultFontName       "Open Sans,Avenir,Nunito,Arial,Helvetica,SansSerif"
skinparam defaultFontSize       12
skinparam dpi                   100
skinparam shadowing             false
skinparam roundcorner           16
skinparam ParticipantPadding    40
skinparam BoxPadding            40
skinparam Padding               3
skinparam ArrowColor            #545454
skinparam stereotype {
    CBackgroundColor #0066cf
    CBorderColor #0086ef
    ABackgroundColor #C8Ac00
    ABorderColor #D8Bc00
    IBackgroundColor #008400
    IBorderColor #239c23
    EBackgroundColor #cf6300
    EBorderColor #ef8300
    NBackgroundColor #3380b9
    NBorderColor #004d86
}
skinparam title {
	FontColor	                 #c0c0c0
 	BorderColor                  #545454
	FontSize	    	         20
	BorderRoundCorner            16
	BorderThickness 	         1
	BackgroundColor              #48494b
}


skinparam legend {
	BackgroundColor #303030
	BorderColor #404040
	FontColor #a0a0a0
}

	skinparam swimlane {
	BorderColor #5e5e5e
	BorderThickness 2
	TitleBackgroundColor  #6d6d6d-#484848
	TitleFontColor #303030
}

skinparam activity {
		FontColor #C8Ac00
	BorderColor #333333
	BackgroundColor #333333-#333333
	BarColor #00FF00
	StartColor #0060a8
	EndColor #0060a8
	DiamondBackgroundColor #6d6d6d-#3a3a3a
  	DiamondBorderColor #3a3a3a
  	DiamondFontColor #fefefe
}


skinparam participant {
		FontColor #C8Ac00
	BorderColor #333333
	BackgroundColor #333333-#333333
	ParticipantBorderThickness 2
}


skinparam actor {
		FontColor #C8Ac00
	BorderColor #333333
	BackgroundColor #333333-#333333
}


skinparam arrow {
	Thickness 1.5
	Color #545454
	FontColor #a0a0a0
    FontStyle bold
    MessageAlignment center
}



skinparam sequence {
	BorderColor #303030
	TitleFontColor #303030
	BackgroundColor #333333
	StartColor #303030
	EndColor #303030
	BoxBackgroundColor #333333
	BoxBorderColor #484848
	BoxFontColor #484848
	LifeLineBorderColor #484848
	LifeLineBorderThickness 2
	LifeLineBackgroundColor #3a3a3a
	GroupBorderColor #484848
	GroupFontColor #484848
	GroupHeaderFontColor #0060a8
	GroupBackgroundColor #484848
	GroupHeaderBackgroundColor #333333
	DividerBackgroundColor #484848
    DividerBorderColor #484848
    DividerBorderThickness 2
    DividerFontColor #D8Bc00
	ReferenceBackgroundColor #333333
	ReferenceBorderColor #484848
	ReferenceFontColor #fefefe
	ReferenceHeaderBackgroundColor #484848
}


skinparam partition {
	BorderColor #303030
	FontColor #333333
	BackgroundColor #333333
}


skinparam collections {
		FontColor #C8Ac00
	BorderColor #333333
	BackgroundColor #333333-#333333
}


skinparam control {
		FontColor #C8Ac00
	BorderColor #333333
	BackgroundColor #333333-#333333
}


skinparam entity {
		FontColor #C8Ac00
	BorderColor #333333
	BackgroundColor #333333-#333333
}


skinparam boundary {
		FontColor #C8Ac00
	BorderColor #333333
	BackgroundColor #333333-#333333
}


skinparam agent {
	BackgroundColor #ff8000
	BorderColor #ff9933
	FontColor #484848
}


skinparam note {
	BorderThickness 1
	BackgroundColor #1b1b1a
	BorderColor #5e5e5e
	FontSize 11
	FontColor #a0a0a0
}


skinparam artifact {
	BorderThickness 10
	BorderColor #5e5e5e
	BackgroundColor #1b1b1a
	FontColor #D8Bc00
}


skinparam component {
		FontColor #C8Ac00
	BorderColor #333333
	BackgroundColor #333333-#333333
}


skinparam interface {
	BackgroundColor  #008400
	BorderColor  #007F00
	FontColor #484848
}


skinparam storage {
	BackgroundColor #ff8000
  	BorderColor #cc6600
	FontColor #222222
}


skinparam node {
	BackgroundColor #333333
	BorderColor #333333
	FontColor #C8Ac00
}


skinparam cloud {
	BackgroundColor #484848-black
	BorderColor #484848
	FontColor #D8Bc00
}


skinparam database {
		FontColor #C8Ac00
	BorderColor #333333
	BackgroundColor #333333-#333333
	BackgroundColor  #333333
}


skinparam class {
		FontColor #C8Ac00
	BorderColor #333333
	BackgroundColor #333333-#333333
	HeaderBackgroundColor #1b1b1a
    BackgroundColor #282828
    BorderColor #5e5e5e
 	StereotypeFontColor #a0a0a0
    StereotypeFontStyle bold
	BorderThickness 1
	AttributeFontColor #D8Bc00
	AttributeFontSize 11
    FontColor #D8Bc00
    FontStyle bold
}


skinparam object {
		FontColor #C8Ac00
	BorderColor #333333
	BackgroundColor #333333-#333333
	StereotypeFontColor #484848
	BorderThickness 1
	AttributeFontColor #fefefe
	AttributeFontSize 11
}


skinparam usecase {
		FontColor #C8Ac00
	BorderColor #333333
	BackgroundColor #333333-#333333
	BorderThickness 2
	StereotypeFontColor #303030
}


skinparam rectangle {
		FontColor #C8Ac00
	BorderColor #333333
	BackgroundColor #333333-#333333
	BackgroundColor #333333
	BorderThickness 2
	StereotypeFontColor #303030
}


skinparam package {
		FontColor #C8Ac00
	BorderColor #333333
	BackgroundColor #333333-#333333
	BackgroundColor #333333
	BorderThickness 2
}


skinparam folder {
	BackgroundColor #6d6d6d
  	BorderColor #ff8000
	FontColor #ff8000
	BorderThickness 2
}


skinparam frame {
	BackgroundColor #6d6d6d
  	BorderColor #0060a8
	FontColor #0060a8
	BorderThickness 2
}


skinparam state {
		FontColor #C8Ac00
	BorderColor #333333
	BackgroundColor #333333-#333333
	StartColor #0060a8
	EndColor #0060a8
	AttributeFontColor #fefefe
	AttributeFontSize 11
}


skinparam queue {
		FontColor #C8Ac00
	BorderColor #333333
	BackgroundColor #333333-#333333
}


skinparam card {
	BackgroundColor #0060a8
	BorderColor #004d86
	FontColor $INFO_TEXT
}


skinparam file {
	BackgroundColor #6d6d6d-#484848
	BorderColor #0060a8
	FontColor #fefefe
}


skinparam stack {
		FontColor #C8Ac00
	BorderColor #333333
	BackgroundColor #333333-#333333
}

    
    title "com.telenav.aonia.map.geography.indexing.polygon"
    
    interface Bounded
    interface Outline
    interface Intersectable
    
    Quadrant <|- - Leaf
    class Leaf
    {
        - -(constructors)- -
        +Leaf(Segment, Segment, Location)
        - -
        +Segment a()
        +Segment b()
        +Location inside()
    }
    
    class LocationArray
    {
        - -(constructors)- -
        #LocationArray()
        +LocationArray(String, Estimate)
        - -
        +Location get(int index)
        +void set(int index, Location)
    }
    
    Quadrant <|- - Node
    class Node
    {
        - -(constructors)- -
        +Node(PolygonSpatialIndex, int, int, int, int)
        +Node(PolygonSpatialIndex, Rectangle)
        - -(collection)- -
        +int northEastIndex()
        +int northWestIndex()
        +int southEastIndex()
        +int southWestIndex()
    }
    
    Intersectable <|- - PolygonSpatialIndex
    Bounded <|- - PolygonSpatialIndex
    Outline <|- - PolygonSpatialIndex
    class PolygonSpatialIndex
    {
        - -(constructors)- -
        #PolygonSpatialIndex()
        +PolygonSpatialIndex(Polygon)
        - -
        +void debug(PolygonSpatialIndexDebugger)
        +void visit(Visitor)
    }
    
    interface PolygonSpatialIndexDebugger
    {
        - -
        +void leaf(Rectangle bounds, Segment a, Segment b, Location inside)
        +void quadrant(Rectangle)
    }
    
    abstract class Quadrant
    {
        - -
        +void debug(PolygonSpatialIndexDebugger, Rectangle bounds)
        #void visit(Visitor, Rectangle bounds)
        - -(collection)- -
        +Containment contains(Location, Rectangle bounds)
    }
    
    class QuadrantStore
    {
        - -(constructors)- -
        #QuadrantStore()
        +QuadrantStore(PolygonSpatialIndex)
        - -(collection)- -
        +int add(Node)
    }
    
    interface PolygonSpatialIndex.Visitor
    {
        - -
        +void onLeaf(Rectangle bounds, Segment a, Segment b, Location inside)
    }
    
@enduml

PlantUML version 1.2021.01(Tue Feb 02 00:55:08 MST 2021)
(GPL source distribution)
Java Runtime: Java(TM) SE Runtime Environment
JVM: Java HotSpot(TM) 64-Bit Server VM
Default Encoding: UTF-8
Language: en
Country: US
--></g></svg>