<?xml version="1.0" encoding="UTF-8" standalone="no"?><svg xmlns="http://www.w3.org/2000/svg" xmlns:xlink="http://www.w3.org/1999/xlink" contentScriptType="application/ecmascript" contentStyleType="text/css" height="640.625px" preserveAspectRatio="none" style="width:2051px;height:640px;background:#333333;" version="1.1" viewBox="0 0 2051 640" width="2051.0417px" zoomAndPan="magnify"><defs/><g><rect fill="#48494B" height="41.2028" rx="8.3333" ry="8.3333" style="stroke:#545454;stroke-width:1.0416666666666667;" width="252.0833" x="892.4479" y="2.0833"/><text fill="#C0C0C0" font-family="Open Sans,Avenir,Nunito,Arial,Helvetica,SansSerif" font-size="20.8333" lengthAdjust="spacing" textLength="229.1667" x="903.9063" y="30.5583">aonia-map-geography</text><!--MD5=[4f079977920bf52107586fb847a1e92c]
entity kryo--><rect fill="#1B1B1A" height="44.93" rx="8.3333" ry="8.3333" style="stroke:#5E5E5E;stroke-width:1.5625;" width="63.5417" x="1169.2708" y="375.5778"/><polygon fill="#1B1B1A" points="1215.1042,380.7861,1215.1042,395.3695,1227.6042,395.3695,1227.6042,387.0361,1221.3542,380.7861,1215.1042,380.7861" style="stroke:#5E5E5E;stroke-width:1.5625;"/><line style="stroke:#5E5E5E;stroke-width:1.5625;" x1="1221.3542" x2="1221.3542" y1="380.7861" y2="387.0361"/><line style="stroke:#5E5E5E;stroke-width:1.5625;" x1="1227.6042" x2="1221.3542" y1="387.0361" y2="387.0361"/><text fill="#D8BC00" font-family="Open Sans,Avenir,Nunito,Arial,Helvetica,SansSerif" font-size="12.5" lengthAdjust="spacing" textLength="26.0417" x="1182.8125" y="404.3294">kryo</text><!--MD5=[745ab22dbfa32e29a2660b9e5bc2262a]
entity minlog--><rect fill="#1B1B1A" height="44.93" rx="8.3333" ry="8.3333" style="stroke:#5E5E5E;stroke-width:1.5625;" width="77.0833" x="1050" y="482.8695"/><polygon fill="#1B1B1A" points="1109.375,488.0778,1109.375,502.6611,1121.875,502.6611,1121.875,494.3278,1115.625,488.0778,1109.375,488.0778" style="stroke:#5E5E5E;stroke-width:1.5625;"/><line style="stroke:#5E5E5E;stroke-width:1.5625;" x1="1115.625" x2="1115.625" y1="488.0778" y2="494.3278"/><line style="stroke:#5E5E5E;stroke-width:1.5625;" x1="1121.875" x2="1115.625" y1="494.3278" y2="494.3278"/><text fill="#D8BC00" font-family="Open Sans,Avenir,Nunito,Arial,Helvetica,SansSerif" font-size="12.5" lengthAdjust="spacing" textLength="39.5833" x="1063.5417" y="511.6211">minlog</text><!--MD5=[5d0bc62e6e2e5a8467f655d5e580826c]
entity reflectasm--><rect fill="#1B1B1A" height="44.93" rx="8.3333" ry="8.3333" style="stroke:#5E5E5E;stroke-width:1.5625;" width="100" x="1163.5417" y="482.8695"/><polygon fill="#1B1B1A" points="1245.8333,488.0778,1245.8333,502.6611,1258.3333,502.6611,1258.3333,494.3278,1252.0833,488.0778,1245.8333,488.0778" style="stroke:#5E5E5E;stroke-width:1.5625;"/><line style="stroke:#5E5E5E;stroke-width:1.5625;" x1="1252.0833" x2="1252.0833" y1="488.0778" y2="494.3278"/><line style="stroke:#5E5E5E;stroke-width:1.5625;" x1="1258.3333" x2="1252.0833" y1="494.3278" y2="494.3278"/><text fill="#D8BC00" font-family="Open Sans,Avenir,Nunito,Arial,Helvetica,SansSerif" font-size="12.5" lengthAdjust="spacing" textLength="62.5" x="1177.0833" y="511.6211">reflectasm</text><!--MD5=[07375bd6ced801b2ef86c9d3f68eec61]
entity jackson_annotations--><rect fill="#1B1B1A" height="44.93" rx="8.3333" ry="8.3333" style="stroke:#5E5E5E;stroke-width:1.5625;" width="158.3333" x="7.2917" y="482.8695"/><polygon fill="#1B1B1A" points="147.9167,488.0778,147.9167,502.6611,160.4167,502.6611,160.4167,494.3278,154.1667,488.0778,147.9167,488.0778" style="stroke:#5E5E5E;stroke-width:1.5625;"/><line style="stroke:#5E5E5E;stroke-width:1.5625;" x1="154.1667" x2="154.1667" y1="488.0778" y2="494.3278"/><line style="stroke:#5E5E5E;stroke-width:1.5625;" x1="160.4167" x2="154.1667" y1="494.3278" y2="494.3278"/><text fill="#D8BC00" font-family="Open Sans,Avenir,Nunito,Arial,Helvetica,SansSerif" font-size="12.5" lengthAdjust="spacing" textLength="120.8333" x="20.8333" y="511.6211">jackson_annotations</text><!--MD5=[1c571ab562e5f3af129ea89ad857f3a1]
entity aonia_map_geography--><rect fill="#1B1B1A" height="44.93" rx="8.3333" ry="8.3333" style="stroke:#5E5E5E;stroke-width:1.5625;" width="172.9167" x="1430.2083" y="53.7028"/><polygon fill="#1B1B1A" points="1585.4167,58.9111,1585.4167,73.4945,1597.9167,73.4945,1597.9167,65.1611,1591.6667,58.9111,1585.4167,58.9111" style="stroke:#5E5E5E;stroke-width:1.5625;"/><line style="stroke:#5E5E5E;stroke-width:1.5625;" x1="1591.6667" x2="1591.6667" y1="58.9111" y2="65.1611"/><line style="stroke:#5E5E5E;stroke-width:1.5625;" x1="1597.9167" x2="1591.6667" y1="65.1611" y2="65.1611"/><text fill="#D8BC00" font-family="Open Sans,Avenir,Nunito,Arial,Helvetica,SansSerif" font-size="12.5" lengthAdjust="spacing" textLength="135.4167" x="1443.75" y="82.4544">aonia_map_geography</text><!--MD5=[8414f6c96bb950b5a72985c004257157]
entity aonia_map_measurements--><rect fill="#1B1B1A" height="44.93" rx="8.3333" ry="8.3333" style="stroke:#5E5E5E;stroke-width:1.5625;" width="197.9167" x="853.125" y="160.9945"/><polygon fill="#1B1B1A" points="1033.3333,166.2028,1033.3333,180.7861,1045.8333,180.7861,1045.8333,172.4528,1039.5833,166.2028,1033.3333,166.2028" style="stroke:#5E5E5E;stroke-width:1.5625;"/><line style="stroke:#5E5E5E;stroke-width:1.5625;" x1="1039.5833" x2="1039.5833" y1="166.2028" y2="172.4528"/><line style="stroke:#5E5E5E;stroke-width:1.5625;" x1="1045.8333" x2="1039.5833" y1="172.4528" y2="172.4528"/><text fill="#D8BC00" font-family="Open Sans,Avenir,Nunito,Arial,Helvetica,SansSerif" font-size="12.5" lengthAdjust="spacing" textLength="160.4167" x="866.6667" y="189.7461">aonia_map_measurements</text><!--MD5=[d9521c76c2842dca8b8a8d137addb4db]
entity kivakit_build_metadata--><rect fill="#1B1B1A" height="44.93" rx="8.3333" ry="8.3333" style="stroke:#5E5E5E;stroke-width:1.5625;" width="176.0417" x="202.6042" y="482.8695"/><polygon fill="#1B1B1A" points="360.9375,488.0778,360.9375,502.6611,373.4375,502.6611,373.4375,494.3278,367.1875,488.0778,360.9375,488.0778" style="stroke:#5E5E5E;stroke-width:1.5625;"/><line style="stroke:#5E5E5E;stroke-width:1.5625;" x1="367.1875" x2="367.1875" y1="488.0778" y2="494.3278"/><line style="stroke:#5E5E5E;stroke-width:1.5625;" x1="373.4375" x2="367.1875" y1="494.3278" y2="494.3278"/><text fill="#D8BC00" font-family="Open Sans,Avenir,Nunito,Arial,Helvetica,SansSerif" font-size="12.5" lengthAdjust="spacing" textLength="138.5417" x="216.1458" y="511.6211">kivakit_build_metadata</text><!--MD5=[c749d8fbd0ccf88f309a9fa69b45c399]
entity kivakit_core_collections--><rect fill="#1B1B1A" height="44.93" rx="8.3333" ry="8.3333" style="stroke:#5E5E5E;stroke-width:1.5625;" width="176.0417" x="1113.0208" y="160.9945"/><polygon fill="#1B1B1A" points="1271.3542,166.2028,1271.3542,180.7861,1283.8542,180.7861,1283.8542,172.4528,1277.6042,166.2028,1271.3542,166.2028" style="stroke:#5E5E5E;stroke-width:1.5625;"/><line style="stroke:#5E5E5E;stroke-width:1.5625;" x1="1277.6042" x2="1277.6042" y1="166.2028" y2="172.4528"/><line style="stroke:#5E5E5E;stroke-width:1.5625;" x1="1283.8542" x2="1277.6042" y1="172.4528" y2="172.4528"/><text fill="#D8BC00" font-family="Open Sans,Avenir,Nunito,Arial,Helvetica,SansSerif" font-size="12.5" lengthAdjust="spacing" textLength="138.5417" x="1126.5625" y="189.7461">kivakit_core_collections</text><!--MD5=[90cbd57b7ed4cf40beb41e0bb8ca8fc2]
entity kivakit_core_commandline--><rect fill="#1B1B1A" height="44.93" rx="8.3333" ry="8.3333" style="stroke:#5E5E5E;stroke-width:1.5625;" width="194.7917" x="640.1042" y="268.2861"/><polygon fill="#1B1B1A" points="817.1875,273.4945,817.1875,288.0778,829.6875,288.0778,829.6875,279.7445,823.4375,273.4945,817.1875,273.4945" style="stroke:#5E5E5E;stroke-width:1.5625;"/><line style="stroke:#5E5E5E;stroke-width:1.5625;" x1="823.4375" x2="823.4375" y1="273.4945" y2="279.7445"/><line style="stroke:#5E5E5E;stroke-width:1.5625;" x1="829.6875" x2="823.4375" y1="279.7445" y2="279.7445"/><text fill="#D8BC00" font-family="Open Sans,Avenir,Nunito,Arial,Helvetica,SansSerif" font-size="12.5" lengthAdjust="spacing" textLength="157.2917" x="653.6458" y="297.0378">kivakit_core_commandline</text><!--MD5=[688f54af1e374da9fda80b106920514e]
entity kivakit_core_kernel--><rect fill="#1B1B1A" height="44.93" rx="8.3333" ry="8.3333" style="stroke:#5E5E5E;stroke-width:1.5625;" width="152.0833" x="612.5" y="375.5778"/><polygon fill="#1B1B1A" points="746.875,380.7861,746.875,395.3695,759.375,395.3695,759.375,387.0361,753.125,380.7861,746.875,380.7861" style="stroke:#5E5E5E;stroke-width:1.5625;"/><line style="stroke:#5E5E5E;stroke-width:1.5625;" x1="753.125" x2="753.125" y1="380.7861" y2="387.0361"/><line style="stroke:#5E5E5E;stroke-width:1.5625;" x1="759.375" x2="753.125" y1="387.0361" y2="387.0361"/><text fill="#D8BC00" font-family="Open Sans,Avenir,Nunito,Arial,Helvetica,SansSerif" font-size="12.5" lengthAdjust="spacing" textLength="114.5833" x="626.0417" y="404.3294">kivakit_core_kernel</text><!--MD5=[96baabbb2bc8385dcde9005719ffbed4]
entity kivakit_core_resource--><rect fill="#1B1B1A" height="44.93" rx="8.3333" ry="8.3333" style="stroke:#5E5E5E;stroke-width:1.5625;" width="166.6667" x="1326.0417" y="160.9945"/><polygon fill="#1B1B1A" points="1475,166.2028,1475,180.7861,1487.5,180.7861,1487.5,172.4528,1481.25,166.2028,1475,166.2028" style="stroke:#5E5E5E;stroke-width:1.5625;"/><line style="stroke:#5E5E5E;stroke-width:1.5625;" x1="1481.25" x2="1481.25" y1="166.2028" y2="172.4528"/><line style="stroke:#5E5E5E;stroke-width:1.5625;" x1="1487.5" x2="1481.25" y1="172.4528" y2="172.4528"/><text fill="#D8BC00" font-family="Open Sans,Avenir,Nunito,Arial,Helvetica,SansSerif" font-size="12.5" lengthAdjust="spacing" textLength="129.1667" x="1339.5833" y="189.7461">kivakit_core_resource</text><!--MD5=[98b25bf0c66f95b164f347e9d0e8dc28]
entity kivakit_core_serialization_core--><rect fill="#1B1B1A" height="44.93" rx="8.3333" ry="8.3333" style="stroke:#5E5E5E;stroke-width:1.5625;" width="218.75" x="1346.875" y="268.2861"/><polygon fill="#1B1B1A" points="1547.9167,273.4945,1547.9167,288.0778,1560.4167,288.0778,1560.4167,279.7445,1554.1667,273.4945,1547.9167,273.4945" style="stroke:#5E5E5E;stroke-width:1.5625;"/><line style="stroke:#5E5E5E;stroke-width:1.5625;" x1="1554.1667" x2="1554.1667" y1="273.4945" y2="279.7445"/><line style="stroke:#5E5E5E;stroke-width:1.5625;" x1="1560.4167" x2="1554.1667" y1="279.7445" y2="279.7445"/><text fill="#D8BC00" font-family="Open Sans,Avenir,Nunito,Arial,Helvetica,SansSerif" font-size="12.5" lengthAdjust="spacing" textLength="181.25" x="1360.4167" y="297.0378">kivakit_core_serialization_core</text><!--MD5=[0a9583a81da34a7dccf2b6c4ad7f5d24]
entity kivakit_core_serialization_kryo--><rect fill="#1B1B1A" height="44.93" rx="8.3333" ry="8.3333" style="stroke:#5E5E5E;stroke-width:1.5625;" width="218.75" x="1091.6667" y="268.2861"/><polygon fill="#1B1B1A" points="1292.7083,273.4945,1292.7083,288.0778,1305.2083,288.0778,1305.2083,279.7445,1298.9583,273.4945,1292.7083,273.4945" style="stroke:#5E5E5E;stroke-width:1.5625;"/><line style="stroke:#5E5E5E;stroke-width:1.5625;" x1="1298.9583" x2="1298.9583" y1="273.4945" y2="279.7445"/><line style="stroke:#5E5E5E;stroke-width:1.5625;" x1="1305.2083" x2="1298.9583" y1="279.7445" y2="279.7445"/><text fill="#D8BC00" font-family="Open Sans,Avenir,Nunito,Arial,Helvetica,SansSerif" font-size="12.5" lengthAdjust="spacing" textLength="181.25" x="1105.2083" y="297.0378">kivakit_core_serialization_kryo</text><!--MD5=[818dec80b2352fb7b5669cdb2944a52b]
entity kivakit_core_test--><rect fill="#1B1B1A" height="44.93" rx="8.3333" ry="8.3333" style="stroke:#5E5E5E;stroke-width:1.5625;" width="136.4583" x="883.8542" y="268.2861"/><polygon fill="#1B1B1A" points="1002.6042,273.4945,1002.6042,288.0778,1015.1042,288.0778,1015.1042,279.7445,1008.8542,273.4945,1002.6042,273.4945" style="stroke:#5E5E5E;stroke-width:1.5625;"/><line style="stroke:#5E5E5E;stroke-width:1.5625;" x1="1008.8542" x2="1008.8542" y1="273.4945" y2="279.7445"/><line style="stroke:#5E5E5E;stroke-width:1.5625;" x1="1015.1042" x2="1008.8542" y1="279.7445" y2="279.7445"/><text fill="#D8BC00" font-family="Open Sans,Avenir,Nunito,Arial,Helvetica,SansSerif" font-size="12.5" lengthAdjust="spacing" textLength="98.9583" x="897.3958" y="297.0378">kivakit_core_test</text><!--MD5=[d079e480d5d45338d66b0a803aea0fe8]
entity kivakit_data_compression--><rect fill="#1B1B1A" height="44.93" rx="8.3333" ry="8.3333" style="stroke:#5E5E5E;stroke-width:1.5625;" width="191.6667" x="1529.1667" y="160.9945"/><polygon fill="#1B1B1A" points="1703.125,166.2028,1703.125,180.7861,1715.625,180.7861,1715.625,172.4528,1709.375,166.2028,1703.125,166.2028" style="stroke:#5E5E5E;stroke-width:1.5625;"/><line style="stroke:#5E5E5E;stroke-width:1.5625;" x1="1709.375" x2="1709.375" y1="166.2028" y2="172.4528"/><line style="stroke:#5E5E5E;stroke-width:1.5625;" x1="1715.625" x2="1709.375" y1="172.4528" y2="172.4528"/><text fill="#D8BC00" font-family="Open Sans,Avenir,Nunito,Arial,Helvetica,SansSerif" font-size="12.5" lengthAdjust="spacing" textLength="154.1667" x="1542.7083" y="189.7461">kivakit_data_compression</text><!--MD5=[777f537393e16daa648c56fbfeea7987]
entity kivakit_math--><rect fill="#1B1B1A" height="44.93" rx="8.3333" ry="8.3333" style="stroke:#5E5E5E;stroke-width:1.5625;" width="112.5" x="1757.2917" y="160.9945"/><polygon fill="#1B1B1A" points="1852.0833,166.2028,1852.0833,180.7861,1864.5833,180.7861,1864.5833,172.4528,1858.3333,166.2028,1852.0833,166.2028" style="stroke:#5E5E5E;stroke-width:1.5625;"/><line style="stroke:#5E5E5E;stroke-width:1.5625;" x1="1858.3333" x2="1858.3333" y1="166.2028" y2="172.4528"/><line style="stroke:#5E5E5E;stroke-width:1.5625;" x1="1864.5833" x2="1858.3333" y1="172.4528" y2="172.4528"/><text fill="#D8BC00" font-family="Open Sans,Avenir,Nunito,Arial,Helvetica,SansSerif" font-size="12.5" lengthAdjust="spacing" textLength="75" x="1770.8333" y="189.7461">kivakit_math</text><!--MD5=[7b0fec798d1f32628676dfdf75f1f662]
entity lexakai_annotations--><rect fill="#1B1B1A" height="44.93" rx="8.3333" ry="8.3333" style="stroke:#5E5E5E;stroke-width:1.5625;" width="155.2083" x="415.1042" y="482.8695"/><polygon fill="#1B1B1A" points="552.6042,488.0778,552.6042,502.6611,565.1042,502.6611,565.1042,494.3278,558.8542,488.0778,552.6042,488.0778" style="stroke:#5E5E5E;stroke-width:1.5625;"/><line style="stroke:#5E5E5E;stroke-width:1.5625;" x1="558.8542" x2="558.8542" y1="488.0778" y2="494.3278"/><line style="stroke:#5E5E5E;stroke-width:1.5625;" x1="565.1042" x2="558.8542" y1="494.3278" y2="494.3278"/><text fill="#D8BC00" font-family="Open Sans,Avenir,Nunito,Arial,Helvetica,SansSerif" font-size="12.5" lengthAdjust="spacing" textLength="117.7083" x="428.6458" y="511.6211">lexakai_annotations</text><!--MD5=[b9ccc173c089e3d2abf77c8581e74aca]
entity kryo_serializers--><rect fill="#1B1B1A" height="44.93" rx="8.3333" ry="8.3333" style="stroke:#5E5E5E;stroke-width:1.5625;" width="131.25" x="1269.7917" y="375.5778"/><polygon fill="#1B1B1A" points="1383.3333,380.7861,1383.3333,395.3695,1395.8333,395.3695,1395.8333,387.0361,1389.5833,380.7861,1383.3333,380.7861" style="stroke:#5E5E5E;stroke-width:1.5625;"/><line style="stroke:#5E5E5E;stroke-width:1.5625;" x1="1389.5833" x2="1389.5833" y1="380.7861" y2="387.0361"/><line style="stroke:#5E5E5E;stroke-width:1.5625;" x1="1395.8333" x2="1389.5833" y1="387.0361" y2="387.0361"/><text fill="#D8BC00" font-family="Open Sans,Avenir,Nunito,Arial,Helvetica,SansSerif" font-size="12.5" lengthAdjust="spacing" textLength="93.75" x="1283.3333" y="404.3294">kryo_serializers</text><!--MD5=[23cc7f88cfa1ae4b54fca2963c42906f]
entity swagger_annotations--><rect fill="#1B1B1A" height="44.93" rx="8.3333" ry="8.3333" style="stroke:#5E5E5E;stroke-width:1.5625;" width="162.5" x="607.2917" y="482.8695"/><polygon fill="#1B1B1A" points="752.0833,488.0778,752.0833,502.6611,764.5833,502.6611,764.5833,494.3278,758.3333,488.0778,752.0833,488.0778" style="stroke:#5E5E5E;stroke-width:1.5625;"/><line style="stroke:#5E5E5E;stroke-width:1.5625;" x1="758.3333" x2="758.3333" y1="488.0778" y2="494.3278"/><line style="stroke:#5E5E5E;stroke-width:1.5625;" x1="764.5833" x2="758.3333" y1="494.3278" y2="494.3278"/><text fill="#D8BC00" font-family="Open Sans,Avenir,Nunito,Arial,Helvetica,SansSerif" font-size="12.5" lengthAdjust="spacing" textLength="125" x="620.8333" y="511.6211">swagger_annotations</text><!--MD5=[ce55b294004802c137560c2930be5b75]
entity junit--><rect fill="#1B1B1A" height="44.93" rx="8.3333" ry="8.3333" style="stroke:#5E5E5E;stroke-width:1.5625;" width="63.5417" x="806.7708" y="482.8695"/><polygon fill="#1B1B1A" points="852.6042,488.0778,852.6042,502.6611,865.1042,502.6611,865.1042,494.3278,858.8542,488.0778,852.6042,488.0778" style="stroke:#5E5E5E;stroke-width:1.5625;"/><line style="stroke:#5E5E5E;stroke-width:1.5625;" x1="858.8542" x2="858.8542" y1="488.0778" y2="494.3278"/><line style="stroke:#5E5E5E;stroke-width:1.5625;" x1="865.1042" x2="858.8542" y1="494.3278" y2="494.3278"/><text fill="#D8BC00" font-family="Open Sans,Avenir,Nunito,Arial,Helvetica,SansSerif" font-size="12.5" lengthAdjust="spacing" textLength="26.0417" x="820.3125" y="511.6211">junit</text><!--MD5=[374397457fd87171900b6bd6464bbf1c]
entity commons_math--><rect fill="#1B1B1A" height="44.93" rx="8.3333" ry="8.3333" style="stroke:#5E5E5E;stroke-width:1.5625;" width="131.25" x="1747.9167" y="268.2861"/><polygon fill="#1B1B1A" points="1861.4583,273.4945,1861.4583,288.0778,1873.9583,288.0778,1873.9583,279.7445,1867.7083,273.4945,1861.4583,273.4945" style="stroke:#5E5E5E;stroke-width:1.5625;"/><line style="stroke:#5E5E5E;stroke-width:1.5625;" x1="1867.7083" x2="1867.7083" y1="273.4945" y2="279.7445"/><line style="stroke:#5E5E5E;stroke-width:1.5625;" x1="1873.9583" x2="1867.7083" y1="279.7445" y2="279.7445"/><text fill="#D8BC00" font-family="Open Sans,Avenir,Nunito,Arial,Helvetica,SansSerif" font-size="12.5" lengthAdjust="spacing" textLength="93.75" x="1761.4583" y="297.0378">commons_math</text><!--MD5=[7f157d37bc1fd6ac970bb67ffdbc66a3]
entity hamcrest_core--><rect fill="#1B1B1A" height="44.93" rx="8.3333" ry="8.3333" style="stroke:#5E5E5E;stroke-width:1.5625;" width="125" x="776.0417" y="590.1611"/><polygon fill="#1B1B1A" points="883.3333,595.3695,883.3333,609.9528,895.8333,609.9528,895.8333,601.6195,889.5833,595.3695,883.3333,595.3695" style="stroke:#5E5E5E;stroke-width:1.5625;"/><line style="stroke:#5E5E5E;stroke-width:1.5625;" x1="889.5833" x2="889.5833" y1="595.3695" y2="601.6195"/><line style="stroke:#5E5E5E;stroke-width:1.5625;" x1="895.8333" x2="889.5833" y1="601.6195" y2="601.6195"/><text fill="#D8BC00" font-family="Open Sans,Avenir,Nunito,Arial,Helvetica,SansSerif" font-size="12.5" lengthAdjust="spacing" textLength="87.5" x="789.5833" y="618.9128">hamcrest_core</text><!--MD5=[b728e17b4e4da6aa8cb97e9b2766c5e6]
entity annotations--><rect fill="#1B1B1A" height="44.93" rx="8.3333" ry="8.3333" style="stroke:#5E5E5E;stroke-width:1.5625;" width="106.25" x="907.2917" y="482.8695"/><polygon fill="#1B1B1A" points="995.8333,488.0778,995.8333,502.6611,1008.3333,502.6611,1008.3333,494.3278,1002.0833,488.0778,995.8333,488.0778" style="stroke:#5E5E5E;stroke-width:1.5625;"/><line style="stroke:#5E5E5E;stroke-width:1.5625;" x1="1002.0833" x2="1002.0833" y1="488.0778" y2="494.3278"/><line style="stroke:#5E5E5E;stroke-width:1.5625;" x1="1008.3333" x2="1002.0833" y1="494.3278" y2="494.3278"/><text fill="#D8BC00" font-family="Open Sans,Avenir,Nunito,Arial,Helvetica,SansSerif" font-size="12.5" lengthAdjust="spacing" textLength="68.75" x="920.8333" y="511.6211">annotations</text><!--MD5=[68effb33b25252add3b1fff00ec74208]
entity shapefilereader--><rect fill="#1B1B1A" height="44.93" rx="8.3333" ry="8.3333" style="stroke:#5E5E5E;stroke-width:1.5625;" width="132.2917" x="1906.7708" y="160.9945"/><polygon fill="#1B1B1A" points="2021.3542,166.2028,2021.3542,180.7861,2033.8542,180.7861,2033.8542,172.4528,2027.6042,166.2028,2021.3542,166.2028" style="stroke:#5E5E5E;stroke-width:1.5625;"/><line style="stroke:#5E5E5E;stroke-width:1.5625;" x1="2027.6042" x2="2027.6042" y1="166.2028" y2="172.4528"/><line style="stroke:#5E5E5E;stroke-width:1.5625;" x1="2033.8542" x2="2027.6042" y1="172.4528" y2="172.4528"/><text fill="#D8BC00" font-family="Open Sans,Avenir,Nunito,Arial,Helvetica,SansSerif" font-size="12.5" lengthAdjust="spacing" textLength="94.7917" x="1920.3125" y="189.7461">shapefilereader</text><!--MD5=[b3c862d1486667ad9c7edef6529b2202]
entity objenesis--><rect fill="#1B1B1A" height="44.93" rx="8.3333" ry="8.3333" style="stroke:#5E5E5E;stroke-width:1.5625;" width="94.7917" x="1300.5208" y="482.8695"/><polygon fill="#1B1B1A" points="1377.6042,488.0778,1377.6042,502.6611,1390.1042,502.6611,1390.1042,494.3278,1383.8542,488.0778,1377.6042,488.0778" style="stroke:#5E5E5E;stroke-width:1.5625;"/><line style="stroke:#5E5E5E;stroke-width:1.5625;" x1="1383.8542" x2="1383.8542" y1="488.0778" y2="494.3278"/><line style="stroke:#5E5E5E;stroke-width:1.5625;" x1="1390.1042" x2="1383.8542" y1="494.3278" y2="494.3278"/><text fill="#D8BC00" font-family="Open Sans,Avenir,Nunito,Arial,Helvetica,SansSerif" font-size="12.5" lengthAdjust="spacing" textLength="57.2917" x="1314.0625" y="511.6211">objenesis</text><!--MD5=[92e2ad58d19962135e7ff93f22958550]
entity asm--><rect fill="#1B1B1A" height="44.93" rx="8.3333" ry="8.3333" style="stroke:#5E5E5E;stroke-width:1.5625;" width="62.5" x="1182.2917" y="590.1611"/><polygon fill="#1B1B1A" points="1227.0833,595.3695,1227.0833,609.9528,1239.5833,609.9528,1239.5833,601.6195,1233.3333,595.3695,1227.0833,595.3695" style="stroke:#5E5E5E;stroke-width:1.5625;"/><line style="stroke:#5E5E5E;stroke-width:1.5625;" x1="1233.3333" x2="1233.3333" y1="595.3695" y2="601.6195"/><line style="stroke:#5E5E5E;stroke-width:1.5625;" x1="1239.5833" x2="1233.3333" y1="601.6195" y2="601.6195"/><text fill="#D8BC00" font-family="Open Sans,Avenir,Nunito,Arial,Helvetica,SansSerif" font-size="12.5" lengthAdjust="spacing" textLength="25" x="1195.8333" y="618.9128">asm</text><!--MD5=[dbcfd7b247fe81ac4a871bd0c00bf364]
link aonia_map_geography to aonia_map_measurements--><path d="M1430,93.2861 C1329.5313,112.0153 1164.0313,142.8486 1056.5521,162.8799 " fill="none" id="aonia_map_geography-to-aonia_map_measurements" style="stroke:#545454;stroke-width:1.5625;"/><polygon fill="#545454" points="1051.1563,163.8903,1061.1352,166.2719,1056.2767,162.9377,1059.611,158.0792,1051.1563,163.8903" style="stroke:#545454;stroke-width:1.5625;"/><!--MD5=[292b9f46a1da4548cc53e58aa63c16d7]
link aonia_map_geography to kivakit_core_collections--><path d="M1452.4167,98.557 C1399.5104,116.1924 1324.6458,141.1507 1270.3854,159.234 " fill="none" id="aonia_map_geography-to-kivakit_core_collections" style="stroke:#545454;stroke-width:1.5625;"/><polygon fill="#545454" points="1265.2083,160.9632,1275.4181,161.9699,1270.1524,159.3251,1272.7971,154.0594,1265.2083,160.9632" style="stroke:#545454;stroke-width:1.5625;"/><!--MD5=[1be0f3abd987e16c8dd3b352f0e4bee0]
link aonia_map_geography to kivakit_core_resource--><path d="M1494.4375,98.9424 C1477.1979,115.8382 1453.2917,139.2861 1435.2083,157.0153 " fill="none" id="aonia_map_geography-to-kivakit_core_resource" style="stroke:#545454;stroke-width:1.5625;"/><polygon fill="#545454" points="1431.2083,160.9424,1440.8204,157.3564,1434.9282,157.2969,1434.9877,151.4047,1431.2083,160.9424" style="stroke:#545454;stroke-width:1.5625;"/><!--MD5=[1afa703c42dbd96e48186562a4eab565]
link aonia_map_geography to kivakit_data_compression--><path d="M1538.8542,98.682 C1556.2292,115.5674 1580.4583,139.0882 1598.7917,156.9007 " fill="none" id="aonia_map_geography-to-kivakit_data_compression" style="stroke:#545454;stroke-width:1.5625;"/><polygon fill="#545454" points="1602.8438,160.8382,1599.0063,151.3237,1599.1018,157.2155,1593.21,157.3109,1602.8438,160.8382" style="stroke:#545454;stroke-width:1.5625;"/><!--MD5=[3c9e267440b7a2ddde7ce49314e4789c]
link aonia_map_geography to kivakit_math--><path d="M1577.1042,98.557 C1628.0729,116.6195 1700.7188,142.3695 1752,160.5361 " fill="none" id="aonia_map_geography-to-kivakit_math" style="stroke:#545454;stroke-width:1.5625;"/><polygon fill="#545454" points="1757.2083,162.3903,1749.7456,155.3504,1752.2947,160.6631,1746.9821,163.2122,1757.2083,162.3903" style="stroke:#545454;stroke-width:1.5625;"/><!--MD5=[b34facb66e16b19a8905de17224502c2]
link aonia_map_geography to shapefilereader--><path d="M1603.2292,95.984 C1678.6875,112.5778 1791.0313,137.6611 1888.5417,160.9945 C1892.7708,162.0049 1897.1042,163.057 1901.4792,164.1299 " fill="none" id="aonia_map_geography-to-shapefilereader" style="stroke:#545454;stroke-width:1.5625;"/><polygon fill="#545454" points="1906.6354,165.4007,1898.5334,159.1071,1901.5791,164.1515,1896.5347,167.1972,1906.6354,165.4007" style="stroke:#545454;stroke-width:1.5625;"/><!--MD5=[7760c851c987b52f36758516389d4f0a]
link aonia_map_measurements to kivakit_core_commandline--><path d="M908.1458,205.9736 C872.6979,223.3486 822.8958,247.7757 786.2396,265.7445 " fill="none" id="aonia_map_measurements-to-kivakit_core_commandline" style="stroke:#545454;stroke-width:1.5625;"/><polygon fill="#545454" points="781.3854,268.1299,791.6378,267.7556,786.0645,265.8423,787.9777,260.269,781.3854,268.1299" style="stroke:#545454;stroke-width:1.5625;"/><!--MD5=[011adfa1f5389178a48a4ebfdae9edb9]
link aonia_map_measurements to kivakit_core_test--><path d="M952.0833,206.234 C952.0833,222.7028 952.0833,245.4007 952.0833,262.9528 " fill="none" id="aonia_map_measurements-to-kivakit_core_test" style="stroke:#545454;stroke-width:1.5625;"/><polygon fill="#545454" points="952.0833,268.234,956.25,258.859,952.0833,263.0257,947.9167,258.859,952.0833,268.234" style="stroke:#545454;stroke-width:1.5625;"/><!--MD5=[d68e7c4b3ca5f037bcb6997a0b4ed16b]
link junit to hamcrest_core--><path d="M838.5417,528.109 C838.5417,544.5778 838.5417,567.2757 838.5417,584.8278 " fill="none" id="junit-to-hamcrest_core" style="stroke:#545454;stroke-width:1.5625;"/><polygon fill="#545454" points="838.5417,590.109,842.7083,580.734,838.5417,584.9007,834.375,580.734,838.5417,590.109" style="stroke:#545454;stroke-width:1.5625;"/><!--MD5=[89a440cab1a8a2054a43eb185086c0c4]
link kivakit_core_collections to kivakit_core_serialization_kryo--><path d="M1201.0417,206.234 C1201.0417,222.7028 1201.0417,245.4007 1201.0417,262.9528 " fill="none" id="kivakit_core_collections-to-kivakit_core_serialization_kryo" style="stroke:#545454;stroke-width:1.5625;"/><polygon fill="#545454" points="1201.0417,268.234,1205.2083,258.859,1201.0417,263.0257,1196.875,258.859,1201.0417,268.234" style="stroke:#545454;stroke-width:1.5625;"/><!--MD5=[e405cd3841b6b84328a74eb7d1fd93b0]
link kivakit_core_commandline to kivakit_core_kernel--><path d="M727.3542,313.5257 C719.625,330.1403 708.9479,353.0778 700.75,370.7028 " fill="none" id="kivakit_core_commandline-to-kivakit_core_kernel" style="stroke:#545454;stroke-width:1.5625;"/><polygon fill="#545454" points="698.5104,375.5257,706.2519,368.7936,700.7138,370.8064,698.701,365.2683,698.5104,375.5257" style="stroke:#545454;stroke-width:1.5625;"/><!--MD5=[952d2988887d0a1a5ab8e547a07453b0]
link kivakit_core_kernel to annotations--><path d="M743.8854,420.432 C789.875,438.234 855.125,463.4736 901.9583,481.5986 " fill="none" id="kivakit_core_kernel-to-annotations" style="stroke:#545454;stroke-width:1.5625;"/><polygon fill="#545454" points="907,483.557,899.7576,476.2907,902.1419,481.6793,896.7533,484.0636,907,483.557" style="stroke:#545454;stroke-width:1.5625;"/><!--MD5=[b7680a521db9e3e37ee2504e235738ce]
link kivakit_core_kernel to jackson_annotations--><path d="M612.3125,410.484 C513.3958,425.6403 335.5625,453.8278 184.375,482.8695 C180.0104,483.7028 175.5521,484.5882 171.0521,485.5049 " fill="none" id="kivakit_core_kernel-to-jackson_annotations" style="stroke:#545454;stroke-width:1.5625;"/><polygon fill="#545454" points="165.75,486.5778,175.7688,488.7857,170.8531,485.5363,174.1025,480.6207,165.75,486.5778" style="stroke:#545454;stroke-width:1.5625;"/><!--MD5=[b26fa4ddfc815a8311f8076e771ef7d4]
link kivakit_core_kernel to junit--><path d="M719.2604,420.557 C743.7292,437.7236 778,461.7549 803.5313,479.6611 " fill="none" id="kivakit_core_kernel-to-junit" style="stroke:#545454;stroke-width:1.5625;"/><polygon fill="#545454" points="807.8646,482.7132,802.5758,473.9223,803.5984,479.7254,797.7953,480.7481,807.8646,482.7132" style="stroke:#545454;stroke-width:1.5625;"/><!--MD5=[147bacadb2b5082a02772764a83ed950]
link kivakit_core_kernel to kivakit_build_metadata--><path d="M612.2917,419.1715 C544.9896,436.9736 446.9583,462.8903 376.8229,481.432 " fill="none" id="kivakit_core_kernel-to-kivakit_build_metadata" style="stroke:#545454;stroke-width:1.5625;"/><polygon fill="#545454" points="371.4063,482.8695,381.5377,484.4836,376.4392,481.5293,379.3935,476.4308,371.4063,482.8695" style="stroke:#545454;stroke-width:1.5625;"/><!--MD5=[faeafeee9ad3ae3a363b253ef7d19a64]
link kivakit_core_kernel to lexakai_annotations--><path d="M648.4375,420.557 C616.2292,437.859 571.0104,462.1507 537.5938,480.109 " fill="none" id="kivakit_core_kernel-to-lexakai_annotations" style="stroke:#545454;stroke-width:1.5625;"/><polygon fill="#545454" points="532.7604,482.7132,542.9899,481.9332,537.3452,480.2422,539.0363,474.5975,532.7604,482.7132" style="stroke:#545454;stroke-width:1.5625;"/><!--MD5=[99fa47cbfc1fc0fa6998fda90ce70c02]
link kivakit_core_kernel to swagger_annotations--><path d="M688.5417,420.8174 C688.5417,437.2861 688.5417,459.984 688.5417,477.5361 " fill="none" id="kivakit_core_kernel-to-swagger_annotations" style="stroke:#545454;stroke-width:1.5625;"/><polygon fill="#545454" points="688.5417,482.8174,692.7083,473.4424,688.5417,477.609,684.375,473.4424,688.5417,482.8174" style="stroke:#545454;stroke-width:1.5625;"/><!--MD5=[a1f0f27ef0eb17168c6cd06fee466f5d]
link kivakit_core_resource to kivakit_core_serialization_core--><path d="M1419.0833,206.234 C1426.4896,222.8486 1436.7083,245.7861 1444.5625,263.4111 " fill="none" id="kivakit_core_resource-to-kivakit_core_serialization_core" style="stroke:#545454;stroke-width:1.5625;"/><polygon fill="#545454" points="1446.7083,268.234,1446.7143,257.9748,1444.5958,263.4734,1439.0972,261.3549,1446.7083,268.234" style="stroke:#545454;stroke-width:1.5625;"/><!--MD5=[a78602a5e159932f58b4090c620edf6f]
link kivakit_core_serialization_kryo to kryo--><path d="M1201.0417,313.5257 C1201.0417,329.9945 1201.0417,352.6924 1201.0417,370.2445 " fill="none" id="kivakit_core_serialization_kryo-to-kryo" style="stroke:#545454;stroke-width:1.5625;"/><polygon fill="#545454" points="1201.0417,375.5257,1205.2083,366.1507,1201.0417,370.3174,1196.875,366.1507,1201.0417,375.5257" style="stroke:#545454;stroke-width:1.5625;"/><!--MD5=[929cb75ecd116a31d1013b63d48976ad]
link kivakit_core_serialization_kryo to kryo_serializers--><path d="M1228.5625,313.2653 C1250.3854,330.359 1280.9271,354.2653 1303.7604,372.1507 " fill="none" id="kivakit_core_serialization_kryo-to-kryo_serializers" style="stroke:#545454;stroke-width:1.5625;"/><polygon fill="#545454" points="1307.9375,375.4215,1303.1226,366.3624,1303.8359,372.2116,1297.9867,372.9249,1307.9375,375.4215" style="stroke:#545454;stroke-width:1.5625;"/><!--MD5=[3a8da46707b3267a7def2c5b13e3afea]
link kivakit_math to commons_math--><path d="M1813.5417,206.234 C1813.5417,222.7028 1813.5417,245.4007 1813.5417,262.9528 " fill="none" id="kivakit_math-to-commons_math" style="stroke:#545454;stroke-width:1.5625;"/><polygon fill="#545454" points="1813.5417,268.234,1817.7083,258.859,1813.5417,263.0257,1809.375,258.859,1813.5417,268.234" style="stroke:#545454;stroke-width:1.5625;"/><!--MD5=[8c32f0e7b0abeba01afd276f5a66ee84]
link kryo to minlog--><path d="M1178,420.557 C1159.9583,437.4424 1134.8021,460.9632 1115.7604,478.7757 " fill="none" id="kryo-to-minlog" style="stroke:#545454;stroke-width:1.5625;"/><polygon fill="#545454" points="1111.5521,482.7132,1121.2483,479.3612,1115.3592,479.1589,1115.5614,473.2699,1111.5521,482.7132" style="stroke:#545454;stroke-width:1.5625;"/><!--MD5=[e75c16e47fcf6c43b15d3c25536a9ed0]
link kryo to objenesis--><path d="M1231.1146,420.557 C1255.0729,437.7236 1288.6354,461.7549 1313.6354,479.6611 " fill="none" id="kryo-to-objenesis" style="stroke:#545454;stroke-width:1.5625;"/><polygon fill="#545454" points="1317.875,482.7132,1312.6769,473.8684,1313.6398,479.6817,1307.8265,480.6447,1317.875,482.7132" style="stroke:#545454;stroke-width:1.5625;"/><!--MD5=[e061beb27669383d030ce0c5c656b006]
link kryo to reflectasm--><path d="M1203.6354,420.8174 C1205.5938,437.2861 1208.2813,459.984 1210.375,477.5361 " fill="none" id="kryo-to-reflectasm" style="stroke:#545454;stroke-width:1.5625;"/><polygon fill="#545454" points="1211,482.8174,1214.0133,473.0107,1210.3759,477.6466,1205.74,474.0092,1211,482.8174" style="stroke:#545454;stroke-width:1.5625;"/><!--MD5=[338783537f3f9263e4097f5ff0c514d3]
link reflectasm to asm--><path d="M1213.5417,528.109 C1213.5417,544.5778 1213.5417,567.2757 1213.5417,584.8278 " fill="none" id="reflectasm-to-asm" style="stroke:#545454;stroke-width:1.5625;"/><polygon fill="#545454" points="1213.5417,590.109,1217.7083,580.734,1213.5417,584.9007,1209.375,580.734,1213.5417,590.109" style="stroke:#545454;stroke-width:1.5625;"/><!--MD5=[7257c187abef103631e5428d2dc69720]
@startuml

    !include ../lexakai/lexakai.theme
    
    title "aonia-map-geography"
    
    artifact kryo
    artifact minlog
    artifact reflectasm
    artifact jackson_annotations
    artifact aonia_map_geography
    artifact aonia_map_measurements
    artifact kivakit_build_metadata
    artifact kivakit_core_collections
    artifact kivakit_core_commandline
    artifact kivakit_core_kernel
    artifact kivakit_core_resource
    artifact kivakit_core_serialization_core
    artifact kivakit_core_serialization_kryo
    artifact kivakit_core_test
    artifact kivakit_data_compression
    artifact kivakit_math
    artifact lexakai_annotations
    artifact kryo_serializers
    artifact swagger_annotations
    artifact junit
    artifact commons_math
    artifact hamcrest_core
    artifact annotations
    artifact shapefilereader
    artifact objenesis
    artifact asm
    aonia_map_geography - -> aonia_map_measurements
    aonia_map_geography - -> kivakit_core_collections
    aonia_map_geography - -> kivakit_core_resource
    aonia_map_geography - -> kivakit_data_compression
    aonia_map_geography - -> kivakit_math
    aonia_map_geography - -> shapefilereader
    aonia_map_measurements - -> kivakit_core_commandline
    aonia_map_measurements - -> kivakit_core_test
    junit - -> hamcrest_core
    kivakit_core_collections - -> kivakit_core_serialization_kryo
    kivakit_core_commandline - -> kivakit_core_kernel
    kivakit_core_kernel - -> annotations
    kivakit_core_kernel - -> jackson_annotations
    kivakit_core_kernel - -> junit
    kivakit_core_kernel - -> kivakit_build_metadata
    kivakit_core_kernel - -> lexakai_annotations
    kivakit_core_kernel - -> swagger_annotations
    kivakit_core_resource - -> kivakit_core_serialization_core
    kivakit_core_serialization_kryo - -> kryo
    kivakit_core_serialization_kryo - -> kryo_serializers
    kivakit_math - -> commons_math
    kryo - -> minlog
    kryo - -> objenesis
    kryo - -> reflectasm
    reflectasm - -> asm
    
@enduml

@startuml









skinparam backgroundColor #333333






skinparam  {
    defaultFontName   "Open Sans,Avenir,Nunito,Arial,Helvetica,SansSerif"
    defaultFontSize   12
    defaultTextAlignment left
    shadowing false
    RoundCorner 10
    TitleFontSize 18
}

skinparam defaultFontName       "Open Sans,Avenir,Nunito,Arial,Helvetica,SansSerif"
skinparam defaultFontSize       12
skinparam dpi                   100
skinparam shadowing             false
skinparam roundcorner           16
skinparam ParticipantPadding    40
skinparam BoxPadding            40
skinparam Padding               3
skinparam ArrowColor            #545454
skinparam stereotype {
    CBackgroundColor #0066cf
    CBorderColor #0086ef
    ABackgroundColor #C8Ac00
    ABorderColor #D8Bc00
    IBackgroundColor #008400
    IBorderColor #239c23
    EBackgroundColor #cf6300
    EBorderColor #ef8300
    NBackgroundColor #3380b9
    NBorderColor #004d86
}
skinparam title {
	FontColor	                 #c0c0c0
 	BorderColor                  #545454
	FontSize	    	         20
	BorderRoundCorner            16
	BorderThickness 	         1
	BackgroundColor              #48494b
}


skinparam legend {
	BackgroundColor #303030
	BorderColor #404040
	FontColor #a0a0a0
}

	skinparam swimlane {
	BorderColor #5e5e5e
	BorderThickness 2
	TitleBackgroundColor  #6d6d6d-#484848
	TitleFontColor #303030
}

skinparam activity {
		FontColor #C8Ac00
	BorderColor #333333
	BackgroundColor #333333-#333333
	BarColor #00FF00
	StartColor #0060a8
	EndColor #0060a8
	DiamondBackgroundColor #6d6d6d-#3a3a3a
  	DiamondBorderColor #3a3a3a
  	DiamondFontColor #fefefe
}


skinparam participant {
		FontColor #C8Ac00
	BorderColor #333333
	BackgroundColor #333333-#333333
	ParticipantBorderThickness 2
}


skinparam actor {
		FontColor #C8Ac00
	BorderColor #333333
	BackgroundColor #333333-#333333
}


skinparam arrow {
	Thickness 1.5
	Color #545454
	FontColor #a0a0a0
    FontStyle bold
    MessageAlignment center
}



skinparam sequence {
	BorderColor #303030
	TitleFontColor #303030
	BackgroundColor #333333
	StartColor #303030
	EndColor #303030
	BoxBackgroundColor #333333
	BoxBorderColor #484848
	BoxFontColor #484848
	LifeLineBorderColor #484848
	LifeLineBorderThickness 2
	LifeLineBackgroundColor #3a3a3a
	GroupBorderColor #484848
	GroupFontColor #484848
	GroupHeaderFontColor #0060a8
	GroupBackgroundColor #484848
	GroupHeaderBackgroundColor #333333
	DividerBackgroundColor #484848
    DividerBorderColor #484848
    DividerBorderThickness 2
    DividerFontColor #D8Bc00
	ReferenceBackgroundColor #333333
	ReferenceBorderColor #484848
	ReferenceFontColor #fefefe
	ReferenceHeaderBackgroundColor #484848
}


skinparam partition {
	BorderColor #303030
	FontColor #333333
	BackgroundColor #333333
}


skinparam collections {
		FontColor #C8Ac00
	BorderColor #333333
	BackgroundColor #333333-#333333
}


skinparam control {
		FontColor #C8Ac00
	BorderColor #333333
	BackgroundColor #333333-#333333
}


skinparam entity {
		FontColor #C8Ac00
	BorderColor #333333
	BackgroundColor #333333-#333333
}


skinparam boundary {
		FontColor #C8Ac00
	BorderColor #333333
	BackgroundColor #333333-#333333
}


skinparam agent {
	BackgroundColor #ff8000
	BorderColor #ff9933
	FontColor #484848
}


skinparam note {
	BorderThickness 1
	BackgroundColor #1b1b1a
	BorderColor #5e5e5e
	FontSize 11
	FontColor #a0a0a0
}


skinparam artifact {
	BorderThickness 10
	BorderColor #5e5e5e
	BackgroundColor #1b1b1a
	FontColor #D8Bc00
}


skinparam component {
		FontColor #C8Ac00
	BorderColor #333333
	BackgroundColor #333333-#333333
}


skinparam interface {
	BackgroundColor  #008400
	BorderColor  #007F00
	FontColor #484848
}


skinparam storage {
	BackgroundColor #ff8000
  	BorderColor #cc6600
	FontColor #222222
}


skinparam node {
	BackgroundColor #333333
	BorderColor #333333
	FontColor #C8Ac00
}


skinparam cloud {
	BackgroundColor #484848-black
	BorderColor #484848
	FontColor #D8Bc00
}


skinparam database {
		FontColor #C8Ac00
	BorderColor #333333
	BackgroundColor #333333-#333333
	BackgroundColor  #333333
}


skinparam class {
		FontColor #C8Ac00
	BorderColor #333333
	BackgroundColor #333333-#333333
	HeaderBackgroundColor #1b1b1a
    BackgroundColor #282828
    BorderColor #5e5e5e
 	StereotypeFontColor #a0a0a0
    StereotypeFontStyle bold
	BorderThickness 1
	AttributeFontColor #D8Bc00
	AttributeFontSize 11
    FontColor #D8Bc00
    FontStyle bold
}


skinparam object {
		FontColor #C8Ac00
	BorderColor #333333
	BackgroundColor #333333-#333333
	StereotypeFontColor #484848
	BorderThickness 1
	AttributeFontColor #fefefe
	AttributeFontSize 11
}


skinparam usecase {
		FontColor #C8Ac00
	BorderColor #333333
	BackgroundColor #333333-#333333
	BorderThickness 2
	StereotypeFontColor #303030
}


skinparam rectangle {
		FontColor #C8Ac00
	BorderColor #333333
	BackgroundColor #333333-#333333
	BackgroundColor #333333
	BorderThickness 2
	StereotypeFontColor #303030
}


skinparam package {
		FontColor #C8Ac00
	BorderColor #333333
	BackgroundColor #333333-#333333
	BackgroundColor #333333
	BorderThickness 2
}


skinparam folder {
	BackgroundColor #6d6d6d
  	BorderColor #ff8000
	FontColor #ff8000
	BorderThickness 2
}


skinparam frame {
	BackgroundColor #6d6d6d
  	BorderColor #0060a8
	FontColor #0060a8
	BorderThickness 2
}


skinparam state {
		FontColor #C8Ac00
	BorderColor #333333
	BackgroundColor #333333-#333333
	StartColor #0060a8
	EndColor #0060a8
	AttributeFontColor #fefefe
	AttributeFontSize 11
}


skinparam queue {
		FontColor #C8Ac00
	BorderColor #333333
	BackgroundColor #333333-#333333
}


skinparam card {
	BackgroundColor #0060a8
	BorderColor #004d86
	FontColor $INFO_TEXT
}


skinparam file {
	BackgroundColor #6d6d6d-#484848
	BorderColor #0060a8
	FontColor #fefefe
}


skinparam stack {
		FontColor #C8Ac00
	BorderColor #333333
	BackgroundColor #333333-#333333
}

    
    title "aonia-map-geography"
    
    artifact kryo
    artifact minlog
    artifact reflectasm
    artifact jackson_annotations
    artifact aonia_map_geography
    artifact aonia_map_measurements
    artifact kivakit_build_metadata
    artifact kivakit_core_collections
    artifact kivakit_core_commandline
    artifact kivakit_core_kernel
    artifact kivakit_core_resource
    artifact kivakit_core_serialization_core
    artifact kivakit_core_serialization_kryo
    artifact kivakit_core_test
    artifact kivakit_data_compression
    artifact kivakit_math
    artifact lexakai_annotations
    artifact kryo_serializers
    artifact swagger_annotations
    artifact junit
    artifact commons_math
    artifact hamcrest_core
    artifact annotations
    artifact shapefilereader
    artifact objenesis
    artifact asm
    aonia_map_geography - -> aonia_map_measurements
    aonia_map_geography - -> kivakit_core_collections
    aonia_map_geography - -> kivakit_core_resource
    aonia_map_geography - -> kivakit_data_compression
    aonia_map_geography - -> kivakit_math
    aonia_map_geography - -> shapefilereader
    aonia_map_measurements - -> kivakit_core_commandline
    aonia_map_measurements - -> kivakit_core_test
    junit - -> hamcrest_core
    kivakit_core_collections - -> kivakit_core_serialization_kryo
    kivakit_core_commandline - -> kivakit_core_kernel
    kivakit_core_kernel - -> annotations
    kivakit_core_kernel - -> jackson_annotations
    kivakit_core_kernel - -> junit
    kivakit_core_kernel - -> kivakit_build_metadata
    kivakit_core_kernel - -> lexakai_annotations
    kivakit_core_kernel - -> swagger_annotations
    kivakit_core_resource - -> kivakit_core_serialization_core
    kivakit_core_serialization_kryo - -> kryo
    kivakit_core_serialization_kryo - -> kryo_serializers
    kivakit_math - -> commons_math
    kryo - -> minlog
    kryo - -> objenesis
    kryo - -> reflectasm
    reflectasm - -> asm
    
@enduml

PlantUML version 1.2021.01(Tue Feb 02 00:55:08 MST 2021)
(GPL source distribution)
Java Runtime: Java(TM) SE Runtime Environment
JVM: Java HotSpot(TM) 64-Bit Server VM
Default Encoding: UTF-8
Language: en
Country: US
--></g></svg>