<?xml version="1.0" encoding="UTF-8" standalone="no"?><svg xmlns="http://www.w3.org/2000/svg" xmlns:xlink="http://www.w3.org/1999/xlink" contentScriptType="application/ecmascript" contentStyleType="text/css" height="456.25px" preserveAspectRatio="none" style="width:897px;height:456px;background:#333333;" version="1.1" viewBox="0 0 897 456" width="897.9167px" zoomAndPan="magnify"><defs/><g><rect fill="#48494B" height="41.2028" rx="8.3333" ry="8.3333" style="stroke:#545454;stroke-width:1.0416666666666667;" width="482.2917" x="200.5208" y="2.0833"/><text fill="#C0C0C0" font-family="Open Sans,Avenir,Nunito,Arial,Helvetica,SansSerif" font-size="20.8333" lengthAdjust="spacing" textLength="459.375" x="211.9792" y="30.5583">com.telenav.aonia.map.ui.swing.debug.viewer</text><!--MD5=[076ba88e041da0dff41583713e4e3da6]
cluster ViewableMap--><polygon fill="#333333" points="623.9583,72.4528,720.8333,72.4528,728.125,99.6745,880.2083,99.6745,880.2083,260.9945,623.9583,260.9945,623.9583,72.4528" style="stroke:#333333;stroke-width:2.0833333333333335;"/><line style="stroke:#333333;stroke-width:2.0833333333333335;" x1="623.9583" x2="728.125" y1="99.6745" y2="99.6745"/><text fill="#C8AC00" font-family="Open Sans,Avenir,Nunito,Arial,Helvetica,SansSerif" font-size="12.5" font-weight="bold" lengthAdjust="spacing" textLength="84.375" x="631.25" y="89.7461">ViewableMap</text><!--MD5=[4e19b94e0ce7b4d32795501e3d689017]
class ViewableMap.Entry--><rect codeLine="21" fill="#282828" height="131.2012" id="ViewableMap.Entry" rx="8.3333" ry="8.3333" style="stroke:#5E5E5E;stroke-width:1.0416666666666667;" width="221.875" x="641.1458" y="113.0778"/><rect fill="#1B1B1A" height="31.3883" rx="8.3333" ry="8.3333" style="stroke:#1B1B1A;stroke-width:1.0416666666666667;" width="221.875" x="641.1458" y="113.0778"/><rect fill="#1B1B1A" height="8.3333" style="stroke:#1B1B1A;stroke-width:1.0416666666666667;" width="221.875" x="641.1458" y="136.1328"/><rect codeLine="21" fill="none" height="131.2012" id="ViewableMap.Entry" rx="8.3333" ry="8.3333" style="stroke:#5E5E5E;stroke-width:1.0416666666666667;" width="221.875" x="641.1458" y="113.0778"/><ellipse cx="728.125" cy="128.772" fill="#0066CF" rx="10.4167" ry="10.4167" style="stroke:#0086EF;stroke-width:1.0416666666666667;"/><path d="M730.0354,133.197 Q729.6082,133.4167 729.1382,133.5266 Q728.6682,133.6365 728.1494,133.6365 Q726.3062,133.6365 725.3357,132.4219 Q724.3652,131.2073 724.3652,128.9124 Q724.3652,126.6113 725.3357,125.3967 Q726.3062,124.1821 728.1494,124.1821 Q728.6682,124.1821 729.1443,124.292 Q729.6204,124.4019 730.0354,124.6216 L730.0354,126.6235 Q729.5715,126.1963 729.1351,125.9979 Q728.6987,125.7996 728.2349,125.7996 Q727.2461,125.7996 726.7426,126.5839 Q726.239,127.3682 726.239,128.9124 Q726.239,130.4504 726.7426,131.2347 Q727.2461,132.019 728.2349,132.019 Q728.6987,132.019 729.1351,131.8207 Q729.5715,131.6223 730.0354,131.1951 Z " fill="#000000"/><text fill="#D8BC00" font-family="Open Sans,Avenir,Nunito,Arial,Helvetica,SansSerif" font-size="12.5" font-weight="bold" lengthAdjust="spacing" textLength="33.3333" x="751.0417" y="133.4961">Entry</text><line style="stroke:#5E5E5E;stroke-width:1.5625;" x1="642.1875" x2="861.9792" y1="144.4661" y2="144.4661"/><ellipse cx="652.6042" cy="179.836" fill="#84BE84" rx="3.125" ry="3.125" style="stroke:#038048;stroke-width:1.0416666666666667;"/><text fill="#D8BC00" font-family="Open Sans,Avenir,Nunito,Arial,Helvetica,SansSerif" font-size="11.4583" lengthAdjust="spacing" textLength="189.5833" x="664.0625" y="186.7472">Entry(ViewableIdentifier, Viewable)</text><line style="stroke:#5E5E5E;stroke-width:1.0416666666666667;" x1="642.1875" x2="708.3333" y1="162.6719" y2="162.6719"/><text fill="#D8BC00" font-family="Open Sans,Avenir,Nunito,Arial,Helvetica,SansSerif" font-size="11.4583" lengthAdjust="spacing" textLength="81.25" x="711.4583" y="166.4815">(constructors)</text><line style="stroke:#5E5E5E;stroke-width:1.0416666666666667;" x1="795.8333" x2="861.9792" y1="162.6719" y2="162.6719"/><line style="stroke:#5E5E5E;stroke-width:1.0416666666666667;" x1="642.1875" x2="861.9792" y1="196.4559" y2="196.4559"/><ellipse cx="652.6042" cy="207.9142" fill="#84BE84" rx="3.125" ry="3.125" style="stroke:#038048;stroke-width:1.0416666666666667;"/><text fill="#D8BC00" font-family="Open Sans,Avenir,Nunito,Arial,Helvetica,SansSerif" font-size="11.4583" lengthAdjust="spacing" textLength="148.9583" x="664.0625" y="214.8254">void outline(Shape outline)</text><ellipse cx="652.6042" cy="227.6591" fill="#84BE84" rx="3.125" ry="3.125" style="stroke:#038048;stroke-width:1.0416666666666667;"/><text fill="#D8BC00" font-family="Open Sans,Avenir,Nunito,Arial,Helvetica,SansSerif" font-size="11.4583" lengthAdjust="spacing" textLength="130.2083" x="664.0625" y="234.5703">void viewable(Viewable)</text><!--MD5=[023ecf6702e3ca2ce47ae747eafb20f1]
class Iterator--><rect codeLine="6" fill="#282828" height="48.055" id="Iterator" rx="8.3333" ry="8.3333" style="stroke:#5E5E5E;stroke-width:1.0416666666666667;" width="85.4167" x="31.25" y="154.7445"/><rect fill="#1B1B1A" height="31.3883" rx="8.3333" ry="8.3333" style="stroke:#1B1B1A;stroke-width:1.0416666666666667;" width="85.4167" x="31.25" y="154.7445"/><rect fill="#1B1B1A" height="8.3333" style="stroke:#1B1B1A;stroke-width:1.0416666666666667;" width="85.4167" x="31.25" y="177.7995"/><rect codeLine="6" fill="none" height="48.055" id="Iterator" rx="8.3333" ry="8.3333" style="stroke:#5E5E5E;stroke-width:1.0416666666666667;" width="85.4167" x="31.25" y="154.7445"/><ellipse cx="45.8333" cy="170.4386" fill="#008400" rx="10.4167" ry="10.4167" style="stroke:#239C23;stroke-width:1.0416666666666667;"/><path d="M42.7165,167.6005 L42.7165,166.0136 L48.1425,166.0136 L48.1425,167.6005 L46.3298,167.6005 L46.3298,173.5392 L48.1425,173.5392 L48.1425,175.1261 L42.7165,175.1261 L42.7165,173.5392 L44.5292,173.5392 L44.5292,167.6005 Z " fill="#000000"/><text fill="#D8BC00" font-family="Open Sans,Avenir,Nunito,Arial,Helvetica,SansSerif" font-size="12.5" font-style="italic" font-weight="bold" lengthAdjust="spacing" textLength="47.9167" x="62.5" y="175.1628">Iterator</text><line style="stroke:#5E5E5E;stroke-width:1.0416666666666667;" x1="32.2917" x2="115.625" y1="186.1328" y2="186.1328"/><line style="stroke:#5E5E5E;stroke-width:1.0416666666666667;" x1="32.2917" x2="115.625" y1="194.4661" y2="194.4661"/><!--MD5=[e6942bb3dc3af6df69a4b204b94b9e0a]
class Viewer--><rect codeLine="7" fill="#282828" height="48.055" id="Viewer" rx="8.3333" ry="8.3333" style="stroke:#5E5E5E;stroke-width:1.0416666666666667;" width="80.2083" x="228.6458" y="154.7445"/><rect fill="#1B1B1A" height="31.3883" rx="8.3333" ry="8.3333" style="stroke:#1B1B1A;stroke-width:1.0416666666666667;" width="80.2083" x="228.6458" y="154.7445"/><rect fill="#1B1B1A" height="8.3333" style="stroke:#1B1B1A;stroke-width:1.0416666666666667;" width="80.2083" x="228.6458" y="177.7995"/><rect codeLine="7" fill="none" height="48.055" id="Viewer" rx="8.3333" ry="8.3333" style="stroke:#5E5E5E;stroke-width:1.0416666666666667;" width="80.2083" x="228.6458" y="154.7445"/><ellipse cx="243.2292" cy="170.4386" fill="#008400" rx="10.4167" ry="10.4167" style="stroke:#239C23;stroke-width:1.0416666666666667;"/><path d="M240.1123,167.6005 L240.1123,166.0136 L245.5383,166.0136 L245.5383,167.6005 L243.7256,167.6005 L243.7256,173.5392 L245.5383,173.5392 L245.5383,175.1261 L240.1123,175.1261 L240.1123,173.5392 L241.925,173.5392 L241.925,167.6005 Z " fill="#000000"/><text fill="#D8BC00" font-family="Open Sans,Avenir,Nunito,Arial,Helvetica,SansSerif" font-size="12.5" font-style="italic" font-weight="bold" lengthAdjust="spacing" textLength="42.7083" x="259.8958" y="175.1628">Viewer</text><line style="stroke:#5E5E5E;stroke-width:1.0416666666666667;" x1="229.6875" x2="307.8125" y1="186.1328" y2="186.1328"/><line style="stroke:#5E5E5E;stroke-width:1.0416666666666667;" x1="229.6875" x2="307.8125" y1="194.4661" y2="194.4661"/><!--MD5=[1c4f61964b481a2bf1d4c5a4c401d89c]
class BaseViewer--><rect codeLine="10" fill="#282828" height="83.3781" id="BaseViewer" rx="8.3333" ry="8.3333" style="stroke:#5E5E5E;stroke-width:1.0416666666666667;" width="182.2917" x="177.6042" y="366.2028"/><rect fill="#1B1B1A" height="31.3883" rx="8.3333" ry="8.3333" style="stroke:#1B1B1A;stroke-width:1.0416666666666667;" width="182.2917" x="177.6042" y="366.2028"/><rect fill="#1B1B1A" height="8.3333" style="stroke:#1B1B1A;stroke-width:1.0416666666666667;" width="182.2917" x="177.6042" y="389.2578"/><rect codeLine="10" fill="none" height="83.3781" id="BaseViewer" rx="8.3333" ry="8.3333" style="stroke:#5E5E5E;stroke-width:1.0416666666666667;" width="182.2917" x="177.6042" y="366.2028"/><ellipse cx="225" cy="381.897" fill="#C8AC00" rx="10.4167" ry="10.4167" style="stroke:#D8BC00;stroke-width:1.0416666666666667;"/><path d="M225.1139,378.599 L224.2655,382.3283 L225.9684,382.3283 Z M224.0153,376.9511 L226.2187,376.9511 L228.6784,386.0636 L226.8778,386.0636 L226.3163,383.8114 L223.9054,383.8114 L223.3561,386.0636 L221.5556,386.0636 Z " fill="#000000"/><text fill="#D8BC00" font-family="Open Sans,Avenir,Nunito,Arial,Helvetica,SansSerif" font-size="12.5" font-style="italic" font-weight="bold" lengthAdjust="spacing" textLength="72.9167" x="247.9167" y="386.6211">BaseViewer</text><line style="stroke:#5E5E5E;stroke-width:1.5625;" x1="178.6458" x2="358.8542" y1="397.5911" y2="397.5911"/><polygon fill="#FFFF44" points="189.0625,427.7527,193.2292,431.9194,189.0625,436.086,184.8958,431.9194" style="stroke:#B38D22;stroke-width:1.0416666666666667;"/><text fill="#D8BC00" font-family="Open Sans,Avenir,Nunito,Arial,Helvetica,SansSerif" font-size="11.4583" lengthAdjust="spacing" textLength="150" x="200.5208" y="439.8722">View newView(String name)</text><line style="stroke:#5E5E5E;stroke-width:1.0416666666666667;" x1="178.6458" x2="241.6667" y1="415.7969" y2="415.7969"/><text fill="#D8BC00" font-family="Open Sans,Avenir,Nunito,Arial,Helvetica,SansSerif" font-size="11.4583" lengthAdjust="spacing" textLength="47.9167" x="244.7917" y="419.6065">(factory)</text><line style="stroke:#5E5E5E;stroke-width:1.0416666666666667;" x1="295.8333" x2="358.8542" y1="415.7969" y2="415.7969"/><!--MD5=[f1e9a47487f083c5e4ede0edce2920bb]
class ColorSequence--><rect codeLine="17" fill="#282828" height="48.055" id="ColorSequence" rx="8.3333" ry="8.3333" style="stroke:#5E5E5E;stroke-width:1.0416666666666667;" width="133.3333" x="7.2917" y="383.9111"/><rect fill="#1B1B1A" height="31.3883" rx="8.3333" ry="8.3333" style="stroke:#1B1B1A;stroke-width:1.0416666666666667;" width="133.3333" x="7.2917" y="383.9111"/><rect fill="#1B1B1A" height="8.3333" style="stroke:#1B1B1A;stroke-width:1.0416666666666667;" width="133.3333" x="7.2917" y="406.9661"/><rect codeLine="17" fill="none" height="48.055" id="ColorSequence" rx="8.3333" ry="8.3333" style="stroke:#5E5E5E;stroke-width:1.0416666666666667;" width="133.3333" x="7.2917" y="383.9111"/><ellipse cx="21.875" cy="399.6053" fill="#0066CF" rx="10.4167" ry="10.4167" style="stroke:#0086EF;stroke-width:1.0416666666666667;"/><path d="M23.7854,404.0304 Q23.3582,404.2501 22.8882,404.3599 Q22.4182,404.4698 21.8994,404.4698 Q20.0562,404.4698 19.0857,403.2552 Q18.1152,402.0406 18.1152,399.7457 Q18.1152,397.4447 19.0857,396.2301 Q20.0562,395.0155 21.8994,395.0155 Q22.4182,395.0155 22.8943,395.1253 Q23.3704,395.2352 23.7854,395.4549 L23.7854,397.4569 Q23.3215,397.0296 22.8851,396.8313 Q22.4487,396.6329 21.9849,396.6329 Q20.9961,396.6329 20.4926,397.4172 Q19.989,398.2015 19.989,399.7457 Q19.989,401.2838 20.4926,402.0681 Q20.9961,402.8524 21.9849,402.8524 Q22.4487,402.8524 22.8851,402.654 Q23.3215,402.4556 23.7854,402.0284 Z " fill="#000000"/><text fill="#D8BC00" font-family="Open Sans,Avenir,Nunito,Arial,Helvetica,SansSerif" font-size="12.5" font-weight="bold" lengthAdjust="spacing" textLength="95.8333" x="38.5417" y="404.3294">ColorSequence</text><line style="stroke:#5E5E5E;stroke-width:1.0416666666666667;" x1="8.3333" x2="139.5833" y1="415.2995" y2="415.2995"/><line style="stroke:#5E5E5E;stroke-width:1.0416666666666667;" x1="8.3333" x2="139.5833" y1="423.6328" y2="423.6328"/><!--MD5=[8d2d24f751cd706d4d803176484805c1]
class ViewableMap--><rect codeLine="30" fill="#282828" height="249.6704" id="ViewableMap" rx="8.3333" ry="8.3333" style="stroke:#5E5E5E;stroke-width:1.0416666666666667;" width="258.3333" x="345.8333" y="53.7028"/><rect fill="#1B1B1A" height="31.3883" rx="8.3333" ry="8.3333" style="stroke:#1B1B1A;stroke-width:1.0416666666666667;" width="258.3333" x="345.8333" y="53.7028"/><rect fill="#1B1B1A" height="8.3333" style="stroke:#1B1B1A;stroke-width:1.0416666666666667;" width="258.3333" x="345.8333" y="76.7578"/><rect codeLine="30" fill="none" height="249.6704" id="ViewableMap" rx="8.3333" ry="8.3333" style="stroke:#5E5E5E;stroke-width:1.0416666666666667;" width="258.3333" x="345.8333" y="53.7028"/><ellipse cx="425.5208" cy="69.397" fill="#0066CF" rx="10.4167" ry="10.4167" style="stroke:#0086EF;stroke-width:1.0416666666666667;"/><path d="M427.4312,73.822 Q427.004,74.0417 426.534,74.1516 Q426.064,74.2615 425.5452,74.2615 Q423.702,74.2615 422.7315,73.0469 Q421.7611,71.8323 421.7611,69.5374 Q421.7611,67.2363 422.7315,66.0217 Q423.702,64.8071 425.5452,64.8071 Q426.064,64.8071 426.5401,64.917 Q427.0162,65.0269 427.4312,65.2466 L427.4312,67.2485 Q426.9674,66.8213 426.531,66.6229 Q426.0946,66.4246 425.6307,66.4246 Q424.6419,66.4246 424.1384,67.2089 Q423.6348,67.9932 423.6348,69.5374 Q423.6348,71.0754 424.1384,71.8597 Q424.6419,72.644 425.6307,72.644 Q426.0946,72.644 426.531,72.4457 Q426.9674,72.2473 427.4312,71.8201 Z " fill="#000000"/><text fill="#D8BC00" font-family="Open Sans,Avenir,Nunito,Arial,Helvetica,SansSerif" font-size="12.5" font-weight="bold" lengthAdjust="spacing" textLength="84.375" x="448.4375" y="74.1211">ViewableMap</text><line style="stroke:#5E5E5E;stroke-width:1.5625;" x1="346.875" x2="603.125" y1="85.0911" y2="85.0911"/><line style="stroke:#5E5E5E;stroke-width:1.0416666666666667;" x1="346.875" x2="603.125" y1="93.4245" y2="93.4245"/><ellipse cx="357.2917" cy="104.8828" fill="#84BE84" rx="3.125" ry="3.125" style="stroke:#038048;stroke-width:1.0416666666666667;"/><text fill="#D8BC00" font-family="Open Sans,Avenir,Nunito,Arial,Helvetica,SansSerif" font-size="11.4583" lengthAdjust="spacing" textLength="108.3333" x="368.75" y="111.794">Rectangle bounds()</text><ellipse cx="357.2917" cy="124.6277" fill="#84BE84" rx="3.125" ry="3.125" style="stroke:#038048;stroke-width:1.0416666666666667;"/><text fill="#D8BC00" font-family="Open Sans,Avenir,Nunito,Arial,Helvetica,SansSerif" font-size="11.4583" lengthAdjust="spacing" textLength="150" x="368.75" y="131.5389">void draw(DrawingSurface)</text><ellipse cx="357.2917" cy="144.3726" fill="#84BE84" rx="3.125" ry="3.125" style="stroke:#038048;stroke-width:1.0416666666666667;"/><text fill="#D8BC00" font-family="Open Sans,Avenir,Nunito,Arial,Helvetica,SansSerif" font-size="11.4583" lengthAdjust="spacing" textLength="198.9583" x="368.75" y="151.2838">void pullToFront(ViewableIdentifier)</text><ellipse cx="357.2917" cy="164.1174" fill="#84BE84" rx="3.125" ry="3.125" style="stroke:#038048;stroke-width:1.0416666666666667;"/><text fill="#D8BC00" font-family="Open Sans,Avenir,Nunito,Arial,Helvetica,SansSerif" font-size="11.4583" lengthAdjust="spacing" textLength="95.8333" x="368.75" y="171.0286">void select(Point)</text><ellipse cx="357.2917" cy="183.8623" fill="#84BE84" rx="3.125" ry="3.125" style="stroke:#038048;stroke-width:1.0416666666666667;"/><text fill="#D8BC00" font-family="Open Sans,Avenir,Nunito,Arial,Helvetica,SansSerif" font-size="11.4583" lengthAdjust="spacing" textLength="226.0417" x="368.75" y="190.7735">void update(ViewableIdentifier, Viewable)</text><ellipse cx="357.2917" cy="227.5187" fill="#84BE84" rx="3.125" ry="3.125" style="stroke:#038048;stroke-width:1.0416666666666667;"/><text fill="#D8BC00" font-family="Open Sans,Avenir,Nunito,Arial,Helvetica,SansSerif" font-size="11.4583" lengthAdjust="spacing" textLength="104.1667" x="368.75" y="234.4299">void add(Viewable)</text><ellipse cx="357.2917" cy="247.2636" fill="#84BE84" rx="3.125" ry="3.125" style="stroke:#038048;stroke-width:1.0416666666666667;"/><text fill="#D8BC00" font-family="Open Sans,Avenir,Nunito,Arial,Helvetica,SansSerif" font-size="11.4583" lengthAdjust="spacing" textLength="62.5" x="368.75" y="254.1748">void clear()</text><ellipse cx="357.2917" cy="267.0085" fill="#84BE84" rx="3.125" ry="3.125" style="stroke:#038048;stroke-width:1.0416666666666667;"/><text fill="#D8BC00" font-family="Open Sans,Avenir,Nunito,Arial,Helvetica,SansSerif" font-size="11.4583" lengthAdjust="spacing" textLength="201.0417" x="368.75" y="273.9197">void pushToBack(ViewableIdentifier)</text><ellipse cx="357.2917" cy="286.7533" fill="#84BE84" rx="3.125" ry="3.125" style="stroke:#038048;stroke-width:1.0416666666666667;"/><text fill="#D8BC00" font-family="Open Sans,Avenir,Nunito,Arial,Helvetica,SansSerif" font-size="11.4583" lengthAdjust="spacing" textLength="175" x="368.75" y="293.6646">void remove(ViewableIdentifier)</text><line style="stroke:#5E5E5E;stroke-width:1.0416666666666667;" x1="346.875" x2="440.625" y1="210.3546" y2="210.3546"/><text fill="#D8BC00" font-family="Open Sans,Avenir,Nunito,Arial,Helvetica,SansSerif" font-size="11.4583" lengthAdjust="spacing" textLength="62.5" x="443.75" y="214.1642">(collection)</text><line style="stroke:#5E5E5E;stroke-width:1.0416666666666667;" x1="509.375" x2="603.125" y1="210.3546" y2="210.3546"/><!--MD5=[cf7ee954779d1d441c64dc9179c505cb]
reverse link Viewer to BaseViewer--><path codeLine="9" d="M268.75,223.6195 C268.75,264.8486 268.75,326.057 268.75,366.1924 " fill="none" id="Viewer-backto-BaseViewer" style="stroke:#545454;stroke-width:1.5625;"/><polygon fill="none" points="261.4583,223.5986,268.75,202.7653,276.0417,223.5986,261.4583,223.5986" style="stroke:#545454;stroke-width:1.5625;"/><!--MD5=[5d5f59c06d03ea30765dbc564ba0eaea]
reverse link Iterator to ColorSequence--><path codeLine="16" d="M73.9583,223.8382 C73.9583,271.7028 73.9583,346.2965 73.9583,383.7445 " fill="none" id="Iterator-backto-ColorSequence" style="stroke:#545454;stroke-width:1.5625;"/><polygon fill="none" points="66.6667,223.5986,73.9583,202.7653,81.25,223.5986,66.6667,223.5986" style="stroke:#545454;stroke-width:1.5625;"/><!--MD5=[fec9741612791a7aa1e2ace584fd3910]
@startuml

    !include ../lexakai/lexakai.theme
    
    title "com.telenav.aonia.map.ui.swing.debug.viewer"
    
    interface Iterator
    interface Viewer
    
    Viewer <|- - BaseViewer
    abstract class BaseViewer
    {
        - -(factory)- -
        #View newView(String name)
    }
    
    Iterator <|- - ColorSequence
    class ColorSequence
    {
    }
    
    class ViewableMap.Entry
    {
        - -(constructors)- -
        +Entry(ViewableIdentifier, Viewable)
        - -
        +void outline(Shape outline)
        +void viewable(Viewable)
    }
    
    class ViewableMap
    {
        - -
        +Rectangle bounds()
        +void draw(DrawingSurface)
        +void pullToFront(ViewableIdentifier)
        +void select(Point)
        +void update(ViewableIdentifier, Viewable)
        - -(collection)- -
        +void add(Viewable)
        +void clear()
        +void pushToBack(ViewableIdentifier)
        +void remove(ViewableIdentifier)
    }
    
@enduml

@startuml









skinparam backgroundColor #333333






skinparam  {
    defaultFontName   "Open Sans,Avenir,Nunito,Arial,Helvetica,SansSerif"
    defaultFontSize   12
    defaultTextAlignment left
    shadowing false
    RoundCorner 10
    TitleFontSize 18
}

skinparam defaultFontName       "Open Sans,Avenir,Nunito,Arial,Helvetica,SansSerif"
skinparam defaultFontSize       12
skinparam dpi                   100
skinparam shadowing             false
skinparam roundcorner           16
skinparam ParticipantPadding    40
skinparam BoxPadding            40
skinparam Padding               3
skinparam ArrowColor            #545454
skinparam stereotype {
    CBackgroundColor #0066cf
    CBorderColor #0086ef
    ABackgroundColor #C8Ac00
    ABorderColor #D8Bc00
    IBackgroundColor #008400
    IBorderColor #239c23
    EBackgroundColor #cf6300
    EBorderColor #ef8300
    NBackgroundColor #3380b9
    NBorderColor #004d86
}
skinparam title {
	FontColor	                 #c0c0c0
 	BorderColor                  #545454
	FontSize	    	         20
	BorderRoundCorner            16
	BorderThickness 	         1
	BackgroundColor              #48494b
}


skinparam legend {
	BackgroundColor #303030
	BorderColor #404040
	FontColor #a0a0a0
}

	skinparam swimlane {
	BorderColor #5e5e5e
	BorderThickness 2
	TitleBackgroundColor  #6d6d6d-#484848
	TitleFontColor #303030
}

skinparam activity {
		FontColor #C8Ac00
	BorderColor #333333
	BackgroundColor #333333-#333333
	BarColor #00FF00
	StartColor #0060a8
	EndColor #0060a8
	DiamondBackgroundColor #6d6d6d-#3a3a3a
  	DiamondBorderColor #3a3a3a
  	DiamondFontColor #fefefe
}


skinparam participant {
		FontColor #C8Ac00
	BorderColor #333333
	BackgroundColor #333333-#333333
	ParticipantBorderThickness 2
}


skinparam actor {
		FontColor #C8Ac00
	BorderColor #333333
	BackgroundColor #333333-#333333
}


skinparam arrow {
	Thickness 1.5
	Color #545454
	FontColor #a0a0a0
    FontStyle bold
    MessageAlignment center
}



skinparam sequence {
	BorderColor #303030
	TitleFontColor #303030
	BackgroundColor #333333
	StartColor #303030
	EndColor #303030
	BoxBackgroundColor #333333
	BoxBorderColor #484848
	BoxFontColor #484848
	LifeLineBorderColor #484848
	LifeLineBorderThickness 2
	LifeLineBackgroundColor #3a3a3a
	GroupBorderColor #484848
	GroupFontColor #484848
	GroupHeaderFontColor #0060a8
	GroupBackgroundColor #484848
	GroupHeaderBackgroundColor #333333
	DividerBackgroundColor #484848
    DividerBorderColor #484848
    DividerBorderThickness 2
    DividerFontColor #D8Bc00
	ReferenceBackgroundColor #333333
	ReferenceBorderColor #484848
	ReferenceFontColor #fefefe
	ReferenceHeaderBackgroundColor #484848
}


skinparam partition {
	BorderColor #303030
	FontColor #333333
	BackgroundColor #333333
}


skinparam collections {
		FontColor #C8Ac00
	BorderColor #333333
	BackgroundColor #333333-#333333
}


skinparam control {
		FontColor #C8Ac00
	BorderColor #333333
	BackgroundColor #333333-#333333
}


skinparam entity {
		FontColor #C8Ac00
	BorderColor #333333
	BackgroundColor #333333-#333333
}


skinparam boundary {
		FontColor #C8Ac00
	BorderColor #333333
	BackgroundColor #333333-#333333
}


skinparam agent {
	BackgroundColor #ff8000
	BorderColor #ff9933
	FontColor #484848
}


skinparam note {
	BorderThickness 1
	BackgroundColor #1b1b1a
	BorderColor #5e5e5e
	FontSize 11
	FontColor #a0a0a0
}


skinparam artifact {
	BorderThickness 10
	BorderColor #5e5e5e
	BackgroundColor #1b1b1a
	FontColor #D8Bc00
}


skinparam component {
		FontColor #C8Ac00
	BorderColor #333333
	BackgroundColor #333333-#333333
}


skinparam interface {
	BackgroundColor  #008400
	BorderColor  #007F00
	FontColor #484848
}


skinparam storage {
	BackgroundColor #ff8000
  	BorderColor #cc6600
	FontColor #222222
}


skinparam node {
	BackgroundColor #333333
	BorderColor #333333
	FontColor #C8Ac00
}


skinparam cloud {
	BackgroundColor #484848-black
	BorderColor #484848
	FontColor #D8Bc00
}


skinparam database {
		FontColor #C8Ac00
	BorderColor #333333
	BackgroundColor #333333-#333333
	BackgroundColor  #333333
}


skinparam class {
		FontColor #C8Ac00
	BorderColor #333333
	BackgroundColor #333333-#333333
	HeaderBackgroundColor #1b1b1a
    BackgroundColor #282828
    BorderColor #5e5e5e
 	StereotypeFontColor #a0a0a0
    StereotypeFontStyle bold
	BorderThickness 1
	AttributeFontColor #D8Bc00
	AttributeFontSize 11
    FontColor #D8Bc00
    FontStyle bold
}


skinparam object {
		FontColor #C8Ac00
	BorderColor #333333
	BackgroundColor #333333-#333333
	StereotypeFontColor #484848
	BorderThickness 1
	AttributeFontColor #fefefe
	AttributeFontSize 11
}


skinparam usecase {
		FontColor #C8Ac00
	BorderColor #333333
	BackgroundColor #333333-#333333
	BorderThickness 2
	StereotypeFontColor #303030
}


skinparam rectangle {
		FontColor #C8Ac00
	BorderColor #333333
	BackgroundColor #333333-#333333
	BackgroundColor #333333
	BorderThickness 2
	StereotypeFontColor #303030
}


skinparam package {
		FontColor #C8Ac00
	BorderColor #333333
	BackgroundColor #333333-#333333
	BackgroundColor #333333
	BorderThickness 2
}


skinparam folder {
	BackgroundColor #6d6d6d
  	BorderColor #ff8000
	FontColor #ff8000
	BorderThickness 2
}


skinparam frame {
	BackgroundColor #6d6d6d
  	BorderColor #0060a8
	FontColor #0060a8
	BorderThickness 2
}


skinparam state {
		FontColor #C8Ac00
	BorderColor #333333
	BackgroundColor #333333-#333333
	StartColor #0060a8
	EndColor #0060a8
	AttributeFontColor #fefefe
	AttributeFontSize 11
}


skinparam queue {
		FontColor #C8Ac00
	BorderColor #333333
	BackgroundColor #333333-#333333
}


skinparam card {
	BackgroundColor #0060a8
	BorderColor #004d86
	FontColor $INFO_TEXT
}


skinparam file {
	BackgroundColor #6d6d6d-#484848
	BorderColor #0060a8
	FontColor #fefefe
}


skinparam stack {
		FontColor #C8Ac00
	BorderColor #333333
	BackgroundColor #333333-#333333
}

    
    title "com.telenav.aonia.map.ui.swing.debug.viewer"
    
    interface Iterator
    interface Viewer
    
    Viewer <|- - BaseViewer
    abstract class BaseViewer
    {
        - -(factory)- -
        #View newView(String name)
    }
    
    Iterator <|- - ColorSequence
    class ColorSequence
    {
    }
    
    class ViewableMap.Entry
    {
        - -(constructors)- -
        +Entry(ViewableIdentifier, Viewable)
        - -
        +void outline(Shape outline)
        +void viewable(Viewable)
    }
    
    class ViewableMap
    {
        - -
        +Rectangle bounds()
        +void draw(DrawingSurface)
        +void pullToFront(ViewableIdentifier)
        +void select(Point)
        +void update(ViewableIdentifier, Viewable)
        - -(collection)- -
        +void add(Viewable)
        +void clear()
        +void pushToBack(ViewableIdentifier)
        +void remove(ViewableIdentifier)
    }
    
@enduml

PlantUML version 1.2021.01(Tue Feb 02 00:55:08 MST 2021)
(GPL source distribution)
Java Runtime: Java(TM) SE Runtime Environment
JVM: Java HotSpot(TM) 64-Bit Server VM
Default Encoding: UTF-8
Language: en
Country: US
--></g></svg>