<?xml version="1.0" encoding="UTF-8" standalone="no"?><svg xmlns="http://www.w3.org/2000/svg" xmlns:xlink="http://www.w3.org/1999/xlink" contentScriptType="application/ecmascript" contentStyleType="text/css" height="329.1667px" preserveAspectRatio="none" style="width:563px;height:329px;background:#333333;" version="1.1" viewBox="0 0 563 329" width="563.5417px" zoomAndPan="magnify"><defs/><g><rect fill="#48494B" height="41.2028" rx="8.3333" ry="8.3333" style="stroke:#545454;stroke-width:1.0416666666666667;" width="551.0417" x="2.0833" y="2.0833"/><text fill="#C0C0C0" font-family="Open Sans,Avenir,Nunito,Arial,Helvetica,SansSerif" font-size="20.8333" lengthAdjust="spacing" textLength="528.125" x="13.5417" y="30.5583">com.telenav.aonia.map.ui.swing.debug.viewer.empty</text><!--MD5=[5380544c80c75f795b7e65d9600632ba]
class InteractiveView--><rect codeLine="6" fill="#282828" height="48.055" id="InteractiveView" rx="8.3333" ry="8.3333" style="stroke:#5E5E5E;stroke-width:1.0416666666666667;" width="135.4167" x="80.7292" y="164.1195"/><rect fill="#1B1B1A" height="31.3883" rx="8.3333" ry="8.3333" style="stroke:#1B1B1A;stroke-width:1.0416666666666667;" width="135.4167" x="80.7292" y="164.1195"/><rect fill="#1B1B1A" height="8.3333" style="stroke:#1B1B1A;stroke-width:1.0416666666666667;" width="135.4167" x="80.7292" y="187.1745"/><rect codeLine="6" fill="none" height="48.055" id="InteractiveView" rx="8.3333" ry="8.3333" style="stroke:#5E5E5E;stroke-width:1.0416666666666667;" width="135.4167" x="80.7292" y="164.1195"/><ellipse cx="95.3125" cy="179.8136" fill="#008400" rx="10.4167" ry="10.4167" style="stroke:#239C23;stroke-width:1.0416666666666667;"/><path d="M92.1956,176.9755 L92.1956,175.3886 L97.6217,175.3886 L97.6217,176.9755 L95.8089,176.9755 L95.8089,182.9142 L97.6217,182.9142 L97.6217,184.5011 L92.1956,184.5011 L92.1956,182.9142 L94.0084,182.9142 L94.0084,176.9755 Z " fill="#000000"/><text fill="#D8BC00" font-family="Open Sans,Avenir,Nunito,Arial,Helvetica,SansSerif" font-size="12.5" font-style="italic" font-weight="bold" lengthAdjust="spacing" textLength="97.9167" x="111.9792" y="184.5378">InteractiveView</text><line style="stroke:#5E5E5E;stroke-width:1.0416666666666667;" x1="81.7708" x2="215.1042" y1="195.5078" y2="195.5078"/><line style="stroke:#5E5E5E;stroke-width:1.0416666666666667;" x1="81.7708" x2="215.1042" y1="203.8411" y2="203.8411"/><!--MD5=[e6942bb3dc3af6df69a4b204b94b9e0a]
class Viewer--><rect codeLine="7" fill="#282828" height="48.055" id="Viewer" rx="8.3333" ry="8.3333" style="stroke:#5E5E5E;stroke-width:1.0416666666666667;" width="80.2083" x="395.8333" y="53.7028"/><rect fill="#1B1B1A" height="31.3883" rx="8.3333" ry="8.3333" style="stroke:#1B1B1A;stroke-width:1.0416666666666667;" width="80.2083" x="395.8333" y="53.7028"/><rect fill="#1B1B1A" height="8.3333" style="stroke:#1B1B1A;stroke-width:1.0416666666666667;" width="80.2083" x="395.8333" y="76.7578"/><rect codeLine="7" fill="none" height="48.055" id="Viewer" rx="8.3333" ry="8.3333" style="stroke:#5E5E5E;stroke-width:1.0416666666666667;" width="80.2083" x="395.8333" y="53.7028"/><ellipse cx="410.4167" cy="69.397" fill="#008400" rx="10.4167" ry="10.4167" style="stroke:#239C23;stroke-width:1.0416666666666667;"/><path d="M407.2998,66.5588 L407.2998,64.9719 L412.7258,64.9719 L412.7258,66.5588 L410.9131,66.5588 L410.9131,72.4976 L412.7258,72.4976 L412.7258,74.0845 L407.2998,74.0845 L407.2998,72.4976 L409.1125,72.4976 L409.1125,66.5588 Z " fill="#000000"/><text fill="#D8BC00" font-family="Open Sans,Avenir,Nunito,Arial,Helvetica,SansSerif" font-size="12.5" font-style="italic" font-weight="bold" lengthAdjust="spacing" textLength="42.7083" x="427.0833" y="74.1211">Viewer</text><line style="stroke:#5E5E5E;stroke-width:1.0416666666666667;" x1="396.875" x2="475" y1="85.0911" y2="85.0911"/><line style="stroke:#5E5E5E;stroke-width:1.0416666666666667;" x1="396.875" x2="475" y1="93.4245" y2="93.4245"/><!--MD5=[c045e12321b83266d36d22b9096c24ea]
class View--><rect codeLine="8" fill="#282828" height="48.055" id="View" rx="8.3333" ry="8.3333" style="stroke:#5E5E5E;stroke-width:1.0416666666666667;" width="67.7083" x="265.625" y="53.7028"/><rect fill="#1B1B1A" height="31.3883" rx="8.3333" ry="8.3333" style="stroke:#1B1B1A;stroke-width:1.0416666666666667;" width="67.7083" x="265.625" y="53.7028"/><rect fill="#1B1B1A" height="8.3333" style="stroke:#1B1B1A;stroke-width:1.0416666666666667;" width="67.7083" x="265.625" y="76.7578"/><rect codeLine="8" fill="none" height="48.055" id="View" rx="8.3333" ry="8.3333" style="stroke:#5E5E5E;stroke-width:1.0416666666666667;" width="67.7083" x="265.625" y="53.7028"/><ellipse cx="280.2083" cy="69.397" fill="#008400" rx="10.4167" ry="10.4167" style="stroke:#239C23;stroke-width:1.0416666666666667;"/><path d="M277.0915,66.5588 L277.0915,64.9719 L282.5175,64.9719 L282.5175,66.5588 L280.7048,66.5588 L280.7048,72.4976 L282.5175,72.4976 L282.5175,74.0845 L277.0915,74.0845 L277.0915,72.4976 L278.9042,72.4976 L278.9042,66.5588 Z " fill="#000000"/><text fill="#D8BC00" font-family="Open Sans,Avenir,Nunito,Arial,Helvetica,SansSerif" font-size="12.5" font-style="italic" font-weight="bold" lengthAdjust="spacing" textLength="30.2083" x="296.875" y="74.1211">View</text><line style="stroke:#5E5E5E;stroke-width:1.0416666666666667;" x1="266.6667" x2="332.2917" y1="85.0911" y2="85.0911"/><line style="stroke:#5E5E5E;stroke-width:1.0416666666666667;" x1="266.6667" x2="332.2917" y1="93.4245" y2="93.4245"/><!--MD5=[b265a0f068d5e4e9cbd0891194679331]
class NullView--><rect codeLine="17" fill="#282828" height="48.055" id="NullView" rx="8.3333" ry="8.3333" style="stroke:#5E5E5E;stroke-width:1.0416666666666667;" width="93.75" x="252.6042" y="164.1195"/><rect fill="#1B1B1A" height="31.3883" rx="8.3333" ry="8.3333" style="stroke:#1B1B1A;stroke-width:1.0416666666666667;" width="93.75" x="252.6042" y="164.1195"/><rect fill="#1B1B1A" height="8.3333" style="stroke:#1B1B1A;stroke-width:1.0416666666666667;" width="93.75" x="252.6042" y="187.1745"/><rect codeLine="17" fill="none" height="48.055" id="NullView" rx="8.3333" ry="8.3333" style="stroke:#5E5E5E;stroke-width:1.0416666666666667;" width="93.75" x="252.6042" y="164.1195"/><ellipse cx="267.1875" cy="179.8136" fill="#0066CF" rx="10.4167" ry="10.4167" style="stroke:#0086EF;stroke-width:1.0416666666666667;"/><path d="M269.0979,184.2387 Q268.6707,184.4584 268.2007,184.5683 Q267.7307,184.6781 267.2119,184.6781 Q265.3687,184.6781 264.3982,183.4635 Q263.4277,182.2489 263.4277,179.954 Q263.4277,177.653 264.3982,176.4384 Q265.3687,175.2238 267.2119,175.2238 Q267.7307,175.2238 268.2068,175.3337 Q268.6829,175.4435 269.0979,175.6632 L269.0979,177.6652 Q268.634,177.238 268.1976,177.0396 Q267.7612,176.8412 267.2974,176.8412 Q266.3086,176.8412 265.8051,177.6255 Q265.3015,178.4098 265.3015,179.954 Q265.3015,181.4921 265.8051,182.2764 Q266.3086,183.0607 267.2974,183.0607 Q267.7612,183.0607 268.1976,182.8623 Q268.634,182.664 269.0979,182.2367 Z " fill="#000000"/><text fill="#D8BC00" font-family="Open Sans,Avenir,Nunito,Arial,Helvetica,SansSerif" font-size="12.5" font-weight="bold" lengthAdjust="spacing" textLength="56.25" x="283.8542" y="184.5378">NullView</text><line style="stroke:#5E5E5E;stroke-width:1.0416666666666667;" x1="253.6458" x2="345.3125" y1="195.5078" y2="195.5078"/><line style="stroke:#5E5E5E;stroke-width:1.0416666666666667;" x1="253.6458" x2="345.3125" y1="203.8411" y2="203.8411"/><!--MD5=[ece8ca9fd1276ecf539401e1e9b9541a]
class NullInteractiveView--><rect codeLine="12" fill="#282828" height="48.055" id="NullInteractiveView" rx="8.3333" ry="8.3333" style="stroke:#5E5E5E;stroke-width:1.0416666666666667;" width="161.4583" x="142.7083" y="274.5361"/><rect fill="#1B1B1A" height="31.3883" rx="8.3333" ry="8.3333" style="stroke:#1B1B1A;stroke-width:1.0416666666666667;" width="161.4583" x="142.7083" y="274.5361"/><rect fill="#1B1B1A" height="8.3333" style="stroke:#1B1B1A;stroke-width:1.0416666666666667;" width="161.4583" x="142.7083" y="297.5911"/><rect codeLine="12" fill="none" height="48.055" id="NullInteractiveView" rx="8.3333" ry="8.3333" style="stroke:#5E5E5E;stroke-width:1.0416666666666667;" width="161.4583" x="142.7083" y="274.5361"/><ellipse cx="157.2917" cy="290.2303" fill="#0066CF" rx="10.4167" ry="10.4167" style="stroke:#0086EF;stroke-width:1.0416666666666667;"/><path d="M159.2021,294.6554 Q158.7748,294.8751 158.3049,294.9849 Q157.8349,295.0948 157.3161,295.0948 Q155.4728,295.0948 154.5024,293.8802 Q153.5319,292.6656 153.5319,290.3707 Q153.5319,288.0697 154.5024,286.8551 Q155.4728,285.6405 157.3161,285.6405 Q157.8349,285.6405 158.311,285.7503 Q158.787,285.8602 159.2021,286.0799 L159.2021,288.0819 Q158.7382,287.6546 158.3018,287.4563 Q157.8654,287.2579 157.4015,287.2579 Q156.4128,287.2579 155.9092,288.0422 Q155.4057,288.8265 155.4057,290.3707 Q155.4057,291.9088 155.9092,292.6931 Q156.4128,293.4774 157.4015,293.4774 Q157.8654,293.4774 158.3018,293.279 Q158.7382,293.0806 159.2021,292.6534 Z " fill="#000000"/><text fill="#D8BC00" font-family="Open Sans,Avenir,Nunito,Arial,Helvetica,SansSerif" font-size="12.5" font-weight="bold" lengthAdjust="spacing" textLength="123.9583" x="173.9583" y="294.9544">NullInteractiveView</text><line style="stroke:#5E5E5E;stroke-width:1.0416666666666667;" x1="143.75" x2="303.125" y1="305.9245" y2="305.9245"/><line style="stroke:#5E5E5E;stroke-width:1.0416666666666667;" x1="143.75" x2="303.125" y1="314.2578" y2="314.2578"/><!--MD5=[543c5026772382c0ccb9a3fb30327603]
class NullViewer--><rect codeLine="22" fill="#282828" height="48.055" id="NullViewer" rx="8.3333" ry="8.3333" style="stroke:#5E5E5E;stroke-width:1.0416666666666667;" width="106.25" x="382.8125" y="164.1195"/><rect fill="#1B1B1A" height="31.3883" rx="8.3333" ry="8.3333" style="stroke:#1B1B1A;stroke-width:1.0416666666666667;" width="106.25" x="382.8125" y="164.1195"/><rect fill="#1B1B1A" height="8.3333" style="stroke:#1B1B1A;stroke-width:1.0416666666666667;" width="106.25" x="382.8125" y="187.1745"/><rect codeLine="22" fill="none" height="48.055" id="NullViewer" rx="8.3333" ry="8.3333" style="stroke:#5E5E5E;stroke-width:1.0416666666666667;" width="106.25" x="382.8125" y="164.1195"/><ellipse cx="397.3958" cy="179.8136" fill="#0066CF" rx="10.4167" ry="10.4167" style="stroke:#0086EF;stroke-width:1.0416666666666667;"/><path d="M399.3062,184.2387 Q398.879,184.4584 398.409,184.5683 Q397.939,184.6781 397.4202,184.6781 Q395.577,184.6781 394.6065,183.4635 Q393.6361,182.2489 393.6361,179.954 Q393.6361,177.653 394.6065,176.4384 Q395.577,175.2238 397.4202,175.2238 Q397.939,175.2238 398.4151,175.3337 Q398.8912,175.4435 399.3062,175.6632 L399.3062,177.6652 Q398.8424,177.238 398.406,177.0396 Q397.9696,176.8412 397.5057,176.8412 Q396.5169,176.8412 396.0134,177.6255 Q395.5098,178.4098 395.5098,179.954 Q395.5098,181.4921 396.0134,182.2764 Q396.5169,183.0607 397.5057,183.0607 Q397.9696,183.0607 398.406,182.8623 Q398.8424,182.664 399.3062,182.2367 Z " fill="#000000"/><text fill="#D8BC00" font-family="Open Sans,Avenir,Nunito,Arial,Helvetica,SansSerif" font-size="12.5" font-weight="bold" lengthAdjust="spacing" textLength="68.75" x="414.0625" y="184.5378">NullViewer</text><line style="stroke:#5E5E5E;stroke-width:1.0416666666666667;" x1="383.8542" x2="488.0208" y1="195.5078" y2="195.5078"/><line style="stroke:#5E5E5E;stroke-width:1.0416666666666667;" x1="383.8542" x2="488.0208" y1="203.8411" y2="203.8411"/><!--MD5=[08e37b09c96b70667caade18adea322f]
reverse link NullView to NullInteractiveView--><path codeLine="10" d="M271.125,229.5049 C260.4688,244.7028 248.7083,261.4424 239.5417,274.5153 " fill="none" id="NullView-backto-NullInteractiveView" style="stroke:#545454;stroke-width:1.5625;"/><polygon fill="none" points="265.4167,224.9528,283.3542,212.0986,277.3542,233.3382,265.4167,224.9528" style="stroke:#545454;stroke-width:1.5625;"/><!--MD5=[6f974940c51a345b8b6a1fe0fecbbca3]
reverse link InteractiveView to NullInteractiveView--><path codeLine="11" d="M176.3958,229.5049 C186.9167,244.7028 198.5104,261.4424 207.5521,274.5153 " fill="none" id="InteractiveView-backto-NullInteractiveView" style="stroke:#545454;stroke-width:1.5625;"/><polygon fill="none" points="170.2083,233.3695,164.3438,212.0986,182.1979,225.0778,170.2083,233.3695" style="stroke:#545454;stroke-width:1.5625;"/><!--MD5=[dc0b79ff120b5fa28d40e240cbe3c659]
reverse link View to NullView--><path codeLine="16" d="M299.4792,122.6195 C299.4792,136.8382 299.4792,152.0361 299.4792,164.0986 " fill="none" id="View-backto-NullView" style="stroke:#545454;stroke-width:1.5625;"/><polygon fill="none" points="292.1875,122.5153,299.4792,101.682,306.7708,122.5153,292.1875,122.5153" style="stroke:#545454;stroke-width:1.5625;"/><!--MD5=[de80e69bd9d7f0865ccec9d97ea79373]
reverse link Viewer to NullViewer--><path codeLine="21" d="M435.9375,122.6195 C435.9375,136.8382 435.9375,152.0361 435.9375,164.0986 " fill="none" id="Viewer-backto-NullViewer" style="stroke:#545454;stroke-width:1.5625;"/><polygon fill="none" points="428.6458,122.5153,435.9375,101.682,443.2292,122.5153,428.6458,122.5153" style="stroke:#545454;stroke-width:1.5625;"/><!--MD5=[c36b0457721d5054c53b4feb6b5fcf7d]
@startuml

    !include ../lexakai/lexakai.theme
    
    title "com.telenav.aonia.map.ui.swing.debug.viewer.empty"
    
    interface InteractiveView
    interface Viewer
    interface View
    
    NullView <|- - NullInteractiveView
    InteractiveView <|- - NullInteractiveView
    class NullInteractiveView
    {
    }
    
    View <|- - NullView
    class NullView
    {
    }
    
    Viewer <|- - NullViewer
    class NullViewer
    {
    }
    
@enduml

@startuml









skinparam backgroundColor #333333






skinparam  {
    defaultFontName   "Open Sans,Avenir,Nunito,Arial,Helvetica,SansSerif"
    defaultFontSize   12
    defaultTextAlignment left
    shadowing false
    RoundCorner 10
    TitleFontSize 18
}

skinparam defaultFontName       "Open Sans,Avenir,Nunito,Arial,Helvetica,SansSerif"
skinparam defaultFontSize       12
skinparam dpi                   100
skinparam shadowing             false
skinparam roundcorner           16
skinparam ParticipantPadding    40
skinparam BoxPadding            40
skinparam Padding               3
skinparam ArrowColor            #545454
skinparam stereotype {
    CBackgroundColor #0066cf
    CBorderColor #0086ef
    ABackgroundColor #C8Ac00
    ABorderColor #D8Bc00
    IBackgroundColor #008400
    IBorderColor #239c23
    EBackgroundColor #cf6300
    EBorderColor #ef8300
    NBackgroundColor #3380b9
    NBorderColor #004d86
}
skinparam title {
	FontColor	                 #c0c0c0
 	BorderColor                  #545454
	FontSize	    	         20
	BorderRoundCorner            16
	BorderThickness 	         1
	BackgroundColor              #48494b
}


skinparam legend {
	BackgroundColor #303030
	BorderColor #404040
	FontColor #a0a0a0
}

	skinparam swimlane {
	BorderColor #5e5e5e
	BorderThickness 2
	TitleBackgroundColor  #6d6d6d-#484848
	TitleFontColor #303030
}

skinparam activity {
		FontColor #C8Ac00
	BorderColor #333333
	BackgroundColor #333333-#333333
	BarColor #00FF00
	StartColor #0060a8
	EndColor #0060a8
	DiamondBackgroundColor #6d6d6d-#3a3a3a
  	DiamondBorderColor #3a3a3a
  	DiamondFontColor #fefefe
}


skinparam participant {
		FontColor #C8Ac00
	BorderColor #333333
	BackgroundColor #333333-#333333
	ParticipantBorderThickness 2
}


skinparam actor {
		FontColor #C8Ac00
	BorderColor #333333
	BackgroundColor #333333-#333333
}


skinparam arrow {
	Thickness 1.5
	Color #545454
	FontColor #a0a0a0
    FontStyle bold
    MessageAlignment center
}



skinparam sequence {
	BorderColor #303030
	TitleFontColor #303030
	BackgroundColor #333333
	StartColor #303030
	EndColor #303030
	BoxBackgroundColor #333333
	BoxBorderColor #484848
	BoxFontColor #484848
	LifeLineBorderColor #484848
	LifeLineBorderThickness 2
	LifeLineBackgroundColor #3a3a3a
	GroupBorderColor #484848
	GroupFontColor #484848
	GroupHeaderFontColor #0060a8
	GroupBackgroundColor #484848
	GroupHeaderBackgroundColor #333333
	DividerBackgroundColor #484848
    DividerBorderColor #484848
    DividerBorderThickness 2
    DividerFontColor #D8Bc00
	ReferenceBackgroundColor #333333
	ReferenceBorderColor #484848
	ReferenceFontColor #fefefe
	ReferenceHeaderBackgroundColor #484848
}


skinparam partition {
	BorderColor #303030
	FontColor #333333
	BackgroundColor #333333
}


skinparam collections {
		FontColor #C8Ac00
	BorderColor #333333
	BackgroundColor #333333-#333333
}


skinparam control {
		FontColor #C8Ac00
	BorderColor #333333
	BackgroundColor #333333-#333333
}


skinparam entity {
		FontColor #C8Ac00
	BorderColor #333333
	BackgroundColor #333333-#333333
}


skinparam boundary {
		FontColor #C8Ac00
	BorderColor #333333
	BackgroundColor #333333-#333333
}


skinparam agent {
	BackgroundColor #ff8000
	BorderColor #ff9933
	FontColor #484848
}


skinparam note {
	BorderThickness 1
	BackgroundColor #1b1b1a
	BorderColor #5e5e5e
	FontSize 11
	FontColor #a0a0a0
}


skinparam artifact {
	BorderThickness 10
	BorderColor #5e5e5e
	BackgroundColor #1b1b1a
	FontColor #D8Bc00
}


skinparam component {
		FontColor #C8Ac00
	BorderColor #333333
	BackgroundColor #333333-#333333
}


skinparam interface {
	BackgroundColor  #008400
	BorderColor  #007F00
	FontColor #484848
}


skinparam storage {
	BackgroundColor #ff8000
  	BorderColor #cc6600
	FontColor #222222
}


skinparam node {
	BackgroundColor #333333
	BorderColor #333333
	FontColor #C8Ac00
}


skinparam cloud {
	BackgroundColor #484848-black
	BorderColor #484848
	FontColor #D8Bc00
}


skinparam database {
		FontColor #C8Ac00
	BorderColor #333333
	BackgroundColor #333333-#333333
	BackgroundColor  #333333
}


skinparam class {
		FontColor #C8Ac00
	BorderColor #333333
	BackgroundColor #333333-#333333
	HeaderBackgroundColor #1b1b1a
    BackgroundColor #282828
    BorderColor #5e5e5e
 	StereotypeFontColor #a0a0a0
    StereotypeFontStyle bold
	BorderThickness 1
	AttributeFontColor #D8Bc00
	AttributeFontSize 11
    FontColor #D8Bc00
    FontStyle bold
}


skinparam object {
		FontColor #C8Ac00
	BorderColor #333333
	BackgroundColor #333333-#333333
	StereotypeFontColor #484848
	BorderThickness 1
	AttributeFontColor #fefefe
	AttributeFontSize 11
}


skinparam usecase {
		FontColor #C8Ac00
	BorderColor #333333
	BackgroundColor #333333-#333333
	BorderThickness 2
	StereotypeFontColor #303030
}


skinparam rectangle {
		FontColor #C8Ac00
	BorderColor #333333
	BackgroundColor #333333-#333333
	BackgroundColor #333333
	BorderThickness 2
	StereotypeFontColor #303030
}


skinparam package {
		FontColor #C8Ac00
	BorderColor #333333
	BackgroundColor #333333-#333333
	BackgroundColor #333333
	BorderThickness 2
}


skinparam folder {
	BackgroundColor #6d6d6d
  	BorderColor #ff8000
	FontColor #ff8000
	BorderThickness 2
}


skinparam frame {
	BackgroundColor #6d6d6d
  	BorderColor #0060a8
	FontColor #0060a8
	BorderThickness 2
}


skinparam state {
		FontColor #C8Ac00
	BorderColor #333333
	BackgroundColor #333333-#333333
	StartColor #0060a8
	EndColor #0060a8
	AttributeFontColor #fefefe
	AttributeFontSize 11
}


skinparam queue {
		FontColor #C8Ac00
	BorderColor #333333
	BackgroundColor #333333-#333333
}


skinparam card {
	BackgroundColor #0060a8
	BorderColor #004d86
	FontColor $INFO_TEXT
}


skinparam file {
	BackgroundColor #6d6d6d-#484848
	BorderColor #0060a8
	FontColor #fefefe
}


skinparam stack {
		FontColor #C8Ac00
	BorderColor #333333
	BackgroundColor #333333-#333333
}

    
    title "com.telenav.aonia.map.ui.swing.debug.viewer.empty"
    
    interface InteractiveView
    interface Viewer
    interface View
    
    NullView <|- - NullInteractiveView
    InteractiveView <|- - NullInteractiveView
    class NullInteractiveView
    {
    }
    
    View <|- - NullView
    class NullView
    {
    }
    
    Viewer <|- - NullViewer
    class NullViewer
    {
    }
    
@enduml

PlantUML version 1.2021.01(Tue Feb 02 00:55:08 MST 2021)
(GPL source distribution)
Java Runtime: Java(TM) SE Runtime Environment
JVM: Java HotSpot(TM) 64-Bit Server VM
Default Encoding: UTF-8
Language: en
Country: US
--></g></svg>