<?xml version="1.0" encoding="UTF-8" standalone="no"?><svg xmlns="http://www.w3.org/2000/svg" xmlns:xlink="http://www.w3.org/1999/xlink" contentScriptType="application/ecmascript" contentStyleType="text/css" height="559.375px" preserveAspectRatio="none" style="width:713px;height:559px;background:#333333;" version="1.1" viewBox="0 0 713 559" width="713.5417px" zoomAndPan="magnify"><defs/><g><rect fill="#48494B" height="41.2028" rx="8.3333" ry="8.3333" style="stroke:#545454;stroke-width:1.0416666666666667;" width="133.3333" x="282.8125" y="2.0833"/><text fill="#C0C0C0" font-family="Open Sans,Avenir,Nunito,Arial,Helvetica,SansSerif" font-size="20.8333" lengthAdjust="spacing" textLength="110.4167" x="294.2708" y="30.5583">Map Cutter</text><!--MD5=[cf10e9aa00a725350261dad3f1642ccf]
class Cut--><rect codeLine="6" fill="#282828" height="111.4563" id="Cut" rx="8.3333" ry="8.3333" style="stroke:#5E5E5E;stroke-width:1.0416666666666667;" width="152.0833" x="216.6667" y="294.3278"/><rect fill="#1B1B1A" height="31.3883" rx="8.3333" ry="8.3333" style="stroke:#1B1B1A;stroke-width:1.0416666666666667;" width="152.0833" x="216.6667" y="294.3278"/><rect fill="#1B1B1A" height="8.3333" style="stroke:#1B1B1A;stroke-width:1.0416666666666667;" width="152.0833" x="216.6667" y="317.3828"/><rect codeLine="6" fill="none" height="111.4563" id="Cut" rx="8.3333" ry="8.3333" style="stroke:#5E5E5E;stroke-width:1.0416666666666667;" width="152.0833" x="216.6667" y="294.3278"/><ellipse cx="273.9583" cy="310.022" fill="#C8AC00" rx="10.4167" ry="10.4167" style="stroke:#D8BC00;stroke-width:1.0416666666666667;"/><path d="M274.0723,306.724 L273.2239,310.4533 L274.9268,310.4533 Z M272.9736,305.0761 L275.177,305.0761 L277.6367,314.1886 L275.8362,314.1886 L275.2747,311.9364 L272.8638,311.9364 L272.3145,314.1886 L270.5139,314.1886 Z " fill="#000000"/><text fill="#D8BC00" font-family="Open Sans,Avenir,Nunito,Arial,Helvetica,SansSerif" font-size="12.5" font-style="italic" font-weight="bold" lengthAdjust="spacing" textLength="22.9167" x="296.875" y="314.7461">Cut</text><line style="stroke:#5E5E5E;stroke-width:1.5625;" x1="217.7083" x2="367.7083" y1="325.7161" y2="325.7161"/><polygon fill="#FFFF44" points="228.125,355.8777,232.2917,360.0444,228.125,364.211,223.9583,360.0444" style="stroke:#B38D22;stroke-width:1.0416666666666667;"/><text fill="#D8BC00" font-family="Open Sans,Avenir,Nunito,Arial,Helvetica,SansSerif" font-size="11.4583" lengthAdjust="spacing" textLength="119.7917" x="239.5833" y="367.9972">Cut(PbfRegionCutter)</text><line style="stroke:#5E5E5E;stroke-width:1.0416666666666667;" x1="217.7083" x2="248.9583" y1="343.9219" y2="343.9219"/><text fill="#D8BC00" font-family="Open Sans,Avenir,Nunito,Arial,Helvetica,SansSerif" font-size="11.4583" lengthAdjust="spacing" textLength="81.25" x="252.0833" y="347.7315">(constructors)</text><line style="stroke:#5E5E5E;stroke-width:1.0416666666666667;" x1="336.4583" x2="367.7083" y1="343.9219" y2="343.9219"/><line style="stroke:#5E5E5E;stroke-width:1.0416666666666667;" x1="217.7083" x2="367.7083" y1="377.7059" y2="377.7059"/><ellipse cx="228.125" cy="389.1642" fill="#84BE84" rx="3.125" ry="3.125" style="stroke:#038048;stroke-width:1.0416666666666667;"/><text fill="#D8BC00" font-family="Open Sans,Avenir,Nunito,Arial,Helvetica,SansSerif" font-size="11.4583" lengthAdjust="spacing" textLength="116.6667" x="239.5833" y="396.0754">Set&lt;Resource&gt; cut()</text><!--MD5=[650c1dde659f0d57d30b8db1a52915f0]
class FastCut--><rect codeLine="15" fill="#282828" height="83.3781" id="FastCut" rx="8.3333" ry="8.3333" style="stroke:#5E5E5E;stroke-width:1.0416666666666667;" width="247.9167" x="7.2917" y="469.3278"/><rect fill="#1B1B1A" height="31.3883" rx="8.3333" ry="8.3333" style="stroke:#1B1B1A;stroke-width:1.0416666666666667;" width="247.9167" x="7.2917" y="469.3278"/><rect fill="#1B1B1A" height="8.3333" style="stroke:#1B1B1A;stroke-width:1.0416666666666667;" width="247.9167" x="7.2917" y="492.3828"/><rect codeLine="15" fill="none" height="83.3781" id="FastCut" rx="8.3333" ry="8.3333" style="stroke:#5E5E5E;stroke-width:1.0416666666666667;" width="247.9167" x="7.2917" y="469.3278"/><ellipse cx="98.9583" cy="485.022" fill="#0066CF" rx="10.4167" ry="10.4167" style="stroke:#0086EF;stroke-width:1.0416666666666667;"/><path d="M100.8687,489.447 Q100.4415,489.6667 99.9715,489.7766 Q99.5015,489.8865 98.9827,489.8865 Q97.1395,489.8865 96.169,488.6719 Q95.1986,487.4573 95.1986,485.1624 Q95.1986,482.8613 96.169,481.6467 Q97.1395,480.4321 98.9827,480.4321 Q99.5015,480.4321 99.9776,480.542 Q100.4537,480.6519 100.8687,480.8716 L100.8687,482.8735 Q100.4049,482.4463 99.9685,482.2479 Q99.5321,482.0496 99.0682,482.0496 Q98.0794,482.0496 97.5759,482.8339 Q97.0723,483.6182 97.0723,485.1624 Q97.0723,486.7004 97.5759,487.4847 Q98.0794,488.269 99.0682,488.269 Q99.5321,488.269 99.9685,488.0707 Q100.4049,487.8723 100.8687,487.4451 Z " fill="#000000"/><text fill="#D8BC00" font-family="Open Sans,Avenir,Nunito,Arial,Helvetica,SansSerif" font-size="12.5" font-weight="bold" lengthAdjust="spacing" textLength="50" x="121.875" y="489.7461">FastCut</text><line style="stroke:#5E5E5E;stroke-width:1.5625;" x1="8.3333" x2="254.1667" y1="500.7161" y2="500.7161"/><ellipse cx="18.75" cy="536.086" fill="#84BE84" rx="3.125" ry="3.125" style="stroke:#038048;stroke-width:1.0416666666666667;"/><text fill="#D8BC00" font-family="Open Sans,Avenir,Nunito,Arial,Helvetica,SansSerif" font-size="11.4583" lengthAdjust="spacing" textLength="215.625" x="30.2083" y="542.9972">FastCut(PbfRegionCutter, RegionWays)</text><line style="stroke:#5E5E5E;stroke-width:1.0416666666666667;" x1="8.3333" x2="87.5" y1="518.9219" y2="518.9219"/><text fill="#D8BC00" font-family="Open Sans,Avenir,Nunito,Arial,Helvetica,SansSerif" font-size="11.4583" lengthAdjust="spacing" textLength="81.25" x="90.625" y="522.7315">(constructors)</text><line style="stroke:#5E5E5E;stroke-width:1.0416666666666667;" x1="175" x2="254.1667" y1="518.9219" y2="518.9219"/><!--MD5=[1cee8177a5616688f1e826bf6962052a]
class PbfRegionCutter--><rect codeLine="24" fill="#282828" height="155.1127" id="PbfRegionCutter" rx="8.3333" ry="8.3333" style="stroke:#5E5E5E;stroke-width:1.0416666666666667;" width="368.75" x="269.7917" y="53.7028"/><rect fill="#1B1B1A" height="31.3883" rx="8.3333" ry="8.3333" style="stroke:#1B1B1A;stroke-width:1.0416666666666667;" width="368.75" x="269.7917" y="53.7028"/><rect fill="#1B1B1A" height="8.3333" style="stroke:#1B1B1A;stroke-width:1.0416666666666667;" width="368.75" x="269.7917" y="76.7578"/><rect codeLine="24" fill="none" height="155.1127" id="PbfRegionCutter" rx="8.3333" ry="8.3333" style="stroke:#5E5E5E;stroke-width:1.0416666666666667;" width="368.75" x="269.7917" y="53.7028"/><ellipse cx="393.75" cy="69.397" fill="#0066CF" rx="10.4167" ry="10.4167" style="stroke:#0086EF;stroke-width:1.0416666666666667;"/><path d="M395.6604,73.822 Q395.2332,74.0417 394.7632,74.1516 Q394.2932,74.2615 393.7744,74.2615 Q391.9312,74.2615 390.9607,73.0469 Q389.9902,71.8323 389.9902,69.5374 Q389.9902,67.2363 390.9607,66.0217 Q391.9312,64.8071 393.7744,64.8071 Q394.2932,64.8071 394.7693,64.917 Q395.2454,65.0269 395.6604,65.2466 L395.6604,67.2485 Q395.1965,66.8213 394.7601,66.6229 Q394.3237,66.4246 393.8599,66.4246 Q392.8711,66.4246 392.3676,67.2089 Q391.864,67.9932 391.864,69.5374 Q391.864,71.0754 392.3676,71.8597 Q392.8711,72.644 393.8599,72.644 Q394.3237,72.644 394.7601,72.4457 Q395.1965,72.2473 395.6604,71.8201 Z " fill="#000000"/><text fill="#D8BC00" font-family="Open Sans,Avenir,Nunito,Arial,Helvetica,SansSerif" font-size="12.5" font-weight="bold" lengthAdjust="spacing" textLength="106.25" x="416.6667" y="74.1211">PbfRegionCutter</text><line style="stroke:#5E5E5E;stroke-width:1.5625;" x1="270.8333" x2="637.5" y1="85.0911" y2="85.0911"/><ellipse cx="281.25" cy="120.461" fill="#84BE84" rx="3.125" ry="3.125" style="stroke:#038048;stroke-width:1.0416666666666667;"/><text fill="#D8BC00" font-family="Open Sans,Avenir,Nunito,Arial,Helvetica,SansSerif" font-size="11.4583" lengthAdjust="spacing" textLength="336.4583" x="292.7083" y="127.3722">PbfRegionCutter(Source&lt;PbfDataSource&gt;, Folder, WayFilter)</text><line style="stroke:#5E5E5E;stroke-width:1.0416666666666667;" x1="270.8333" x2="410.4167" y1="103.2969" y2="103.2969"/><text fill="#D8BC00" font-family="Open Sans,Avenir,Nunito,Arial,Helvetica,SansSerif" font-size="11.4583" lengthAdjust="spacing" textLength="81.25" x="413.5417" y="107.1065">(constructors)</text><line style="stroke:#5E5E5E;stroke-width:1.0416666666666667;" x1="497.9167" x2="637.5" y1="103.2969" y2="103.2969"/><line style="stroke:#5E5E5E;stroke-width:1.0416666666666667;" x1="270.8333" x2="637.5" y1="137.0809" y2="137.0809"/><ellipse cx="281.25" cy="148.5392" fill="#84BE84" rx="3.125" ry="3.125" style="stroke:#038048;stroke-width:1.0416666666666667;"/><text fill="#D8BC00" font-family="Open Sans,Avenir,Nunito,Arial,Helvetica,SansSerif" font-size="11.4583" lengthAdjust="spacing" textLength="287.5" x="292.7083" y="155.4504">void regionsToExtract(RegionSet regionsToExtract)</text><ellipse cx="281.25" cy="192.1956" fill="#84BE84" rx="3.125" ry="3.125" style="stroke:#038048;stroke-width:1.0416666666666667;"/><text fill="#D8BC00" font-family="Open Sans,Avenir,Nunito,Arial,Helvetica,SansSerif" font-size="11.4583" lengthAdjust="spacing" textLength="101.0417" x="292.7083" y="199.1069">ResourceList cut()</text><line style="stroke:#5E5E5E;stroke-width:1.0416666666666667;" x1="270.8333" x2="431.25" y1="175.0315" y2="175.0315"/><text fill="#D8BC00" font-family="Open Sans,Avenir,Nunito,Arial,Helvetica,SansSerif" font-size="11.4583" lengthAdjust="spacing" textLength="39.5833" x="434.375" y="178.8411">cutting</text><line style="stroke:#5E5E5E;stroke-width:1.0416666666666667;" x1="477.0833" x2="637.5" y1="175.0315" y2="175.0315"/><!--MD5=[296971189912b7d7a3ae0a5bad58974f]
class WayFilter--><rect fill="#282828" height="48.055" id="WayFilter" rx="8.3333" ry="8.3333" style="stroke:#5E5E5E;stroke-width:1.0416666666666667;" width="96.875" x="405.7292" y="326.0986"/><rect fill="#1B1B1A" height="31.3883" rx="8.3333" ry="8.3333" style="stroke:#1B1B1A;stroke-width:1.0416666666666667;" width="96.875" x="405.7292" y="326.0986"/><rect fill="#1B1B1A" height="8.3333" style="stroke:#1B1B1A;stroke-width:1.0416666666666667;" width="96.875" x="405.7292" y="349.1536"/><rect fill="none" height="48.055" id="WayFilter" rx="8.3333" ry="8.3333" style="stroke:#5E5E5E;stroke-width:1.0416666666666667;" width="96.875" x="405.7292" y="326.0986"/><ellipse cx="420.3125" cy="341.7928" fill="#0066CF" rx="10.4167" ry="10.4167" style="stroke:#0086EF;stroke-width:1.0416666666666667;"/><path d="M422.2229,346.2179 Q421.7957,346.4376 421.3257,346.5474 Q420.8557,346.6573 420.3369,346.6573 Q418.4937,346.6573 417.5232,345.4427 Q416.5527,344.2281 416.5527,341.9332 Q416.5527,339.6322 417.5232,338.4176 Q418.4937,337.203 420.3369,337.203 Q420.8557,337.203 421.3318,337.3128 Q421.8079,337.4227 422.2229,337.6424 L422.2229,339.6444 Q421.759,339.2171 421.3226,339.0188 Q420.8862,338.8204 420.4224,338.8204 Q419.4336,338.8204 418.9301,339.6047 Q418.4265,340.389 418.4265,341.9332 Q418.4265,343.4713 418.9301,344.2556 Q419.4336,345.0399 420.4224,345.0399 Q420.8862,345.0399 421.3226,344.8415 Q421.759,344.6431 422.2229,344.2159 Z " fill="#000000"/><text fill="#D8BC00" font-family="Open Sans,Avenir,Nunito,Arial,Helvetica,SansSerif" font-size="12.5" font-weight="bold" lengthAdjust="spacing" textLength="59.375" x="436.9792" y="346.5169">WayFilter</text><line style="stroke:#5E5E5E;stroke-width:1.0416666666666667;" x1="406.7708" x2="501.5625" y1="357.487" y2="357.487"/><line style="stroke:#5E5E5E;stroke-width:1.0416666666666667;" x1="406.7708" x2="501.5625" y1="365.8203" y2="365.8203"/><!--MD5=[681af56545bb84ce04ffd484059583b1]
class RegionSet--><rect fill="#282828" height="48.055" id="RegionSet" rx="8.3333" ry="8.3333" style="stroke:#5E5E5E;stroke-width:1.0416666666666667;" width="102.0833" x="560.4167" y="326.0986"/><rect fill="#1B1B1A" height="31.3883" rx="8.3333" ry="8.3333" style="stroke:#1B1B1A;stroke-width:1.0416666666666667;" width="102.0833" x="560.4167" y="326.0986"/><rect fill="#1B1B1A" height="8.3333" style="stroke:#1B1B1A;stroke-width:1.0416666666666667;" width="102.0833" x="560.4167" y="349.1536"/><rect fill="none" height="48.055" id="RegionSet" rx="8.3333" ry="8.3333" style="stroke:#5E5E5E;stroke-width:1.0416666666666667;" width="102.0833" x="560.4167" y="326.0986"/><ellipse cx="575" cy="341.7928" fill="#0066CF" rx="10.4167" ry="10.4167" style="stroke:#0086EF;stroke-width:1.0416666666666667;"/><path d="M576.9104,346.2179 Q576.4832,346.4376 576.0132,346.5474 Q575.5432,346.6573 575.0244,346.6573 Q573.1812,346.6573 572.2107,345.4427 Q571.2402,344.2281 571.2402,341.9332 Q571.2402,339.6322 572.2107,338.4176 Q573.1812,337.203 575.0244,337.203 Q575.5432,337.203 576.0193,337.3128 Q576.4954,337.4227 576.9104,337.6424 L576.9104,339.6444 Q576.4465,339.2171 576.0101,339.0188 Q575.5737,338.8204 575.1099,338.8204 Q574.1211,338.8204 573.6176,339.6047 Q573.114,340.389 573.114,341.9332 Q573.114,343.4713 573.6176,344.2556 Q574.1211,345.0399 575.1099,345.0399 Q575.5737,345.0399 576.0101,344.8415 Q576.4465,344.6431 576.9104,344.2159 Z " fill="#000000"/><text fill="#D8BC00" font-family="Open Sans,Avenir,Nunito,Arial,Helvetica,SansSerif" font-size="12.5" font-weight="bold" lengthAdjust="spacing" textLength="64.5833" x="591.6667" y="346.5169">RegionSet</text><line style="stroke:#5E5E5E;stroke-width:1.0416666666666667;" x1="561.4583" x2="661.4583" y1="357.487" y2="357.487"/><line style="stroke:#5E5E5E;stroke-width:1.0416666666666667;" x1="561.4583" x2="661.4583" y1="365.8203" y2="365.8203"/><!--MD5=[6fe21fed52442f850e368ba4b6271bed]
class SoftCut--><rect codeLine="35" fill="#282828" height="83.3781" id="SoftCut" rx="8.3333" ry="8.3333" style="stroke:#5E5E5E;stroke-width:1.0416666666666667;" width="327.0833" x="291.6667" y="469.3278"/><rect fill="#1B1B1A" height="31.3883" rx="8.3333" ry="8.3333" style="stroke:#1B1B1A;stroke-width:1.0416666666666667;" width="327.0833" x="291.6667" y="469.3278"/><rect fill="#1B1B1A" height="8.3333" style="stroke:#1B1B1A;stroke-width:1.0416666666666667;" width="327.0833" x="291.6667" y="492.3828"/><rect codeLine="35" fill="none" height="83.3781" id="SoftCut" rx="8.3333" ry="8.3333" style="stroke:#5E5E5E;stroke-width:1.0416666666666667;" width="327.0833" x="291.6667" y="469.3278"/><ellipse cx="423.4375" cy="485.022" fill="#0066CF" rx="10.4167" ry="10.4167" style="stroke:#0086EF;stroke-width:1.0416666666666667;"/><path d="M425.3479,489.447 Q424.9207,489.6667 424.4507,489.7766 Q423.9807,489.8865 423.4619,489.8865 Q421.6187,489.8865 420.6482,488.6719 Q419.6777,487.4573 419.6777,485.1624 Q419.6777,482.8613 420.6482,481.6467 Q421.6187,480.4321 423.4619,480.4321 Q423.9807,480.4321 424.4568,480.542 Q424.9329,480.6519 425.3479,480.8716 L425.3479,482.8735 Q424.884,482.4463 424.4476,482.2479 Q424.0112,482.0496 423.5474,482.0496 Q422.5586,482.0496 422.0551,482.8339 Q421.5515,483.6182 421.5515,485.1624 Q421.5515,486.7004 422.0551,487.4847 Q422.5586,488.269 423.5474,488.269 Q424.0112,488.269 424.4476,488.0707 Q424.884,487.8723 425.3479,487.4451 Z " fill="#000000"/><text fill="#D8BC00" font-family="Open Sans,Avenir,Nunito,Arial,Helvetica,SansSerif" font-size="12.5" font-weight="bold" lengthAdjust="spacing" textLength="48.9583" x="446.3542" y="489.7461">SoftCut</text><line style="stroke:#5E5E5E;stroke-width:1.5625;" x1="292.7083" x2="617.7083" y1="500.7161" y2="500.7161"/><ellipse cx="303.125" cy="536.086" fill="#84BE84" rx="3.125" ry="3.125" style="stroke:#038048;stroke-width:1.0416666666666667;"/><text fill="#D8BC00" font-family="Open Sans,Avenir,Nunito,Arial,Helvetica,SansSerif" font-size="11.4583" lengthAdjust="spacing" textLength="294.7917" x="314.5833" y="542.9972">SoftCut(PbfRegionCutter, RegionNodes, RegionWays)</text><line style="stroke:#5E5E5E;stroke-width:1.0416666666666667;" x1="292.7083" x2="411.4583" y1="518.9219" y2="518.9219"/><text fill="#D8BC00" font-family="Open Sans,Avenir,Nunito,Arial,Helvetica,SansSerif" font-size="11.4583" lengthAdjust="spacing" textLength="81.25" x="414.5833" y="522.7315">(constructors)</text><line style="stroke:#5E5E5E;stroke-width:1.0416666666666667;" x1="498.9583" x2="617.7083" y1="518.9219" y2="518.9219"/><!--MD5=[78c5b5c27e260979a359722e54d94cd4]
reverse link Cut to FastCut--><path codeLine="14" d="M221.6354,421.0257 C204.9896,437.4007 187.7813,454.3278 172.9063,468.9632 " fill="none" id="Cut-backto-FastCut" style="stroke:#545454;stroke-width:1.5625;"/><polygon fill="none" points="216.7292,415.6299,236.6875,406.2132,226.9583,426.0257,216.7292,415.6299" style="stroke:#545454;stroke-width:1.5625;"/><!--MD5=[1359c53c39c062161047836abc7d42b1]
link PbfRegionCutter to Cut--><path codeLine="21" d="M397.0104,209.0465 C377.2083,235.6299 355.3229,264.9945 336.7292,289.932 " fill="none" id="PbfRegionCutter-to-Cut" style="stroke:#545454;stroke-width:1.5625;"/><polygon fill="#545454" points="333.5417,294.2236,342.4799,289.1879,336.65,290.0445,335.7933,284.2146,333.5417,294.2236" style="stroke:#545454;stroke-width:1.5625;"/><text fill="#A0A0A0" font-family="Open Sans,Avenir,Nunito,Arial,Helvetica,SansSerif" font-size="12.5" font-weight="bold" lengthAdjust="spacing" textLength="59.375" x="378.125" y="256.4128">cuts with</text><!--MD5=[d3b40e5d3becc9cf88030f101efe2fbf]
reverse link PbfRegionCutter to WayFilter--><path codeLine="22" d="M451.0104,222.9632 C450.8333,236.4111 450.8021,250.109 451.0417,263.0778 C451.4271,284.4215 452.3542,308.734 453.1042,326.0465 " fill="none" id="PbfRegionCutter-backto-WayFilter" style="stroke:#545454;stroke-width:1.5625;"/><polygon fill="#333333" points="451.25,209.0778,446.9741,215.2536,451.0303,221.5759,455.3061,215.4001,451.25,209.0778" style="stroke:#545454;stroke-width:1.5625;"/><text fill="#A0A0A0" font-family="Open Sans,Avenir,Nunito,Arial,Helvetica,SansSerif" font-size="12.5" font-weight="bold" lengthAdjust="spacing" textLength="107.2917" x="455.2083" y="256.4128">filters ways with</text><!--MD5=[28b36ad06d0f294c7edf078c8add2664]
reverse link PbfRegionCutter to RegionSet--><path codeLine="23" d="M555.1667,219.4528 C560.8021,226.1715 566.0938,233.0986 570.8333,240.1611 C588.8125,266.9632 600.1875,302.7861 606.1875,325.8799 " fill="none" id="PbfRegionCutter-backto-RegionSet" style="stroke:#545454;stroke-width:1.5625;"/><polygon fill="#333333" points="546.0417,209.0674,547.037,216.5127,554.2924,218.4576,553.2971,211.0122,546.0417,209.0674" style="stroke:#545454;stroke-width:1.5625;"/><text fill="#A0A0A0" font-family="Open Sans,Avenir,Nunito,Arial,Helvetica,SansSerif" font-size="12.5" font-weight="bold" lengthAdjust="spacing" textLength="114.5833" x="587.5" y="256.4128">regions to extract</text><!--MD5=[60f31eaf61bf488a633024a8035cb3e3]
reverse link Cut to SoftCut--><path codeLine="34" d="M364.2396,421.0257 C380.9896,437.4007 398.3125,454.3278 413.2813,468.9632 " fill="none" id="Cut-backto-SoftCut" style="stroke:#545454;stroke-width:1.5625;"/><polygon fill="none" points="358.8854,425.9945,349.0833,406.2132,369.0833,415.557,358.8854,425.9945" style="stroke:#545454;stroke-width:1.5625;"/><!--MD5=[df7ee0ff2d49be6aca743bec0293b007]
@startuml

    !include ../lexakai/lexakai.theme
    
    title "Map Cutter"
    
    abstract class Cut
    {
        - -(constructors)- -
        #Cut(PbfRegionCutter)
        - -
        +Set<Resource> cut()
    }
    
    Cut <|- - FastCut
    class FastCut
    {
        - -(constructors)- -
        +FastCut(PbfRegionCutter, RegionWays)
    }
    
    PbfRegionCutter - -> Cut : "cuts with"
    PbfRegionCutter o- - WayFilter : "filters ways with"
    PbfRegionCutter o- - RegionSet : "regions to extract"
    class PbfRegionCutter
    {
        - -(constructors)- -
        +PbfRegionCutter(Source<PbfDataSource>, Folder, WayFilter)
        - -
        +void regionsToExtract(RegionSet regionsToExtract)
        - -cutting- -
        +ResourceList cut()
    }
    
    Cut <|- - SoftCut
    class SoftCut
    {
        - -(constructors)- -
        +SoftCut(PbfRegionCutter, RegionNodes, RegionWays)
    }
    
@enduml

@startuml









skinparam backgroundColor #333333






skinparam  {
    defaultFontName   "Open Sans,Avenir,Nunito,Arial,Helvetica,SansSerif"
    defaultFontSize   12
    defaultTextAlignment left
    shadowing false
    RoundCorner 10
    TitleFontSize 18
}

skinparam defaultFontName       "Open Sans,Avenir,Nunito,Arial,Helvetica,SansSerif"
skinparam defaultFontSize       12
skinparam dpi                   100
skinparam shadowing             false
skinparam roundcorner           16
skinparam ParticipantPadding    40
skinparam BoxPadding            40
skinparam Padding               3
skinparam ArrowColor            #545454
skinparam stereotype {
    CBackgroundColor #0066cf
    CBorderColor #0086ef
    ABackgroundColor #C8Ac00
    ABorderColor #D8Bc00
    IBackgroundColor #008400
    IBorderColor #239c23
    EBackgroundColor #cf6300
    EBorderColor #ef8300
    NBackgroundColor #3380b9
    NBorderColor #004d86
}
skinparam title {
	FontColor	                 #c0c0c0
 	BorderColor                  #545454
	FontSize	    	         20
	BorderRoundCorner            16
	BorderThickness 	         1
	BackgroundColor              #48494b
}


skinparam legend {
	BackgroundColor #303030
	BorderColor #404040
	FontColor #a0a0a0
}

	skinparam swimlane {
	BorderColor #5e5e5e
	BorderThickness 2
	TitleBackgroundColor  #6d6d6d-#484848
	TitleFontColor #303030
}

skinparam activity {
		FontColor #C8Ac00
	BorderColor #333333
	BackgroundColor #333333-#333333
	BarColor #00FF00
	StartColor #0060a8
	EndColor #0060a8
	DiamondBackgroundColor #6d6d6d-#3a3a3a
  	DiamondBorderColor #3a3a3a
  	DiamondFontColor #fefefe
}


skinparam participant {
		FontColor #C8Ac00
	BorderColor #333333
	BackgroundColor #333333-#333333
	ParticipantBorderThickness 2
}


skinparam actor {
		FontColor #C8Ac00
	BorderColor #333333
	BackgroundColor #333333-#333333
}


skinparam arrow {
	Thickness 1.5
	Color #545454
	FontColor #a0a0a0
    FontStyle bold
    MessageAlignment center
}



skinparam sequence {
	BorderColor #303030
	TitleFontColor #303030
	BackgroundColor #333333
	StartColor #303030
	EndColor #303030
	BoxBackgroundColor #333333
	BoxBorderColor #484848
	BoxFontColor #484848
	LifeLineBorderColor #484848
	LifeLineBorderThickness 2
	LifeLineBackgroundColor #3a3a3a
	GroupBorderColor #484848
	GroupFontColor #484848
	GroupHeaderFontColor #0060a8
	GroupBackgroundColor #484848
	GroupHeaderBackgroundColor #333333
	DividerBackgroundColor #484848
    DividerBorderColor #484848
    DividerBorderThickness 2
    DividerFontColor #D8Bc00
	ReferenceBackgroundColor #333333
	ReferenceBorderColor #484848
	ReferenceFontColor #fefefe
	ReferenceHeaderBackgroundColor #484848
}


skinparam partition {
	BorderColor #303030
	FontColor #333333
	BackgroundColor #333333
}


skinparam collections {
		FontColor #C8Ac00
	BorderColor #333333
	BackgroundColor #333333-#333333
}


skinparam control {
		FontColor #C8Ac00
	BorderColor #333333
	BackgroundColor #333333-#333333
}


skinparam entity {
		FontColor #C8Ac00
	BorderColor #333333
	BackgroundColor #333333-#333333
}


skinparam boundary {
		FontColor #C8Ac00
	BorderColor #333333
	BackgroundColor #333333-#333333
}


skinparam agent {
	BackgroundColor #ff8000
	BorderColor #ff9933
	FontColor #484848
}


skinparam note {
	BorderThickness 1
	BackgroundColor #1b1b1a
	BorderColor #5e5e5e
	FontSize 11
	FontColor #a0a0a0
}


skinparam artifact {
	BorderThickness 10
	BorderColor #5e5e5e
	BackgroundColor #1b1b1a
	FontColor #D8Bc00
}


skinparam component {
		FontColor #C8Ac00
	BorderColor #333333
	BackgroundColor #333333-#333333
}


skinparam interface {
	BackgroundColor  #008400
	BorderColor  #007F00
	FontColor #484848
}


skinparam storage {
	BackgroundColor #ff8000
  	BorderColor #cc6600
	FontColor #222222
}


skinparam node {
	BackgroundColor #333333
	BorderColor #333333
	FontColor #C8Ac00
}


skinparam cloud {
	BackgroundColor #484848-black
	BorderColor #484848
	FontColor #D8Bc00
}


skinparam database {
		FontColor #C8Ac00
	BorderColor #333333
	BackgroundColor #333333-#333333
	BackgroundColor  #333333
}


skinparam class {
		FontColor #C8Ac00
	BorderColor #333333
	BackgroundColor #333333-#333333
	HeaderBackgroundColor #1b1b1a
    BackgroundColor #282828
    BorderColor #5e5e5e
 	StereotypeFontColor #a0a0a0
    StereotypeFontStyle bold
	BorderThickness 1
	AttributeFontColor #D8Bc00
	AttributeFontSize 11
    FontColor #D8Bc00
    FontStyle bold
}


skinparam object {
		FontColor #C8Ac00
	BorderColor #333333
	BackgroundColor #333333-#333333
	StereotypeFontColor #484848
	BorderThickness 1
	AttributeFontColor #fefefe
	AttributeFontSize 11
}


skinparam usecase {
		FontColor #C8Ac00
	BorderColor #333333
	BackgroundColor #333333-#333333
	BorderThickness 2
	StereotypeFontColor #303030
}


skinparam rectangle {
		FontColor #C8Ac00
	BorderColor #333333
	BackgroundColor #333333-#333333
	BackgroundColor #333333
	BorderThickness 2
	StereotypeFontColor #303030
}


skinparam package {
		FontColor #C8Ac00
	BorderColor #333333
	BackgroundColor #333333-#333333
	BackgroundColor #333333
	BorderThickness 2
}


skinparam folder {
	BackgroundColor #6d6d6d
  	BorderColor #ff8000
	FontColor #ff8000
	BorderThickness 2
}


skinparam frame {
	BackgroundColor #6d6d6d
  	BorderColor #0060a8
	FontColor #0060a8
	BorderThickness 2
}


skinparam state {
		FontColor #C8Ac00
	BorderColor #333333
	BackgroundColor #333333-#333333
	StartColor #0060a8
	EndColor #0060a8
	AttributeFontColor #fefefe
	AttributeFontSize 11
}


skinparam queue {
		FontColor #C8Ac00
	BorderColor #333333
	BackgroundColor #333333-#333333
}


skinparam card {
	BackgroundColor #0060a8
	BorderColor #004d86
	FontColor $INFO_TEXT
}


skinparam file {
	BackgroundColor #6d6d6d-#484848
	BorderColor #0060a8
	FontColor #fefefe
}


skinparam stack {
		FontColor #C8Ac00
	BorderColor #333333
	BackgroundColor #333333-#333333
}

    
    title "Map Cutter"
    
    abstract class Cut
    {
        - -(constructors)- -
        #Cut(PbfRegionCutter)
        - -
        +Set<Resource> cut()
    }
    
    Cut <|- - FastCut
    class FastCut
    {
        - -(constructors)- -
        +FastCut(PbfRegionCutter, RegionWays)
    }
    
    PbfRegionCutter - -> Cut : "cuts with"
    PbfRegionCutter o- - WayFilter : "filters ways with"
    PbfRegionCutter o- - RegionSet : "regions to extract"
    class PbfRegionCutter
    {
        - -(constructors)- -
        +PbfRegionCutter(Source<PbfDataSource>, Folder, WayFilter)
        - -
        +void regionsToExtract(RegionSet regionsToExtract)
        - -cutting- -
        +ResourceList cut()
    }
    
    Cut <|- - SoftCut
    class SoftCut
    {
        - -(constructors)- -
        +SoftCut(PbfRegionCutter, RegionNodes, RegionWays)
    }
    
@enduml

PlantUML version 1.2021.01(Tue Feb 02 00:55:08 MST 2021)
(GPL source distribution)
Java Runtime: Java(TM) SE Runtime Environment
JVM: Java HotSpot(TM) 64-Bit Server VM
Default Encoding: UTF-8
Language: en
Country: US
--></g></svg>