<?xml version="1.0" encoding="UTF-8" standalone="no"?><svg xmlns="http://www.w3.org/2000/svg" xmlns:xlink="http://www.w3.org/1999/xlink" contentScriptType="application/ecmascript" contentStyleType="text/css" height="254.1667px" preserveAspectRatio="none" style="width:1113px;height:254px;background:#333333;" version="1.1" viewBox="0 0 1113 254" width="1113.5417px" zoomAndPan="magnify"><defs/><g><rect fill="#48494B" height="41.2028" rx="8.3333" ry="8.3333" style="stroke:#545454;stroke-width:1.0416666666666667;" width="655.2083" x="221.875" y="2.0833"/><text fill="#C0C0C0" font-family="Open Sans,Avenir,Nunito,Arial,Helvetica,SansSerif" font-size="20.8333" lengthAdjust="spacing" textLength="632.2917" x="233.3333" y="30.5583">com.telenav.aonia.map.data.formats.pbf.processing.filters.osm</text><!--MD5=[296971189912b7d7a3ae0a5bad58974f]
class WayFilter--><rect fill="#282828" height="48.055" id="WayFilter" rx="8.3333" ry="8.3333" style="stroke:#5E5E5E;stroke-width:1.0416666666666667;" width="96.875" x="477.0833" y="53.7028"/><rect fill="#1B1B1A" height="31.3883" rx="8.3333" ry="8.3333" style="stroke:#1B1B1A;stroke-width:1.0416666666666667;" width="96.875" x="477.0833" y="53.7028"/><rect fill="#1B1B1A" height="8.3333" style="stroke:#1B1B1A;stroke-width:1.0416666666666667;" width="96.875" x="477.0833" y="76.7578"/><rect fill="none" height="48.055" id="WayFilter" rx="8.3333" ry="8.3333" style="stroke:#5E5E5E;stroke-width:1.0416666666666667;" width="96.875" x="477.0833" y="53.7028"/><ellipse cx="491.6667" cy="69.397" fill="#0066CF" rx="10.4167" ry="10.4167" style="stroke:#0086EF;stroke-width:1.0416666666666667;"/><path d="M493.5771,73.822 Q493.1498,74.0417 492.6799,74.1516 Q492.2099,74.2615 491.6911,74.2615 Q489.8478,74.2615 488.8774,73.0469 Q487.9069,71.8323 487.9069,69.5374 Q487.9069,67.2363 488.8774,66.0217 Q489.8478,64.8071 491.6911,64.8071 Q492.2099,64.8071 492.686,64.917 Q493.162,65.0269 493.5771,65.2466 L493.5771,67.2485 Q493.1132,66.8213 492.6768,66.6229 Q492.2404,66.4246 491.7765,66.4246 Q490.7878,66.4246 490.2842,67.2089 Q489.7807,67.9932 489.7807,69.5374 Q489.7807,71.0754 490.2842,71.8597 Q490.7878,72.644 491.7765,72.644 Q492.2404,72.644 492.6768,72.4457 Q493.1132,72.2473 493.5771,71.8201 Z " fill="#000000"/><text fill="#D8BC00" font-family="Open Sans,Avenir,Nunito,Arial,Helvetica,SansSerif" font-size="12.5" font-weight="bold" lengthAdjust="spacing" textLength="59.375" x="508.3333" y="74.1211">WayFilter</text><line style="stroke:#5E5E5E;stroke-width:1.0416666666666667;" x1="478.125" x2="572.9167" y1="85.0911" y2="85.0911"/><line style="stroke:#5E5E5E;stroke-width:1.0416666666666667;" x1="478.125" x2="572.9167" y1="93.4245" y2="93.4245"/><!--MD5=[63083adeef258047f67378851df4e650]
class OsmExcludeNonDrivableWaysFilter--><rect codeLine="7" fill="#282828" height="83.3781" id="OsmExcludeNonDrivableWaysFilter" rx="8.3333" ry="8.3333" style="stroke:#5E5E5E;stroke-width:1.0416666666666667;" width="263.5417" x="7.2917" y="164.1195"/><rect fill="#1B1B1A" height="31.3883" rx="8.3333" ry="8.3333" style="stroke:#1B1B1A;stroke-width:1.0416666666666667;" width="263.5417" x="7.2917" y="164.1195"/><rect fill="#1B1B1A" height="8.3333" style="stroke:#1B1B1A;stroke-width:1.0416666666666667;" width="263.5417" x="7.2917" y="187.1745"/><rect codeLine="7" fill="none" height="83.3781" id="OsmExcludeNonDrivableWaysFilter" rx="8.3333" ry="8.3333" style="stroke:#5E5E5E;stroke-width:1.0416666666666667;" width="263.5417" x="7.2917" y="164.1195"/><ellipse cx="21.875" cy="179.8136" fill="#0066CF" rx="10.4167" ry="10.4167" style="stroke:#0086EF;stroke-width:1.0416666666666667;"/><path d="M23.7854,184.2387 Q23.3582,184.4584 22.8882,184.5683 Q22.4182,184.6781 21.8994,184.6781 Q20.0562,184.6781 19.0857,183.4635 Q18.1152,182.2489 18.1152,179.954 Q18.1152,177.653 19.0857,176.4384 Q20.0562,175.2238 21.8994,175.2238 Q22.4182,175.2238 22.8943,175.3337 Q23.3704,175.4435 23.7854,175.6632 L23.7854,177.6652 Q23.3215,177.238 22.8851,177.0396 Q22.4487,176.8412 21.9849,176.8412 Q20.9961,176.8412 20.4926,177.6255 Q19.989,178.4098 19.989,179.954 Q19.989,181.4921 20.4926,182.2764 Q20.9961,183.0607 21.9849,183.0607 Q22.4487,183.0607 22.8851,182.8623 Q23.3215,182.664 23.7854,182.2367 Z " fill="#000000"/><text fill="#D8BC00" font-family="Open Sans,Avenir,Nunito,Arial,Helvetica,SansSerif" font-size="12.5" font-weight="bold" lengthAdjust="spacing" textLength="226.0417" x="38.5417" y="184.5378">OsmExcludeNonDrivableWaysFilter</text><line style="stroke:#5E5E5E;stroke-width:1.5625;" x1="8.3333" x2="269.7917" y1="195.5078" y2="195.5078"/><ellipse cx="18.75" cy="230.8777" fill="#84BE84" rx="3.125" ry="3.125" style="stroke:#038048;stroke-width:1.0416666666666667;"/><text fill="#D8BC00" font-family="Open Sans,Avenir,Nunito,Arial,Helvetica,SansSerif" font-size="11.4583" lengthAdjust="spacing" textLength="203.125" x="30.2083" y="237.7889">OsmExcludeNonDrivableWaysFilter()</text><line style="stroke:#5E5E5E;stroke-width:1.0416666666666667;" x1="8.3333" x2="95.3125" y1="213.7136" y2="213.7136"/><text fill="#D8BC00" font-family="Open Sans,Avenir,Nunito,Arial,Helvetica,SansSerif" font-size="11.4583" lengthAdjust="spacing" textLength="81.25" x="98.4375" y="217.5232">(constructors)</text><line style="stroke:#5E5E5E;stroke-width:1.0416666666666667;" x1="182.8125" x2="269.7917" y1="213.7136" y2="213.7136"/><!--MD5=[119ea91bb4873bb13afcf508fee01aa0]
class OsmMajorRoadsWayFilter--><rect codeLine="14" fill="#282828" height="83.3781" id="OsmMajorRoadsWayFilter" rx="8.3333" ry="8.3333" style="stroke:#5E5E5E;stroke-width:1.0416666666666667;" width="203.125" x="307.2917" y="164.1195"/><rect fill="#1B1B1A" height="31.3883" rx="8.3333" ry="8.3333" style="stroke:#1B1B1A;stroke-width:1.0416666666666667;" width="203.125" x="307.2917" y="164.1195"/><rect fill="#1B1B1A" height="8.3333" style="stroke:#1B1B1A;stroke-width:1.0416666666666667;" width="203.125" x="307.2917" y="187.1745"/><rect codeLine="14" fill="none" height="83.3781" id="OsmMajorRoadsWayFilter" rx="8.3333" ry="8.3333" style="stroke:#5E5E5E;stroke-width:1.0416666666666667;" width="203.125" x="307.2917" y="164.1195"/><ellipse cx="321.875" cy="179.8136" fill="#0066CF" rx="10.4167" ry="10.4167" style="stroke:#0086EF;stroke-width:1.0416666666666667;"/><path d="M323.7854,184.2387 Q323.3582,184.4584 322.8882,184.5683 Q322.4182,184.6781 321.8994,184.6781 Q320.0562,184.6781 319.0857,183.4635 Q318.1152,182.2489 318.1152,179.954 Q318.1152,177.653 319.0857,176.4384 Q320.0562,175.2238 321.8994,175.2238 Q322.4182,175.2238 322.8943,175.3337 Q323.3704,175.4435 323.7854,175.6632 L323.7854,177.6652 Q323.3215,177.238 322.8851,177.0396 Q322.4487,176.8412 321.9849,176.8412 Q320.9961,176.8412 320.4926,177.6255 Q319.989,178.4098 319.989,179.954 Q319.989,181.4921 320.4926,182.2764 Q320.9961,183.0607 321.9849,183.0607 Q322.4487,183.0607 322.8851,182.8623 Q323.3215,182.664 323.7854,182.2367 Z " fill="#000000"/><text fill="#D8BC00" font-family="Open Sans,Avenir,Nunito,Arial,Helvetica,SansSerif" font-size="12.5" font-weight="bold" lengthAdjust="spacing" textLength="165.625" x="338.5417" y="184.5378">OsmMajorRoadsWayFilter</text><line style="stroke:#5E5E5E;stroke-width:1.5625;" x1="308.3333" x2="509.375" y1="195.5078" y2="195.5078"/><ellipse cx="318.75" cy="230.8777" fill="#84BE84" rx="3.125" ry="3.125" style="stroke:#038048;stroke-width:1.0416666666666667;"/><text fill="#D8BC00" font-family="Open Sans,Avenir,Nunito,Arial,Helvetica,SansSerif" font-size="11.4583" lengthAdjust="spacing" textLength="150" x="330.2083" y="237.7889">OsmMajorRoadsWayFilter()</text><line style="stroke:#5E5E5E;stroke-width:1.0416666666666667;" x1="308.3333" x2="365.1042" y1="213.7136" y2="213.7136"/><text fill="#D8BC00" font-family="Open Sans,Avenir,Nunito,Arial,Helvetica,SansSerif" font-size="11.4583" lengthAdjust="spacing" textLength="81.25" x="368.2292" y="217.5232">(constructors)</text><line style="stroke:#5E5E5E;stroke-width:1.0416666666666667;" x1="452.6042" x2="509.375" y1="213.7136" y2="213.7136"/><!--MD5=[d7c6a7e2d3c78778ee54038d5529a38e]
class OsmNavigableWayFilter--><rect codeLine="21" fill="#282828" height="83.3781" id="OsmNavigableWayFilter" rx="8.3333" ry="8.3333" style="stroke:#5E5E5E;stroke-width:1.0416666666666667;" width="190.625" x="546.875" y="164.1195"/><rect fill="#1B1B1A" height="31.3883" rx="8.3333" ry="8.3333" style="stroke:#1B1B1A;stroke-width:1.0416666666666667;" width="190.625" x="546.875" y="164.1195"/><rect fill="#1B1B1A" height="8.3333" style="stroke:#1B1B1A;stroke-width:1.0416666666666667;" width="190.625" x="546.875" y="187.1745"/><rect codeLine="21" fill="none" height="83.3781" id="OsmNavigableWayFilter" rx="8.3333" ry="8.3333" style="stroke:#5E5E5E;stroke-width:1.0416666666666667;" width="190.625" x="546.875" y="164.1195"/><ellipse cx="561.4583" cy="179.8136" fill="#0066CF" rx="10.4167" ry="10.4167" style="stroke:#0086EF;stroke-width:1.0416666666666667;"/><path d="M563.3687,184.2387 Q562.9415,184.4584 562.4715,184.5683 Q562.0015,184.6781 561.4827,184.6781 Q559.6395,184.6781 558.669,183.4635 Q557.6986,182.2489 557.6986,179.954 Q557.6986,177.653 558.669,176.4384 Q559.6395,175.2238 561.4827,175.2238 Q562.0015,175.2238 562.4776,175.3337 Q562.9537,175.4435 563.3687,175.6632 L563.3687,177.6652 Q562.9049,177.238 562.4685,177.0396 Q562.0321,176.8412 561.5682,176.8412 Q560.5794,176.8412 560.0759,177.6255 Q559.5723,178.4098 559.5723,179.954 Q559.5723,181.4921 560.0759,182.2764 Q560.5794,183.0607 561.5682,183.0607 Q562.0321,183.0607 562.4685,182.8623 Q562.9049,182.664 563.3687,182.2367 Z " fill="#000000"/><text fill="#D8BC00" font-family="Open Sans,Avenir,Nunito,Arial,Helvetica,SansSerif" font-size="12.5" font-weight="bold" lengthAdjust="spacing" textLength="153.125" x="578.125" y="184.5378">OsmNavigableWayFilter</text><line style="stroke:#5E5E5E;stroke-width:1.5625;" x1="547.9167" x2="736.4583" y1="195.5078" y2="195.5078"/><ellipse cx="558.3333" cy="230.8777" fill="#84BE84" rx="3.125" ry="3.125" style="stroke:#038048;stroke-width:1.0416666666666667;"/><text fill="#D8BC00" font-family="Open Sans,Avenir,Nunito,Arial,Helvetica,SansSerif" font-size="11.4583" lengthAdjust="spacing" textLength="138.5417" x="569.7917" y="237.7889">OsmNavigableWayFilter()</text><line style="stroke:#5E5E5E;stroke-width:1.0416666666666667;" x1="547.9167" x2="598.4375" y1="213.7136" y2="213.7136"/><text fill="#D8BC00" font-family="Open Sans,Avenir,Nunito,Arial,Helvetica,SansSerif" font-size="11.4583" lengthAdjust="spacing" textLength="81.25" x="601.5625" y="217.5232">(constructors)</text><line style="stroke:#5E5E5E;stroke-width:1.0416666666666667;" x1="685.9375" x2="736.4583" y1="213.7136" y2="213.7136"/><!--MD5=[7641309704a2ba86945d63525f0a850a]
class RelationFilter--><rect fill="#282828" height="48.055" id="RelationFilter" rx="8.3333" ry="8.3333" style="stroke:#5E5E5E;stroke-width:1.0416666666666667;" width="123.9583" x="963.5417" y="53.7028"/><rect fill="#1B1B1A" height="31.3883" rx="8.3333" ry="8.3333" style="stroke:#1B1B1A;stroke-width:1.0416666666666667;" width="123.9583" x="963.5417" y="53.7028"/><rect fill="#1B1B1A" height="8.3333" style="stroke:#1B1B1A;stroke-width:1.0416666666666667;" width="123.9583" x="963.5417" y="76.7578"/><rect fill="none" height="48.055" id="RelationFilter" rx="8.3333" ry="8.3333" style="stroke:#5E5E5E;stroke-width:1.0416666666666667;" width="123.9583" x="963.5417" y="53.7028"/><ellipse cx="978.125" cy="69.397" fill="#0066CF" rx="10.4167" ry="10.4167" style="stroke:#0086EF;stroke-width:1.0416666666666667;"/><path d="M980.0354,73.822 Q979.6082,74.0417 979.1382,74.1516 Q978.6682,74.2615 978.1494,74.2615 Q976.3062,74.2615 975.3357,73.0469 Q974.3652,71.8323 974.3652,69.5374 Q974.3652,67.2363 975.3357,66.0217 Q976.3062,64.8071 978.1494,64.8071 Q978.6682,64.8071 979.1443,64.917 Q979.6204,65.0269 980.0354,65.2466 L980.0354,67.2485 Q979.5715,66.8213 979.1351,66.6229 Q978.6987,66.4246 978.2349,66.4246 Q977.2461,66.4246 976.7426,67.2089 Q976.239,67.9932 976.239,69.5374 Q976.239,71.0754 976.7426,71.8597 Q977.2461,72.644 978.2349,72.644 Q978.6987,72.644 979.1351,72.4457 Q979.5715,72.2473 980.0354,71.8201 Z " fill="#000000"/><text fill="#D8BC00" font-family="Open Sans,Avenir,Nunito,Arial,Helvetica,SansSerif" font-size="12.5" font-weight="bold" lengthAdjust="spacing" textLength="86.4583" x="994.7917" y="74.1211">RelationFilter</text><line style="stroke:#5E5E5E;stroke-width:1.0416666666666667;" x1="964.5833" x2="1086.4583" y1="85.0911" y2="85.0911"/><line style="stroke:#5E5E5E;stroke-width:1.0416666666666667;" x1="964.5833" x2="1086.4583" y1="93.4245" y2="93.4245"/><!--MD5=[2750498f001e3b0da027dbc8c3745c5b]
class OsmRelationsFilter--><rect codeLine="28" fill="#282828" height="83.3781" id="OsmRelationsFilter" rx="8.3333" ry="8.3333" style="stroke:#5E5E5E;stroke-width:1.0416666666666667;" width="161.4583" x="944.7917" y="164.1195"/><rect fill="#1B1B1A" height="31.3883" rx="8.3333" ry="8.3333" style="stroke:#1B1B1A;stroke-width:1.0416666666666667;" width="161.4583" x="944.7917" y="164.1195"/><rect fill="#1B1B1A" height="8.3333" style="stroke:#1B1B1A;stroke-width:1.0416666666666667;" width="161.4583" x="944.7917" y="187.1745"/><rect codeLine="28" fill="none" height="83.3781" id="OsmRelationsFilter" rx="8.3333" ry="8.3333" style="stroke:#5E5E5E;stroke-width:1.0416666666666667;" width="161.4583" x="944.7917" y="164.1195"/><ellipse cx="959.375" cy="179.8136" fill="#0066CF" rx="10.4167" ry="10.4167" style="stroke:#0086EF;stroke-width:1.0416666666666667;"/><path d="M961.2854,184.2387 Q960.8582,184.4584 960.3882,184.5683 Q959.9182,184.6781 959.3994,184.6781 Q957.5562,184.6781 956.5857,183.4635 Q955.6152,182.2489 955.6152,179.954 Q955.6152,177.653 956.5857,176.4384 Q957.5562,175.2238 959.3994,175.2238 Q959.9182,175.2238 960.3943,175.3337 Q960.8704,175.4435 961.2854,175.6632 L961.2854,177.6652 Q960.8215,177.238 960.3851,177.0396 Q959.9487,176.8412 959.4849,176.8412 Q958.4961,176.8412 957.9926,177.6255 Q957.489,178.4098 957.489,179.954 Q957.489,181.4921 957.9926,182.2764 Q958.4961,183.0607 959.4849,183.0607 Q959.9487,183.0607 960.3851,182.8623 Q960.8215,182.664 961.2854,182.2367 Z " fill="#000000"/><text fill="#D8BC00" font-family="Open Sans,Avenir,Nunito,Arial,Helvetica,SansSerif" font-size="12.5" font-weight="bold" lengthAdjust="spacing" textLength="123.9583" x="976.0417" y="184.5378">OsmRelationsFilter</text><line style="stroke:#5E5E5E;stroke-width:1.5625;" x1="945.8333" x2="1105.2083" y1="195.5078" y2="195.5078"/><ellipse cx="956.25" cy="230.8777" fill="#84BE84" rx="3.125" ry="3.125" style="stroke:#038048;stroke-width:1.0416666666666667;"/><text fill="#D8BC00" font-family="Open Sans,Avenir,Nunito,Arial,Helvetica,SansSerif" font-size="11.4583" lengthAdjust="spacing" textLength="113.5417" x="967.7083" y="237.7889">OsmRelationsFilter()</text><line style="stroke:#5E5E5E;stroke-width:1.0416666666666667;" x1="945.8333" x2="981.7708" y1="213.7136" y2="213.7136"/><text fill="#D8BC00" font-family="Open Sans,Avenir,Nunito,Arial,Helvetica,SansSerif" font-size="11.4583" lengthAdjust="spacing" textLength="81.25" x="984.8958" y="217.5232">(constructors)</text><line style="stroke:#5E5E5E;stroke-width:1.0416666666666667;" x1="1069.2708" x2="1105.2083" y1="213.7136" y2="213.7136"/><!--MD5=[dc0b09167e946f795f0a7f0b879c923a]
class OsmWaysFilter--><rect codeLine="35" fill="#282828" height="83.3781" id="OsmWaysFilter" rx="8.3333" ry="8.3333" style="stroke:#5E5E5E;stroke-width:1.0416666666666667;" width="134.375" x="773.9583" y="164.1195"/><rect fill="#1B1B1A" height="31.3883" rx="8.3333" ry="8.3333" style="stroke:#1B1B1A;stroke-width:1.0416666666666667;" width="134.375" x="773.9583" y="164.1195"/><rect fill="#1B1B1A" height="8.3333" style="stroke:#1B1B1A;stroke-width:1.0416666666666667;" width="134.375" x="773.9583" y="187.1745"/><rect codeLine="35" fill="none" height="83.3781" id="OsmWaysFilter" rx="8.3333" ry="8.3333" style="stroke:#5E5E5E;stroke-width:1.0416666666666667;" width="134.375" x="773.9583" y="164.1195"/><ellipse cx="788.5417" cy="179.8136" fill="#0066CF" rx="10.4167" ry="10.4167" style="stroke:#0086EF;stroke-width:1.0416666666666667;"/><path d="M790.4521,184.2387 Q790.0248,184.4584 789.5549,184.5683 Q789.0849,184.6781 788.5661,184.6781 Q786.7228,184.6781 785.7524,183.4635 Q784.7819,182.2489 784.7819,179.954 Q784.7819,177.653 785.7524,176.4384 Q786.7228,175.2238 788.5661,175.2238 Q789.0849,175.2238 789.561,175.3337 Q790.037,175.4435 790.4521,175.6632 L790.4521,177.6652 Q789.9882,177.238 789.5518,177.0396 Q789.1154,176.8412 788.6515,176.8412 Q787.6628,176.8412 787.1592,177.6255 Q786.6557,178.4098 786.6557,179.954 Q786.6557,181.4921 787.1592,182.2764 Q787.6628,183.0607 788.6515,183.0607 Q789.1154,183.0607 789.5518,182.8623 Q789.9882,182.664 790.4521,182.2367 Z " fill="#000000"/><text fill="#D8BC00" font-family="Open Sans,Avenir,Nunito,Arial,Helvetica,SansSerif" font-size="12.5" font-weight="bold" lengthAdjust="spacing" textLength="96.875" x="805.2083" y="184.5378">OsmWaysFilter</text><line style="stroke:#5E5E5E;stroke-width:1.5625;" x1="775" x2="907.2917" y1="195.5078" y2="195.5078"/><ellipse cx="785.4167" cy="230.8777" fill="#84BE84" rx="3.125" ry="3.125" style="stroke:#038048;stroke-width:1.0416666666666667;"/><text fill="#D8BC00" font-family="Open Sans,Avenir,Nunito,Arial,Helvetica,SansSerif" font-size="11.4583" lengthAdjust="spacing" textLength="90.625" x="796.875" y="237.7889">OsmWaysFilter()</text><line style="stroke:#5E5E5E;stroke-width:1.0416666666666667;" x1="775" x2="797.3958" y1="213.7136" y2="213.7136"/><text fill="#D8BC00" font-family="Open Sans,Avenir,Nunito,Arial,Helvetica,SansSerif" font-size="11.4583" lengthAdjust="spacing" textLength="81.25" x="800.5208" y="217.5232">(constructors)</text><line style="stroke:#5E5E5E;stroke-width:1.0416666666666667;" x1="884.8958" x2="907.2917" y1="213.7136" y2="213.7136"/><!--MD5=[b6b775fcb669f22099ad8de15664850f]
reverse link WayFilter to OsmExcludeNonDrivableWaysFilter--><path codeLine="6" d="M456.9271,101.0778 C403.4583,118.5153 327.7708,143.1924 263.6667,164.109 " fill="none" id="WayFilter-backto-OsmExcludeNonDrivableWaysFilter" style="stroke:#545454;stroke-width:1.5625;"/><polygon fill="none" points="454.8958,94.0674,476.9688,94.5361,459.4167,107.932,454.8958,94.0674" style="stroke:#545454;stroke-width:1.5625;"/><!--MD5=[69ef2d0db2f2b139dee2b6791d352797]
reverse link WayFilter to OsmMajorRoadsWayFilter--><path codeLine="13" d="M489.7292,117.3695 C476.0729,132.1195 460.4792,148.9736 446.6458,163.9215 " fill="none" id="WayFilter-backto-OsmMajorRoadsWayFilter" style="stroke:#545454;stroke-width:1.5625;"/><polygon fill="none" points="484.6146,112.1611,504.125,101.8174,495.3229,122.0674,484.6146,112.1611" style="stroke:#545454;stroke-width:1.5625;"/><!--MD5=[fa0a56637f75a7bbcdac67e65377a7d8]
reverse link WayFilter to OsmNavigableWayFilter--><path codeLine="20" d="M561.3125,117.3695 C574.9688,132.1195 590.5625,148.9736 604.3958,163.9215 " fill="none" id="WayFilter-backto-OsmNavigableWayFilter" style="stroke:#545454;stroke-width:1.5625;"/><polygon fill="none" points="555.7188,122.0674,546.9167,101.8174,566.4271,112.1611,555.7188,122.0674" style="stroke:#545454;stroke-width:1.5625;"/><!--MD5=[d16ad885872a14bf49fef81eabe48c48]
reverse link RelationFilter to OsmRelationsFilter--><path codeLine="27" d="M1025.5208,122.682 C1025.5208,136.0778 1025.5208,150.7445 1025.5208,163.9215 " fill="none" id="RelationFilter-backto-OsmRelationsFilter" style="stroke:#545454;stroke-width:1.5625;"/><polygon fill="none" points="1018.2292,122.6507,1025.5208,101.8174,1032.8125,122.6507,1018.2292,122.6507" style="stroke:#545454;stroke-width:1.5625;"/><!--MD5=[3a3574c1f062e6bfde78f482c62de954]
reverse link WayFilter to OsmWaysFilter--><path codeLine="34" d="M593.7396,102.2236 C639.8854,118.5674 701.9688,141.4111 755.7292,164.1195 C761.625,166.609 767.7083,169.2861 773.7917,172.0361 " fill="none" id="WayFilter-backto-OsmWaysFilter" style="stroke:#545454;stroke-width:1.5625;"/><polygon fill="none" points="591.3021,109.0986,574.0625,95.307,596.1354,95.3382,591.3021,109.0986" style="stroke:#545454;stroke-width:1.5625;"/><!--MD5=[f470fe1d02a614a33e6ab9799e96bbf2]
@startuml

    !include ../lexakai/lexakai.theme
    
    title "com.telenav.aonia.map.data.formats.pbf.processing.filters.osm"
    
    WayFilter <|- - OsmExcludeNonDrivableWaysFilter
    class OsmExcludeNonDrivableWaysFilter
    {
        - -(constructors)- -
        +OsmExcludeNonDrivableWaysFilter()
    }
    
    WayFilter <|- - OsmMajorRoadsWayFilter
    class OsmMajorRoadsWayFilter
    {
        - -(constructors)- -
        +OsmMajorRoadsWayFilter()
    }
    
    WayFilter <|- - OsmNavigableWayFilter
    class OsmNavigableWayFilter
    {
        - -(constructors)- -
        +OsmNavigableWayFilter()
    }
    
    RelationFilter <|- - OsmRelationsFilter
    class OsmRelationsFilter
    {
        - -(constructors)- -
        +OsmRelationsFilter()
    }
    
    WayFilter <|- - OsmWaysFilter
    class OsmWaysFilter
    {
        - -(constructors)- -
        +OsmWaysFilter()
    }
    
@enduml

@startuml









skinparam backgroundColor #333333






skinparam  {
    defaultFontName   "Open Sans,Avenir,Nunito,Arial,Helvetica,SansSerif"
    defaultFontSize   12
    defaultTextAlignment left
    shadowing false
    RoundCorner 10
    TitleFontSize 18
}

skinparam defaultFontName       "Open Sans,Avenir,Nunito,Arial,Helvetica,SansSerif"
skinparam defaultFontSize       12
skinparam dpi                   100
skinparam shadowing             false
skinparam roundcorner           16
skinparam ParticipantPadding    40
skinparam BoxPadding            40
skinparam Padding               3
skinparam ArrowColor            #545454
skinparam stereotype {
    CBackgroundColor #0066cf
    CBorderColor #0086ef
    ABackgroundColor #C8Ac00
    ABorderColor #D8Bc00
    IBackgroundColor #008400
    IBorderColor #239c23
    EBackgroundColor #cf6300
    EBorderColor #ef8300
    NBackgroundColor #3380b9
    NBorderColor #004d86
}
skinparam title {
	FontColor	                 #c0c0c0
 	BorderColor                  #545454
	FontSize	    	         20
	BorderRoundCorner            16
	BorderThickness 	         1
	BackgroundColor              #48494b
}


skinparam legend {
	BackgroundColor #303030
	BorderColor #404040
	FontColor #a0a0a0
}

	skinparam swimlane {
	BorderColor #5e5e5e
	BorderThickness 2
	TitleBackgroundColor  #6d6d6d-#484848
	TitleFontColor #303030
}

skinparam activity {
		FontColor #C8Ac00
	BorderColor #333333
	BackgroundColor #333333-#333333
	BarColor #00FF00
	StartColor #0060a8
	EndColor #0060a8
	DiamondBackgroundColor #6d6d6d-#3a3a3a
  	DiamondBorderColor #3a3a3a
  	DiamondFontColor #fefefe
}


skinparam participant {
		FontColor #C8Ac00
	BorderColor #333333
	BackgroundColor #333333-#333333
	ParticipantBorderThickness 2
}


skinparam actor {
		FontColor #C8Ac00
	BorderColor #333333
	BackgroundColor #333333-#333333
}


skinparam arrow {
	Thickness 1.5
	Color #545454
	FontColor #a0a0a0
    FontStyle bold
    MessageAlignment center
}



skinparam sequence {
	BorderColor #303030
	TitleFontColor #303030
	BackgroundColor #333333
	StartColor #303030
	EndColor #303030
	BoxBackgroundColor #333333
	BoxBorderColor #484848
	BoxFontColor #484848
	LifeLineBorderColor #484848
	LifeLineBorderThickness 2
	LifeLineBackgroundColor #3a3a3a
	GroupBorderColor #484848
	GroupFontColor #484848
	GroupHeaderFontColor #0060a8
	GroupBackgroundColor #484848
	GroupHeaderBackgroundColor #333333
	DividerBackgroundColor #484848
    DividerBorderColor #484848
    DividerBorderThickness 2
    DividerFontColor #D8Bc00
	ReferenceBackgroundColor #333333
	ReferenceBorderColor #484848
	ReferenceFontColor #fefefe
	ReferenceHeaderBackgroundColor #484848
}


skinparam partition {
	BorderColor #303030
	FontColor #333333
	BackgroundColor #333333
}


skinparam collections {
		FontColor #C8Ac00
	BorderColor #333333
	BackgroundColor #333333-#333333
}


skinparam control {
		FontColor #C8Ac00
	BorderColor #333333
	BackgroundColor #333333-#333333
}


skinparam entity {
		FontColor #C8Ac00
	BorderColor #333333
	BackgroundColor #333333-#333333
}


skinparam boundary {
		FontColor #C8Ac00
	BorderColor #333333
	BackgroundColor #333333-#333333
}


skinparam agent {
	BackgroundColor #ff8000
	BorderColor #ff9933
	FontColor #484848
}


skinparam note {
	BorderThickness 1
	BackgroundColor #1b1b1a
	BorderColor #5e5e5e
	FontSize 11
	FontColor #a0a0a0
}


skinparam artifact {
	BorderThickness 10
	BorderColor #5e5e5e
	BackgroundColor #1b1b1a
	FontColor #D8Bc00
}


skinparam component {
		FontColor #C8Ac00
	BorderColor #333333
	BackgroundColor #333333-#333333
}


skinparam interface {
	BackgroundColor  #008400
	BorderColor  #007F00
	FontColor #484848
}


skinparam storage {
	BackgroundColor #ff8000
  	BorderColor #cc6600
	FontColor #222222
}


skinparam node {
	BackgroundColor #333333
	BorderColor #333333
	FontColor #C8Ac00
}


skinparam cloud {
	BackgroundColor #484848-black
	BorderColor #484848
	FontColor #D8Bc00
}


skinparam database {
		FontColor #C8Ac00
	BorderColor #333333
	BackgroundColor #333333-#333333
	BackgroundColor  #333333
}


skinparam class {
		FontColor #C8Ac00
	BorderColor #333333
	BackgroundColor #333333-#333333
	HeaderBackgroundColor #1b1b1a
    BackgroundColor #282828
    BorderColor #5e5e5e
 	StereotypeFontColor #a0a0a0
    StereotypeFontStyle bold
	BorderThickness 1
	AttributeFontColor #D8Bc00
	AttributeFontSize 11
    FontColor #D8Bc00
    FontStyle bold
}


skinparam object {
		FontColor #C8Ac00
	BorderColor #333333
	BackgroundColor #333333-#333333
	StereotypeFontColor #484848
	BorderThickness 1
	AttributeFontColor #fefefe
	AttributeFontSize 11
}


skinparam usecase {
		FontColor #C8Ac00
	BorderColor #333333
	BackgroundColor #333333-#333333
	BorderThickness 2
	StereotypeFontColor #303030
}


skinparam rectangle {
		FontColor #C8Ac00
	BorderColor #333333
	BackgroundColor #333333-#333333
	BackgroundColor #333333
	BorderThickness 2
	StereotypeFontColor #303030
}


skinparam package {
		FontColor #C8Ac00
	BorderColor #333333
	BackgroundColor #333333-#333333
	BackgroundColor #333333
	BorderThickness 2
}


skinparam folder {
	BackgroundColor #6d6d6d
  	BorderColor #ff8000
	FontColor #ff8000
	BorderThickness 2
}


skinparam frame {
	BackgroundColor #6d6d6d
  	BorderColor #0060a8
	FontColor #0060a8
	BorderThickness 2
}


skinparam state {
		FontColor #C8Ac00
	BorderColor #333333
	BackgroundColor #333333-#333333
	StartColor #0060a8
	EndColor #0060a8
	AttributeFontColor #fefefe
	AttributeFontSize 11
}


skinparam queue {
		FontColor #C8Ac00
	BorderColor #333333
	BackgroundColor #333333-#333333
}


skinparam card {
	BackgroundColor #0060a8
	BorderColor #004d86
	FontColor $INFO_TEXT
}


skinparam file {
	BackgroundColor #6d6d6d-#484848
	BorderColor #0060a8
	FontColor #fefefe
}


skinparam stack {
		FontColor #C8Ac00
	BorderColor #333333
	BackgroundColor #333333-#333333
}

    
    title "com.telenav.aonia.map.data.formats.pbf.processing.filters.osm"
    
    WayFilter <|- - OsmExcludeNonDrivableWaysFilter
    class OsmExcludeNonDrivableWaysFilter
    {
        - -(constructors)- -
        +OsmExcludeNonDrivableWaysFilter()
    }
    
    WayFilter <|- - OsmMajorRoadsWayFilter
    class OsmMajorRoadsWayFilter
    {
        - -(constructors)- -
        +OsmMajorRoadsWayFilter()
    }
    
    WayFilter <|- - OsmNavigableWayFilter
    class OsmNavigableWayFilter
    {
        - -(constructors)- -
        +OsmNavigableWayFilter()
    }
    
    RelationFilter <|- - OsmRelationsFilter
    class OsmRelationsFilter
    {
        - -(constructors)- -
        +OsmRelationsFilter()
    }
    
    WayFilter <|- - OsmWaysFilter
    class OsmWaysFilter
    {
        - -(constructors)- -
        +OsmWaysFilter()
    }
    
@enduml

PlantUML version 1.2021.01(Tue Feb 02 00:55:08 MST 2021)
(GPL source distribution)
Java Runtime: Java(TM) SE Runtime Environment
JVM: Java HotSpot(TM) 64-Bit Server VM
Default Encoding: UTF-8
Language: en
Country: US
--></g></svg>