<?xml version="1.0" encoding="UTF-8" standalone="no"?><svg xmlns="http://www.w3.org/2000/svg" xmlns:xlink="http://www.w3.org/1999/xlink" contentScriptType="application/ecmascript" contentStyleType="text/css" height="543.75px" preserveAspectRatio="none" style="width:1516px;height:543px;background:#333333;" version="1.1" viewBox="0 0 1516 543" width="1516.6667px" zoomAndPan="magnify"><defs/><g><rect fill="#48494B" height="41.2028" rx="8.3333" ry="8.3333" style="stroke:#545454;stroke-width:1.0416666666666667;" width="606.25" x="447.9167" y="2.0833"/><text fill="#C0C0C0" font-family="Open Sans,Avenir,Nunito,Arial,Helvetica,SansSerif" font-size="20.8333" lengthAdjust="spacing" textLength="583.3333" x="459.375" y="30.5583">com.telenav.aonia.map.data.formats.pbf.processing.filters</text><!--MD5=[6423c3f1e37843656d23cab5419cddf1]
cluster WayFilter--><polygon fill="#333333" points="1034.375,277.6611,1106.25,277.6611,1113.5417,304.8828,1245.8333,304.8828,1245.8333,434.9528,1034.375,434.9528,1034.375,277.6611" style="stroke:#333333;stroke-width:2.0833333333333335;"/><line style="stroke:#333333;stroke-width:2.0833333333333335;" x1="1034.375" x2="1113.5417" y1="304.8828" y2="304.8828"/><text fill="#C8AC00" font-family="Open Sans,Avenir,Nunito,Arial,Helvetica,SansSerif" font-size="12.5" font-weight="bold" lengthAdjust="spacing" textLength="59.375" x="1041.6667" y="294.9544">WayFilter</text><!--MD5=[e64c9c85728e360d5256b54460f007bf]
cluster RelationFilter--><polygon fill="#333333" points="1287.5,277.6611,1386.4583,277.6611,1393.75,304.8828,1498.9583,304.8828,1498.9583,434.9528,1287.5,434.9528,1287.5,277.6611" style="stroke:#333333;stroke-width:2.0833333333333335;"/><line style="stroke:#333333;stroke-width:2.0833333333333335;" x1="1287.5" x2="1393.75" y1="304.8828" y2="304.8828"/><text fill="#C8AC00" font-family="Open Sans,Avenir,Nunito,Arial,Helvetica,SansSerif" font-size="12.5" font-weight="bold" lengthAdjust="spacing" textLength="86.4583" x="1294.7917" y="294.9544">RelationFilter</text><!--MD5=[21b314638a99ae827b6584821d38e8c6]
class WayFilter.Converter--><rect codeLine="11" fill="#282828" height="83.3781" id="WayFilter.Converter" rx="8.3333" ry="8.3333" style="stroke:#5E5E5E;stroke-width:1.0416666666666667;" width="141.6667" x="1079.1667" y="326.6195"/><rect fill="#1B1B1A" height="31.3883" rx="8.3333" ry="8.3333" style="stroke:#1B1B1A;stroke-width:1.0416666666666667;" width="141.6667" x="1079.1667" y="326.6195"/><rect fill="#1B1B1A" height="8.3333" style="stroke:#1B1B1A;stroke-width:1.0416666666666667;" width="141.6667" x="1079.1667" y="349.6745"/><rect codeLine="11" fill="none" height="83.3781" id="WayFilter.Converter" rx="8.3333" ry="8.3333" style="stroke:#5E5E5E;stroke-width:1.0416666666666667;" width="141.6667" x="1079.1667" y="326.6195"/><ellipse cx="1112.0313" cy="342.3136" fill="#0066CF" rx="10.4167" ry="10.4167" style="stroke:#0086EF;stroke-width:1.0416666666666667;"/><path d="M1113.9417,346.7387 Q1113.5144,346.9584 1113.0444,347.0683 Q1112.5745,347.1781 1112.0557,347.1781 Q1110.2124,347.1781 1109.2419,345.9635 Q1108.2715,344.7489 1108.2715,342.454 Q1108.2715,340.153 1109.2419,338.9384 Q1110.2124,337.7238 1112.0557,337.7238 Q1112.5745,337.7238 1113.0505,337.8337 Q1113.5266,337.9435 1113.9417,338.1632 L1113.9417,340.1652 Q1113.4778,339.738 1113.0414,339.5396 Q1112.605,339.3412 1112.1411,339.3412 Q1111.1523,339.3412 1110.6488,340.1255 Q1110.1453,340.9098 1110.1453,342.454 Q1110.1453,343.9921 1110.6488,344.7764 Q1111.1523,345.5607 1112.1411,345.5607 Q1112.605,345.5607 1113.0414,345.3623 Q1113.4778,345.164 1113.9417,344.7367 Z " fill="#000000"/><text fill="#D8BC00" font-family="Open Sans,Avenir,Nunito,Arial,Helvetica,SansSerif" font-size="12.5" font-weight="bold" lengthAdjust="spacing" textLength="63.5417" x="1132.7604" y="347.0378">Converter</text><line style="stroke:#5E5E5E;stroke-width:1.5625;" x1="1080.2083" x2="1219.7917" y1="358.0078" y2="358.0078"/><ellipse cx="1090.625" cy="393.3777" fill="#84BE84" rx="3.125" ry="3.125" style="stroke:#038048;stroke-width:1.0416666666666667;"/><text fill="#D8BC00" font-family="Open Sans,Avenir,Nunito,Arial,Helvetica,SansSerif" font-size="11.4583" lengthAdjust="spacing" textLength="109.375" x="1102.0833" y="400.2889">Converter(Listener)</text><line style="stroke:#5E5E5E;stroke-width:1.0416666666666667;" x1="1080.2083" x2="1106.25" y1="376.2136" y2="376.2136"/><text fill="#D8BC00" font-family="Open Sans,Avenir,Nunito,Arial,Helvetica,SansSerif" font-size="11.4583" lengthAdjust="spacing" textLength="81.25" x="1109.375" y="380.0232">(constructors)</text><line style="stroke:#5E5E5E;stroke-width:1.0416666666666667;" x1="1193.75" x2="1219.7917" y1="376.2136" y2="376.2136"/><!--MD5=[93c7dd6bde709a0cfbe316a644875032]
class RelationFilter.Converter--><rect codeLine="18" fill="#282828" height="83.3781" id="RelationFilter.Converter" rx="8.3333" ry="8.3333" style="stroke:#5E5E5E;stroke-width:1.0416666666666667;" width="141.6667" x="1332.2917" y="326.6195"/><rect fill="#1B1B1A" height="31.3883" rx="8.3333" ry="8.3333" style="stroke:#1B1B1A;stroke-width:1.0416666666666667;" width="141.6667" x="1332.2917" y="326.6195"/><rect fill="#1B1B1A" height="8.3333" style="stroke:#1B1B1A;stroke-width:1.0416666666666667;" width="141.6667" x="1332.2917" y="349.6745"/><rect codeLine="18" fill="none" height="83.3781" id="RelationFilter.Converter" rx="8.3333" ry="8.3333" style="stroke:#5E5E5E;stroke-width:1.0416666666666667;" width="141.6667" x="1332.2917" y="326.6195"/><ellipse cx="1365.1563" cy="342.3136" fill="#0066CF" rx="10.4167" ry="10.4167" style="stroke:#0086EF;stroke-width:1.0416666666666667;"/><path d="M1367.0667,346.7387 Q1366.6394,346.9584 1366.1694,347.0683 Q1365.6995,347.1781 1365.1807,347.1781 Q1363.3374,347.1781 1362.3669,345.9635 Q1361.3965,344.7489 1361.3965,342.454 Q1361.3965,340.153 1362.3669,338.9384 Q1363.3374,337.7238 1365.1807,337.7238 Q1365.6995,337.7238 1366.1755,337.8337 Q1366.6516,337.9435 1367.0667,338.1632 L1367.0667,340.1652 Q1366.6028,339.738 1366.1664,339.5396 Q1365.73,339.3412 1365.2661,339.3412 Q1364.2773,339.3412 1363.7738,340.1255 Q1363.2703,340.9098 1363.2703,342.454 Q1363.2703,343.9921 1363.7738,344.7764 Q1364.2773,345.5607 1365.2661,345.5607 Q1365.73,345.5607 1366.1664,345.3623 Q1366.6028,345.164 1367.0667,344.7367 Z " fill="#000000"/><text fill="#D8BC00" font-family="Open Sans,Avenir,Nunito,Arial,Helvetica,SansSerif" font-size="12.5" font-weight="bold" lengthAdjust="spacing" textLength="63.5417" x="1385.8854" y="347.0378">Converter</text><line style="stroke:#5E5E5E;stroke-width:1.5625;" x1="1333.3333" x2="1472.9167" y1="358.0078" y2="358.0078"/><ellipse cx="1343.75" cy="393.3777" fill="#84BE84" rx="3.125" ry="3.125" style="stroke:#038048;stroke-width:1.0416666666666667;"/><text fill="#D8BC00" font-family="Open Sans,Avenir,Nunito,Arial,Helvetica,SansSerif" font-size="11.4583" lengthAdjust="spacing" textLength="109.375" x="1355.2083" y="400.2889">Converter(Listener)</text><line style="stroke:#5E5E5E;stroke-width:1.0416666666666667;" x1="1333.3333" x2="1359.375" y1="376.2136" y2="376.2136"/><text fill="#D8BC00" font-family="Open Sans,Avenir,Nunito,Arial,Helvetica,SansSerif" font-size="11.4583" lengthAdjust="spacing" textLength="81.25" x="1362.5" y="380.0232">(constructors)</text><line style="stroke:#5E5E5E;stroke-width:1.0416666666666667;" x1="1446.875" x2="1472.9167" y1="376.2136" y2="376.2136"/><!--MD5=[9aa687ed59f428548907e723dba1087a]
class BaseStringConverter--><rect codeLine="6" fill="#282828" height="48.055" id="BaseStringConverter" rx="8.3333" ry="8.3333" style="stroke:#5E5E5E;stroke-width:1.0416666666666667;" width="169.7917" x="1191.1458" y="71.4111"/><rect fill="#1B1B1A" height="31.3883" rx="8.3333" ry="8.3333" style="stroke:#1B1B1A;stroke-width:1.0416666666666667;" width="169.7917" x="1191.1458" y="71.4111"/><rect fill="#1B1B1A" height="8.3333" style="stroke:#1B1B1A;stroke-width:1.0416666666666667;" width="169.7917" x="1191.1458" y="94.4661"/><rect codeLine="6" fill="none" height="48.055" id="BaseStringConverter" rx="8.3333" ry="8.3333" style="stroke:#5E5E5E;stroke-width:1.0416666666666667;" width="169.7917" x="1191.1458" y="71.4111"/><ellipse cx="1205.7292" cy="87.1053" fill="#C8AC00" rx="10.4167" ry="10.4167" style="stroke:#D8BC00;stroke-width:1.0416666666666667;"/><path d="M1205.8431,83.8074 L1204.9947,87.5366 L1206.6976,87.5366 Z M1204.7445,82.1594 L1206.9478,82.1594 L1209.4076,91.272 L1207.607,91.272 L1207.0455,89.0198 L1204.6346,89.0198 L1204.0853,91.272 L1202.2847,91.272 Z " fill="#000000"/><text fill="#D8BC00" font-family="Open Sans,Avenir,Nunito,Arial,Helvetica,SansSerif" font-size="12.5" font-style="italic" font-weight="bold" lengthAdjust="spacing" textLength="132.2917" x="1222.3958" y="91.8294">BaseStringConverter</text><line style="stroke:#5E5E5E;stroke-width:1.0416666666666667;" x1="1192.1875" x2="1359.8958" y1="102.7995" y2="102.7995"/><line style="stroke:#5E5E5E;stroke-width:1.0416666666666667;" x1="1192.1875" x2="1359.8958" y1="111.1328" y2="111.1328"/><!--MD5=[bddb511951cf0a1d6a79f67b0c2ed87d]
class Filter--><rect codeLine="8" fill="#282828" height="48.055" id="Filter" rx="8.3333" ry="8.3333" style="stroke:#5E5E5E;stroke-width:1.0416666666666667;" width="70.8333" x="540.625" y="71.4111"/><rect fill="#1B1B1A" height="31.3883" rx="8.3333" ry="8.3333" style="stroke:#1B1B1A;stroke-width:1.0416666666666667;" width="70.8333" x="540.625" y="71.4111"/><rect fill="#1B1B1A" height="8.3333" style="stroke:#1B1B1A;stroke-width:1.0416666666666667;" width="70.8333" x="540.625" y="94.4661"/><rect codeLine="8" fill="none" height="48.055" id="Filter" rx="8.3333" ry="8.3333" style="stroke:#5E5E5E;stroke-width:1.0416666666666667;" width="70.8333" x="540.625" y="71.4111"/><ellipse cx="555.2083" cy="87.1053" fill="#008400" rx="10.4167" ry="10.4167" style="stroke:#239C23;stroke-width:1.0416666666666667;"/><path d="M552.0915,84.2672 L552.0915,82.6803 L557.5175,82.6803 L557.5175,84.2672 L555.7048,84.2672 L555.7048,90.2059 L557.5175,90.2059 L557.5175,91.7928 L552.0915,91.7928 L552.0915,90.2059 L553.9042,90.2059 L553.9042,84.2672 Z " fill="#000000"/><text fill="#D8BC00" font-family="Open Sans,Avenir,Nunito,Arial,Helvetica,SansSerif" font-size="12.5" font-style="italic" font-weight="bold" lengthAdjust="spacing" textLength="33.3333" x="571.875" y="91.8294">Filter</text><line style="stroke:#5E5E5E;stroke-width:1.0416666666666667;" x1="541.6667" x2="610.4167" y1="102.7995" y2="102.7995"/><line style="stroke:#5E5E5E;stroke-width:1.0416666666666667;" x1="541.6667" x2="610.4167" y1="111.1328" y2="111.1328"/><!--MD5=[561ebc70b2072dd0a14c2cc7141612e4]
class PbfFilters--><rect codeLine="24" fill="#282828" height="83.3781" id="PbfFilters" rx="8.3333" ry="8.3333" style="stroke:#5E5E5E;stroke-width:1.0416666666666667;" width="106.25" x="300" y="53.7028"/><rect fill="#1B1B1A" height="31.3883" rx="8.3333" ry="8.3333" style="stroke:#1B1B1A;stroke-width:1.0416666666666667;" width="106.25" x="300" y="53.7028"/><rect fill="#1B1B1A" height="8.3333" style="stroke:#1B1B1A;stroke-width:1.0416666666666667;" width="106.25" x="300" y="76.7578"/><rect codeLine="24" fill="none" height="83.3781" id="PbfFilters" rx="8.3333" ry="8.3333" style="stroke:#5E5E5E;stroke-width:1.0416666666666667;" width="106.25" x="300" y="53.7028"/><ellipse cx="317.8646" cy="69.397" fill="#0066CF" rx="10.4167" ry="10.4167" style="stroke:#0086EF;stroke-width:1.0416666666666667;"/><path d="M319.775,73.822 Q319.3477,74.0417 318.8778,74.1516 Q318.4078,74.2615 317.889,74.2615 Q316.0457,74.2615 315.0753,73.0469 Q314.1048,71.8323 314.1048,69.5374 Q314.1048,67.2363 315.0753,66.0217 Q316.0457,64.8071 317.889,64.8071 Q318.4078,64.8071 318.8839,64.917 Q319.3599,65.0269 319.775,65.2466 L319.775,67.2485 Q319.3111,66.8213 318.8747,66.6229 Q318.4383,66.4246 317.9744,66.4246 Q316.9857,66.4246 316.4821,67.2089 Q315.9786,67.9932 315.9786,69.5374 Q315.9786,71.0754 316.4821,71.8597 Q316.9857,72.644 317.9744,72.644 Q318.4383,72.644 318.8747,72.4457 Q319.3111,72.2473 319.775,71.8201 Z " fill="#000000"/><text fill="#D8BC00" font-family="Open Sans,Avenir,Nunito,Arial,Helvetica,SansSerif" font-size="12.5" font-weight="bold" lengthAdjust="spacing" textLength="61.4583" x="335.2604" y="74.1211">PbfFilters</text><line style="stroke:#5E5E5E;stroke-width:1.5625;" x1="301.0417" x2="405.2083" y1="85.0911" y2="85.0911"/><ellipse cx="311.4583" cy="120.461" fill="#84BE84" rx="3.125" ry="3.125" style="stroke:#038048;stroke-width:1.0416666666666667;"/><text fill="#D8BC00" font-family="Open Sans,Avenir,Nunito,Arial,Helvetica,SansSerif" font-size="11.4583" lengthAdjust="spacing" textLength="73.9583" x="322.9167" y="127.3722">void loadAll()</text><line style="stroke:#5E5E5E;stroke-width:1.0416666666666667;" x1="301.0417" x2="333.3333" y1="103.2969" y2="103.2969"/><text fill="#D8BC00" font-family="Open Sans,Avenir,Nunito,Arial,Helvetica,SansSerif" font-size="11.4583" lengthAdjust="spacing" textLength="33.3333" x="336.4583" y="107.1065">(read)</text><line style="stroke:#5E5E5E;stroke-width:1.0416666666666667;" x1="372.9167" x2="405.2083" y1="103.2969" y2="103.2969"/><!--MD5=[7641309704a2ba86945d63525f0a850a]
class RelationFilter--><rect codeLine="31" fill="#282828" height="297.4935" id="RelationFilter" rx="8.3333" ry="8.3333" style="stroke:#5E5E5E;stroke-width:1.0416666666666667;" width="491.6667" x="9.375" y="219.3278"/><rect fill="#1B1B1A" height="31.3883" rx="8.3333" ry="8.3333" style="stroke:#1B1B1A;stroke-width:1.0416666666666667;" width="491.6667" x="9.375" y="219.3278"/><rect fill="#1B1B1A" height="8.3333" style="stroke:#1B1B1A;stroke-width:1.0416666666666667;" width="491.6667" x="9.375" y="242.3828"/><rect codeLine="31" fill="none" height="297.4935" id="RelationFilter" rx="8.3333" ry="8.3333" style="stroke:#5E5E5E;stroke-width:1.0416666666666667;" width="491.6667" x="9.375" y="219.3278"/><ellipse cx="204.6875" cy="235.022" fill="#0066CF" rx="10.4167" ry="10.4167" style="stroke:#0086EF;stroke-width:1.0416666666666667;"/><path d="M206.5979,239.447 Q206.1707,239.6667 205.7007,239.7766 Q205.2307,239.8865 204.7119,239.8865 Q202.8687,239.8865 201.8982,238.6719 Q200.9277,237.4573 200.9277,235.1624 Q200.9277,232.8613 201.8982,231.6467 Q202.8687,230.4321 204.7119,230.4321 Q205.2307,230.4321 205.7068,230.542 Q206.1829,230.6519 206.5979,230.8716 L206.5979,232.8735 Q206.134,232.4463 205.6976,232.2479 Q205.2612,232.0496 204.7974,232.0496 Q203.8086,232.0496 203.3051,232.8339 Q202.8015,233.6182 202.8015,235.1624 Q202.8015,236.7004 203.3051,237.4847 Q203.8086,238.269 204.7974,238.269 Q205.2612,238.269 205.6976,238.0707 Q206.134,237.8723 206.5979,237.4451 Z " fill="#000000"/><text fill="#D8BC00" font-family="Open Sans,Avenir,Nunito,Arial,Helvetica,SansSerif" font-size="12.5" font-weight="bold" lengthAdjust="spacing" textLength="86.4583" x="227.6042" y="239.7461">RelationFilter</text><line style="stroke:#5E5E5E;stroke-width:1.5625;" x1="10.4167" x2="500" y1="250.7161" y2="250.7161"/><ellipse cx="20.8333" cy="286.086" fill="#84BE84" rx="3.125" ry="3.125" style="stroke:#038048;stroke-width:1.0416666666666667;"/><text fill="#D8BC00" font-family="Open Sans,Avenir,Nunito,Arial,Helvetica,SansSerif" font-size="11.4583" lengthAdjust="spacing" textLength="154.1667" x="32.2917" y="292.9972">RelationFilter(String, String)</text><line style="stroke:#5E5E5E;stroke-width:1.0416666666666667;" x1="10.4167" x2="211.4583" y1="268.9219" y2="268.9219"/><text fill="#D8BC00" font-family="Open Sans,Avenir,Nunito,Arial,Helvetica,SansSerif" font-size="11.4583" lengthAdjust="spacing" textLength="81.25" x="214.5833" y="272.7315">(constructors)</text><line style="stroke:#5E5E5E;stroke-width:1.0416666666666667;" x1="298.9583" x2="500" y1="268.9219" y2="268.9219"/><line style="stroke:#5E5E5E;stroke-width:1.0416666666666667;" x1="10.4167" x2="500" y1="302.7059" y2="302.7059"/><ellipse cx="20.8333" cy="314.1642" fill="#84BE84" rx="3.125" ry="3.125" style="stroke:#038048;stroke-width:1.0416666666666667;"/><text fill="#D8BC00" font-family="Open Sans,Avenir,Nunito,Arial,Helvetica,SansSerif" font-size="11.4583" lengthAdjust="spacing" textLength="108.3333" x="32.2917" y="321.0754">String description()</text><ellipse cx="20.8333" cy="357.8206" fill="#84BE84" rx="3.125" ry="3.125" style="stroke:#038048;stroke-width:1.0416666666666667;"/><text fill="#D8BC00" font-family="Open Sans,Avenir,Nunito,Arial,Helvetica,SansSerif" font-size="11.4583" lengthAdjust="spacing" textLength="459.375" x="32.2917" y="364.7319">SwitchParser.Builder&lt;RelationFilter&gt; switchParser(String name, String description)</text><line style="stroke:#5E5E5E;stroke-width:1.0416666666666667;" x1="10.4167" x2="185.9375" y1="340.6565" y2="340.6565"/><text fill="#D8BC00" font-family="Open Sans,Avenir,Nunito,Arial,Helvetica,SansSerif" font-size="11.4583" lengthAdjust="spacing" textLength="132.2917" x="189.0625" y="344.4661">(command line parsing)</text><line style="stroke:#5E5E5E;stroke-width:1.0416666666666667;" x1="324.4792" x2="500" y1="340.6565" y2="340.6565"/><ellipse cx="20.8333" cy="401.4771" fill="#84BE84" rx="3.125" ry="3.125" style="stroke:#038048;stroke-width:1.0416666666666667;"/><text fill="#D8BC00" font-family="Open Sans,Avenir,Nunito,Arial,Helvetica,SansSerif" font-size="11.4583" lengthAdjust="spacing" textLength="139.5833" x="32.2917" y="408.3883">void exclude(String type)</text><ellipse cx="20.8333" cy="421.2219" fill="#84BE84" rx="3.125" ry="3.125" style="stroke:#038048;stroke-width:1.0416666666666667;"/><text fill="#D8BC00" font-family="Open Sans,Avenir,Nunito,Arial,Helvetica,SansSerif" font-size="11.4583" lengthAdjust="spacing" textLength="198.9583" x="32.2917" y="428.1331">RelationFilter forName(String name)</text><ellipse cx="20.8333" cy="440.9668" fill="#84BE84" rx="3.125" ry="3.125" style="stroke:#038048;stroke-width:1.0416666666666667;"/><text fill="#D8BC00" font-family="Open Sans,Avenir,Nunito,Arial,Helvetica,SansSerif" font-size="11.4583" lengthAdjust="spacing" textLength="136.4583" x="32.2917" y="447.878">void include(String type)</text><ellipse cx="20.8333" cy="460.7117" fill="#84BE84" rx="3.125" ry="3.125" style="stroke:#038048;stroke-width:1.0416666666666667;"/><text fill="#D8BC00" font-family="Open Sans,Avenir,Nunito,Arial,Helvetica,SansSerif" font-size="11.4583" lengthAdjust="spacing" textLength="286.4583" x="32.2917" y="467.6229">SwitchParser.Builder&lt;RelationFilter&gt; relationFilter()</text><polygon fill="#FFFF44" points="20.8333,475.2482,25,479.4149,20.8333,483.5815,16.6667,479.4149" style="stroke:#B38D22;stroke-width:1.0416666666666667;"/><text fill="#D8BC00" font-family="Open Sans,Avenir,Nunito,Arial,Helvetica,SansSerif" font-size="11.4583" lengthAdjust="spacing" textLength="179.1667" x="32.2917" y="487.3678">boolean isExcluded(PbfRelation)</text><polygon fill="#FFFF44" points="20.8333,494.9931,25,499.1597,20.8333,503.3264,16.6667,499.1597" style="stroke:#B38D22;stroke-width:1.0416666666666667;"/><text fill="#D8BC00" font-family="Open Sans,Avenir,Nunito,Arial,Helvetica,SansSerif" font-size="11.4583" lengthAdjust="spacing" textLength="176.0417" x="32.2917" y="507.1126">boolean isIncluded(PbfRelation)</text><line style="stroke:#5E5E5E;stroke-width:1.0416666666666667;" x1="10.4167" x2="226.0417" y1="384.3129" y2="384.3129"/><text fill="#D8BC00" font-family="Open Sans,Avenir,Nunito,Arial,Helvetica,SansSerif" font-size="11.4583" lengthAdjust="spacing" textLength="52.0833" x="229.1667" y="388.1226">(filtering)</text><line style="stroke:#5E5E5E;stroke-width:1.0416666666666667;" x1="284.375" x2="500" y1="384.3129" y2="384.3129"/><!--MD5=[296971189912b7d7a3ae0a5bad58974f]
class WayFilter--><rect codeLine="49" fill="#282828" height="336.9832" id="WayFilter" rx="8.3333" ry="8.3333" style="stroke:#5E5E5E;stroke-width:1.0416666666666667;" width="468.75" x="537.5" y="199.5361"/><rect fill="#1B1B1A" height="31.3883" rx="8.3333" ry="8.3333" style="stroke:#1B1B1A;stroke-width:1.0416666666666667;" width="468.75" x="537.5" y="199.5361"/><rect fill="#1B1B1A" height="8.3333" style="stroke:#1B1B1A;stroke-width:1.0416666666666667;" width="468.75" x="537.5" y="222.5911"/><rect codeLine="49" fill="none" height="336.9832" id="WayFilter" rx="8.3333" ry="8.3333" style="stroke:#5E5E5E;stroke-width:1.0416666666666667;" width="468.75" x="537.5" y="199.5361"/><ellipse cx="734.8958" cy="215.2303" fill="#0066CF" rx="10.4167" ry="10.4167" style="stroke:#0086EF;stroke-width:1.0416666666666667;"/><path d="M736.8062,219.6554 Q736.379,219.8751 735.909,219.9849 Q735.439,220.0948 734.9202,220.0948 Q733.077,220.0948 732.1065,218.8802 Q731.1361,217.6656 731.1361,215.3707 Q731.1361,213.0697 732.1065,211.8551 Q733.077,210.6405 734.9202,210.6405 Q735.439,210.6405 735.9151,210.7503 Q736.3912,210.8602 736.8062,211.0799 L736.8062,213.0819 Q736.3424,212.6546 735.906,212.4563 Q735.4696,212.2579 735.0057,212.2579 Q734.0169,212.2579 733.5134,213.0422 Q733.0098,213.8265 733.0098,215.3707 Q733.0098,216.9088 733.5134,217.6931 Q734.0169,218.4774 735.0057,218.4774 Q735.4696,218.4774 735.906,218.279 Q736.3424,218.0806 736.8062,217.6534 Z " fill="#000000"/><text fill="#D8BC00" font-family="Open Sans,Avenir,Nunito,Arial,Helvetica,SansSerif" font-size="12.5" font-weight="bold" lengthAdjust="spacing" textLength="59.375" x="757.8125" y="219.9544">WayFilter</text><line style="stroke:#5E5E5E;stroke-width:1.5625;" x1="538.5417" x2="1005.2083" y1="230.9245" y2="230.9245"/><ellipse cx="548.9583" cy="266.2944" fill="#84BE84" rx="3.125" ry="3.125" style="stroke:#038048;stroke-width:1.0416666666666667;"/><text fill="#D8BC00" font-family="Open Sans,Avenir,Nunito,Arial,Helvetica,SansSerif" font-size="11.4583" lengthAdjust="spacing" textLength="131.25" x="560.4167" y="273.2056">WayFilter(String, String)</text><line style="stroke:#5E5E5E;stroke-width:1.0416666666666667;" x1="538.5417" x2="728.125" y1="249.1302" y2="249.1302"/><text fill="#D8BC00" font-family="Open Sans,Avenir,Nunito,Arial,Helvetica,SansSerif" font-size="11.4583" lengthAdjust="spacing" textLength="81.25" x="731.25" y="252.9399">(constructors)</text><line style="stroke:#5E5E5E;stroke-width:1.0416666666666667;" x1="815.625" x2="1005.2083" y1="249.1302" y2="249.1302"/><line style="stroke:#5E5E5E;stroke-width:1.0416666666666667;" x1="538.5417" x2="1005.2083" y1="282.9142" y2="282.9142"/><ellipse cx="548.9583" cy="294.3726" fill="#84BE84" rx="3.125" ry="3.125" style="stroke:#038048;stroke-width:1.0416666666666667;"/><text fill="#D8BC00" font-family="Open Sans,Avenir,Nunito,Arial,Helvetica,SansSerif" font-size="11.4583" lengthAdjust="spacing" textLength="108.3333" x="560.4167" y="301.2838">String description()</text><ellipse cx="548.9583" cy="338.029" fill="#84BE84" rx="3.125" ry="3.125" style="stroke:#038048;stroke-width:1.0416666666666667;"/><text fill="#D8BC00" font-family="Open Sans,Avenir,Nunito,Arial,Helvetica,SansSerif" font-size="11.4583" lengthAdjust="spacing" textLength="436.4583" x="560.4167" y="344.9402">SwitchParser.Builder&lt;WayFilter&gt; switchParser(String name, String description)</text><line style="stroke:#5E5E5E;stroke-width:1.0416666666666667;" x1="538.5417" x2="702.6042" y1="320.8649" y2="320.8649"/><text fill="#D8BC00" font-family="Open Sans,Avenir,Nunito,Arial,Helvetica,SansSerif" font-size="11.4583" lengthAdjust="spacing" textLength="132.2917" x="705.7292" y="324.6745">(command line parsing)</text><line style="stroke:#5E5E5E;stroke-width:1.0416666666666667;" x1="841.1458" x2="1005.2083" y1="320.8649" y2="320.8649"/><ellipse cx="548.9583" cy="381.6854" fill="#84BE84" rx="3.125" ry="3.125" style="stroke:#038048;stroke-width:1.0416666666666667;"/><text fill="#D8BC00" font-family="Open Sans,Avenir,Nunito,Arial,Helvetica,SansSerif" font-size="11.4583" lengthAdjust="spacing" textLength="161.4583" x="560.4167" y="388.5966">void exclude(String highway)</text><ellipse cx="548.9583" cy="401.4303" fill="#84BE84" rx="3.125" ry="3.125" style="stroke:#038048;stroke-width:1.0416666666666667;"/><text fill="#D8BC00" font-family="Open Sans,Avenir,Nunito,Arial,Helvetica,SansSerif" font-size="11.4583" lengthAdjust="spacing" textLength="230.2083" x="560.4167" y="408.3415">WayFilter exclude(String name, Resource)</text><ellipse cx="548.9583" cy="421.1751" fill="#84BE84" rx="3.125" ry="3.125" style="stroke:#038048;stroke-width:1.0416666666666667;"/><text fill="#D8BC00" font-family="Open Sans,Avenir,Nunito,Arial,Helvetica,SansSerif" font-size="11.4583" lengthAdjust="spacing" textLength="176.0417" x="560.4167" y="428.0863">WayFilter forName(String name)</text><ellipse cx="548.9583" cy="440.92" fill="#84BE84" rx="3.125" ry="3.125" style="stroke:#038048;stroke-width:1.0416666666666667;"/><text fill="#D8BC00" font-family="Open Sans,Avenir,Nunito,Arial,Helvetica,SansSerif" font-size="11.4583" lengthAdjust="spacing" textLength="158.3333" x="560.4167" y="447.8312">void include(String highway)</text><ellipse cx="548.9583" cy="460.6649" fill="#84BE84" rx="3.125" ry="3.125" style="stroke:#038048;stroke-width:1.0416666666666667;"/><text fill="#D8BC00" font-family="Open Sans,Avenir,Nunito,Arial,Helvetica,SansSerif" font-size="11.4583" lengthAdjust="spacing" textLength="227.0833" x="560.4167" y="467.5761">WayFilter include(String name, Resource)</text><ellipse cx="548.9583" cy="480.4097" fill="#84BE84" rx="3.125" ry="3.125" style="stroke:#038048;stroke-width:1.0416666666666667;"/><text fill="#D8BC00" font-family="Open Sans,Avenir,Nunito,Arial,Helvetica,SansSerif" font-size="11.4583" lengthAdjust="spacing" textLength="241.6667" x="560.4167" y="487.321">SwitchParser.Builder&lt;WayFilter&gt; wayFilter()</text><polygon fill="#FFFF44" points="548.9583,494.9463,553.125,499.113,548.9583,503.2796,544.7917,499.113" style="stroke:#B38D22;stroke-width:1.0416666666666667;"/><text fill="#D8BC00" font-family="Open Sans,Avenir,Nunito,Arial,Helvetica,SansSerif" font-size="11.4583" lengthAdjust="spacing" textLength="156.25" x="560.4167" y="507.0658">boolean isExcluded(PbfWay)</text><polygon fill="#FFFF44" points="548.9583,514.6912,553.125,518.8578,548.9583,523.0245,544.7917,518.8578" style="stroke:#B38D22;stroke-width:1.0416666666666667;"/><text fill="#D8BC00" font-family="Open Sans,Avenir,Nunito,Arial,Helvetica,SansSerif" font-size="11.4583" lengthAdjust="spacing" textLength="153.125" x="560.4167" y="526.8107">boolean isIncluded(PbfWay)</text><line style="stroke:#5E5E5E;stroke-width:1.0416666666666667;" x1="538.5417" x2="742.7083" y1="364.5213" y2="364.5213"/><text fill="#D8BC00" font-family="Open Sans,Avenir,Nunito,Arial,Helvetica,SansSerif" font-size="11.4583" lengthAdjust="spacing" textLength="52.0833" x="745.8333" y="368.3309">(filtering)</text><line style="stroke:#5E5E5E;stroke-width:1.0416666666666667;" x1="801.0417" x2="1005.2083" y1="364.5213" y2="364.5213"/><!--MD5=[c5e944213a916c628c2bd882b48237bb]
reverse link BaseStringConverter to WayFilter.Converter--><path codeLine="10" d="M1256.4375,138.5257 C1232.5938,189.7757 1192.5938,275.734 1169.0104,326.4007 " fill="none" id="BaseStringConverter-backto-WayFilter.Converter" style="stroke:#545454;stroke-width:1.5625;"/><polygon fill="none" points="1249.8958,135.3174,1265.2917,119.5049,1263.1146,141.4632,1249.8958,135.3174" style="stroke:#545454;stroke-width:1.5625;"/><!--MD5=[677ab24af6555f3e6f297a7bd94af3be]
reverse link BaseStringConverter to RelationFilter.Converter--><path codeLine="17" d="M1297.6875,138.1611 C1307.2292,156.8382 1318.4375,179.182 1328.125,199.5361 C1348.5417,242.4528 1370.6042,292.2236 1385.4688,326.3278 " fill="none" id="BaseStringConverter-backto-RelationFilter.Converter" style="stroke:#545454;stroke-width:1.5625;"/><polygon fill="none" points="1291.1875,141.4632,1288.1458,119.5986,1304.1563,134.7965,1291.1875,141.4632" style="stroke:#545454;stroke-width:1.5625;"/><!--MD5=[73da9da996070630eb6b6fd449d7c510]
reverse link Filter to RelationFilter--><path codeLine="30" d="M532.75,132.9528 C505.625,155.859 468.6667,187.0465 430.5833,219.2028 " fill="none" id="Filter-backto-RelationFilter" style="stroke:#545454;stroke-width:1.5625;"/><polygon fill="none" points="528.0625,127.3695,548.6875,119.5049,537.4688,138.5153,528.0625,127.3695" style="stroke:#545454;stroke-width:1.5625;"/><!--MD5=[c7d9157f88d96bc441895237d54429f6]
reverse link Filter to WayFilter--><path codeLine="48" d="M604.9792,136.432 C617.6979,154.0153 633.5729,175.9736 650.4375,199.2965 " fill="none" id="Filter-backto-WayFilter" style="stroke:#545454;stroke-width:1.5625;"/><polygon fill="none" points="599.0417,140.6611,592.7396,119.5049,610.8542,132.109,599.0417,140.6611" style="stroke:#545454;stroke-width:1.5625;"/><!--MD5=[fcd21813acf84b65176eb1a040e62a07]
link PbfFilters to RelationFilter--><!--MD5=[200ca501ab8f1387838b38ac23ac9ec8]
link PbfFilters to WayFilter--><!--MD5=[1d31cc90f2a8cf465ba1bdd0a73853c3]
@startuml

    !include ../lexakai/lexakai.theme
    
    title "com.telenav.aonia.map.data.formats.pbf.processing.filters"
    
    abstract BaseStringConverter
    
    interface Filter
    
    BaseStringConverter <|- - WayFilter.Converter
    class WayFilter.Converter
    {
        - -(constructors)- -
        +Converter(Listener)
    }
    
    BaseStringConverter <|- - RelationFilter.Converter
    class RelationFilter.Converter
    {
        - -(constructors)- -
        +Converter(Listener)
    }
    
    class PbfFilters
    {
        - -(read)- -
        +void loadAll()
    }
    
    Filter <|- - RelationFilter
    class RelationFilter
    {
        - -(constructors)- -
        +RelationFilter(String, String)
        - -
        +String description()
        - -(command line parsing)- -
        +SwitchParser.Builder<RelationFilter> switchParser(String name, String description)
        - -(filtering)- -
        +void exclude(String type)
        +RelationFilter forName(String name)
        +void include(String type)
        +SwitchParser.Builder<RelationFilter> relationFilter()
        #boolean isExcluded(PbfRelation)
        #boolean isIncluded(PbfRelation)
    }
    
    Filter <|- - WayFilter
    class WayFilter
    {
        - -(constructors)- -
        +WayFilter(String, String)
        - -
        +String description()
        - -(command line parsing)- -
        +SwitchParser.Builder<WayFilter> switchParser(String name, String description)
        - -(filtering)- -
        +void exclude(String highway)
        +WayFilter exclude(String name, Resource)
        +WayFilter forName(String name)
        +void include(String highway)
        +WayFilter include(String name, Resource)
        +SwitchParser.Builder<WayFilter> wayFilter()
        #boolean isExcluded(PbfWay)
        #boolean isIncluded(PbfWay)
    }
    
@enduml

@startuml









skinparam backgroundColor #333333






skinparam  {
    defaultFontName   "Open Sans,Avenir,Nunito,Arial,Helvetica,SansSerif"
    defaultFontSize   12
    defaultTextAlignment left
    shadowing false
    RoundCorner 10
    TitleFontSize 18
}

skinparam defaultFontName       "Open Sans,Avenir,Nunito,Arial,Helvetica,SansSerif"
skinparam defaultFontSize       12
skinparam dpi                   100
skinparam shadowing             false
skinparam roundcorner           16
skinparam ParticipantPadding    40
skinparam BoxPadding            40
skinparam Padding               3
skinparam ArrowColor            #545454
skinparam stereotype {
    CBackgroundColor #0066cf
    CBorderColor #0086ef
    ABackgroundColor #C8Ac00
    ABorderColor #D8Bc00
    IBackgroundColor #008400
    IBorderColor #239c23
    EBackgroundColor #cf6300
    EBorderColor #ef8300
    NBackgroundColor #3380b9
    NBorderColor #004d86
}
skinparam title {
	FontColor	                 #c0c0c0
 	BorderColor                  #545454
	FontSize	    	         20
	BorderRoundCorner            16
	BorderThickness 	         1
	BackgroundColor              #48494b
}


skinparam legend {
	BackgroundColor #303030
	BorderColor #404040
	FontColor #a0a0a0
}

	skinparam swimlane {
	BorderColor #5e5e5e
	BorderThickness 2
	TitleBackgroundColor  #6d6d6d-#484848
	TitleFontColor #303030
}

skinparam activity {
		FontColor #C8Ac00
	BorderColor #333333
	BackgroundColor #333333-#333333
	BarColor #00FF00
	StartColor #0060a8
	EndColor #0060a8
	DiamondBackgroundColor #6d6d6d-#3a3a3a
  	DiamondBorderColor #3a3a3a
  	DiamondFontColor #fefefe
}


skinparam participant {
		FontColor #C8Ac00
	BorderColor #333333
	BackgroundColor #333333-#333333
	ParticipantBorderThickness 2
}


skinparam actor {
		FontColor #C8Ac00
	BorderColor #333333
	BackgroundColor #333333-#333333
}


skinparam arrow {
	Thickness 1.5
	Color #545454
	FontColor #a0a0a0
    FontStyle bold
    MessageAlignment center
}



skinparam sequence {
	BorderColor #303030
	TitleFontColor #303030
	BackgroundColor #333333
	StartColor #303030
	EndColor #303030
	BoxBackgroundColor #333333
	BoxBorderColor #484848
	BoxFontColor #484848
	LifeLineBorderColor #484848
	LifeLineBorderThickness 2
	LifeLineBackgroundColor #3a3a3a
	GroupBorderColor #484848
	GroupFontColor #484848
	GroupHeaderFontColor #0060a8
	GroupBackgroundColor #484848
	GroupHeaderBackgroundColor #333333
	DividerBackgroundColor #484848
    DividerBorderColor #484848
    DividerBorderThickness 2
    DividerFontColor #D8Bc00
	ReferenceBackgroundColor #333333
	ReferenceBorderColor #484848
	ReferenceFontColor #fefefe
	ReferenceHeaderBackgroundColor #484848
}


skinparam partition {
	BorderColor #303030
	FontColor #333333
	BackgroundColor #333333
}


skinparam collections {
		FontColor #C8Ac00
	BorderColor #333333
	BackgroundColor #333333-#333333
}


skinparam control {
		FontColor #C8Ac00
	BorderColor #333333
	BackgroundColor #333333-#333333
}


skinparam entity {
		FontColor #C8Ac00
	BorderColor #333333
	BackgroundColor #333333-#333333
}


skinparam boundary {
		FontColor #C8Ac00
	BorderColor #333333
	BackgroundColor #333333-#333333
}


skinparam agent {
	BackgroundColor #ff8000
	BorderColor #ff9933
	FontColor #484848
}


skinparam note {
	BorderThickness 1
	BackgroundColor #1b1b1a
	BorderColor #5e5e5e
	FontSize 11
	FontColor #a0a0a0
}


skinparam artifact {
	BorderThickness 10
	BorderColor #5e5e5e
	BackgroundColor #1b1b1a
	FontColor #D8Bc00
}


skinparam component {
		FontColor #C8Ac00
	BorderColor #333333
	BackgroundColor #333333-#333333
}


skinparam interface {
	BackgroundColor  #008400
	BorderColor  #007F00
	FontColor #484848
}


skinparam storage {
	BackgroundColor #ff8000
  	BorderColor #cc6600
	FontColor #222222
}


skinparam node {
	BackgroundColor #333333
	BorderColor #333333
	FontColor #C8Ac00
}


skinparam cloud {
	BackgroundColor #484848-black
	BorderColor #484848
	FontColor #D8Bc00
}


skinparam database {
		FontColor #C8Ac00
	BorderColor #333333
	BackgroundColor #333333-#333333
	BackgroundColor  #333333
}


skinparam class {
		FontColor #C8Ac00
	BorderColor #333333
	BackgroundColor #333333-#333333
	HeaderBackgroundColor #1b1b1a
    BackgroundColor #282828
    BorderColor #5e5e5e
 	StereotypeFontColor #a0a0a0
    StereotypeFontStyle bold
	BorderThickness 1
	AttributeFontColor #D8Bc00
	AttributeFontSize 11
    FontColor #D8Bc00
    FontStyle bold
}


skinparam object {
		FontColor #C8Ac00
	BorderColor #333333
	BackgroundColor #333333-#333333
	StereotypeFontColor #484848
	BorderThickness 1
	AttributeFontColor #fefefe
	AttributeFontSize 11
}


skinparam usecase {
		FontColor #C8Ac00
	BorderColor #333333
	BackgroundColor #333333-#333333
	BorderThickness 2
	StereotypeFontColor #303030
}


skinparam rectangle {
		FontColor #C8Ac00
	BorderColor #333333
	BackgroundColor #333333-#333333
	BackgroundColor #333333
	BorderThickness 2
	StereotypeFontColor #303030
}


skinparam package {
		FontColor #C8Ac00
	BorderColor #333333
	BackgroundColor #333333-#333333
	BackgroundColor #333333
	BorderThickness 2
}


skinparam folder {
	BackgroundColor #6d6d6d
  	BorderColor #ff8000
	FontColor #ff8000
	BorderThickness 2
}


skinparam frame {
	BackgroundColor #6d6d6d
  	BorderColor #0060a8
	FontColor #0060a8
	BorderThickness 2
}


skinparam state {
		FontColor #C8Ac00
	BorderColor #333333
	BackgroundColor #333333-#333333
	StartColor #0060a8
	EndColor #0060a8
	AttributeFontColor #fefefe
	AttributeFontSize 11
}


skinparam queue {
		FontColor #C8Ac00
	BorderColor #333333
	BackgroundColor #333333-#333333
}


skinparam card {
	BackgroundColor #0060a8
	BorderColor #004d86
	FontColor $INFO_TEXT
}


skinparam file {
	BackgroundColor #6d6d6d-#484848
	BorderColor #0060a8
	FontColor #fefefe
}


skinparam stack {
		FontColor #C8Ac00
	BorderColor #333333
	BackgroundColor #333333-#333333
}

    
    title "com.telenav.aonia.map.data.formats.pbf.processing.filters"
    
    abstract BaseStringConverter
    
    interface Filter
    
    BaseStringConverter <|- - WayFilter.Converter
    class WayFilter.Converter
    {
        - -(constructors)- -
        +Converter(Listener)
    }
    
    BaseStringConverter <|- - RelationFilter.Converter
    class RelationFilter.Converter
    {
        - -(constructors)- -
        +Converter(Listener)
    }
    
    class PbfFilters
    {
        - -(read)- -
        +void loadAll()
    }
    
    Filter <|- - RelationFilter
    class RelationFilter
    {
        - -(constructors)- -
        +RelationFilter(String, String)
        - -
        +String description()
        - -(command line parsing)- -
        +SwitchParser.Builder<RelationFilter> switchParser(String name, String description)
        - -(filtering)- -
        +void exclude(String type)
        +RelationFilter forName(String name)
        +void include(String type)
        +SwitchParser.Builder<RelationFilter> relationFilter()
        #boolean isExcluded(PbfRelation)
        #boolean isIncluded(PbfRelation)
    }
    
    Filter <|- - WayFilter
    class WayFilter
    {
        - -(constructors)- -
        +WayFilter(String, String)
        - -
        +String description()
        - -(command line parsing)- -
        +SwitchParser.Builder<WayFilter> switchParser(String name, String description)
        - -(filtering)- -
        +void exclude(String highway)
        +WayFilter exclude(String name, Resource)
        +WayFilter forName(String name)
        +void include(String highway)
        +WayFilter include(String name, Resource)
        +SwitchParser.Builder<WayFilter> wayFilter()
        #boolean isExcluded(PbfWay)
        #boolean isIncluded(PbfWay)
    }
    
@enduml

PlantUML version 1.2021.01(Tue Feb 02 00:55:08 MST 2021)
(GPL source distribution)
Java Runtime: Java(TM) SE Runtime Environment
JVM: Java HotSpot(TM) 64-Bit Server VM
Default Encoding: UTF-8
Language: en
Country: US
--></g></svg>