<?xml version="1.0" encoding="UTF-8" standalone="no"?><svg xmlns="http://www.w3.org/2000/svg" xmlns:xlink="http://www.w3.org/1999/xlink" contentScriptType="application/ecmascript" contentStyleType="text/css" height="254.1667px" preserveAspectRatio="none" style="width:780px;height:254px;background:#333333;" version="1.1" viewBox="0 0 780 254" width="780.2083px" zoomAndPan="magnify"><defs/><g><rect fill="#48494B" height="41.2028" rx="8.3333" ry="8.3333" style="stroke:#545454;stroke-width:1.0416666666666667;" width="597.9167" x="83.8542" y="2.0833"/><text fill="#C0C0C0" font-family="Open Sans,Avenir,Nunito,Arial,Helvetica,SansSerif" font-size="20.8333" lengthAdjust="spacing" textLength="575" x="95.3125" y="30.5583">com.telenav.aonia.map.data.formats.pbf.model.metadata</text><!--MD5=[75430099834887034d36f3efdb02bb45]
class Identifier--><rect fill="#282828" height="48.055" id="Identifier" rx="8.3333" ry="8.3333" style="stroke:#5E5E5E;stroke-width:1.0416666666666667;" width="96.875" x="55.2083" y="53.7028"/><rect fill="#1B1B1A" height="31.3883" rx="8.3333" ry="8.3333" style="stroke:#1B1B1A;stroke-width:1.0416666666666667;" width="96.875" x="55.2083" y="53.7028"/><rect fill="#1B1B1A" height="8.3333" style="stroke:#1B1B1A;stroke-width:1.0416666666666667;" width="96.875" x="55.2083" y="76.7578"/><rect fill="none" height="48.055" id="Identifier" rx="8.3333" ry="8.3333" style="stroke:#5E5E5E;stroke-width:1.0416666666666667;" width="96.875" x="55.2083" y="53.7028"/><ellipse cx="69.7917" cy="69.397" fill="#0066CF" rx="10.4167" ry="10.4167" style="stroke:#0086EF;stroke-width:1.0416666666666667;"/><path d="M71.7021,73.822 Q71.2748,74.0417 70.8049,74.1516 Q70.3349,74.2615 69.8161,74.2615 Q67.9728,74.2615 67.0024,73.0469 Q66.0319,71.8323 66.0319,69.5374 Q66.0319,67.2363 67.0024,66.0217 Q67.9728,64.8071 69.8161,64.8071 Q70.3349,64.8071 70.811,64.917 Q71.287,65.0269 71.7021,65.2466 L71.7021,67.2485 Q71.2382,66.8213 70.8018,66.6229 Q70.3654,66.4246 69.9015,66.4246 Q68.9128,66.4246 68.4092,67.2089 Q67.9057,67.9932 67.9057,69.5374 Q67.9057,71.0754 68.4092,71.8597 Q68.9128,72.644 69.9015,72.644 Q70.3654,72.644 70.8018,72.4457 Q71.2382,72.2473 71.7021,71.8201 Z " fill="#000000"/><text fill="#D8BC00" font-family="Open Sans,Avenir,Nunito,Arial,Helvetica,SansSerif" font-size="12.5" font-weight="bold" lengthAdjust="spacing" textLength="59.375" x="86.4583" y="74.1211">Identifier</text><line style="stroke:#5E5E5E;stroke-width:1.0416666666666667;" x1="56.25" x2="151.0417" y1="85.0911" y2="85.0911"/><line style="stroke:#5E5E5E;stroke-width:1.0416666666666667;" x1="56.25" x2="151.0417" y1="93.4245" y2="93.4245"/><!--MD5=[a6e9650058b45b348eac23c839aec16b]
class PbfChangeSetIdentifier--><rect codeLine="7" fill="#282828" height="83.3781" id="PbfChangeSetIdentifier" rx="8.3333" ry="8.3333" style="stroke:#5E5E5E;stroke-width:1.0416666666666667;" width="192.7083" x="7.2917" y="164.1195"/><rect fill="#1B1B1A" height="31.3883" rx="8.3333" ry="8.3333" style="stroke:#1B1B1A;stroke-width:1.0416666666666667;" width="192.7083" x="7.2917" y="164.1195"/><rect fill="#1B1B1A" height="8.3333" style="stroke:#1B1B1A;stroke-width:1.0416666666666667;" width="192.7083" x="7.2917" y="187.1745"/><rect codeLine="7" fill="none" height="83.3781" id="PbfChangeSetIdentifier" rx="8.3333" ry="8.3333" style="stroke:#5E5E5E;stroke-width:1.0416666666666667;" width="192.7083" x="7.2917" y="164.1195"/><ellipse cx="24.6875" cy="179.8136" fill="#0066CF" rx="10.4167" ry="10.4167" style="stroke:#0086EF;stroke-width:1.0416666666666667;"/><path d="M26.5979,184.2387 Q26.1707,184.4584 25.7007,184.5683 Q25.2307,184.6781 24.7119,184.6781 Q22.8687,184.6781 21.8982,183.4635 Q20.9277,182.2489 20.9277,179.954 Q20.9277,177.653 21.8982,176.4384 Q22.8687,175.2238 24.7119,175.2238 Q25.2307,175.2238 25.7068,175.3337 Q26.1829,175.4435 26.5979,175.6632 L26.5979,177.6652 Q26.134,177.238 25.6976,177.0396 Q25.2612,176.8412 24.7974,176.8412 Q23.8086,176.8412 23.3051,177.6255 Q22.8015,178.4098 22.8015,179.954 Q22.8015,181.4921 23.3051,182.2764 Q23.8086,183.0607 24.7974,183.0607 Q25.2612,183.0607 25.6976,182.8623 Q26.134,182.664 26.5979,182.2367 Z " fill="#000000"/><text fill="#D8BC00" font-family="Open Sans,Avenir,Nunito,Arial,Helvetica,SansSerif" font-size="12.5" font-weight="bold" lengthAdjust="spacing" textLength="148.9583" x="41.9792" y="184.5378">PbfChangeSetIdentifier</text><line style="stroke:#5E5E5E;stroke-width:1.5625;" x1="8.3333" x2="198.9583" y1="195.5078" y2="195.5078"/><ellipse cx="18.75" cy="230.8777" fill="#84BE84" rx="3.125" ry="3.125" style="stroke:#038048;stroke-width:1.0416666666666667;"/><text fill="#D8BC00" font-family="Open Sans,Avenir,Nunito,Arial,Helvetica,SansSerif" font-size="11.4583" lengthAdjust="spacing" textLength="160.4167" x="30.2083" y="237.7889">PbfChangeSetIdentifier(long)</text><line style="stroke:#5E5E5E;stroke-width:1.0416666666666667;" x1="8.3333" x2="59.8958" y1="213.7136" y2="213.7136"/><text fill="#D8BC00" font-family="Open Sans,Avenir,Nunito,Arial,Helvetica,SansSerif" font-size="11.4583" lengthAdjust="spacing" textLength="81.25" x="63.0208" y="217.5232">(constructors)</text><line style="stroke:#5E5E5E;stroke-width:1.0416666666666667;" x1="147.3958" x2="198.9583" y1="213.7136" y2="213.7136"/><!--MD5=[de605c8cdd3c99c6d2babc07caee519c]
class IntegerIdentifier--><rect fill="#282828" height="48.055" id="IntegerIdentifier" rx="8.3333" ry="8.3333" style="stroke:#5E5E5E;stroke-width:1.0416666666666667;" width="142.7083" x="344.7917" y="53.7028"/><rect fill="#1B1B1A" height="31.3883" rx="8.3333" ry="8.3333" style="stroke:#1B1B1A;stroke-width:1.0416666666666667;" width="142.7083" x="344.7917" y="53.7028"/><rect fill="#1B1B1A" height="8.3333" style="stroke:#1B1B1A;stroke-width:1.0416666666666667;" width="142.7083" x="344.7917" y="76.7578"/><rect fill="none" height="48.055" id="IntegerIdentifier" rx="8.3333" ry="8.3333" style="stroke:#5E5E5E;stroke-width:1.0416666666666667;" width="142.7083" x="344.7917" y="53.7028"/><ellipse cx="359.375" cy="69.397" fill="#0066CF" rx="10.4167" ry="10.4167" style="stroke:#0086EF;stroke-width:1.0416666666666667;"/><path d="M361.2854,73.822 Q360.8582,74.0417 360.3882,74.1516 Q359.9182,74.2615 359.3994,74.2615 Q357.5562,74.2615 356.5857,73.0469 Q355.6152,71.8323 355.6152,69.5374 Q355.6152,67.2363 356.5857,66.0217 Q357.5562,64.8071 359.3994,64.8071 Q359.9182,64.8071 360.3943,64.917 Q360.8704,65.0269 361.2854,65.2466 L361.2854,67.2485 Q360.8215,66.8213 360.3851,66.6229 Q359.9487,66.4246 359.4849,66.4246 Q358.4961,66.4246 357.9926,67.2089 Q357.489,67.9932 357.489,69.5374 Q357.489,71.0754 357.9926,71.8597 Q358.4961,72.644 359.4849,72.644 Q359.9487,72.644 360.3851,72.4457 Q360.8215,72.2473 361.2854,71.8201 Z " fill="#000000"/><text fill="#D8BC00" font-family="Open Sans,Avenir,Nunito,Arial,Helvetica,SansSerif" font-size="12.5" font-weight="bold" lengthAdjust="spacing" textLength="105.2083" x="376.0417" y="74.1211">IntegerIdentifier</text><line style="stroke:#5E5E5E;stroke-width:1.0416666666666667;" x1="345.8333" x2="486.4583" y1="85.0911" y2="85.0911"/><line style="stroke:#5E5E5E;stroke-width:1.0416666666666667;" x1="345.8333" x2="486.4583" y1="93.4245" y2="93.4245"/><!--MD5=[f1f8a0196a5dd280263b8972d7ad777a]
class PbfRevisionNumber--><rect codeLine="14" fill="#282828" height="83.3781" id="PbfRevisionNumber" rx="8.3333" ry="8.3333" style="stroke:#5E5E5E;stroke-width:1.0416666666666667;" width="164.5833" x="236.9792" y="164.1195"/><rect fill="#1B1B1A" height="31.3883" rx="8.3333" ry="8.3333" style="stroke:#1B1B1A;stroke-width:1.0416666666666667;" width="164.5833" x="236.9792" y="164.1195"/><rect fill="#1B1B1A" height="8.3333" style="stroke:#1B1B1A;stroke-width:1.0416666666666667;" width="164.5833" x="236.9792" y="187.1745"/><rect codeLine="14" fill="none" height="83.3781" id="PbfRevisionNumber" rx="8.3333" ry="8.3333" style="stroke:#5E5E5E;stroke-width:1.0416666666666667;" width="164.5833" x="236.9792" y="164.1195"/><ellipse cx="251.5625" cy="179.8136" fill="#0066CF" rx="10.4167" ry="10.4167" style="stroke:#0086EF;stroke-width:1.0416666666666667;"/><path d="M253.4729,184.2387 Q253.0457,184.4584 252.5757,184.5683 Q252.1057,184.6781 251.5869,184.6781 Q249.7437,184.6781 248.7732,183.4635 Q247.8027,182.2489 247.8027,179.954 Q247.8027,177.653 248.7732,176.4384 Q249.7437,175.2238 251.5869,175.2238 Q252.1057,175.2238 252.5818,175.3337 Q253.0579,175.4435 253.4729,175.6632 L253.4729,177.6652 Q253.009,177.238 252.5726,177.0396 Q252.1362,176.8412 251.6724,176.8412 Q250.6836,176.8412 250.1801,177.6255 Q249.6765,178.4098 249.6765,179.954 Q249.6765,181.4921 250.1801,182.2764 Q250.6836,183.0607 251.6724,183.0607 Q252.1362,183.0607 252.5726,182.8623 Q253.009,182.664 253.4729,182.2367 Z " fill="#000000"/><text fill="#D8BC00" font-family="Open Sans,Avenir,Nunito,Arial,Helvetica,SansSerif" font-size="12.5" font-weight="bold" lengthAdjust="spacing" textLength="127.0833" x="268.2292" y="184.5378">PbfRevisionNumber</text><line style="stroke:#5E5E5E;stroke-width:1.5625;" x1="238.0208" x2="400.5208" y1="195.5078" y2="195.5078"/><ellipse cx="248.4375" cy="230.8777" fill="#84BE84" rx="3.125" ry="3.125" style="stroke:#038048;stroke-width:1.0416666666666667;"/><text fill="#D8BC00" font-family="Open Sans,Avenir,Nunito,Arial,Helvetica,SansSerif" font-size="11.4583" lengthAdjust="spacing" textLength="132.2917" x="259.8958" y="237.7889">PbfRevisionNumber(int)</text><line style="stroke:#5E5E5E;stroke-width:1.0416666666666667;" x1="238.0208" x2="275.5208" y1="213.7136" y2="213.7136"/><text fill="#D8BC00" font-family="Open Sans,Avenir,Nunito,Arial,Helvetica,SansSerif" font-size="11.4583" lengthAdjust="spacing" textLength="81.25" x="278.6458" y="217.5232">(constructors)</text><line style="stroke:#5E5E5E;stroke-width:1.0416666666666667;" x1="363.0208" x2="400.5208" y1="213.7136" y2="213.7136"/><!--MD5=[eff527df98e2ac734fa9a334b86f0479]
class PbfUserIdentifier--><rect codeLine="21" fill="#282828" height="83.3781" id="PbfUserIdentifier" rx="8.3333" ry="8.3333" style="stroke:#5E5E5E;stroke-width:1.0416666666666667;" width="148.9583" x="438.5417" y="164.1195"/><rect fill="#1B1B1A" height="31.3883" rx="8.3333" ry="8.3333" style="stroke:#1B1B1A;stroke-width:1.0416666666666667;" width="148.9583" x="438.5417" y="164.1195"/><rect fill="#1B1B1A" height="8.3333" style="stroke:#1B1B1A;stroke-width:1.0416666666666667;" width="148.9583" x="438.5417" y="187.1745"/><rect codeLine="21" fill="none" height="83.3781" id="PbfUserIdentifier" rx="8.3333" ry="8.3333" style="stroke:#5E5E5E;stroke-width:1.0416666666666667;" width="148.9583" x="438.5417" y="164.1195"/><ellipse cx="454.0625" cy="179.8136" fill="#0066CF" rx="10.4167" ry="10.4167" style="stroke:#0086EF;stroke-width:1.0416666666666667;"/><path d="M455.9729,184.2387 Q455.5457,184.4584 455.0757,184.5683 Q454.6057,184.6781 454.0869,184.6781 Q452.2437,184.6781 451.2732,183.4635 Q450.3027,182.2489 450.3027,179.954 Q450.3027,177.653 451.2732,176.4384 Q452.2437,175.2238 454.0869,175.2238 Q454.6057,175.2238 455.0818,175.3337 Q455.5579,175.4435 455.9729,175.6632 L455.9729,177.6652 Q455.509,177.238 455.0726,177.0396 Q454.6362,176.8412 454.1724,176.8412 Q453.1836,176.8412 452.6801,177.6255 Q452.1765,178.4098 452.1765,179.954 Q452.1765,181.4921 452.6801,182.2764 Q453.1836,183.0607 454.1724,183.0607 Q454.6362,183.0607 455.0726,182.8623 Q455.509,182.664 455.9729,182.2367 Z " fill="#000000"/><text fill="#D8BC00" font-family="Open Sans,Avenir,Nunito,Arial,Helvetica,SansSerif" font-size="12.5" font-weight="bold" lengthAdjust="spacing" textLength="109.375" x="470.9375" y="184.5378">PbfUserIdentifier</text><line style="stroke:#5E5E5E;stroke-width:1.5625;" x1="439.5833" x2="586.4583" y1="195.5078" y2="195.5078"/><ellipse cx="450" cy="230.8777" fill="#84BE84" rx="3.125" ry="3.125" style="stroke:#038048;stroke-width:1.0416666666666667;"/><text fill="#D8BC00" font-family="Open Sans,Avenir,Nunito,Arial,Helvetica,SansSerif" font-size="11.4583" lengthAdjust="spacing" textLength="116.6667" x="461.4583" y="237.7889">PbfUserIdentifier(int)</text><line style="stroke:#5E5E5E;stroke-width:1.0416666666666667;" x1="439.5833" x2="469.2708" y1="213.7136" y2="213.7136"/><text fill="#D8BC00" font-family="Open Sans,Avenir,Nunito,Arial,Helvetica,SansSerif" font-size="11.4583" lengthAdjust="spacing" textLength="81.25" x="472.3958" y="217.5232">(constructors)</text><line style="stroke:#5E5E5E;stroke-width:1.0416666666666667;" x1="556.7708" x2="586.4583" y1="213.7136" y2="213.7136"/><!--MD5=[53f6a92bd21ca2f2960392a061f3a1c6]
class Name--><rect fill="#282828" height="48.055" id="Name" rx="8.3333" ry="8.3333" style="stroke:#5E5E5E;stroke-width:1.0416666666666667;" width="73.9583" x="661.4583" y="53.7028"/><rect fill="#1B1B1A" height="31.3883" rx="8.3333" ry="8.3333" style="stroke:#1B1B1A;stroke-width:1.0416666666666667;" width="73.9583" x="661.4583" y="53.7028"/><rect fill="#1B1B1A" height="8.3333" style="stroke:#1B1B1A;stroke-width:1.0416666666666667;" width="73.9583" x="661.4583" y="76.7578"/><rect fill="none" height="48.055" id="Name" rx="8.3333" ry="8.3333" style="stroke:#5E5E5E;stroke-width:1.0416666666666667;" width="73.9583" x="661.4583" y="53.7028"/><ellipse cx="676.0417" cy="69.397" fill="#0066CF" rx="10.4167" ry="10.4167" style="stroke:#0086EF;stroke-width:1.0416666666666667;"/><path d="M677.9521,73.822 Q677.5248,74.0417 677.0549,74.1516 Q676.5849,74.2615 676.0661,74.2615 Q674.2228,74.2615 673.2524,73.0469 Q672.2819,71.8323 672.2819,69.5374 Q672.2819,67.2363 673.2524,66.0217 Q674.2228,64.8071 676.0661,64.8071 Q676.5849,64.8071 677.061,64.917 Q677.537,65.0269 677.9521,65.2466 L677.9521,67.2485 Q677.4882,66.8213 677.0518,66.6229 Q676.6154,66.4246 676.1515,66.4246 Q675.1628,66.4246 674.6592,67.2089 Q674.1557,67.9932 674.1557,69.5374 Q674.1557,71.0754 674.6592,71.8597 Q675.1628,72.644 676.1515,72.644 Q676.6154,72.644 677.0518,72.4457 Q677.4882,72.2473 677.9521,71.8201 Z " fill="#000000"/><text fill="#D8BC00" font-family="Open Sans,Avenir,Nunito,Arial,Helvetica,SansSerif" font-size="12.5" font-weight="bold" lengthAdjust="spacing" textLength="36.4583" x="692.7083" y="74.1211">Name</text><line style="stroke:#5E5E5E;stroke-width:1.0416666666666667;" x1="662.5" x2="734.375" y1="85.0911" y2="85.0911"/><line style="stroke:#5E5E5E;stroke-width:1.0416666666666667;" x1="662.5" x2="734.375" y1="93.4245" y2="93.4245"/><!--MD5=[c5013e864a7fd7bece48e0caeed61a2b]
class PbfUserName--><rect codeLine="28" fill="#282828" height="83.3781" id="PbfUserName" rx="8.3333" ry="8.3333" style="stroke:#5E5E5E;stroke-width:1.0416666666666667;" width="148.9583" x="623.9583" y="164.1195"/><rect fill="#1B1B1A" height="31.3883" rx="8.3333" ry="8.3333" style="stroke:#1B1B1A;stroke-width:1.0416666666666667;" width="148.9583" x="623.9583" y="164.1195"/><rect fill="#1B1B1A" height="8.3333" style="stroke:#1B1B1A;stroke-width:1.0416666666666667;" width="148.9583" x="623.9583" y="187.1745"/><rect codeLine="28" fill="none" height="83.3781" id="PbfUserName" rx="8.3333" ry="8.3333" style="stroke:#5E5E5E;stroke-width:1.0416666666666667;" width="148.9583" x="623.9583" y="164.1195"/><ellipse cx="649.7917" cy="179.8136" fill="#0066CF" rx="10.4167" ry="10.4167" style="stroke:#0086EF;stroke-width:1.0416666666666667;"/><path d="M651.7021,184.2387 Q651.2748,184.4584 650.8049,184.5683 Q650.3349,184.6781 649.8161,184.6781 Q647.9728,184.6781 647.0024,183.4635 Q646.0319,182.2489 646.0319,179.954 Q646.0319,177.653 647.0024,176.4384 Q647.9728,175.2238 649.8161,175.2238 Q650.3349,175.2238 650.811,175.3337 Q651.287,175.4435 651.7021,175.6632 L651.7021,177.6652 Q651.2382,177.238 650.8018,177.0396 Q650.3654,176.8412 649.9015,176.8412 Q648.9128,176.8412 648.4092,177.6255 Q647.9057,178.4098 647.9057,179.954 Q647.9057,181.4921 648.4092,182.2764 Q648.9128,183.0607 649.9015,183.0607 Q650.3654,183.0607 650.8018,182.8623 Q651.2382,182.664 651.7021,182.2367 Z " fill="#000000"/><text fill="#D8BC00" font-family="Open Sans,Avenir,Nunito,Arial,Helvetica,SansSerif" font-size="12.5" font-weight="bold" lengthAdjust="spacing" textLength="86.4583" x="668.9583" y="184.5378">PbfUserName</text><line style="stroke:#5E5E5E;stroke-width:1.5625;" x1="625" x2="771.875" y1="195.5078" y2="195.5078"/><ellipse cx="635.4167" cy="230.8777" fill="#84BE84" rx="3.125" ry="3.125" style="stroke:#038048;stroke-width:1.0416666666666667;"/><text fill="#D8BC00" font-family="Open Sans,Avenir,Nunito,Arial,Helvetica,SansSerif" font-size="11.4583" lengthAdjust="spacing" textLength="116.6667" x="646.875" y="237.7889">PbfUserName(String)</text><line style="stroke:#5E5E5E;stroke-width:1.0416666666666667;" x1="625" x2="654.6875" y1="213.7136" y2="213.7136"/><text fill="#D8BC00" font-family="Open Sans,Avenir,Nunito,Arial,Helvetica,SansSerif" font-size="11.4583" lengthAdjust="spacing" textLength="81.25" x="657.8125" y="217.5232">(constructors)</text><line style="stroke:#5E5E5E;stroke-width:1.0416666666666667;" x1="742.1875" x2="771.875" y1="213.7136" y2="213.7136"/><!--MD5=[54c1c95ff05496c7928e597fb3c247f0]
reverse link Identifier to PbfChangeSetIdentifier--><path codeLine="6" d="M103.6458,122.682 C103.6458,136.0778 103.6458,150.7445 103.6458,163.9215 " fill="none" id="Identifier-backto-PbfChangeSetIdentifier" style="stroke:#545454;stroke-width:1.5625;"/><polygon fill="none" points="96.3542,122.6507,103.6458,101.8174,110.9375,122.6507,96.3542,122.6507" style="stroke:#545454;stroke-width:1.5625;"/><!--MD5=[22e2dc930dc399f149b26bd0785bf151]
reverse link IntegerIdentifier to PbfRevisionNumber--><path codeLine="13" d="M385.3229,118.7965 C374.2604,133.2028 361.7604,149.4528 350.6458,163.9215 " fill="none" id="IntegerIdentifier-backto-PbfRevisionNumber" style="stroke:#545454;stroke-width:1.5625;"/><polygon fill="none" points="379.8958,113.8903,398.375,101.8174,391.4583,122.7861,379.8958,113.8903" style="stroke:#545454;stroke-width:1.5625;"/><!--MD5=[f994b38c9724963d218a162f4f06d803]
reverse link IntegerIdentifier to PbfUserIdentifier--><path codeLine="20" d="M446.9688,118.7965 C458.0313,133.2028 470.5313,149.4528 481.6458,163.9215 " fill="none" id="IntegerIdentifier-backto-PbfUserIdentifier" style="stroke:#545454;stroke-width:1.5625;"/><polygon fill="none" points="440.8333,122.7861,433.9167,101.8174,452.3958,113.8903,440.8333,122.7861" style="stroke:#545454;stroke-width:1.5625;"/><!--MD5=[eadf99605cc1a37648d7c8eff02e3bfa]
reverse link Name to PbfUserName--><path codeLine="27" d="M698.4375,122.682 C698.4375,136.0778 698.4375,150.7445 698.4375,163.9215 " fill="none" id="Name-backto-PbfUserName" style="stroke:#545454;stroke-width:1.5625;"/><polygon fill="none" points="691.1458,122.6507,698.4375,101.8174,705.7292,122.6507,691.1458,122.6507" style="stroke:#545454;stroke-width:1.5625;"/><!--MD5=[7fb8fb14782c973f5138a5915823b843]
@startuml

    !include ../lexakai/lexakai.theme
    
    title "com.telenav.aonia.map.data.formats.pbf.model.metadata"
    
    Identifier <|- - PbfChangeSetIdentifier
    class PbfChangeSetIdentifier
    {
        - -(constructors)- -
        +PbfChangeSetIdentifier(long)
    }
    
    IntegerIdentifier <|- - PbfRevisionNumber
    class PbfRevisionNumber
    {
        - -(constructors)- -
        +PbfRevisionNumber(int)
    }
    
    IntegerIdentifier <|- - PbfUserIdentifier
    class PbfUserIdentifier
    {
        - -(constructors)- -
        +PbfUserIdentifier(int)
    }
    
    Name <|- - PbfUserName
    class PbfUserName
    {
        - -(constructors)- -
        +PbfUserName(String)
    }
    
@enduml

@startuml









skinparam backgroundColor #333333






skinparam  {
    defaultFontName   "Open Sans,Avenir,Nunito,Arial,Helvetica,SansSerif"
    defaultFontSize   12
    defaultTextAlignment left
    shadowing false
    RoundCorner 10
    TitleFontSize 18
}

skinparam defaultFontName       "Open Sans,Avenir,Nunito,Arial,Helvetica,SansSerif"
skinparam defaultFontSize       12
skinparam dpi                   100
skinparam shadowing             false
skinparam roundcorner           16
skinparam ParticipantPadding    40
skinparam BoxPadding            40
skinparam Padding               3
skinparam ArrowColor            #545454
skinparam stereotype {
    CBackgroundColor #0066cf
    CBorderColor #0086ef
    ABackgroundColor #C8Ac00
    ABorderColor #D8Bc00
    IBackgroundColor #008400
    IBorderColor #239c23
    EBackgroundColor #cf6300
    EBorderColor #ef8300
    NBackgroundColor #3380b9
    NBorderColor #004d86
}
skinparam title {
	FontColor	                 #c0c0c0
 	BorderColor                  #545454
	FontSize	    	         20
	BorderRoundCorner            16
	BorderThickness 	         1
	BackgroundColor              #48494b
}


skinparam legend {
	BackgroundColor #303030
	BorderColor #404040
	FontColor #a0a0a0
}

	skinparam swimlane {
	BorderColor #5e5e5e
	BorderThickness 2
	TitleBackgroundColor  #6d6d6d-#484848
	TitleFontColor #303030
}

skinparam activity {
		FontColor #C8Ac00
	BorderColor #333333
	BackgroundColor #333333-#333333
	BarColor #00FF00
	StartColor #0060a8
	EndColor #0060a8
	DiamondBackgroundColor #6d6d6d-#3a3a3a
  	DiamondBorderColor #3a3a3a
  	DiamondFontColor #fefefe
}


skinparam participant {
		FontColor #C8Ac00
	BorderColor #333333
	BackgroundColor #333333-#333333
	ParticipantBorderThickness 2
}


skinparam actor {
		FontColor #C8Ac00
	BorderColor #333333
	BackgroundColor #333333-#333333
}


skinparam arrow {
	Thickness 1.5
	Color #545454
	FontColor #a0a0a0
    FontStyle bold
    MessageAlignment center
}



skinparam sequence {
	BorderColor #303030
	TitleFontColor #303030
	BackgroundColor #333333
	StartColor #303030
	EndColor #303030
	BoxBackgroundColor #333333
	BoxBorderColor #484848
	BoxFontColor #484848
	LifeLineBorderColor #484848
	LifeLineBorderThickness 2
	LifeLineBackgroundColor #3a3a3a
	GroupBorderColor #484848
	GroupFontColor #484848
	GroupHeaderFontColor #0060a8
	GroupBackgroundColor #484848
	GroupHeaderBackgroundColor #333333
	DividerBackgroundColor #484848
    DividerBorderColor #484848
    DividerBorderThickness 2
    DividerFontColor #D8Bc00
	ReferenceBackgroundColor #333333
	ReferenceBorderColor #484848
	ReferenceFontColor #fefefe
	ReferenceHeaderBackgroundColor #484848
}


skinparam partition {
	BorderColor #303030
	FontColor #333333
	BackgroundColor #333333
}


skinparam collections {
		FontColor #C8Ac00
	BorderColor #333333
	BackgroundColor #333333-#333333
}


skinparam control {
		FontColor #C8Ac00
	BorderColor #333333
	BackgroundColor #333333-#333333
}


skinparam entity {
		FontColor #C8Ac00
	BorderColor #333333
	BackgroundColor #333333-#333333
}


skinparam boundary {
		FontColor #C8Ac00
	BorderColor #333333
	BackgroundColor #333333-#333333
}


skinparam agent {
	BackgroundColor #ff8000
	BorderColor #ff9933
	FontColor #484848
}


skinparam note {
	BorderThickness 1
	BackgroundColor #1b1b1a
	BorderColor #5e5e5e
	FontSize 11
	FontColor #a0a0a0
}


skinparam artifact {
	BorderThickness 10
	BorderColor #5e5e5e
	BackgroundColor #1b1b1a
	FontColor #D8Bc00
}


skinparam component {
		FontColor #C8Ac00
	BorderColor #333333
	BackgroundColor #333333-#333333
}


skinparam interface {
	BackgroundColor  #008400
	BorderColor  #007F00
	FontColor #484848
}


skinparam storage {
	BackgroundColor #ff8000
  	BorderColor #cc6600
	FontColor #222222
}


skinparam node {
	BackgroundColor #333333
	BorderColor #333333
	FontColor #C8Ac00
}


skinparam cloud {
	BackgroundColor #484848-black
	BorderColor #484848
	FontColor #D8Bc00
}


skinparam database {
		FontColor #C8Ac00
	BorderColor #333333
	BackgroundColor #333333-#333333
	BackgroundColor  #333333
}


skinparam class {
		FontColor #C8Ac00
	BorderColor #333333
	BackgroundColor #333333-#333333
	HeaderBackgroundColor #1b1b1a
    BackgroundColor #282828
    BorderColor #5e5e5e
 	StereotypeFontColor #a0a0a0
    StereotypeFontStyle bold
	BorderThickness 1
	AttributeFontColor #D8Bc00
	AttributeFontSize 11
    FontColor #D8Bc00
    FontStyle bold
}


skinparam object {
		FontColor #C8Ac00
	BorderColor #333333
	BackgroundColor #333333-#333333
	StereotypeFontColor #484848
	BorderThickness 1
	AttributeFontColor #fefefe
	AttributeFontSize 11
}


skinparam usecase {
		FontColor #C8Ac00
	BorderColor #333333
	BackgroundColor #333333-#333333
	BorderThickness 2
	StereotypeFontColor #303030
}


skinparam rectangle {
		FontColor #C8Ac00
	BorderColor #333333
	BackgroundColor #333333-#333333
	BackgroundColor #333333
	BorderThickness 2
	StereotypeFontColor #303030
}


skinparam package {
		FontColor #C8Ac00
	BorderColor #333333
	BackgroundColor #333333-#333333
	BackgroundColor #333333
	BorderThickness 2
}


skinparam folder {
	BackgroundColor #6d6d6d
  	BorderColor #ff8000
	FontColor #ff8000
	BorderThickness 2
}


skinparam frame {
	BackgroundColor #6d6d6d
  	BorderColor #0060a8
	FontColor #0060a8
	BorderThickness 2
}


skinparam state {
		FontColor #C8Ac00
	BorderColor #333333
	BackgroundColor #333333-#333333
	StartColor #0060a8
	EndColor #0060a8
	AttributeFontColor #fefefe
	AttributeFontSize 11
}


skinparam queue {
		FontColor #C8Ac00
	BorderColor #333333
	BackgroundColor #333333-#333333
}


skinparam card {
	BackgroundColor #0060a8
	BorderColor #004d86
	FontColor $INFO_TEXT
}


skinparam file {
	BackgroundColor #6d6d6d-#484848
	BorderColor #0060a8
	FontColor #fefefe
}


skinparam stack {
		FontColor #C8Ac00
	BorderColor #333333
	BackgroundColor #333333-#333333
}

    
    title "com.telenav.aonia.map.data.formats.pbf.model.metadata"
    
    Identifier <|- - PbfChangeSetIdentifier
    class PbfChangeSetIdentifier
    {
        - -(constructors)- -
        +PbfChangeSetIdentifier(long)
    }
    
    IntegerIdentifier <|- - PbfRevisionNumber
    class PbfRevisionNumber
    {
        - -(constructors)- -
        +PbfRevisionNumber(int)
    }
    
    IntegerIdentifier <|- - PbfUserIdentifier
    class PbfUserIdentifier
    {
        - -(constructors)- -
        +PbfUserIdentifier(int)
    }
    
    Name <|- - PbfUserName
    class PbfUserName
    {
        - -(constructors)- -
        +PbfUserName(String)
    }
    
@enduml

PlantUML version 1.2021.01(Tue Feb 02 00:55:08 MST 2021)
(GPL source distribution)
Java Runtime: Java(TM) SE Runtime Environment
JVM: Java HotSpot(TM) 64-Bit Server VM
Default Encoding: UTF-8
Language: en
Country: US
--></g></svg>