<?xml version="1.0" encoding="UTF-8" standalone="no"?><svg xmlns="http://www.w3.org/2000/svg" xmlns:xlink="http://www.w3.org/1999/xlink" contentScriptType="application/ecmascript" contentStyleType="text/css" height="254.1667px" preserveAspectRatio="none" style="width:648px;height:254px;background:#333333;" version="1.1" viewBox="0 0 648 254" width="648.9583px" zoomAndPan="magnify"><defs/><g><rect fill="#48494B" height="41.2028" rx="8.3333" ry="8.3333" style="stroke:#545454;stroke-width:1.0416666666666667;" width="636.4583" x="2.0833" y="2.0833"/><text fill="#C0C0C0" font-family="Open Sans,Avenir,Nunito,Arial,Helvetica,SansSerif" font-size="20.8333" lengthAdjust="spacing" textLength="613.5417" x="13.5417" y="30.5583">com.telenav.aonia.map.data.formats.pbf.processing.filters.all</text><!--MD5=[7641309704a2ba86945d63525f0a850a]
class RelationFilter--><rect fill="#282828" height="48.055" id="RelationFilter" rx="8.3333" ry="8.3333" style="stroke:#5E5E5E;stroke-width:1.0416666666666667;" width="123.9583" x="186.4583" y="53.7028"/><rect fill="#1B1B1A" height="31.3883" rx="8.3333" ry="8.3333" style="stroke:#1B1B1A;stroke-width:1.0416666666666667;" width="123.9583" x="186.4583" y="53.7028"/><rect fill="#1B1B1A" height="8.3333" style="stroke:#1B1B1A;stroke-width:1.0416666666666667;" width="123.9583" x="186.4583" y="76.7578"/><rect fill="none" height="48.055" id="RelationFilter" rx="8.3333" ry="8.3333" style="stroke:#5E5E5E;stroke-width:1.0416666666666667;" width="123.9583" x="186.4583" y="53.7028"/><ellipse cx="201.0417" cy="69.397" fill="#0066CF" rx="10.4167" ry="10.4167" style="stroke:#0086EF;stroke-width:1.0416666666666667;"/><path d="M202.9521,73.822 Q202.5248,74.0417 202.0549,74.1516 Q201.5849,74.2615 201.0661,74.2615 Q199.2228,74.2615 198.2524,73.0469 Q197.2819,71.8323 197.2819,69.5374 Q197.2819,67.2363 198.2524,66.0217 Q199.2228,64.8071 201.0661,64.8071 Q201.5849,64.8071 202.061,64.917 Q202.537,65.0269 202.9521,65.2466 L202.9521,67.2485 Q202.4882,66.8213 202.0518,66.6229 Q201.6154,66.4246 201.1515,66.4246 Q200.1628,66.4246 199.6592,67.2089 Q199.1557,67.9932 199.1557,69.5374 Q199.1557,71.0754 199.6592,71.8597 Q200.1628,72.644 201.1515,72.644 Q201.6154,72.644 202.0518,72.4457 Q202.4882,72.2473 202.9521,71.8201 Z " fill="#000000"/><text fill="#D8BC00" font-family="Open Sans,Avenir,Nunito,Arial,Helvetica,SansSerif" font-size="12.5" font-weight="bold" lengthAdjust="spacing" textLength="86.4583" x="217.7083" y="74.1211">RelationFilter</text><line style="stroke:#5E5E5E;stroke-width:1.0416666666666667;" x1="187.5" x2="309.375" y1="85.0911" y2="85.0911"/><line style="stroke:#5E5E5E;stroke-width:1.0416666666666667;" x1="187.5" x2="309.375" y1="93.4245" y2="93.4245"/><!--MD5=[8beb7aad4a997af9d94e3de7f2987e64]
class AllRelationsFilter--><rect codeLine="7" fill="#282828" height="83.3781" id="AllRelationsFilter" rx="8.3333" ry="8.3333" style="stroke:#5E5E5E;stroke-width:1.0416666666666667;" width="148.9583" x="173.9583" y="164.1195"/><rect fill="#1B1B1A" height="31.3883" rx="8.3333" ry="8.3333" style="stroke:#1B1B1A;stroke-width:1.0416666666666667;" width="148.9583" x="173.9583" y="164.1195"/><rect fill="#1B1B1A" height="8.3333" style="stroke:#1B1B1A;stroke-width:1.0416666666666667;" width="148.9583" x="173.9583" y="187.1745"/><rect codeLine="7" fill="none" height="83.3781" id="AllRelationsFilter" rx="8.3333" ry="8.3333" style="stroke:#5E5E5E;stroke-width:1.0416666666666667;" width="148.9583" x="173.9583" y="164.1195"/><ellipse cx="188.5417" cy="179.8136" fill="#0066CF" rx="10.4167" ry="10.4167" style="stroke:#0086EF;stroke-width:1.0416666666666667;"/><path d="M190.4521,184.2387 Q190.0248,184.4584 189.5549,184.5683 Q189.0849,184.6781 188.5661,184.6781 Q186.7228,184.6781 185.7524,183.4635 Q184.7819,182.2489 184.7819,179.954 Q184.7819,177.653 185.7524,176.4384 Q186.7228,175.2238 188.5661,175.2238 Q189.0849,175.2238 189.561,175.3337 Q190.037,175.4435 190.4521,175.6632 L190.4521,177.6652 Q189.9882,177.238 189.5518,177.0396 Q189.1154,176.8412 188.6515,176.8412 Q187.6628,176.8412 187.1592,177.6255 Q186.6557,178.4098 186.6557,179.954 Q186.6557,181.4921 187.1592,182.2764 Q187.6628,183.0607 188.6515,183.0607 Q189.1154,183.0607 189.5518,182.8623 Q189.9882,182.664 190.4521,182.2367 Z " fill="#000000"/><text fill="#D8BC00" font-family="Open Sans,Avenir,Nunito,Arial,Helvetica,SansSerif" font-size="12.5" font-weight="bold" lengthAdjust="spacing" textLength="111.4583" x="205.2083" y="184.5378">AllRelationsFilter</text><line style="stroke:#5E5E5E;stroke-width:1.5625;" x1="175" x2="321.875" y1="195.5078" y2="195.5078"/><ellipse cx="185.4167" cy="230.8777" fill="#84BE84" rx="3.125" ry="3.125" style="stroke:#038048;stroke-width:1.0416666666666667;"/><text fill="#D8BC00" font-family="Open Sans,Avenir,Nunito,Arial,Helvetica,SansSerif" font-size="11.4583" lengthAdjust="spacing" textLength="102.0833" x="196.875" y="237.7889">AllRelationsFilter()</text><line style="stroke:#5E5E5E;stroke-width:1.0416666666666667;" x1="175" x2="204.6875" y1="213.7136" y2="213.7136"/><text fill="#D8BC00" font-family="Open Sans,Avenir,Nunito,Arial,Helvetica,SansSerif" font-size="11.4583" lengthAdjust="spacing" textLength="81.25" x="207.8125" y="217.5232">(constructors)</text><line style="stroke:#5E5E5E;stroke-width:1.0416666666666667;" x1="292.1875" x2="321.875" y1="213.7136" y2="213.7136"/><!--MD5=[296971189912b7d7a3ae0a5bad58974f]
class WayFilter--><rect fill="#282828" height="48.055" id="WayFilter" rx="8.3333" ry="8.3333" style="stroke:#5E5E5E;stroke-width:1.0416666666666667;" width="96.875" x="371.875" y="53.7028"/><rect fill="#1B1B1A" height="31.3883" rx="8.3333" ry="8.3333" style="stroke:#1B1B1A;stroke-width:1.0416666666666667;" width="96.875" x="371.875" y="53.7028"/><rect fill="#1B1B1A" height="8.3333" style="stroke:#1B1B1A;stroke-width:1.0416666666666667;" width="96.875" x="371.875" y="76.7578"/><rect fill="none" height="48.055" id="WayFilter" rx="8.3333" ry="8.3333" style="stroke:#5E5E5E;stroke-width:1.0416666666666667;" width="96.875" x="371.875" y="53.7028"/><ellipse cx="386.4583" cy="69.397" fill="#0066CF" rx="10.4167" ry="10.4167" style="stroke:#0086EF;stroke-width:1.0416666666666667;"/><path d="M388.3687,73.822 Q387.9415,74.0417 387.4715,74.1516 Q387.0015,74.2615 386.4827,74.2615 Q384.6395,74.2615 383.669,73.0469 Q382.6986,71.8323 382.6986,69.5374 Q382.6986,67.2363 383.669,66.0217 Q384.6395,64.8071 386.4827,64.8071 Q387.0015,64.8071 387.4776,64.917 Q387.9537,65.0269 388.3687,65.2466 L388.3687,67.2485 Q387.9049,66.8213 387.4685,66.6229 Q387.0321,66.4246 386.5682,66.4246 Q385.5794,66.4246 385.0759,67.2089 Q384.5723,67.9932 384.5723,69.5374 Q384.5723,71.0754 385.0759,71.8597 Q385.5794,72.644 386.5682,72.644 Q387.0321,72.644 387.4685,72.4457 Q387.9049,72.2473 388.3687,71.8201 Z " fill="#000000"/><text fill="#D8BC00" font-family="Open Sans,Avenir,Nunito,Arial,Helvetica,SansSerif" font-size="12.5" font-weight="bold" lengthAdjust="spacing" textLength="59.375" x="403.125" y="74.1211">WayFilter</text><line style="stroke:#5E5E5E;stroke-width:1.0416666666666667;" x1="372.9167" x2="467.7083" y1="85.0911" y2="85.0911"/><line style="stroke:#5E5E5E;stroke-width:1.0416666666666667;" x1="372.9167" x2="467.7083" y1="93.4245" y2="93.4245"/><!--MD5=[6d6878300d5a82e08c22ccf72642d53d]
class AllWaysFilter--><rect codeLine="14" fill="#282828" height="83.3781" id="AllWaysFilter" rx="8.3333" ry="8.3333" style="stroke:#5E5E5E;stroke-width:1.0416666666666667;" width="121.875" x="359.375" y="164.1195"/><rect fill="#1B1B1A" height="31.3883" rx="8.3333" ry="8.3333" style="stroke:#1B1B1A;stroke-width:1.0416666666666667;" width="121.875" x="359.375" y="164.1195"/><rect fill="#1B1B1A" height="8.3333" style="stroke:#1B1B1A;stroke-width:1.0416666666666667;" width="121.875" x="359.375" y="187.1745"/><rect codeLine="14" fill="none" height="83.3781" id="AllWaysFilter" rx="8.3333" ry="8.3333" style="stroke:#5E5E5E;stroke-width:1.0416666666666667;" width="121.875" x="359.375" y="164.1195"/><ellipse cx="373.9583" cy="179.8136" fill="#0066CF" rx="10.4167" ry="10.4167" style="stroke:#0086EF;stroke-width:1.0416666666666667;"/><path d="M375.8687,184.2387 Q375.4415,184.4584 374.9715,184.5683 Q374.5015,184.6781 373.9827,184.6781 Q372.1395,184.6781 371.169,183.4635 Q370.1986,182.2489 370.1986,179.954 Q370.1986,177.653 371.169,176.4384 Q372.1395,175.2238 373.9827,175.2238 Q374.5015,175.2238 374.9776,175.3337 Q375.4537,175.4435 375.8687,175.6632 L375.8687,177.6652 Q375.4049,177.238 374.9685,177.0396 Q374.5321,176.8412 374.0682,176.8412 Q373.0794,176.8412 372.5759,177.6255 Q372.0723,178.4098 372.0723,179.954 Q372.0723,181.4921 372.5759,182.2764 Q373.0794,183.0607 374.0682,183.0607 Q374.5321,183.0607 374.9685,182.8623 Q375.4049,182.664 375.8687,182.2367 Z " fill="#000000"/><text fill="#D8BC00" font-family="Open Sans,Avenir,Nunito,Arial,Helvetica,SansSerif" font-size="12.5" font-weight="bold" lengthAdjust="spacing" textLength="84.375" x="390.625" y="184.5378">AllWaysFilter</text><line style="stroke:#5E5E5E;stroke-width:1.5625;" x1="360.4167" x2="480.2083" y1="195.5078" y2="195.5078"/><ellipse cx="370.8333" cy="230.8777" fill="#84BE84" rx="3.125" ry="3.125" style="stroke:#038048;stroke-width:1.0416666666666667;"/><text fill="#D8BC00" font-family="Open Sans,Avenir,Nunito,Arial,Helvetica,SansSerif" font-size="11.4583" lengthAdjust="spacing" textLength="79.1667" x="382.2917" y="237.7889">AllWaysFilter()</text><line style="stroke:#5E5E5E;stroke-width:1.0416666666666667;" x1="360.4167" x2="376.5625" y1="213.7136" y2="213.7136"/><text fill="#D8BC00" font-family="Open Sans,Avenir,Nunito,Arial,Helvetica,SansSerif" font-size="11.4583" lengthAdjust="spacing" textLength="81.25" x="379.6875" y="217.5232">(constructors)</text><line style="stroke:#5E5E5E;stroke-width:1.0416666666666667;" x1="464.0625" x2="480.2083" y1="213.7136" y2="213.7136"/><!--MD5=[6777c8123c0f4af4b621dc1d1adbb7f2]
reverse link RelationFilter to AllRelationsFilter--><path codeLine="6" d="M248.4375,122.682 C248.4375,136.0778 248.4375,150.7445 248.4375,163.9215 " fill="none" id="RelationFilter-backto-AllRelationsFilter" style="stroke:#545454;stroke-width:1.5625;"/><polygon fill="none" points="241.1458,122.6507,248.4375,101.8174,255.7292,122.6507,241.1458,122.6507" style="stroke:#545454;stroke-width:1.5625;"/><!--MD5=[c65d9427bab230bb0b73ed8aaccdc7dc]
reverse link WayFilter to AllWaysFilter--><path codeLine="13" d="M420.3125,122.682 C420.3125,136.0778 420.3125,150.7445 420.3125,163.9215 " fill="none" id="WayFilter-backto-AllWaysFilter" style="stroke:#545454;stroke-width:1.5625;"/><polygon fill="none" points="413.0208,122.6507,420.3125,101.8174,427.6042,122.6507,413.0208,122.6507" style="stroke:#545454;stroke-width:1.5625;"/><!--MD5=[c0d084b3c97e751c99cc12c28b8b46fd]
@startuml

    !include ../lexakai/lexakai.theme
    
    title "com.telenav.aonia.map.data.formats.pbf.processing.filters.all"
    
    RelationFilter <|- - AllRelationsFilter
    class AllRelationsFilter
    {
        - -(constructors)- -
        +AllRelationsFilter()
    }
    
    WayFilter <|- - AllWaysFilter
    class AllWaysFilter
    {
        - -(constructors)- -
        +AllWaysFilter()
    }
    
@enduml

@startuml









skinparam backgroundColor #333333






skinparam  {
    defaultFontName   "Open Sans,Avenir,Nunito,Arial,Helvetica,SansSerif"
    defaultFontSize   12
    defaultTextAlignment left
    shadowing false
    RoundCorner 10
    TitleFontSize 18
}

skinparam defaultFontName       "Open Sans,Avenir,Nunito,Arial,Helvetica,SansSerif"
skinparam defaultFontSize       12
skinparam dpi                   100
skinparam shadowing             false
skinparam roundcorner           16
skinparam ParticipantPadding    40
skinparam BoxPadding            40
skinparam Padding               3
skinparam ArrowColor            #545454
skinparam stereotype {
    CBackgroundColor #0066cf
    CBorderColor #0086ef
    ABackgroundColor #C8Ac00
    ABorderColor #D8Bc00
    IBackgroundColor #008400
    IBorderColor #239c23
    EBackgroundColor #cf6300
    EBorderColor #ef8300
    NBackgroundColor #3380b9
    NBorderColor #004d86
}
skinparam title {
	FontColor	                 #c0c0c0
 	BorderColor                  #545454
	FontSize	    	         20
	BorderRoundCorner            16
	BorderThickness 	         1
	BackgroundColor              #48494b
}


skinparam legend {
	BackgroundColor #303030
	BorderColor #404040
	FontColor #a0a0a0
}

	skinparam swimlane {
	BorderColor #5e5e5e
	BorderThickness 2
	TitleBackgroundColor  #6d6d6d-#484848
	TitleFontColor #303030
}

skinparam activity {
		FontColor #C8Ac00
	BorderColor #333333
	BackgroundColor #333333-#333333
	BarColor #00FF00
	StartColor #0060a8
	EndColor #0060a8
	DiamondBackgroundColor #6d6d6d-#3a3a3a
  	DiamondBorderColor #3a3a3a
  	DiamondFontColor #fefefe
}


skinparam participant {
		FontColor #C8Ac00
	BorderColor #333333
	BackgroundColor #333333-#333333
	ParticipantBorderThickness 2
}


skinparam actor {
		FontColor #C8Ac00
	BorderColor #333333
	BackgroundColor #333333-#333333
}


skinparam arrow {
	Thickness 1.5
	Color #545454
	FontColor #a0a0a0
    FontStyle bold
    MessageAlignment center
}



skinparam sequence {
	BorderColor #303030
	TitleFontColor #303030
	BackgroundColor #333333
	StartColor #303030
	EndColor #303030
	BoxBackgroundColor #333333
	BoxBorderColor #484848
	BoxFontColor #484848
	LifeLineBorderColor #484848
	LifeLineBorderThickness 2
	LifeLineBackgroundColor #3a3a3a
	GroupBorderColor #484848
	GroupFontColor #484848
	GroupHeaderFontColor #0060a8
	GroupBackgroundColor #484848
	GroupHeaderBackgroundColor #333333
	DividerBackgroundColor #484848
    DividerBorderColor #484848
    DividerBorderThickness 2
    DividerFontColor #D8Bc00
	ReferenceBackgroundColor #333333
	ReferenceBorderColor #484848
	ReferenceFontColor #fefefe
	ReferenceHeaderBackgroundColor #484848
}


skinparam partition {
	BorderColor #303030
	FontColor #333333
	BackgroundColor #333333
}


skinparam collections {
		FontColor #C8Ac00
	BorderColor #333333
	BackgroundColor #333333-#333333
}


skinparam control {
		FontColor #C8Ac00
	BorderColor #333333
	BackgroundColor #333333-#333333
}


skinparam entity {
		FontColor #C8Ac00
	BorderColor #333333
	BackgroundColor #333333-#333333
}


skinparam boundary {
		FontColor #C8Ac00
	BorderColor #333333
	BackgroundColor #333333-#333333
}


skinparam agent {
	BackgroundColor #ff8000
	BorderColor #ff9933
	FontColor #484848
}


skinparam note {
	BorderThickness 1
	BackgroundColor #1b1b1a
	BorderColor #5e5e5e
	FontSize 11
	FontColor #a0a0a0
}


skinparam artifact {
	BorderThickness 10
	BorderColor #5e5e5e
	BackgroundColor #1b1b1a
	FontColor #D8Bc00
}


skinparam component {
		FontColor #C8Ac00
	BorderColor #333333
	BackgroundColor #333333-#333333
}


skinparam interface {
	BackgroundColor  #008400
	BorderColor  #007F00
	FontColor #484848
}


skinparam storage {
	BackgroundColor #ff8000
  	BorderColor #cc6600
	FontColor #222222
}


skinparam node {
	BackgroundColor #333333
	BorderColor #333333
	FontColor #C8Ac00
}


skinparam cloud {
	BackgroundColor #484848-black
	BorderColor #484848
	FontColor #D8Bc00
}


skinparam database {
		FontColor #C8Ac00
	BorderColor #333333
	BackgroundColor #333333-#333333
	BackgroundColor  #333333
}


skinparam class {
		FontColor #C8Ac00
	BorderColor #333333
	BackgroundColor #333333-#333333
	HeaderBackgroundColor #1b1b1a
    BackgroundColor #282828
    BorderColor #5e5e5e
 	StereotypeFontColor #a0a0a0
    StereotypeFontStyle bold
	BorderThickness 1
	AttributeFontColor #D8Bc00
	AttributeFontSize 11
    FontColor #D8Bc00
    FontStyle bold
}


skinparam object {
		FontColor #C8Ac00
	BorderColor #333333
	BackgroundColor #333333-#333333
	StereotypeFontColor #484848
	BorderThickness 1
	AttributeFontColor #fefefe
	AttributeFontSize 11
}


skinparam usecase {
		FontColor #C8Ac00
	BorderColor #333333
	BackgroundColor #333333-#333333
	BorderThickness 2
	StereotypeFontColor #303030
}


skinparam rectangle {
		FontColor #C8Ac00
	BorderColor #333333
	BackgroundColor #333333-#333333
	BackgroundColor #333333
	BorderThickness 2
	StereotypeFontColor #303030
}


skinparam package {
		FontColor #C8Ac00
	BorderColor #333333
	BackgroundColor #333333-#333333
	BackgroundColor #333333
	BorderThickness 2
}


skinparam folder {
	BackgroundColor #6d6d6d
  	BorderColor #ff8000
	FontColor #ff8000
	BorderThickness 2
}


skinparam frame {
	BackgroundColor #6d6d6d
  	BorderColor #0060a8
	FontColor #0060a8
	BorderThickness 2
}


skinparam state {
		FontColor #C8Ac00
	BorderColor #333333
	BackgroundColor #333333-#333333
	StartColor #0060a8
	EndColor #0060a8
	AttributeFontColor #fefefe
	AttributeFontSize 11
}


skinparam queue {
		FontColor #C8Ac00
	BorderColor #333333
	BackgroundColor #333333-#333333
}


skinparam card {
	BackgroundColor #0060a8
	BorderColor #004d86
	FontColor $INFO_TEXT
}


skinparam file {
	BackgroundColor #6d6d6d-#484848
	BorderColor #0060a8
	FontColor #fefefe
}


skinparam stack {
		FontColor #C8Ac00
	BorderColor #333333
	BackgroundColor #333333-#333333
}

    
    title "com.telenav.aonia.map.data.formats.pbf.processing.filters.all"
    
    RelationFilter <|- - AllRelationsFilter
    class AllRelationsFilter
    {
        - -(constructors)- -
        +AllRelationsFilter()
    }
    
    WayFilter <|- - AllWaysFilter
    class AllWaysFilter
    {
        - -(constructors)- -
        +AllWaysFilter()
    }
    
@enduml

PlantUML version 1.2021.01(Tue Feb 02 00:55:08 MST 2021)
(GPL source distribution)
Java Runtime: Java(TM) SE Runtime Environment
JVM: Java HotSpot(TM) 64-Bit Server VM
Default Encoding: UTF-8
Language: en
Country: US
--></g></svg>