<?xml version="1.0" encoding="UTF-8" standalone="no"?><svg xmlns="http://www.w3.org/2000/svg" xmlns:xlink="http://www.w3.org/1999/xlink" contentScriptType="application/ecmascript" contentStyleType="text/css" height="254.1667px" preserveAspectRatio="none" style="width:706px;height:254px;background:#333333;" version="1.1" viewBox="0 0 706 254" width="706.25px" zoomAndPan="magnify"><defs/><g><rect fill="#48494B" height="41.2028" rx="8.3333" ry="8.3333" style="stroke:#545454;stroke-width:1.0416666666666667;" width="670.8333" x="10.6771" y="2.0833"/><text fill="#C0C0C0" font-family="Open Sans,Avenir,Nunito,Arial,Helvetica,SansSerif" font-size="20.8333" lengthAdjust="spacing" textLength="647.9167" x="22.1354" y="30.5583">com.telenav.aonia.map.data.formats.pbf.processing.filters.unidb</text><!--MD5=[7641309704a2ba86945d63525f0a850a]
class RelationFilter--><rect fill="#282828" height="48.055" id="RelationFilter" rx="8.3333" ry="8.3333" style="stroke:#5E5E5E;stroke-width:1.0416666666666667;" width="123.9583" x="191.1458" y="53.7028"/><rect fill="#1B1B1A" height="31.3883" rx="8.3333" ry="8.3333" style="stroke:#1B1B1A;stroke-width:1.0416666666666667;" width="123.9583" x="191.1458" y="53.7028"/><rect fill="#1B1B1A" height="8.3333" style="stroke:#1B1B1A;stroke-width:1.0416666666666667;" width="123.9583" x="191.1458" y="76.7578"/><rect fill="none" height="48.055" id="RelationFilter" rx="8.3333" ry="8.3333" style="stroke:#5E5E5E;stroke-width:1.0416666666666667;" width="123.9583" x="191.1458" y="53.7028"/><ellipse cx="205.7292" cy="69.397" fill="#0066CF" rx="10.4167" ry="10.4167" style="stroke:#0086EF;stroke-width:1.0416666666666667;"/><path d="M207.6396,73.822 Q207.2123,74.0417 206.7424,74.1516 Q206.2724,74.2615 205.7536,74.2615 Q203.9103,74.2615 202.9399,73.0469 Q201.9694,71.8323 201.9694,69.5374 Q201.9694,67.2363 202.9399,66.0217 Q203.9103,64.8071 205.7536,64.8071 Q206.2724,64.8071 206.7485,64.917 Q207.2245,65.0269 207.6396,65.2466 L207.6396,67.2485 Q207.1757,66.8213 206.7393,66.6229 Q206.3029,66.4246 205.839,66.4246 Q204.8503,66.4246 204.3467,67.2089 Q203.8432,67.9932 203.8432,69.5374 Q203.8432,71.0754 204.3467,71.8597 Q204.8503,72.644 205.839,72.644 Q206.3029,72.644 206.7393,72.4457 Q207.1757,72.2473 207.6396,71.8201 Z " fill="#000000"/><text fill="#D8BC00" font-family="Open Sans,Avenir,Nunito,Arial,Helvetica,SansSerif" font-size="12.5" font-weight="bold" lengthAdjust="spacing" textLength="86.4583" x="222.3958" y="74.1211">RelationFilter</text><line style="stroke:#5E5E5E;stroke-width:1.0416666666666667;" x1="192.1875" x2="314.0625" y1="85.0911" y2="85.0911"/><line style="stroke:#5E5E5E;stroke-width:1.0416666666666667;" x1="192.1875" x2="314.0625" y1="93.4245" y2="93.4245"/><!--MD5=[6d7203d768630756402534b7ebf44125]
class UniDbExcludeAdasRelationFilter--><rect codeLine="7" fill="#282828" height="83.3781" id="UniDbExcludeAdasRelationFilter" rx="8.3333" ry="8.3333" style="stroke:#5E5E5E;stroke-width:1.0416666666666667;" width="245.8333" x="7.2917" y="164.1195"/><rect fill="#1B1B1A" height="31.3883" rx="8.3333" ry="8.3333" style="stroke:#1B1B1A;stroke-width:1.0416666666666667;" width="245.8333" x="7.2917" y="164.1195"/><rect fill="#1B1B1A" height="8.3333" style="stroke:#1B1B1A;stroke-width:1.0416666666666667;" width="245.8333" x="7.2917" y="187.1745"/><rect codeLine="7" fill="none" height="83.3781" id="UniDbExcludeAdasRelationFilter" rx="8.3333" ry="8.3333" style="stroke:#5E5E5E;stroke-width:1.0416666666666667;" width="245.8333" x="7.2917" y="164.1195"/><ellipse cx="21.875" cy="179.8136" fill="#0066CF" rx="10.4167" ry="10.4167" style="stroke:#0086EF;stroke-width:1.0416666666666667;"/><path d="M23.7854,184.2387 Q23.3582,184.4584 22.8882,184.5683 Q22.4182,184.6781 21.8994,184.6781 Q20.0562,184.6781 19.0857,183.4635 Q18.1152,182.2489 18.1152,179.954 Q18.1152,177.653 19.0857,176.4384 Q20.0562,175.2238 21.8994,175.2238 Q22.4182,175.2238 22.8943,175.3337 Q23.3704,175.4435 23.7854,175.6632 L23.7854,177.6652 Q23.3215,177.238 22.8851,177.0396 Q22.4487,176.8412 21.9849,176.8412 Q20.9961,176.8412 20.4926,177.6255 Q19.989,178.4098 19.989,179.954 Q19.989,181.4921 20.4926,182.2764 Q20.9961,183.0607 21.9849,183.0607 Q22.4487,183.0607 22.8851,182.8623 Q23.3215,182.664 23.7854,182.2367 Z " fill="#000000"/><text fill="#D8BC00" font-family="Open Sans,Avenir,Nunito,Arial,Helvetica,SansSerif" font-size="12.5" font-weight="bold" lengthAdjust="spacing" textLength="208.3333" x="38.5417" y="184.5378">UniDbExcludeAdasRelationFilter</text><line style="stroke:#5E5E5E;stroke-width:1.5625;" x1="8.3333" x2="252.0833" y1="195.5078" y2="195.5078"/><ellipse cx="18.75" cy="230.8777" fill="#84BE84" rx="3.125" ry="3.125" style="stroke:#038048;stroke-width:1.0416666666666667;"/><text fill="#D8BC00" font-family="Open Sans,Avenir,Nunito,Arial,Helvetica,SansSerif" font-size="11.4583" lengthAdjust="spacing" textLength="187.5" x="30.2083" y="237.7889">UniDbExcludeAdasRelationFilter()</text><line style="stroke:#5E5E5E;stroke-width:1.0416666666666667;" x1="8.3333" x2="86.4583" y1="213.7136" y2="213.7136"/><text fill="#D8BC00" font-family="Open Sans,Avenir,Nunito,Arial,Helvetica,SansSerif" font-size="11.4583" lengthAdjust="spacing" textLength="81.25" x="89.5833" y="217.5232">(constructors)</text><line style="stroke:#5E5E5E;stroke-width:1.0416666666666667;" x1="173.9583" x2="252.0833" y1="213.7136" y2="213.7136"/><!--MD5=[296971189912b7d7a3ae0a5bad58974f]
class WayFilter--><rect fill="#282828" height="48.055" id="WayFilter" rx="8.3333" ry="8.3333" style="stroke:#5E5E5E;stroke-width:1.0416666666666667;" width="96.875" x="550.5208" y="53.7028"/><rect fill="#1B1B1A" height="31.3883" rx="8.3333" ry="8.3333" style="stroke:#1B1B1A;stroke-width:1.0416666666666667;" width="96.875" x="550.5208" y="53.7028"/><rect fill="#1B1B1A" height="8.3333" style="stroke:#1B1B1A;stroke-width:1.0416666666666667;" width="96.875" x="550.5208" y="76.7578"/><rect fill="none" height="48.055" id="WayFilter" rx="8.3333" ry="8.3333" style="stroke:#5E5E5E;stroke-width:1.0416666666666667;" width="96.875" x="550.5208" y="53.7028"/><ellipse cx="565.1042" cy="69.397" fill="#0066CF" rx="10.4167" ry="10.4167" style="stroke:#0086EF;stroke-width:1.0416666666666667;"/><path d="M567.0146,73.822 Q566.5873,74.0417 566.1174,74.1516 Q565.6474,74.2615 565.1286,74.2615 Q563.2853,74.2615 562.3149,73.0469 Q561.3444,71.8323 561.3444,69.5374 Q561.3444,67.2363 562.3149,66.0217 Q563.2853,64.8071 565.1286,64.8071 Q565.6474,64.8071 566.1235,64.917 Q566.5995,65.0269 567.0146,65.2466 L567.0146,67.2485 Q566.5507,66.8213 566.1143,66.6229 Q565.6779,66.4246 565.214,66.4246 Q564.2253,66.4246 563.7217,67.2089 Q563.2182,67.9932 563.2182,69.5374 Q563.2182,71.0754 563.7217,71.8597 Q564.2253,72.644 565.214,72.644 Q565.6779,72.644 566.1143,72.4457 Q566.5507,72.2473 567.0146,71.8201 Z " fill="#000000"/><text fill="#D8BC00" font-family="Open Sans,Avenir,Nunito,Arial,Helvetica,SansSerif" font-size="12.5" font-weight="bold" lengthAdjust="spacing" textLength="59.375" x="581.7708" y="74.1211">WayFilter</text><line style="stroke:#5E5E5E;stroke-width:1.0416666666666667;" x1="551.5625" x2="646.3542" y1="85.0911" y2="85.0911"/><line style="stroke:#5E5E5E;stroke-width:1.0416666666666667;" x1="551.5625" x2="646.3542" y1="93.4245" y2="93.4245"/><!--MD5=[bdc068106fa2e02e392a4bbfce8afb2a]
class UniDbNavigableWayFilter--><rect codeLine="14" fill="#282828" height="83.3781" id="UniDbNavigableWayFilter" rx="8.3333" ry="8.3333" style="stroke:#5E5E5E;stroke-width:1.0416666666666667;" width="201.0417" x="498.4375" y="164.1195"/><rect fill="#1B1B1A" height="31.3883" rx="8.3333" ry="8.3333" style="stroke:#1B1B1A;stroke-width:1.0416666666666667;" width="201.0417" x="498.4375" y="164.1195"/><rect fill="#1B1B1A" height="8.3333" style="stroke:#1B1B1A;stroke-width:1.0416666666666667;" width="201.0417" x="498.4375" y="187.1745"/><rect codeLine="14" fill="none" height="83.3781" id="UniDbNavigableWayFilter" rx="8.3333" ry="8.3333" style="stroke:#5E5E5E;stroke-width:1.0416666666666667;" width="201.0417" x="498.4375" y="164.1195"/><ellipse cx="513.0208" cy="179.8136" fill="#0066CF" rx="10.4167" ry="10.4167" style="stroke:#0086EF;stroke-width:1.0416666666666667;"/><path d="M514.9312,184.2387 Q514.504,184.4584 514.034,184.5683 Q513.564,184.6781 513.0452,184.6781 Q511.202,184.6781 510.2315,183.4635 Q509.2611,182.2489 509.2611,179.954 Q509.2611,177.653 510.2315,176.4384 Q511.202,175.2238 513.0452,175.2238 Q513.564,175.2238 514.0401,175.3337 Q514.5162,175.4435 514.9312,175.6632 L514.9312,177.6652 Q514.4674,177.238 514.031,177.0396 Q513.5946,176.8412 513.1307,176.8412 Q512.1419,176.8412 511.6384,177.6255 Q511.1348,178.4098 511.1348,179.954 Q511.1348,181.4921 511.6384,182.2764 Q512.1419,183.0607 513.1307,183.0607 Q513.5946,183.0607 514.031,182.8623 Q514.4674,182.664 514.9312,182.2367 Z " fill="#000000"/><text fill="#D8BC00" font-family="Open Sans,Avenir,Nunito,Arial,Helvetica,SansSerif" font-size="12.5" font-weight="bold" lengthAdjust="spacing" textLength="163.5417" x="529.6875" y="184.5378">UniDbNavigableWayFilter</text><line style="stroke:#5E5E5E;stroke-width:1.5625;" x1="499.4792" x2="698.4375" y1="195.5078" y2="195.5078"/><ellipse cx="509.8958" cy="230.8777" fill="#84BE84" rx="3.125" ry="3.125" style="stroke:#038048;stroke-width:1.0416666666666667;"/><text fill="#D8BC00" font-family="Open Sans,Avenir,Nunito,Arial,Helvetica,SansSerif" font-size="11.4583" lengthAdjust="spacing" textLength="146.875" x="521.3542" y="237.7889">UniDbNavigableWayFilter()</text><line style="stroke:#5E5E5E;stroke-width:1.0416666666666667;" x1="499.4792" x2="555.2083" y1="213.7136" y2="213.7136"/><text fill="#D8BC00" font-family="Open Sans,Avenir,Nunito,Arial,Helvetica,SansSerif" font-size="11.4583" lengthAdjust="spacing" textLength="81.25" x="558.3333" y="217.5232">(constructors)</text><line style="stroke:#5E5E5E;stroke-width:1.0416666666666667;" x1="642.7083" x2="698.4375" y1="213.7136" y2="213.7136"/><!--MD5=[572d29c2ede04684f69fa104f06a9abc]
class UniDbRelationsFilter--><rect codeLine="21" fill="#282828" height="83.3781" id="UniDbRelationsFilter" rx="8.3333" ry="8.3333" style="stroke:#5E5E5E;stroke-width:1.0416666666666667;" width="171.875" x="290.1042" y="164.1195"/><rect fill="#1B1B1A" height="31.3883" rx="8.3333" ry="8.3333" style="stroke:#1B1B1A;stroke-width:1.0416666666666667;" width="171.875" x="290.1042" y="164.1195"/><rect fill="#1B1B1A" height="8.3333" style="stroke:#1B1B1A;stroke-width:1.0416666666666667;" width="171.875" x="290.1042" y="187.1745"/><rect codeLine="21" fill="none" height="83.3781" id="UniDbRelationsFilter" rx="8.3333" ry="8.3333" style="stroke:#5E5E5E;stroke-width:1.0416666666666667;" width="171.875" x="290.1042" y="164.1195"/><ellipse cx="304.6875" cy="179.8136" fill="#0066CF" rx="10.4167" ry="10.4167" style="stroke:#0086EF;stroke-width:1.0416666666666667;"/><path d="M306.5979,184.2387 Q306.1707,184.4584 305.7007,184.5683 Q305.2307,184.6781 304.7119,184.6781 Q302.8687,184.6781 301.8982,183.4635 Q300.9277,182.2489 300.9277,179.954 Q300.9277,177.653 301.8982,176.4384 Q302.8687,175.2238 304.7119,175.2238 Q305.2307,175.2238 305.7068,175.3337 Q306.1829,175.4435 306.5979,175.6632 L306.5979,177.6652 Q306.134,177.238 305.6976,177.0396 Q305.2612,176.8412 304.7974,176.8412 Q303.8086,176.8412 303.3051,177.6255 Q302.8015,178.4098 302.8015,179.954 Q302.8015,181.4921 303.3051,182.2764 Q303.8086,183.0607 304.7974,183.0607 Q305.2612,183.0607 305.6976,182.8623 Q306.134,182.664 306.5979,182.2367 Z " fill="#000000"/><text fill="#D8BC00" font-family="Open Sans,Avenir,Nunito,Arial,Helvetica,SansSerif" font-size="12.5" font-weight="bold" lengthAdjust="spacing" textLength="134.375" x="321.3542" y="184.5378">UniDbRelationsFilter</text><line style="stroke:#5E5E5E;stroke-width:1.5625;" x1="291.1458" x2="460.9375" y1="195.5078" y2="195.5078"/><ellipse cx="301.5625" cy="230.8777" fill="#84BE84" rx="3.125" ry="3.125" style="stroke:#038048;stroke-width:1.0416666666666667;"/><text fill="#D8BC00" font-family="Open Sans,Avenir,Nunito,Arial,Helvetica,SansSerif" font-size="11.4583" lengthAdjust="spacing" textLength="121.875" x="313.0208" y="237.7889">UniDbRelationsFilter()</text><line style="stroke:#5E5E5E;stroke-width:1.0416666666666667;" x1="291.1458" x2="332.2917" y1="213.7136" y2="213.7136"/><text fill="#D8BC00" font-family="Open Sans,Avenir,Nunito,Arial,Helvetica,SansSerif" font-size="11.4583" lengthAdjust="spacing" textLength="81.25" x="335.4167" y="217.5232">(constructors)</text><line style="stroke:#5E5E5E;stroke-width:1.0416666666666667;" x1="419.7917" x2="460.9375" y1="213.7136" y2="213.7136"/><!--MD5=[1bdedbf776b2b7e066a90d8073c20bc7]
reverse link RelationFilter to UniDbExcludeAdasRelationFilter--><path codeLine="6" d="M215.8854,116.8903 C201.3854,131.7549 184.75,148.8174 170.0208,163.9215 " fill="none" id="RelationFilter-backto-UniDbExcludeAdasRelationFilter" style="stroke:#545454;stroke-width:1.5625;"/><polygon fill="none" points="210.8125,111.6403,230.5833,101.8174,221.25,121.8278,210.8125,111.6403" style="stroke:#545454;stroke-width:1.5625;"/><!--MD5=[e358e0d1fe25a30a9f4097f34d12230f]
reverse link WayFilter to UniDbNavigableWayFilter--><path codeLine="13" d="M598.9583,122.682 C598.9583,136.0778 598.9583,150.7445 598.9583,163.9215 " fill="none" id="WayFilter-backto-UniDbNavigableWayFilter" style="stroke:#545454;stroke-width:1.5625;"/><polygon fill="none" points="591.6667,122.6507,598.9583,101.8174,606.25,122.6507,591.6667,122.6507" style="stroke:#545454;stroke-width:1.5625;"/><!--MD5=[23b0f24ce3c3604392dc2da459397efb]
reverse link RelationFilter to UniDbRelationsFilter--><path codeLine="20" d="M290.3646,116.8903 C304.8646,131.7549 321.5,148.8174 336.2292,163.9215 " fill="none" id="RelationFilter-backto-UniDbRelationsFilter" style="stroke:#545454;stroke-width:1.5625;"/><polygon fill="none" points="285,121.8278,275.6667,101.8174,295.4375,111.6403,285,121.8278" style="stroke:#545454;stroke-width:1.5625;"/><!--MD5=[01b752fb57afe84f0184794accf9ca8e]
@startuml

    !include ../lexakai/lexakai.theme
    
    title "com.telenav.aonia.map.data.formats.pbf.processing.filters.unidb"
    
    RelationFilter <|- - UniDbExcludeAdasRelationFilter
    class UniDbExcludeAdasRelationFilter
    {
        - -(constructors)- -
        +UniDbExcludeAdasRelationFilter()
    }
    
    WayFilter <|- - UniDbNavigableWayFilter
    class UniDbNavigableWayFilter
    {
        - -(constructors)- -
        +UniDbNavigableWayFilter()
    }
    
    RelationFilter <|- - UniDbRelationsFilter
    class UniDbRelationsFilter
    {
        - -(constructors)- -
        +UniDbRelationsFilter()
    }
    
@enduml

@startuml









skinparam backgroundColor #333333






skinparam  {
    defaultFontName   "Open Sans,Avenir,Nunito,Arial,Helvetica,SansSerif"
    defaultFontSize   12
    defaultTextAlignment left
    shadowing false
    RoundCorner 10
    TitleFontSize 18
}

skinparam defaultFontName       "Open Sans,Avenir,Nunito,Arial,Helvetica,SansSerif"
skinparam defaultFontSize       12
skinparam dpi                   100
skinparam shadowing             false
skinparam roundcorner           16
skinparam ParticipantPadding    40
skinparam BoxPadding            40
skinparam Padding               3
skinparam ArrowColor            #545454
skinparam stereotype {
    CBackgroundColor #0066cf
    CBorderColor #0086ef
    ABackgroundColor #C8Ac00
    ABorderColor #D8Bc00
    IBackgroundColor #008400
    IBorderColor #239c23
    EBackgroundColor #cf6300
    EBorderColor #ef8300
    NBackgroundColor #3380b9
    NBorderColor #004d86
}
skinparam title {
	FontColor	                 #c0c0c0
 	BorderColor                  #545454
	FontSize	    	         20
	BorderRoundCorner            16
	BorderThickness 	         1
	BackgroundColor              #48494b
}


skinparam legend {
	BackgroundColor #303030
	BorderColor #404040
	FontColor #a0a0a0
}

	skinparam swimlane {
	BorderColor #5e5e5e
	BorderThickness 2
	TitleBackgroundColor  #6d6d6d-#484848
	TitleFontColor #303030
}

skinparam activity {
		FontColor #C8Ac00
	BorderColor #333333
	BackgroundColor #333333-#333333
	BarColor #00FF00
	StartColor #0060a8
	EndColor #0060a8
	DiamondBackgroundColor #6d6d6d-#3a3a3a
  	DiamondBorderColor #3a3a3a
  	DiamondFontColor #fefefe
}


skinparam participant {
		FontColor #C8Ac00
	BorderColor #333333
	BackgroundColor #333333-#333333
	ParticipantBorderThickness 2
}


skinparam actor {
		FontColor #C8Ac00
	BorderColor #333333
	BackgroundColor #333333-#333333
}


skinparam arrow {
	Thickness 1.5
	Color #545454
	FontColor #a0a0a0
    FontStyle bold
    MessageAlignment center
}



skinparam sequence {
	BorderColor #303030
	TitleFontColor #303030
	BackgroundColor #333333
	StartColor #303030
	EndColor #303030
	BoxBackgroundColor #333333
	BoxBorderColor #484848
	BoxFontColor #484848
	LifeLineBorderColor #484848
	LifeLineBorderThickness 2
	LifeLineBackgroundColor #3a3a3a
	GroupBorderColor #484848
	GroupFontColor #484848
	GroupHeaderFontColor #0060a8
	GroupBackgroundColor #484848
	GroupHeaderBackgroundColor #333333
	DividerBackgroundColor #484848
    DividerBorderColor #484848
    DividerBorderThickness 2
    DividerFontColor #D8Bc00
	ReferenceBackgroundColor #333333
	ReferenceBorderColor #484848
	ReferenceFontColor #fefefe
	ReferenceHeaderBackgroundColor #484848
}


skinparam partition {
	BorderColor #303030
	FontColor #333333
	BackgroundColor #333333
}


skinparam collections {
		FontColor #C8Ac00
	BorderColor #333333
	BackgroundColor #333333-#333333
}


skinparam control {
		FontColor #C8Ac00
	BorderColor #333333
	BackgroundColor #333333-#333333
}


skinparam entity {
		FontColor #C8Ac00
	BorderColor #333333
	BackgroundColor #333333-#333333
}


skinparam boundary {
		FontColor #C8Ac00
	BorderColor #333333
	BackgroundColor #333333-#333333
}


skinparam agent {
	BackgroundColor #ff8000
	BorderColor #ff9933
	FontColor #484848
}


skinparam note {
	BorderThickness 1
	BackgroundColor #1b1b1a
	BorderColor #5e5e5e
	FontSize 11
	FontColor #a0a0a0
}


skinparam artifact {
	BorderThickness 10
	BorderColor #5e5e5e
	BackgroundColor #1b1b1a
	FontColor #D8Bc00
}


skinparam component {
		FontColor #C8Ac00
	BorderColor #333333
	BackgroundColor #333333-#333333
}


skinparam interface {
	BackgroundColor  #008400
	BorderColor  #007F00
	FontColor #484848
}


skinparam storage {
	BackgroundColor #ff8000
  	BorderColor #cc6600
	FontColor #222222
}


skinparam node {
	BackgroundColor #333333
	BorderColor #333333
	FontColor #C8Ac00
}


skinparam cloud {
	BackgroundColor #484848-black
	BorderColor #484848
	FontColor #D8Bc00
}


skinparam database {
		FontColor #C8Ac00
	BorderColor #333333
	BackgroundColor #333333-#333333
	BackgroundColor  #333333
}


skinparam class {
		FontColor #C8Ac00
	BorderColor #333333
	BackgroundColor #333333-#333333
	HeaderBackgroundColor #1b1b1a
    BackgroundColor #282828
    BorderColor #5e5e5e
 	StereotypeFontColor #a0a0a0
    StereotypeFontStyle bold
	BorderThickness 1
	AttributeFontColor #D8Bc00
	AttributeFontSize 11
    FontColor #D8Bc00
    FontStyle bold
}


skinparam object {
		FontColor #C8Ac00
	BorderColor #333333
	BackgroundColor #333333-#333333
	StereotypeFontColor #484848
	BorderThickness 1
	AttributeFontColor #fefefe
	AttributeFontSize 11
}


skinparam usecase {
		FontColor #C8Ac00
	BorderColor #333333
	BackgroundColor #333333-#333333
	BorderThickness 2
	StereotypeFontColor #303030
}


skinparam rectangle {
		FontColor #C8Ac00
	BorderColor #333333
	BackgroundColor #333333-#333333
	BackgroundColor #333333
	BorderThickness 2
	StereotypeFontColor #303030
}


skinparam package {
		FontColor #C8Ac00
	BorderColor #333333
	BackgroundColor #333333-#333333
	BackgroundColor #333333
	BorderThickness 2
}


skinparam folder {
	BackgroundColor #6d6d6d
  	BorderColor #ff8000
	FontColor #ff8000
	BorderThickness 2
}


skinparam frame {
	BackgroundColor #6d6d6d
  	BorderColor #0060a8
	FontColor #0060a8
	BorderThickness 2
}


skinparam state {
		FontColor #C8Ac00
	BorderColor #333333
	BackgroundColor #333333-#333333
	StartColor #0060a8
	EndColor #0060a8
	AttributeFontColor #fefefe
	AttributeFontSize 11
}


skinparam queue {
		FontColor #C8Ac00
	BorderColor #333333
	BackgroundColor #333333-#333333
}


skinparam card {
	BackgroundColor #0060a8
	BorderColor #004d86
	FontColor $INFO_TEXT
}


skinparam file {
	BackgroundColor #6d6d6d-#484848
	BorderColor #0060a8
	FontColor #fefefe
}


skinparam stack {
		FontColor #C8Ac00
	BorderColor #333333
	BackgroundColor #333333-#333333
}

    
    title "com.telenav.aonia.map.data.formats.pbf.processing.filters.unidb"
    
    RelationFilter <|- - UniDbExcludeAdasRelationFilter
    class UniDbExcludeAdasRelationFilter
    {
        - -(constructors)- -
        +UniDbExcludeAdasRelationFilter()
    }
    
    WayFilter <|- - UniDbNavigableWayFilter
    class UniDbNavigableWayFilter
    {
        - -(constructors)- -
        +UniDbNavigableWayFilter()
    }
    
    RelationFilter <|- - UniDbRelationsFilter
    class UniDbRelationsFilter
    {
        - -(constructors)- -
        +UniDbRelationsFilter()
    }
    
@enduml

PlantUML version 1.2021.01(Tue Feb 02 00:55:08 MST 2021)
(GPL source distribution)
Java Runtime: Java(TM) SE Runtime Environment
JVM: Java HotSpot(TM) 64-Bit Server VM
Default Encoding: UTF-8
Language: en
Country: US
--></g></svg>