<?xml version="1.0" encoding="UTF-8" standalone="no"?><svg xmlns="http://www.w3.org/2000/svg" xmlns:xlink="http://www.w3.org/1999/xlink" contentScriptType="application/ecmascript" contentStyleType="text/css" height="348.9583px" preserveAspectRatio="none" style="width:2246px;height:348px;background:#333333;" version="1.1" viewBox="0 0 2246 348" width="2246.875px" zoomAndPan="magnify"><defs/><g><rect fill="#48494B" height="41.2028" rx="8.3333" ry="8.3333" style="stroke:#545454;stroke-width:1.0416666666666667;" width="208.3333" x="1012.2396" y="2.0833"/><text fill="#C0C0C0" font-family="Open Sans,Avenir,Nunito,Arial,Helvetica,SansSerif" font-size="20.8333" lengthAdjust="spacing" textLength="185.4167" x="1023.6979" y="30.5583">diagram-pbf-osm</text><!--MD5=[d79730e212aaab83526b3c982ee56b6e]
class PbfTagFilter--><rect codeLine="6" fill="#282828" height="48.055" id="PbfTagFilter" rx="8.3333" ry="8.3333" style="stroke:#5E5E5E;stroke-width:1.0416666666666667;" width="115.625" x="492.1875" y="101.0986"/><rect fill="#1B1B1A" height="31.3883" rx="8.3333" ry="8.3333" style="stroke:#1B1B1A;stroke-width:1.0416666666666667;" width="115.625" x="492.1875" y="101.0986"/><rect fill="#1B1B1A" height="8.3333" style="stroke:#1B1B1A;stroke-width:1.0416666666666667;" width="115.625" x="492.1875" y="124.1536"/><rect codeLine="6" fill="none" height="48.055" id="PbfTagFilter" rx="8.3333" ry="8.3333" style="stroke:#5E5E5E;stroke-width:1.0416666666666667;" width="115.625" x="492.1875" y="101.0986"/><ellipse cx="506.7708" cy="116.7928" fill="#008400" rx="10.4167" ry="10.4167" style="stroke:#239C23;stroke-width:1.0416666666666667;"/><path d="M503.654,113.9547 L503.654,112.3678 L509.08,112.3678 L509.08,113.9547 L507.2673,113.9547 L507.2673,119.8934 L509.08,119.8934 L509.08,121.4803 L503.654,121.4803 L503.654,119.8934 L505.4667,119.8934 L505.4667,113.9547 Z " fill="#000000"/><text fill="#D8BC00" font-family="Open Sans,Avenir,Nunito,Arial,Helvetica,SansSerif" font-size="12.5" font-style="italic" font-weight="bold" lengthAdjust="spacing" textLength="78.125" x="523.4375" y="121.5169">PbfTagFilter</text><line style="stroke:#5E5E5E;stroke-width:1.0416666666666667;" x1="493.2292" x2="606.7708" y1="132.487" y2="132.487"/><line style="stroke:#5E5E5E;stroke-width:1.0416666666666667;" x1="493.2292" x2="606.7708" y1="140.8203" y2="140.8203"/><!--MD5=[5e65761e48b3c42e80c38fb463c1d77b]
class Osm--><rect codeLine="8" fill="#282828" height="83.3781" id="Osm" rx="8.3333" ry="8.3333" style="stroke:#5E5E5E;stroke-width:1.0416666666666667;" width="191.6667" x="7.2917" y="83.3903"/><rect fill="#1B1B1A" height="31.3883" rx="8.3333" ry="8.3333" style="stroke:#1B1B1A;stroke-width:1.0416666666666667;" width="191.6667" x="7.2917" y="83.3903"/><rect fill="#1B1B1A" height="8.3333" style="stroke:#1B1B1A;stroke-width:1.0416666666666667;" width="191.6667" x="7.2917" y="106.4453"/><rect codeLine="8" fill="none" height="83.3781" id="Osm" rx="8.3333" ry="8.3333" style="stroke:#5E5E5E;stroke-width:1.0416666666666667;" width="191.6667" x="7.2917" y="83.3903"/><ellipse cx="80.7292" cy="99.0845" fill="#0066CF" rx="10.4167" ry="10.4167" style="stroke:#0086EF;stroke-width:1.0416666666666667;"/><path d="M82.6396,103.5095 Q82.2123,103.7292 81.7424,103.8391 Q81.2724,103.949 80.7536,103.949 Q78.9103,103.949 77.9399,102.7344 Q76.9694,101.5198 76.9694,99.2249 Q76.9694,96.9238 77.9399,95.7092 Q78.9103,94.4946 80.7536,94.4946 Q81.2724,94.4946 81.7485,94.6045 Q82.2245,94.7144 82.6396,94.9341 L82.6396,96.936 Q82.1757,96.5088 81.7393,96.3104 Q81.3029,96.1121 80.839,96.1121 Q79.8503,96.1121 79.3467,96.8964 Q78.8432,97.6807 78.8432,99.2249 Q78.8432,100.7629 79.3467,101.5472 Q79.8503,102.3315 80.839,102.3315 Q81.3029,102.3315 81.7393,102.1332 Q82.1757,101.9348 82.6396,101.5076 Z " fill="#000000"/><text fill="#D8BC00" font-family="Open Sans,Avenir,Nunito,Arial,Helvetica,SansSerif" font-size="12.5" font-weight="bold" lengthAdjust="spacing" textLength="30.2083" x="103.6458" y="103.8086">Osm</text><line style="stroke:#5E5E5E;stroke-width:1.5625;" x1="8.3333" x2="197.9167" y1="114.7786" y2="114.7786"/><ellipse cx="18.75" cy="150.1485" fill="#84BE84" rx="3.125" ry="3.125" style="stroke:#038048;stroke-width:1.0416666666666667;"/><text fill="#D8BC00" font-family="Open Sans,Avenir,Nunito,Arial,Helvetica,SansSerif" font-size="11.4583" lengthAdjust="spacing" textLength="159.375" x="30.2083" y="157.0597">boolean isNavigable(PbfWay)</text><line style="stroke:#5E5E5E;stroke-width:1.0416666666666667;" x1="8.3333" x2="76.5625" y1="132.9844" y2="132.9844"/><text fill="#D8BC00" font-family="Open Sans,Avenir,Nunito,Arial,Helvetica,SansSerif" font-size="11.4583" lengthAdjust="spacing" textLength="46.875" x="79.6875" y="136.794">(checks)</text><line style="stroke:#5E5E5E;stroke-width:1.0416666666666667;" x1="129.6875" x2="197.9167" y1="132.9844" y2="132.9844"/><!--MD5=[296971189912b7d7a3ae0a5bad58974f]
class WayFilter--><rect fill="#282828" height="48.055" id="WayFilter" rx="8.3333" ry="8.3333" style="stroke:#5E5E5E;stroke-width:1.0416666666666667;" width="96.875" x="1374.4792" y="101.0986"/><rect fill="#1B1B1A" height="31.3883" rx="8.3333" ry="8.3333" style="stroke:#1B1B1A;stroke-width:1.0416666666666667;" width="96.875" x="1374.4792" y="101.0986"/><rect fill="#1B1B1A" height="8.3333" style="stroke:#1B1B1A;stroke-width:1.0416666666666667;" width="96.875" x="1374.4792" y="124.1536"/><rect fill="none" height="48.055" id="WayFilter" rx="8.3333" ry="8.3333" style="stroke:#5E5E5E;stroke-width:1.0416666666666667;" width="96.875" x="1374.4792" y="101.0986"/><ellipse cx="1389.0625" cy="116.7928" fill="#0066CF" rx="10.4167" ry="10.4167" style="stroke:#0086EF;stroke-width:1.0416666666666667;"/><path d="M1390.9729,121.2179 Q1390.5457,121.4376 1390.0757,121.5474 Q1389.6057,121.6573 1389.0869,121.6573 Q1387.2437,121.6573 1386.2732,120.4427 Q1385.3027,119.2281 1385.3027,116.9332 Q1385.3027,114.6322 1386.2732,113.4176 Q1387.2437,112.203 1389.0869,112.203 Q1389.6057,112.203 1390.0818,112.3128 Q1390.5579,112.4227 1390.9729,112.6424 L1390.9729,114.6444 Q1390.509,114.2171 1390.0726,114.0188 Q1389.6362,113.8204 1389.1724,113.8204 Q1388.1836,113.8204 1387.6801,114.6047 Q1387.1765,115.389 1387.1765,116.9332 Q1387.1765,118.4713 1387.6801,119.2556 Q1388.1836,120.0399 1389.1724,120.0399 Q1389.6362,120.0399 1390.0726,119.8415 Q1390.509,119.6431 1390.9729,119.2159 Z " fill="#000000"/><text fill="#D8BC00" font-family="Open Sans,Avenir,Nunito,Arial,Helvetica,SansSerif" font-size="12.5" font-weight="bold" lengthAdjust="spacing" textLength="59.375" x="1405.7292" y="121.5169">WayFilter</text><line style="stroke:#5E5E5E;stroke-width:1.0416666666666667;" x1="1375.5208" x2="1470.3125" y1="132.487" y2="132.487"/><line style="stroke:#5E5E5E;stroke-width:1.0416666666666667;" x1="1375.5208" x2="1470.3125" y1="140.8203" y2="140.8203"/><!--MD5=[63083adeef258047f67378851df4e650]
class OsmExcludeNonDrivableWaysFilter--><rect codeLine="15" fill="#282828" height="83.3781" id="OsmExcludeNonDrivableWaysFilter" rx="8.3333" ry="8.3333" style="stroke:#5E5E5E;stroke-width:1.0416666666666667;" width="263.5417" x="660.9375" y="258.9111"/><rect fill="#1B1B1A" height="31.3883" rx="8.3333" ry="8.3333" style="stroke:#1B1B1A;stroke-width:1.0416666666666667;" width="263.5417" x="660.9375" y="258.9111"/><rect fill="#1B1B1A" height="8.3333" style="stroke:#1B1B1A;stroke-width:1.0416666666666667;" width="263.5417" x="660.9375" y="281.9661"/><rect codeLine="15" fill="none" height="83.3781" id="OsmExcludeNonDrivableWaysFilter" rx="8.3333" ry="8.3333" style="stroke:#5E5E5E;stroke-width:1.0416666666666667;" width="263.5417" x="660.9375" y="258.9111"/><ellipse cx="675.5208" cy="274.6053" fill="#0066CF" rx="10.4167" ry="10.4167" style="stroke:#0086EF;stroke-width:1.0416666666666667;"/><path d="M677.4312,279.0304 Q677.004,279.2501 676.534,279.3599 Q676.064,279.4698 675.5452,279.4698 Q673.702,279.4698 672.7315,278.2552 Q671.7611,277.0406 671.7611,274.7457 Q671.7611,272.4447 672.7315,271.2301 Q673.702,270.0155 675.5452,270.0155 Q676.064,270.0155 676.5401,270.1253 Q677.0162,270.2352 677.4312,270.4549 L677.4312,272.4569 Q676.9674,272.0296 676.531,271.8313 Q676.0946,271.6329 675.6307,271.6329 Q674.6419,271.6329 674.1384,272.4172 Q673.6348,273.2015 673.6348,274.7457 Q673.6348,276.2838 674.1384,277.0681 Q674.6419,277.8524 675.6307,277.8524 Q676.0946,277.8524 676.531,277.654 Q676.9674,277.4556 677.4312,277.0284 Z " fill="#000000"/><text fill="#D8BC00" font-family="Open Sans,Avenir,Nunito,Arial,Helvetica,SansSerif" font-size="12.5" font-weight="bold" lengthAdjust="spacing" textLength="226.0417" x="692.1875" y="279.3294">OsmExcludeNonDrivableWaysFilter</text><line style="stroke:#5E5E5E;stroke-width:1.5625;" x1="661.9792" x2="923.4375" y1="290.2995" y2="290.2995"/><ellipse cx="672.3958" cy="325.6694" fill="#84BE84" rx="3.125" ry="3.125" style="stroke:#038048;stroke-width:1.0416666666666667;"/><text fill="#D8BC00" font-family="Open Sans,Avenir,Nunito,Arial,Helvetica,SansSerif" font-size="11.4583" lengthAdjust="spacing" textLength="203.125" x="683.8542" y="332.5806">OsmExcludeNonDrivableWaysFilter()</text><line style="stroke:#5E5E5E;stroke-width:1.0416666666666667;" x1="661.9792" x2="748.9583" y1="308.5052" y2="308.5052"/><text fill="#D8BC00" font-family="Open Sans,Avenir,Nunito,Arial,Helvetica,SansSerif" font-size="11.4583" lengthAdjust="spacing" textLength="81.25" x="752.0833" y="312.3149">(constructors)</text><line style="stroke:#5E5E5E;stroke-width:1.0416666666666667;" x1="836.4583" x2="923.4375" y1="308.5052" y2="308.5052"/><!--MD5=[5a2fc26594d1ea51af661363631dd95e]
class OsmHighwayTag--><rect codeLine="21" fill="#282828" height="142.6127" id="OsmHighwayTag" rx="8.3333" ry="8.3333" style="stroke:#5E5E5E;stroke-width:1.0416666666666667;" width="219.7917" x="235.9375" y="53.7028"/><rect fill="#1B1B1A" height="31.3883" rx="8.3333" ry="8.3333" style="stroke:#1B1B1A;stroke-width:1.0416666666666667;" width="219.7917" x="235.9375" y="53.7028"/><rect fill="#1B1B1A" height="8.3333" style="stroke:#1B1B1A;stroke-width:1.0416666666666667;" width="219.7917" x="235.9375" y="76.7578"/><rect codeLine="21" fill="none" height="142.6127" id="OsmHighwayTag" rx="8.3333" ry="8.3333" style="stroke:#5E5E5E;stroke-width:1.0416666666666667;" width="219.7917" x="235.9375" y="53.7028"/><ellipse cx="283.8542" cy="69.397" fill="#0066CF" rx="10.4167" ry="10.4167" style="stroke:#0086EF;stroke-width:1.0416666666666667;"/><path d="M285.7646,73.822 Q285.3373,74.0417 284.8674,74.1516 Q284.3974,74.2615 283.8786,74.2615 Q282.0353,74.2615 281.0649,73.0469 Q280.0944,71.8323 280.0944,69.5374 Q280.0944,67.2363 281.0649,66.0217 Q282.0353,64.8071 283.8786,64.8071 Q284.3974,64.8071 284.8735,64.917 Q285.3495,65.0269 285.7646,65.2466 L285.7646,67.2485 Q285.3007,66.8213 284.8643,66.6229 Q284.4279,66.4246 283.964,66.4246 Q282.9753,66.4246 282.4717,67.2089 Q281.9682,67.9932 281.9682,69.5374 Q281.9682,71.0754 282.4717,71.8597 Q282.9753,72.644 283.964,72.644 Q284.4279,72.644 284.8643,72.4457 Q285.3007,72.2473 285.7646,71.8201 Z " fill="#000000"/><text fill="#D8BC00" font-family="Open Sans,Avenir,Nunito,Arial,Helvetica,SansSerif" font-size="12.5" font-weight="bold" lengthAdjust="spacing" textLength="109.375" x="306.7708" y="74.1211">OsmHighwayTag</text><line style="stroke:#5E5E5E;stroke-width:1.5625;" x1="236.9792" x2="454.6875" y1="85.0911" y2="85.0911"/><ellipse cx="247.3958" cy="120.461" fill="#84BE84" rx="3.125" ry="3.125" style="stroke:#038048;stroke-width:1.0416666666666667;"/><text fill="#D8BC00" font-family="Open Sans,Avenir,Nunito,Arial,Helvetica,SansSerif" font-size="11.4583" lengthAdjust="spacing" textLength="187.5" x="258.8542" y="127.3722">boolean isNavigableHighway(Tag)</text><ellipse cx="247.3958" cy="140.2059" fill="#84BE84" rx="3.125" ry="3.125" style="stroke:#038048;stroke-width:1.0416666666666667;"/><text fill="#D8BC00" font-family="Open Sans,Avenir,Nunito,Arial,Helvetica,SansSerif" font-size="11.4583" lengthAdjust="spacing" textLength="169.7917" x="258.8542" y="147.1171">boolean isNullServiceWay(Tag)</text><ellipse cx="247.3958" cy="159.9508" fill="#84BE84" rx="3.125" ry="3.125" style="stroke:#038048;stroke-width:1.0416666666666667;"/><text fill="#D8BC00" font-family="Open Sans,Avenir,Nunito,Arial,Helvetica,SansSerif" font-size="11.4583" lengthAdjust="spacing" textLength="163.5417" x="258.8542" y="166.862">boolean isPrivateAccess(Tag)</text><ellipse cx="247.3958" cy="179.6956" fill="#84BE84" rx="3.125" ry="3.125" style="stroke:#038048;stroke-width:1.0416666666666667;"/><text fill="#D8BC00" font-family="Open Sans,Avenir,Nunito,Arial,Helvetica,SansSerif" font-size="11.4583" lengthAdjust="spacing" textLength="147.9167" x="258.8542" y="186.6069">boolean isServiceWay(Tag)</text><line style="stroke:#5E5E5E;stroke-width:1.0416666666666667;" x1="236.9792" x2="319.2708" y1="103.2969" y2="103.2969"/><text fill="#D8BC00" font-family="Open Sans,Avenir,Nunito,Arial,Helvetica,SansSerif" font-size="11.4583" lengthAdjust="spacing" textLength="46.875" x="322.3958" y="107.1065">(checks)</text><line style="stroke:#5E5E5E;stroke-width:1.0416666666666667;" x1="372.3958" x2="454.6875" y1="103.2969" y2="103.2969"/><!--MD5=[75def86904a75e28a867624ce08e148a]
class OsmIgnoredTags--><rect codeLine="31" fill="#282828" height="83.3781" id="OsmIgnoredTags" rx="8.3333" ry="8.3333" style="stroke:#5E5E5E;stroke-width:1.0416666666666667;" width="148.9583" x="475.5208" y="258.9111"/><rect fill="#1B1B1A" height="31.3883" rx="8.3333" ry="8.3333" style="stroke:#1B1B1A;stroke-width:1.0416666666666667;" width="148.9583" x="475.5208" y="258.9111"/><rect fill="#1B1B1A" height="8.3333" style="stroke:#1B1B1A;stroke-width:1.0416666666666667;" width="148.9583" x="475.5208" y="281.9661"/><rect codeLine="31" fill="none" height="83.3781" id="OsmIgnoredTags" rx="8.3333" ry="8.3333" style="stroke:#5E5E5E;stroke-width:1.0416666666666667;" width="148.9583" x="475.5208" y="258.9111"/><ellipse cx="490.1042" cy="274.6053" fill="#0066CF" rx="10.4167" ry="10.4167" style="stroke:#0086EF;stroke-width:1.0416666666666667;"/><path d="M492.0146,279.0304 Q491.5873,279.2501 491.1174,279.3599 Q490.6474,279.4698 490.1286,279.4698 Q488.2853,279.4698 487.3149,278.2552 Q486.3444,277.0406 486.3444,274.7457 Q486.3444,272.4447 487.3149,271.2301 Q488.2853,270.0155 490.1286,270.0155 Q490.6474,270.0155 491.1235,270.1253 Q491.5995,270.2352 492.0146,270.4549 L492.0146,272.4569 Q491.5507,272.0296 491.1143,271.8313 Q490.6779,271.6329 490.214,271.6329 Q489.2253,271.6329 488.7217,272.4172 Q488.2182,273.2015 488.2182,274.7457 Q488.2182,276.2838 488.7217,277.0681 Q489.2253,277.8524 490.214,277.8524 Q490.6779,277.8524 491.1143,277.654 Q491.5507,277.4556 492.0146,277.0284 Z " fill="#000000"/><text fill="#D8BC00" font-family="Open Sans,Avenir,Nunito,Arial,Helvetica,SansSerif" font-size="12.5" font-weight="bold" lengthAdjust="spacing" textLength="111.4583" x="506.7708" y="279.3294">OsmIgnoredTags</text><line style="stroke:#5E5E5E;stroke-width:1.5625;" x1="476.5625" x2="623.4375" y1="290.2995" y2="290.2995"/><ellipse cx="486.9792" cy="325.6694" fill="#84BE84" rx="3.125" ry="3.125" style="stroke:#038048;stroke-width:1.0416666666666667;"/><text fill="#D8BC00" font-family="Open Sans,Avenir,Nunito,Arial,Helvetica,SansSerif" font-size="11.4583" lengthAdjust="spacing" textLength="105.2083" x="498.4375" y="332.5806">OsmIgnoredTags()</text><line style="stroke:#5E5E5E;stroke-width:1.0416666666666667;" x1="476.5625" x2="506.25" y1="308.5052" y2="308.5052"/><text fill="#D8BC00" font-family="Open Sans,Avenir,Nunito,Arial,Helvetica,SansSerif" font-size="11.4583" lengthAdjust="spacing" textLength="81.25" x="509.375" y="312.3149">(constructors)</text><line style="stroke:#5E5E5E;stroke-width:1.0416666666666667;" x1="593.75" x2="623.4375" y1="308.5052" y2="308.5052"/><!--MD5=[119ea91bb4873bb13afcf508fee01aa0]
class OsmMajorRoadsWayFilter--><rect codeLine="38" fill="#282828" height="83.3781" id="OsmMajorRoadsWayFilter" rx="8.3333" ry="8.3333" style="stroke:#5E5E5E;stroke-width:1.0416666666666667;" width="203.125" x="960.9375" y="258.9111"/><rect fill="#1B1B1A" height="31.3883" rx="8.3333" ry="8.3333" style="stroke:#1B1B1A;stroke-width:1.0416666666666667;" width="203.125" x="960.9375" y="258.9111"/><rect fill="#1B1B1A" height="8.3333" style="stroke:#1B1B1A;stroke-width:1.0416666666666667;" width="203.125" x="960.9375" y="281.9661"/><rect codeLine="38" fill="none" height="83.3781" id="OsmMajorRoadsWayFilter" rx="8.3333" ry="8.3333" style="stroke:#5E5E5E;stroke-width:1.0416666666666667;" width="203.125" x="960.9375" y="258.9111"/><ellipse cx="975.5208" cy="274.6053" fill="#0066CF" rx="10.4167" ry="10.4167" style="stroke:#0086EF;stroke-width:1.0416666666666667;"/><path d="M977.4312,279.0304 Q977.004,279.2501 976.534,279.3599 Q976.064,279.4698 975.5452,279.4698 Q973.702,279.4698 972.7315,278.2552 Q971.7611,277.0406 971.7611,274.7457 Q971.7611,272.4447 972.7315,271.2301 Q973.702,270.0155 975.5452,270.0155 Q976.064,270.0155 976.5401,270.1253 Q977.0162,270.2352 977.4312,270.4549 L977.4312,272.4569 Q976.9674,272.0296 976.531,271.8313 Q976.0946,271.6329 975.6307,271.6329 Q974.6419,271.6329 974.1384,272.4172 Q973.6348,273.2015 973.6348,274.7457 Q973.6348,276.2838 974.1384,277.0681 Q974.6419,277.8524 975.6307,277.8524 Q976.0946,277.8524 976.531,277.654 Q976.9674,277.4556 977.4312,277.0284 Z " fill="#000000"/><text fill="#D8BC00" font-family="Open Sans,Avenir,Nunito,Arial,Helvetica,SansSerif" font-size="12.5" font-weight="bold" lengthAdjust="spacing" textLength="165.625" x="992.1875" y="279.3294">OsmMajorRoadsWayFilter</text><line style="stroke:#5E5E5E;stroke-width:1.5625;" x1="961.9792" x2="1163.0208" y1="290.2995" y2="290.2995"/><ellipse cx="972.3958" cy="325.6694" fill="#84BE84" rx="3.125" ry="3.125" style="stroke:#038048;stroke-width:1.0416666666666667;"/><text fill="#D8BC00" font-family="Open Sans,Avenir,Nunito,Arial,Helvetica,SansSerif" font-size="11.4583" lengthAdjust="spacing" textLength="150" x="983.8542" y="332.5806">OsmMajorRoadsWayFilter()</text><line style="stroke:#5E5E5E;stroke-width:1.0416666666666667;" x1="961.9792" x2="1018.75" y1="308.5052" y2="308.5052"/><text fill="#D8BC00" font-family="Open Sans,Avenir,Nunito,Arial,Helvetica,SansSerif" font-size="11.4583" lengthAdjust="spacing" textLength="81.25" x="1021.875" y="312.3149">(constructors)</text><line style="stroke:#5E5E5E;stroke-width:1.0416666666666667;" x1="1106.25" x2="1163.0208" y1="308.5052" y2="308.5052"/><!--MD5=[d7c6a7e2d3c78778ee54038d5529a38e]
class OsmNavigableWayFilter--><rect codeLine="45" fill="#282828" height="83.3781" id="OsmNavigableWayFilter" rx="8.3333" ry="8.3333" style="stroke:#5E5E5E;stroke-width:1.0416666666666667;" width="190.625" x="1200.5208" y="258.9111"/><rect fill="#1B1B1A" height="31.3883" rx="8.3333" ry="8.3333" style="stroke:#1B1B1A;stroke-width:1.0416666666666667;" width="190.625" x="1200.5208" y="258.9111"/><rect fill="#1B1B1A" height="8.3333" style="stroke:#1B1B1A;stroke-width:1.0416666666666667;" width="190.625" x="1200.5208" y="281.9661"/><rect codeLine="45" fill="none" height="83.3781" id="OsmNavigableWayFilter" rx="8.3333" ry="8.3333" style="stroke:#5E5E5E;stroke-width:1.0416666666666667;" width="190.625" x="1200.5208" y="258.9111"/><ellipse cx="1215.1042" cy="274.6053" fill="#0066CF" rx="10.4167" ry="10.4167" style="stroke:#0086EF;stroke-width:1.0416666666666667;"/><path d="M1217.0146,279.0304 Q1216.5873,279.2501 1216.1174,279.3599 Q1215.6474,279.4698 1215.1286,279.4698 Q1213.2853,279.4698 1212.3149,278.2552 Q1211.3444,277.0406 1211.3444,274.7457 Q1211.3444,272.4447 1212.3149,271.2301 Q1213.2853,270.0155 1215.1286,270.0155 Q1215.6474,270.0155 1216.1235,270.1253 Q1216.5995,270.2352 1217.0146,270.4549 L1217.0146,272.4569 Q1216.5507,272.0296 1216.1143,271.8313 Q1215.6779,271.6329 1215.214,271.6329 Q1214.2253,271.6329 1213.7217,272.4172 Q1213.2182,273.2015 1213.2182,274.7457 Q1213.2182,276.2838 1213.7217,277.0681 Q1214.2253,277.8524 1215.214,277.8524 Q1215.6779,277.8524 1216.1143,277.654 Q1216.5507,277.4556 1217.0146,277.0284 Z " fill="#000000"/><text fill="#D8BC00" font-family="Open Sans,Avenir,Nunito,Arial,Helvetica,SansSerif" font-size="12.5" font-weight="bold" lengthAdjust="spacing" textLength="153.125" x="1231.7708" y="279.3294">OsmNavigableWayFilter</text><line style="stroke:#5E5E5E;stroke-width:1.5625;" x1="1201.5625" x2="1390.1042" y1="290.2995" y2="290.2995"/><ellipse cx="1211.9792" cy="325.6694" fill="#84BE84" rx="3.125" ry="3.125" style="stroke:#038048;stroke-width:1.0416666666666667;"/><text fill="#D8BC00" font-family="Open Sans,Avenir,Nunito,Arial,Helvetica,SansSerif" font-size="11.4583" lengthAdjust="spacing" textLength="138.5417" x="1223.4375" y="332.5806">OsmNavigableWayFilter()</text><line style="stroke:#5E5E5E;stroke-width:1.0416666666666667;" x1="1201.5625" x2="1252.0833" y1="308.5052" y2="308.5052"/><text fill="#D8BC00" font-family="Open Sans,Avenir,Nunito,Arial,Helvetica,SansSerif" font-size="11.4583" lengthAdjust="spacing" textLength="81.25" x="1255.2083" y="312.3149">(constructors)</text><line style="stroke:#5E5E5E;stroke-width:1.0416666666666667;" x1="1339.5833" x2="1390.1042" y1="308.5052" y2="308.5052"/><!--MD5=[2d231b1233a57591fc90cf955c8192ff]
class OsmRelationTag--><rect codeLine="51" fill="#282828" height="48.055" id="OsmRelationTag" rx="8.3333" ry="8.3333" style="stroke:#5E5E5E;stroke-width:1.0416666666666667;" width="144.7917" x="30.7292" y="276.6195"/><rect fill="#1B1B1A" height="31.3883" rx="8.3333" ry="8.3333" style="stroke:#1B1B1A;stroke-width:1.0416666666666667;" width="144.7917" x="30.7292" y="276.6195"/><rect fill="#1B1B1A" height="8.3333" style="stroke:#1B1B1A;stroke-width:1.0416666666666667;" width="144.7917" x="30.7292" y="299.6745"/><rect codeLine="51" fill="none" height="48.055" id="OsmRelationTag" rx="8.3333" ry="8.3333" style="stroke:#5E5E5E;stroke-width:1.0416666666666667;" width="144.7917" x="30.7292" y="276.6195"/><ellipse cx="45.3125" cy="292.3136" fill="#0066CF" rx="10.4167" ry="10.4167" style="stroke:#0086EF;stroke-width:1.0416666666666667;"/><path d="M47.2229,296.7387 Q46.7957,296.9584 46.3257,297.0683 Q45.8557,297.1781 45.3369,297.1781 Q43.4937,297.1781 42.5232,295.9635 Q41.5527,294.7489 41.5527,292.454 Q41.5527,290.153 42.5232,288.9384 Q43.4937,287.7238 45.3369,287.7238 Q45.8557,287.7238 46.3318,287.8337 Q46.8079,287.9435 47.2229,288.1632 L47.2229,290.1652 Q46.759,289.738 46.3226,289.5396 Q45.8862,289.3412 45.4224,289.3412 Q44.4336,289.3412 43.9301,290.1255 Q43.4265,290.9098 43.4265,292.454 Q43.4265,293.9921 43.9301,294.7764 Q44.4336,295.5607 45.4224,295.5607 Q45.8862,295.5607 46.3226,295.3623 Q46.759,295.164 47.2229,294.7367 Z " fill="#000000"/><text fill="#D8BC00" font-family="Open Sans,Avenir,Nunito,Arial,Helvetica,SansSerif" font-size="12.5" font-weight="bold" lengthAdjust="spacing" textLength="107.2917" x="61.9792" y="297.0378">OsmRelationTag</text><line style="stroke:#5E5E5E;stroke-width:1.0416666666666667;" x1="31.7708" x2="174.4792" y1="308.0078" y2="308.0078"/><line style="stroke:#5E5E5E;stroke-width:1.0416666666666667;" x1="31.7708" x2="174.4792" y1="316.3411" y2="316.3411"/><!--MD5=[7641309704a2ba86945d63525f0a850a]
class RelationFilter--><rect fill="#282828" height="48.055" id="RelationFilter" rx="8.3333" ry="8.3333" style="stroke:#5E5E5E;stroke-width:1.0416666666666667;" width="123.9583" x="2097.3958" y="101.0986"/><rect fill="#1B1B1A" height="31.3883" rx="8.3333" ry="8.3333" style="stroke:#1B1B1A;stroke-width:1.0416666666666667;" width="123.9583" x="2097.3958" y="101.0986"/><rect fill="#1B1B1A" height="8.3333" style="stroke:#1B1B1A;stroke-width:1.0416666666666667;" width="123.9583" x="2097.3958" y="124.1536"/><rect fill="none" height="48.055" id="RelationFilter" rx="8.3333" ry="8.3333" style="stroke:#5E5E5E;stroke-width:1.0416666666666667;" width="123.9583" x="2097.3958" y="101.0986"/><ellipse cx="2111.9792" cy="116.7928" fill="#0066CF" rx="10.4167" ry="10.4167" style="stroke:#0086EF;stroke-width:1.0416666666666667;"/><path d="M2113.8896,121.2179 Q2113.4623,121.4376 2112.9924,121.5474 Q2112.5224,121.6573 2112.0036,121.6573 Q2110.1603,121.6573 2109.1899,120.4427 Q2108.2194,119.2281 2108.2194,116.9332 Q2108.2194,114.6322 2109.1899,113.4176 Q2110.1603,112.203 2112.0036,112.203 Q2112.5224,112.203 2112.9985,112.3128 Q2113.4745,112.4227 2113.8896,112.6424 L2113.8896,114.6444 Q2113.4257,114.2171 2112.9893,114.0188 Q2112.5529,113.8204 2112.089,113.8204 Q2111.1003,113.8204 2110.5967,114.6047 Q2110.0932,115.389 2110.0932,116.9332 Q2110.0932,118.4713 2110.5967,119.2556 Q2111.1003,120.0399 2112.089,120.0399 Q2112.5529,120.0399 2112.9893,119.8415 Q2113.4257,119.6431 2113.8896,119.2159 Z " fill="#000000"/><text fill="#D8BC00" font-family="Open Sans,Avenir,Nunito,Arial,Helvetica,SansSerif" font-size="12.5" font-weight="bold" lengthAdjust="spacing" textLength="86.4583" x="2128.6458" y="121.5169">RelationFilter</text><line style="stroke:#5E5E5E;stroke-width:1.0416666666666667;" x1="2098.4375" x2="2220.3125" y1="132.487" y2="132.487"/><line style="stroke:#5E5E5E;stroke-width:1.0416666666666667;" x1="2098.4375" x2="2220.3125" y1="140.8203" y2="140.8203"/><!--MD5=[2750498f001e3b0da027dbc8c3745c5b]
class OsmRelationsFilter--><rect codeLine="56" fill="#282828" height="83.3781" id="OsmRelationsFilter" rx="8.3333" ry="8.3333" style="stroke:#5E5E5E;stroke-width:1.0416666666666667;" width="161.4583" x="2078.6458" y="258.9111"/><rect fill="#1B1B1A" height="31.3883" rx="8.3333" ry="8.3333" style="stroke:#1B1B1A;stroke-width:1.0416666666666667;" width="161.4583" x="2078.6458" y="258.9111"/><rect fill="#1B1B1A" height="8.3333" style="stroke:#1B1B1A;stroke-width:1.0416666666666667;" width="161.4583" x="2078.6458" y="281.9661"/><rect codeLine="56" fill="none" height="83.3781" id="OsmRelationsFilter" rx="8.3333" ry="8.3333" style="stroke:#5E5E5E;stroke-width:1.0416666666666667;" width="161.4583" x="2078.6458" y="258.9111"/><ellipse cx="2093.2292" cy="274.6053" fill="#0066CF" rx="10.4167" ry="10.4167" style="stroke:#0086EF;stroke-width:1.0416666666666667;"/><path d="M2095.1396,279.0304 Q2094.7123,279.2501 2094.2424,279.3599 Q2093.7724,279.4698 2093.2536,279.4698 Q2091.4103,279.4698 2090.4399,278.2552 Q2089.4694,277.0406 2089.4694,274.7457 Q2089.4694,272.4447 2090.4399,271.2301 Q2091.4103,270.0155 2093.2536,270.0155 Q2093.7724,270.0155 2094.2485,270.1253 Q2094.7245,270.2352 2095.1396,270.4549 L2095.1396,272.4569 Q2094.6757,272.0296 2094.2393,271.8313 Q2093.8029,271.6329 2093.339,271.6329 Q2092.3503,271.6329 2091.8467,272.4172 Q2091.3432,273.2015 2091.3432,274.7457 Q2091.3432,276.2838 2091.8467,277.0681 Q2092.3503,277.8524 2093.339,277.8524 Q2093.8029,277.8524 2094.2393,277.654 Q2094.6757,277.4556 2095.1396,277.0284 Z " fill="#000000"/><text fill="#D8BC00" font-family="Open Sans,Avenir,Nunito,Arial,Helvetica,SansSerif" font-size="12.5" font-weight="bold" lengthAdjust="spacing" textLength="123.9583" x="2109.8958" y="279.3294">OsmRelationsFilter</text><line style="stroke:#5E5E5E;stroke-width:1.5625;" x1="2079.6875" x2="2239.0625" y1="290.2995" y2="290.2995"/><ellipse cx="2090.1042" cy="325.6694" fill="#84BE84" rx="3.125" ry="3.125" style="stroke:#038048;stroke-width:1.0416666666666667;"/><text fill="#D8BC00" font-family="Open Sans,Avenir,Nunito,Arial,Helvetica,SansSerif" font-size="11.4583" lengthAdjust="spacing" textLength="113.5417" x="2101.5625" y="332.5806">OsmRelationsFilter()</text><line style="stroke:#5E5E5E;stroke-width:1.0416666666666667;" x1="2079.6875" x2="2115.625" y1="308.5052" y2="308.5052"/><text fill="#D8BC00" font-family="Open Sans,Avenir,Nunito,Arial,Helvetica,SansSerif" font-size="11.4583" lengthAdjust="spacing" textLength="81.25" x="2118.75" y="312.3149">(constructors)</text><line style="stroke:#5E5E5E;stroke-width:1.0416666666666667;" x1="2203.125" x2="2239.0625" y1="308.5052" y2="308.5052"/><!--MD5=[164a883fe2e129d641598c240b37de40]
class OsmTeamDataPipelineWayFilter--><rect codeLine="63" fill="#282828" height="83.3781" id="OsmTeamDataPipelineWayFilter" rx="8.3333" ry="8.3333" style="stroke:#5E5E5E;stroke-width:1.0416666666666667;" width="243.75" x="1428.125" y="258.9111"/><rect fill="#1B1B1A" height="31.3883" rx="8.3333" ry="8.3333" style="stroke:#1B1B1A;stroke-width:1.0416666666666667;" width="243.75" x="1428.125" y="258.9111"/><rect fill="#1B1B1A" height="8.3333" style="stroke:#1B1B1A;stroke-width:1.0416666666666667;" width="243.75" x="1428.125" y="281.9661"/><rect codeLine="63" fill="none" height="83.3781" id="OsmTeamDataPipelineWayFilter" rx="8.3333" ry="8.3333" style="stroke:#5E5E5E;stroke-width:1.0416666666666667;" width="243.75" x="1428.125" y="258.9111"/><ellipse cx="1442.7083" cy="274.6053" fill="#0066CF" rx="10.4167" ry="10.4167" style="stroke:#0086EF;stroke-width:1.0416666666666667;"/><path d="M1444.6187,279.0304 Q1444.1915,279.2501 1443.7215,279.3599 Q1443.2515,279.4698 1442.7327,279.4698 Q1440.8895,279.4698 1439.919,278.2552 Q1438.9486,277.0406 1438.9486,274.7457 Q1438.9486,272.4447 1439.919,271.2301 Q1440.8895,270.0155 1442.7327,270.0155 Q1443.2515,270.0155 1443.7276,270.1253 Q1444.2037,270.2352 1444.6187,270.4549 L1444.6187,272.4569 Q1444.1549,272.0296 1443.7185,271.8313 Q1443.2821,271.6329 1442.8182,271.6329 Q1441.8294,271.6329 1441.3259,272.4172 Q1440.8223,273.2015 1440.8223,274.7457 Q1440.8223,276.2838 1441.3259,277.0681 Q1441.8294,277.8524 1442.8182,277.8524 Q1443.2821,277.8524 1443.7185,277.654 Q1444.1549,277.4556 1444.6187,277.0284 Z " fill="#000000"/><text fill="#D8BC00" font-family="Open Sans,Avenir,Nunito,Arial,Helvetica,SansSerif" font-size="12.5" font-weight="bold" lengthAdjust="spacing" textLength="206.25" x="1459.375" y="279.3294">OsmTeamDataPipelineWayFilter</text><line style="stroke:#5E5E5E;stroke-width:1.5625;" x1="1429.1667" x2="1670.8333" y1="290.2995" y2="290.2995"/><ellipse cx="1439.5833" cy="325.6694" fill="#84BE84" rx="3.125" ry="3.125" style="stroke:#038048;stroke-width:1.0416666666666667;"/><text fill="#D8BC00" font-family="Open Sans,Avenir,Nunito,Arial,Helvetica,SansSerif" font-size="11.4583" lengthAdjust="spacing" textLength="182.2917" x="1451.0417" y="332.5806">OsmTeamDataPipelineWayFilter()</text><line style="stroke:#5E5E5E;stroke-width:1.0416666666666667;" x1="1429.1667" x2="1506.25" y1="308.5052" y2="308.5052"/><text fill="#D8BC00" font-family="Open Sans,Avenir,Nunito,Arial,Helvetica,SansSerif" font-size="11.4583" lengthAdjust="spacing" textLength="81.25" x="1509.375" y="312.3149">(constructors)</text><line style="stroke:#5E5E5E;stroke-width:1.0416666666666667;" x1="1593.75" x2="1670.8333" y1="308.5052" y2="308.5052"/><!--MD5=[6e08c50f52527bc12bb7c62a9275ce94]
class OsmTeamWayFilter--><rect codeLine="70" fill="#282828" height="83.3781" id="OsmTeamWayFilter" rx="8.3333" ry="8.3333" style="stroke:#5E5E5E;stroke-width:1.0416666666666667;" width="162.5" x="1708.3333" y="258.9111"/><rect fill="#1B1B1A" height="31.3883" rx="8.3333" ry="8.3333" style="stroke:#1B1B1A;stroke-width:1.0416666666666667;" width="162.5" x="1708.3333" y="258.9111"/><rect fill="#1B1B1A" height="8.3333" style="stroke:#1B1B1A;stroke-width:1.0416666666666667;" width="162.5" x="1708.3333" y="281.9661"/><rect codeLine="70" fill="none" height="83.3781" id="OsmTeamWayFilter" rx="8.3333" ry="8.3333" style="stroke:#5E5E5E;stroke-width:1.0416666666666667;" width="162.5" x="1708.3333" y="258.9111"/><ellipse cx="1722.9167" cy="274.6053" fill="#0066CF" rx="10.4167" ry="10.4167" style="stroke:#0086EF;stroke-width:1.0416666666666667;"/><path d="M1724.8271,279.0304 Q1724.3998,279.2501 1723.9299,279.3599 Q1723.4599,279.4698 1722.9411,279.4698 Q1721.0978,279.4698 1720.1274,278.2552 Q1719.1569,277.0406 1719.1569,274.7457 Q1719.1569,272.4447 1720.1274,271.2301 Q1721.0978,270.0155 1722.9411,270.0155 Q1723.4599,270.0155 1723.936,270.1253 Q1724.412,270.2352 1724.8271,270.4549 L1724.8271,272.4569 Q1724.3632,272.0296 1723.9268,271.8313 Q1723.4904,271.6329 1723.0265,271.6329 Q1722.0378,271.6329 1721.5342,272.4172 Q1721.0307,273.2015 1721.0307,274.7457 Q1721.0307,276.2838 1721.5342,277.0681 Q1722.0378,277.8524 1723.0265,277.8524 Q1723.4904,277.8524 1723.9268,277.654 Q1724.3632,277.4556 1724.8271,277.0284 Z " fill="#000000"/><text fill="#D8BC00" font-family="Open Sans,Avenir,Nunito,Arial,Helvetica,SansSerif" font-size="12.5" font-weight="bold" lengthAdjust="spacing" textLength="125" x="1739.5833" y="279.3294">OsmTeamWayFilter</text><line style="stroke:#5E5E5E;stroke-width:1.5625;" x1="1709.375" x2="1869.7917" y1="290.2995" y2="290.2995"/><ellipse cx="1719.7917" cy="325.6694" fill="#84BE84" rx="3.125" ry="3.125" style="stroke:#038048;stroke-width:1.0416666666666667;"/><text fill="#D8BC00" font-family="Open Sans,Avenir,Nunito,Arial,Helvetica,SansSerif" font-size="11.4583" lengthAdjust="spacing" textLength="114.5833" x="1731.25" y="332.5806">OsmTeamWayFilter()</text><line style="stroke:#5E5E5E;stroke-width:1.0416666666666667;" x1="1709.375" x2="1745.8333" y1="308.5052" y2="308.5052"/><text fill="#D8BC00" font-family="Open Sans,Avenir,Nunito,Arial,Helvetica,SansSerif" font-size="11.4583" lengthAdjust="spacing" textLength="81.25" x="1748.9583" y="312.3149">(constructors)</text><line style="stroke:#5E5E5E;stroke-width:1.0416666666666667;" x1="1833.3333" x2="1869.7917" y1="308.5052" y2="308.5052"/><!--MD5=[dc0b09167e946f795f0a7f0b879c923a]
class OsmWaysFilter--><rect codeLine="77" fill="#282828" height="83.3781" id="OsmWaysFilter" rx="8.3333" ry="8.3333" style="stroke:#5E5E5E;stroke-width:1.0416666666666667;" width="134.375" x="1907.8125" y="258.9111"/><rect fill="#1B1B1A" height="31.3883" rx="8.3333" ry="8.3333" style="stroke:#1B1B1A;stroke-width:1.0416666666666667;" width="134.375" x="1907.8125" y="258.9111"/><rect fill="#1B1B1A" height="8.3333" style="stroke:#1B1B1A;stroke-width:1.0416666666666667;" width="134.375" x="1907.8125" y="281.9661"/><rect codeLine="77" fill="none" height="83.3781" id="OsmWaysFilter" rx="8.3333" ry="8.3333" style="stroke:#5E5E5E;stroke-width:1.0416666666666667;" width="134.375" x="1907.8125" y="258.9111"/><ellipse cx="1922.3958" cy="274.6053" fill="#0066CF" rx="10.4167" ry="10.4167" style="stroke:#0086EF;stroke-width:1.0416666666666667;"/><path d="M1924.3062,279.0304 Q1923.879,279.2501 1923.409,279.3599 Q1922.939,279.4698 1922.4202,279.4698 Q1920.577,279.4698 1919.6065,278.2552 Q1918.6361,277.0406 1918.6361,274.7457 Q1918.6361,272.4447 1919.6065,271.2301 Q1920.577,270.0155 1922.4202,270.0155 Q1922.939,270.0155 1923.4151,270.1253 Q1923.8912,270.2352 1924.3062,270.4549 L1924.3062,272.4569 Q1923.8424,272.0296 1923.406,271.8313 Q1922.9696,271.6329 1922.5057,271.6329 Q1921.5169,271.6329 1921.0134,272.4172 Q1920.5098,273.2015 1920.5098,274.7457 Q1920.5098,276.2838 1921.0134,277.0681 Q1921.5169,277.8524 1922.5057,277.8524 Q1922.9696,277.8524 1923.406,277.654 Q1923.8424,277.4556 1924.3062,277.0284 Z " fill="#000000"/><text fill="#D8BC00" font-family="Open Sans,Avenir,Nunito,Arial,Helvetica,SansSerif" font-size="12.5" font-weight="bold" lengthAdjust="spacing" textLength="96.875" x="1939.0625" y="279.3294">OsmWaysFilter</text><line style="stroke:#5E5E5E;stroke-width:1.5625;" x1="1908.8542" x2="2041.1458" y1="290.2995" y2="290.2995"/><ellipse cx="1919.2708" cy="325.6694" fill="#84BE84" rx="3.125" ry="3.125" style="stroke:#038048;stroke-width:1.0416666666666667;"/><text fill="#D8BC00" font-family="Open Sans,Avenir,Nunito,Arial,Helvetica,SansSerif" font-size="11.4583" lengthAdjust="spacing" textLength="90.625" x="1930.7292" y="332.5806">OsmWaysFilter()</text><line style="stroke:#5E5E5E;stroke-width:1.0416666666666667;" x1="1908.8542" x2="1931.25" y1="308.5052" y2="308.5052"/><text fill="#D8BC00" font-family="Open Sans,Avenir,Nunito,Arial,Helvetica,SansSerif" font-size="11.4583" lengthAdjust="spacing" textLength="81.25" x="1934.375" y="312.3149">(constructors)</text><line style="stroke:#5E5E5E;stroke-width:1.0416666666666667;" x1="2018.75" x2="2041.1458" y1="308.5052" y2="308.5052"/><!--MD5=[b6b775fcb669f22099ad8de15664850f]
reverse link WayFilter to OsmExcludeNonDrivableWaysFilter--><path codeLine="14" d="M1354.0625,145.0465 C1251.1771,173.359 1055.4375,227.234 924.4792,263.2757 " fill="none" id="WayFilter-backto-OsmExcludeNonDrivableWaysFilter" style="stroke:#545454;stroke-width:1.5625;"/><polygon fill="none" points="1352.2292,137.9945,1374.25,139.4945,1356.1042,152.0465,1352.2292,137.9945" style="stroke:#545454;stroke-width:1.5625;"/><!--MD5=[5ac5088cb9255464bb32546577ff9e81]
reverse link PbfTagFilter to OsmIgnoredTags--><path codeLine="30" d="M550,170.3382 C550,197.557 550,232.2028 550,258.7653 " fill="none" id="PbfTagFilter-backto-OsmIgnoredTags" style="stroke:#545454;stroke-width:1.5625;"/><polygon fill="none" points="542.7083,169.9632,550,149.1299,557.2917,169.9632,542.7083,169.9632" style="stroke:#545454;stroke-width:1.5625;"/><!--MD5=[69ef2d0db2f2b139dee2b6791d352797]
reverse link WayFilter to OsmMajorRoadsWayFilter--><path codeLine="37" d="M1356.1875,158.2132 C1297.25,186.5674 1211.0104,228.0674 1147.2188,258.7653 " fill="none" id="WayFilter-backto-OsmMajorRoadsWayFilter" style="stroke:#545454;stroke-width:1.5625;"/><polygon fill="none" points="1353.125,151.5882,1375.0521,149.1299,1359.4479,164.734,1353.125,151.5882" style="stroke:#545454;stroke-width:1.5625;"/><!--MD5=[fa0a56637f75a7bbcdac67e65377a7d8]
reverse link WayFilter to OsmNavigableWayFilter--><path codeLine="44" d="M1393.4688,166.2861 C1373.125,194.057 1346.1458,230.8695 1325.7083,258.7653 " fill="none" id="WayFilter-backto-OsmNavigableWayFilter" style="stroke:#545454;stroke-width:1.5625;"/><polygon fill="none" points="1387.8438,161.6299,1406.0417,149.1299,1399.6042,170.2445,1387.8438,161.6299" style="stroke:#545454;stroke-width:1.5625;"/><!--MD5=[d16ad885872a14bf49fef81eabe48c48]
reverse link RelationFilter to OsmRelationsFilter--><path codeLine="55" d="M2159.375,170.3382 C2159.375,197.557 2159.375,232.2028 2159.375,258.7653 " fill="none" id="RelationFilter-backto-OsmRelationsFilter" style="stroke:#545454;stroke-width:1.5625;"/><polygon fill="none" points="2152.0833,169.9632,2159.375,149.1299,2166.6667,169.9632,2152.0833,169.9632" style="stroke:#545454;stroke-width:1.5625;"/><!--MD5=[98bbabfde8376c2c89c52098f958868f]
reverse link WayFilter to OsmTeamDataPipelineWayFilter--><path codeLine="62" d="M1452.3646,166.2861 C1472.7083,194.057 1499.6875,230.8695 1520.125,258.7653 " fill="none" id="WayFilter-backto-OsmTeamDataPipelineWayFilter" style="stroke:#545454;stroke-width:1.5625;"/><polygon fill="none" points="1446.2292,170.2445,1439.7917,149.1299,1457.9896,161.6299,1446.2292,170.2445" style="stroke:#545454;stroke-width:1.5625;"/><!--MD5=[8aaf4f5e8745f15e89d1ab2d713e9c41]
reverse link WayFilter to OsmTeamWayFilter--><path codeLine="69" d="M1490.4375,158.0361 C1551.8333,187.0778 1642.5729,229.9945 1708,260.9424 " fill="none" id="WayFilter-backto-OsmTeamWayFilter" style="stroke:#545454;stroke-width:1.5625;"/><polygon fill="none" points="1487.3229,164.6299,1471.6042,149.1299,1493.5625,151.4424,1487.3229,164.6299" style="stroke:#545454;stroke-width:1.5625;"/><!--MD5=[3a3574c1f062e6bfde78f482c62de954]
reverse link WayFilter to OsmWaysFilter--><path codeLine="76" d="M1492.0104,142.0986 C1583.9271,164.2132 1750.8438,207.307 1888.5417,258.9111 C1894.75,261.234 1901.1354,263.8278 1907.4792,266.5465 " fill="none" id="WayFilter-backto-OsmWaysFilter" style="stroke:#545454;stroke-width:1.5625;"/><polygon fill="none" points="1490.25,149.1715,1471.6771,137.2549,1493.625,134.984,1490.25,149.1715" style="stroke:#545454;stroke-width:1.5625;"/><!--MD5=[b99ac11dfe111ddcc228783bb52fc293]
link Osm to OsmHighwayTag--><!--MD5=[34a606e1bef047b69962ec6a2c23dd03]
link Osm to OsmRelationTag--><!--MD5=[e5dafdfa150992c9f8595189cfd0fa5e]
@startuml

    !include ../lexakai/lexakai.theme
    
    title "diagram-pbf-osm"
    
    interface PbfTagFilter
    
    class Osm
    {
        - -(checks)- -
        +boolean isNavigable(PbfWay)
    }
    
    WayFilter <|- - OsmExcludeNonDrivableWaysFilter
    class OsmExcludeNonDrivableWaysFilter
    {
        - -(constructors)- -
        +OsmExcludeNonDrivableWaysFilter()
    }
    
    class OsmHighwayTag
    {
        - -(checks)- -
        +boolean isNavigableHighway(Tag)
        +boolean isNullServiceWay(Tag)
        +boolean isPrivateAccess(Tag)
        +boolean isServiceWay(Tag)
    }
    
    PbfTagFilter <|- - OsmIgnoredTags
    class OsmIgnoredTags
    {
        - -(constructors)- -
        +OsmIgnoredTags()
    }
    
    WayFilter <|- - OsmMajorRoadsWayFilter
    class OsmMajorRoadsWayFilter
    {
        - -(constructors)- -
        +OsmMajorRoadsWayFilter()
    }
    
    WayFilter <|- - OsmNavigableWayFilter
    class OsmNavigableWayFilter
    {
        - -(constructors)- -
        +OsmNavigableWayFilter()
    }
    
    class OsmRelationTag
    {
    }
    
    RelationFilter <|- - OsmRelationsFilter
    class OsmRelationsFilter
    {
        - -(constructors)- -
        +OsmRelationsFilter()
    }
    
    WayFilter <|- - OsmTeamDataPipelineWayFilter
    class OsmTeamDataPipelineWayFilter
    {
        - -(constructors)- -
        +OsmTeamDataPipelineWayFilter()
    }
    
    WayFilter <|- - OsmTeamWayFilter
    class OsmTeamWayFilter
    {
        - -(constructors)- -
        +OsmTeamWayFilter()
    }
    
    WayFilter <|- - OsmWaysFilter
    class OsmWaysFilter
    {
        - -(constructors)- -
        +OsmWaysFilter()
    }
    
@enduml

@startuml









skinparam backgroundColor #333333






skinparam  {
    defaultFontName   "Open Sans,Avenir,Nunito,Arial,Helvetica,SansSerif"
    defaultFontSize   12
    defaultTextAlignment left
    shadowing false
    RoundCorner 10
    TitleFontSize 18
}

skinparam defaultFontName       "Open Sans,Avenir,Nunito,Arial,Helvetica,SansSerif"
skinparam defaultFontSize       12
skinparam dpi                   100
skinparam shadowing             false
skinparam roundcorner           16
skinparam ParticipantPadding    40
skinparam BoxPadding            40
skinparam Padding               3
skinparam ArrowColor            #545454
skinparam stereotype {
    CBackgroundColor #0066cf
    CBorderColor #0086ef
    ABackgroundColor #C8Ac00
    ABorderColor #D8Bc00
    IBackgroundColor #008400
    IBorderColor #239c23
    EBackgroundColor #cf6300
    EBorderColor #ef8300
    NBackgroundColor #3380b9
    NBorderColor #004d86
}
skinparam title {
	FontColor	                 #c0c0c0
 	BorderColor                  #545454
	FontSize	    	         20
	BorderRoundCorner            16
	BorderThickness 	         1
	BackgroundColor              #48494b
}


skinparam legend {
	BackgroundColor #303030
	BorderColor #404040
	FontColor #a0a0a0
}

	skinparam swimlane {
	BorderColor #5e5e5e
	BorderThickness 2
	TitleBackgroundColor  #6d6d6d-#484848
	TitleFontColor #303030
}

skinparam activity {
		FontColor #C8Ac00
	BorderColor #333333
	BackgroundColor #333333-#333333
	BarColor #00FF00
	StartColor #0060a8
	EndColor #0060a8
	DiamondBackgroundColor #6d6d6d-#3a3a3a
  	DiamondBorderColor #3a3a3a
  	DiamondFontColor #fefefe
}


skinparam participant {
		FontColor #C8Ac00
	BorderColor #333333
	BackgroundColor #333333-#333333
	ParticipantBorderThickness 2
}


skinparam actor {
		FontColor #C8Ac00
	BorderColor #333333
	BackgroundColor #333333-#333333
}


skinparam arrow {
	Thickness 1.5
	Color #545454
	FontColor #a0a0a0
    FontStyle bold
    MessageAlignment center
}



skinparam sequence {
	BorderColor #303030
	TitleFontColor #303030
	BackgroundColor #333333
	StartColor #303030
	EndColor #303030
	BoxBackgroundColor #333333
	BoxBorderColor #484848
	BoxFontColor #484848
	LifeLineBorderColor #484848
	LifeLineBorderThickness 2
	LifeLineBackgroundColor #3a3a3a
	GroupBorderColor #484848
	GroupFontColor #484848
	GroupHeaderFontColor #0060a8
	GroupBackgroundColor #484848
	GroupHeaderBackgroundColor #333333
	DividerBackgroundColor #484848
    DividerBorderColor #484848
    DividerBorderThickness 2
    DividerFontColor #D8Bc00
	ReferenceBackgroundColor #333333
	ReferenceBorderColor #484848
	ReferenceFontColor #fefefe
	ReferenceHeaderBackgroundColor #484848
}


skinparam partition {
	BorderColor #303030
	FontColor #333333
	BackgroundColor #333333
}


skinparam collections {
		FontColor #C8Ac00
	BorderColor #333333
	BackgroundColor #333333-#333333
}


skinparam control {
		FontColor #C8Ac00
	BorderColor #333333
	BackgroundColor #333333-#333333
}


skinparam entity {
		FontColor #C8Ac00
	BorderColor #333333
	BackgroundColor #333333-#333333
}


skinparam boundary {
		FontColor #C8Ac00
	BorderColor #333333
	BackgroundColor #333333-#333333
}


skinparam agent {
	BackgroundColor #ff8000
	BorderColor #ff9933
	FontColor #484848
}


skinparam note {
	BorderThickness 1
	BackgroundColor #1b1b1a
	BorderColor #5e5e5e
	FontSize 11
	FontColor #a0a0a0
}


skinparam artifact {
	BorderThickness 10
	BorderColor #5e5e5e
	BackgroundColor #1b1b1a
	FontColor #D8Bc00
}


skinparam component {
		FontColor #C8Ac00
	BorderColor #333333
	BackgroundColor #333333-#333333
}


skinparam interface {
	BackgroundColor  #008400
	BorderColor  #007F00
	FontColor #484848
}


skinparam storage {
	BackgroundColor #ff8000
  	BorderColor #cc6600
	FontColor #222222
}


skinparam node {
	BackgroundColor #333333
	BorderColor #333333
	FontColor #C8Ac00
}


skinparam cloud {
	BackgroundColor #484848-black
	BorderColor #484848
	FontColor #D8Bc00
}


skinparam database {
		FontColor #C8Ac00
	BorderColor #333333
	BackgroundColor #333333-#333333
	BackgroundColor  #333333
}


skinparam class {
		FontColor #C8Ac00
	BorderColor #333333
	BackgroundColor #333333-#333333
	HeaderBackgroundColor #1b1b1a
    BackgroundColor #282828
    BorderColor #5e5e5e
 	StereotypeFontColor #a0a0a0
    StereotypeFontStyle bold
	BorderThickness 1
	AttributeFontColor #D8Bc00
	AttributeFontSize 11
    FontColor #D8Bc00
    FontStyle bold
}


skinparam object {
		FontColor #C8Ac00
	BorderColor #333333
	BackgroundColor #333333-#333333
	StereotypeFontColor #484848
	BorderThickness 1
	AttributeFontColor #fefefe
	AttributeFontSize 11
}


skinparam usecase {
		FontColor #C8Ac00
	BorderColor #333333
	BackgroundColor #333333-#333333
	BorderThickness 2
	StereotypeFontColor #303030
}


skinparam rectangle {
		FontColor #C8Ac00
	BorderColor #333333
	BackgroundColor #333333-#333333
	BackgroundColor #333333
	BorderThickness 2
	StereotypeFontColor #303030
}


skinparam package {
		FontColor #C8Ac00
	BorderColor #333333
	BackgroundColor #333333-#333333
	BackgroundColor #333333
	BorderThickness 2
}


skinparam folder {
	BackgroundColor #6d6d6d
  	BorderColor #ff8000
	FontColor #ff8000
	BorderThickness 2
}


skinparam frame {
	BackgroundColor #6d6d6d
  	BorderColor #0060a8
	FontColor #0060a8
	BorderThickness 2
}


skinparam state {
		FontColor #C8Ac00
	BorderColor #333333
	BackgroundColor #333333-#333333
	StartColor #0060a8
	EndColor #0060a8
	AttributeFontColor #fefefe
	AttributeFontSize 11
}


skinparam queue {
		FontColor #C8Ac00
	BorderColor #333333
	BackgroundColor #333333-#333333
}


skinparam card {
	BackgroundColor #0060a8
	BorderColor #004d86
	FontColor $INFO_TEXT
}


skinparam file {
	BackgroundColor #6d6d6d-#484848
	BorderColor #0060a8
	FontColor #fefefe
}


skinparam stack {
		FontColor #C8Ac00
	BorderColor #333333
	BackgroundColor #333333-#333333
}

    
    title "diagram-pbf-osm"
    
    interface PbfTagFilter
    
    class Osm
    {
        - -(checks)- -
        +boolean isNavigable(PbfWay)
    }
    
    WayFilter <|- - OsmExcludeNonDrivableWaysFilter
    class OsmExcludeNonDrivableWaysFilter
    {
        - -(constructors)- -
        +OsmExcludeNonDrivableWaysFilter()
    }
    
    class OsmHighwayTag
    {
        - -(checks)- -
        +boolean isNavigableHighway(Tag)
        +boolean isNullServiceWay(Tag)
        +boolean isPrivateAccess(Tag)
        +boolean isServiceWay(Tag)
    }
    
    PbfTagFilter <|- - OsmIgnoredTags
    class OsmIgnoredTags
    {
        - -(constructors)- -
        +OsmIgnoredTags()
    }
    
    WayFilter <|- - OsmMajorRoadsWayFilter
    class OsmMajorRoadsWayFilter
    {
        - -(constructors)- -
        +OsmMajorRoadsWayFilter()
    }
    
    WayFilter <|- - OsmNavigableWayFilter
    class OsmNavigableWayFilter
    {
        - -(constructors)- -
        +OsmNavigableWayFilter()
    }
    
    class OsmRelationTag
    {
    }
    
    RelationFilter <|- - OsmRelationsFilter
    class OsmRelationsFilter
    {
        - -(constructors)- -
        +OsmRelationsFilter()
    }
    
    WayFilter <|- - OsmTeamDataPipelineWayFilter
    class OsmTeamDataPipelineWayFilter
    {
        - -(constructors)- -
        +OsmTeamDataPipelineWayFilter()
    }
    
    WayFilter <|- - OsmTeamWayFilter
    class OsmTeamWayFilter
    {
        - -(constructors)- -
        +OsmTeamWayFilter()
    }
    
    WayFilter <|- - OsmWaysFilter
    class OsmWaysFilter
    {
        - -(constructors)- -
        +OsmWaysFilter()
    }
    
@enduml

PlantUML version 1.2021.01(Tue Feb 02 00:55:08 MST 2021)
(GPL source distribution)
Java Runtime: Java(TM) SE Runtime Environment
JVM: Java HotSpot(TM) 64-Bit Server VM
Default Encoding: UTF-8
Language: en
Country: US
--></g></svg>