<?xml version="1.0" encoding="UTF-8" standalone="no"?><svg xmlns="http://www.w3.org/2000/svg" xmlns:xlink="http://www.w3.org/1999/xlink" contentScriptType="application/ecmascript" contentStyleType="text/css" height="666.6667px" preserveAspectRatio="none" style="width:1428px;height:666px;background:#333333;" version="1.1" viewBox="0 0 1428 666" width="1428.125px" zoomAndPan="magnify"><defs/><g><rect fill="#48494B" height="41.2028" rx="8.3333" ry="8.3333" style="stroke:#545454;stroke-width:1.0416666666666667;" width="342.7083" x="535.6771" y="2.0833"/><text fill="#C0C0C0" font-family="Open Sans,Avenir,Nunito,Arial,Helvetica,SansSerif" font-size="20.8333" lengthAdjust="spacing" textLength="319.7917" x="547.1354" y="30.5583">diagram-pbf-model-identifiers</text><!--MD5=[99db8397ef8fc4411282fe55306e2176]
class PbfIdentifierType--><rect codeLine="8" fill="#282828" height="273.5819" id="PbfIdentifierType" rx="8.3333" ry="8.3333" style="stroke:#5E5E5E;stroke-width:1.0416666666666667;" width="420.8333" x="336.9792" y="53.7028"/><rect fill="#1B1B1A" height="31.3883" rx="8.3333" ry="8.3333" style="stroke:#1B1B1A;stroke-width:1.0416666666666667;" width="420.8333" x="336.9792" y="53.7028"/><rect fill="#1B1B1A" height="8.3333" style="stroke:#1B1B1A;stroke-width:1.0416666666666667;" width="420.8333" x="336.9792" y="76.7578"/><rect codeLine="8" fill="none" height="273.5819" id="PbfIdentifierType" rx="8.3333" ry="8.3333" style="stroke:#5E5E5E;stroke-width:1.0416666666666667;" width="420.8333" x="336.9792" y="53.7028"/><ellipse cx="484.375" cy="69.397" fill="#008400" rx="10.4167" ry="10.4167" style="stroke:#239C23;stroke-width:1.0416666666666667;"/><path d="M481.2581,66.5588 L481.2581,64.9719 L486.6842,64.9719 L486.6842,66.5588 L484.8714,66.5588 L484.8714,72.4976 L486.6842,72.4976 L486.6842,74.0845 L481.2581,74.0845 L481.2581,72.4976 L483.0709,72.4976 L483.0709,66.5588 Z " fill="#000000"/><text fill="#D8BC00" font-family="Open Sans,Avenir,Nunito,Arial,Helvetica,SansSerif" font-size="12.5" font-style="italic" font-weight="bold" lengthAdjust="spacing" textLength="111.4583" x="507.2917" y="74.1211">PbfIdentifierType</text><line style="stroke:#5E5E5E;stroke-width:1.5625;" x1="338.0208" x2="756.7708" y1="85.0911" y2="85.0911"/><line style="stroke:#5E5E5E;stroke-width:1.0416666666666667;" x1="338.0208" x2="756.7708" y1="93.4245" y2="93.4245"/><ellipse cx="348.4375" cy="104.8828" fill="#84BE84" rx="3.125" ry="3.125" style="stroke:#038048;stroke-width:1.0416666666666667;"/><text fill="#D8BC00" font-family="Open Sans,Avenir,Nunito,Arial,Helvetica,SansSerif" font-size="11.4583" lengthAdjust="spacing" textLength="128.125" x="359.8958" y="111.794">EntityType entityType()</text><ellipse cx="348.4375" cy="148.5392" fill="#84BE84" rx="3.125" ry="3.125" style="stroke:#038048;stroke-width:1.0416666666666667;"/><text fill="#D8BC00" font-family="Open Sans,Avenir,Nunito,Arial,Helvetica,SansSerif" font-size="11.4583" lengthAdjust="spacing" textLength="388.5417" x="359.8958" y="155.4504">MapIdentifier forIdentifierAndType(MapIdentifier.Type, long identifier)</text><ellipse cx="348.4375" cy="168.2841" fill="#84BE84" rx="3.125" ry="3.125" style="stroke:#038048;stroke-width:1.0416666666666667;"/><text fill="#D8BC00" font-family="Open Sans,Avenir,Nunito,Arial,Helvetica,SansSerif" font-size="11.4583" lengthAdjust="spacing" textLength="329.1667" x="359.8958" y="175.1953">MapIdentifier forIdentifierAndType(long identifierAndType)</text><ellipse cx="348.4375" cy="188.029" fill="#84BE84" rx="3.125" ry="3.125" style="stroke:#038048;stroke-width:1.0416666666666667;"/><text fill="#D8BC00" font-family="Open Sans,Avenir,Nunito,Arial,Helvetica,SansSerif" font-size="11.4583" lengthAdjust="spacing" textLength="234.375" x="359.8958" y="194.9402">MapIdentifier newIdentifier(long identifier)</text><ellipse cx="348.4375" cy="207.7738" fill="#84BE84" rx="3.125" ry="3.125" style="stroke:#038048;stroke-width:1.0416666666666667;"/><text fill="#D8BC00" font-family="Open Sans,Avenir,Nunito,Arial,Helvetica,SansSerif" font-size="11.4583" lengthAdjust="spacing" textLength="138.5417" x="359.8958" y="214.6851">MapIdentifier.Type type()</text><ellipse cx="348.4375" cy="227.5187" fill="#84BE84" rx="3.125" ry="3.125" style="stroke:#038048;stroke-width:1.0416666666666667;"/><text fill="#D8BC00" font-family="Open Sans,Avenir,Nunito,Arial,Helvetica,SansSerif" font-size="11.4583" lengthAdjust="spacing" textLength="316.6667" x="359.8958" y="234.4299">MapIdentifier withType(MapIdentifier, MapIdentifier.Type)</text><ellipse cx="348.4375" cy="247.2636" fill="#84BE84" rx="3.125" ry="3.125" style="stroke:#038048;stroke-width:1.0416666666666667;"/><text fill="#D8BC00" font-family="Open Sans,Avenir,Nunito,Arial,Helvetica,SansSerif" font-size="11.4583" lengthAdjust="spacing" textLength="134.375" x="359.8958" y="254.1748">MapIdentifier withType()</text><ellipse cx="348.4375" cy="267.0085" fill="#84BE84" rx="3.125" ry="3.125" style="stroke:#038048;stroke-width:1.0416666666666667;"/><text fill="#D8BC00" font-family="Open Sans,Avenir,Nunito,Arial,Helvetica,SansSerif" font-size="11.4583" lengthAdjust="spacing" textLength="153.125" x="359.8958" y="273.9197">MapIdentifier withoutType()</text><line style="stroke:#5E5E5E;stroke-width:1.0416666666666667;" x1="338.0208" x2="513.0208" y1="131.3751" y2="131.3751"/><text fill="#D8BC00" font-family="Open Sans,Avenir,Nunito,Arial,Helvetica,SansSerif" font-size="11.4583" lengthAdjust="spacing" textLength="62.5" x="516.1458" y="135.1847">(collection)</text><line style="stroke:#5E5E5E;stroke-width:1.0416666666666667;" x1="581.7708" x2="756.7708" y1="131.3751" y2="131.3751"/><ellipse cx="348.4375" cy="310.6649" fill="#84BE84" rx="3.125" ry="3.125" style="stroke:#038048;stroke-width:1.0416666666666667;"/><text fill="#D8BC00" font-family="Open Sans,Avenir,Nunito,Arial,Helvetica,SansSerif" font-size="11.4583" lengthAdjust="spacing" textLength="77.0833" x="359.8958" y="317.5761">long asLong()</text><line style="stroke:#5E5E5E;stroke-width:1.0416666666666667;" x1="338.0208" x2="515.625" y1="293.5008" y2="293.5008"/><text fill="#D8BC00" font-family="Open Sans,Avenir,Nunito,Arial,Helvetica,SansSerif" font-size="11.4583" lengthAdjust="spacing" textLength="57.2917" x="518.75" y="297.3104">(primitive)</text><line style="stroke:#5E5E5E;stroke-width:1.0416666666666667;" x1="579.1667" x2="756.7708" y1="293.5008" y2="293.5008"/><!--MD5=[8bfed88436a9bfa4bb17c855c75eb32c]
class MapNodeIdentifier--><rect fill="#282828" height="48.055" id="MapNodeIdentifier" rx="8.3333" ry="8.3333" style="stroke:#5E5E5E;stroke-width:1.0416666666666667;" width="157.2917" x="79.1667" y="166.7236"/><rect fill="#1B1B1A" height="31.3883" rx="8.3333" ry="8.3333" style="stroke:#1B1B1A;stroke-width:1.0416666666666667;" width="157.2917" x="79.1667" y="166.7236"/><rect fill="#1B1B1A" height="8.3333" style="stroke:#1B1B1A;stroke-width:1.0416666666666667;" width="157.2917" x="79.1667" y="189.7786"/><rect fill="none" height="48.055" id="MapNodeIdentifier" rx="8.3333" ry="8.3333" style="stroke:#5E5E5E;stroke-width:1.0416666666666667;" width="157.2917" x="79.1667" y="166.7236"/><ellipse cx="93.75" cy="182.4178" fill="#0066CF" rx="10.4167" ry="10.4167" style="stroke:#0086EF;stroke-width:1.0416666666666667;"/><path d="M95.6604,186.8429 Q95.2332,187.0626 94.7632,187.1724 Q94.2932,187.2823 93.7744,187.2823 Q91.9312,187.2823 90.9607,186.0677 Q89.9902,184.8531 89.9902,182.5582 Q89.9902,180.2572 90.9607,179.0426 Q91.9312,177.828 93.7744,177.828 Q94.2932,177.828 94.7693,177.9378 Q95.2454,178.0477 95.6604,178.2674 L95.6604,180.2694 Q95.1965,179.8421 94.7601,179.6438 Q94.3237,179.4454 93.8599,179.4454 Q92.8711,179.4454 92.3676,180.2297 Q91.864,181.014 91.864,182.5582 Q91.864,184.0963 92.3676,184.8806 Q92.8711,185.6649 93.8599,185.6649 Q94.3237,185.6649 94.7601,185.4665 Q95.1965,185.2681 95.6604,184.8409 Z " fill="#000000"/><text fill="#D8BC00" font-family="Open Sans,Avenir,Nunito,Arial,Helvetica,SansSerif" font-size="12.5" font-weight="bold" lengthAdjust="spacing" textLength="119.7917" x="110.4167" y="187.1419">MapNodeIdentifier</text><line style="stroke:#5E5E5E;stroke-width:1.0416666666666667;" x1="80.2083" x2="235.4167" y1="198.112" y2="198.112"/><line style="stroke:#5E5E5E;stroke-width:1.0416666666666667;" x1="80.2083" x2="235.4167" y1="206.4453" y2="206.4453"/><!--MD5=[1dfee312339cfe1c59e0bf22ecf14aee]
class PbfNodeIdentifier--><rect codeLine="26" fill="#282828" height="269.4153" id="PbfNodeIdentifier" rx="8.3333" ry="8.3333" style="stroke:#5E5E5E;stroke-width:1.0416666666666667;" width="301.0417" x="7.2917" y="390.1611"/><rect fill="#1B1B1A" height="31.3883" rx="8.3333" ry="8.3333" style="stroke:#1B1B1A;stroke-width:1.0416666666666667;" width="301.0417" x="7.2917" y="390.1611"/><rect fill="#1B1B1A" height="8.3333" style="stroke:#1B1B1A;stroke-width:1.0416666666666667;" width="301.0417" x="7.2917" y="413.2161"/><rect codeLine="26" fill="none" height="269.4153" id="PbfNodeIdentifier" rx="8.3333" ry="8.3333" style="stroke:#5E5E5E;stroke-width:1.0416666666666667;" width="301.0417" x="7.2917" y="390.1611"/><ellipse cx="93.75" cy="405.8553" fill="#0066CF" rx="10.4167" ry="10.4167" style="stroke:#0086EF;stroke-width:1.0416666666666667;"/><path d="M95.6604,410.2804 Q95.2332,410.5001 94.7632,410.6099 Q94.2932,410.7198 93.7744,410.7198 Q91.9312,410.7198 90.9607,409.5052 Q89.9902,408.2906 89.9902,405.9957 Q89.9902,403.6947 90.9607,402.4801 Q91.9312,401.2655 93.7744,401.2655 Q94.2932,401.2655 94.7693,401.3753 Q95.2454,401.4852 95.6604,401.7049 L95.6604,403.7069 Q95.1965,403.2796 94.7601,403.0813 Q94.3237,402.8829 93.8599,402.8829 Q92.8711,402.8829 92.3676,403.6672 Q91.864,404.4515 91.864,405.9957 Q91.864,407.5338 92.3676,408.3181 Q92.8711,409.1024 93.8599,409.1024 Q94.3237,409.1024 94.7601,408.904 Q95.1965,408.7056 95.6604,408.2784 Z " fill="#000000"/><text fill="#D8BC00" font-family="Open Sans,Avenir,Nunito,Arial,Helvetica,SansSerif" font-size="12.5" font-weight="bold" lengthAdjust="spacing" textLength="113.5417" x="116.6667" y="410.5794">PbfNodeIdentifier</text><line style="stroke:#5E5E5E;stroke-width:1.5625;" x1="8.3333" x2="307.2917" y1="421.5495" y2="421.5495"/><ellipse cx="18.75" cy="456.9194" fill="#84BE84" rx="3.125" ry="3.125" style="stroke:#038048;stroke-width:1.0416666666666667;"/><text fill="#D8BC00" font-family="Open Sans,Avenir,Nunito,Arial,Helvetica,SansSerif" font-size="11.4583" lengthAdjust="spacing" textLength="152.0833" x="30.2083" y="463.8306">PbfNodeIdentifier(PbfNode)</text><ellipse cx="18.75" cy="476.6642" fill="#84BE84" rx="3.125" ry="3.125" style="stroke:#038048;stroke-width:1.0416666666666667;"/><text fill="#D8BC00" font-family="Open Sans,Avenir,Nunito,Arial,Helvetica,SansSerif" font-size="11.4583" lengthAdjust="spacing" textLength="156.25" x="30.2083" y="483.5754">PbfNodeIdentifier(WayNode)</text><ellipse cx="18.75" cy="496.4091" fill="#84BE84" rx="3.125" ry="3.125" style="stroke:#038048;stroke-width:1.0416666666666667;"/><text fill="#D8BC00" font-family="Open Sans,Avenir,Nunito,Arial,Helvetica,SansSerif" font-size="11.4583" lengthAdjust="spacing" textLength="130.2083" x="30.2083" y="503.3203">PbfNodeIdentifier(long)</text><line style="stroke:#5E5E5E;stroke-width:1.0416666666666667;" x1="8.3333" x2="114.0625" y1="439.7552" y2="439.7552"/><text fill="#D8BC00" font-family="Open Sans,Avenir,Nunito,Arial,Helvetica,SansSerif" font-size="11.4583" lengthAdjust="spacing" textLength="81.25" x="117.1875" y="443.5649">(constructors)</text><line style="stroke:#5E5E5E;stroke-width:1.0416666666666667;" x1="201.5625" x2="307.2917" y1="439.7552" y2="439.7552"/><ellipse cx="18.75" cy="540.0655" fill="#84BE84" rx="3.125" ry="3.125" style="stroke:#038048;stroke-width:1.0416666666666667;"/><text fill="#D8BC00" font-family="Open Sans,Avenir,Nunito,Arial,Helvetica,SansSerif" font-size="11.4583" lengthAdjust="spacing" textLength="116.6667" x="30.2083" y="546.9767">boolean isSynthetic()</text><ellipse cx="18.75" cy="559.8104" fill="#84BE84" rx="3.125" ry="3.125" style="stroke:#038048;stroke-width:1.0416666666666667;"/><text fill="#D8BC00" font-family="Open Sans,Avenir,Nunito,Arial,Helvetica,SansSerif" font-size="11.4583" lengthAdjust="spacing" textLength="194.7917" x="30.2083" y="566.7216">boolean isSynthetic(long identifier)</text><line style="stroke:#5E5E5E;stroke-width:1.0416666666666667;" x1="8.3333" x2="131.25" y1="522.9014" y2="522.9014"/><text fill="#D8BC00" font-family="Open Sans,Avenir,Nunito,Arial,Helvetica,SansSerif" font-size="11.4583" lengthAdjust="spacing" textLength="46.875" x="134.375" y="526.711">(checks)</text><line style="stroke:#5E5E5E;stroke-width:1.0416666666666667;" x1="184.375" x2="307.2917" y1="522.9014" y2="522.9014"/><ellipse cx="18.75" cy="603.4668" fill="#84BE84" rx="3.125" ry="3.125" style="stroke:#038048;stroke-width:1.0416666666666667;"/><text fill="#D8BC00" font-family="Open Sans,Avenir,Nunito,Arial,Helvetica,SansSerif" font-size="11.4583" lengthAdjust="spacing" textLength="231.25" x="30.2083" y="610.378">PbfNodeIdentifier forLong(long identifier)</text><ellipse cx="18.75" cy="623.2117" fill="#84BE84" rx="3.125" ry="3.125" style="stroke:#038048;stroke-width:1.0416666666666667;"/><text fill="#D8BC00" font-family="Open Sans,Avenir,Nunito,Arial,Helvetica,SansSerif" font-size="11.4583" lengthAdjust="spacing" textLength="268.75" x="30.2083" y="630.1229">MapNodeIdentifier nextSyntheticNodeIdentifier()</text><ellipse cx="18.75" cy="642.9565" fill="#84BE84" rx="3.125" ry="3.125" style="stroke:#038048;stroke-width:1.0416666666666667;"/><text fill="#D8BC00" font-family="Open Sans,Avenir,Nunito,Arial,Helvetica,SansSerif" font-size="11.4583" lengthAdjust="spacing" textLength="172.9167" x="30.2083" y="649.8678">PbfNodeIdentifier parse(String)</text><line style="stroke:#5E5E5E;stroke-width:1.0416666666666667;" x1="8.3333" x2="129.6875" y1="586.3027" y2="586.3027"/><text fill="#D8BC00" font-family="Open Sans,Avenir,Nunito,Arial,Helvetica,SansSerif" font-size="11.4583" lengthAdjust="spacing" textLength="50" x="132.8125" y="590.1123">(identity)</text><line style="stroke:#5E5E5E;stroke-width:1.0416666666666667;" x1="185.9375" x2="307.2917" y1="586.3027" y2="586.3027"/><!--MD5=[47cd0c7d4370e0a298acbedef4d47587]
class MapRelationIdentifier--><rect fill="#282828" height="48.055" id="MapRelationIdentifier" rx="8.3333" ry="8.3333" style="stroke:#5E5E5E;stroke-width:1.0416666666666667;" width="177.0833" x="794.2708" y="166.7236"/><rect fill="#1B1B1A" height="31.3883" rx="8.3333" ry="8.3333" style="stroke:#1B1B1A;stroke-width:1.0416666666666667;" width="177.0833" x="794.2708" y="166.7236"/><rect fill="#1B1B1A" height="8.3333" style="stroke:#1B1B1A;stroke-width:1.0416666666666667;" width="177.0833" x="794.2708" y="189.7786"/><rect fill="none" height="48.055" id="MapRelationIdentifier" rx="8.3333" ry="8.3333" style="stroke:#5E5E5E;stroke-width:1.0416666666666667;" width="177.0833" x="794.2708" y="166.7236"/><ellipse cx="808.8542" cy="182.4178" fill="#0066CF" rx="10.4167" ry="10.4167" style="stroke:#0086EF;stroke-width:1.0416666666666667;"/><path d="M810.7646,186.8429 Q810.3373,187.0626 809.8674,187.1724 Q809.3974,187.2823 808.8786,187.2823 Q807.0353,187.2823 806.0649,186.0677 Q805.0944,184.8531 805.0944,182.5582 Q805.0944,180.2572 806.0649,179.0426 Q807.0353,177.828 808.8786,177.828 Q809.3974,177.828 809.8735,177.9378 Q810.3495,178.0477 810.7646,178.2674 L810.7646,180.2694 Q810.3007,179.8421 809.8643,179.6438 Q809.4279,179.4454 808.964,179.4454 Q807.9753,179.4454 807.4717,180.2297 Q806.9682,181.014 806.9682,182.5582 Q806.9682,184.0963 807.4717,184.8806 Q807.9753,185.6649 808.964,185.6649 Q809.4279,185.6649 809.8643,185.4665 Q810.3007,185.2681 810.7646,184.8409 Z " fill="#000000"/><text fill="#D8BC00" font-family="Open Sans,Avenir,Nunito,Arial,Helvetica,SansSerif" font-size="12.5" font-weight="bold" lengthAdjust="spacing" textLength="139.5833" x="825.5208" y="187.1419">MapRelationIdentifier</text><line style="stroke:#5E5E5E;stroke-width:1.0416666666666667;" x1="795.3125" x2="970.3125" y1="198.112" y2="198.112"/><line style="stroke:#5E5E5E;stroke-width:1.0416666666666667;" x1="795.3125" x2="970.3125" y1="206.4453" y2="206.4453"/><!--MD5=[9945780d67e01c3d54ef44b2f2feca14]
class PbfRelationIdentifier--><rect codeLine="43" fill="#282828" height="210.1807" id="PbfRelationIdentifier" rx="8.3333" ry="8.3333" style="stroke:#5E5E5E;stroke-width:1.0416666666666667;" width="531.25" x="345.3125" y="419.8486"/><rect fill="#1B1B1A" height="31.3883" rx="8.3333" ry="8.3333" style="stroke:#1B1B1A;stroke-width:1.0416666666666667;" width="531.25" x="345.3125" y="419.8486"/><rect fill="#1B1B1A" height="8.3333" style="stroke:#1B1B1A;stroke-width:1.0416666666666667;" width="531.25" x="345.3125" y="442.9036"/><rect codeLine="43" fill="none" height="210.1807" id="PbfRelationIdentifier" rx="8.3333" ry="8.3333" style="stroke:#5E5E5E;stroke-width:1.0416666666666667;" width="531.25" x="345.3125" y="419.8486"/><ellipse cx="536.9792" cy="435.5428" fill="#0066CF" rx="10.4167" ry="10.4167" style="stroke:#0086EF;stroke-width:1.0416666666666667;"/><path d="M538.8896,439.9679 Q538.4623,440.1876 537.9924,440.2974 Q537.5224,440.4073 537.0036,440.4073 Q535.1603,440.4073 534.1899,439.1927 Q533.2194,437.9781 533.2194,435.6832 Q533.2194,433.3822 534.1899,432.1676 Q535.1603,430.953 537.0036,430.953 Q537.5224,430.953 537.9985,431.0628 Q538.4745,431.1727 538.8896,431.3924 L538.8896,433.3944 Q538.4257,432.9671 537.9893,432.7688 Q537.5529,432.5704 537.089,432.5704 Q536.1003,432.5704 535.5967,433.3547 Q535.0932,434.139 535.0932,435.6832 Q535.0932,437.2213 535.5967,438.0056 Q536.1003,438.7899 537.089,438.7899 Q537.5529,438.7899 537.9893,438.5915 Q538.4257,438.3931 538.8896,437.9659 Z " fill="#000000"/><text fill="#D8BC00" font-family="Open Sans,Avenir,Nunito,Arial,Helvetica,SansSerif" font-size="12.5" font-weight="bold" lengthAdjust="spacing" textLength="133.3333" x="559.8958" y="440.2669">PbfRelationIdentifier</text><line style="stroke:#5E5E5E;stroke-width:1.5625;" x1="346.3542" x2="875.5208" y1="451.237" y2="451.237"/><ellipse cx="356.7708" cy="486.6069" fill="#84BE84" rx="3.125" ry="3.125" style="stroke:#038048;stroke-width:1.0416666666666667;"/><text fill="#D8BC00" font-family="Open Sans,Avenir,Nunito,Arial,Helvetica,SansSerif" font-size="11.4583" lengthAdjust="spacing" textLength="183.3333" x="368.2292" y="493.5181">PbfRelationIdentifier(PbfRelation)</text><ellipse cx="356.7708" cy="506.3517" fill="#84BE84" rx="3.125" ry="3.125" style="stroke:#038048;stroke-width:1.0416666666666667;"/><text fill="#D8BC00" font-family="Open Sans,Avenir,Nunito,Arial,Helvetica,SansSerif" font-size="11.4583" lengthAdjust="spacing" textLength="145.8333" x="368.2292" y="513.2629">PbfRelationIdentifier(long)</text><line style="stroke:#5E5E5E;stroke-width:1.0416666666666667;" x1="346.3542" x2="567.1875" y1="469.4427" y2="469.4427"/><text fill="#D8BC00" font-family="Open Sans,Avenir,Nunito,Arial,Helvetica,SansSerif" font-size="11.4583" lengthAdjust="spacing" textLength="81.25" x="570.3125" y="473.2524">(constructors)</text><line style="stroke:#5E5E5E;stroke-width:1.0416666666666667;" x1="654.6875" x2="875.5208" y1="469.4427" y2="469.4427"/><ellipse cx="356.7708" cy="550.0081" fill="#84BE84" rx="3.125" ry="3.125" style="stroke:#038048;stroke-width:1.0416666666666667;"/><text fill="#D8BC00" font-family="Open Sans,Avenir,Nunito,Arial,Helvetica,SansSerif" font-size="11.4583" lengthAdjust="spacing" textLength="498.9583" x="368.2292" y="556.9194">SwitchParser.Builder&lt;PbfRelationIdentifier&gt; switchParser(String name, String description)</text><line style="stroke:#5E5E5E;stroke-width:1.0416666666666667;" x1="346.3542" x2="541.6667" y1="532.844" y2="532.844"/><text fill="#D8BC00" font-family="Open Sans,Avenir,Nunito,Arial,Helvetica,SansSerif" font-size="11.4583" lengthAdjust="spacing" textLength="132.2917" x="544.7917" y="536.6536">(command line parsing)</text><line style="stroke:#5E5E5E;stroke-width:1.0416666666666667;" x1="680.2083" x2="875.5208" y1="532.844" y2="532.844"/><ellipse cx="356.7708" cy="593.6646" fill="#84BE84" rx="3.125" ry="3.125" style="stroke:#038048;stroke-width:1.0416666666666667;"/><text fill="#D8BC00" font-family="Open Sans,Avenir,Nunito,Arial,Helvetica,SansSerif" font-size="11.4583" lengthAdjust="spacing" textLength="252.0833" x="368.2292" y="600.5758">MapRelationIdentifier forLong(long identifier)</text><ellipse cx="356.7708" cy="613.4094" fill="#84BE84" rx="3.125" ry="3.125" style="stroke:#038048;stroke-width:1.0416666666666667;"/><text fill="#D8BC00" font-family="Open Sans,Avenir,Nunito,Arial,Helvetica,SansSerif" font-size="11.4583" lengthAdjust="spacing" textLength="230.2083" x="368.2292" y="620.3206">PbfRelationIdentifier forRelation(Relation)</text><line style="stroke:#5E5E5E;stroke-width:1.0416666666666667;" x1="346.3542" x2="582.8125" y1="576.5004" y2="576.5004"/><text fill="#D8BC00" font-family="Open Sans,Avenir,Nunito,Arial,Helvetica,SansSerif" font-size="11.4583" lengthAdjust="spacing" textLength="50" x="585.9375" y="580.3101">(identity)</text><line style="stroke:#5E5E5E;stroke-width:1.0416666666666667;" x1="639.0625" x2="875.5208" y1="576.5004" y2="576.5004"/><!--MD5=[a70f796058c166090def5472fc2bbaff]
class MapWayIdentifier--><rect fill="#282828" height="48.055" id="MapWayIdentifier" rx="8.3333" ry="8.3333" style="stroke:#5E5E5E;stroke-width:1.0416666666666667;" width="150" x="1092.1875" y="166.7236"/><rect fill="#1B1B1A" height="31.3883" rx="8.3333" ry="8.3333" style="stroke:#1B1B1A;stroke-width:1.0416666666666667;" width="150" x="1092.1875" y="166.7236"/><rect fill="#1B1B1A" height="8.3333" style="stroke:#1B1B1A;stroke-width:1.0416666666666667;" width="150" x="1092.1875" y="189.7786"/><rect fill="none" height="48.055" id="MapWayIdentifier" rx="8.3333" ry="8.3333" style="stroke:#5E5E5E;stroke-width:1.0416666666666667;" width="150" x="1092.1875" y="166.7236"/><ellipse cx="1106.7708" cy="182.4178" fill="#0066CF" rx="10.4167" ry="10.4167" style="stroke:#0086EF;stroke-width:1.0416666666666667;"/><path d="M1108.6812,186.8429 Q1108.254,187.0626 1107.784,187.1724 Q1107.314,187.2823 1106.7952,187.2823 Q1104.952,187.2823 1103.9815,186.0677 Q1103.0111,184.8531 1103.0111,182.5582 Q1103.0111,180.2572 1103.9815,179.0426 Q1104.952,177.828 1106.7952,177.828 Q1107.314,177.828 1107.7901,177.9378 Q1108.2662,178.0477 1108.6812,178.2674 L1108.6812,180.2694 Q1108.2174,179.8421 1107.781,179.6438 Q1107.3446,179.4454 1106.8807,179.4454 Q1105.8919,179.4454 1105.3884,180.2297 Q1104.8848,181.014 1104.8848,182.5582 Q1104.8848,184.0963 1105.3884,184.8806 Q1105.8919,185.6649 1106.8807,185.6649 Q1107.3446,185.6649 1107.781,185.4665 Q1108.2174,185.2681 1108.6812,184.8409 Z " fill="#000000"/><text fill="#D8BC00" font-family="Open Sans,Avenir,Nunito,Arial,Helvetica,SansSerif" font-size="12.5" font-weight="bold" lengthAdjust="spacing" textLength="112.5" x="1123.4375" y="187.1419">MapWayIdentifier</text><line style="stroke:#5E5E5E;stroke-width:1.0416666666666667;" x1="1093.2292" x2="1241.1458" y1="198.112" y2="198.112"/><line style="stroke:#5E5E5E;stroke-width:1.0416666666666667;" x1="1093.2292" x2="1241.1458" y1="206.4453" y2="206.4453"/><!--MD5=[6d33811f61cc053386cf6d9397bde4cd]
class PbfWayIdentifier--><rect codeLine="57" fill="#282828" height="229.9255" id="PbfWayIdentifier" rx="8.3333" ry="8.3333" style="stroke:#5E5E5E;stroke-width:1.0416666666666667;" width="508.3333" x="913.0208" y="409.9528"/><rect fill="#1B1B1A" height="31.3883" rx="8.3333" ry="8.3333" style="stroke:#1B1B1A;stroke-width:1.0416666666666667;" width="508.3333" x="913.0208" y="409.9528"/><rect fill="#1B1B1A" height="8.3333" style="stroke:#1B1B1A;stroke-width:1.0416666666666667;" width="508.3333" x="913.0208" y="433.0078"/><rect codeLine="57" fill="none" height="229.9255" id="PbfWayIdentifier" rx="8.3333" ry="8.3333" style="stroke:#5E5E5E;stroke-width:1.0416666666666667;" width="508.3333" x="913.0208" y="409.9528"/><ellipse cx="1106.7708" cy="425.647" fill="#0066CF" rx="10.4167" ry="10.4167" style="stroke:#0086EF;stroke-width:1.0416666666666667;"/><path d="M1108.6812,430.072 Q1108.254,430.2917 1107.784,430.4016 Q1107.314,430.5115 1106.7952,430.5115 Q1104.952,430.5115 1103.9815,429.2969 Q1103.0111,428.0823 1103.0111,425.7874 Q1103.0111,423.4863 1103.9815,422.2717 Q1104.952,421.0571 1106.7952,421.0571 Q1107.314,421.0571 1107.7901,421.167 Q1108.2662,421.2769 1108.6812,421.4966 L1108.6812,423.4985 Q1108.2174,423.0713 1107.781,422.8729 Q1107.3446,422.6746 1106.8807,422.6746 Q1105.8919,422.6746 1105.3884,423.4589 Q1104.8848,424.2432 1104.8848,425.7874 Q1104.8848,427.3254 1105.3884,428.1097 Q1105.8919,428.894 1106.8807,428.894 Q1107.3446,428.894 1107.781,428.6957 Q1108.2174,428.4973 1108.6812,428.0701 Z " fill="#000000"/><text fill="#D8BC00" font-family="Open Sans,Avenir,Nunito,Arial,Helvetica,SansSerif" font-size="12.5" font-weight="bold" lengthAdjust="spacing" textLength="106.25" x="1129.6875" y="430.3711">PbfWayIdentifier</text><line style="stroke:#5E5E5E;stroke-width:1.5625;" x1="914.0625" x2="1420.3125" y1="441.3411" y2="441.3411"/><ellipse cx="924.4792" cy="476.711" fill="#84BE84" rx="3.125" ry="3.125" style="stroke:#038048;stroke-width:1.0416666666666667;"/><text fill="#D8BC00" font-family="Open Sans,Avenir,Nunito,Arial,Helvetica,SansSerif" font-size="11.4583" lengthAdjust="spacing" textLength="137.5" x="935.9375" y="483.6222">PbfWayIdentifier(PbfWay)</text><ellipse cx="924.4792" cy="496.4559" fill="#84BE84" rx="3.125" ry="3.125" style="stroke:#038048;stroke-width:1.0416666666666667;"/><text fill="#D8BC00" font-family="Open Sans,Avenir,Nunito,Arial,Helvetica,SansSerif" font-size="11.4583" lengthAdjust="spacing" textLength="122.9167" x="935.9375" y="503.3671">PbfWayIdentifier(long)</text><line style="stroke:#5E5E5E;stroke-width:1.0416666666666667;" x1="914.0625" x2="1123.4375" y1="459.5469" y2="459.5469"/><text fill="#D8BC00" font-family="Open Sans,Avenir,Nunito,Arial,Helvetica,SansSerif" font-size="11.4583" lengthAdjust="spacing" textLength="81.25" x="1126.5625" y="463.3565">(constructors)</text><line style="stroke:#5E5E5E;stroke-width:1.0416666666666667;" x1="1210.9375" x2="1420.3125" y1="459.5469" y2="459.5469"/><ellipse cx="924.4792" cy="540.1123" fill="#84BE84" rx="3.125" ry="3.125" style="stroke:#038048;stroke-width:1.0416666666666667;"/><text fill="#D8BC00" font-family="Open Sans,Avenir,Nunito,Arial,Helvetica,SansSerif" font-size="11.4583" lengthAdjust="spacing" textLength="476.0417" x="935.9375" y="547.0235">SwitchParser.Builder&lt;PbfWayIdentifier&gt; switchParser(String name, String description)</text><line style="stroke:#5E5E5E;stroke-width:1.0416666666666667;" x1="914.0625" x2="1097.9167" y1="522.9482" y2="522.9482"/><text fill="#D8BC00" font-family="Open Sans,Avenir,Nunito,Arial,Helvetica,SansSerif" font-size="11.4583" lengthAdjust="spacing" textLength="132.2917" x="1101.0417" y="526.7578">(command line parsing)</text><line style="stroke:#5E5E5E;stroke-width:1.0416666666666667;" x1="1236.4583" x2="1420.3125" y1="522.9482" y2="522.9482"/><ellipse cx="924.4792" cy="583.7687" fill="#84BE84" rx="3.125" ry="3.125" style="stroke:#038048;stroke-width:1.0416666666666667;"/><text fill="#D8BC00" font-family="Open Sans,Avenir,Nunito,Arial,Helvetica,SansSerif" font-size="11.4583" lengthAdjust="spacing" textLength="229.1667" x="935.9375" y="590.6799">MapWayIdentifier forLong(long identifier)</text><ellipse cx="924.4792" cy="603.5136" fill="#84BE84" rx="3.125" ry="3.125" style="stroke:#038048;stroke-width:1.0416666666666667;"/><text fill="#D8BC00" font-family="Open Sans,Avenir,Nunito,Arial,Helvetica,SansSerif" font-size="11.4583" lengthAdjust="spacing" textLength="161.4583" x="935.9375" y="610.4248">PbfWayIdentifier forWay(Way)</text><ellipse cx="924.4792" cy="623.2585" fill="#84BE84" rx="3.125" ry="3.125" style="stroke:#038048;stroke-width:1.0416666666666667;"/><text fill="#D8BC00" font-family="Open Sans,Avenir,Nunito,Arial,Helvetica,SansSerif" font-size="11.4583" lengthAdjust="spacing" textLength="165.625" x="935.9375" y="630.1697">PbfWayIdentifier parse(String)</text><line style="stroke:#5E5E5E;stroke-width:1.0416666666666667;" x1="914.0625" x2="1139.0625" y1="566.6046" y2="566.6046"/><text fill="#D8BC00" font-family="Open Sans,Avenir,Nunito,Arial,Helvetica,SansSerif" font-size="11.4583" lengthAdjust="spacing" textLength="50" x="1142.1875" y="570.4142">(identity)</text><line style="stroke:#5E5E5E;stroke-width:1.0416666666666667;" x1="1195.3125" x2="1420.3125" y1="566.6046" y2="566.6046"/><!--MD5=[b7c92410d059910e3820fa18a559867d]
reverse link MapNodeIdentifier to PbfNodeIdentifier--><path codeLine="24" d="M157.8125,235.734 C157.8125,275.1507 157.8125,335.0674 157.8125,390.0882 " fill="none" id="MapNodeIdentifier-backto-PbfNodeIdentifier" style="stroke:#545454;stroke-width:1.5625;"/><polygon fill="none" points="150.5208,235.6611,157.8125,214.8278,165.1042,235.6611,150.5208,235.6611" style="stroke:#545454;stroke-width:1.5625;"/><!--MD5=[c6144ae6b5f7a3d466e52a7a45dce51f]
reverse link PbfIdentifierType to PbfNodeIdentifier--><path codeLine="25" d="M371.7188,341.5674 C350.5625,359.609 329.1042,377.9111 308.3646,395.609 " fill="none" id="PbfIdentifierType-backto-PbfNodeIdentifier" style="stroke:#545454;stroke-width:1.5625;"/><polygon fill="none" points="367.2292,335.807,387.8125,327.8382,376.6979,346.9007,367.2292,335.807" style="stroke:#545454;stroke-width:1.5625;"/><!--MD5=[696e82e50956531d6eceac40718c9433]
reverse link MapRelationIdentifier to PbfRelationIdentifier--><path codeLine="41" d="M852.125,231.7965 C831.1042,259.0257 802.4583,295.7653 776.5625,327.6611 C752.1042,357.7757 725.1354,390.109 700.1979,419.6611 " fill="none" id="MapRelationIdentifier-backto-PbfRelationIdentifier" style="stroke:#545454;stroke-width:1.5625;"/><polygon fill="none" points="846.5417,227.0882,865.0208,215.0257,858.1042,235.984,846.5417,227.0882" style="stroke:#545454;stroke-width:1.5625;"/><!--MD5=[c07aa6122c5a51fdbbc2a4ca7bcc1192]
reverse link PbfIdentifierType to PbfRelationIdentifier--><path codeLine="42" d="M577.3646,348.4736 C581.9896,372.6195 586.6563,397.0257 590.9792,419.6507 " fill="none" id="PbfIdentifierType-backto-PbfRelationIdentifier" style="stroke:#545454;stroke-width:1.5625;"/><polygon fill="none" points="570.1771,349.6715,573.4271,327.8382,584.5,346.932,570.1771,349.6715" style="stroke:#545454;stroke-width:1.5625;"/><!--MD5=[39b60b1746834a72f23adedd2343da58]
reverse link MapWayIdentifier to PbfWayIdentifier--><path codeLine="55" d="M1167.1875,235.682 C1167.1875,279.8903 1167.1875,349.9215 1167.1875,409.8903 " fill="none" id="MapWayIdentifier-backto-PbfWayIdentifier" style="stroke:#545454;stroke-width:1.5625;"/><polygon fill="none" points="1159.8958,235.6611,1167.1875,214.8278,1174.4792,235.6611,1159.8958,235.6611" style="stroke:#545454;stroke-width:1.5625;"/><!--MD5=[6a446ac765df065cdf7236564e03b77b]
reverse link PbfIdentifierType to PbfWayIdentifier--><path codeLine="56" d="M776.2813,327.5049 C776.375,327.557 776.4688,327.609 776.5625,327.6611 C808.3542,345.057 870.7917,376.7965 936.5833,409.7653 " fill="none" id="PbfIdentifierType-backto-PbfWayIdentifier" style="stroke:#545454;stroke-width:1.5625;"/><polygon fill="none" points="772.8125,333.9215,758.1146,317.4632,779.875,321.1611,772.8125,333.9215" style="stroke:#545454;stroke-width:1.5625;"/><!--MD5=[15e17ebe51e5e94b2e7cbaf13be1ae11]
@startuml

    !include ../lexakai/lexakai.theme
    
    title "diagram-pbf-model-identifiers"
    
    interface PbfIdentifierType
    
    interface PbfIdentifierType
    {
        - -
        +EntityType entityType()
        - -(collection)- -
        +MapIdentifier forIdentifierAndType(MapIdentifier.Type, long identifier)
        +MapIdentifier forIdentifierAndType(long identifierAndType)
        +MapIdentifier newIdentifier(long identifier)
        +MapIdentifier.Type type()
        +MapIdentifier withType(MapIdentifier, MapIdentifier.Type)
        +MapIdentifier withType()
        +MapIdentifier withoutType()
        - -(primitive)- -
        +long asLong()
    }
    
    MapNodeIdentifier <|- - PbfNodeIdentifier
    PbfIdentifierType <|- - PbfNodeIdentifier
    class PbfNodeIdentifier
    {
        - -(constructors)- -
        +PbfNodeIdentifier(PbfNode)
        +PbfNodeIdentifier(WayNode)
        +PbfNodeIdentifier(long)
        - -(checks)- -
        +boolean isSynthetic()
        +boolean isSynthetic(long identifier)
        - -(identity)- -
        +PbfNodeIdentifier forLong(long identifier)
        +MapNodeIdentifier nextSyntheticNodeIdentifier()
        +PbfNodeIdentifier parse(String)
    }
    
    MapRelationIdentifier <|- - PbfRelationIdentifier
    PbfIdentifierType <|- - PbfRelationIdentifier
    class PbfRelationIdentifier
    {
        - -(constructors)- -
        +PbfRelationIdentifier(PbfRelation)
        +PbfRelationIdentifier(long)
        - -(command line parsing)- -
        +SwitchParser.Builder<PbfRelationIdentifier> switchParser(String name, String description)
        - -(identity)- -
        +MapRelationIdentifier forLong(long identifier)
        +PbfRelationIdentifier forRelation(Relation)
    }
    
    MapWayIdentifier <|- - PbfWayIdentifier
    PbfIdentifierType <|- - PbfWayIdentifier
    class PbfWayIdentifier
    {
        - -(constructors)- -
        +PbfWayIdentifier(PbfWay)
        +PbfWayIdentifier(long)
        - -(command line parsing)- -
        +SwitchParser.Builder<PbfWayIdentifier> switchParser(String name, String description)
        - -(identity)- -
        +MapWayIdentifier forLong(long identifier)
        +PbfWayIdentifier forWay(Way)
        +PbfWayIdentifier parse(String)
    }
    
@enduml

@startuml









skinparam backgroundColor #333333






skinparam  {
    defaultFontName   "Open Sans,Avenir,Nunito,Arial,Helvetica,SansSerif"
    defaultFontSize   12
    defaultTextAlignment left
    shadowing false
    RoundCorner 10
    TitleFontSize 18
}

skinparam defaultFontName       "Open Sans,Avenir,Nunito,Arial,Helvetica,SansSerif"
skinparam defaultFontSize       12
skinparam dpi                   100
skinparam shadowing             false
skinparam roundcorner           16
skinparam ParticipantPadding    40
skinparam BoxPadding            40
skinparam Padding               3
skinparam ArrowColor            #545454
skinparam stereotype {
    CBackgroundColor #0066cf
    CBorderColor #0086ef
    ABackgroundColor #C8Ac00
    ABorderColor #D8Bc00
    IBackgroundColor #008400
    IBorderColor #239c23
    EBackgroundColor #cf6300
    EBorderColor #ef8300
    NBackgroundColor #3380b9
    NBorderColor #004d86
}
skinparam title {
	FontColor	                 #c0c0c0
 	BorderColor                  #545454
	FontSize	    	         20
	BorderRoundCorner            16
	BorderThickness 	         1
	BackgroundColor              #48494b
}


skinparam legend {
	BackgroundColor #303030
	BorderColor #404040
	FontColor #a0a0a0
}

	skinparam swimlane {
	BorderColor #5e5e5e
	BorderThickness 2
	TitleBackgroundColor  #6d6d6d-#484848
	TitleFontColor #303030
}

skinparam activity {
		FontColor #C8Ac00
	BorderColor #333333
	BackgroundColor #333333-#333333
	BarColor #00FF00
	StartColor #0060a8
	EndColor #0060a8
	DiamondBackgroundColor #6d6d6d-#3a3a3a
  	DiamondBorderColor #3a3a3a
  	DiamondFontColor #fefefe
}


skinparam participant {
		FontColor #C8Ac00
	BorderColor #333333
	BackgroundColor #333333-#333333
	ParticipantBorderThickness 2
}


skinparam actor {
		FontColor #C8Ac00
	BorderColor #333333
	BackgroundColor #333333-#333333
}


skinparam arrow {
	Thickness 1.5
	Color #545454
	FontColor #a0a0a0
    FontStyle bold
    MessageAlignment center
}



skinparam sequence {
	BorderColor #303030
	TitleFontColor #303030
	BackgroundColor #333333
	StartColor #303030
	EndColor #303030
	BoxBackgroundColor #333333
	BoxBorderColor #484848
	BoxFontColor #484848
	LifeLineBorderColor #484848
	LifeLineBorderThickness 2
	LifeLineBackgroundColor #3a3a3a
	GroupBorderColor #484848
	GroupFontColor #484848
	GroupHeaderFontColor #0060a8
	GroupBackgroundColor #484848
	GroupHeaderBackgroundColor #333333
	DividerBackgroundColor #484848
    DividerBorderColor #484848
    DividerBorderThickness 2
    DividerFontColor #D8Bc00
	ReferenceBackgroundColor #333333
	ReferenceBorderColor #484848
	ReferenceFontColor #fefefe
	ReferenceHeaderBackgroundColor #484848
}


skinparam partition {
	BorderColor #303030
	FontColor #333333
	BackgroundColor #333333
}


skinparam collections {
		FontColor #C8Ac00
	BorderColor #333333
	BackgroundColor #333333-#333333
}


skinparam control {
		FontColor #C8Ac00
	BorderColor #333333
	BackgroundColor #333333-#333333
}


skinparam entity {
		FontColor #C8Ac00
	BorderColor #333333
	BackgroundColor #333333-#333333
}


skinparam boundary {
		FontColor #C8Ac00
	BorderColor #333333
	BackgroundColor #333333-#333333
}


skinparam agent {
	BackgroundColor #ff8000
	BorderColor #ff9933
	FontColor #484848
}


skinparam note {
	BorderThickness 1
	BackgroundColor #1b1b1a
	BorderColor #5e5e5e
	FontSize 11
	FontColor #a0a0a0
}


skinparam artifact {
	BorderThickness 10
	BorderColor #5e5e5e
	BackgroundColor #1b1b1a
	FontColor #D8Bc00
}


skinparam component {
		FontColor #C8Ac00
	BorderColor #333333
	BackgroundColor #333333-#333333
}


skinparam interface {
	BackgroundColor  #008400
	BorderColor  #007F00
	FontColor #484848
}


skinparam storage {
	BackgroundColor #ff8000
  	BorderColor #cc6600
	FontColor #222222
}


skinparam node {
	BackgroundColor #333333
	BorderColor #333333
	FontColor #C8Ac00
}


skinparam cloud {
	BackgroundColor #484848-black
	BorderColor #484848
	FontColor #D8Bc00
}


skinparam database {
		FontColor #C8Ac00
	BorderColor #333333
	BackgroundColor #333333-#333333
	BackgroundColor  #333333
}


skinparam class {
		FontColor #C8Ac00
	BorderColor #333333
	BackgroundColor #333333-#333333
	HeaderBackgroundColor #1b1b1a
    BackgroundColor #282828
    BorderColor #5e5e5e
 	StereotypeFontColor #a0a0a0
    StereotypeFontStyle bold
	BorderThickness 1
	AttributeFontColor #D8Bc00
	AttributeFontSize 11
    FontColor #D8Bc00
    FontStyle bold
}


skinparam object {
		FontColor #C8Ac00
	BorderColor #333333
	BackgroundColor #333333-#333333
	StereotypeFontColor #484848
	BorderThickness 1
	AttributeFontColor #fefefe
	AttributeFontSize 11
}


skinparam usecase {
		FontColor #C8Ac00
	BorderColor #333333
	BackgroundColor #333333-#333333
	BorderThickness 2
	StereotypeFontColor #303030
}


skinparam rectangle {
		FontColor #C8Ac00
	BorderColor #333333
	BackgroundColor #333333-#333333
	BackgroundColor #333333
	BorderThickness 2
	StereotypeFontColor #303030
}


skinparam package {
		FontColor #C8Ac00
	BorderColor #333333
	BackgroundColor #333333-#333333
	BackgroundColor #333333
	BorderThickness 2
}


skinparam folder {
	BackgroundColor #6d6d6d
  	BorderColor #ff8000
	FontColor #ff8000
	BorderThickness 2
}


skinparam frame {
	BackgroundColor #6d6d6d
  	BorderColor #0060a8
	FontColor #0060a8
	BorderThickness 2
}


skinparam state {
		FontColor #C8Ac00
	BorderColor #333333
	BackgroundColor #333333-#333333
	StartColor #0060a8
	EndColor #0060a8
	AttributeFontColor #fefefe
	AttributeFontSize 11
}


skinparam queue {
		FontColor #C8Ac00
	BorderColor #333333
	BackgroundColor #333333-#333333
}


skinparam card {
	BackgroundColor #0060a8
	BorderColor #004d86
	FontColor $INFO_TEXT
}


skinparam file {
	BackgroundColor #6d6d6d-#484848
	BorderColor #0060a8
	FontColor #fefefe
}


skinparam stack {
		FontColor #C8Ac00
	BorderColor #333333
	BackgroundColor #333333-#333333
}

    
    title "diagram-pbf-model-identifiers"
    
    interface PbfIdentifierType
    
    interface PbfIdentifierType
    {
        - -
        +EntityType entityType()
        - -(collection)- -
        +MapIdentifier forIdentifierAndType(MapIdentifier.Type, long identifier)
        +MapIdentifier forIdentifierAndType(long identifierAndType)
        +MapIdentifier newIdentifier(long identifier)
        +MapIdentifier.Type type()
        +MapIdentifier withType(MapIdentifier, MapIdentifier.Type)
        +MapIdentifier withType()
        +MapIdentifier withoutType()
        - -(primitive)- -
        +long asLong()
    }
    
    MapNodeIdentifier <|- - PbfNodeIdentifier
    PbfIdentifierType <|- - PbfNodeIdentifier
    class PbfNodeIdentifier
    {
        - -(constructors)- -
        +PbfNodeIdentifier(PbfNode)
        +PbfNodeIdentifier(WayNode)
        +PbfNodeIdentifier(long)
        - -(checks)- -
        +boolean isSynthetic()
        +boolean isSynthetic(long identifier)
        - -(identity)- -
        +PbfNodeIdentifier forLong(long identifier)
        +MapNodeIdentifier nextSyntheticNodeIdentifier()
        +PbfNodeIdentifier parse(String)
    }
    
    MapRelationIdentifier <|- - PbfRelationIdentifier
    PbfIdentifierType <|- - PbfRelationIdentifier
    class PbfRelationIdentifier
    {
        - -(constructors)- -
        +PbfRelationIdentifier(PbfRelation)
        +PbfRelationIdentifier(long)
        - -(command line parsing)- -
        +SwitchParser.Builder<PbfRelationIdentifier> switchParser(String name, String description)
        - -(identity)- -
        +MapRelationIdentifier forLong(long identifier)
        +PbfRelationIdentifier forRelation(Relation)
    }
    
    MapWayIdentifier <|- - PbfWayIdentifier
    PbfIdentifierType <|- - PbfWayIdentifier
    class PbfWayIdentifier
    {
        - -(constructors)- -
        +PbfWayIdentifier(PbfWay)
        +PbfWayIdentifier(long)
        - -(command line parsing)- -
        +SwitchParser.Builder<PbfWayIdentifier> switchParser(String name, String description)
        - -(identity)- -
        +MapWayIdentifier forLong(long identifier)
        +PbfWayIdentifier forWay(Way)
        +PbfWayIdentifier parse(String)
    }
    
@enduml

PlantUML version 1.2021.01(Tue Feb 02 00:55:08 MST 2021)
(GPL source distribution)
Java Runtime: Java(TM) SE Runtime Environment
JVM: Java HotSpot(TM) 64-Bit Server VM
Default Encoding: UTF-8
Language: en
Country: US
--></g></svg>