<?xml version="1.0" encoding="UTF-8" standalone="no"?><svg xmlns="http://www.w3.org/2000/svg" xmlns:xlink="http://www.w3.org/1999/xlink" contentScriptType="application/ecmascript" contentStyleType="text/css" height="254.1667px" preserveAspectRatio="none" style="width:900px;height:254px;background:#333333;" version="1.1" viewBox="0 0 900 254" width="900px" zoomAndPan="magnify"><defs/><g><rect fill="#48494B" height="41.2028" rx="8.3333" ry="8.3333" style="stroke:#545454;stroke-width:1.0416666666666667;" width="236.4583" x="324.7396" y="2.0833"/><text fill="#C0C0C0" font-family="Open Sans,Avenir,Nunito,Arial,Helvetica,SansSerif" font-size="20.8333" lengthAdjust="spacing" textLength="213.5417" x="336.1979" y="30.5583">diagram-pbf-uni-db</text><!--MD5=[296971189912b7d7a3ae0a5bad58974f]
class WayFilter--><rect fill="#282828" height="48.055" id="WayFilter" rx="8.3333" ry="8.3333" style="stroke:#5E5E5E;stroke-width:1.0416666666666667;" width="96.875" x="145.3125" y="53.7028"/><rect fill="#1B1B1A" height="31.3883" rx="8.3333" ry="8.3333" style="stroke:#1B1B1A;stroke-width:1.0416666666666667;" width="96.875" x="145.3125" y="53.7028"/><rect fill="#1B1B1A" height="8.3333" style="stroke:#1B1B1A;stroke-width:1.0416666666666667;" width="96.875" x="145.3125" y="76.7578"/><rect fill="none" height="48.055" id="WayFilter" rx="8.3333" ry="8.3333" style="stroke:#5E5E5E;stroke-width:1.0416666666666667;" width="96.875" x="145.3125" y="53.7028"/><ellipse cx="159.8958" cy="69.397" fill="#0066CF" rx="10.4167" ry="10.4167" style="stroke:#0086EF;stroke-width:1.0416666666666667;"/><path d="M161.8062,73.822 Q161.379,74.0417 160.909,74.1516 Q160.439,74.2615 159.9202,74.2615 Q158.077,74.2615 157.1065,73.0469 Q156.1361,71.8323 156.1361,69.5374 Q156.1361,67.2363 157.1065,66.0217 Q158.077,64.8071 159.9202,64.8071 Q160.439,64.8071 160.9151,64.917 Q161.3912,65.0269 161.8062,65.2466 L161.8062,67.2485 Q161.3424,66.8213 160.906,66.6229 Q160.4696,66.4246 160.0057,66.4246 Q159.0169,66.4246 158.5134,67.2089 Q158.0098,67.9932 158.0098,69.5374 Q158.0098,71.0754 158.5134,71.8597 Q159.0169,72.644 160.0057,72.644 Q160.4696,72.644 160.906,72.4457 Q161.3424,72.2473 161.8062,71.8201 Z " fill="#000000"/><text fill="#D8BC00" font-family="Open Sans,Avenir,Nunito,Arial,Helvetica,SansSerif" font-size="12.5" font-weight="bold" lengthAdjust="spacing" textLength="59.375" x="176.5625" y="74.1211">WayFilter</text><line style="stroke:#5E5E5E;stroke-width:1.0416666666666667;" x1="146.3542" x2="241.1458" y1="85.0911" y2="85.0911"/><line style="stroke:#5E5E5E;stroke-width:1.0416666666666667;" x1="146.3542" x2="241.1458" y1="93.4245" y2="93.4245"/><!--MD5=[d97fca5cddf239e96ea0bb8d17693e96]
class NavTeamWayFilter--><rect codeLine="7" fill="#282828" height="83.3781" id="NavTeamWayFilter" rx="8.3333" ry="8.3333" style="stroke:#5E5E5E;stroke-width:1.0416666666666667;" width="156.25" x="7.2917" y="164.1195"/><rect fill="#1B1B1A" height="31.3883" rx="8.3333" ry="8.3333" style="stroke:#1B1B1A;stroke-width:1.0416666666666667;" width="156.25" x="7.2917" y="164.1195"/><rect fill="#1B1B1A" height="8.3333" style="stroke:#1B1B1A;stroke-width:1.0416666666666667;" width="156.25" x="7.2917" y="187.1745"/><rect codeLine="7" fill="none" height="83.3781" id="NavTeamWayFilter" rx="8.3333" ry="8.3333" style="stroke:#5E5E5E;stroke-width:1.0416666666666667;" width="156.25" x="7.2917" y="164.1195"/><ellipse cx="21.875" cy="179.8136" fill="#0066CF" rx="10.4167" ry="10.4167" style="stroke:#0086EF;stroke-width:1.0416666666666667;"/><path d="M23.7854,184.2387 Q23.3582,184.4584 22.8882,184.5683 Q22.4182,184.6781 21.8994,184.6781 Q20.0562,184.6781 19.0857,183.4635 Q18.1152,182.2489 18.1152,179.954 Q18.1152,177.653 19.0857,176.4384 Q20.0562,175.2238 21.8994,175.2238 Q22.4182,175.2238 22.8943,175.3337 Q23.3704,175.4435 23.7854,175.6632 L23.7854,177.6652 Q23.3215,177.238 22.8851,177.0396 Q22.4487,176.8412 21.9849,176.8412 Q20.9961,176.8412 20.4926,177.6255 Q19.989,178.4098 19.989,179.954 Q19.989,181.4921 20.4926,182.2764 Q20.9961,183.0607 21.9849,183.0607 Q22.4487,183.0607 22.8851,182.8623 Q23.3215,182.664 23.7854,182.2367 Z " fill="#000000"/><text fill="#D8BC00" font-family="Open Sans,Avenir,Nunito,Arial,Helvetica,SansSerif" font-size="12.5" font-weight="bold" lengthAdjust="spacing" textLength="118.75" x="38.5417" y="184.5378">NavTeamWayFilter</text><line style="stroke:#5E5E5E;stroke-width:1.5625;" x1="8.3333" x2="162.5" y1="195.5078" y2="195.5078"/><ellipse cx="18.75" cy="230.8777" fill="#84BE84" rx="3.125" ry="3.125" style="stroke:#038048;stroke-width:1.0416666666666667;"/><text fill="#D8BC00" font-family="Open Sans,Avenir,Nunito,Arial,Helvetica,SansSerif" font-size="11.4583" lengthAdjust="spacing" textLength="109.375" x="30.2083" y="237.7889">NavTeamWayFilter()</text><line style="stroke:#5E5E5E;stroke-width:1.0416666666666667;" x1="8.3333" x2="41.6667" y1="213.7136" y2="213.7136"/><text fill="#D8BC00" font-family="Open Sans,Avenir,Nunito,Arial,Helvetica,SansSerif" font-size="11.4583" lengthAdjust="spacing" textLength="81.25" x="44.7917" y="217.5232">(constructors)</text><line style="stroke:#5E5E5E;stroke-width:1.0416666666666667;" x1="129.1667" x2="162.5" y1="213.7136" y2="213.7136"/><!--MD5=[7641309704a2ba86945d63525f0a850a]
class RelationFilter--><rect fill="#282828" height="48.055" id="RelationFilter" rx="8.3333" ry="8.3333" style="stroke:#5E5E5E;stroke-width:1.0416666666666667;" width="123.9583" x="622.3958" y="53.7028"/><rect fill="#1B1B1A" height="31.3883" rx="8.3333" ry="8.3333" style="stroke:#1B1B1A;stroke-width:1.0416666666666667;" width="123.9583" x="622.3958" y="53.7028"/><rect fill="#1B1B1A" height="8.3333" style="stroke:#1B1B1A;stroke-width:1.0416666666666667;" width="123.9583" x="622.3958" y="76.7578"/><rect fill="none" height="48.055" id="RelationFilter" rx="8.3333" ry="8.3333" style="stroke:#5E5E5E;stroke-width:1.0416666666666667;" width="123.9583" x="622.3958" y="53.7028"/><ellipse cx="636.9792" cy="69.397" fill="#0066CF" rx="10.4167" ry="10.4167" style="stroke:#0086EF;stroke-width:1.0416666666666667;"/><path d="M638.8896,73.822 Q638.4623,74.0417 637.9924,74.1516 Q637.5224,74.2615 637.0036,74.2615 Q635.1603,74.2615 634.1899,73.0469 Q633.2194,71.8323 633.2194,69.5374 Q633.2194,67.2363 634.1899,66.0217 Q635.1603,64.8071 637.0036,64.8071 Q637.5224,64.8071 637.9985,64.917 Q638.4745,65.0269 638.8896,65.2466 L638.8896,67.2485 Q638.4257,66.8213 637.9893,66.6229 Q637.5529,66.4246 637.089,66.4246 Q636.1003,66.4246 635.5967,67.2089 Q635.0932,67.9932 635.0932,69.5374 Q635.0932,71.0754 635.5967,71.8597 Q636.1003,72.644 637.089,72.644 Q637.5529,72.644 637.9893,72.4457 Q638.4257,72.2473 638.8896,71.8201 Z " fill="#000000"/><text fill="#D8BC00" font-family="Open Sans,Avenir,Nunito,Arial,Helvetica,SansSerif" font-size="12.5" font-weight="bold" lengthAdjust="spacing" textLength="86.4583" x="653.6458" y="74.1211">RelationFilter</text><line style="stroke:#5E5E5E;stroke-width:1.0416666666666667;" x1="623.4375" x2="745.3125" y1="85.0911" y2="85.0911"/><line style="stroke:#5E5E5E;stroke-width:1.0416666666666667;" x1="623.4375" x2="745.3125" y1="93.4245" y2="93.4245"/><!--MD5=[6d7203d768630756402534b7ebf44125]
class UniDbExcludeAdasRelationFilter--><rect codeLine="14" fill="#282828" height="83.3781" id="UniDbExcludeAdasRelationFilter" rx="8.3333" ry="8.3333" style="stroke:#5E5E5E;stroke-width:1.0416666666666667;" width="245.8333" x="438.5417" y="164.1195"/><rect fill="#1B1B1A" height="31.3883" rx="8.3333" ry="8.3333" style="stroke:#1B1B1A;stroke-width:1.0416666666666667;" width="245.8333" x="438.5417" y="164.1195"/><rect fill="#1B1B1A" height="8.3333" style="stroke:#1B1B1A;stroke-width:1.0416666666666667;" width="245.8333" x="438.5417" y="187.1745"/><rect codeLine="14" fill="none" height="83.3781" id="UniDbExcludeAdasRelationFilter" rx="8.3333" ry="8.3333" style="stroke:#5E5E5E;stroke-width:1.0416666666666667;" width="245.8333" x="438.5417" y="164.1195"/><ellipse cx="453.125" cy="179.8136" fill="#0066CF" rx="10.4167" ry="10.4167" style="stroke:#0086EF;stroke-width:1.0416666666666667;"/><path d="M455.0354,184.2387 Q454.6082,184.4584 454.1382,184.5683 Q453.6682,184.6781 453.1494,184.6781 Q451.3062,184.6781 450.3357,183.4635 Q449.3652,182.2489 449.3652,179.954 Q449.3652,177.653 450.3357,176.4384 Q451.3062,175.2238 453.1494,175.2238 Q453.6682,175.2238 454.1443,175.3337 Q454.6204,175.4435 455.0354,175.6632 L455.0354,177.6652 Q454.5715,177.238 454.1351,177.0396 Q453.6987,176.8412 453.2349,176.8412 Q452.2461,176.8412 451.7426,177.6255 Q451.239,178.4098 451.239,179.954 Q451.239,181.4921 451.7426,182.2764 Q452.2461,183.0607 453.2349,183.0607 Q453.6987,183.0607 454.1351,182.8623 Q454.5715,182.664 455.0354,182.2367 Z " fill="#000000"/><text fill="#D8BC00" font-family="Open Sans,Avenir,Nunito,Arial,Helvetica,SansSerif" font-size="12.5" font-weight="bold" lengthAdjust="spacing" textLength="208.3333" x="469.7917" y="184.5378">UniDbExcludeAdasRelationFilter</text><line style="stroke:#5E5E5E;stroke-width:1.5625;" x1="439.5833" x2="683.3333" y1="195.5078" y2="195.5078"/><ellipse cx="450" cy="230.8777" fill="#84BE84" rx="3.125" ry="3.125" style="stroke:#038048;stroke-width:1.0416666666666667;"/><text fill="#D8BC00" font-family="Open Sans,Avenir,Nunito,Arial,Helvetica,SansSerif" font-size="11.4583" lengthAdjust="spacing" textLength="187.5" x="461.4583" y="237.7889">UniDbExcludeAdasRelationFilter()</text><line style="stroke:#5E5E5E;stroke-width:1.0416666666666667;" x1="439.5833" x2="517.7083" y1="213.7136" y2="213.7136"/><text fill="#D8BC00" font-family="Open Sans,Avenir,Nunito,Arial,Helvetica,SansSerif" font-size="11.4583" lengthAdjust="spacing" textLength="81.25" x="520.8333" y="217.5232">(constructors)</text><line style="stroke:#5E5E5E;stroke-width:1.0416666666666667;" x1="605.2083" x2="683.3333" y1="213.7136" y2="213.7136"/><!--MD5=[bdc068106fa2e02e392a4bbfce8afb2a]
class UniDbNavigableWayFilter--><rect codeLine="21" fill="#282828" height="83.3781" id="UniDbNavigableWayFilter" rx="8.3333" ry="8.3333" style="stroke:#5E5E5E;stroke-width:1.0416666666666667;" width="201.0417" x="200.5208" y="164.1195"/><rect fill="#1B1B1A" height="31.3883" rx="8.3333" ry="8.3333" style="stroke:#1B1B1A;stroke-width:1.0416666666666667;" width="201.0417" x="200.5208" y="164.1195"/><rect fill="#1B1B1A" height="8.3333" style="stroke:#1B1B1A;stroke-width:1.0416666666666667;" width="201.0417" x="200.5208" y="187.1745"/><rect codeLine="21" fill="none" height="83.3781" id="UniDbNavigableWayFilter" rx="8.3333" ry="8.3333" style="stroke:#5E5E5E;stroke-width:1.0416666666666667;" width="201.0417" x="200.5208" y="164.1195"/><ellipse cx="215.1042" cy="179.8136" fill="#0066CF" rx="10.4167" ry="10.4167" style="stroke:#0086EF;stroke-width:1.0416666666666667;"/><path d="M217.0146,184.2387 Q216.5873,184.4584 216.1174,184.5683 Q215.6474,184.6781 215.1286,184.6781 Q213.2853,184.6781 212.3149,183.4635 Q211.3444,182.2489 211.3444,179.954 Q211.3444,177.653 212.3149,176.4384 Q213.2853,175.2238 215.1286,175.2238 Q215.6474,175.2238 216.1235,175.3337 Q216.5995,175.4435 217.0146,175.6632 L217.0146,177.6652 Q216.5507,177.238 216.1143,177.0396 Q215.6779,176.8412 215.214,176.8412 Q214.2253,176.8412 213.7217,177.6255 Q213.2182,178.4098 213.2182,179.954 Q213.2182,181.4921 213.7217,182.2764 Q214.2253,183.0607 215.214,183.0607 Q215.6779,183.0607 216.1143,182.8623 Q216.5507,182.664 217.0146,182.2367 Z " fill="#000000"/><text fill="#D8BC00" font-family="Open Sans,Avenir,Nunito,Arial,Helvetica,SansSerif" font-size="12.5" font-weight="bold" lengthAdjust="spacing" textLength="163.5417" x="231.7708" y="184.5378">UniDbNavigableWayFilter</text><line style="stroke:#5E5E5E;stroke-width:1.5625;" x1="201.5625" x2="400.5208" y1="195.5078" y2="195.5078"/><ellipse cx="211.9792" cy="230.8777" fill="#84BE84" rx="3.125" ry="3.125" style="stroke:#038048;stroke-width:1.0416666666666667;"/><text fill="#D8BC00" font-family="Open Sans,Avenir,Nunito,Arial,Helvetica,SansSerif" font-size="11.4583" lengthAdjust="spacing" textLength="146.875" x="223.4375" y="237.7889">UniDbNavigableWayFilter()</text><line style="stroke:#5E5E5E;stroke-width:1.0416666666666667;" x1="201.5625" x2="257.2917" y1="213.7136" y2="213.7136"/><text fill="#D8BC00" font-family="Open Sans,Avenir,Nunito,Arial,Helvetica,SansSerif" font-size="11.4583" lengthAdjust="spacing" textLength="81.25" x="260.4167" y="217.5232">(constructors)</text><line style="stroke:#5E5E5E;stroke-width:1.0416666666666667;" x1="344.7917" x2="400.5208" y1="213.7136" y2="213.7136"/><!--MD5=[572d29c2ede04684f69fa104f06a9abc]
class UniDbRelationsFilter--><rect codeLine="28" fill="#282828" height="83.3781" id="UniDbRelationsFilter" rx="8.3333" ry="8.3333" style="stroke:#5E5E5E;stroke-width:1.0416666666666667;" width="171.875" x="721.3542" y="164.1195"/><rect fill="#1B1B1A" height="31.3883" rx="8.3333" ry="8.3333" style="stroke:#1B1B1A;stroke-width:1.0416666666666667;" width="171.875" x="721.3542" y="164.1195"/><rect fill="#1B1B1A" height="8.3333" style="stroke:#1B1B1A;stroke-width:1.0416666666666667;" width="171.875" x="721.3542" y="187.1745"/><rect codeLine="28" fill="none" height="83.3781" id="UniDbRelationsFilter" rx="8.3333" ry="8.3333" style="stroke:#5E5E5E;stroke-width:1.0416666666666667;" width="171.875" x="721.3542" y="164.1195"/><ellipse cx="735.9375" cy="179.8136" fill="#0066CF" rx="10.4167" ry="10.4167" style="stroke:#0086EF;stroke-width:1.0416666666666667;"/><path d="M737.8479,184.2387 Q737.4207,184.4584 736.9507,184.5683 Q736.4807,184.6781 735.9619,184.6781 Q734.1187,184.6781 733.1482,183.4635 Q732.1777,182.2489 732.1777,179.954 Q732.1777,177.653 733.1482,176.4384 Q734.1187,175.2238 735.9619,175.2238 Q736.4807,175.2238 736.9568,175.3337 Q737.4329,175.4435 737.8479,175.6632 L737.8479,177.6652 Q737.384,177.238 736.9476,177.0396 Q736.5112,176.8412 736.0474,176.8412 Q735.0586,176.8412 734.5551,177.6255 Q734.0515,178.4098 734.0515,179.954 Q734.0515,181.4921 734.5551,182.2764 Q735.0586,183.0607 736.0474,183.0607 Q736.5112,183.0607 736.9476,182.8623 Q737.384,182.664 737.8479,182.2367 Z " fill="#000000"/><text fill="#D8BC00" font-family="Open Sans,Avenir,Nunito,Arial,Helvetica,SansSerif" font-size="12.5" font-weight="bold" lengthAdjust="spacing" textLength="134.375" x="752.6042" y="184.5378">UniDbRelationsFilter</text><line style="stroke:#5E5E5E;stroke-width:1.5625;" x1="722.3958" x2="892.1875" y1="195.5078" y2="195.5078"/><ellipse cx="732.8125" cy="230.8777" fill="#84BE84" rx="3.125" ry="3.125" style="stroke:#038048;stroke-width:1.0416666666666667;"/><text fill="#D8BC00" font-family="Open Sans,Avenir,Nunito,Arial,Helvetica,SansSerif" font-size="11.4583" lengthAdjust="spacing" textLength="121.875" x="744.2708" y="237.7889">UniDbRelationsFilter()</text><line style="stroke:#5E5E5E;stroke-width:1.0416666666666667;" x1="722.3958" x2="763.5417" y1="213.7136" y2="213.7136"/><text fill="#D8BC00" font-family="Open Sans,Avenir,Nunito,Arial,Helvetica,SansSerif" font-size="11.4583" lengthAdjust="spacing" textLength="81.25" x="766.6667" y="217.5232">(constructors)</text><line style="stroke:#5E5E5E;stroke-width:1.0416666666666667;" x1="851.0417" x2="892.1875" y1="213.7136" y2="213.7136"/><!--MD5=[57f3542cb3bac048a49d6d41fe426d25]
reverse link WayFilter to NavTeamWayFilter--><path codeLine="6" d="M160.1042,117.8486 C147.5313,132.484 133.2083,149.1299 120.5104,163.9215 " fill="none" id="WayFilter-backto-NavTeamWayFilter" style="stroke:#545454;stroke-width:1.5625;"/><polygon fill="none" points="154.7708,112.8695,173.875,101.8174,165.8333,122.3695,154.7708,112.8695" style="stroke:#545454;stroke-width:1.5625;"/><!--MD5=[1bdedbf776b2b7e066a90d8073c20bc7]
reverse link RelationFilter to UniDbExcludeAdasRelationFilter--><path codeLine="13" d="M647.1354,116.8903 C632.6354,131.7549 616,148.8174 601.2708,163.9215 " fill="none" id="RelationFilter-backto-UniDbExcludeAdasRelationFilter" style="stroke:#545454;stroke-width:1.5625;"/><polygon fill="none" points="642.0625,111.6403,661.8333,101.8174,652.5,121.8278,642.0625,111.6403" style="stroke:#545454;stroke-width:1.5625;"/><!--MD5=[e358e0d1fe25a30a9f4097f34d12230f]
reverse link WayFilter to UniDbNavigableWayFilter--><path codeLine="20" d="M227.0729,117.8486 C239.5313,132.484 253.7083,149.1299 266.2917,163.9215 " fill="none" id="WayFilter-backto-UniDbNavigableWayFilter" style="stroke:#545454;stroke-width:1.5625;"/><polygon fill="none" points="221.3854,122.4111,213.4271,101.8174,232.4896,112.9632,221.3854,122.4111" style="stroke:#545454;stroke-width:1.5625;"/><!--MD5=[23b0f24ce3c3604392dc2da459397efb]
reverse link RelationFilter to UniDbRelationsFilter--><path codeLine="27" d="M721.6146,116.8903 C736.1146,131.7549 752.75,148.8174 767.4792,163.9215 " fill="none" id="RelationFilter-backto-UniDbRelationsFilter" style="stroke:#545454;stroke-width:1.5625;"/><polygon fill="none" points="716.25,121.8278,706.9167,101.8174,726.6875,111.6403,716.25,121.8278" style="stroke:#545454;stroke-width:1.5625;"/><!--MD5=[43e6742a638678c42371798ce28058df]
@startuml

    !include ../lexakai/lexakai.theme
    
    title "diagram-pbf-uni-db"
    
    WayFilter <|- - NavTeamWayFilter
    class NavTeamWayFilter
    {
        - -(constructors)- -
        +NavTeamWayFilter()
    }
    
    RelationFilter <|- - UniDbExcludeAdasRelationFilter
    class UniDbExcludeAdasRelationFilter
    {
        - -(constructors)- -
        +UniDbExcludeAdasRelationFilter()
    }
    
    WayFilter <|- - UniDbNavigableWayFilter
    class UniDbNavigableWayFilter
    {
        - -(constructors)- -
        +UniDbNavigableWayFilter()
    }
    
    RelationFilter <|- - UniDbRelationsFilter
    class UniDbRelationsFilter
    {
        - -(constructors)- -
        +UniDbRelationsFilter()
    }
    
@enduml

@startuml









skinparam backgroundColor #333333






skinparam  {
    defaultFontName   "Open Sans,Avenir,Nunito,Arial,Helvetica,SansSerif"
    defaultFontSize   12
    defaultTextAlignment left
    shadowing false
    RoundCorner 10
    TitleFontSize 18
}

skinparam defaultFontName       "Open Sans,Avenir,Nunito,Arial,Helvetica,SansSerif"
skinparam defaultFontSize       12
skinparam dpi                   100
skinparam shadowing             false
skinparam roundcorner           16
skinparam ParticipantPadding    40
skinparam BoxPadding            40
skinparam Padding               3
skinparam ArrowColor            #545454
skinparam stereotype {
    CBackgroundColor #0066cf
    CBorderColor #0086ef
    ABackgroundColor #C8Ac00
    ABorderColor #D8Bc00
    IBackgroundColor #008400
    IBorderColor #239c23
    EBackgroundColor #cf6300
    EBorderColor #ef8300
    NBackgroundColor #3380b9
    NBorderColor #004d86
}
skinparam title {
	FontColor	                 #c0c0c0
 	BorderColor                  #545454
	FontSize	    	         20
	BorderRoundCorner            16
	BorderThickness 	         1
	BackgroundColor              #48494b
}


skinparam legend {
	BackgroundColor #303030
	BorderColor #404040
	FontColor #a0a0a0
}

	skinparam swimlane {
	BorderColor #5e5e5e
	BorderThickness 2
	TitleBackgroundColor  #6d6d6d-#484848
	TitleFontColor #303030
}

skinparam activity {
		FontColor #C8Ac00
	BorderColor #333333
	BackgroundColor #333333-#333333
	BarColor #00FF00
	StartColor #0060a8
	EndColor #0060a8
	DiamondBackgroundColor #6d6d6d-#3a3a3a
  	DiamondBorderColor #3a3a3a
  	DiamondFontColor #fefefe
}


skinparam participant {
		FontColor #C8Ac00
	BorderColor #333333
	BackgroundColor #333333-#333333
	ParticipantBorderThickness 2
}


skinparam actor {
		FontColor #C8Ac00
	BorderColor #333333
	BackgroundColor #333333-#333333
}


skinparam arrow {
	Thickness 1.5
	Color #545454
	FontColor #a0a0a0
    FontStyle bold
    MessageAlignment center
}



skinparam sequence {
	BorderColor #303030
	TitleFontColor #303030
	BackgroundColor #333333
	StartColor #303030
	EndColor #303030
	BoxBackgroundColor #333333
	BoxBorderColor #484848
	BoxFontColor #484848
	LifeLineBorderColor #484848
	LifeLineBorderThickness 2
	LifeLineBackgroundColor #3a3a3a
	GroupBorderColor #484848
	GroupFontColor #484848
	GroupHeaderFontColor #0060a8
	GroupBackgroundColor #484848
	GroupHeaderBackgroundColor #333333
	DividerBackgroundColor #484848
    DividerBorderColor #484848
    DividerBorderThickness 2
    DividerFontColor #D8Bc00
	ReferenceBackgroundColor #333333
	ReferenceBorderColor #484848
	ReferenceFontColor #fefefe
	ReferenceHeaderBackgroundColor #484848
}


skinparam partition {
	BorderColor #303030
	FontColor #333333
	BackgroundColor #333333
}


skinparam collections {
		FontColor #C8Ac00
	BorderColor #333333
	BackgroundColor #333333-#333333
}


skinparam control {
		FontColor #C8Ac00
	BorderColor #333333
	BackgroundColor #333333-#333333
}


skinparam entity {
		FontColor #C8Ac00
	BorderColor #333333
	BackgroundColor #333333-#333333
}


skinparam boundary {
		FontColor #C8Ac00
	BorderColor #333333
	BackgroundColor #333333-#333333
}


skinparam agent {
	BackgroundColor #ff8000
	BorderColor #ff9933
	FontColor #484848
}


skinparam note {
	BorderThickness 1
	BackgroundColor #1b1b1a
	BorderColor #5e5e5e
	FontSize 11
	FontColor #a0a0a0
}


skinparam artifact {
	BorderThickness 10
	BorderColor #5e5e5e
	BackgroundColor #1b1b1a
	FontColor #D8Bc00
}


skinparam component {
		FontColor #C8Ac00
	BorderColor #333333
	BackgroundColor #333333-#333333
}


skinparam interface {
	BackgroundColor  #008400
	BorderColor  #007F00
	FontColor #484848
}


skinparam storage {
	BackgroundColor #ff8000
  	BorderColor #cc6600
	FontColor #222222
}


skinparam node {
	BackgroundColor #333333
	BorderColor #333333
	FontColor #C8Ac00
}


skinparam cloud {
	BackgroundColor #484848-black
	BorderColor #484848
	FontColor #D8Bc00
}


skinparam database {
		FontColor #C8Ac00
	BorderColor #333333
	BackgroundColor #333333-#333333
	BackgroundColor  #333333
}


skinparam class {
		FontColor #C8Ac00
	BorderColor #333333
	BackgroundColor #333333-#333333
	HeaderBackgroundColor #1b1b1a
    BackgroundColor #282828
    BorderColor #5e5e5e
 	StereotypeFontColor #a0a0a0
    StereotypeFontStyle bold
	BorderThickness 1
	AttributeFontColor #D8Bc00
	AttributeFontSize 11
    FontColor #D8Bc00
    FontStyle bold
}


skinparam object {
		FontColor #C8Ac00
	BorderColor #333333
	BackgroundColor #333333-#333333
	StereotypeFontColor #484848
	BorderThickness 1
	AttributeFontColor #fefefe
	AttributeFontSize 11
}


skinparam usecase {
		FontColor #C8Ac00
	BorderColor #333333
	BackgroundColor #333333-#333333
	BorderThickness 2
	StereotypeFontColor #303030
}


skinparam rectangle {
		FontColor #C8Ac00
	BorderColor #333333
	BackgroundColor #333333-#333333
	BackgroundColor #333333
	BorderThickness 2
	StereotypeFontColor #303030
}


skinparam package {
		FontColor #C8Ac00
	BorderColor #333333
	BackgroundColor #333333-#333333
	BackgroundColor #333333
	BorderThickness 2
}


skinparam folder {
	BackgroundColor #6d6d6d
  	BorderColor #ff8000
	FontColor #ff8000
	BorderThickness 2
}


skinparam frame {
	BackgroundColor #6d6d6d
  	BorderColor #0060a8
	FontColor #0060a8
	BorderThickness 2
}


skinparam state {
		FontColor #C8Ac00
	BorderColor #333333
	BackgroundColor #333333-#333333
	StartColor #0060a8
	EndColor #0060a8
	AttributeFontColor #fefefe
	AttributeFontSize 11
}


skinparam queue {
		FontColor #C8Ac00
	BorderColor #333333
	BackgroundColor #333333-#333333
}


skinparam card {
	BackgroundColor #0060a8
	BorderColor #004d86
	FontColor $INFO_TEXT
}


skinparam file {
	BackgroundColor #6d6d6d-#484848
	BorderColor #0060a8
	FontColor #fefefe
}


skinparam stack {
		FontColor #C8Ac00
	BorderColor #333333
	BackgroundColor #333333-#333333
}

    
    title "diagram-pbf-uni-db"
    
    WayFilter <|- - NavTeamWayFilter
    class NavTeamWayFilter
    {
        - -(constructors)- -
        +NavTeamWayFilter()
    }
    
    RelationFilter <|- - UniDbExcludeAdasRelationFilter
    class UniDbExcludeAdasRelationFilter
    {
        - -(constructors)- -
        +UniDbExcludeAdasRelationFilter()
    }
    
    WayFilter <|- - UniDbNavigableWayFilter
    class UniDbNavigableWayFilter
    {
        - -(constructors)- -
        +UniDbNavigableWayFilter()
    }
    
    RelationFilter <|- - UniDbRelationsFilter
    class UniDbRelationsFilter
    {
        - -(constructors)- -
        +UniDbRelationsFilter()
    }
    
@enduml

PlantUML version 1.2021.01(Tue Feb 02 00:55:08 MST 2021)
(GPL source distribution)
Java Runtime: Java(TM) SE Runtime Environment
JVM: Java HotSpot(TM) 64-Bit Server VM
Default Encoding: UTF-8
Language: en
Country: US
--></g></svg>