<?xml version="1.0" encoding="UTF-8" standalone="no"?><svg xmlns="http://www.w3.org/2000/svg" xmlns:xlink="http://www.w3.org/1999/xlink" contentScriptType="application/ecmascript" contentStyleType="text/css" height="689.5833px" preserveAspectRatio="none" style="width:1013px;height:689px;background:#333333;" version="1.1" viewBox="0 0 1013 689" width="1013.5417px" zoomAndPan="magnify"><defs/><g><rect fill="#48494B" height="41.2028" rx="8.3333" ry="8.3333" style="stroke:#545454;stroke-width:1.0416666666666667;" width="343.75" x="327.6042" y="2.0833"/><text fill="#C0C0C0" font-family="Open Sans,Avenir,Nunito,Arial,Helvetica,SansSerif" font-size="20.8333" lengthAdjust="spacing" textLength="320.8333" x="339.0625" y="30.5583">diagram-pbf-processing-filters</text><!--MD5=[bddb511951cf0a1d6a79f67b0c2ed87d]
class Filter--><rect codeLine="6" fill="#282828" height="48.055" id="Filter" rx="8.3333" ry="8.3333" style="stroke:#5E5E5E;stroke-width:1.0416666666666667;" width="70.8333" x="478.125" y="71.4111"/><rect fill="#1B1B1A" height="31.3883" rx="8.3333" ry="8.3333" style="stroke:#1B1B1A;stroke-width:1.0416666666666667;" width="70.8333" x="478.125" y="71.4111"/><rect fill="#1B1B1A" height="8.3333" style="stroke:#1B1B1A;stroke-width:1.0416666666666667;" width="70.8333" x="478.125" y="94.4661"/><rect codeLine="6" fill="none" height="48.055" id="Filter" rx="8.3333" ry="8.3333" style="stroke:#5E5E5E;stroke-width:1.0416666666666667;" width="70.8333" x="478.125" y="71.4111"/><ellipse cx="492.7083" cy="87.1053" fill="#008400" rx="10.4167" ry="10.4167" style="stroke:#239C23;stroke-width:1.0416666666666667;"/><path d="M489.5915,84.2672 L489.5915,82.6803 L495.0175,82.6803 L495.0175,84.2672 L493.2048,84.2672 L493.2048,90.2059 L495.0175,90.2059 L495.0175,91.7928 L489.5915,91.7928 L489.5915,90.2059 L491.4042,90.2059 L491.4042,84.2672 Z " fill="#000000"/><text fill="#D8BC00" font-family="Open Sans,Avenir,Nunito,Arial,Helvetica,SansSerif" font-size="12.5" font-style="italic" font-weight="bold" lengthAdjust="spacing" textLength="33.3333" x="509.375" y="91.8294">Filter</text><line style="stroke:#5E5E5E;stroke-width:1.0416666666666667;" x1="479.1667" x2="547.9167" y1="102.7995" y2="102.7995"/><line style="stroke:#5E5E5E;stroke-width:1.0416666666666667;" x1="479.1667" x2="547.9167" y1="111.1328" y2="111.1328"/><!--MD5=[7641309704a2ba86945d63525f0a850a]
class RelationFilter--><rect codeLine="29" fill="#282828" height="297.4935" id="RelationFilter" rx="8.3333" ry="8.3333" style="stroke:#5E5E5E;stroke-width:1.0416666666666667;" width="491.6667" x="9.375" y="219.3278"/><rect fill="#1B1B1A" height="31.3883" rx="8.3333" ry="8.3333" style="stroke:#1B1B1A;stroke-width:1.0416666666666667;" width="491.6667" x="9.375" y="219.3278"/><rect fill="#1B1B1A" height="8.3333" style="stroke:#1B1B1A;stroke-width:1.0416666666666667;" width="491.6667" x="9.375" y="242.3828"/><rect codeLine="29" fill="none" height="297.4935" id="RelationFilter" rx="8.3333" ry="8.3333" style="stroke:#5E5E5E;stroke-width:1.0416666666666667;" width="491.6667" x="9.375" y="219.3278"/><ellipse cx="204.6875" cy="235.022" fill="#0066CF" rx="10.4167" ry="10.4167" style="stroke:#0086EF;stroke-width:1.0416666666666667;"/><path d="M206.5979,239.447 Q206.1707,239.6667 205.7007,239.7766 Q205.2307,239.8865 204.7119,239.8865 Q202.8687,239.8865 201.8982,238.6719 Q200.9277,237.4573 200.9277,235.1624 Q200.9277,232.8613 201.8982,231.6467 Q202.8687,230.4321 204.7119,230.4321 Q205.2307,230.4321 205.7068,230.542 Q206.1829,230.6519 206.5979,230.8716 L206.5979,232.8735 Q206.134,232.4463 205.6976,232.2479 Q205.2612,232.0496 204.7974,232.0496 Q203.8086,232.0496 203.3051,232.8339 Q202.8015,233.6182 202.8015,235.1624 Q202.8015,236.7004 203.3051,237.4847 Q203.8086,238.269 204.7974,238.269 Q205.2612,238.269 205.6976,238.0707 Q206.134,237.8723 206.5979,237.4451 Z " fill="#000000"/><text fill="#D8BC00" font-family="Open Sans,Avenir,Nunito,Arial,Helvetica,SansSerif" font-size="12.5" font-weight="bold" lengthAdjust="spacing" textLength="86.4583" x="227.6042" y="239.7461">RelationFilter</text><line style="stroke:#5E5E5E;stroke-width:1.5625;" x1="10.4167" x2="500" y1="250.7161" y2="250.7161"/><ellipse cx="20.8333" cy="286.086" fill="#84BE84" rx="3.125" ry="3.125" style="stroke:#038048;stroke-width:1.0416666666666667;"/><text fill="#D8BC00" font-family="Open Sans,Avenir,Nunito,Arial,Helvetica,SansSerif" font-size="11.4583" lengthAdjust="spacing" textLength="154.1667" x="32.2917" y="292.9972">RelationFilter(String, String)</text><line style="stroke:#5E5E5E;stroke-width:1.0416666666666667;" x1="10.4167" x2="211.4583" y1="268.9219" y2="268.9219"/><text fill="#D8BC00" font-family="Open Sans,Avenir,Nunito,Arial,Helvetica,SansSerif" font-size="11.4583" lengthAdjust="spacing" textLength="81.25" x="214.5833" y="272.7315">(constructors)</text><line style="stroke:#5E5E5E;stroke-width:1.0416666666666667;" x1="298.9583" x2="500" y1="268.9219" y2="268.9219"/><line style="stroke:#5E5E5E;stroke-width:1.0416666666666667;" x1="10.4167" x2="500" y1="302.7059" y2="302.7059"/><ellipse cx="20.8333" cy="314.1642" fill="#84BE84" rx="3.125" ry="3.125" style="stroke:#038048;stroke-width:1.0416666666666667;"/><text fill="#D8BC00" font-family="Open Sans,Avenir,Nunito,Arial,Helvetica,SansSerif" font-size="11.4583" lengthAdjust="spacing" textLength="108.3333" x="32.2917" y="321.0754">String description()</text><ellipse cx="20.8333" cy="357.8206" fill="#84BE84" rx="3.125" ry="3.125" style="stroke:#038048;stroke-width:1.0416666666666667;"/><text fill="#D8BC00" font-family="Open Sans,Avenir,Nunito,Arial,Helvetica,SansSerif" font-size="11.4583" lengthAdjust="spacing" textLength="459.375" x="32.2917" y="364.7319">SwitchParser.Builder&lt;RelationFilter&gt; switchParser(String name, String description)</text><line style="stroke:#5E5E5E;stroke-width:1.0416666666666667;" x1="10.4167" x2="185.9375" y1="340.6565" y2="340.6565"/><text fill="#D8BC00" font-family="Open Sans,Avenir,Nunito,Arial,Helvetica,SansSerif" font-size="11.4583" lengthAdjust="spacing" textLength="132.2917" x="189.0625" y="344.4661">(command line parsing)</text><line style="stroke:#5E5E5E;stroke-width:1.0416666666666667;" x1="324.4792" x2="500" y1="340.6565" y2="340.6565"/><ellipse cx="20.8333" cy="401.4771" fill="#84BE84" rx="3.125" ry="3.125" style="stroke:#038048;stroke-width:1.0416666666666667;"/><text fill="#D8BC00" font-family="Open Sans,Avenir,Nunito,Arial,Helvetica,SansSerif" font-size="11.4583" lengthAdjust="spacing" textLength="139.5833" x="32.2917" y="408.3883">void exclude(String type)</text><ellipse cx="20.8333" cy="421.2219" fill="#84BE84" rx="3.125" ry="3.125" style="stroke:#038048;stroke-width:1.0416666666666667;"/><text fill="#D8BC00" font-family="Open Sans,Avenir,Nunito,Arial,Helvetica,SansSerif" font-size="11.4583" lengthAdjust="spacing" textLength="198.9583" x="32.2917" y="428.1331">RelationFilter forName(String name)</text><ellipse cx="20.8333" cy="440.9668" fill="#84BE84" rx="3.125" ry="3.125" style="stroke:#038048;stroke-width:1.0416666666666667;"/><text fill="#D8BC00" font-family="Open Sans,Avenir,Nunito,Arial,Helvetica,SansSerif" font-size="11.4583" lengthAdjust="spacing" textLength="136.4583" x="32.2917" y="447.878">void include(String type)</text><ellipse cx="20.8333" cy="460.7117" fill="#84BE84" rx="3.125" ry="3.125" style="stroke:#038048;stroke-width:1.0416666666666667;"/><text fill="#D8BC00" font-family="Open Sans,Avenir,Nunito,Arial,Helvetica,SansSerif" font-size="11.4583" lengthAdjust="spacing" textLength="286.4583" x="32.2917" y="467.6229">SwitchParser.Builder&lt;RelationFilter&gt; relationFilter()</text><polygon fill="#FFFF44" points="20.8333,475.2482,25,479.4149,20.8333,483.5815,16.6667,479.4149" style="stroke:#B38D22;stroke-width:1.0416666666666667;"/><text fill="#D8BC00" font-family="Open Sans,Avenir,Nunito,Arial,Helvetica,SansSerif" font-size="11.4583" lengthAdjust="spacing" textLength="179.1667" x="32.2917" y="487.3678">boolean isExcluded(PbfRelation)</text><polygon fill="#FFFF44" points="20.8333,494.9931,25,499.1597,20.8333,503.3264,16.6667,499.1597" style="stroke:#B38D22;stroke-width:1.0416666666666667;"/><text fill="#D8BC00" font-family="Open Sans,Avenir,Nunito,Arial,Helvetica,SansSerif" font-size="11.4583" lengthAdjust="spacing" textLength="176.0417" x="32.2917" y="507.1126">boolean isIncluded(PbfRelation)</text><line style="stroke:#5E5E5E;stroke-width:1.0416666666666667;" x1="10.4167" x2="226.0417" y1="384.3129" y2="384.3129"/><text fill="#D8BC00" font-family="Open Sans,Avenir,Nunito,Arial,Helvetica,SansSerif" font-size="11.4583" lengthAdjust="spacing" textLength="52.0833" x="229.1667" y="388.1226">(filtering)</text><line style="stroke:#5E5E5E;stroke-width:1.0416666666666667;" x1="284.375" x2="500" y1="384.3129" y2="384.3129"/><!--MD5=[8beb7aad4a997af9d94e3de7f2987e64]
class AllRelationsFilter--><rect codeLine="9" fill="#282828" height="83.3781" id="AllRelationsFilter" rx="8.3333" ry="8.3333" style="stroke:#5E5E5E;stroke-width:1.0416666666666667;" width="148.9583" x="180.7292" y="599.5361"/><rect fill="#1B1B1A" height="31.3883" rx="8.3333" ry="8.3333" style="stroke:#1B1B1A;stroke-width:1.0416666666666667;" width="148.9583" x="180.7292" y="599.5361"/><rect fill="#1B1B1A" height="8.3333" style="stroke:#1B1B1A;stroke-width:1.0416666666666667;" width="148.9583" x="180.7292" y="622.5911"/><rect codeLine="9" fill="none" height="83.3781" id="AllRelationsFilter" rx="8.3333" ry="8.3333" style="stroke:#5E5E5E;stroke-width:1.0416666666666667;" width="148.9583" x="180.7292" y="599.5361"/><ellipse cx="195.3125" cy="615.2303" fill="#0066CF" rx="10.4167" ry="10.4167" style="stroke:#0086EF;stroke-width:1.0416666666666667;"/><path d="M197.2229,619.6554 Q196.7957,619.8751 196.3257,619.9849 Q195.8557,620.0948 195.3369,620.0948 Q193.4937,620.0948 192.5232,618.8802 Q191.5527,617.6656 191.5527,615.3707 Q191.5527,613.0697 192.5232,611.8551 Q193.4937,610.6405 195.3369,610.6405 Q195.8557,610.6405 196.3318,610.7503 Q196.8079,610.8602 197.2229,611.0799 L197.2229,613.0819 Q196.759,612.6546 196.3226,612.4563 Q195.8862,612.2579 195.4224,612.2579 Q194.4336,612.2579 193.9301,613.0422 Q193.4265,613.8265 193.4265,615.3707 Q193.4265,616.9088 193.9301,617.6931 Q194.4336,618.4774 195.4224,618.4774 Q195.8862,618.4774 196.3226,618.279 Q196.759,618.0806 197.2229,617.6534 Z " fill="#000000"/><text fill="#D8BC00" font-family="Open Sans,Avenir,Nunito,Arial,Helvetica,SansSerif" font-size="12.5" font-weight="bold" lengthAdjust="spacing" textLength="111.4583" x="211.9792" y="619.9544">AllRelationsFilter</text><line style="stroke:#5E5E5E;stroke-width:1.5625;" x1="181.7708" x2="328.6458" y1="630.9245" y2="630.9245"/><ellipse cx="192.1875" cy="666.2944" fill="#84BE84" rx="3.125" ry="3.125" style="stroke:#038048;stroke-width:1.0416666666666667;"/><text fill="#D8BC00" font-family="Open Sans,Avenir,Nunito,Arial,Helvetica,SansSerif" font-size="11.4583" lengthAdjust="spacing" textLength="102.0833" x="203.6458" y="673.2056">AllRelationsFilter()</text><line style="stroke:#5E5E5E;stroke-width:1.0416666666666667;" x1="181.7708" x2="211.4583" y1="649.1302" y2="649.1302"/><text fill="#D8BC00" font-family="Open Sans,Avenir,Nunito,Arial,Helvetica,SansSerif" font-size="11.4583" lengthAdjust="spacing" textLength="81.25" x="214.5833" y="652.9399">(constructors)</text><line style="stroke:#5E5E5E;stroke-width:1.0416666666666667;" x1="298.9583" x2="328.6458" y1="649.1302" y2="649.1302"/><!--MD5=[296971189912b7d7a3ae0a5bad58974f]
class WayFilter--><rect codeLine="47" fill="#282828" height="336.9832" id="WayFilter" rx="8.3333" ry="8.3333" style="stroke:#5E5E5E;stroke-width:1.0416666666666667;" width="468.75" x="537.5" y="199.5361"/><rect fill="#1B1B1A" height="31.3883" rx="8.3333" ry="8.3333" style="stroke:#1B1B1A;stroke-width:1.0416666666666667;" width="468.75" x="537.5" y="199.5361"/><rect fill="#1B1B1A" height="8.3333" style="stroke:#1B1B1A;stroke-width:1.0416666666666667;" width="468.75" x="537.5" y="222.5911"/><rect codeLine="47" fill="none" height="336.9832" id="WayFilter" rx="8.3333" ry="8.3333" style="stroke:#5E5E5E;stroke-width:1.0416666666666667;" width="468.75" x="537.5" y="199.5361"/><ellipse cx="734.8958" cy="215.2303" fill="#0066CF" rx="10.4167" ry="10.4167" style="stroke:#0086EF;stroke-width:1.0416666666666667;"/><path d="M736.8062,219.6554 Q736.379,219.8751 735.909,219.9849 Q735.439,220.0948 734.9202,220.0948 Q733.077,220.0948 732.1065,218.8802 Q731.1361,217.6656 731.1361,215.3707 Q731.1361,213.0697 732.1065,211.8551 Q733.077,210.6405 734.9202,210.6405 Q735.439,210.6405 735.9151,210.7503 Q736.3912,210.8602 736.8062,211.0799 L736.8062,213.0819 Q736.3424,212.6546 735.906,212.4563 Q735.4696,212.2579 735.0057,212.2579 Q734.0169,212.2579 733.5134,213.0422 Q733.0098,213.8265 733.0098,215.3707 Q733.0098,216.9088 733.5134,217.6931 Q734.0169,218.4774 735.0057,218.4774 Q735.4696,218.4774 735.906,218.279 Q736.3424,218.0806 736.8062,217.6534 Z " fill="#000000"/><text fill="#D8BC00" font-family="Open Sans,Avenir,Nunito,Arial,Helvetica,SansSerif" font-size="12.5" font-weight="bold" lengthAdjust="spacing" textLength="59.375" x="757.8125" y="219.9544">WayFilter</text><line style="stroke:#5E5E5E;stroke-width:1.5625;" x1="538.5417" x2="1005.2083" y1="230.9245" y2="230.9245"/><ellipse cx="548.9583" cy="266.2944" fill="#84BE84" rx="3.125" ry="3.125" style="stroke:#038048;stroke-width:1.0416666666666667;"/><text fill="#D8BC00" font-family="Open Sans,Avenir,Nunito,Arial,Helvetica,SansSerif" font-size="11.4583" lengthAdjust="spacing" textLength="131.25" x="560.4167" y="273.2056">WayFilter(String, String)</text><line style="stroke:#5E5E5E;stroke-width:1.0416666666666667;" x1="538.5417" x2="728.125" y1="249.1302" y2="249.1302"/><text fill="#D8BC00" font-family="Open Sans,Avenir,Nunito,Arial,Helvetica,SansSerif" font-size="11.4583" lengthAdjust="spacing" textLength="81.25" x="731.25" y="252.9399">(constructors)</text><line style="stroke:#5E5E5E;stroke-width:1.0416666666666667;" x1="815.625" x2="1005.2083" y1="249.1302" y2="249.1302"/><line style="stroke:#5E5E5E;stroke-width:1.0416666666666667;" x1="538.5417" x2="1005.2083" y1="282.9142" y2="282.9142"/><ellipse cx="548.9583" cy="294.3726" fill="#84BE84" rx="3.125" ry="3.125" style="stroke:#038048;stroke-width:1.0416666666666667;"/><text fill="#D8BC00" font-family="Open Sans,Avenir,Nunito,Arial,Helvetica,SansSerif" font-size="11.4583" lengthAdjust="spacing" textLength="108.3333" x="560.4167" y="301.2838">String description()</text><ellipse cx="548.9583" cy="338.029" fill="#84BE84" rx="3.125" ry="3.125" style="stroke:#038048;stroke-width:1.0416666666666667;"/><text fill="#D8BC00" font-family="Open Sans,Avenir,Nunito,Arial,Helvetica,SansSerif" font-size="11.4583" lengthAdjust="spacing" textLength="436.4583" x="560.4167" y="344.9402">SwitchParser.Builder&lt;WayFilter&gt; switchParser(String name, String description)</text><line style="stroke:#5E5E5E;stroke-width:1.0416666666666667;" x1="538.5417" x2="702.6042" y1="320.8649" y2="320.8649"/><text fill="#D8BC00" font-family="Open Sans,Avenir,Nunito,Arial,Helvetica,SansSerif" font-size="11.4583" lengthAdjust="spacing" textLength="132.2917" x="705.7292" y="324.6745">(command line parsing)</text><line style="stroke:#5E5E5E;stroke-width:1.0416666666666667;" x1="841.1458" x2="1005.2083" y1="320.8649" y2="320.8649"/><ellipse cx="548.9583" cy="381.6854" fill="#84BE84" rx="3.125" ry="3.125" style="stroke:#038048;stroke-width:1.0416666666666667;"/><text fill="#D8BC00" font-family="Open Sans,Avenir,Nunito,Arial,Helvetica,SansSerif" font-size="11.4583" lengthAdjust="spacing" textLength="161.4583" x="560.4167" y="388.5966">void exclude(String highway)</text><ellipse cx="548.9583" cy="401.4303" fill="#84BE84" rx="3.125" ry="3.125" style="stroke:#038048;stroke-width:1.0416666666666667;"/><text fill="#D8BC00" font-family="Open Sans,Avenir,Nunito,Arial,Helvetica,SansSerif" font-size="11.4583" lengthAdjust="spacing" textLength="230.2083" x="560.4167" y="408.3415">WayFilter exclude(String name, Resource)</text><ellipse cx="548.9583" cy="421.1751" fill="#84BE84" rx="3.125" ry="3.125" style="stroke:#038048;stroke-width:1.0416666666666667;"/><text fill="#D8BC00" font-family="Open Sans,Avenir,Nunito,Arial,Helvetica,SansSerif" font-size="11.4583" lengthAdjust="spacing" textLength="176.0417" x="560.4167" y="428.0863">WayFilter forName(String name)</text><ellipse cx="548.9583" cy="440.92" fill="#84BE84" rx="3.125" ry="3.125" style="stroke:#038048;stroke-width:1.0416666666666667;"/><text fill="#D8BC00" font-family="Open Sans,Avenir,Nunito,Arial,Helvetica,SansSerif" font-size="11.4583" lengthAdjust="spacing" textLength="158.3333" x="560.4167" y="447.8312">void include(String highway)</text><ellipse cx="548.9583" cy="460.6649" fill="#84BE84" rx="3.125" ry="3.125" style="stroke:#038048;stroke-width:1.0416666666666667;"/><text fill="#D8BC00" font-family="Open Sans,Avenir,Nunito,Arial,Helvetica,SansSerif" font-size="11.4583" lengthAdjust="spacing" textLength="227.0833" x="560.4167" y="467.5761">WayFilter include(String name, Resource)</text><ellipse cx="548.9583" cy="480.4097" fill="#84BE84" rx="3.125" ry="3.125" style="stroke:#038048;stroke-width:1.0416666666666667;"/><text fill="#D8BC00" font-family="Open Sans,Avenir,Nunito,Arial,Helvetica,SansSerif" font-size="11.4583" lengthAdjust="spacing" textLength="241.6667" x="560.4167" y="487.321">SwitchParser.Builder&lt;WayFilter&gt; wayFilter()</text><polygon fill="#FFFF44" points="548.9583,494.9463,553.125,499.113,548.9583,503.2796,544.7917,499.113" style="stroke:#B38D22;stroke-width:1.0416666666666667;"/><text fill="#D8BC00" font-family="Open Sans,Avenir,Nunito,Arial,Helvetica,SansSerif" font-size="11.4583" lengthAdjust="spacing" textLength="156.25" x="560.4167" y="507.0658">boolean isExcluded(PbfWay)</text><polygon fill="#FFFF44" points="548.9583,514.6912,553.125,518.8578,548.9583,523.0245,544.7917,518.8578" style="stroke:#B38D22;stroke-width:1.0416666666666667;"/><text fill="#D8BC00" font-family="Open Sans,Avenir,Nunito,Arial,Helvetica,SansSerif" font-size="11.4583" lengthAdjust="spacing" textLength="153.125" x="560.4167" y="526.8107">boolean isIncluded(PbfWay)</text><line style="stroke:#5E5E5E;stroke-width:1.0416666666666667;" x1="538.5417" x2="742.7083" y1="364.5213" y2="364.5213"/><text fill="#D8BC00" font-family="Open Sans,Avenir,Nunito,Arial,Helvetica,SansSerif" font-size="11.4583" lengthAdjust="spacing" textLength="52.0833" x="745.8333" y="368.3309">(filtering)</text><line style="stroke:#5E5E5E;stroke-width:1.0416666666666667;" x1="801.0417" x2="1005.2083" y1="364.5213" y2="364.5213"/><!--MD5=[6d6878300d5a82e08c22ccf72642d53d]
class AllWaysFilter--><rect codeLine="16" fill="#282828" height="83.3781" id="AllWaysFilter" rx="8.3333" ry="8.3333" style="stroke:#5E5E5E;stroke-width:1.0416666666666667;" width="121.875" x="710.9375" y="599.5361"/><rect fill="#1B1B1A" height="31.3883" rx="8.3333" ry="8.3333" style="stroke:#1B1B1A;stroke-width:1.0416666666666667;" width="121.875" x="710.9375" y="599.5361"/><rect fill="#1B1B1A" height="8.3333" style="stroke:#1B1B1A;stroke-width:1.0416666666666667;" width="121.875" x="710.9375" y="622.5911"/><rect codeLine="16" fill="none" height="83.3781" id="AllWaysFilter" rx="8.3333" ry="8.3333" style="stroke:#5E5E5E;stroke-width:1.0416666666666667;" width="121.875" x="710.9375" y="599.5361"/><ellipse cx="725.5208" cy="615.2303" fill="#0066CF" rx="10.4167" ry="10.4167" style="stroke:#0086EF;stroke-width:1.0416666666666667;"/><path d="M727.4312,619.6554 Q727.004,619.8751 726.534,619.9849 Q726.064,620.0948 725.5452,620.0948 Q723.702,620.0948 722.7315,618.8802 Q721.7611,617.6656 721.7611,615.3707 Q721.7611,613.0697 722.7315,611.8551 Q723.702,610.6405 725.5452,610.6405 Q726.064,610.6405 726.5401,610.7503 Q727.0162,610.8602 727.4312,611.0799 L727.4312,613.0819 Q726.9674,612.6546 726.531,612.4563 Q726.0946,612.2579 725.6307,612.2579 Q724.6419,612.2579 724.1384,613.0422 Q723.6348,613.8265 723.6348,615.3707 Q723.6348,616.9088 724.1384,617.6931 Q724.6419,618.4774 725.6307,618.4774 Q726.0946,618.4774 726.531,618.279 Q726.9674,618.0806 727.4312,617.6534 Z " fill="#000000"/><text fill="#D8BC00" font-family="Open Sans,Avenir,Nunito,Arial,Helvetica,SansSerif" font-size="12.5" font-weight="bold" lengthAdjust="spacing" textLength="84.375" x="742.1875" y="619.9544">AllWaysFilter</text><line style="stroke:#5E5E5E;stroke-width:1.5625;" x1="711.9792" x2="831.7708" y1="630.9245" y2="630.9245"/><ellipse cx="722.3958" cy="666.2944" fill="#84BE84" rx="3.125" ry="3.125" style="stroke:#038048;stroke-width:1.0416666666666667;"/><text fill="#D8BC00" font-family="Open Sans,Avenir,Nunito,Arial,Helvetica,SansSerif" font-size="11.4583" lengthAdjust="spacing" textLength="79.1667" x="733.8542" y="673.2056">AllWaysFilter()</text><line style="stroke:#5E5E5E;stroke-width:1.0416666666666667;" x1="711.9792" x2="728.125" y1="649.1302" y2="649.1302"/><text fill="#D8BC00" font-family="Open Sans,Avenir,Nunito,Arial,Helvetica,SansSerif" font-size="11.4583" lengthAdjust="spacing" textLength="81.25" x="731.25" y="652.9399">(constructors)</text><line style="stroke:#5E5E5E;stroke-width:1.0416666666666667;" x1="815.625" x2="831.7708" y1="649.1302" y2="649.1302"/><!--MD5=[561ebc70b2072dd0a14c2cc7141612e4]
class PbfFilters--><rect codeLine="22" fill="#282828" height="83.3781" id="PbfFilters" rx="8.3333" ry="8.3333" style="stroke:#5E5E5E;stroke-width:1.0416666666666667;" width="106.25" x="585.4167" y="53.7028"/><rect fill="#1B1B1A" height="31.3883" rx="8.3333" ry="8.3333" style="stroke:#1B1B1A;stroke-width:1.0416666666666667;" width="106.25" x="585.4167" y="53.7028"/><rect fill="#1B1B1A" height="8.3333" style="stroke:#1B1B1A;stroke-width:1.0416666666666667;" width="106.25" x="585.4167" y="76.7578"/><rect codeLine="22" fill="none" height="83.3781" id="PbfFilters" rx="8.3333" ry="8.3333" style="stroke:#5E5E5E;stroke-width:1.0416666666666667;" width="106.25" x="585.4167" y="53.7028"/><ellipse cx="603.2813" cy="69.397" fill="#0066CF" rx="10.4167" ry="10.4167" style="stroke:#0086EF;stroke-width:1.0416666666666667;"/><path d="M605.1917,73.822 Q604.7644,74.0417 604.2944,74.1516 Q603.8245,74.2615 603.3057,74.2615 Q601.4624,74.2615 600.4919,73.0469 Q599.5215,71.8323 599.5215,69.5374 Q599.5215,67.2363 600.4919,66.0217 Q601.4624,64.8071 603.3057,64.8071 Q603.8245,64.8071 604.3005,64.917 Q604.7766,65.0269 605.1917,65.2466 L605.1917,67.2485 Q604.7278,66.8213 604.2914,66.6229 Q603.855,66.4246 603.3911,66.4246 Q602.4023,66.4246 601.8988,67.2089 Q601.3953,67.9932 601.3953,69.5374 Q601.3953,71.0754 601.8988,71.8597 Q602.4023,72.644 603.3911,72.644 Q603.855,72.644 604.2914,72.4457 Q604.7278,72.2473 605.1917,71.8201 Z " fill="#000000"/><text fill="#D8BC00" font-family="Open Sans,Avenir,Nunito,Arial,Helvetica,SansSerif" font-size="12.5" font-weight="bold" lengthAdjust="spacing" textLength="61.4583" x="620.6771" y="74.1211">PbfFilters</text><line style="stroke:#5E5E5E;stroke-width:1.5625;" x1="586.4583" x2="690.625" y1="85.0911" y2="85.0911"/><ellipse cx="596.875" cy="120.461" fill="#84BE84" rx="3.125" ry="3.125" style="stroke:#038048;stroke-width:1.0416666666666667;"/><text fill="#D8BC00" font-family="Open Sans,Avenir,Nunito,Arial,Helvetica,SansSerif" font-size="11.4583" lengthAdjust="spacing" textLength="73.9583" x="608.3333" y="127.3722">void loadAll()</text><line style="stroke:#5E5E5E;stroke-width:1.0416666666666667;" x1="586.4583" x2="618.75" y1="103.2969" y2="103.2969"/><text fill="#D8BC00" font-family="Open Sans,Avenir,Nunito,Arial,Helvetica,SansSerif" font-size="11.4583" lengthAdjust="spacing" textLength="33.3333" x="621.875" y="107.1065">(read)</text><line style="stroke:#5E5E5E;stroke-width:1.0416666666666667;" x1="658.3333" x2="690.625" y1="103.2969" y2="103.2969"/><!--MD5=[6777c8123c0f4af4b621dc1d1adbb7f2]
reverse link RelationFilter to AllRelationsFilter--><path codeLine="8" d="M255.2083,538.4736 C255.2083,561.0778 255.2083,582.3382 255.2083,599.5257 " fill="none" id="RelationFilter-backto-AllRelationsFilter" style="stroke:#545454;stroke-width:1.5625;"/><polygon fill="none" points="247.9167,538.2549,255.2083,517.4215,262.5,538.2549,247.9167,538.2549" style="stroke:#545454;stroke-width:1.5625;"/><!--MD5=[c65d9427bab230bb0b73ed8aaccdc7dc]
reverse link WayFilter to AllWaysFilter--><path codeLine="15" d="M771.875,558.359 C771.875,573.3278 771.875,587.2445 771.875,599.2132 " fill="none" id="WayFilter-backto-AllWaysFilter" style="stroke:#545454;stroke-width:1.5625;"/><polygon fill="none" points="764.5833,558.2132,771.875,537.3799,779.1667,558.2132,764.5833,558.2132" style="stroke:#545454;stroke-width:1.5625;"/><!--MD5=[73da9da996070630eb6b6fd449d7c510]
reverse link Filter to RelationFilter--><path codeLine="28" d="M477.125,134.5986 C455.4271,157.3382 426.3646,187.807 396.4167,219.2028 " fill="none" id="Filter-backto-RelationFilter" style="stroke:#545454;stroke-width:1.5625;"/><polygon fill="none" points="471.8646,129.5465,491.5208,119.5049,482.4167,139.609,471.8646,129.5465" style="stroke:#545454;stroke-width:1.5625;"/><!--MD5=[c7d9157f88d96bc441895237d54429f6]
reverse link Filter to WayFilter--><path codeLine="46" d="M550.125,134.7653 C567.1667,152.6299 588.7292,175.234 611.6771,199.2965 " fill="none" id="Filter-backto-WayFilter" style="stroke:#545454;stroke-width:1.5625;"/><polygon fill="none" points="544.6667,139.609,535.5625,119.5049,555.2188,129.5465,544.6667,139.609" style="stroke:#545454;stroke-width:1.5625;"/><!--MD5=[a649844f55baa34c7ed9e157be7d8dae]
@startuml

    !include ../lexakai/lexakai.theme
    
    title "diagram-pbf-processing-filters"
    
    interface Filter
    
    RelationFilter <|- - AllRelationsFilter
    class AllRelationsFilter
    {
        - -(constructors)- -
        +AllRelationsFilter()
    }
    
    WayFilter <|- - AllWaysFilter
    class AllWaysFilter
    {
        - -(constructors)- -
        +AllWaysFilter()
    }
    
    class PbfFilters
    {
        - -(read)- -
        +void loadAll()
    }
    
    Filter <|- - RelationFilter
    class RelationFilter
    {
        - -(constructors)- -
        +RelationFilter(String, String)
        - -
        +String description()
        - -(command line parsing)- -
        +SwitchParser.Builder<RelationFilter> switchParser(String name, String description)
        - -(filtering)- -
        +void exclude(String type)
        +RelationFilter forName(String name)
        +void include(String type)
        +SwitchParser.Builder<RelationFilter> relationFilter()
        #boolean isExcluded(PbfRelation)
        #boolean isIncluded(PbfRelation)
    }
    
    Filter <|- - WayFilter
    class WayFilter
    {
        - -(constructors)- -
        +WayFilter(String, String)
        - -
        +String description()
        - -(command line parsing)- -
        +SwitchParser.Builder<WayFilter> switchParser(String name, String description)
        - -(filtering)- -
        +void exclude(String highway)
        +WayFilter exclude(String name, Resource)
        +WayFilter forName(String name)
        +void include(String highway)
        +WayFilter include(String name, Resource)
        +SwitchParser.Builder<WayFilter> wayFilter()
        #boolean isExcluded(PbfWay)
        #boolean isIncluded(PbfWay)
    }
    
@enduml

@startuml









skinparam backgroundColor #333333






skinparam  {
    defaultFontName   "Open Sans,Avenir,Nunito,Arial,Helvetica,SansSerif"
    defaultFontSize   12
    defaultTextAlignment left
    shadowing false
    RoundCorner 10
    TitleFontSize 18
}

skinparam defaultFontName       "Open Sans,Avenir,Nunito,Arial,Helvetica,SansSerif"
skinparam defaultFontSize       12
skinparam dpi                   100
skinparam shadowing             false
skinparam roundcorner           16
skinparam ParticipantPadding    40
skinparam BoxPadding            40
skinparam Padding               3
skinparam ArrowColor            #545454
skinparam stereotype {
    CBackgroundColor #0066cf
    CBorderColor #0086ef
    ABackgroundColor #C8Ac00
    ABorderColor #D8Bc00
    IBackgroundColor #008400
    IBorderColor #239c23
    EBackgroundColor #cf6300
    EBorderColor #ef8300
    NBackgroundColor #3380b9
    NBorderColor #004d86
}
skinparam title {
	FontColor	                 #c0c0c0
 	BorderColor                  #545454
	FontSize	    	         20
	BorderRoundCorner            16
	BorderThickness 	         1
	BackgroundColor              #48494b
}


skinparam legend {
	BackgroundColor #303030
	BorderColor #404040
	FontColor #a0a0a0
}

	skinparam swimlane {
	BorderColor #5e5e5e
	BorderThickness 2
	TitleBackgroundColor  #6d6d6d-#484848
	TitleFontColor #303030
}

skinparam activity {
		FontColor #C8Ac00
	BorderColor #333333
	BackgroundColor #333333-#333333
	BarColor #00FF00
	StartColor #0060a8
	EndColor #0060a8
	DiamondBackgroundColor #6d6d6d-#3a3a3a
  	DiamondBorderColor #3a3a3a
  	DiamondFontColor #fefefe
}


skinparam participant {
		FontColor #C8Ac00
	BorderColor #333333
	BackgroundColor #333333-#333333
	ParticipantBorderThickness 2
}


skinparam actor {
		FontColor #C8Ac00
	BorderColor #333333
	BackgroundColor #333333-#333333
}


skinparam arrow {
	Thickness 1.5
	Color #545454
	FontColor #a0a0a0
    FontStyle bold
    MessageAlignment center
}



skinparam sequence {
	BorderColor #303030
	TitleFontColor #303030
	BackgroundColor #333333
	StartColor #303030
	EndColor #303030
	BoxBackgroundColor #333333
	BoxBorderColor #484848
	BoxFontColor #484848
	LifeLineBorderColor #484848
	LifeLineBorderThickness 2
	LifeLineBackgroundColor #3a3a3a
	GroupBorderColor #484848
	GroupFontColor #484848
	GroupHeaderFontColor #0060a8
	GroupBackgroundColor #484848
	GroupHeaderBackgroundColor #333333
	DividerBackgroundColor #484848
    DividerBorderColor #484848
    DividerBorderThickness 2
    DividerFontColor #D8Bc00
	ReferenceBackgroundColor #333333
	ReferenceBorderColor #484848
	ReferenceFontColor #fefefe
	ReferenceHeaderBackgroundColor #484848
}


skinparam partition {
	BorderColor #303030
	FontColor #333333
	BackgroundColor #333333
}


skinparam collections {
		FontColor #C8Ac00
	BorderColor #333333
	BackgroundColor #333333-#333333
}


skinparam control {
		FontColor #C8Ac00
	BorderColor #333333
	BackgroundColor #333333-#333333
}


skinparam entity {
		FontColor #C8Ac00
	BorderColor #333333
	BackgroundColor #333333-#333333
}


skinparam boundary {
		FontColor #C8Ac00
	BorderColor #333333
	BackgroundColor #333333-#333333
}


skinparam agent {
	BackgroundColor #ff8000
	BorderColor #ff9933
	FontColor #484848
}


skinparam note {
	BorderThickness 1
	BackgroundColor #1b1b1a
	BorderColor #5e5e5e
	FontSize 11
	FontColor #a0a0a0
}


skinparam artifact {
	BorderThickness 10
	BorderColor #5e5e5e
	BackgroundColor #1b1b1a
	FontColor #D8Bc00
}


skinparam component {
		FontColor #C8Ac00
	BorderColor #333333
	BackgroundColor #333333-#333333
}


skinparam interface {
	BackgroundColor  #008400
	BorderColor  #007F00
	FontColor #484848
}


skinparam storage {
	BackgroundColor #ff8000
  	BorderColor #cc6600
	FontColor #222222
}


skinparam node {
	BackgroundColor #333333
	BorderColor #333333
	FontColor #C8Ac00
}


skinparam cloud {
	BackgroundColor #484848-black
	BorderColor #484848
	FontColor #D8Bc00
}


skinparam database {
		FontColor #C8Ac00
	BorderColor #333333
	BackgroundColor #333333-#333333
	BackgroundColor  #333333
}


skinparam class {
		FontColor #C8Ac00
	BorderColor #333333
	BackgroundColor #333333-#333333
	HeaderBackgroundColor #1b1b1a
    BackgroundColor #282828
    BorderColor #5e5e5e
 	StereotypeFontColor #a0a0a0
    StereotypeFontStyle bold
	BorderThickness 1
	AttributeFontColor #D8Bc00
	AttributeFontSize 11
    FontColor #D8Bc00
    FontStyle bold
}


skinparam object {
		FontColor #C8Ac00
	BorderColor #333333
	BackgroundColor #333333-#333333
	StereotypeFontColor #484848
	BorderThickness 1
	AttributeFontColor #fefefe
	AttributeFontSize 11
}


skinparam usecase {
		FontColor #C8Ac00
	BorderColor #333333
	BackgroundColor #333333-#333333
	BorderThickness 2
	StereotypeFontColor #303030
}


skinparam rectangle {
		FontColor #C8Ac00
	BorderColor #333333
	BackgroundColor #333333-#333333
	BackgroundColor #333333
	BorderThickness 2
	StereotypeFontColor #303030
}


skinparam package {
		FontColor #C8Ac00
	BorderColor #333333
	BackgroundColor #333333-#333333
	BackgroundColor #333333
	BorderThickness 2
}


skinparam folder {
	BackgroundColor #6d6d6d
  	BorderColor #ff8000
	FontColor #ff8000
	BorderThickness 2
}


skinparam frame {
	BackgroundColor #6d6d6d
  	BorderColor #0060a8
	FontColor #0060a8
	BorderThickness 2
}


skinparam state {
		FontColor #C8Ac00
	BorderColor #333333
	BackgroundColor #333333-#333333
	StartColor #0060a8
	EndColor #0060a8
	AttributeFontColor #fefefe
	AttributeFontSize 11
}


skinparam queue {
		FontColor #C8Ac00
	BorderColor #333333
	BackgroundColor #333333-#333333
}


skinparam card {
	BackgroundColor #0060a8
	BorderColor #004d86
	FontColor $INFO_TEXT
}


skinparam file {
	BackgroundColor #6d6d6d-#484848
	BorderColor #0060a8
	FontColor #fefefe
}


skinparam stack {
		FontColor #C8Ac00
	BorderColor #333333
	BackgroundColor #333333-#333333
}

    
    title "diagram-pbf-processing-filters"
    
    interface Filter
    
    RelationFilter <|- - AllRelationsFilter
    class AllRelationsFilter
    {
        - -(constructors)- -
        +AllRelationsFilter()
    }
    
    WayFilter <|- - AllWaysFilter
    class AllWaysFilter
    {
        - -(constructors)- -
        +AllWaysFilter()
    }
    
    class PbfFilters
    {
        - -(read)- -
        +void loadAll()
    }
    
    Filter <|- - RelationFilter
    class RelationFilter
    {
        - -(constructors)- -
        +RelationFilter(String, String)
        - -
        +String description()
        - -(command line parsing)- -
        +SwitchParser.Builder<RelationFilter> switchParser(String name, String description)
        - -(filtering)- -
        +void exclude(String type)
        +RelationFilter forName(String name)
        +void include(String type)
        +SwitchParser.Builder<RelationFilter> relationFilter()
        #boolean isExcluded(PbfRelation)
        #boolean isIncluded(PbfRelation)
    }
    
    Filter <|- - WayFilter
    class WayFilter
    {
        - -(constructors)- -
        +WayFilter(String, String)
        - -
        +String description()
        - -(command line parsing)- -
        +SwitchParser.Builder<WayFilter> switchParser(String name, String description)
        - -(filtering)- -
        +void exclude(String highway)
        +WayFilter exclude(String name, Resource)
        +WayFilter forName(String name)
        +void include(String highway)
        +WayFilter include(String name, Resource)
        +SwitchParser.Builder<WayFilter> wayFilter()
        #boolean isExcluded(PbfWay)
        #boolean isIncluded(PbfWay)
    }
    
@enduml

PlantUML version 1.2021.01(Tue Feb 02 00:55:08 MST 2021)
(GPL source distribution)
Java Runtime: Java(TM) SE Runtime Environment
JVM: Java HotSpot(TM) 64-Bit Server VM
Default Encoding: UTF-8
Language: en
Country: US
--></g></svg>