<?xml version="1.0" encoding="UTF-8" standalone="no"?><svg xmlns="http://www.w3.org/2000/svg" xmlns:xlink="http://www.w3.org/1999/xlink" contentScriptType="application/ecmascript" contentStyleType="text/css" height="444.7917px" preserveAspectRatio="none" style="width:1050px;height:444px;background:#333333;" version="1.1" viewBox="0 0 1050 444" width="1050px" zoomAndPan="magnify"><defs/><g><rect fill="#48494B" height="41.2028" rx="8.3333" ry="8.3333" style="stroke:#545454;stroke-width:1.0416666666666667;" width="400" x="317.9688" y="2.0833"/><text fill="#C0C0C0" font-family="Open Sans,Avenir,Nunito,Arial,Helvetica,SansSerif" font-size="20.8333" lengthAdjust="spacing" textLength="377.0833" x="329.4271" y="30.5583">com.telenav.aonia.map.region.project</text><!--MD5=[a46ae6d3560d2accb87ca38acb02c9a3]
cluster MapRegionLimits--><polygon fill="#333333" points="790.1042,52.6611,915.1042,52.6611,922.3958,79.8828,1032.8125,79.8828,1032.8125,157.8695,790.1042,157.8695,790.1042,52.6611" style="stroke:#333333;stroke-width:2.0833333333333335;"/><line style="stroke:#333333;stroke-width:2.0833333333333335;" x1="790.1042" x2="922.3958" y1="79.8828" y2="79.8828"/><text fill="#C8AC00" font-family="Open Sans,Avenir,Nunito,Arial,Helvetica,SansSerif" font-size="12.5" font-weight="bold" lengthAdjust="spacing" textLength="112.5" x="797.3958" y="69.9544">MapRegionLimits</text><!--MD5=[344bff4cb0b841b0d7a4401854980f01]
class MapRegionLimits.Estimated--><rect codeLine="6" fill="#282828" height="48.055" id="MapRegionLimits.Estimated" rx="8.3333" ry="8.3333" style="stroke:#5E5E5E;stroke-width:1.0416666666666667;" width="102.0833" x="914.0625" y="93.2861"/><rect fill="#1B1B1A" height="31.3883" rx="8.3333" ry="8.3333" style="stroke:#1B1B1A;stroke-width:1.0416666666666667;" width="102.0833" x="914.0625" y="93.2861"/><rect fill="#1B1B1A" height="8.3333" style="stroke:#1B1B1A;stroke-width:1.0416666666666667;" width="102.0833" x="914.0625" y="116.3411"/><rect codeLine="6" fill="none" height="48.055" id="MapRegionLimits.Estimated" rx="8.3333" ry="8.3333" style="stroke:#5E5E5E;stroke-width:1.0416666666666667;" width="102.0833" x="914.0625" y="93.2861"/><ellipse cx="928.6458" cy="108.9803" fill="#0066CF" rx="10.4167" ry="10.4167" style="stroke:#0086EF;stroke-width:1.0416666666666667;"/><path d="M930.5562,113.4054 Q930.129,113.6251 929.659,113.7349 Q929.189,113.8448 928.6702,113.8448 Q926.827,113.8448 925.8565,112.6302 Q924.8861,111.4156 924.8861,109.1207 Q924.8861,106.8197 925.8565,105.6051 Q926.827,104.3905 928.6702,104.3905 Q929.189,104.3905 929.6651,104.5003 Q930.1412,104.6102 930.5562,104.8299 L930.5562,106.8319 Q930.0924,106.4046 929.656,106.2063 Q929.2196,106.0079 928.7557,106.0079 Q927.7669,106.0079 927.2634,106.7922 Q926.7598,107.5765 926.7598,109.1207 Q926.7598,110.6588 927.2634,111.4431 Q927.7669,112.2274 928.7557,112.2274 Q929.2196,112.2274 929.656,112.029 Q930.0924,111.8306 930.5562,111.4034 Z " fill="#000000"/><text fill="#D8BC00" font-family="Open Sans,Avenir,Nunito,Arial,Helvetica,SansSerif" font-size="12.5" font-weight="bold" lengthAdjust="spacing" textLength="64.5833" x="945.3125" y="113.7044">Estimated</text><line style="stroke:#5E5E5E;stroke-width:1.0416666666666667;" x1="915.1042" x2="1015.1042" y1="124.6745" y2="124.6745"/><line style="stroke:#5E5E5E;stroke-width:1.0416666666666667;" x1="915.1042" x2="1015.1042" y1="133.0078" y2="133.0078"/><!--MD5=[3f2667634c1db7d304bd29eb5d932a60]
class MapRegionLimits.Limit--><rect codeLine="10" fill="#282828" height="48.055" id="MapRegionLimits.Limit" rx="8.3333" ry="8.3333" style="stroke:#5E5E5E;stroke-width:1.0416666666666667;" width="70.8333" x="806.7708" y="93.2861"/><rect fill="#1B1B1A" height="31.3883" rx="8.3333" ry="8.3333" style="stroke:#1B1B1A;stroke-width:1.0416666666666667;" width="70.8333" x="806.7708" y="93.2861"/><rect fill="#1B1B1A" height="8.3333" style="stroke:#1B1B1A;stroke-width:1.0416666666666667;" width="70.8333" x="806.7708" y="116.3411"/><rect codeLine="10" fill="none" height="48.055" id="MapRegionLimits.Limit" rx="8.3333" ry="8.3333" style="stroke:#5E5E5E;stroke-width:1.0416666666666667;" width="70.8333" x="806.7708" y="93.2861"/><ellipse cx="821.3542" cy="108.9803" fill="#0066CF" rx="10.4167" ry="10.4167" style="stroke:#0086EF;stroke-width:1.0416666666666667;"/><path d="M823.2646,113.4054 Q822.8373,113.6251 822.3674,113.7349 Q821.8974,113.8448 821.3786,113.8448 Q819.5353,113.8448 818.5649,112.6302 Q817.5944,111.4156 817.5944,109.1207 Q817.5944,106.8197 818.5649,105.6051 Q819.5353,104.3905 821.3786,104.3905 Q821.8974,104.3905 822.3735,104.5003 Q822.8495,104.6102 823.2646,104.8299 L823.2646,106.8319 Q822.8007,106.4046 822.3643,106.2063 Q821.9279,106.0079 821.464,106.0079 Q820.4753,106.0079 819.9717,106.7922 Q819.4682,107.5765 819.4682,109.1207 Q819.4682,110.6588 819.9717,111.4431 Q820.4753,112.2274 821.464,112.2274 Q821.9279,112.2274 822.3643,112.029 Q822.8007,111.8306 823.2646,111.4034 Z " fill="#000000"/><text fill="#D8BC00" font-family="Open Sans,Avenir,Nunito,Arial,Helvetica,SansSerif" font-size="12.5" font-weight="bold" lengthAdjust="spacing" textLength="33.3333" x="838.0208" y="113.7044">Limit</text><line style="stroke:#5E5E5E;stroke-width:1.0416666666666667;" x1="807.8125" x2="876.5625" y1="124.6745" y2="124.6745"/><line style="stroke:#5E5E5E;stroke-width:1.0416666666666667;" x1="807.8125" x2="876.5625" y1="133.0078" y2="133.0078"/><!--MD5=[d776228a55af1f9e7dd99d395538019c]
class KryoTypes--><rect fill="#282828" height="48.055" id="KryoTypes" rx="8.3333" ry="8.3333" style="stroke:#5E5E5E;stroke-width:1.0416666666666667;" width="106.25" x="43.2292" y="93.2861"/><rect fill="#1B1B1A" height="31.3883" rx="8.3333" ry="8.3333" style="stroke:#1B1B1A;stroke-width:1.0416666666666667;" width="106.25" x="43.2292" y="93.2861"/><rect fill="#1B1B1A" height="8.3333" style="stroke:#1B1B1A;stroke-width:1.0416666666666667;" width="106.25" x="43.2292" y="116.3411"/><rect fill="none" height="48.055" id="KryoTypes" rx="8.3333" ry="8.3333" style="stroke:#5E5E5E;stroke-width:1.0416666666666667;" width="106.25" x="43.2292" y="93.2861"/><ellipse cx="57.8125" cy="108.9803" fill="#0066CF" rx="10.4167" ry="10.4167" style="stroke:#0086EF;stroke-width:1.0416666666666667;"/><path d="M59.7229,113.4054 Q59.2957,113.6251 58.8257,113.7349 Q58.3557,113.8448 57.8369,113.8448 Q55.9937,113.8448 55.0232,112.6302 Q54.0527,111.4156 54.0527,109.1207 Q54.0527,106.8197 55.0232,105.6051 Q55.9937,104.3905 57.8369,104.3905 Q58.3557,104.3905 58.8318,104.5003 Q59.3079,104.6102 59.7229,104.8299 L59.7229,106.8319 Q59.259,106.4046 58.8226,106.2063 Q58.3862,106.0079 57.9224,106.0079 Q56.9336,106.0079 56.4301,106.7922 Q55.9265,107.5765 55.9265,109.1207 Q55.9265,110.6588 56.4301,111.4431 Q56.9336,112.2274 57.9224,112.2274 Q58.3862,112.2274 58.8226,112.029 Q59.259,111.8306 59.7229,111.4034 Z " fill="#000000"/><text fill="#D8BC00" font-family="Open Sans,Avenir,Nunito,Arial,Helvetica,SansSerif" font-size="12.5" font-weight="bold" lengthAdjust="spacing" textLength="68.75" x="74.4792" y="113.7044">KryoTypes</text><line style="stroke:#5E5E5E;stroke-width:1.0416666666666667;" x1="44.2708" x2="148.4375" y1="124.6745" y2="124.6745"/><line style="stroke:#5E5E5E;stroke-width:1.0416666666666667;" x1="44.2708" x2="148.4375" y1="133.0078" y2="133.0078"/><!--MD5=[53ce8983dd9e57bcf7fded53301183e4]
class MapRegionKryoTypes--><rect codeLine="15" fill="#282828" height="83.3781" id="MapRegionKryoTypes" rx="8.3333" ry="8.3333" style="stroke:#5E5E5E;stroke-width:1.0416666666666667;" width="178.125" x="7.2917" y="279.2236"/><rect fill="#1B1B1A" height="31.3883" rx="8.3333" ry="8.3333" style="stroke:#1B1B1A;stroke-width:1.0416666666666667;" width="178.125" x="7.2917" y="279.2236"/><rect fill="#1B1B1A" height="8.3333" style="stroke:#1B1B1A;stroke-width:1.0416666666666667;" width="178.125" x="7.2917" y="302.2786"/><rect codeLine="15" fill="none" height="83.3781" id="MapRegionKryoTypes" rx="8.3333" ry="8.3333" style="stroke:#5E5E5E;stroke-width:1.0416666666666667;" width="178.125" x="7.2917" y="279.2236"/><ellipse cx="21.875" cy="294.9178" fill="#0066CF" rx="10.4167" ry="10.4167" style="stroke:#0086EF;stroke-width:1.0416666666666667;"/><path d="M23.7854,299.3429 Q23.3582,299.5626 22.8882,299.6724 Q22.4182,299.7823 21.8994,299.7823 Q20.0562,299.7823 19.0857,298.5677 Q18.1152,297.3531 18.1152,295.0582 Q18.1152,292.7572 19.0857,291.5426 Q20.0562,290.328 21.8994,290.328 Q22.4182,290.328 22.8943,290.4378 Q23.3704,290.5477 23.7854,290.7674 L23.7854,292.7694 Q23.3215,292.3421 22.8851,292.1438 Q22.4487,291.9454 21.9849,291.9454 Q20.9961,291.9454 20.4926,292.7297 Q19.989,293.514 19.989,295.0582 Q19.989,296.5963 20.4926,297.3806 Q20.9961,298.1649 21.9849,298.1649 Q22.4487,298.1649 22.8851,297.9665 Q23.3215,297.7681 23.7854,297.3409 Z " fill="#000000"/><text fill="#D8BC00" font-family="Open Sans,Avenir,Nunito,Arial,Helvetica,SansSerif" font-size="12.5" font-weight="bold" lengthAdjust="spacing" textLength="140.625" x="38.5417" y="299.6419">MapRegionKryoTypes</text><line style="stroke:#5E5E5E;stroke-width:1.5625;" x1="8.3333" x2="184.375" y1="310.612" y2="310.612"/><ellipse cx="18.75" cy="345.9819" fill="#84BE84" rx="3.125" ry="3.125" style="stroke:#038048;stroke-width:1.0416666666666667;"/><text fill="#D8BC00" font-family="Open Sans,Avenir,Nunito,Arial,Helvetica,SansSerif" font-size="11.4583" lengthAdjust="spacing" textLength="129.1667" x="30.2083" y="352.8931">MapRegionKryoTypes()</text><line style="stroke:#5E5E5E;stroke-width:1.0416666666666667;" x1="8.3333" x2="52.6042" y1="328.8177" y2="328.8177"/><text fill="#D8BC00" font-family="Open Sans,Avenir,Nunito,Arial,Helvetica,SansSerif" font-size="11.4583" lengthAdjust="spacing" textLength="81.25" x="55.7292" y="332.6274">(constructors)</text><line style="stroke:#5E5E5E;stroke-width:1.0416666666666667;" x1="140.1042" x2="184.375" y1="328.8177" y2="328.8177"/><!--MD5=[fa7c8ba0edf58e84934c04f3568a92c0]
class MapRegionLimits--><rect codeLine="21" fill="#282828" height="48.055" id="MapRegionLimits" rx="8.3333" ry="8.3333" style="stroke:#5E5E5E;stroke-width:1.0416666666666667;" width="150" x="185.9375" y="93.2861"/><rect fill="#1B1B1A" height="31.3883" rx="8.3333" ry="8.3333" style="stroke:#1B1B1A;stroke-width:1.0416666666666667;" width="150" x="185.9375" y="93.2861"/><rect fill="#1B1B1A" height="8.3333" style="stroke:#1B1B1A;stroke-width:1.0416666666666667;" width="150" x="185.9375" y="116.3411"/><rect codeLine="21" fill="none" height="48.055" id="MapRegionLimits" rx="8.3333" ry="8.3333" style="stroke:#5E5E5E;stroke-width:1.0416666666666667;" width="150" x="185.9375" y="93.2861"/><ellipse cx="200.5208" cy="108.9803" fill="#0066CF" rx="10.4167" ry="10.4167" style="stroke:#0086EF;stroke-width:1.0416666666666667;"/><path d="M202.4312,113.4054 Q202.004,113.6251 201.534,113.7349 Q201.064,113.8448 200.5452,113.8448 Q198.702,113.8448 197.7315,112.6302 Q196.7611,111.4156 196.7611,109.1207 Q196.7611,106.8197 197.7315,105.6051 Q198.702,104.3905 200.5452,104.3905 Q201.064,104.3905 201.5401,104.5003 Q202.0162,104.6102 202.4312,104.8299 L202.4312,106.8319 Q201.9674,106.4046 201.531,106.2063 Q201.0946,106.0079 200.6307,106.0079 Q199.6419,106.0079 199.1384,106.7922 Q198.6348,107.5765 198.6348,109.1207 Q198.6348,110.6588 199.1384,111.4431 Q199.6419,112.2274 200.6307,112.2274 Q201.0946,112.2274 201.531,112.029 Q201.9674,111.8306 202.4312,111.4034 Z " fill="#000000"/><text fill="#D8BC00" font-family="Open Sans,Avenir,Nunito,Arial,Helvetica,SansSerif" font-size="12.5" font-weight="bold" lengthAdjust="spacing" textLength="112.5" x="217.1875" y="113.7044">MapRegionLimits</text><line style="stroke:#5E5E5E;stroke-width:1.0416666666666667;" x1="186.9792" x2="334.8958" y1="124.6745" y2="124.6745"/><line style="stroke:#5E5E5E;stroke-width:1.0416666666666667;" x1="186.9792" x2="334.8958" y1="133.0078" y2="133.0078"/><!--MD5=[79d378210367c0c6ec62ef762ddfbd1b]
class Project--><rect fill="#282828" height="48.055" id="Project" rx="8.3333" ry="8.3333" style="stroke:#5E5E5E;stroke-width:1.0416666666666667;" width="81.25" x="372.3958" y="93.2861"/><rect fill="#1B1B1A" height="31.3883" rx="8.3333" ry="8.3333" style="stroke:#1B1B1A;stroke-width:1.0416666666666667;" width="81.25" x="372.3958" y="93.2861"/><rect fill="#1B1B1A" height="8.3333" style="stroke:#1B1B1A;stroke-width:1.0416666666666667;" width="81.25" x="372.3958" y="116.3411"/><rect fill="none" height="48.055" id="Project" rx="8.3333" ry="8.3333" style="stroke:#5E5E5E;stroke-width:1.0416666666666667;" width="81.25" x="372.3958" y="93.2861"/><ellipse cx="386.9792" cy="108.9803" fill="#0066CF" rx="10.4167" ry="10.4167" style="stroke:#0086EF;stroke-width:1.0416666666666667;"/><path d="M388.8896,113.4054 Q388.4623,113.6251 387.9924,113.7349 Q387.5224,113.8448 387.0036,113.8448 Q385.1603,113.8448 384.1899,112.6302 Q383.2194,111.4156 383.2194,109.1207 Q383.2194,106.8197 384.1899,105.6051 Q385.1603,104.3905 387.0036,104.3905 Q387.5224,104.3905 387.9985,104.5003 Q388.4745,104.6102 388.8896,104.8299 L388.8896,106.8319 Q388.4257,106.4046 387.9893,106.2063 Q387.5529,106.0079 387.089,106.0079 Q386.1003,106.0079 385.5967,106.7922 Q385.0932,107.5765 385.0932,109.1207 Q385.0932,110.6588 385.5967,111.4431 Q386.1003,112.2274 387.089,112.2274 Q387.5529,112.2274 387.9893,112.029 Q388.4257,111.8306 388.8896,111.4034 Z " fill="#000000"/><text fill="#D8BC00" font-family="Open Sans,Avenir,Nunito,Arial,Helvetica,SansSerif" font-size="12.5" font-weight="bold" lengthAdjust="spacing" textLength="43.75" x="403.6458" y="113.7044">Project</text><line style="stroke:#5E5E5E;stroke-width:1.0416666666666667;" x1="373.4375" x2="452.6042" y1="124.6745" y2="124.6745"/><line style="stroke:#5E5E5E;stroke-width:1.0416666666666667;" x1="373.4375" x2="452.6042" y1="133.0078" y2="133.0078"/><!--MD5=[d72ddea98e081ba295ad27a477dbe87a]
class MapRegionProject--><rect codeLine="26" fill="#282828" height="234.0922" id="MapRegionProject" rx="8.3333" ry="8.3333" style="stroke:#5E5E5E;stroke-width:1.0416666666666667;" width="280.2083" x="272.9167" y="203.7028"/><rect fill="#1B1B1A" height="31.3883" rx="8.3333" ry="8.3333" style="stroke:#1B1B1A;stroke-width:1.0416666666666667;" width="280.2083" x="272.9167" y="203.7028"/><rect fill="#1B1B1A" height="8.3333" style="stroke:#1B1B1A;stroke-width:1.0416666666666667;" width="280.2083" x="272.9167" y="226.7578"/><rect codeLine="26" fill="none" height="234.0922" id="MapRegionProject" rx="8.3333" ry="8.3333" style="stroke:#5E5E5E;stroke-width:1.0416666666666667;" width="280.2083" x="272.9167" y="203.7028"/><ellipse cx="347.9167" cy="219.397" fill="#0066CF" rx="10.4167" ry="10.4167" style="stroke:#0086EF;stroke-width:1.0416666666666667;"/><path d="M349.8271,223.822 Q349.3998,224.0417 348.9299,224.1516 Q348.4599,224.2615 347.9411,224.2615 Q346.0978,224.2615 345.1274,223.0469 Q344.1569,221.8323 344.1569,219.5374 Q344.1569,217.2363 345.1274,216.0217 Q346.0978,214.8071 347.9411,214.8071 Q348.4599,214.8071 348.936,214.917 Q349.412,215.0269 349.8271,215.2466 L349.8271,217.2485 Q349.3632,216.8213 348.9268,216.6229 Q348.4904,216.4246 348.0265,216.4246 Q347.0378,216.4246 346.5342,217.2089 Q346.0307,217.9932 346.0307,219.5374 Q346.0307,221.0754 346.5342,221.8597 Q347.0378,222.644 348.0265,222.644 Q348.4904,222.644 348.9268,222.4457 Q349.3632,222.2473 349.8271,221.8201 Z " fill="#000000"/><text fill="#D8BC00" font-family="Open Sans,Avenir,Nunito,Arial,Helvetica,SansSerif" font-size="12.5" font-weight="bold" lengthAdjust="spacing" textLength="115.625" x="370.8333" y="224.1211">MapRegionProject</text><line style="stroke:#5E5E5E;stroke-width:1.5625;" x1="273.9583" x2="552.0833" y1="235.0911" y2="235.0911"/><polygon fill="#FFFF44" points="284.375,265.2527,288.5417,269.4194,284.375,273.586,280.2083,269.4194" style="stroke:#B38D22;stroke-width:1.0416666666666667;"/><text fill="#D8BC00" font-family="Open Sans,Avenir,Nunito,Arial,Helvetica,SansSerif" font-size="11.4583" lengthAdjust="spacing" textLength="108.3333" x="295.8333" y="277.3722">MapRegionProject()</text><line style="stroke:#5E5E5E;stroke-width:1.0416666666666667;" x1="273.9583" x2="369.2708" y1="253.2969" y2="253.2969"/><text fill="#D8BC00" font-family="Open Sans,Avenir,Nunito,Arial,Helvetica,SansSerif" font-size="11.4583" lengthAdjust="spacing" textLength="81.25" x="372.3958" y="257.1065">(constructors)</text><line style="stroke:#5E5E5E;stroke-width:1.0416666666666667;" x1="456.7708" x2="552.0833" y1="253.2969" y2="253.2969"/><ellipse cx="284.375" cy="314.1174" fill="#84BE84" rx="3.125" ry="3.125" style="stroke:#038048;stroke-width:1.0416666666666667;"/><text fill="#D8BC00" font-family="Open Sans,Avenir,Nunito,Arial,Helvetica,SansSerif" font-size="11.4583" lengthAdjust="spacing" textLength="135.4167" x="295.8333" y="321.0286">Folder aoniaMapFolder()</text><ellipse cx="284.375" cy="333.8623" fill="#84BE84" rx="3.125" ry="3.125" style="stroke:#038048;stroke-width:1.0416666666666667;"/><text fill="#D8BC00" font-family="Open Sans,Avenir,Nunito,Arial,Helvetica,SansSerif" font-size="11.4583" lengthAdjust="spacing" textLength="129.1667" x="295.8333" y="340.7735">MapRegionProject get()</text><line style="stroke:#5E5E5E;stroke-width:1.0416666666666667;" x1="273.9583" x2="378.6458" y1="296.9533" y2="296.9533"/><text fill="#D8BC00" font-family="Open Sans,Avenir,Nunito,Arial,Helvetica,SansSerif" font-size="11.4583" lengthAdjust="spacing" textLength="62.5" x="381.7708" y="300.7629">(collection)</text><line style="stroke:#5E5E5E;stroke-width:1.0416666666666667;" x1="447.3958" x2="552.0833" y1="296.9533" y2="296.9533"/><ellipse cx="284.375" cy="377.5187" fill="#84BE84" rx="3.125" ry="3.125" style="stroke:#038048;stroke-width:1.0416666666666667;"/><text fill="#D8BC00" font-family="Open Sans,Avenir,Nunito,Arial,Helvetica,SansSerif" font-size="11.4583" lengthAdjust="spacing" textLength="160.4167" x="295.8333" y="384.4299">Version borderDataVersion()</text><line style="stroke:#5E5E5E;stroke-width:1.0416666666666667;" x1="273.9583" x2="384.8958" y1="360.3546" y2="360.3546"/><text fill="#D8BC00" font-family="Open Sans,Avenir,Nunito,Arial,Helvetica,SansSerif" font-size="11.4583" lengthAdjust="spacing" textLength="50" x="388.0208" y="364.1642">(identity)</text><line style="stroke:#5E5E5E;stroke-width:1.0416666666666667;" x1="441.1458" x2="552.0833" y1="360.3546" y2="360.3546"/><ellipse cx="284.375" cy="421.1751" fill="#84BE84" rx="3.125" ry="3.125" style="stroke:#038048;stroke-width:1.0416666666666667;"/><text fill="#D8BC00" font-family="Open Sans,Avenir,Nunito,Arial,Helvetica,SansSerif" font-size="11.4583" lengthAdjust="spacing" textLength="247.9167" x="295.8333" y="428.0863">SerializationSessionFactory sessionFactory()</text><line style="stroke:#5E5E5E;stroke-width:1.0416666666666667;" x1="273.9583" x2="371.875" y1="404.011" y2="404.011"/><text fill="#D8BC00" font-family="Open Sans,Avenir,Nunito,Arial,Helvetica,SansSerif" font-size="11.4583" lengthAdjust="spacing" textLength="76.0417" x="375" y="407.8206">(serialization)</text><line style="stroke:#5E5E5E;stroke-width:1.0416666666666667;" x1="454.1667" x2="552.0833" y1="404.011" y2="404.011"/><!--MD5=[bf44db367380f179c40c3108b4f7e1df]
class MapGeographyUnitTest--><rect fill="#282828" height="48.055" id="MapGeographyUnitTest" rx="8.3333" ry="8.3333" style="stroke:#5E5E5E;stroke-width:1.0416666666666667;" width="189.5833" x="580.7292" y="93.2861"/><rect fill="#1B1B1A" height="31.3883" rx="8.3333" ry="8.3333" style="stroke:#1B1B1A;stroke-width:1.0416666666666667;" width="189.5833" x="580.7292" y="93.2861"/><rect fill="#1B1B1A" height="8.3333" style="stroke:#1B1B1A;stroke-width:1.0416666666666667;" width="189.5833" x="580.7292" y="116.3411"/><rect fill="none" height="48.055" id="MapGeographyUnitTest" rx="8.3333" ry="8.3333" style="stroke:#5E5E5E;stroke-width:1.0416666666666667;" width="189.5833" x="580.7292" y="93.2861"/><ellipse cx="595.3125" cy="108.9803" fill="#0066CF" rx="10.4167" ry="10.4167" style="stroke:#0086EF;stroke-width:1.0416666666666667;"/><path d="M597.2229,113.4054 Q596.7957,113.6251 596.3257,113.7349 Q595.8557,113.8448 595.3369,113.8448 Q593.4937,113.8448 592.5232,112.6302 Q591.5527,111.4156 591.5527,109.1207 Q591.5527,106.8197 592.5232,105.6051 Q593.4937,104.3905 595.3369,104.3905 Q595.8557,104.3905 596.3318,104.5003 Q596.8079,104.6102 597.2229,104.8299 L597.2229,106.8319 Q596.759,106.4046 596.3226,106.2063 Q595.8862,106.0079 595.4224,106.0079 Q594.4336,106.0079 593.9301,106.7922 Q593.4265,107.5765 593.4265,109.1207 Q593.4265,110.6588 593.9301,111.4431 Q594.4336,112.2274 595.4224,112.2274 Q595.8862,112.2274 596.3226,112.029 Q596.759,111.8306 597.2229,111.4034 Z " fill="#000000"/><text fill="#D8BC00" font-family="Open Sans,Avenir,Nunito,Arial,Helvetica,SansSerif" font-size="12.5" font-weight="bold" lengthAdjust="spacing" textLength="152.0833" x="611.9792" y="113.7044">MapGeographyUnitTest</text><line style="stroke:#5E5E5E;stroke-width:1.0416666666666667;" x1="581.7708" x2="769.2708" y1="124.6745" y2="124.6745"/><line style="stroke:#5E5E5E;stroke-width:1.0416666666666667;" x1="581.7708" x2="769.2708" y1="133.0078" y2="133.0078"/><!--MD5=[595aef941e56ab15a6f18a0db5c76bc0]
class MapRegionUnitTest--><rect codeLine="40" fill="#282828" height="111.4563" id="MapRegionUnitTest" rx="8.3333" ry="8.3333" style="stroke:#5E5E5E;stroke-width:1.0416666666666667;" width="171.875" x="589.5833" y="265.1611"/><rect fill="#1B1B1A" height="31.3883" rx="8.3333" ry="8.3333" style="stroke:#1B1B1A;stroke-width:1.0416666666666667;" width="171.875" x="589.5833" y="265.1611"/><rect fill="#1B1B1A" height="8.3333" style="stroke:#1B1B1A;stroke-width:1.0416666666666667;" width="171.875" x="589.5833" y="288.2161"/><rect codeLine="40" fill="none" height="111.4563" id="MapRegionUnitTest" rx="8.3333" ry="8.3333" style="stroke:#5E5E5E;stroke-width:1.0416666666666667;" width="171.875" x="589.5833" y="265.1611"/><ellipse cx="607.4479" cy="280.8553" fill="#0066CF" rx="10.4167" ry="10.4167" style="stroke:#0086EF;stroke-width:1.0416666666666667;"/><path d="M609.3583,285.2804 Q608.9311,285.5001 608.4611,285.6099 Q607.9911,285.7198 607.4723,285.7198 Q605.6291,285.7198 604.6586,284.5052 Q603.6882,283.2906 603.6882,280.9957 Q603.6882,278.6947 604.6586,277.4801 Q605.6291,276.2655 607.4723,276.2655 Q607.9911,276.2655 608.4672,276.3753 Q608.9433,276.4852 609.3583,276.7049 L609.3583,278.7069 Q608.8944,278.2796 608.458,278.0813 Q608.0216,277.8829 607.5578,277.8829 Q606.569,277.8829 606.0655,278.6672 Q605.5619,279.4515 605.5619,280.9957 Q605.5619,282.5338 606.0655,283.3181 Q606.569,284.1024 607.5578,284.1024 Q608.0216,284.1024 608.458,283.904 Q608.8944,283.7056 609.3583,283.2784 Z " fill="#000000"/><text fill="#D8BC00" font-family="Open Sans,Avenir,Nunito,Arial,Helvetica,SansSerif" font-size="12.5" font-weight="bold" lengthAdjust="spacing" textLength="127.0833" x="624.8438" y="285.5794">MapRegionUnitTest</text><line style="stroke:#5E5E5E;stroke-width:1.5625;" x1="590.625" x2="760.4167" y1="296.5495" y2="296.5495"/><ellipse cx="601.0417" cy="331.9194" fill="#84BE84" rx="3.125" ry="3.125" style="stroke:#038048;stroke-width:1.0416666666666667;"/><text fill="#D8BC00" font-family="Open Sans,Avenir,Nunito,Arial,Helvetica,SansSerif" font-size="11.4583" lengthAdjust="spacing" textLength="116.6667" x="612.5" y="338.8306">MapRegionUnitTest()</text><line style="stroke:#5E5E5E;stroke-width:1.0416666666666667;" x1="590.625" x2="631.7708" y1="314.7552" y2="314.7552"/><text fill="#D8BC00" font-family="Open Sans,Avenir,Nunito,Arial,Helvetica,SansSerif" font-size="11.4583" lengthAdjust="spacing" textLength="81.25" x="634.8958" y="318.5649">(constructors)</text><line style="stroke:#5E5E5E;stroke-width:1.0416666666666667;" x1="719.2708" x2="760.4167" y1="314.7552" y2="314.7552"/><line style="stroke:#5E5E5E;stroke-width:1.0416666666666667;" x1="590.625" x2="760.4167" y1="348.5392" y2="348.5392"/><polygon fill="#FFFF44" points="601.0417,354.7892,605.2083,358.9559,601.0417,363.1226,596.875,358.9559" style="stroke:#B38D22;stroke-width:1.0416666666666667;"/><text fill="#D8BC00" font-family="Open Sans,Avenir,Nunito,Arial,Helvetica,SansSerif" font-size="11.4583" lengthAdjust="spacing" textLength="139.5833" x="612.5" y="366.9088">RegionCode code(String)</text><!--MD5=[4550fca97c39e38fc2d9d3c3120b0607]
reverse link KryoTypes to MapRegionKryoTypes--><path codeLine="14" d="M96.3542,162.484 C96.3542,197.1715 96.3542,245.0778 96.3542,278.8903 " fill="none" id="KryoTypes-backto-MapRegionKryoTypes" style="stroke:#545454;stroke-width:1.5625;"/><polygon fill="none" points="89.0625,162.2445,96.3542,141.4111,103.6458,162.2445,89.0625,162.2445" style="stroke:#545454;stroke-width:1.5625;"/><!--MD5=[feb8a6b8b945da1cf03dba8e861e7e85]
reverse link Project to MapRegionProject--><path codeLine="25" d="M413.0208,162.2757 C413.0208,174.7236 413.0208,188.8799 413.0208,203.484 " fill="none" id="Project-backto-MapRegionProject" style="stroke:#545454;stroke-width:1.5625;"/><polygon fill="none" points="405.7292,162.2445,413.0208,141.4111,420.3125,162.2445,405.7292,162.2445" style="stroke:#545454;stroke-width:1.5625;"/><!--MD5=[aaabf40263b871ec35e5244c1361ed3e]
reverse link MapGeographyUnitTest to MapRegionUnitTest--><path codeLine="39" d="M675.5208,162.6299 C675.5208,192.7028 675.5208,232.682 675.5208,264.7965 " fill="none" id="MapGeographyUnitTest-backto-MapRegionUnitTest" style="stroke:#545454;stroke-width:1.5625;"/><polygon fill="none" points="668.2292,162.2445,675.5208,141.4111,682.8125,162.2445,668.2292,162.2445" style="stroke:#545454;stroke-width:1.5625;"/><!--MD5=[8bfee69ef10a663de2ce594a453af601]
@startuml

    !include ../lexakai/lexakai.theme
    
    title "com.telenav.aonia.map.region.project"
    
    class MapRegionLimits.Estimated
    {
    }
    
    class MapRegionLimits.Limit
    {
    }
    
    KryoTypes <|- - MapRegionKryoTypes
    class MapRegionKryoTypes
    {
        - -(constructors)- -
        +MapRegionKryoTypes()
    }
    
    class MapRegionLimits
    {
    }
    
    Project <|- - MapRegionProject
    class MapRegionProject
    {
        - -(constructors)- -
        #MapRegionProject()
        - -(collection)- -
        +Folder aoniaMapFolder()
        +MapRegionProject get()
        - -(identity)- -
        +Version borderDataVersion()
        - -(serialization)- -
        +SerializationSessionFactory sessionFactory()
    }
    
    MapGeographyUnitTest <|- - MapRegionUnitTest
    class MapRegionUnitTest
    {
        - -(constructors)- -
        +MapRegionUnitTest()
        - -
        #RegionCode code(String)
    }
    
@enduml

@startuml









skinparam backgroundColor #333333






skinparam  {
    defaultFontName   "Open Sans,Avenir,Nunito,Arial,Helvetica,SansSerif"
    defaultFontSize   12
    defaultTextAlignment left
    shadowing false
    RoundCorner 10
    TitleFontSize 18
}

skinparam defaultFontName       "Open Sans,Avenir,Nunito,Arial,Helvetica,SansSerif"
skinparam defaultFontSize       12
skinparam dpi                   100
skinparam shadowing             false
skinparam roundcorner           16
skinparam ParticipantPadding    40
skinparam BoxPadding            40
skinparam Padding               3
skinparam ArrowColor            #545454
skinparam stereotype {
    CBackgroundColor #0066cf
    CBorderColor #0086ef
    ABackgroundColor #C8Ac00
    ABorderColor #D8Bc00
    IBackgroundColor #008400
    IBorderColor #239c23
    EBackgroundColor #cf6300
    EBorderColor #ef8300
    NBackgroundColor #3380b9
    NBorderColor #004d86
}
skinparam title {
	FontColor	                 #c0c0c0
 	BorderColor                  #545454
	FontSize	    	         20
	BorderRoundCorner            16
	BorderThickness 	         1
	BackgroundColor              #48494b
}


skinparam legend {
	BackgroundColor #303030
	BorderColor #404040
	FontColor #a0a0a0
}

	skinparam swimlane {
	BorderColor #5e5e5e
	BorderThickness 2
	TitleBackgroundColor  #6d6d6d-#484848
	TitleFontColor #303030
}

skinparam activity {
		FontColor #C8Ac00
	BorderColor #333333
	BackgroundColor #333333-#333333
	BarColor #00FF00
	StartColor #0060a8
	EndColor #0060a8
	DiamondBackgroundColor #6d6d6d-#3a3a3a
  	DiamondBorderColor #3a3a3a
  	DiamondFontColor #fefefe
}


skinparam participant {
		FontColor #C8Ac00
	BorderColor #333333
	BackgroundColor #333333-#333333
	ParticipantBorderThickness 2
}


skinparam actor {
		FontColor #C8Ac00
	BorderColor #333333
	BackgroundColor #333333-#333333
}


skinparam arrow {
	Thickness 1.5
	Color #545454
	FontColor #a0a0a0
    FontStyle bold
    MessageAlignment center
}



skinparam sequence {
	BorderColor #303030
	TitleFontColor #303030
	BackgroundColor #333333
	StartColor #303030
	EndColor #303030
	BoxBackgroundColor #333333
	BoxBorderColor #484848
	BoxFontColor #484848
	LifeLineBorderColor #484848
	LifeLineBorderThickness 2
	LifeLineBackgroundColor #3a3a3a
	GroupBorderColor #484848
	GroupFontColor #484848
	GroupHeaderFontColor #0060a8
	GroupBackgroundColor #484848
	GroupHeaderBackgroundColor #333333
	DividerBackgroundColor #484848
    DividerBorderColor #484848
    DividerBorderThickness 2
    DividerFontColor #D8Bc00
	ReferenceBackgroundColor #333333
	ReferenceBorderColor #484848
	ReferenceFontColor #fefefe
	ReferenceHeaderBackgroundColor #484848
}


skinparam partition {
	BorderColor #303030
	FontColor #333333
	BackgroundColor #333333
}


skinparam collections {
		FontColor #C8Ac00
	BorderColor #333333
	BackgroundColor #333333-#333333
}


skinparam control {
		FontColor #C8Ac00
	BorderColor #333333
	BackgroundColor #333333-#333333
}


skinparam entity {
		FontColor #C8Ac00
	BorderColor #333333
	BackgroundColor #333333-#333333
}


skinparam boundary {
		FontColor #C8Ac00
	BorderColor #333333
	BackgroundColor #333333-#333333
}


skinparam agent {
	BackgroundColor #ff8000
	BorderColor #ff9933
	FontColor #484848
}


skinparam note {
	BorderThickness 1
	BackgroundColor #1b1b1a
	BorderColor #5e5e5e
	FontSize 11
	FontColor #a0a0a0
}


skinparam artifact {
	BorderThickness 10
	BorderColor #5e5e5e
	BackgroundColor #1b1b1a
	FontColor #D8Bc00
}


skinparam component {
		FontColor #C8Ac00
	BorderColor #333333
	BackgroundColor #333333-#333333
}


skinparam interface {
	BackgroundColor  #008400
	BorderColor  #007F00
	FontColor #484848
}


skinparam storage {
	BackgroundColor #ff8000
  	BorderColor #cc6600
	FontColor #222222
}


skinparam node {
	BackgroundColor #333333
	BorderColor #333333
	FontColor #C8Ac00
}


skinparam cloud {
	BackgroundColor #484848-black
	BorderColor #484848
	FontColor #D8Bc00
}


skinparam database {
		FontColor #C8Ac00
	BorderColor #333333
	BackgroundColor #333333-#333333
	BackgroundColor  #333333
}


skinparam class {
		FontColor #C8Ac00
	BorderColor #333333
	BackgroundColor #333333-#333333
	HeaderBackgroundColor #1b1b1a
    BackgroundColor #282828
    BorderColor #5e5e5e
 	StereotypeFontColor #a0a0a0
    StereotypeFontStyle bold
	BorderThickness 1
	AttributeFontColor #D8Bc00
	AttributeFontSize 11
    FontColor #D8Bc00
    FontStyle bold
}


skinparam object {
		FontColor #C8Ac00
	BorderColor #333333
	BackgroundColor #333333-#333333
	StereotypeFontColor #484848
	BorderThickness 1
	AttributeFontColor #fefefe
	AttributeFontSize 11
}


skinparam usecase {
		FontColor #C8Ac00
	BorderColor #333333
	BackgroundColor #333333-#333333
	BorderThickness 2
	StereotypeFontColor #303030
}


skinparam rectangle {
		FontColor #C8Ac00
	BorderColor #333333
	BackgroundColor #333333-#333333
	BackgroundColor #333333
	BorderThickness 2
	StereotypeFontColor #303030
}


skinparam package {
		FontColor #C8Ac00
	BorderColor #333333
	BackgroundColor #333333-#333333
	BackgroundColor #333333
	BorderThickness 2
}


skinparam folder {
	BackgroundColor #6d6d6d
  	BorderColor #ff8000
	FontColor #ff8000
	BorderThickness 2
}


skinparam frame {
	BackgroundColor #6d6d6d
  	BorderColor #0060a8
	FontColor #0060a8
	BorderThickness 2
}


skinparam state {
		FontColor #C8Ac00
	BorderColor #333333
	BackgroundColor #333333-#333333
	StartColor #0060a8
	EndColor #0060a8
	AttributeFontColor #fefefe
	AttributeFontSize 11
}


skinparam queue {
		FontColor #C8Ac00
	BorderColor #333333
	BackgroundColor #333333-#333333
}


skinparam card {
	BackgroundColor #0060a8
	BorderColor #004d86
	FontColor $INFO_TEXT
}


skinparam file {
	BackgroundColor #6d6d6d-#484848
	BorderColor #0060a8
	FontColor #fefefe
}


skinparam stack {
		FontColor #C8Ac00
	BorderColor #333333
	BackgroundColor #333333-#333333
}

    
    title "com.telenav.aonia.map.region.project"
    
    class MapRegionLimits.Estimated
    {
    }
    
    class MapRegionLimits.Limit
    {
    }
    
    KryoTypes <|- - MapRegionKryoTypes
    class MapRegionKryoTypes
    {
        - -(constructors)- -
        +MapRegionKryoTypes()
    }
    
    class MapRegionLimits
    {
    }
    
    Project <|- - MapRegionProject
    class MapRegionProject
    {
        - -(constructors)- -
        #MapRegionProject()
        - -(collection)- -
        +Folder aoniaMapFolder()
        +MapRegionProject get()
        - -(identity)- -
        +Version borderDataVersion()
        - -(serialization)- -
        +SerializationSessionFactory sessionFactory()
    }
    
    MapGeographyUnitTest <|- - MapRegionUnitTest
    class MapRegionUnitTest
    {
        - -(constructors)- -
        +MapRegionUnitTest()
        - -
        #RegionCode code(String)
    }
    
@enduml

PlantUML version 1.2021.01(Tue Feb 02 00:55:08 MST 2021)
(GPL source distribution)
Java Runtime: Java(TM) SE Runtime Environment
JVM: Java HotSpot(TM) 64-Bit Server VM
Default Encoding: UTF-8
Language: en
Country: US
--></g></svg>