<?xml version="1.0" encoding="UTF-8" standalone="no"?><svg xmlns="http://www.w3.org/2000/svg" xmlns:xlink="http://www.w3.org/1999/xlink" contentScriptType="application/ecmascript" contentStyleType="text/css" height="254.1667px" preserveAspectRatio="none" style="width:434px;height:254px;background:#333333;" version="1.1" viewBox="0 0 434 254" width="434.375px" zoomAndPan="magnify"><defs/><g><rect fill="#48494B" height="41.2028" rx="8.3333" ry="8.3333" style="stroke:#545454;stroke-width:1.0416666666666667;" width="421.875" x="2.0833" y="2.0833"/><text fill="#C0C0C0" font-family="Open Sans,Avenir,Nunito,Arial,Helvetica,SansSerif" font-size="20.8333" lengthAdjust="spacing" textLength="398.9583" x="13.5417" y="30.5583">com.telenav.aonia.map.region.countries</text><!--MD5=[deb4e1f6eb1e3c1256fdb830f96abfbb]
class Country--><rect fill="#282828" height="48.055" id="Country" rx="8.3333" ry="8.3333" style="stroke:#5E5E5E;stroke-width:1.0416666666666667;" width="89.5833" x="163.2813" y="53.7028"/><rect fill="#1B1B1A" height="31.3883" rx="8.3333" ry="8.3333" style="stroke:#1B1B1A;stroke-width:1.0416666666666667;" width="89.5833" x="163.2813" y="53.7028"/><rect fill="#1B1B1A" height="8.3333" style="stroke:#1B1B1A;stroke-width:1.0416666666666667;" width="89.5833" x="163.2813" y="76.7578"/><rect fill="none" height="48.055" id="Country" rx="8.3333" ry="8.3333" style="stroke:#5E5E5E;stroke-width:1.0416666666666667;" width="89.5833" x="163.2813" y="53.7028"/><ellipse cx="177.8646" cy="69.397" fill="#0066CF" rx="10.4167" ry="10.4167" style="stroke:#0086EF;stroke-width:1.0416666666666667;"/><path d="M179.775,73.822 Q179.3477,74.0417 178.8778,74.1516 Q178.4078,74.2615 177.889,74.2615 Q176.0457,74.2615 175.0753,73.0469 Q174.1048,71.8323 174.1048,69.5374 Q174.1048,67.2363 175.0753,66.0217 Q176.0457,64.8071 177.889,64.8071 Q178.4078,64.8071 178.8839,64.917 Q179.3599,65.0269 179.775,65.2466 L179.775,67.2485 Q179.3111,66.8213 178.8747,66.6229 Q178.4383,66.4246 177.9744,66.4246 Q176.9857,66.4246 176.4821,67.2089 Q175.9786,67.9932 175.9786,69.5374 Q175.9786,71.0754 176.4821,71.8597 Q176.9857,72.644 177.9744,72.644 Q178.4383,72.644 178.8747,72.4457 Q179.3111,72.2473 179.775,71.8201 Z " fill="#000000"/><text fill="#D8BC00" font-family="Open Sans,Avenir,Nunito,Arial,Helvetica,SansSerif" font-size="12.5" font-weight="bold" lengthAdjust="spacing" textLength="52.0833" x="194.5313" y="74.1211">Country</text><line style="stroke:#5E5E5E;stroke-width:1.0416666666666667;" x1="164.3229" x2="251.8229" y1="85.0911" y2="85.0911"/><line style="stroke:#5E5E5E;stroke-width:1.0416666666666667;" x1="164.3229" x2="251.8229" y1="93.4245" y2="93.4245"/><!--MD5=[52cdef54135e96312d4db8e610dbcf1e]
class Canada--><rect codeLine="7" fill="#282828" height="83.3781" id="Canada" rx="8.3333" ry="8.3333" style="stroke:#5E5E5E;stroke-width:1.0416666666666667;" width="95.8333" x="27.8646" y="164.1195"/><rect fill="#1B1B1A" height="31.3883" rx="8.3333" ry="8.3333" style="stroke:#1B1B1A;stroke-width:1.0416666666666667;" width="95.8333" x="27.8646" y="164.1195"/><rect fill="#1B1B1A" height="8.3333" style="stroke:#1B1B1A;stroke-width:1.0416666666666667;" width="95.8333" x="27.8646" y="187.1745"/><rect codeLine="7" fill="none" height="83.3781" id="Canada" rx="8.3333" ry="8.3333" style="stroke:#5E5E5E;stroke-width:1.0416666666666667;" width="95.8333" x="27.8646" y="164.1195"/><ellipse cx="47.1354" cy="179.8136" fill="#0066CF" rx="10.4167" ry="10.4167" style="stroke:#0086EF;stroke-width:1.0416666666666667;"/><path d="M49.0458,184.2387 Q48.6186,184.4584 48.1486,184.5683 Q47.6786,184.6781 47.1598,184.6781 Q45.3166,184.6781 44.3461,183.4635 Q43.3757,182.2489 43.3757,179.954 Q43.3757,177.653 44.3461,176.4384 Q45.3166,175.2238 47.1598,175.2238 Q47.6786,175.2238 48.1547,175.3337 Q48.6308,175.4435 49.0458,175.6632 L49.0458,177.6652 Q48.5819,177.238 48.1455,177.0396 Q47.7091,176.8412 47.2453,176.8412 Q46.2565,176.8412 45.753,177.6255 Q45.2494,178.4098 45.2494,179.954 Q45.2494,181.4921 45.753,182.2764 Q46.2565,183.0607 47.2453,183.0607 Q47.7091,183.0607 48.1455,182.8623 Q48.5819,182.664 49.0458,182.2367 Z " fill="#000000"/><text fill="#D8BC00" font-family="Open Sans,Avenir,Nunito,Arial,Helvetica,SansSerif" font-size="12.5" font-weight="bold" lengthAdjust="spacing" textLength="47.9167" x="64.8438" y="184.5378">Canada</text><line style="stroke:#5E5E5E;stroke-width:1.5625;" x1="28.9063" x2="122.6563" y1="195.5078" y2="195.5078"/><ellipse cx="39.3229" cy="230.8777" fill="#84BE84" rx="3.125" ry="3.125" style="stroke:#038048;stroke-width:1.0416666666666667;"/><text fill="#D8BC00" font-family="Open Sans,Avenir,Nunito,Arial,Helvetica,SansSerif" font-size="11.4583" lengthAdjust="spacing" textLength="50" x="50.7813" y="237.7889">Canada()</text><line style="stroke:#5E5E5E;stroke-width:1.0416666666666667;" x1="28.9063" x2="32.0313" y1="213.7136" y2="213.7136"/><text fill="#D8BC00" font-family="Open Sans,Avenir,Nunito,Arial,Helvetica,SansSerif" font-size="11.4583" lengthAdjust="spacing" textLength="81.25" x="35.1563" y="217.5232">(constructors)</text><line style="stroke:#5E5E5E;stroke-width:1.0416666666666667;" x1="119.5313" x2="122.6563" y1="213.7136" y2="213.7136"/><!--MD5=[4b66af38fbc7b63a5c8be8aece0930bb]
class Mexico--><rect codeLine="14" fill="#282828" height="83.3781" id="Mexico" rx="8.3333" ry="8.3333" style="stroke:#5E5E5E;stroke-width:1.0416666666666667;" width="95.8333" x="160.1563" y="164.1195"/><rect fill="#1B1B1A" height="31.3883" rx="8.3333" ry="8.3333" style="stroke:#1B1B1A;stroke-width:1.0416666666666667;" width="95.8333" x="160.1563" y="164.1195"/><rect fill="#1B1B1A" height="8.3333" style="stroke:#1B1B1A;stroke-width:1.0416666666666667;" width="95.8333" x="160.1563" y="187.1745"/><rect codeLine="14" fill="none" height="83.3781" id="Mexico" rx="8.3333" ry="8.3333" style="stroke:#5E5E5E;stroke-width:1.0416666666666667;" width="95.8333" x="160.1563" y="164.1195"/><ellipse cx="180.8333" cy="179.8136" fill="#0066CF" rx="10.4167" ry="10.4167" style="stroke:#0086EF;stroke-width:1.0416666666666667;"/><path d="M182.7437,184.2387 Q182.3165,184.4584 181.8465,184.5683 Q181.3765,184.6781 180.8577,184.6781 Q179.0145,184.6781 178.044,183.4635 Q177.0736,182.2489 177.0736,179.954 Q177.0736,177.653 178.044,176.4384 Q179.0145,175.2238 180.8577,175.2238 Q181.3765,175.2238 181.8526,175.3337 Q182.3287,175.4435 182.7437,175.6632 L182.7437,177.6652 Q182.2799,177.238 181.8435,177.0396 Q181.4071,176.8412 180.9432,176.8412 Q179.9544,176.8412 179.4509,177.6255 Q178.9473,178.4098 178.9473,179.954 Q178.9473,181.4921 179.4509,182.2764 Q179.9544,183.0607 180.9432,183.0607 Q181.4071,183.0607 181.8435,182.8623 Q182.2799,182.664 182.7437,182.2367 Z " fill="#000000"/><text fill="#D8BC00" font-family="Open Sans,Avenir,Nunito,Arial,Helvetica,SansSerif" font-size="12.5" font-weight="bold" lengthAdjust="spacing" textLength="44.7917" x="198.8542" y="184.5378">Mexico</text><line style="stroke:#5E5E5E;stroke-width:1.5625;" x1="161.1979" x2="254.9479" y1="195.5078" y2="195.5078"/><ellipse cx="171.6146" cy="230.8777" fill="#84BE84" rx="3.125" ry="3.125" style="stroke:#038048;stroke-width:1.0416666666666667;"/><text fill="#D8BC00" font-family="Open Sans,Avenir,Nunito,Arial,Helvetica,SansSerif" font-size="11.4583" lengthAdjust="spacing" textLength="47.9167" x="183.0729" y="237.7889">Mexico()</text><line style="stroke:#5E5E5E;stroke-width:1.0416666666666667;" x1="161.1979" x2="164.3229" y1="213.7136" y2="213.7136"/><text fill="#D8BC00" font-family="Open Sans,Avenir,Nunito,Arial,Helvetica,SansSerif" font-size="11.4583" lengthAdjust="spacing" textLength="81.25" x="167.4479" y="217.5232">(constructors)</text><line style="stroke:#5E5E5E;stroke-width:1.0416666666666667;" x1="251.8229" x2="254.9479" y1="213.7136" y2="213.7136"/><!--MD5=[0c1f069b7b10bf574a238558f7a2c2bc]
class UnitedStates--><rect codeLine="21" fill="#282828" height="83.3781" id="UnitedStates" rx="8.3333" ry="8.3333" style="stroke:#5E5E5E;stroke-width:1.0416666666666667;" width="119.7917" x="292.9688" y="164.1195"/><rect fill="#1B1B1A" height="31.3883" rx="8.3333" ry="8.3333" style="stroke:#1B1B1A;stroke-width:1.0416666666666667;" width="119.7917" x="292.9688" y="164.1195"/><rect fill="#1B1B1A" height="8.3333" style="stroke:#1B1B1A;stroke-width:1.0416666666666667;" width="119.7917" x="292.9688" y="187.1745"/><rect codeLine="21" fill="none" height="83.3781" id="UnitedStates" rx="8.3333" ry="8.3333" style="stroke:#5E5E5E;stroke-width:1.0416666666666667;" width="119.7917" x="292.9688" y="164.1195"/><ellipse cx="307.5521" cy="179.8136" fill="#0066CF" rx="10.4167" ry="10.4167" style="stroke:#0086EF;stroke-width:1.0416666666666667;"/><path d="M309.4625,184.2387 Q309.0352,184.4584 308.5653,184.5683 Q308.0953,184.6781 307.5765,184.6781 Q305.7332,184.6781 304.7628,183.4635 Q303.7923,182.2489 303.7923,179.954 Q303.7923,177.653 304.7628,176.4384 Q305.7332,175.2238 307.5765,175.2238 Q308.0953,175.2238 308.5714,175.3337 Q309.0474,175.4435 309.4625,175.6632 L309.4625,177.6652 Q308.9986,177.238 308.5622,177.0396 Q308.1258,176.8412 307.6619,176.8412 Q306.6732,176.8412 306.1696,177.6255 Q305.6661,178.4098 305.6661,179.954 Q305.6661,181.4921 306.1696,182.2764 Q306.6732,183.0607 307.6619,183.0607 Q308.1258,183.0607 308.5622,182.8623 Q308.9986,182.664 309.4625,182.2367 Z " fill="#000000"/><text fill="#D8BC00" font-family="Open Sans,Avenir,Nunito,Arial,Helvetica,SansSerif" font-size="12.5" font-weight="bold" lengthAdjust="spacing" textLength="82.2917" x="324.2188" y="184.5378">UnitedStates</text><line style="stroke:#5E5E5E;stroke-width:1.5625;" x1="294.0104" x2="411.7188" y1="195.5078" y2="195.5078"/><ellipse cx="304.4271" cy="230.8777" fill="#84BE84" rx="3.125" ry="3.125" style="stroke:#038048;stroke-width:1.0416666666666667;"/><text fill="#D8BC00" font-family="Open Sans,Avenir,Nunito,Arial,Helvetica,SansSerif" font-size="11.4583" lengthAdjust="spacing" textLength="78.125" x="315.8854" y="237.7889">UnitedStates()</text><line style="stroke:#5E5E5E;stroke-width:1.0416666666666667;" x1="294.0104" x2="309.1146" y1="213.7136" y2="213.7136"/><text fill="#D8BC00" font-family="Open Sans,Avenir,Nunito,Arial,Helvetica,SansSerif" font-size="11.4583" lengthAdjust="spacing" textLength="81.25" x="312.2396" y="217.5232">(constructors)</text><line style="stroke:#5E5E5E;stroke-width:1.0416666666666667;" x1="396.6146" x2="411.7188" y1="213.7136" y2="213.7136"/><!--MD5=[807addf6be2296bdb053c7e67aad762a]
reverse link Country to Canada--><path codeLine="6" d="M168.4896,116.4215 C152.7708,131.3903 134.6563,148.6507 118.625,163.9215 " fill="none" id="Country-backto-Canada" style="stroke:#545454;stroke-width:1.5625;"/><polygon fill="none" points="163.6979,110.9111,183.8125,101.8174,173.75,121.4736,163.6979,110.9111" style="stroke:#545454;stroke-width:1.5625;"/><!--MD5=[55759bad902d2ae66fed6660333a0144]
reverse link Country to Mexico--><path codeLine="13" d="M208.0729,122.682 C208.0729,136.0778 208.0729,150.7445 208.0729,163.9215 " fill="none" id="Country-backto-Mexico" style="stroke:#545454;stroke-width:1.5625;"/><polygon fill="none" points="200.7813,122.6507,208.0729,101.8174,215.3646,122.6507,200.7813,122.6507" style="stroke:#545454;stroke-width:1.5625;"/><!--MD5=[68ec7ca6675cd61500b37fc5a35aa16b]
reverse link Country to UnitedStates--><path codeLine="20" d="M250.5833,115.7132 C267.9792,130.8486 288.1563,148.4111 305.9688,163.9215 " fill="none" id="Country-backto-UnitedStates" style="stroke:#545454;stroke-width:1.5625;"/><polygon fill="none" points="245.5521,120.9945,234.625,101.8174,255.1354,110.0049,245.5521,120.9945" style="stroke:#545454;stroke-width:1.5625;"/><!--MD5=[a28a647123d4cbfa57065b9b94b6c5dd]
@startuml

    !include ../lexakai/lexakai.theme
    
    title "com.telenav.aonia.map.region.countries"
    
    Country <|- - Canada
    class Canada
    {
        - -(constructors)- -
        +Canada()
    }
    
    Country <|- - Mexico
    class Mexico
    {
        - -(constructors)- -
        +Mexico()
    }
    
    Country <|- - UnitedStates
    class UnitedStates
    {
        - -(constructors)- -
        +UnitedStates()
    }
    
@enduml

@startuml









skinparam backgroundColor #333333






skinparam  {
    defaultFontName   "Open Sans,Avenir,Nunito,Arial,Helvetica,SansSerif"
    defaultFontSize   12
    defaultTextAlignment left
    shadowing false
    RoundCorner 10
    TitleFontSize 18
}

skinparam defaultFontName       "Open Sans,Avenir,Nunito,Arial,Helvetica,SansSerif"
skinparam defaultFontSize       12
skinparam dpi                   100
skinparam shadowing             false
skinparam roundcorner           16
skinparam ParticipantPadding    40
skinparam BoxPadding            40
skinparam Padding               3
skinparam ArrowColor            #545454
skinparam stereotype {
    CBackgroundColor #0066cf
    CBorderColor #0086ef
    ABackgroundColor #C8Ac00
    ABorderColor #D8Bc00
    IBackgroundColor #008400
    IBorderColor #239c23
    EBackgroundColor #cf6300
    EBorderColor #ef8300
    NBackgroundColor #3380b9
    NBorderColor #004d86
}
skinparam title {
	FontColor	                 #c0c0c0
 	BorderColor                  #545454
	FontSize	    	         20
	BorderRoundCorner            16
	BorderThickness 	         1
	BackgroundColor              #48494b
}


skinparam legend {
	BackgroundColor #303030
	BorderColor #404040
	FontColor #a0a0a0
}

	skinparam swimlane {
	BorderColor #5e5e5e
	BorderThickness 2
	TitleBackgroundColor  #6d6d6d-#484848
	TitleFontColor #303030
}

skinparam activity {
		FontColor #C8Ac00
	BorderColor #333333
	BackgroundColor #333333-#333333
	BarColor #00FF00
	StartColor #0060a8
	EndColor #0060a8
	DiamondBackgroundColor #6d6d6d-#3a3a3a
  	DiamondBorderColor #3a3a3a
  	DiamondFontColor #fefefe
}


skinparam participant {
		FontColor #C8Ac00
	BorderColor #333333
	BackgroundColor #333333-#333333
	ParticipantBorderThickness 2
}


skinparam actor {
		FontColor #C8Ac00
	BorderColor #333333
	BackgroundColor #333333-#333333
}


skinparam arrow {
	Thickness 1.5
	Color #545454
	FontColor #a0a0a0
    FontStyle bold
    MessageAlignment center
}



skinparam sequence {
	BorderColor #303030
	TitleFontColor #303030
	BackgroundColor #333333
	StartColor #303030
	EndColor #303030
	BoxBackgroundColor #333333
	BoxBorderColor #484848
	BoxFontColor #484848
	LifeLineBorderColor #484848
	LifeLineBorderThickness 2
	LifeLineBackgroundColor #3a3a3a
	GroupBorderColor #484848
	GroupFontColor #484848
	GroupHeaderFontColor #0060a8
	GroupBackgroundColor #484848
	GroupHeaderBackgroundColor #333333
	DividerBackgroundColor #484848
    DividerBorderColor #484848
    DividerBorderThickness 2
    DividerFontColor #D8Bc00
	ReferenceBackgroundColor #333333
	ReferenceBorderColor #484848
	ReferenceFontColor #fefefe
	ReferenceHeaderBackgroundColor #484848
}


skinparam partition {
	BorderColor #303030
	FontColor #333333
	BackgroundColor #333333
}


skinparam collections {
		FontColor #C8Ac00
	BorderColor #333333
	BackgroundColor #333333-#333333
}


skinparam control {
		FontColor #C8Ac00
	BorderColor #333333
	BackgroundColor #333333-#333333
}


skinparam entity {
		FontColor #C8Ac00
	BorderColor #333333
	BackgroundColor #333333-#333333
}


skinparam boundary {
		FontColor #C8Ac00
	BorderColor #333333
	BackgroundColor #333333-#333333
}


skinparam agent {
	BackgroundColor #ff8000
	BorderColor #ff9933
	FontColor #484848
}


skinparam note {
	BorderThickness 1
	BackgroundColor #1b1b1a
	BorderColor #5e5e5e
	FontSize 11
	FontColor #a0a0a0
}


skinparam artifact {
	BorderThickness 10
	BorderColor #5e5e5e
	BackgroundColor #1b1b1a
	FontColor #D8Bc00
}


skinparam component {
		FontColor #C8Ac00
	BorderColor #333333
	BackgroundColor #333333-#333333
}


skinparam interface {
	BackgroundColor  #008400
	BorderColor  #007F00
	FontColor #484848
}


skinparam storage {
	BackgroundColor #ff8000
  	BorderColor #cc6600
	FontColor #222222
}


skinparam node {
	BackgroundColor #333333
	BorderColor #333333
	FontColor #C8Ac00
}


skinparam cloud {
	BackgroundColor #484848-black
	BorderColor #484848
	FontColor #D8Bc00
}


skinparam database {
		FontColor #C8Ac00
	BorderColor #333333
	BackgroundColor #333333-#333333
	BackgroundColor  #333333
}


skinparam class {
		FontColor #C8Ac00
	BorderColor #333333
	BackgroundColor #333333-#333333
	HeaderBackgroundColor #1b1b1a
    BackgroundColor #282828
    BorderColor #5e5e5e
 	StereotypeFontColor #a0a0a0
    StereotypeFontStyle bold
	BorderThickness 1
	AttributeFontColor #D8Bc00
	AttributeFontSize 11
    FontColor #D8Bc00
    FontStyle bold
}


skinparam object {
		FontColor #C8Ac00
	BorderColor #333333
	BackgroundColor #333333-#333333
	StereotypeFontColor #484848
	BorderThickness 1
	AttributeFontColor #fefefe
	AttributeFontSize 11
}


skinparam usecase {
		FontColor #C8Ac00
	BorderColor #333333
	BackgroundColor #333333-#333333
	BorderThickness 2
	StereotypeFontColor #303030
}


skinparam rectangle {
		FontColor #C8Ac00
	BorderColor #333333
	BackgroundColor #333333-#333333
	BackgroundColor #333333
	BorderThickness 2
	StereotypeFontColor #303030
}


skinparam package {
		FontColor #C8Ac00
	BorderColor #333333
	BackgroundColor #333333-#333333
	BackgroundColor #333333
	BorderThickness 2
}


skinparam folder {
	BackgroundColor #6d6d6d
  	BorderColor #ff8000
	FontColor #ff8000
	BorderThickness 2
}


skinparam frame {
	BackgroundColor #6d6d6d
  	BorderColor #0060a8
	FontColor #0060a8
	BorderThickness 2
}


skinparam state {
		FontColor #C8Ac00
	BorderColor #333333
	BackgroundColor #333333-#333333
	StartColor #0060a8
	EndColor #0060a8
	AttributeFontColor #fefefe
	AttributeFontSize 11
}


skinparam queue {
		FontColor #C8Ac00
	BorderColor #333333
	BackgroundColor #333333-#333333
}


skinparam card {
	BackgroundColor #0060a8
	BorderColor #004d86
	FontColor $INFO_TEXT
}


skinparam file {
	BackgroundColor #6d6d6d-#484848
	BorderColor #0060a8
	FontColor #fefefe
}


skinparam stack {
		FontColor #C8Ac00
	BorderColor #333333
	BackgroundColor #333333-#333333
}

    
    title "com.telenav.aonia.map.region.countries"
    
    Country <|- - Canada
    class Canada
    {
        - -(constructors)- -
        +Canada()
    }
    
    Country <|- - Mexico
    class Mexico
    {
        - -(constructors)- -
        +Mexico()
    }
    
    Country <|- - UnitedStates
    class UnitedStates
    {
        - -(constructors)- -
        +UnitedStates()
    }
    
@enduml

PlantUML version 1.2021.01(Tue Feb 02 00:55:08 MST 2021)
(GPL source distribution)
Java Runtime: Java(TM) SE Runtime Environment
JVM: Java HotSpot(TM) 64-Bit Server VM
Default Encoding: UTF-8
Language: en
Country: US
--></g></svg>